<svg width="15" height="17" viewBox="0 0 15 17" fill="none" xmlns="http://www.w3.org/2000/svg">
<path d="M0.80296 1.77043L12.5968 1.73298L0.449076 15.0714C0.249813 15.2719 0.250819 15.596 0.451327 15.7953C0.651836 15.9946 0.975945 15.9936 1.17521 15.7931L13.3229 2.45461L13.3589 14.2485C13.3646 14.5311 13.5985 14.7555 13.8811 14.7497C14.1568 14.7441 14.3785 14.521 14.3824 14.2453L14.3419 1.21585C14.3414 0.933172 14.1117 0.704443 13.8291 0.704949L13.8278 0.704953L0.798312 0.745489C0.515685 0.751253 0.291277 0.985095 0.297043 1.26772C0.302686 1.54346 0.525725 1.76512 0.801496 1.76905L0.80296 1.77043Z" fill="white" stroke="white" stroke-width="0.5"/>
</svg>
