<svg width="495" height="293" viewBox="0 0 495 293" fill="none" xmlns="http://www.w3.org/2000/svg">
<path d="M372.09 150.652C366.844 150.111 362.321 149.686 357.788 149.193C350.613 148.477 343.435 147.775 336.253 147.085C333.707 146.844 331.152 146.66 328.596 146.515C321.968 146.141 315.342 145.78 308.72 145.432C297.668 144.881 286.607 144.379 275.555 143.799C272.382 143.634 269.209 143.296 265.699 143.006C267.049 141.836 268.332 140.763 269.556 139.623C270.463 138.829 271.292 137.952 272.035 137.003C272.27 136.74 272.437 136.422 272.52 136.078C272.603 135.734 272.599 135.375 272.509 135.033C272.419 134.691 272.246 134.376 272.005 134.118C271.764 133.859 271.463 133.665 271.128 133.552C269.248 132.682 267.223 131.619 265.246 131.619C257.019 131.397 248.783 131.464 240.548 131.532C237.192 131.532 233.797 131.725 230.479 132.083C223.063 132.875 215.609 133.484 208.298 134.77C195.405 137.032 182.588 139.729 169.723 142.262C168.858 142.514 167.945 142.554 167.061 142.378C168.026 141.479 168.99 140.56 169.954 139.671C171.196 138.685 172.375 137.623 173.484 136.491C175.413 134.238 174.873 132.083 172.134 130.952C171.053 130.4 169.872 130.071 168.662 129.985C161.323 130.227 153.975 130.449 146.645 131.01C140.348 131.493 134.05 132.208 127.811 133.214C120.308 134.412 112.853 135.882 105.418 137.477C93.4013 140.054 81.4011 142.739 69.417 145.529C62.5506 147.124 55.7516 149.009 48.9141 150.749C48.6923 150.807 48.4223 150.681 47.6315 150.536C80.112 133.687 93.816 105.365 98.0882 70.9324H109.275C110.818 75.6013 112.361 80.2896 113.943 84.9682C114.039 85.2582 114.435 85.4612 115.235 86.2055C116.479 82.2905 117.752 78.7139 118.745 75.0697C119.739 71.4254 119.623 71.3287 123.567 71.3287C131.07 71.3287 138.564 71.3287 146.067 71.3287C171.922 71.493 197.767 71.754 223.623 71.8217C234.231 71.8217 244.839 71.5414 255.39 71.29C257.926 71.232 260.462 70.8357 262.632 70.623C265.284 79.8546 267.541 88.8155 270.453 97.554C273.366 106.293 277.271 114.76 284.447 121.063C288.275 124.586 293.149 126.756 298.324 127.24C307.524 128.091 315.008 124.591 321.778 118.888C325.462 115.775 329.078 112.585 332.483 109.647C339.773 127.598 354.423 140.164 372.09 150.652Z" fill="#FAB44B"/>
<path d="M399.884 225.105V289.871C392.014 289.871 384.27 289.871 376.526 289.804C375.9 289.804 375.07 288.992 374.684 288.344C369.959 280.466 365.311 272.539 360.633 264.632C360.397 264.333 360.139 264.052 359.862 263.791V289.746H334.855V224.902H349.755C352.262 224.902 354.76 224.989 357.258 224.902C357.952 224.842 358.647 225.003 359.245 225.363C359.842 225.722 360.311 226.261 360.585 226.903C365.137 234.733 369.824 242.486 374.81 250.838V225.105H399.884Z" fill="#FAB44B"/>
<path d="M259.671 290.964C251.281 291.061 243.488 289.031 236.738 283.927C229.775 278.639 225.165 271.824 223.747 262.951C221.934 251.264 225.252 241.346 233.873 233.323C239.419 228.18 246.083 225.396 253.586 224.294C264.194 222.738 273.838 224.971 282.44 231.302C285.838 233.683 288.715 236.734 290.892 240.27C293.07 243.806 294.503 247.751 295.102 251.863C296.185 258.053 295.486 264.424 293.087 270.229C291.411 274.343 288.898 278.061 285.708 281.147C282.518 284.233 278.722 286.618 274.561 288.151C269.913 289.959 264.801 290.587 259.902 291.747L259.671 290.964ZM268.775 257.837C268.842 251.979 264.599 248.547 259.468 248.054C254.646 247.6 250.066 252.801 249.998 258.03C250.008 260.551 251.011 262.965 252.788 264.748C254.565 266.532 256.973 267.539 259.488 267.552C264.647 267.533 269.267 262.999 268.775 257.866V257.837Z" fill="#FAB44B"/>
<path d="M50.148 254.694C55.3171 256.811 59.3097 260.166 60.2162 265.53C61.8074 274.984 60.0619 283.211 48.4217 287.048C43.247 288.665 37.8785 289.575 32.4611 289.755C23.1934 290.18 13.8967 289.871 4.6096 289.871H1.58142V225.105C2.34329 225.047 3.10515 224.95 3.86702 224.95C13.3277 224.95 22.8076 224.612 32.249 225.057C39.3661 225.385 46.4158 226.362 52.964 229.967C61.0841 234.433 60.9395 249.977 51.855 253.641C51.2629 253.953 50.6926 254.305 50.148 254.694ZM27.7356 263.761V273.08C33.5219 273.496 36.4151 271.765 36.309 268.295C36.2029 264.825 33.1362 263.23 27.697 263.761H27.7356ZM27.8417 251.195C30.7349 251.379 33.4351 251.301 34.5924 248.488C34.847 247.829 34.9572 247.123 34.9156 246.418C34.874 245.712 34.6816 245.024 34.3513 244.399C32.8372 242.273 30.3105 242.176 27.8128 242.195L27.8417 251.195Z" fill="#FAB44B"/>
<path d="M219.485 252.549C213.525 248.934 207.43 248.16 201.104 248.528C198.683 248.709 196.392 249.692 194.589 251.321C192.785 252.95 191.573 255.133 191.142 257.527C190.669 261.075 194.7 265.792 199.098 266.788C205.714 268.276 211.982 267.058 218.039 264.265C218.424 264.081 218.858 263.984 219.485 263.772C219.485 271.437 219.485 278.919 219.418 286.411C219.329 286.799 219.15 287.161 218.896 287.467C218.641 287.773 218.317 288.014 217.952 288.17C206.128 292.037 194.276 292.568 182.79 287.203C172.992 282.602 166.453 274.811 164.467 264.139C161.275 247.116 170.253 231.273 188.008 225.889C197.555 222.989 206.881 223.482 216.274 226.063C218.28 226.614 219.678 227.58 219.582 230.316C219.321 237.527 219.485 244.777 219.485 252.549Z" fill="#FAB44B"/>
<path d="M116.189 247.405H98.5602V225.114H160.898V247.463H143.539V289.715H116.189V247.405Z" fill="#FAB44B"/>
<path d="M297.88 163.693C303.888 163.693 309.684 163.625 315.471 163.77C315.949 163.866 316.401 164.061 316.799 164.345C317.196 164.628 317.529 164.992 317.775 165.414C320.968 170.634 324.025 175.941 327.13 181.218C327.323 181.557 327.545 181.885 328.152 182.842V163.886H347.353V214.152C341.567 214.152 335.916 214.23 330.245 214.065C329.493 214.065 328.577 212.925 328.075 212.132C324.468 206.187 320.948 200.194 317.033 193.601V213.978H297.88V163.693Z" fill="#FAB44B"/>
<path d="M139.836 163.093C150.84 163.247 159.654 167.52 164.91 177.515C167.047 181.535 168.015 186.075 167.705 190.619C167.395 195.163 165.818 199.528 163.155 203.218C154.36 215.998 136.152 218.153 123.567 210.314C120.387 208.336 117.69 205.671 115.672 202.513C113.654 199.355 112.366 195.784 111.904 192.063C111.441 188.341 111.816 184.563 113 181.006C114.183 177.448 116.146 174.201 118.745 171.502C121.461 168.677 124.747 166.465 128.384 165.015C132.022 163.565 135.926 162.909 139.836 163.093ZM146.654 189.057C146.687 188.11 146.524 187.168 146.176 186.287C145.829 185.406 145.304 184.607 144.634 183.94C143.964 183.272 143.164 182.75 142.284 182.406C141.403 182.062 140.462 181.905 139.518 181.942C135.766 181.942 132.198 185.519 132.198 189.192C132.198 192.866 135.853 196.471 139.788 196.442C143.722 196.413 146.654 193.33 146.635 189.057H146.654Z" fill="#FAB44B"/>
<path d="M59.9653 213.63V164.195C68.2301 164.195 76.3599 164.195 84.5283 164.195C89.5492 164.261 94.4395 165.808 98.5891 168.642C104.539 172.576 108.339 177.902 109.197 185.394C110.239 193.968 107.886 201.015 101.656 206.796C97.4312 210.729 91.9802 213.079 86.2256 213.446C77.6426 214.046 68.9149 213.63 59.9653 213.63ZM80.825 197.004C84.3933 197.11 87.1225 196.037 88.8005 193.05C89.623 191.785 90.0291 190.293 89.9616 188.784C89.8942 187.276 89.3565 185.826 88.4244 184.64C87.6011 183.435 86.4397 182.501 85.087 181.957C83.7343 181.414 82.2511 181.284 80.825 181.585V197.004Z" fill="#FAB44B"/>
<path d="M382.949 196.414H378.773V185.326H399.99C399.99 193.359 399.99 201.295 399.932 209.232C399.866 209.546 399.731 209.841 399.538 210.097C399.344 210.352 399.097 210.562 398.813 210.711C391.281 214.577 383.325 215.351 375.012 214.287C368.608 213.466 363.025 211.155 358.444 206.554C354.525 202.447 352.101 197.135 351.564 191.477C351.026 185.819 352.407 180.144 355.483 175.37C357.39 172.397 359.89 169.852 362.826 167.896C365.762 165.94 369.071 164.614 372.543 164.002C381.223 162.281 389.68 162.513 397.791 166.37C398.181 166.556 398.526 166.826 398.801 167.16C399.076 167.494 399.274 167.884 399.382 168.304C399.507 173.485 399.45 178.666 399.45 183.886C395.775 182.919 392.303 181.721 388.735 181.15C384.878 180.522 380.818 180.184 377.066 182.117C375.208 183.025 373.734 184.569 372.91 186.47C372.086 188.371 371.966 190.504 372.572 192.486C373.178 194.467 374.47 196.167 376.215 197.279C377.96 198.391 380.043 198.841 382.091 198.55C382.66 198.473 383.113 197.651 383.624 197.168C383.412 196.907 383.18 196.655 382.949 196.414Z" fill="#FAB44B"/>
<path d="M0 214.163C0.964388 211.427 1.69732 209.127 2.54598 206.855C7.68939 193.019 12.8681 179.202 18.0823 165.405C18.2749 164.986 18.5644 164.62 18.9267 164.336C19.2889 164.051 19.7136 163.858 20.1653 163.771C26.4917 163.636 32.8278 163.694 39.2313 163.694C45.4227 180.456 51.5851 197.14 57.8633 214.153C50.6111 214.153 43.6868 214.153 36.7528 214.095C36.232 214.095 35.4702 213.283 35.258 212.694C34.7083 211.137 34.3997 209.504 33.9754 207.86H22.5281C22.1842 209.432 21.7462 210.981 21.2165 212.5C20.9272 213.187 20.0207 214.076 19.3745 214.086C13.135 214.211 6.90502 214.163 0 214.163ZM25.8745 195.168H30.8604C30.06 192.007 29.3174 189.069 28.4398 185.627L25.8745 195.168Z" fill="#FAB44B"/>
<path d="M300.522 225.037H327.525V289.697H300.522V225.037Z" fill="#FAB44B"/>
<path d="M192.116 202.031V214.018H171.488V163.81C172.25 163.81 173.108 163.684 173.966 163.704C181.778 163.868 189.589 164.003 197.401 164.245C205.656 164.496 214.123 170.432 215.56 177.42C217.807 188.344 213.718 197.72 201.037 200.688C198.23 201.345 195.337 201.567 192.116 202.031ZM192.28 179.412V187.145C194.286 187.667 196.032 187.097 196.793 185.376C197.304 184.051 197.304 182.583 196.793 181.258C196.08 179.489 194.315 178.957 192.28 179.421V179.412Z" fill="#FAB44B"/>
<path d="M65.8679 289.685V225.045H92.3211V289.685H65.8679Z" fill="#FAB44B"/>
<path d="M266.991 181.413H253.373V213.969H232.417V181.5H218.627V163.877H266.991V181.413Z" fill="#FAB44B"/>
<path d="M292.209 163.886V214.007H271.668V163.886H292.209Z" fill="#FAB44B"/>
<path d="M198.664 0C198.307 7.44323 197.941 14.8285 197.565 22.523L211.066 21.8754L211.433 22.6487L185.491 60.0871V33.9875H173.59C173.889 31.1069 196.147 0.483326 198.664 0Z" fill="#FAB44B"/>
<path d="M159.125 40.1842L168.103 38.9855L153.791 64.3602L153.165 64.3022C152.875 58.9952 152.586 53.669 152.287 48.2364L144.572 49.3287C145.295 45.4621 156.395 26.912 158.276 26.332C158.517 30.9333 158.806 35.4766 159.125 40.1842Z" fill="#FAB44B"/>
<path d="M211.577 45.5485C219.235 36.317 219.389 36.4717 228.695 25.7998C228.059 30.6331 227.451 35.2827 226.844 39.8839C229.042 40.2029 230.865 40.4059 232.63 40.7636C234.009 41.0439 234.356 41.9139 233.44 43.0642C229.64 47.8008 225.812 52.5181 222.002 57.245C220.787 58.7433 219.611 60.2803 218.357 61.7496C217.906 62.1949 217.412 62.5933 216.881 62.9386L216.226 62.6099L218.993 46.3992L211.577 45.5485Z" fill="#FAB44B"/>
<g style="mix-blend-mode:difference" opacity="0.5">
<path d="M433.418 290.858C431.202 290.858 429.215 290.348 427.455 289.327C425.696 288.284 424.328 286.883 423.35 285.124C422.351 283.343 421.852 281.399 421.852 279.292C421.852 276.881 422.449 274.742 423.644 272.874C424.816 270.984 426.489 269.616 428.661 268.768L428.661 273.232C427.466 273.818 426.576 274.633 425.989 275.676C425.403 276.718 425.11 277.924 425.11 279.292C425.11 280.791 425.446 282.126 426.12 283.299C426.793 284.472 427.76 285.395 429.019 286.069C430.279 286.72 431.745 287.046 433.418 287.046C435.09 287.046 436.556 286.72 437.816 286.069C439.076 285.395 440.053 284.472 440.748 283.299C441.422 282.126 441.758 280.791 441.758 279.292C441.758 277.924 441.465 276.718 440.879 275.676C440.292 274.633 439.402 273.818 438.207 273.232L438.207 268.768C440.379 269.616 442.051 270.984 443.224 272.874C444.397 274.742 444.984 276.881 444.984 279.292C444.984 281.421 444.495 283.365 443.518 285.124C442.518 286.883 441.139 288.284 439.38 289.327C437.621 290.348 435.633 290.858 433.418 290.858ZM440.162 236.759L440.162 246.24L444.788 247.869L444.788 251.746L422.112 243.634L422.112 239.333L444.788 231.221L444.788 235.13L440.162 236.759ZM437.132 237.802L426.608 241.483L437.132 245.198L437.132 237.802ZM428.889 197.849C430.04 197.849 431.126 198.12 432.147 198.663C433.168 199.206 434.004 200.075 434.656 201.27C435.286 202.464 435.601 203.995 435.601 205.863L435.601 209.969L444.788 209.969L444.788 213.683L422.145 213.683L422.145 205.863C422.145 204.126 422.449 202.66 423.057 201.465C423.644 200.249 424.447 199.347 425.468 198.761C426.489 198.153 427.629 197.849 428.889 197.849ZM432.571 205.863C432.571 204.452 432.256 203.398 431.626 202.703C430.974 202.008 430.062 201.661 428.889 201.661C426.413 201.661 425.175 203.062 425.175 205.863L425.175 209.969L432.571 209.969L432.571 205.863ZM425.142 176.582L431.789 176.582L431.789 168.762L434.819 168.762L434.819 176.582L441.758 176.582L441.758 167.785L444.788 167.785L444.788 180.296L422.112 180.296L422.112 167.785L425.142 167.785L425.142 176.582Z" fill="white"/>
</g>
<g style="mix-blend-mode:difference" opacity="0.5">
<path d="M461.241 274.991L464.271 274.991L464.271 281.019L483.884 281.019L483.884 284.733L464.271 284.733L464.271 290.793L461.241 290.793L461.241 274.991ZM484.112 251.778C484.112 253.885 483.623 255.829 482.646 257.61C481.647 259.37 480.267 260.771 478.508 261.813C476.727 262.834 474.729 263.344 472.513 263.344C470.298 263.344 468.31 262.834 466.551 261.813C464.792 260.771 463.423 259.37 462.446 257.61C461.447 255.829 460.947 253.885 460.947 251.778C460.947 249.65 461.447 247.706 462.446 245.946C463.423 244.165 464.792 242.764 466.551 241.744C468.31 240.723 470.298 240.212 472.513 240.212C474.729 240.212 476.727 240.723 478.508 241.744C480.267 242.764 481.647 244.165 482.646 245.946C483.623 247.706 484.112 249.65 484.112 251.778ZM480.887 251.778C480.887 250.28 480.55 248.944 479.877 247.771C479.181 246.598 478.204 245.686 476.944 245.034C475.663 244.361 474.186 244.024 472.513 244.024C470.841 244.024 469.375 244.361 468.115 245.034C466.855 245.686 465.889 246.598 465.215 247.771C464.542 248.944 464.205 250.28 464.205 251.778C464.205 253.277 464.542 254.613 465.215 255.786C465.889 256.959 466.855 257.882 468.115 258.555C469.375 259.207 470.841 259.532 472.513 259.532C474.186 259.532 475.663 259.207 476.944 258.555C478.204 257.882 479.181 256.959 479.877 255.786C480.55 254.613 480.887 253.277 480.887 251.778ZM461.241 197.949L483.884 204.66L483.884 208.863L466.747 213.62L483.884 218.67L483.916 222.84L461.241 229.258L461.241 225.316L479.681 220.625L461.241 215.542L461.241 211.372L479.583 206.648L461.241 201.924L461.241 197.949ZM483.884 167.158L483.884 170.873L466.975 182.048L483.884 182.048L483.884 185.762L461.208 185.762L461.208 182.048L478.085 170.873L461.208 170.873L461.208 167.158L483.884 167.158Z" fill="white"/>
</g>
</svg>
