<svg width="1232" height="113" viewBox="0 0 1232 113" fill="none" xmlns="http://www.w3.org/2000/svg">
<path d="M31.4121 93.1048C26.5454 93.1048 22.1454 92.2715 18.2121 90.6048C14.3454 88.9381 11.2788 86.5381 9.01211 83.4048C6.74544 80.2715 5.57878 76.5715 5.51211 72.3048H20.5121C20.7121 75.1715 21.7121 77.4381 23.5121 79.1048C25.3788 80.7715 27.9121 81.6048 31.1121 81.6048C34.3788 81.6048 36.9454 80.8381 38.8121 79.3048C40.6788 77.7048 41.6121 75.6381 41.6121 73.1048C41.6121 71.0381 40.9788 69.3381 39.7121 68.0048C38.4454 66.6715 36.8454 65.6381 34.9121 64.9048C33.0454 64.1048 30.4454 63.2381 27.1121 62.3048C22.5788 60.9715 18.8788 59.6715 16.0121 58.4048C13.2121 57.0715 10.7788 55.1048 8.71211 52.5048C6.71211 49.8381 5.71211 46.3048 5.71211 41.9048C5.71211 37.7714 6.74544 34.1714 8.81211 31.1048C10.8788 28.0381 13.7788 25.7048 17.5121 24.1048C21.2454 22.4381 25.5121 21.6048 30.3121 21.6048C37.5121 21.6048 43.3454 23.3715 47.8121 26.9048C52.3454 30.3714 54.8454 35.2381 55.3121 41.5048H39.9121C39.7788 39.1048 38.7454 37.1381 36.8121 35.6048C34.9454 34.0048 32.4454 33.2048 29.3121 33.2048C26.5788 33.2048 24.3788 33.9048 22.7121 35.3048C21.1121 36.7048 20.3121 38.7381 20.3121 41.4048C20.3121 43.2714 20.9121 44.8381 22.1121 46.1048C23.3788 47.3048 24.9121 48.3048 26.7121 49.1048C28.5788 49.8381 31.1788 50.7048 34.5121 51.7048C39.0454 53.0381 42.7454 54.3714 45.6121 55.7048C48.4788 57.0381 50.9454 59.0381 53.0121 61.7048C55.0788 64.3715 56.1121 67.8715 56.1121 72.2048C56.1121 75.9381 55.1454 79.4048 53.2121 82.6048C51.2788 85.8048 48.4454 88.3715 44.7121 90.3048C40.9788 92.1715 36.5454 93.1048 31.4121 93.1048ZM119.15 44.2048C119.15 47.9381 118.25 51.4381 116.45 54.7048C114.716 57.9715 111.95 60.6048 108.15 62.6048C104.416 64.6048 99.6829 65.6048 93.9496 65.6048H82.2496V92.4048H68.2496V22.6048H93.9496C99.3496 22.6048 103.95 23.5381 107.75 25.4048C111.55 27.2714 114.383 29.8381 116.25 33.1048C118.183 36.3714 119.15 40.0714 119.15 44.2048ZM93.3496 54.3048C97.2163 54.3048 100.083 53.4381 101.95 51.7048C103.816 49.9048 104.75 47.4048 104.75 44.2048C104.75 37.4048 100.95 34.0048 93.3496 34.0048H82.2496V54.3048H93.3496ZM143.089 33.9048V51.4048H166.589V62.5048H143.089V81.0048H169.589V92.4048H129.089V22.5048H169.589V33.9048H143.089ZM225.112 79.1048H197.312L192.712 92.4048H178.012L203.112 22.5048H219.412L244.512 92.4048H229.712L225.112 79.1048ZM221.312 67.9048L211.212 38.7048L201.112 67.9048H221.312ZM293.294 92.4048L267.894 61.3048V92.4048H253.894V22.6048H267.894V53.9048L293.294 22.6048H310.194L281.394 57.2048L310.994 92.4048H293.294ZM334.203 33.9048V51.4048H357.703V62.5048H334.203V81.0048H360.703V92.4048H320.203V22.5048H360.703V33.9048H334.203ZM409.425 92.4048L394.025 65.2048H387.425V92.4048H373.425V22.6048L399.625 22.6048C405.025 22.6048 409.625 23.5714 413.425 25.5048C417.225 27.3714 420.059 29.9381 421.925 33.2048C423.859 36.4048 424.825 40.0048 424.825 44.0048C424.825 48.6048 423.492 52.7714 420.825 56.5048C418.159 60.1714 414.192 62.7048 408.925 64.1048L425.625 92.4048H409.425ZM387.425 54.7048H399.125C402.925 54.7048 405.759 53.8048 407.625 52.0048C409.492 50.1381 410.425 47.5714 410.425 44.3048C410.425 41.1048 409.492 38.6381 407.625 36.9048C405.759 35.1048 402.925 34.2048 399.125 34.2048H387.425V54.7048Z" fill="#3F69FF"/>
<path d="M35.4121 91.1048C30.5454 91.1048 26.1454 90.2715 22.2121 88.6048C18.3454 86.9381 15.2788 84.5381 13.0121 81.4048C10.7454 78.2715 9.57878 74.5715 9.51211 70.3048H24.5121C24.7121 73.1715 25.7121 75.4381 27.5121 77.1048C29.3788 78.7715 31.9121 79.6048 35.1121 79.6048C38.3788 79.6048 40.9454 78.8381 42.8121 77.3048C44.6788 75.7048 45.6121 73.6381 45.6121 71.1048C45.6121 69.0381 44.9788 67.3381 43.7121 66.0048C42.4454 64.6715 40.8454 63.6381 38.9121 62.9048C37.0454 62.1048 34.4454 61.2381 31.1121 60.3048C26.5788 58.9715 22.8788 57.6715 20.0121 56.4048C17.2121 55.0715 14.7788 53.1048 12.7121 50.5048C10.7121 47.8381 9.71211 44.3048 9.71211 39.9048C9.71211 35.7714 10.7454 32.1714 12.8121 29.1048C14.8788 26.0381 17.7788 23.7048 21.5121 22.1048C25.2454 20.4381 29.5121 19.6048 34.3121 19.6048C41.5121 19.6048 47.3454 21.3715 51.8121 24.9048C56.3454 28.3714 58.8454 33.2381 59.3121 39.5048H43.9121C43.7788 37.1048 42.7454 35.1381 40.8121 33.6048C38.9454 32.0048 36.4454 31.2048 33.3121 31.2048C30.5788 31.2048 28.3788 31.9048 26.7121 33.3048C25.1121 34.7048 24.3121 36.7381 24.3121 39.4048C24.3121 41.2714 24.9121 42.8381 26.1121 44.1048C27.3788 45.3048 28.9121 46.3048 30.7121 47.1048C32.5788 47.8381 35.1788 48.7048 38.5121 49.7048C43.0454 51.0381 46.7454 52.3714 49.6121 53.7048C52.4788 55.0381 54.9454 57.0381 57.0121 59.7048C59.0788 62.3715 60.1121 65.8715 60.1121 70.2048C60.1121 73.9381 59.1454 77.4048 57.2121 80.6048C55.2788 83.8048 52.4454 86.3715 48.7121 88.3048C44.9788 90.1715 40.5454 91.1048 35.4121 91.1048ZM123.15 42.2048C123.15 45.9381 122.25 49.4381 120.45 52.7048C118.716 55.9715 115.95 58.6048 112.15 60.6048C108.416 62.6048 103.683 63.6048 97.9496 63.6048H86.2496V90.4048H72.2496V20.6048H97.9496C103.35 20.6048 107.95 21.5381 111.75 23.4048C115.55 25.2714 118.383 27.8381 120.25 31.1048C122.183 34.3714 123.15 38.0714 123.15 42.2048ZM97.3496 52.3048C101.216 52.3048 104.083 51.4381 105.95 49.7048C107.816 47.9048 108.75 45.4048 108.75 42.2048C108.75 35.4048 104.95 32.0048 97.3496 32.0048H86.2496V52.3048H97.3496ZM147.089 31.9048V49.4048H170.589V60.5048H147.089V79.0048H173.589V90.4048H133.089V20.5048H173.589V31.9048H147.089ZM229.112 77.1048H201.312L196.712 90.4048H182.012L207.112 20.5048H223.412L248.512 90.4048H233.712L229.112 77.1048ZM225.312 65.9048L215.212 36.7048L205.112 65.9048H225.312ZM297.294 90.4048L271.894 59.3048V90.4048H257.894V20.6048H271.894V51.9048L297.294 20.6048H314.194L285.394 55.2048L314.994 90.4048H297.294ZM338.203 31.9048V49.4048H361.703V60.5048H338.203V79.0048H364.703V90.4048H324.203V20.5048H364.703V31.9048H338.203ZM413.425 90.4048L398.025 63.2048H391.425V90.4048H377.425V20.6048L403.625 20.6048C409.025 20.6048 413.625 21.5714 417.425 23.5048C421.225 25.3714 424.059 27.9381 425.925 31.2048C427.859 34.4048 428.825 38.0048 428.825 42.0048C428.825 46.6048 427.492 50.7714 424.825 54.5048C422.159 58.1714 418.192 60.7048 412.925 62.1048L429.625 90.4048H413.425ZM391.425 52.7048H403.125C406.925 52.7048 409.759 51.8048 411.625 50.0048C413.492 48.1381 414.425 45.5714 414.425 42.3048C414.425 39.1048 413.492 36.6381 411.625 34.9048C409.759 33.1048 406.925 32.2048 403.125 32.2048H391.425V52.7048Z" fill="#F34D4D"/>
<path d="M33.5742 92.1048C28.7076 92.1048 24.3076 91.2715 20.3742 89.6048C16.5076 87.9381 13.4409 85.5381 11.1742 82.4048C8.90755 79.2715 7.74089 75.5715 7.67422 71.3048H22.6742C22.8742 74.1715 23.8742 76.4381 25.6742 78.1048C27.5409 79.7715 30.0742 80.6048 33.2742 80.6048C36.5409 80.6048 39.1076 79.8381 40.9742 78.3048C42.8409 76.7048 43.7742 74.6381 43.7742 72.1048C43.7742 70.0381 43.1409 68.3381 41.8742 67.0048C40.6076 65.6715 39.0076 64.6381 37.0742 63.9048C35.2076 63.1048 32.6076 62.2381 29.2742 61.3048C24.7409 59.9715 21.0409 58.6715 18.1742 57.4048C15.3742 56.0715 12.9409 54.1048 10.8742 51.5048C8.87422 48.8381 7.87422 45.3048 7.87422 40.9048C7.87422 36.7714 8.90755 33.1714 10.9742 30.1048C13.0409 27.0381 15.9409 24.7048 19.6742 23.1048C23.4076 21.4381 27.6742 20.6048 32.4742 20.6048C39.6742 20.6048 45.5076 22.3715 49.9742 25.9048C54.5076 29.3714 57.0076 34.2381 57.4742 40.5048H42.0742C41.9409 38.1048 40.9076 36.1381 38.9742 34.6048C37.1076 33.0048 34.6076 32.2048 31.4742 32.2048C28.7409 32.2048 26.5409 32.9048 24.8742 34.3048C23.2742 35.7048 22.4742 37.7381 22.4742 40.4048C22.4742 42.2714 23.0742 43.8381 24.2742 45.1048C25.5409 46.3048 27.0742 47.3048 28.8742 48.1048C30.7409 48.8381 33.3409 49.7048 36.6742 50.7048C41.2076 52.0381 44.9076 53.3714 47.7742 54.7048C50.6409 56.0381 53.1076 58.0381 55.1742 60.7048C57.2409 63.3715 58.2742 66.8715 58.2742 71.2048C58.2742 74.9381 57.3076 78.4048 55.3742 81.6048C53.4409 84.8048 50.6076 87.3715 46.8742 89.3048C43.1409 91.1715 38.7076 92.1048 33.5742 92.1048ZM121.312 43.2048C121.312 46.9381 120.412 50.4381 118.612 53.7048C116.878 56.9715 114.112 59.6048 110.312 61.6048C106.578 63.6048 101.845 64.6048 96.1117 64.6048H84.4117V91.4048H70.4117V21.6048H96.1117C101.512 21.6048 106.112 22.5381 109.912 24.4048C113.712 26.2714 116.545 28.8381 118.412 32.1048C120.345 35.3714 121.312 39.0714 121.312 43.2048ZM95.5117 53.3048C99.3784 53.3048 102.245 52.4381 104.112 50.7048C105.978 48.9048 106.912 46.4048 106.912 43.2048C106.912 36.4048 103.112 33.0048 95.5117 33.0048H84.4117V53.3048H95.5117ZM145.252 32.9048V50.4048H168.752V61.5048H145.252V80.0048H171.752V91.4048H131.252V21.5048H171.752V32.9048H145.252ZM227.274 78.1048H199.474L194.874 91.4048H180.174L205.274 21.5048H221.574L246.674 91.4048H231.874L227.274 78.1048ZM223.474 66.9048L213.374 37.7048L203.274 66.9048H223.474ZM295.456 91.4048L270.056 60.3048V91.4048H256.056V21.6048H270.056V52.9048L295.456 21.6048H312.356L283.556 56.2048L313.156 91.4048H295.456ZM336.365 32.9048V50.4048H359.865V61.5048H336.365V80.0048H362.865V91.4048H322.365V21.5048H362.865V32.9048H336.365ZM411.588 91.4048L396.188 64.2048H389.588V91.4048H375.588V21.6048L401.788 21.6048C407.188 21.6048 411.788 22.5714 415.588 24.5048C419.388 26.3714 422.221 28.9381 424.088 32.2048C426.021 35.4048 426.988 39.0048 426.988 43.0048C426.988 47.6048 425.654 51.7714 422.988 55.5048C420.321 59.1714 416.354 61.7048 411.088 63.1048L427.788 91.4048H411.588ZM389.588 53.7048H401.288C405.088 53.7048 407.921 52.8048 409.788 51.0048C411.654 49.1381 412.588 46.5714 412.588 43.3048C412.588 40.1048 411.654 37.6381 409.788 35.9048C407.921 34.1048 405.088 33.2048 401.288 33.2048H389.588V53.7048Z" fill="#EEDB5F"/>
<path d="M510.47 58.9328C510.189 59.3611 509.978 59.7468 510.002 59.9212C510.005 59.9421 510.013 59.9605 510.023 59.9782L510.023 59.9798C510.034 60.0015 510.046 60.0192 510.068 60.0361C510.1 60.0658 510.144 60.0899 510.199 60.11C510.31 60.1438 511.115 60.1148 511.353 60.0955C511.995 60.0417 512.635 59.9959 513.283 59.9589C513.467 59.9485 513.65 59.9421 513.839 59.9324C514.675 59.8906 515.508 59.8577 516.332 59.8384C516.991 59.8215 517.641 59.8111 518.282 59.8047C518.46 59.803 518.632 59.8022 518.806 59.8014C519.399 59.7982 519.987 59.7966 520.547 59.8022C520.356 64.7153 520.122 69.924 519.924 74.8836C519.896 75.6494 519.862 76.4088 519.835 77.1593C519.774 78.7584 519.774 78.7584 519.774 78.7584C519.771 78.8717 519.765 78.9915 519.761 79.1104C519.743 79.8304 519.743 80.6243 519.897 80.8397C519.901 80.8501 519.908 80.8589 519.916 80.867C519.943 80.8935 519.974 80.9056 520.008 80.9048C520.01 80.9048 520.013 80.9031 520.016 80.9031C520.046 80.9015 520.08 80.8903 520.115 80.8702C520.127 80.8638 520.139 80.8533 520.151 80.8445C520.178 80.826 520.206 80.8051 520.235 80.7786C520.251 80.7649 520.266 80.7481 520.282 80.7328C520.31 80.7047 520.338 80.6749 520.367 80.6412C520.384 80.6211 520.401 80.6002 520.419 80.5785C520.447 80.5439 520.475 80.5078 520.503 80.47C520.521 80.4451 520.541 80.4194 520.56 80.3937C520.588 80.3551 520.616 80.3141 520.644 80.2739C520.663 80.2458 520.683 80.2185 520.702 80.1904C520.731 80.1478 520.759 80.1044 520.787 80.0602C520.805 80.0321 520.824 80.0039 520.842 79.9758C520.886 79.9083 520.929 79.8408 520.971 79.7749C520.971 79.7749 520.971 79.7749 521.68 78.6861C526.144 71.8381 531.955 63.489 537.115 56.2826C538.648 54.1387 538.911 53.7771 538.911 53.7771C538.943 53.7393 538.972 53.6975 539.003 53.659C539.668 52.7582 540.509 51.7883 540.848 51.1101C540.945 50.9124 541.009 50.7348 540.999 50.5942C540.994 50.5275 540.96 50.476 540.905 50.4342C540.887 50.419 540.854 50.4126 540.83 50.4005C540.785 50.378 540.744 50.3539 540.686 50.3394C540.646 50.329 540.598 50.3258 540.554 50.3185C540.5 50.3097 540.448 50.2993 540.387 50.2944C540.333 50.2904 540.275 50.2904 540.218 50.2888C540.16 50.2872 540.101 50.2832 540.042 50.2832C539.834 50.2856 539.635 50.296 539.501 50.3009C539.501 50.3009 539.501 50.3009 538.488 50.3451C535.544 50.472 532.527 50.6335 529.656 50.8304C529.873 45.7631 530.147 39.9509 530.374 34.9382C530.433 33.5465 530.433 33.5465 530.433 33.5465C530.434 33.5079 530.436 33.4629 530.438 33.4219C530.462 32.8899 530.483 32.174 530.319 31.965C530.291 31.9337 530.261 31.9096 530.225 31.9056C530.204 31.9024 530.177 31.9096 530.152 31.9152C530.135 31.9184 530.117 31.92 530.098 31.9281C530.076 31.9369 530.051 31.9506 530.028 31.9642C530.008 31.9755 529.988 31.9851 529.966 31.9996C529.942 32.0165 529.915 32.039 529.888 32.0599C529.865 32.0783 529.842 32.0944 529.818 32.1161C529.791 32.1402 529.762 32.17 529.733 32.1981C529.708 32.2222 529.684 32.2447 529.659 32.2712C529.627 32.3041 529.594 32.3411 529.561 32.3765C529.537 32.4038 529.512 32.4279 529.487 32.4568C529.451 32.4986 529.413 32.5436 529.376 32.5886C529.353 32.6159 529.33 32.6416 529.308 32.6698C529.258 32.7292 529.209 32.7919 529.159 32.8546C529.147 32.8699 529.135 32.8843 529.123 32.8996C529.06 32.9799 528.997 33.0619 528.933 33.1455C528.764 33.3673 528.592 33.5979 528.429 33.8132C528.429 33.8132 528.429 33.8132 527.24 35.4308C527.124 35.5932 526.996 35.7667 526.87 35.9339C523.537 40.4885 517.261 49.3285 517.261 49.3285C516.959 49.7504 516.674 50.1514 516.398 50.5323C516.178 50.8433 515.962 51.1534 515.74 51.4644C515.547 51.7392 512.924 55.4445 512.355 56.2529C511.371 57.6527 511.371 57.6527 511.371 57.6527C511.121 58.0063 510.758 58.4932 510.47 58.9328Z" fill="#EEDB5F"/>
<path d="M647.412 93.1048C642.545 93.1048 638.145 92.2715 634.212 90.6048C630.345 88.9381 627.279 86.5381 625.012 83.4048C622.745 80.2715 621.579 76.5715 621.512 72.3048H636.512C636.712 75.1715 637.712 77.4381 639.512 79.1048C641.379 80.7715 643.912 81.6048 647.112 81.6048C650.379 81.6048 652.945 80.8381 654.812 79.3048C656.679 77.7048 657.612 75.6381 657.612 73.1048C657.612 71.0381 656.979 69.3381 655.712 68.0048C654.445 66.6715 652.845 65.6381 650.912 64.9048C649.045 64.1048 646.445 63.2381 643.112 62.3048C638.579 60.9715 634.879 59.6715 632.012 58.4048C629.212 57.0715 626.779 55.1048 624.712 52.5048C622.712 49.8381 621.712 46.3048 621.712 41.9048C621.712 37.7714 622.745 34.1714 624.812 31.1048C626.879 28.0381 629.779 25.7048 633.512 24.1048C637.245 22.4381 641.512 21.6048 646.312 21.6048C653.512 21.6048 659.345 23.3715 663.812 26.9048C668.345 30.3714 670.845 35.2381 671.312 41.5048H655.912C655.779 39.1048 654.745 37.1381 652.812 35.6048C650.945 34.0048 648.445 33.2048 645.312 33.2048C642.579 33.2048 640.379 33.9048 638.712 35.3048C637.112 36.7048 636.312 38.7381 636.312 41.4048C636.312 43.2714 636.912 44.8381 638.112 46.1048C639.379 47.3048 640.912 48.3048 642.712 49.1048C644.579 49.8381 647.179 50.7048 650.512 51.7048C655.045 53.0381 658.745 54.3714 661.612 55.7048C664.479 57.0381 666.945 59.0381 669.012 61.7048C671.079 64.3715 672.112 67.8715 672.112 72.2048C672.112 75.9381 671.145 79.4048 669.212 82.6048C667.279 85.8048 664.445 88.3715 660.712 90.3048C656.979 92.1715 652.545 93.1048 647.412 93.1048ZM735.15 44.2048C735.15 47.9381 734.25 51.4381 732.45 54.7048C730.716 57.9715 727.95 60.6048 724.15 62.6048C720.416 64.6048 715.683 65.6048 709.95 65.6048H698.25V92.4048H684.25V22.6048H709.95C715.35 22.6048 719.95 23.5381 723.75 25.4048C727.55 27.2714 730.383 29.8381 732.25 33.1048C734.183 36.3714 735.15 40.0714 735.15 44.2048ZM709.35 54.3048C713.216 54.3048 716.083 53.4381 717.95 51.7048C719.816 49.9048 720.75 47.4048 720.75 44.2048C720.75 37.4048 716.95 34.0048 709.35 34.0048H698.25V54.3048H709.35ZM759.089 33.9048V51.4048H782.589V62.5048H759.089V81.0048H785.589V92.4048H745.089V22.5048H785.589V33.9048H759.089ZM841.112 79.1048H813.312L808.712 92.4048H794.012L819.112 22.5048H835.412L860.512 92.4048H845.712L841.112 79.1048ZM837.312 67.9048L827.212 38.7048L817.112 67.9048H837.312ZM909.294 92.4048L883.894 61.3048V92.4048H869.894V22.6048H883.894V53.9048L909.294 22.6048H926.194L897.394 57.2048L926.994 92.4048H909.294ZM950.203 33.9048V51.4048H973.703V62.5048H950.203V81.0048H976.703V92.4048H936.203V22.5048H976.703V33.9048H950.203ZM1025.43 92.4048L1010.03 65.2048H1003.43V92.4048H989.425V22.6048L1015.63 22.6048C1021.03 22.6048 1025.63 23.5714 1029.43 25.5048C1033.23 27.3714 1036.06 29.9381 1037.93 33.2048C1039.86 36.4048 1040.83 40.0048 1040.83 44.0048C1040.83 48.6048 1039.49 52.7714 1036.83 56.5048C1034.16 60.1714 1030.19 62.7048 1024.93 64.1048L1041.63 92.4048H1025.43ZM1003.43 54.7048H1015.13C1018.93 54.7048 1021.76 53.8048 1023.63 52.0048C1025.49 50.1381 1026.43 47.5714 1026.43 44.3048C1026.43 41.1048 1025.49 38.6381 1023.63 36.9048C1021.76 35.1048 1018.93 34.2048 1015.13 34.2048H1003.43V54.7048Z" fill="#3F69FF"/>
<path d="M651.412 91.1048C646.545 91.1048 642.145 90.2715 638.212 88.6048C634.345 86.9381 631.279 84.5381 629.012 81.4048C626.745 78.2715 625.579 74.5715 625.512 70.3048H640.512C640.712 73.1715 641.712 75.4381 643.512 77.1048C645.379 78.7715 647.912 79.6048 651.112 79.6048C654.379 79.6048 656.945 78.8381 658.812 77.3048C660.679 75.7048 661.612 73.6381 661.612 71.1048C661.612 69.0381 660.979 67.3381 659.712 66.0048C658.445 64.6715 656.845 63.6381 654.912 62.9048C653.045 62.1048 650.445 61.2381 647.112 60.3048C642.579 58.9715 638.879 57.6715 636.012 56.4048C633.212 55.0715 630.779 53.1048 628.712 50.5048C626.712 47.8381 625.712 44.3048 625.712 39.9048C625.712 35.7714 626.745 32.1714 628.812 29.1048C630.879 26.0381 633.779 23.7048 637.512 22.1048C641.245 20.4381 645.512 19.6048 650.312 19.6048C657.512 19.6048 663.345 21.3715 667.812 24.9048C672.345 28.3714 674.845 33.2381 675.312 39.5048H659.912C659.779 37.1048 658.745 35.1381 656.812 33.6048C654.945 32.0048 652.445 31.2048 649.312 31.2048C646.579 31.2048 644.379 31.9048 642.712 33.3048C641.112 34.7048 640.312 36.7381 640.312 39.4048C640.312 41.2714 640.912 42.8381 642.112 44.1048C643.379 45.3048 644.912 46.3048 646.712 47.1048C648.579 47.8381 651.179 48.7048 654.512 49.7048C659.045 51.0381 662.745 52.3714 665.612 53.7048C668.479 55.0381 670.945 57.0381 673.012 59.7048C675.079 62.3715 676.112 65.8715 676.112 70.2048C676.112 73.9381 675.145 77.4048 673.212 80.6048C671.279 83.8048 668.445 86.3715 664.712 88.3048C660.979 90.1715 656.545 91.1048 651.412 91.1048ZM739.15 42.2048C739.15 45.9381 738.25 49.4381 736.45 52.7048C734.716 55.9715 731.95 58.6048 728.15 60.6048C724.416 62.6048 719.683 63.6048 713.95 63.6048H702.25V90.4048H688.25V20.6048H713.95C719.35 20.6048 723.95 21.5381 727.75 23.4048C731.55 25.2714 734.383 27.8381 736.25 31.1048C738.183 34.3714 739.15 38.0714 739.15 42.2048ZM713.35 52.3048C717.216 52.3048 720.083 51.4381 721.95 49.7048C723.816 47.9048 724.75 45.4048 724.75 42.2048C724.75 35.4048 720.95 32.0048 713.35 32.0048H702.25V52.3048H713.35ZM763.089 31.9048V49.4048H786.589V60.5048H763.089V79.0048H789.589V90.4048H749.089V20.5048H789.589V31.9048H763.089ZM845.112 77.1048H817.312L812.712 90.4048H798.012L823.112 20.5048H839.412L864.512 90.4048H849.712L845.112 77.1048ZM841.312 65.9048L831.212 36.7048L821.112 65.9048H841.312ZM913.294 90.4048L887.894 59.3048V90.4048H873.894V20.6048H887.894V51.9048L913.294 20.6048H930.194L901.394 55.2048L930.994 90.4048H913.294ZM954.203 31.9048V49.4048H977.703V60.5048H954.203V79.0048H980.703V90.4048H940.203V20.5048H980.703V31.9048H954.203ZM1029.43 90.4048L1014.03 63.2048H1007.43V90.4048H993.425V20.6048L1019.63 20.6048C1025.03 20.6048 1029.63 21.5714 1033.43 23.5048C1037.23 25.3714 1040.06 27.9381 1041.93 31.2048C1043.86 34.4048 1044.83 38.0048 1044.83 42.0048C1044.83 46.6048 1043.49 50.7714 1040.83 54.5048C1038.16 58.1714 1034.19 60.7048 1028.93 62.1048L1045.63 90.4048H1029.43ZM1007.43 52.7048H1019.13C1022.93 52.7048 1025.76 51.8048 1027.63 50.0048C1029.49 48.1381 1030.43 45.5714 1030.43 42.3048C1030.43 39.1048 1029.49 36.6381 1027.63 34.9048C1025.76 33.1048 1022.93 32.2048 1019.13 32.2048H1007.43V52.7048Z" fill="#F34D4D"/>
<path d="M649.574 92.1048C644.708 92.1048 640.308 91.2715 636.374 89.6048C632.508 87.9381 629.441 85.5381 627.174 82.4048C624.908 79.2715 623.741 75.5715 623.674 71.3048H638.674C638.874 74.1715 639.874 76.4381 641.674 78.1048C643.541 79.7715 646.074 80.6048 649.274 80.6048C652.541 80.6048 655.108 79.8381 656.974 78.3048C658.841 76.7048 659.774 74.6381 659.774 72.1048C659.774 70.0381 659.141 68.3381 657.874 67.0048C656.608 65.6715 655.008 64.6381 653.074 63.9048C651.208 63.1048 648.608 62.2381 645.274 61.3048C640.741 59.9715 637.041 58.6715 634.174 57.4048C631.374 56.0715 628.941 54.1048 626.874 51.5048C624.874 48.8381 623.874 45.3048 623.874 40.9048C623.874 36.7714 624.908 33.1714 626.974 30.1048C629.041 27.0381 631.941 24.7048 635.674 23.1048C639.408 21.4381 643.674 20.6048 648.474 20.6048C655.674 20.6048 661.508 22.3715 665.974 25.9048C670.508 29.3714 673.008 34.2381 673.474 40.5048H658.074C657.941 38.1048 656.908 36.1381 654.974 34.6048C653.108 33.0048 650.608 32.2048 647.474 32.2048C644.741 32.2048 642.541 32.9048 640.874 34.3048C639.274 35.7048 638.474 37.7381 638.474 40.4048C638.474 42.2714 639.074 43.8381 640.274 45.1048C641.541 46.3048 643.074 47.3048 644.874 48.1048C646.741 48.8381 649.341 49.7048 652.674 50.7048C657.208 52.0381 660.908 53.3714 663.774 54.7048C666.641 56.0381 669.108 58.0381 671.174 60.7048C673.241 63.3715 674.274 66.8715 674.274 71.2048C674.274 74.9381 673.308 78.4048 671.374 81.6048C669.441 84.8048 666.608 87.3715 662.874 89.3048C659.141 91.1715 654.708 92.1048 649.574 92.1048ZM737.312 43.2048C737.312 46.9381 736.412 50.4381 734.612 53.7048C732.878 56.9715 730.112 59.6048 726.312 61.6048C722.578 63.6048 717.845 64.6048 712.112 64.6048H700.412V91.4048H686.412V21.6048H712.112C717.512 21.6048 722.112 22.5381 725.912 24.4048C729.712 26.2714 732.545 28.8381 734.412 32.1048C736.345 35.3714 737.312 39.0714 737.312 43.2048ZM711.512 53.3048C715.378 53.3048 718.245 52.4381 720.112 50.7048C721.978 48.9048 722.912 46.4048 722.912 43.2048C722.912 36.4048 719.112 33.0048 711.512 33.0048H700.412V53.3048H711.512ZM761.252 32.9048V50.4048H784.752V61.5048H761.252V80.0048H787.752V91.4048H747.252V21.5048H787.752V32.9048H761.252ZM843.274 78.1048H815.474L810.874 91.4048H796.174L821.274 21.5048H837.574L862.674 91.4048H847.874L843.274 78.1048ZM839.474 66.9048L829.374 37.7048L819.274 66.9048H839.474ZM911.456 91.4048L886.056 60.3048V91.4048H872.056V21.6048H886.056V52.9048L911.456 21.6048H928.356L899.556 56.2048L929.156 91.4048H911.456ZM952.365 32.9048V50.4048H975.865V61.5048H952.365V80.0048H978.865V91.4048H938.365V21.5048H978.865V32.9048H952.365ZM1027.59 91.4048L1012.19 64.2048H1005.59V91.4048H991.588V21.6048L1017.79 21.6048C1023.19 21.6048 1027.79 22.5714 1031.59 24.5048C1035.39 26.3714 1038.22 28.9381 1040.09 32.2048C1042.02 35.4048 1042.99 39.0048 1042.99 43.0048C1042.99 47.6048 1041.65 51.7714 1038.99 55.5048C1036.32 59.1714 1032.35 61.7048 1027.09 63.1048L1043.79 91.4048H1027.59ZM1005.59 53.7048H1017.29C1021.09 53.7048 1023.92 52.8048 1025.79 51.0048C1027.65 49.1381 1028.59 46.5714 1028.59 43.3048C1028.59 40.1048 1027.65 37.6381 1025.79 35.9048C1023.92 34.1048 1021.09 33.2048 1017.29 33.2048H1005.59V53.7048Z" fill="#EEDB5F"/>
<path d="M1126.47 58.9328C1126.19 59.3611 1125.98 59.7468 1126 59.9212C1126.01 59.9421 1126.01 59.9605 1126.02 59.9782L1126.02 59.9798C1126.03 60.0015 1126.05 60.0192 1126.07 60.0361C1126.1 60.0658 1126.14 60.0899 1126.2 60.11C1126.31 60.1438 1127.11 60.1148 1127.35 60.0955C1127.99 60.0417 1128.64 59.9959 1129.28 59.9589C1129.47 59.9485 1129.65 59.9421 1129.84 59.9324C1130.68 59.8906 1131.51 59.8577 1132.33 59.8384C1132.99 59.8215 1133.64 59.8111 1134.28 59.8047C1134.46 59.803 1134.63 59.8022 1134.81 59.8014C1135.4 59.7982 1135.99 59.7966 1136.55 59.8022C1136.36 64.7153 1136.12 69.924 1135.92 74.8836C1135.9 75.6494 1135.86 76.4088 1135.84 77.1593C1135.77 78.7584 1135.77 78.7584 1135.77 78.7584C1135.77 78.8717 1135.76 78.9915 1135.76 79.1104C1135.74 79.8304 1135.74 80.6243 1135.9 80.8397C1135.9 80.8501 1135.91 80.8589 1135.92 80.867C1135.94 80.8935 1135.97 80.9056 1136.01 80.9048C1136.01 80.9048 1136.01 80.9031 1136.02 80.9031C1136.05 80.9015 1136.08 80.8903 1136.12 80.8702C1136.13 80.8638 1136.14 80.8533 1136.15 80.8445C1136.18 80.826 1136.21 80.8051 1136.24 80.7786C1136.25 80.7649 1136.27 80.7481 1136.28 80.7328C1136.31 80.7047 1136.34 80.6749 1136.37 80.6412C1136.38 80.6211 1136.4 80.6002 1136.42 80.5785C1136.45 80.5439 1136.47 80.5078 1136.5 80.47C1136.52 80.4451 1136.54 80.4194 1136.56 80.3937C1136.59 80.3551 1136.62 80.3141 1136.64 80.2739C1136.66 80.2458 1136.68 80.2185 1136.7 80.1904C1136.73 80.1478 1136.76 80.1044 1136.79 80.0602C1136.81 80.0321 1136.82 80.0039 1136.84 79.9758C1136.89 79.9083 1136.93 79.8408 1136.97 79.7749C1136.97 79.7749 1136.97 79.7749 1137.68 78.6861C1142.14 71.8381 1147.96 63.489 1153.12 56.2826C1154.65 54.1387 1154.91 53.7771 1154.91 53.7771C1154.94 53.7393 1154.97 53.6975 1155 53.659C1155.67 52.7582 1156.51 51.7883 1156.85 51.1101C1156.95 50.9124 1157.01 50.7348 1157 50.5942C1156.99 50.5275 1156.96 50.476 1156.91 50.4342C1156.89 50.419 1156.85 50.4126 1156.83 50.4005C1156.78 50.378 1156.74 50.3539 1156.69 50.3394C1156.65 50.329 1156.6 50.3258 1156.55 50.3185C1156.5 50.3097 1156.45 50.2993 1156.39 50.2944C1156.33 50.2904 1156.28 50.2904 1156.22 50.2888C1156.16 50.2872 1156.1 50.2832 1156.04 50.2832C1155.83 50.2856 1155.63 50.296 1155.5 50.3009C1155.5 50.3009 1155.5 50.3009 1154.49 50.3451C1151.54 50.472 1148.53 50.6335 1145.66 50.8304C1145.87 45.7631 1146.15 39.9509 1146.37 34.9382C1146.43 33.5465 1146.43 33.5465 1146.43 33.5465C1146.43 33.5079 1146.44 33.4629 1146.44 33.4219C1146.46 32.8899 1146.48 32.174 1146.32 31.965C1146.29 31.9337 1146.26 31.9096 1146.23 31.9056C1146.2 31.9024 1146.18 31.9096 1146.15 31.9152C1146.13 31.9184 1146.12 31.92 1146.1 31.9281C1146.08 31.9369 1146.05 31.9506 1146.03 31.9642C1146.01 31.9755 1145.99 31.9851 1145.97 31.9996C1145.94 32.0165 1145.92 32.039 1145.89 32.0599C1145.87 32.0783 1145.84 32.0944 1145.82 32.1161C1145.79 32.1402 1145.76 32.17 1145.73 32.1981C1145.71 32.2222 1145.68 32.2447 1145.66 32.2712C1145.63 32.3041 1145.59 32.3411 1145.56 32.3765C1145.54 32.4038 1145.51 32.4279 1145.49 32.4568C1145.45 32.4986 1145.41 32.5436 1145.38 32.5886C1145.35 32.6159 1145.33 32.6416 1145.31 32.6698C1145.26 32.7292 1145.21 32.7919 1145.16 32.8546C1145.15 32.8699 1145.14 32.8843 1145.12 32.8996C1145.06 32.9799 1145 33.0619 1144.93 33.1455C1144.76 33.3673 1144.59 33.5979 1144.43 33.8132C1144.43 33.8132 1144.43 33.8132 1143.24 35.4308C1143.12 35.5932 1143 35.7667 1142.87 35.9339C1139.54 40.4885 1133.26 49.3285 1133.26 49.3285C1132.96 49.7504 1132.67 50.1514 1132.4 50.5323C1132.18 50.8433 1131.96 51.1534 1131.74 51.4644C1131.55 51.7392 1128.92 55.4445 1128.36 56.2529C1127.37 57.6527 1127.37 57.6527 1127.37 57.6527C1127.12 58.0063 1126.76 58.4932 1126.47 58.9328Z" fill="#EEDB5F"/>
</svg>
