<svg width="2688" height="111" viewBox="0 0 2688 111" fill="none" xmlns="http://www.w3.org/2000/svg">
<g filter="url(#filter0_dd_576_20377)">
<path d="M55.5293 41.6048C53.9293 38.6715 51.7293 36.4381 48.9293 34.9048C46.1293 33.3715 42.8626 32.6048 39.1293 32.6048C34.996 32.6048 31.3293 33.5381 28.1293 35.4048C24.9293 37.2715 22.4293 39.9381 20.6293 43.4048C18.8293 46.8715 17.9293 50.8715 17.9293 55.4048C17.9293 60.0715 18.8293 64.1381 20.6293 67.6048C22.496 71.0715 25.0626 73.7381 28.3293 75.6048C31.596 77.4715 35.396 78.4048 39.7293 78.4048C45.0626 78.4048 49.4293 77.0048 52.8293 74.2048C56.2293 71.3381 58.4626 67.3715 59.5293 62.3048H35.5293V51.6048H73.3293V63.8048C72.396 68.6715 70.396 73.1715 67.3293 77.3048C64.2626 81.4381 60.296 84.7715 55.4293 87.3048C50.6293 89.7715 45.2293 91.0048 39.2293 91.0048C32.496 91.0048 26.396 89.5048 20.9293 86.5048C15.5293 83.4381 11.2626 79.2048 8.1293 73.8048C5.06263 68.4048 3.5293 62.2715 3.5293 55.4048C3.5293 48.5381 5.06263 42.4048 8.1293 37.0048C11.2626 31.5381 15.5293 27.3048 20.9293 24.3048C26.396 21.2381 32.4626 19.7048 39.1293 19.7048C46.996 19.7048 53.8293 21.6381 59.6293 25.5048C65.4293 29.3048 69.4293 34.6715 71.6293 41.6048H55.5293ZM97.6871 31.9048V49.4048H121.187V60.5048H97.6871V79.0048H124.187V90.4048H83.6871V20.5048H124.187V31.9048H97.6871ZM184.41 20.6048V31.9048H165.81V90.4048H151.81V31.9048H133.21V20.6048H184.41ZM232.453 20.6048V90.4048H218.453V20.6048H232.453ZM305.985 90.4048H291.985L260.285 42.5048V90.4048H246.285V20.5048H260.285L291.985 68.5048V20.5048H305.985V90.4048ZM414.976 20.6048V31.9048H396.376V90.4048H382.376V31.9048H363.776V20.6048L414.976 20.6048ZM457.591 91.1048C451.058 91.1048 445.058 89.5715 439.591 86.5048C434.124 83.4381 429.791 79.2048 426.591 73.8048C423.391 68.3381 421.791 62.1715 421.791 55.3048C421.791 48.5048 423.391 42.4048 426.591 37.0048C429.791 31.5381 434.124 27.2714 439.591 24.2048C445.058 21.1381 451.058 19.6048 457.591 19.6048C464.191 19.6048 470.191 21.1381 475.591 24.2048C481.058 27.2714 485.358 31.5381 488.491 37.0048C491.691 42.4048 493.291 48.5048 493.291 55.3048C493.291 62.1715 491.691 68.3381 488.491 73.8048C485.358 79.2048 481.058 83.4381 475.591 86.5048C470.124 89.5715 464.124 91.1048 457.591 91.1048ZM457.591 78.6048C461.791 78.6048 465.491 77.6715 468.691 75.8048C471.891 73.8715 474.391 71.1381 476.191 67.6048C477.991 64.0715 478.891 59.9715 478.891 55.3048C478.891 50.6381 477.991 46.5714 476.191 43.1048C474.391 39.5714 471.891 36.8714 468.691 35.0048C465.491 33.1381 461.791 32.2048 457.591 32.2048C453.391 32.2048 449.658 33.1381 446.391 35.0048C443.191 36.8714 440.691 39.5714 438.891 43.1048C437.091 46.5714 436.191 50.6381 436.191 55.3048C436.191 59.9715 437.091 64.0715 438.891 67.6048C440.691 71.1381 443.191 73.8715 446.391 75.8048C449.658 77.6715 453.391 78.6048 457.591 78.6048ZM517.507 20.6048V63.8048C517.507 68.5381 518.74 72.1715 521.207 74.7048C523.673 77.1715 527.14 78.4048 531.607 78.4048C536.14 78.4048 539.64 77.1715 542.107 74.7048C544.573 72.1715 545.807 68.5381 545.807 63.8048V20.6048H559.907V63.7048C559.907 69.6381 558.607 74.6715 556.007 78.8048C553.473 82.8715 550.04 85.9381 545.707 88.0048C541.44 90.0715 536.673 91.1048 531.407 91.1048C526.207 91.1048 521.473 90.0715 517.207 88.0048C513.007 85.9381 509.673 82.8715 507.207 78.8048C504.74 74.6715 503.507 69.6381 503.507 63.7048V20.6048H517.507ZM570.033 55.4048C570.033 48.5381 571.567 42.4048 574.633 37.0048C577.767 31.5381 582 27.3048 587.333 24.3048C592.733 21.2381 598.767 19.7048 605.433 19.7048C613.233 19.7048 620.067 21.7048 625.933 25.7048C631.8 29.7048 635.9 35.2381 638.233 42.3048H622.133C620.533 38.9714 618.267 36.4714 615.333 34.8048C612.467 33.1381 609.133 32.3048 605.333 32.3048C601.267 32.3048 597.633 33.2714 594.433 35.2048C591.3 37.0714 588.833 39.7381 587.033 43.2048C585.3 46.6714 584.433 50.7381 584.433 55.4048C584.433 60.0048 585.3 64.0715 587.033 67.6048C588.833 71.0715 591.3 73.7715 594.433 75.7048C597.633 77.5715 601.267 78.5048 605.333 78.5048C609.133 78.5048 612.467 77.6715 615.333 76.0048C618.267 74.2715 620.533 71.7381 622.133 68.4048H638.233C635.9 75.5381 631.8 81.1048 625.933 85.1048C620.133 89.0381 613.3 91.0048 605.433 91.0048C598.767 91.0048 592.733 89.5048 587.333 86.5048C582 83.4381 577.767 79.2048 574.633 73.8048C571.567 68.4048 570.033 62.2715 570.033 55.4048ZM708.091 20.6048V90.4048H694.091V60.7048H664.191V90.4048H650.191V20.6048H664.191V49.3048H694.091V20.6048H708.091Z" fill="#EEDB5F"/>
</g>
<path d="M790.47 57.9328C790.189 58.3611 789.978 58.7468 790.002 58.9212C790.005 58.9421 790.013 58.9605 790.023 58.9782L790.023 58.9798C790.034 59.0015 790.046 59.0192 790.068 59.0361C790.1 59.0658 790.144 59.0899 790.199 59.11C790.31 59.1438 791.115 59.1148 791.353 59.0955C791.995 59.0417 792.635 58.9959 793.283 58.9589C793.467 58.9485 793.65 58.9421 793.839 58.9324C794.675 58.8906 795.508 58.8577 796.332 58.8384C796.991 58.8215 797.641 58.8111 798.282 58.8047C798.46 58.803 798.632 58.8022 798.806 58.8014C799.399 58.7982 799.987 58.7966 800.547 58.8022C800.356 63.7153 800.122 68.924 799.924 73.8836C799.896 74.6494 799.862 75.4088 799.835 76.1593C799.774 77.7584 799.774 77.7584 799.774 77.7584C799.771 77.8717 799.765 77.9915 799.761 78.1104C799.743 78.8304 799.743 79.6243 799.897 79.8397C799.901 79.8501 799.908 79.8589 799.916 79.867C799.943 79.8935 799.974 79.9056 800.008 79.9048C800.01 79.9048 800.013 79.9031 800.016 79.9031C800.046 79.9015 800.08 79.8903 800.115 79.8702C800.127 79.8638 800.139 79.8533 800.151 79.8445C800.178 79.826 800.206 79.8051 800.235 79.7786C800.251 79.7649 800.266 79.7481 800.282 79.7328C800.31 79.7047 800.338 79.6749 800.367 79.6412C800.384 79.6211 800.401 79.6002 800.419 79.5785C800.447 79.5439 800.475 79.5078 800.503 79.47C800.521 79.4451 800.541 79.4194 800.56 79.3937C800.588 79.3551 800.616 79.3141 800.644 79.2739C800.663 79.2458 800.683 79.2185 800.702 79.1904C800.731 79.1478 800.759 79.1044 800.787 79.0602C800.805 79.0321 800.824 79.0039 800.842 78.9758C800.886 78.9083 800.929 78.8408 800.971 78.7749C800.971 78.7749 800.971 78.7749 801.68 77.6861C806.144 70.8381 811.955 62.489 817.115 55.2826C818.648 53.1387 818.911 52.7771 818.911 52.7771C818.943 52.7393 818.972 52.6975 819.003 52.659C819.668 51.7582 820.509 50.7883 820.848 50.1101C820.945 49.9124 821.009 49.7348 820.999 49.5942C820.994 49.5275 820.96 49.476 820.905 49.4342C820.887 49.419 820.854 49.4126 820.83 49.4005C820.785 49.378 820.744 49.3539 820.686 49.3394C820.646 49.329 820.598 49.3258 820.554 49.3185C820.5 49.3097 820.448 49.2993 820.387 49.2944C820.333 49.2904 820.275 49.2904 820.218 49.2888C820.16 49.2872 820.101 49.2832 820.042 49.2832C819.834 49.2856 819.635 49.296 819.501 49.3009C819.501 49.3009 819.501 49.3009 818.488 49.3451C815.544 49.472 812.527 49.6335 809.656 49.8304C809.873 44.7631 810.147 38.9509 810.374 33.9382C810.433 32.5465 810.433 32.5465 810.433 32.5465C810.434 32.5079 810.436 32.4629 810.438 32.4219C810.462 31.8899 810.483 31.174 810.319 30.965C810.291 30.9337 810.261 30.9096 810.225 30.9056C810.204 30.9024 810.177 30.9096 810.152 30.9152C810.135 30.9184 810.117 30.92 810.098 30.9281C810.076 30.9369 810.051 30.9506 810.028 30.9642C810.008 30.9755 809.988 30.9851 809.966 30.9996C809.942 31.0165 809.915 31.039 809.888 31.0599C809.865 31.0783 809.842 31.0944 809.818 31.1161C809.791 31.1402 809.762 31.17 809.733 31.1981C809.708 31.2222 809.684 31.2447 809.659 31.2712C809.627 31.3041 809.594 31.3411 809.561 31.3765C809.537 31.4038 809.512 31.4279 809.487 31.4568C809.451 31.4986 809.413 31.5436 809.376 31.5886C809.353 31.6159 809.33 31.6416 809.308 31.6698C809.258 31.7292 809.209 31.7919 809.159 31.8546C809.147 31.8699 809.135 31.8843 809.123 31.8996C809.06 31.9799 808.997 32.0619 808.933 32.1455C808.764 32.3673 808.592 32.5979 808.429 32.8132C808.429 32.8132 808.429 32.8132 807.24 34.4308C807.124 34.5932 806.996 34.7667 806.87 34.9339C803.537 39.4885 797.261 48.3285 797.261 48.3285C796.959 48.7504 796.674 49.1514 796.398 49.5323C796.178 49.8433 795.962 50.1534 795.74 50.4644C795.547 50.7392 792.924 54.4445 792.355 55.2529C791.371 56.6527 791.371 56.6527 791.371 56.6527C791.121 57.0063 790.758 57.4932 790.47 57.9328Z" fill="#EEDB5F"/>
<g filter="url(#filter1_dd_576_20377)">
<path d="M951.529 41.6048C949.929 38.6715 947.729 36.4381 944.929 34.9048C942.129 33.3715 938.863 32.6048 935.129 32.6048C930.996 32.6048 927.329 33.5381 924.129 35.4048C920.929 37.2715 918.429 39.9381 916.629 43.4048C914.829 46.8715 913.929 50.8715 913.929 55.4048C913.929 60.0715 914.829 64.1381 916.629 67.6048C918.496 71.0715 921.063 73.7381 924.329 75.6048C927.596 77.4715 931.396 78.4048 935.729 78.4048C941.063 78.4048 945.429 77.0048 948.829 74.2048C952.229 71.3381 954.463 67.3715 955.529 62.3048H931.529V51.6048H969.329V63.8048C968.396 68.6715 966.396 73.1715 963.329 77.3048C960.263 81.4381 956.296 84.7715 951.429 87.3048C946.629 89.7715 941.229 91.0048 935.229 91.0048C928.496 91.0048 922.396 89.5048 916.929 86.5048C911.529 83.4381 907.263 79.2048 904.129 73.8048C901.063 68.4048 899.529 62.2715 899.529 55.4048C899.529 48.5381 901.063 42.4048 904.129 37.0048C907.263 31.5381 911.529 27.3048 916.929 24.3048C922.396 21.2381 928.463 19.7048 935.129 19.7048C942.996 19.7048 949.829 21.6381 955.629 25.5048C961.429 29.3048 965.429 34.6715 967.629 41.6048H951.529ZM993.687 31.9048V49.4048H1017.19V60.5048H993.687V79.0048H1020.19V90.4048H979.687V20.5048H1020.19V31.9048H993.687ZM1080.41 20.6048V31.9048H1061.81V90.4048H1047.81V31.9048H1029.21V20.6048H1080.41ZM1128.45 20.6048V90.4048H1114.45V20.6048H1128.45ZM1201.98 90.4048H1187.98L1156.28 42.5048V90.4048H1142.28V20.5048H1156.28L1187.98 68.5048V20.5048H1201.98V90.4048ZM1310.98 20.6048V31.9048H1292.38V90.4048H1278.38V31.9048H1259.78V20.6048L1310.98 20.6048ZM1353.59 91.1048C1347.06 91.1048 1341.06 89.5715 1335.59 86.5048C1330.12 83.4381 1325.79 79.2048 1322.59 73.8048C1319.39 68.3381 1317.79 62.1715 1317.79 55.3048C1317.79 48.5048 1319.39 42.4048 1322.59 37.0048C1325.79 31.5381 1330.12 27.2714 1335.59 24.2048C1341.06 21.1381 1347.06 19.6048 1353.59 19.6048C1360.19 19.6048 1366.19 21.1381 1371.59 24.2048C1377.06 27.2714 1381.36 31.5381 1384.49 37.0048C1387.69 42.4048 1389.29 48.5048 1389.29 55.3048C1389.29 62.1715 1387.69 68.3381 1384.49 73.8048C1381.36 79.2048 1377.06 83.4381 1371.59 86.5048C1366.12 89.5715 1360.12 91.1048 1353.59 91.1048ZM1353.59 78.6048C1357.79 78.6048 1361.49 77.6715 1364.69 75.8048C1367.89 73.8715 1370.39 71.1381 1372.19 67.6048C1373.99 64.0715 1374.89 59.9715 1374.89 55.3048C1374.89 50.6381 1373.99 46.5714 1372.19 43.1048C1370.39 39.5714 1367.89 36.8714 1364.69 35.0048C1361.49 33.1381 1357.79 32.2048 1353.59 32.2048C1349.39 32.2048 1345.66 33.1381 1342.39 35.0048C1339.19 36.8714 1336.69 39.5714 1334.89 43.1048C1333.09 46.5714 1332.19 50.6381 1332.19 55.3048C1332.19 59.9715 1333.09 64.0715 1334.89 67.6048C1336.69 71.1381 1339.19 73.8715 1342.39 75.8048C1345.66 77.6715 1349.39 78.6048 1353.59 78.6048ZM1413.51 20.6048V63.8048C1413.51 68.5381 1414.74 72.1715 1417.21 74.7048C1419.67 77.1715 1423.14 78.4048 1427.61 78.4048C1432.14 78.4048 1435.64 77.1715 1438.11 74.7048C1440.57 72.1715 1441.81 68.5381 1441.81 63.8048V20.6048H1455.91V63.7048C1455.91 69.6381 1454.61 74.6715 1452.01 78.8048C1449.47 82.8715 1446.04 85.9381 1441.71 88.0048C1437.44 90.0715 1432.67 91.1048 1427.41 91.1048C1422.21 91.1048 1417.47 90.0715 1413.21 88.0048C1409.01 85.9381 1405.67 82.8715 1403.21 78.8048C1400.74 74.6715 1399.51 69.6381 1399.51 63.7048V20.6048H1413.51ZM1466.03 55.4048C1466.03 48.5381 1467.57 42.4048 1470.63 37.0048C1473.77 31.5381 1478 27.3048 1483.33 24.3048C1488.73 21.2381 1494.77 19.7048 1501.43 19.7048C1509.23 19.7048 1516.07 21.7048 1521.93 25.7048C1527.8 29.7048 1531.9 35.2381 1534.23 42.3048H1518.13C1516.53 38.9714 1514.27 36.4714 1511.33 34.8048C1508.47 33.1381 1505.13 32.3048 1501.33 32.3048C1497.27 32.3048 1493.63 33.2714 1490.43 35.2048C1487.3 37.0714 1484.83 39.7381 1483.03 43.2048C1481.3 46.6714 1480.43 50.7381 1480.43 55.4048C1480.43 60.0048 1481.3 64.0715 1483.03 67.6048C1484.83 71.0715 1487.3 73.7715 1490.43 75.7048C1493.63 77.5715 1497.27 78.5048 1501.33 78.5048C1505.13 78.5048 1508.47 77.6715 1511.33 76.0048C1514.27 74.2715 1516.53 71.7381 1518.13 68.4048H1534.23C1531.9 75.5381 1527.8 81.1048 1521.93 85.1048C1516.13 89.0381 1509.3 91.0048 1501.43 91.0048C1494.77 91.0048 1488.73 89.5048 1483.33 86.5048C1478 83.4381 1473.77 79.2048 1470.63 73.8048C1467.57 68.4048 1466.03 62.2715 1466.03 55.4048ZM1604.09 20.6048V90.4048H1590.09V60.7048H1560.19V90.4048H1546.19V20.6048H1560.19V49.3048H1590.09V20.6048H1604.09Z" fill="#EEDB5F"/>
</g>
<path d="M1686.47 57.9328C1686.19 58.3611 1685.98 58.7468 1686 58.9212C1686.01 58.9421 1686.01 58.9605 1686.02 58.9782L1686.02 58.9798C1686.03 59.0015 1686.05 59.0192 1686.07 59.0361C1686.1 59.0658 1686.14 59.0899 1686.2 59.11C1686.31 59.1438 1687.11 59.1148 1687.35 59.0955C1687.99 59.0417 1688.64 58.9959 1689.28 58.9589C1689.47 58.9485 1689.65 58.9421 1689.84 58.9324C1690.68 58.8906 1691.51 58.8577 1692.33 58.8384C1692.99 58.8215 1693.64 58.8111 1694.28 58.8047C1694.46 58.803 1694.63 58.8022 1694.81 58.8014C1695.4 58.7982 1695.99 58.7966 1696.55 58.8022C1696.36 63.7153 1696.12 68.924 1695.92 73.8836C1695.9 74.6494 1695.86 75.4088 1695.84 76.1593C1695.77 77.7584 1695.77 77.7584 1695.77 77.7584C1695.77 77.8717 1695.76 77.9915 1695.76 78.1104C1695.74 78.8304 1695.74 79.6243 1695.9 79.8397C1695.9 79.8501 1695.91 79.8589 1695.92 79.867C1695.94 79.8935 1695.97 79.9056 1696.01 79.9048C1696.01 79.9048 1696.01 79.9031 1696.02 79.9031C1696.05 79.9015 1696.08 79.8903 1696.12 79.8702C1696.13 79.8638 1696.14 79.8533 1696.15 79.8445C1696.18 79.826 1696.21 79.8051 1696.24 79.7786C1696.25 79.7649 1696.27 79.7481 1696.28 79.7328C1696.31 79.7047 1696.34 79.6749 1696.37 79.6412C1696.38 79.6211 1696.4 79.6002 1696.42 79.5785C1696.45 79.5439 1696.47 79.5078 1696.5 79.47C1696.52 79.4451 1696.54 79.4194 1696.56 79.3937C1696.59 79.3551 1696.62 79.3141 1696.64 79.2739C1696.66 79.2458 1696.68 79.2185 1696.7 79.1904C1696.73 79.1478 1696.76 79.1044 1696.79 79.0602C1696.81 79.0321 1696.82 79.0039 1696.84 78.9758C1696.89 78.9083 1696.93 78.8408 1696.97 78.7749C1696.97 78.7749 1696.97 78.7749 1697.68 77.6861C1702.14 70.8381 1707.96 62.489 1713.12 55.2826C1714.65 53.1387 1714.91 52.7771 1714.91 52.7771C1714.94 52.7393 1714.97 52.6975 1715 52.659C1715.67 51.7582 1716.51 50.7883 1716.85 50.1101C1716.95 49.9124 1717.01 49.7348 1717 49.5942C1716.99 49.5275 1716.96 49.476 1716.91 49.4342C1716.89 49.419 1716.85 49.4126 1716.83 49.4005C1716.78 49.378 1716.74 49.3539 1716.69 49.3394C1716.65 49.329 1716.6 49.3258 1716.55 49.3185C1716.5 49.3097 1716.45 49.2993 1716.39 49.2944C1716.33 49.2904 1716.28 49.2904 1716.22 49.2888C1716.16 49.2872 1716.1 49.2832 1716.04 49.2832C1715.83 49.2856 1715.63 49.296 1715.5 49.3009C1715.5 49.3009 1715.5 49.3009 1714.49 49.3451C1711.54 49.472 1708.53 49.6335 1705.66 49.8304C1705.87 44.7631 1706.15 38.9509 1706.37 33.9382C1706.43 32.5465 1706.43 32.5465 1706.43 32.5465C1706.43 32.5079 1706.44 32.4629 1706.44 32.4219C1706.46 31.8899 1706.48 31.174 1706.32 30.965C1706.29 30.9337 1706.26 30.9096 1706.23 30.9056C1706.2 30.9024 1706.18 30.9096 1706.15 30.9152C1706.13 30.9184 1706.12 30.92 1706.1 30.9281C1706.08 30.9369 1706.05 30.9506 1706.03 30.9642C1706.01 30.9755 1705.99 30.9851 1705.97 30.9996C1705.94 31.0165 1705.92 31.039 1705.89 31.0599C1705.87 31.0783 1705.84 31.0944 1705.82 31.1161C1705.79 31.1402 1705.76 31.17 1705.73 31.1981C1705.71 31.2222 1705.68 31.2447 1705.66 31.2712C1705.63 31.3041 1705.59 31.3411 1705.56 31.3765C1705.54 31.4038 1705.51 31.4279 1705.49 31.4568C1705.45 31.4986 1705.41 31.5436 1705.38 31.5886C1705.35 31.6159 1705.33 31.6416 1705.31 31.6698C1705.26 31.7292 1705.21 31.7919 1705.16 31.8546C1705.15 31.8699 1705.14 31.8843 1705.12 31.8996C1705.06 31.9799 1705 32.0619 1704.93 32.1455C1704.76 32.3673 1704.59 32.5979 1704.43 32.8132C1704.43 32.8132 1704.43 32.8132 1703.24 34.4308C1703.12 34.5932 1703 34.7667 1702.87 34.9339C1699.54 39.4885 1693.26 48.3285 1693.26 48.3285C1692.96 48.7504 1692.67 49.1514 1692.4 49.5323C1692.18 49.8433 1691.96 50.1534 1691.74 50.4644C1691.55 50.7392 1688.92 54.4445 1688.36 55.2529C1687.37 56.6527 1687.37 56.6527 1687.37 56.6527C1687.12 57.0063 1686.76 57.4932 1686.47 57.9328Z" fill="#EEDB5F"/>
<g filter="url(#filter2_dd_576_20377)">
<path d="M1847.53 41.6048C1845.93 38.6715 1843.73 36.4381 1840.93 34.9048C1838.13 33.3715 1834.86 32.6048 1831.13 32.6048C1827 32.6048 1823.33 33.5381 1820.13 35.4048C1816.93 37.2715 1814.43 39.9381 1812.63 43.4048C1810.83 46.8715 1809.93 50.8715 1809.93 55.4048C1809.93 60.0715 1810.83 64.1381 1812.63 67.6048C1814.5 71.0715 1817.06 73.7381 1820.33 75.6048C1823.6 77.4715 1827.4 78.4048 1831.73 78.4048C1837.06 78.4048 1841.43 77.0048 1844.83 74.2048C1848.23 71.3381 1850.46 67.3715 1851.53 62.3048H1827.53V51.6048H1865.33V63.8048C1864.4 68.6715 1862.4 73.1715 1859.33 77.3048C1856.26 81.4381 1852.3 84.7715 1847.43 87.3048C1842.63 89.7715 1837.23 91.0048 1831.23 91.0048C1824.5 91.0048 1818.4 89.5048 1812.93 86.5048C1807.53 83.4381 1803.26 79.2048 1800.13 73.8048C1797.06 68.4048 1795.53 62.2715 1795.53 55.4048C1795.53 48.5381 1797.06 42.4048 1800.13 37.0048C1803.26 31.5381 1807.53 27.3048 1812.93 24.3048C1818.4 21.2381 1824.46 19.7048 1831.13 19.7048C1839 19.7048 1845.83 21.6381 1851.63 25.5048C1857.43 29.3048 1861.43 34.6715 1863.63 41.6048H1847.53ZM1889.69 31.9048V49.4048H1913.19V60.5048H1889.69V79.0048H1916.19V90.4048H1875.69V20.5048H1916.19V31.9048H1889.69ZM1976.41 20.6048V31.9048H1957.81V90.4048H1943.81V31.9048H1925.21V20.6048H1976.41ZM2024.45 20.6048V90.4048H2010.45V20.6048H2024.45ZM2097.98 90.4048H2083.98L2052.28 42.5048V90.4048H2038.28V20.5048H2052.28L2083.98 68.5048V20.5048H2097.98V90.4048ZM2206.98 20.6048V31.9048H2188.38V90.4048H2174.38V31.9048H2155.78V20.6048L2206.98 20.6048ZM2249.59 91.1048C2243.06 91.1048 2237.06 89.5715 2231.59 86.5048C2226.12 83.4381 2221.79 79.2048 2218.59 73.8048C2215.39 68.3381 2213.79 62.1715 2213.79 55.3048C2213.79 48.5048 2215.39 42.4048 2218.59 37.0048C2221.79 31.5381 2226.12 27.2714 2231.59 24.2048C2237.06 21.1381 2243.06 19.6048 2249.59 19.6048C2256.19 19.6048 2262.19 21.1381 2267.59 24.2048C2273.06 27.2714 2277.36 31.5381 2280.49 37.0048C2283.69 42.4048 2285.29 48.5048 2285.29 55.3048C2285.29 62.1715 2283.69 68.3381 2280.49 73.8048C2277.36 79.2048 2273.06 83.4381 2267.59 86.5048C2262.12 89.5715 2256.12 91.1048 2249.59 91.1048ZM2249.59 78.6048C2253.79 78.6048 2257.49 77.6715 2260.69 75.8048C2263.89 73.8715 2266.39 71.1381 2268.19 67.6048C2269.99 64.0715 2270.89 59.9715 2270.89 55.3048C2270.89 50.6381 2269.99 46.5714 2268.19 43.1048C2266.39 39.5714 2263.89 36.8714 2260.69 35.0048C2257.49 33.1381 2253.79 32.2048 2249.59 32.2048C2245.39 32.2048 2241.66 33.1381 2238.39 35.0048C2235.19 36.8714 2232.69 39.5714 2230.89 43.1048C2229.09 46.5714 2228.19 50.6381 2228.19 55.3048C2228.19 59.9715 2229.09 64.0715 2230.89 67.6048C2232.69 71.1381 2235.19 73.8715 2238.39 75.8048C2241.66 77.6715 2245.39 78.6048 2249.59 78.6048ZM2309.51 20.6048V63.8048C2309.51 68.5381 2310.74 72.1715 2313.21 74.7048C2315.67 77.1715 2319.14 78.4048 2323.61 78.4048C2328.14 78.4048 2331.64 77.1715 2334.11 74.7048C2336.57 72.1715 2337.81 68.5381 2337.81 63.8048V20.6048H2351.91V63.7048C2351.91 69.6381 2350.61 74.6715 2348.01 78.8048C2345.47 82.8715 2342.04 85.9381 2337.71 88.0048C2333.44 90.0715 2328.67 91.1048 2323.41 91.1048C2318.21 91.1048 2313.47 90.0715 2309.21 88.0048C2305.01 85.9381 2301.67 82.8715 2299.21 78.8048C2296.74 74.6715 2295.51 69.6381 2295.51 63.7048V20.6048H2309.51ZM2362.03 55.4048C2362.03 48.5381 2363.57 42.4048 2366.63 37.0048C2369.77 31.5381 2374 27.3048 2379.33 24.3048C2384.73 21.2381 2390.77 19.7048 2397.43 19.7048C2405.23 19.7048 2412.07 21.7048 2417.93 25.7048C2423.8 29.7048 2427.9 35.2381 2430.23 42.3048H2414.13C2412.53 38.9714 2410.27 36.4714 2407.33 34.8048C2404.47 33.1381 2401.13 32.3048 2397.33 32.3048C2393.27 32.3048 2389.63 33.2714 2386.43 35.2048C2383.3 37.0714 2380.83 39.7381 2379.03 43.2048C2377.3 46.6714 2376.43 50.7381 2376.43 55.4048C2376.43 60.0048 2377.3 64.0715 2379.03 67.6048C2380.83 71.0715 2383.3 73.7715 2386.43 75.7048C2389.63 77.5715 2393.27 78.5048 2397.33 78.5048C2401.13 78.5048 2404.47 77.6715 2407.33 76.0048C2410.27 74.2715 2412.53 71.7381 2414.13 68.4048H2430.23C2427.9 75.5381 2423.8 81.1048 2417.93 85.1048C2412.13 89.0381 2405.3 91.0048 2397.43 91.0048C2390.77 91.0048 2384.73 89.5048 2379.33 86.5048C2374 83.4381 2369.77 79.2048 2366.63 73.8048C2363.57 68.4048 2362.03 62.2715 2362.03 55.4048ZM2500.09 20.6048V90.4048H2486.09V60.7048H2456.19V90.4048H2442.19V20.6048H2456.19V49.3048H2486.09V20.6048H2500.09Z" fill="#EEDB5F"/>
</g>
<path d="M2582.47 57.9328C2582.19 58.3611 2581.98 58.7468 2582 58.9212C2582.01 58.9421 2582.01 58.9605 2582.02 58.9782L2582.02 58.9798C2582.03 59.0015 2582.05 59.0192 2582.07 59.0361C2582.1 59.0658 2582.14 59.0899 2582.2 59.11C2582.31 59.1438 2583.11 59.1148 2583.35 59.0955C2583.99 59.0417 2584.64 58.9959 2585.28 58.9589C2585.47 58.9485 2585.65 58.9421 2585.84 58.9324C2586.68 58.8906 2587.51 58.8577 2588.33 58.8384C2588.99 58.8215 2589.64 58.8111 2590.28 58.8047C2590.46 58.803 2590.63 58.8022 2590.81 58.8014C2591.4 58.7982 2591.99 58.7966 2592.55 58.8022C2592.36 63.7153 2592.12 68.924 2591.92 73.8836C2591.9 74.6494 2591.86 75.4088 2591.84 76.1593C2591.77 77.7584 2591.77 77.7584 2591.77 77.7584C2591.77 77.8717 2591.76 77.9915 2591.76 78.1104C2591.74 78.8304 2591.74 79.6243 2591.9 79.8397C2591.9 79.8501 2591.91 79.8589 2591.92 79.867C2591.94 79.8935 2591.97 79.9056 2592.01 79.9048C2592.01 79.9048 2592.01 79.9031 2592.02 79.9031C2592.05 79.9015 2592.08 79.8903 2592.12 79.8702C2592.13 79.8638 2592.14 79.8533 2592.15 79.8445C2592.18 79.826 2592.21 79.8051 2592.24 79.7786C2592.25 79.7649 2592.27 79.7481 2592.28 79.7328C2592.31 79.7047 2592.34 79.6749 2592.37 79.6412C2592.38 79.6211 2592.4 79.6002 2592.42 79.5785C2592.45 79.5439 2592.47 79.5078 2592.5 79.47C2592.52 79.4451 2592.54 79.4194 2592.56 79.3937C2592.59 79.3551 2592.62 79.3141 2592.64 79.2739C2592.66 79.2458 2592.68 79.2185 2592.7 79.1904C2592.73 79.1478 2592.76 79.1044 2592.79 79.0602C2592.81 79.0321 2592.82 79.0039 2592.84 78.9758C2592.89 78.9083 2592.93 78.8408 2592.97 78.7749C2592.97 78.7749 2592.97 78.7749 2593.68 77.6861C2598.14 70.8381 2603.96 62.489 2609.12 55.2826C2610.65 53.1387 2610.91 52.7771 2610.91 52.7771C2610.94 52.7393 2610.97 52.6975 2611 52.659C2611.67 51.7582 2612.51 50.7883 2612.85 50.1101C2612.95 49.9124 2613.01 49.7348 2613 49.5942C2612.99 49.5275 2612.96 49.476 2612.91 49.4342C2612.89 49.419 2612.85 49.4126 2612.83 49.4005C2612.78 49.378 2612.74 49.3539 2612.69 49.3394C2612.65 49.329 2612.6 49.3258 2612.55 49.3185C2612.5 49.3097 2612.45 49.2993 2612.39 49.2944C2612.33 49.2904 2612.28 49.2904 2612.22 49.2888C2612.16 49.2872 2612.1 49.2832 2612.04 49.2832C2611.83 49.2856 2611.63 49.296 2611.5 49.3009C2611.5 49.3009 2611.5 49.3009 2610.49 49.3451C2607.54 49.472 2604.53 49.6335 2601.66 49.8304C2601.87 44.7631 2602.15 38.9509 2602.37 33.9382C2602.43 32.5465 2602.43 32.5465 2602.43 32.5465C2602.43 32.5079 2602.44 32.4629 2602.44 32.4219C2602.46 31.8899 2602.48 31.174 2602.32 30.965C2602.29 30.9337 2602.26 30.9096 2602.23 30.9056C2602.2 30.9024 2602.18 30.9096 2602.15 30.9152C2602.13 30.9184 2602.12 30.92 2602.1 30.9281C2602.08 30.9369 2602.05 30.9506 2602.03 30.9642C2602.01 30.9755 2601.99 30.9851 2601.97 30.9996C2601.94 31.0165 2601.92 31.039 2601.89 31.0599C2601.87 31.0783 2601.84 31.0944 2601.82 31.1161C2601.79 31.1402 2601.76 31.17 2601.73 31.1981C2601.71 31.2222 2601.68 31.2447 2601.66 31.2712C2601.63 31.3041 2601.59 31.3411 2601.56 31.3765C2601.54 31.4038 2601.51 31.4279 2601.49 31.4568C2601.45 31.4986 2601.41 31.5436 2601.38 31.5886C2601.35 31.6159 2601.33 31.6416 2601.31 31.6698C2601.26 31.7292 2601.21 31.7919 2601.16 31.8546C2601.15 31.8699 2601.14 31.8843 2601.12 31.8996C2601.06 31.9799 2601 32.0619 2600.93 32.1455C2600.76 32.3673 2600.59 32.5979 2600.43 32.8132C2600.43 32.8132 2600.43 32.8132 2599.24 34.4308C2599.12 34.5932 2599 34.7667 2598.87 34.9339C2595.54 39.4885 2589.26 48.3285 2589.26 48.3285C2588.96 48.7504 2588.67 49.1514 2588.4 49.5323C2588.18 49.8433 2587.96 50.1534 2587.74 50.4644C2587.55 50.7392 2584.92 54.4445 2584.36 55.2529C2583.37 56.6527 2583.37 56.6527 2583.37 56.6527C2583.12 57.0063 2582.76 57.4932 2582.47 57.9328Z" fill="#EEDB5F"/>
<defs>
<filter id="filter0_dd_576_20377" x="1.5293" y="18.6048" width="708.562" height="73.5" filterUnits="userSpaceOnUse" color-interpolation-filters="sRGB">
<feFlood flood-opacity="0" result="BackgroundImageFix"/>
<feColorMatrix in="SourceAlpha" type="matrix" values="0 0 0 0 0 0 0 0 0 0 0 0 0 0 0 0 0 0 127 0" result="hardAlpha"/>
<feOffset dx="2" dy="-1"/>
<feComposite in2="hardAlpha" operator="out"/>
<feColorMatrix type="matrix" values="0 0 0 0 0.952941 0 0 0 0 0.301961 0 0 0 0 0.301961 0 0 0 1 0"/>
<feBlend mode="normal" in2="BackgroundImageFix" result="effect1_dropShadow_576_20377"/>
<feColorMatrix in="SourceAlpha" type="matrix" values="0 0 0 0 0 0 0 0 0 0 0 0 0 0 0 0 0 0 127 0" result="hardAlpha"/>
<feOffset dx="-2" dy="1"/>
<feComposite in2="hardAlpha" operator="out"/>
<feColorMatrix type="matrix" values="0 0 0 0 0.247059 0 0 0 0 0.411765 0 0 0 0 1 0 0 0 1 0"/>
<feBlend mode="normal" in2="effect1_dropShadow_576_20377" result="effect2_dropShadow_576_20377"/>
<feBlend mode="normal" in="SourceGraphic" in2="effect2_dropShadow_576_20377" result="shape"/>
</filter>
<filter id="filter1_dd_576_20377" x="897.529" y="18.6048" width="708.562" height="73.5" filterUnits="userSpaceOnUse" color-interpolation-filters="sRGB">
<feFlood flood-opacity="0" result="BackgroundImageFix"/>
<feColorMatrix in="SourceAlpha" type="matrix" values="0 0 0 0 0 0 0 0 0 0 0 0 0 0 0 0 0 0 127 0" result="hardAlpha"/>
<feOffset dx="2" dy="-1"/>
<feComposite in2="hardAlpha" operator="out"/>
<feColorMatrix type="matrix" values="0 0 0 0 0.952941 0 0 0 0 0.301961 0 0 0 0 0.301961 0 0 0 1 0"/>
<feBlend mode="normal" in2="BackgroundImageFix" result="effect1_dropShadow_576_20377"/>
<feColorMatrix in="SourceAlpha" type="matrix" values="0 0 0 0 0 0 0 0 0 0 0 0 0 0 0 0 0 0 127 0" result="hardAlpha"/>
<feOffset dx="-2" dy="1"/>
<feComposite in2="hardAlpha" operator="out"/>
<feColorMatrix type="matrix" values="0 0 0 0 0.247059 0 0 0 0 0.411765 0 0 0 0 1 0 0 0 1 0"/>
<feBlend mode="normal" in2="effect1_dropShadow_576_20377" result="effect2_dropShadow_576_20377"/>
<feBlend mode="normal" in="SourceGraphic" in2="effect2_dropShadow_576_20377" result="shape"/>
</filter>
<filter id="filter2_dd_576_20377" x="1793.53" y="18.6048" width="708.562" height="73.5" filterUnits="userSpaceOnUse" color-interpolation-filters="sRGB">
<feFlood flood-opacity="0" result="BackgroundImageFix"/>
<feColorMatrix in="SourceAlpha" type="matrix" values="0 0 0 0 0 0 0 0 0 0 0 0 0 0 0 0 0 0 127 0" result="hardAlpha"/>
<feOffset dx="2" dy="-1"/>
<feComposite in2="hardAlpha" operator="out"/>
<feColorMatrix type="matrix" values="0 0 0 0 0.952941 0 0 0 0 0.301961 0 0 0 0 0.301961 0 0 0 1 0"/>
<feBlend mode="normal" in2="BackgroundImageFix" result="effect1_dropShadow_576_20377"/>
<feColorMatrix in="SourceAlpha" type="matrix" values="0 0 0 0 0 0 0 0 0 0 0 0 0 0 0 0 0 0 127 0" result="hardAlpha"/>
<feOffset dx="-2" dy="1"/>
<feComposite in2="hardAlpha" operator="out"/>
<feColorMatrix type="matrix" values="0 0 0 0 0.247059 0 0 0 0 0.411765 0 0 0 0 1 0 0 0 1 0"/>
<feBlend mode="normal" in2="effect1_dropShadow_576_20377" result="effect2_dropShadow_576_20377"/>
<feBlend mode="normal" in="SourceGraphic" in2="effect2_dropShadow_576_20377" result="shape"/>
</filter>
</defs>
</svg>
