<svg width="2688" height="111" viewBox="0 0 2688 111" fill="none" xmlns="http://www.w3.org/2000/svg">
<g filter="url(#filter0_dd_668_23010)">
<path d="M55.5293 41.4593C53.9293 38.5259 51.7293 36.2926 48.9293 34.7593C46.1293 33.2259 42.8626 32.4593 39.1293 32.4593C34.996 32.4593 31.3293 33.3926 28.1293 35.2593C24.9293 37.1259 22.4293 39.7926 20.6293 43.2593C18.8293 46.7259 17.9293 50.7259 17.9293 55.2593C17.9293 59.9259 18.8293 63.9926 20.6293 67.4593C22.496 70.9259 25.0626 73.5926 28.3293 75.4593C31.596 77.3259 35.396 78.2593 39.7293 78.2593C45.0626 78.2593 49.4293 76.8593 52.8293 74.0593C56.2293 71.1926 58.4626 67.2259 59.5293 62.1593H35.5293V51.4593H73.3293V63.6593C72.396 68.5259 70.396 73.0259 67.3293 77.1593C64.2626 81.2926 60.296 84.6259 55.4293 87.1593C50.6293 89.6259 45.2293 90.8593 39.2293 90.8593C32.496 90.8593 26.396 89.3593 20.9293 86.3593C15.5293 83.2926 11.2626 79.0593 8.1293 73.6593C5.06263 68.2593 3.5293 62.1259 3.5293 55.2593C3.5293 48.3926 5.06263 42.2593 8.1293 36.8593C11.2626 31.3926 15.5293 27.1593 20.9293 24.1593C26.396 21.0926 32.4626 19.5593 39.1293 19.5593C46.996 19.5593 53.8293 21.4926 59.6293 25.3593C65.4293 29.1593 69.4293 34.5259 71.6293 41.4593H55.5293ZM97.6871 31.7593V49.2593H121.187V60.3593H97.6871V78.8593H124.187V90.2593H83.6871V20.3593H124.187V31.7593H97.6871ZM184.41 20.4593V31.7593H165.81V90.2593H151.81V31.7593H133.21V20.4593H184.41ZM232.453 20.4593V90.2593H218.453V20.4593H232.453ZM305.985 90.2593H291.985L260.285 42.3593V90.2593H246.285V20.3593H260.285L291.985 68.3593V20.3593H305.985V90.2593ZM414.976 20.4593V31.7593H396.376V90.2593H382.376V31.7593H363.776V20.4593L414.976 20.4593ZM457.591 90.9593C451.058 90.9593 445.058 89.4259 439.591 86.3593C434.124 83.2926 429.791 79.0593 426.591 73.6593C423.391 68.1926 421.791 62.0259 421.791 55.1593C421.791 48.3593 423.391 42.2593 426.591 36.8593C429.791 31.3926 434.124 27.1259 439.591 24.0593C445.058 20.9926 451.058 19.4593 457.591 19.4593C464.191 19.4593 470.191 20.9926 475.591 24.0593C481.058 27.1259 485.358 31.3926 488.491 36.8593C491.691 42.2593 493.291 48.3593 493.291 55.1593C493.291 62.0259 491.691 68.1926 488.491 73.6593C485.358 79.0593 481.058 83.2926 475.591 86.3593C470.124 89.4259 464.124 90.9593 457.591 90.9593ZM457.591 78.4593C461.791 78.4593 465.491 77.5259 468.691 75.6593C471.891 73.7259 474.391 70.9926 476.191 67.4593C477.991 63.9259 478.891 59.8259 478.891 55.1593C478.891 50.4926 477.991 46.4259 476.191 42.9593C474.391 39.4259 471.891 36.7259 468.691 34.8593C465.491 32.9926 461.791 32.0593 457.591 32.0593C453.391 32.0593 449.658 32.9926 446.391 34.8593C443.191 36.7259 440.691 39.4259 438.891 42.9593C437.091 46.4259 436.191 50.4926 436.191 55.1593C436.191 59.8259 437.091 63.9259 438.891 67.4593C440.691 70.9926 443.191 73.7259 446.391 75.6593C449.658 77.5259 453.391 78.4593 457.591 78.4593ZM517.507 20.4593V63.6593C517.507 68.3926 518.74 72.0259 521.207 74.5593C523.673 77.0259 527.14 78.2593 531.607 78.2593C536.14 78.2593 539.64 77.0259 542.107 74.5593C544.573 72.0259 545.807 68.3926 545.807 63.6593V20.4593H559.907V63.5593C559.907 69.4926 558.607 74.5259 556.007 78.6593C553.473 82.7259 550.04 85.7926 545.707 87.8593C541.44 89.9259 536.673 90.9593 531.407 90.9593C526.207 90.9593 521.473 89.9259 517.207 87.8593C513.007 85.7926 509.673 82.7259 507.207 78.6593C504.74 74.5259 503.507 69.4926 503.507 63.5593V20.4593H517.507ZM570.033 55.2593C570.033 48.3926 571.567 42.2593 574.633 36.8593C577.767 31.3926 582 27.1593 587.333 24.1593C592.733 21.0926 598.767 19.5593 605.433 19.5593C613.233 19.5593 620.067 21.5593 625.933 25.5593C631.8 29.5593 635.9 35.0926 638.233 42.1593H622.133C620.533 38.8259 618.267 36.3259 615.333 34.6593C612.467 32.9926 609.133 32.1593 605.333 32.1593C601.267 32.1593 597.633 33.1259 594.433 35.0593C591.3 36.9259 588.833 39.5926 587.033 43.0593C585.3 46.5259 584.433 50.5926 584.433 55.2593C584.433 59.8593 585.3 63.9259 587.033 67.4593C588.833 70.9259 591.3 73.6259 594.433 75.5593C597.633 77.4259 601.267 78.3593 605.333 78.3593C609.133 78.3593 612.467 77.5259 615.333 75.8593C618.267 74.1259 620.533 71.5926 622.133 68.2593H638.233C635.9 75.3926 631.8 80.9593 625.933 84.9593C620.133 88.8926 613.3 90.8593 605.433 90.8593C598.767 90.8593 592.733 89.3593 587.333 86.3593C582 83.2926 577.767 79.0593 574.633 73.6593C571.567 68.2593 570.033 62.1259 570.033 55.2593ZM708.091 20.4593V90.2593H694.091V60.5593H664.191V90.2593H650.191V20.4593H664.191V49.1593H694.091V20.4593H708.091Z" fill="#FFBD5A"/>
</g>
<path d="M790.47 57.7873C790.189 58.2156 789.978 58.6013 790.002 58.7757C790.005 58.7966 790.013 58.815 790.023 58.8327L790.023 58.8343C790.034 58.856 790.046 58.8737 790.068 58.8906C790.1 58.9203 790.144 58.9444 790.199 58.9645C790.31 58.9983 791.115 58.9693 791.353 58.95C791.995 58.8962 792.635 58.8504 793.283 58.8134C793.467 58.803 793.65 58.7966 793.839 58.7869C794.675 58.7451 795.508 58.7122 796.332 58.6929C796.991 58.676 797.641 58.6656 798.282 58.6591C798.46 58.6575 798.632 58.6567 798.806 58.6559C799.399 58.6527 799.987 58.6511 800.547 58.6567C800.356 63.5698 800.122 68.7785 799.924 73.7381C799.896 74.5039 799.862 75.2633 799.835 76.0138C799.774 77.6129 799.774 77.6129 799.774 77.6129C799.771 77.7262 799.765 77.8459 799.761 77.9649C799.743 78.6849 799.743 79.4788 799.897 79.6942C799.901 79.7046 799.908 79.7134 799.916 79.7215C799.943 79.748 799.974 79.76 800.008 79.7592C800.01 79.7592 800.013 79.7576 800.016 79.7576C800.046 79.756 800.08 79.7448 800.115 79.7247C800.127 79.7183 800.139 79.7078 800.151 79.699C800.178 79.6805 800.206 79.6596 800.235 79.6331C800.251 79.6194 800.266 79.6025 800.282 79.5873C800.31 79.5592 800.338 79.5294 800.367 79.4957C800.384 79.4756 800.401 79.4547 800.419 79.433C800.447 79.3984 800.475 79.3623 800.503 79.3245C800.521 79.2996 800.541 79.2739 800.56 79.2482C800.588 79.2096 800.616 79.1686 800.644 79.1284C800.663 79.1003 800.683 79.073 800.702 79.0449C800.731 79.0023 800.759 78.9589 800.787 78.9147C800.805 78.8866 800.824 78.8584 800.842 78.8303C800.886 78.7628 800.929 78.6953 800.971 78.6294C800.971 78.6294 800.971 78.6294 801.68 77.5406C806.144 70.6926 811.955 62.3435 817.115 55.1371C818.648 52.9932 818.911 52.6316 818.911 52.6316C818.943 52.5938 818.972 52.552 819.003 52.5135C819.668 51.6127 820.509 50.6428 820.848 49.9645C820.945 49.7669 821.009 49.5893 820.999 49.4487C820.994 49.382 820.96 49.3305 820.905 49.2887C820.887 49.2735 820.854 49.267 820.83 49.255C820.785 49.2325 820.744 49.2084 820.686 49.1939C820.646 49.1835 820.598 49.1803 820.554 49.173C820.5 49.1642 820.448 49.1537 820.387 49.1489C820.333 49.1449 820.275 49.1449 820.218 49.1433C820.16 49.1417 820.101 49.1377 820.042 49.1377C819.834 49.1401 819.635 49.1505 819.501 49.1553C819.501 49.1553 819.501 49.1553 818.488 49.1995C815.544 49.3265 812.527 49.488 809.656 49.6849C809.873 44.6176 810.147 38.8054 810.374 33.7927C810.433 32.401 810.433 32.401 810.433 32.401C810.434 32.3624 810.436 32.3174 810.438 32.2764C810.462 31.7444 810.483 31.0285 810.319 30.8195C810.291 30.7882 810.261 30.7641 810.225 30.7601C810.204 30.7569 810.177 30.7641 810.152 30.7697C810.135 30.7729 810.117 30.7745 810.098 30.7826C810.076 30.7914 810.051 30.8051 810.028 30.8187C810.008 30.83 809.988 30.8396 809.966 30.8541C809.942 30.871 809.915 30.8935 809.888 30.9144C809.865 30.9328 809.842 30.9489 809.818 30.9706C809.791 30.9947 809.762 31.0244 809.733 31.0526C809.708 31.0767 809.684 31.0992 809.659 31.1257C809.627 31.1586 809.594 31.1956 809.561 31.231C809.537 31.2583 809.512 31.2824 809.487 31.3113C809.451 31.3531 809.413 31.3981 809.376 31.4431C809.353 31.4704 809.33 31.4961 809.308 31.5243C809.258 31.5837 809.209 31.6464 809.159 31.7091C809.147 31.7244 809.135 31.7388 809.123 31.7541C809.06 31.8344 808.997 31.9164 808.933 32C808.764 32.2218 808.592 32.4524 808.429 32.6677C808.429 32.6677 808.429 32.6677 807.24 34.2853C807.124 34.4476 806.996 34.6212 806.87 34.7884C803.537 39.343 797.261 48.183 797.261 48.183C796.959 48.6049 796.674 49.0059 796.398 49.3868C796.178 49.6978 795.962 50.0079 795.74 50.3189C795.547 50.5937 792.924 54.299 792.355 55.1074C791.371 56.5072 791.371 56.5072 791.371 56.5072C791.121 56.8608 790.758 57.3477 790.47 57.7873Z" fill="#FFBD5A"/>
<g filter="url(#filter1_dd_668_23010)">
<path d="M951.529 41.4593C949.929 38.5259 947.729 36.2926 944.929 34.7593C942.129 33.2259 938.863 32.4593 935.129 32.4593C930.996 32.4593 927.329 33.3926 924.129 35.2593C920.929 37.1259 918.429 39.7926 916.629 43.2593C914.829 46.7259 913.929 50.7259 913.929 55.2593C913.929 59.9259 914.829 63.9926 916.629 67.4593C918.496 70.9259 921.063 73.5926 924.329 75.4593C927.596 77.3259 931.396 78.2593 935.729 78.2593C941.063 78.2593 945.429 76.8593 948.829 74.0593C952.229 71.1926 954.463 67.2259 955.529 62.1593H931.529V51.4593H969.329V63.6593C968.396 68.5259 966.396 73.0259 963.329 77.1593C960.263 81.2926 956.296 84.6259 951.429 87.1593C946.629 89.6259 941.229 90.8593 935.229 90.8593C928.496 90.8593 922.396 89.3593 916.929 86.3593C911.529 83.2926 907.263 79.0593 904.129 73.6593C901.063 68.2593 899.529 62.1259 899.529 55.2593C899.529 48.3926 901.063 42.2593 904.129 36.8593C907.263 31.3926 911.529 27.1593 916.929 24.1593C922.396 21.0926 928.463 19.5593 935.129 19.5593C942.996 19.5593 949.829 21.4926 955.629 25.3593C961.429 29.1593 965.429 34.5259 967.629 41.4593H951.529ZM993.687 31.7593V49.2593H1017.19V60.3593H993.687V78.8593H1020.19V90.2593H979.687V20.3593H1020.19V31.7593H993.687ZM1080.41 20.4593V31.7593H1061.81V90.2593H1047.81V31.7593H1029.21V20.4593H1080.41ZM1128.45 20.4593V90.2593H1114.45V20.4593H1128.45ZM1201.98 90.2593H1187.98L1156.28 42.3593V90.2593H1142.28V20.3593H1156.28L1187.98 68.3593V20.3593H1201.98V90.2593ZM1310.98 20.4593V31.7593H1292.38V90.2593H1278.38V31.7593H1259.78V20.4593L1310.98 20.4593ZM1353.59 90.9593C1347.06 90.9593 1341.06 89.4259 1335.59 86.3593C1330.12 83.2926 1325.79 79.0593 1322.59 73.6593C1319.39 68.1926 1317.79 62.0259 1317.79 55.1593C1317.79 48.3593 1319.39 42.2593 1322.59 36.8593C1325.79 31.3926 1330.12 27.1259 1335.59 24.0593C1341.06 20.9926 1347.06 19.4593 1353.59 19.4593C1360.19 19.4593 1366.19 20.9926 1371.59 24.0593C1377.06 27.1259 1381.36 31.3926 1384.49 36.8593C1387.69 42.2593 1389.29 48.3593 1389.29 55.1593C1389.29 62.0259 1387.69 68.1926 1384.49 73.6593C1381.36 79.0593 1377.06 83.2926 1371.59 86.3593C1366.12 89.4259 1360.12 90.9593 1353.59 90.9593ZM1353.59 78.4593C1357.79 78.4593 1361.49 77.5259 1364.69 75.6593C1367.89 73.7259 1370.39 70.9926 1372.19 67.4593C1373.99 63.9259 1374.89 59.8259 1374.89 55.1593C1374.89 50.4926 1373.99 46.4259 1372.19 42.9593C1370.39 39.4259 1367.89 36.7259 1364.69 34.8593C1361.49 32.9926 1357.79 32.0593 1353.59 32.0593C1349.39 32.0593 1345.66 32.9926 1342.39 34.8593C1339.19 36.7259 1336.69 39.4259 1334.89 42.9593C1333.09 46.4259 1332.19 50.4926 1332.19 55.1593C1332.19 59.8259 1333.09 63.9259 1334.89 67.4593C1336.69 70.9926 1339.19 73.7259 1342.39 75.6593C1345.66 77.5259 1349.39 78.4593 1353.59 78.4593ZM1413.51 20.4593V63.6593C1413.51 68.3926 1414.74 72.0259 1417.21 74.5593C1419.67 77.0259 1423.14 78.2593 1427.61 78.2593C1432.14 78.2593 1435.64 77.0259 1438.11 74.5593C1440.57 72.0259 1441.81 68.3926 1441.81 63.6593V20.4593H1455.91V63.5593C1455.91 69.4926 1454.61 74.5259 1452.01 78.6593C1449.47 82.7259 1446.04 85.7926 1441.71 87.8593C1437.44 89.9259 1432.67 90.9593 1427.41 90.9593C1422.21 90.9593 1417.47 89.9259 1413.21 87.8593C1409.01 85.7926 1405.67 82.7259 1403.21 78.6593C1400.74 74.5259 1399.51 69.4926 1399.51 63.5593V20.4593H1413.51ZM1466.03 55.2593C1466.03 48.3926 1467.57 42.2593 1470.63 36.8593C1473.77 31.3926 1478 27.1593 1483.33 24.1593C1488.73 21.0926 1494.77 19.5593 1501.43 19.5593C1509.23 19.5593 1516.07 21.5593 1521.93 25.5593C1527.8 29.5593 1531.9 35.0926 1534.23 42.1593H1518.13C1516.53 38.8259 1514.27 36.3259 1511.33 34.6593C1508.47 32.9926 1505.13 32.1593 1501.33 32.1593C1497.27 32.1593 1493.63 33.1259 1490.43 35.0593C1487.3 36.9259 1484.83 39.5926 1483.03 43.0593C1481.3 46.5259 1480.43 50.5926 1480.43 55.2593C1480.43 59.8593 1481.3 63.9259 1483.03 67.4593C1484.83 70.9259 1487.3 73.6259 1490.43 75.5593C1493.63 77.4259 1497.27 78.3593 1501.33 78.3593C1505.13 78.3593 1508.47 77.5259 1511.33 75.8593C1514.27 74.1259 1516.53 71.5926 1518.13 68.2593H1534.23C1531.9 75.3926 1527.8 80.9593 1521.93 84.9593C1516.13 88.8926 1509.3 90.8593 1501.43 90.8593C1494.77 90.8593 1488.73 89.3593 1483.33 86.3593C1478 83.2926 1473.77 79.0593 1470.63 73.6593C1467.57 68.2593 1466.03 62.1259 1466.03 55.2593ZM1604.09 20.4593V90.2593H1590.09V60.5593H1560.19V90.2593H1546.19V20.4593H1560.19V49.1593H1590.09V20.4593H1604.09Z" fill="#FFBD5A"/>
</g>
<path d="M1686.47 57.7873C1686.19 58.2156 1685.98 58.6013 1686 58.7757C1686.01 58.7966 1686.01 58.815 1686.02 58.8327L1686.02 58.8343C1686.03 58.856 1686.05 58.8737 1686.07 58.8906C1686.1 58.9203 1686.14 58.9444 1686.2 58.9645C1686.31 58.9983 1687.11 58.9693 1687.35 58.95C1687.99 58.8962 1688.64 58.8504 1689.28 58.8134C1689.47 58.803 1689.65 58.7966 1689.84 58.7869C1690.68 58.7451 1691.51 58.7122 1692.33 58.6929C1692.99 58.676 1693.64 58.6656 1694.28 58.6591C1694.46 58.6575 1694.63 58.6567 1694.81 58.6559C1695.4 58.6527 1695.99 58.6511 1696.55 58.6567C1696.36 63.5698 1696.12 68.7785 1695.92 73.7381C1695.9 74.5039 1695.86 75.2633 1695.84 76.0138C1695.77 77.6129 1695.77 77.6129 1695.77 77.6129C1695.77 77.7262 1695.76 77.8459 1695.76 77.9649C1695.74 78.6849 1695.74 79.4788 1695.9 79.6942C1695.9 79.7046 1695.91 79.7134 1695.92 79.7215C1695.94 79.748 1695.97 79.76 1696.01 79.7592C1696.01 79.7592 1696.01 79.7576 1696.02 79.7576C1696.05 79.756 1696.08 79.7448 1696.12 79.7247C1696.13 79.7183 1696.14 79.7078 1696.15 79.699C1696.18 79.6805 1696.21 79.6596 1696.24 79.6331C1696.25 79.6194 1696.27 79.6025 1696.28 79.5873C1696.31 79.5592 1696.34 79.5294 1696.37 79.4957C1696.38 79.4756 1696.4 79.4547 1696.42 79.433C1696.45 79.3984 1696.47 79.3623 1696.5 79.3245C1696.52 79.2996 1696.54 79.2739 1696.56 79.2482C1696.59 79.2096 1696.62 79.1686 1696.64 79.1284C1696.66 79.1003 1696.68 79.073 1696.7 79.0449C1696.73 79.0023 1696.76 78.9589 1696.79 78.9147C1696.81 78.8866 1696.82 78.8584 1696.84 78.8303C1696.89 78.7628 1696.93 78.6953 1696.97 78.6294C1696.97 78.6294 1696.97 78.6294 1697.68 77.5406C1702.14 70.6926 1707.96 62.3435 1713.12 55.1371C1714.65 52.9932 1714.91 52.6316 1714.91 52.6316C1714.94 52.5938 1714.97 52.552 1715 52.5135C1715.67 51.6127 1716.51 50.6428 1716.85 49.9645C1716.95 49.7669 1717.01 49.5893 1717 49.4487C1716.99 49.382 1716.96 49.3305 1716.91 49.2887C1716.89 49.2735 1716.85 49.267 1716.83 49.255C1716.78 49.2325 1716.74 49.2084 1716.69 49.1939C1716.65 49.1835 1716.6 49.1803 1716.55 49.173C1716.5 49.1642 1716.45 49.1537 1716.39 49.1489C1716.33 49.1449 1716.28 49.1449 1716.22 49.1433C1716.16 49.1417 1716.1 49.1377 1716.04 49.1377C1715.83 49.1401 1715.63 49.1505 1715.5 49.1553C1715.5 49.1553 1715.5 49.1553 1714.49 49.1995C1711.54 49.3265 1708.53 49.488 1705.66 49.6849C1705.87 44.6176 1706.15 38.8054 1706.37 33.7927C1706.43 32.401 1706.43 32.401 1706.43 32.401C1706.43 32.3624 1706.44 32.3174 1706.44 32.2764C1706.46 31.7444 1706.48 31.0285 1706.32 30.8195C1706.29 30.7882 1706.26 30.7641 1706.23 30.7601C1706.2 30.7569 1706.18 30.7641 1706.15 30.7697C1706.13 30.7729 1706.12 30.7745 1706.1 30.7826C1706.08 30.7914 1706.05 30.8051 1706.03 30.8187C1706.01 30.83 1705.99 30.8396 1705.97 30.8541C1705.94 30.871 1705.92 30.8935 1705.89 30.9144C1705.87 30.9328 1705.84 30.9489 1705.82 30.9706C1705.79 30.9947 1705.76 31.0244 1705.73 31.0526C1705.71 31.0767 1705.68 31.0992 1705.66 31.1257C1705.63 31.1586 1705.59 31.1956 1705.56 31.231C1705.54 31.2583 1705.51 31.2824 1705.49 31.3113C1705.45 31.3531 1705.41 31.3981 1705.38 31.4431C1705.35 31.4704 1705.33 31.4961 1705.31 31.5243C1705.26 31.5837 1705.21 31.6464 1705.16 31.7091C1705.15 31.7244 1705.14 31.7388 1705.12 31.7541C1705.06 31.8344 1705 31.9164 1704.93 32C1704.76 32.2218 1704.59 32.4524 1704.43 32.6677C1704.43 32.6677 1704.43 32.6677 1703.24 34.2853C1703.12 34.4476 1703 34.6212 1702.87 34.7884C1699.54 39.343 1693.26 48.183 1693.26 48.183C1692.96 48.6049 1692.67 49.0059 1692.4 49.3868C1692.18 49.6978 1691.96 50.0079 1691.74 50.3189C1691.55 50.5937 1688.92 54.299 1688.36 55.1074C1687.37 56.5072 1687.37 56.5072 1687.37 56.5072C1687.12 56.8608 1686.76 57.3477 1686.47 57.7873Z" fill="#FFBD5A"/>
<g filter="url(#filter2_dd_668_23010)">
<path d="M1847.53 41.4593C1845.93 38.5259 1843.73 36.2926 1840.93 34.7593C1838.13 33.2259 1834.86 32.4593 1831.13 32.4593C1827 32.4593 1823.33 33.3926 1820.13 35.2593C1816.93 37.1259 1814.43 39.7926 1812.63 43.2593C1810.83 46.7259 1809.93 50.7259 1809.93 55.2593C1809.93 59.9259 1810.83 63.9926 1812.63 67.4593C1814.5 70.9259 1817.06 73.5926 1820.33 75.4593C1823.6 77.3259 1827.4 78.2593 1831.73 78.2593C1837.06 78.2593 1841.43 76.8593 1844.83 74.0593C1848.23 71.1926 1850.46 67.2259 1851.53 62.1593H1827.53V51.4593H1865.33V63.6593C1864.4 68.5259 1862.4 73.0259 1859.33 77.1593C1856.26 81.2926 1852.3 84.6259 1847.43 87.1593C1842.63 89.6259 1837.23 90.8593 1831.23 90.8593C1824.5 90.8593 1818.4 89.3593 1812.93 86.3593C1807.53 83.2926 1803.26 79.0593 1800.13 73.6593C1797.06 68.2593 1795.53 62.1259 1795.53 55.2593C1795.53 48.3926 1797.06 42.2593 1800.13 36.8593C1803.26 31.3926 1807.53 27.1593 1812.93 24.1593C1818.4 21.0926 1824.46 19.5593 1831.13 19.5593C1839 19.5593 1845.83 21.4926 1851.63 25.3593C1857.43 29.1593 1861.43 34.5259 1863.63 41.4593H1847.53ZM1889.69 31.7593V49.2593H1913.19V60.3593H1889.69V78.8593H1916.19V90.2593H1875.69V20.3593H1916.19V31.7593H1889.69ZM1976.41 20.4593V31.7593H1957.81V90.2593H1943.81V31.7593H1925.21V20.4593H1976.41ZM2024.45 20.4593V90.2593H2010.45V20.4593H2024.45ZM2097.98 90.2593H2083.98L2052.28 42.3593V90.2593H2038.28V20.3593H2052.28L2083.98 68.3593V20.3593H2097.98V90.2593ZM2206.98 20.4593V31.7593H2188.38V90.2593H2174.38V31.7593H2155.78V20.4593L2206.98 20.4593ZM2249.59 90.9593C2243.06 90.9593 2237.06 89.4259 2231.59 86.3593C2226.12 83.2926 2221.79 79.0593 2218.59 73.6593C2215.39 68.1926 2213.79 62.0259 2213.79 55.1593C2213.79 48.3593 2215.39 42.2593 2218.59 36.8593C2221.79 31.3926 2226.12 27.1259 2231.59 24.0593C2237.06 20.9926 2243.06 19.4593 2249.59 19.4593C2256.19 19.4593 2262.19 20.9926 2267.59 24.0593C2273.06 27.1259 2277.36 31.3926 2280.49 36.8593C2283.69 42.2593 2285.29 48.3593 2285.29 55.1593C2285.29 62.0259 2283.69 68.1926 2280.49 73.6593C2277.36 79.0593 2273.06 83.2926 2267.59 86.3593C2262.12 89.4259 2256.12 90.9593 2249.59 90.9593ZM2249.59 78.4593C2253.79 78.4593 2257.49 77.5259 2260.69 75.6593C2263.89 73.7259 2266.39 70.9926 2268.19 67.4593C2269.99 63.9259 2270.89 59.8259 2270.89 55.1593C2270.89 50.4926 2269.99 46.4259 2268.19 42.9593C2266.39 39.4259 2263.89 36.7259 2260.69 34.8593C2257.49 32.9926 2253.79 32.0593 2249.59 32.0593C2245.39 32.0593 2241.66 32.9926 2238.39 34.8593C2235.19 36.7259 2232.69 39.4259 2230.89 42.9593C2229.09 46.4259 2228.19 50.4926 2228.19 55.1593C2228.19 59.8259 2229.09 63.9259 2230.89 67.4593C2232.69 70.9926 2235.19 73.7259 2238.39 75.6593C2241.66 77.5259 2245.39 78.4593 2249.59 78.4593ZM2309.51 20.4593V63.6593C2309.51 68.3926 2310.74 72.0259 2313.21 74.5593C2315.67 77.0259 2319.14 78.2593 2323.61 78.2593C2328.14 78.2593 2331.64 77.0259 2334.11 74.5593C2336.57 72.0259 2337.81 68.3926 2337.81 63.6593V20.4593H2351.91V63.5593C2351.91 69.4926 2350.61 74.5259 2348.01 78.6593C2345.47 82.7259 2342.04 85.7926 2337.71 87.8593C2333.44 89.9259 2328.67 90.9593 2323.41 90.9593C2318.21 90.9593 2313.47 89.9259 2309.21 87.8593C2305.01 85.7926 2301.67 82.7259 2299.21 78.6593C2296.74 74.5259 2295.51 69.4926 2295.51 63.5593V20.4593H2309.51ZM2362.03 55.2593C2362.03 48.3926 2363.57 42.2593 2366.63 36.8593C2369.77 31.3926 2374 27.1593 2379.33 24.1593C2384.73 21.0926 2390.77 19.5593 2397.43 19.5593C2405.23 19.5593 2412.07 21.5593 2417.93 25.5593C2423.8 29.5593 2427.9 35.0926 2430.23 42.1593H2414.13C2412.53 38.8259 2410.27 36.3259 2407.33 34.6593C2404.47 32.9926 2401.13 32.1593 2397.33 32.1593C2393.27 32.1593 2389.63 33.1259 2386.43 35.0593C2383.3 36.9259 2380.83 39.5926 2379.03 43.0593C2377.3 46.5259 2376.43 50.5926 2376.43 55.2593C2376.43 59.8593 2377.3 63.9259 2379.03 67.4593C2380.83 70.9259 2383.3 73.6259 2386.43 75.5593C2389.63 77.4259 2393.27 78.3593 2397.33 78.3593C2401.13 78.3593 2404.47 77.5259 2407.33 75.8593C2410.27 74.1259 2412.53 71.5926 2414.13 68.2593H2430.23C2427.9 75.3926 2423.8 80.9593 2417.93 84.9593C2412.13 88.8926 2405.3 90.8593 2397.43 90.8593C2390.77 90.8593 2384.73 89.3593 2379.33 86.3593C2374 83.2926 2369.77 79.0593 2366.63 73.6593C2363.57 68.2593 2362.03 62.1259 2362.03 55.2593ZM2500.09 20.4593V90.2593H2486.09V60.5593H2456.19V90.2593H2442.19V20.4593H2456.19V49.1593H2486.09V20.4593H2500.09Z" fill="#FFBD5A"/>
</g>
<path d="M2582.47 57.7873C2582.19 58.2156 2581.98 58.6013 2582 58.7757C2582.01 58.7966 2582.01 58.815 2582.02 58.8327L2582.02 58.8343C2582.03 58.856 2582.05 58.8737 2582.07 58.8906C2582.1 58.9203 2582.14 58.9444 2582.2 58.9645C2582.31 58.9983 2583.11 58.9693 2583.35 58.95C2583.99 58.8962 2584.64 58.8504 2585.28 58.8134C2585.47 58.803 2585.65 58.7966 2585.84 58.7869C2586.68 58.7451 2587.51 58.7122 2588.33 58.6929C2588.99 58.676 2589.64 58.6656 2590.28 58.6591C2590.46 58.6575 2590.63 58.6567 2590.81 58.6559C2591.4 58.6527 2591.99 58.6511 2592.55 58.6567C2592.36 63.5698 2592.12 68.7785 2591.92 73.7381C2591.9 74.5039 2591.86 75.2633 2591.84 76.0138C2591.77 77.6129 2591.77 77.6129 2591.77 77.6129C2591.77 77.7262 2591.76 77.8459 2591.76 77.9649C2591.74 78.6849 2591.74 79.4788 2591.9 79.6942C2591.9 79.7046 2591.91 79.7134 2591.92 79.7215C2591.94 79.748 2591.97 79.76 2592.01 79.7592C2592.01 79.7592 2592.01 79.7576 2592.02 79.7576C2592.05 79.756 2592.08 79.7448 2592.12 79.7247C2592.13 79.7183 2592.14 79.7078 2592.15 79.699C2592.18 79.6805 2592.21 79.6596 2592.24 79.6331C2592.25 79.6194 2592.27 79.6025 2592.28 79.5873C2592.31 79.5592 2592.34 79.5294 2592.37 79.4957C2592.38 79.4756 2592.4 79.4547 2592.42 79.433C2592.45 79.3984 2592.47 79.3623 2592.5 79.3245C2592.52 79.2996 2592.54 79.2739 2592.56 79.2482C2592.59 79.2096 2592.62 79.1686 2592.64 79.1284C2592.66 79.1003 2592.68 79.073 2592.7 79.0449C2592.73 79.0023 2592.76 78.9589 2592.79 78.9147C2592.81 78.8866 2592.82 78.8584 2592.84 78.8303C2592.89 78.7628 2592.93 78.6953 2592.97 78.6294C2592.97 78.6294 2592.97 78.6294 2593.68 77.5406C2598.14 70.6926 2603.96 62.3435 2609.12 55.1371C2610.65 52.9932 2610.91 52.6316 2610.91 52.6316C2610.94 52.5938 2610.97 52.552 2611 52.5135C2611.67 51.6127 2612.51 50.6428 2612.85 49.9645C2612.95 49.7669 2613.01 49.5893 2613 49.4487C2612.99 49.382 2612.96 49.3305 2612.91 49.2887C2612.89 49.2735 2612.85 49.267 2612.83 49.255C2612.78 49.2325 2612.74 49.2084 2612.69 49.1939C2612.65 49.1835 2612.6 49.1803 2612.55 49.173C2612.5 49.1642 2612.45 49.1537 2612.39 49.1489C2612.33 49.1449 2612.28 49.1449 2612.22 49.1433C2612.16 49.1417 2612.1 49.1377 2612.04 49.1377C2611.83 49.1401 2611.63 49.1505 2611.5 49.1553C2611.5 49.1553 2611.5 49.1553 2610.49 49.1995C2607.54 49.3265 2604.53 49.488 2601.66 49.6849C2601.87 44.6176 2602.15 38.8054 2602.37 33.7927C2602.43 32.401 2602.43 32.401 2602.43 32.401C2602.43 32.3624 2602.44 32.3174 2602.44 32.2764C2602.46 31.7444 2602.48 31.0285 2602.32 30.8195C2602.29 30.7882 2602.26 30.7641 2602.23 30.7601C2602.2 30.7569 2602.18 30.7641 2602.15 30.7697C2602.13 30.7729 2602.12 30.7745 2602.1 30.7826C2602.08 30.7914 2602.05 30.8051 2602.03 30.8187C2602.01 30.83 2601.99 30.8396 2601.97 30.8541C2601.94 30.871 2601.92 30.8935 2601.89 30.9144C2601.87 30.9328 2601.84 30.9489 2601.82 30.9706C2601.79 30.9947 2601.76 31.0244 2601.73 31.0526C2601.71 31.0767 2601.68 31.0992 2601.66 31.1257C2601.63 31.1586 2601.59 31.1956 2601.56 31.231C2601.54 31.2583 2601.51 31.2824 2601.49 31.3113C2601.45 31.3531 2601.41 31.3981 2601.38 31.4431C2601.35 31.4704 2601.33 31.4961 2601.31 31.5243C2601.26 31.5837 2601.21 31.6464 2601.16 31.7091C2601.15 31.7244 2601.14 31.7388 2601.12 31.7541C2601.06 31.8344 2601 31.9164 2600.93 32C2600.76 32.2218 2600.59 32.4524 2600.43 32.6677C2600.43 32.6677 2600.43 32.6677 2599.24 34.2853C2599.12 34.4476 2599 34.6212 2598.87 34.7884C2595.54 39.343 2589.26 48.183 2589.26 48.183C2588.96 48.6049 2588.67 49.0059 2588.4 49.3868C2588.18 49.6978 2587.96 50.0079 2587.74 50.3189C2587.55 50.5937 2584.92 54.299 2584.36 55.1074C2583.37 56.5072 2583.37 56.5072 2583.37 56.5072C2583.12 56.8608 2582.76 57.3477 2582.47 57.7873Z" fill="#FFBD5A"/>
<defs>
<filter id="filter0_dd_668_23010" x="1.5293" y="18.4593" width="708.562" height="73.5" filterUnits="userSpaceOnUse" color-interpolation-filters="sRGB">
<feFlood flood-opacity="0" result="BackgroundImageFix"/>
<feColorMatrix in="SourceAlpha" type="matrix" values="0 0 0 0 0 0 0 0 0 0 0 0 0 0 0 0 0 0 127 0" result="hardAlpha"/>
<feOffset dx="2" dy="-1"/>
<feComposite in2="hardAlpha" operator="out"/>
<feColorMatrix type="matrix" values="0 0 0 0 0.952941 0 0 0 0 0.301961 0 0 0 0 0.301961 0 0 0 1 0"/>
<feBlend mode="normal" in2="BackgroundImageFix" result="effect1_dropShadow_668_23010"/>
<feColorMatrix in="SourceAlpha" type="matrix" values="0 0 0 0 0 0 0 0 0 0 0 0 0 0 0 0 0 0 127 0" result="hardAlpha"/>
<feOffset dx="-2" dy="1"/>
<feComposite in2="hardAlpha" operator="out"/>
<feColorMatrix type="matrix" values="0 0 0 0 0.247059 0 0 0 0 0.411765 0 0 0 0 1 0 0 0 1 0"/>
<feBlend mode="normal" in2="effect1_dropShadow_668_23010" result="effect2_dropShadow_668_23010"/>
<feBlend mode="normal" in="SourceGraphic" in2="effect2_dropShadow_668_23010" result="shape"/>
</filter>
<filter id="filter1_dd_668_23010" x="897.529" y="18.4593" width="708.562" height="73.5" filterUnits="userSpaceOnUse" color-interpolation-filters="sRGB">
<feFlood flood-opacity="0" result="BackgroundImageFix"/>
<feColorMatrix in="SourceAlpha" type="matrix" values="0 0 0 0 0 0 0 0 0 0 0 0 0 0 0 0 0 0 127 0" result="hardAlpha"/>
<feOffset dx="2" dy="-1"/>
<feComposite in2="hardAlpha" operator="out"/>
<feColorMatrix type="matrix" values="0 0 0 0 0.952941 0 0 0 0 0.301961 0 0 0 0 0.301961 0 0 0 1 0"/>
<feBlend mode="normal" in2="BackgroundImageFix" result="effect1_dropShadow_668_23010"/>
<feColorMatrix in="SourceAlpha" type="matrix" values="0 0 0 0 0 0 0 0 0 0 0 0 0 0 0 0 0 0 127 0" result="hardAlpha"/>
<feOffset dx="-2" dy="1"/>
<feComposite in2="hardAlpha" operator="out"/>
<feColorMatrix type="matrix" values="0 0 0 0 0.247059 0 0 0 0 0.411765 0 0 0 0 1 0 0 0 1 0"/>
<feBlend mode="normal" in2="effect1_dropShadow_668_23010" result="effect2_dropShadow_668_23010"/>
<feBlend mode="normal" in="SourceGraphic" in2="effect2_dropShadow_668_23010" result="shape"/>
</filter>
<filter id="filter2_dd_668_23010" x="1793.53" y="18.4593" width="708.562" height="73.5" filterUnits="userSpaceOnUse" color-interpolation-filters="sRGB">
<feFlood flood-opacity="0" result="BackgroundImageFix"/>
<feColorMatrix in="SourceAlpha" type="matrix" values="0 0 0 0 0 0 0 0 0 0 0 0 0 0 0 0 0 0 127 0" result="hardAlpha"/>
<feOffset dx="2" dy="-1"/>
<feComposite in2="hardAlpha" operator="out"/>
<feColorMatrix type="matrix" values="0 0 0 0 0.952941 0 0 0 0 0.301961 0 0 0 0 0.301961 0 0 0 1 0"/>
<feBlend mode="normal" in2="BackgroundImageFix" result="effect1_dropShadow_668_23010"/>
<feColorMatrix in="SourceAlpha" type="matrix" values="0 0 0 0 0 0 0 0 0 0 0 0 0 0 0 0 0 0 127 0" result="hardAlpha"/>
<feOffset dx="-2" dy="1"/>
<feComposite in2="hardAlpha" operator="out"/>
<feColorMatrix type="matrix" values="0 0 0 0 0.247059 0 0 0 0 0.411765 0 0 0 0 1 0 0 0 1 0"/>
<feBlend mode="normal" in2="effect1_dropShadow_668_23010" result="effect2_dropShadow_668_23010"/>
<feBlend mode="normal" in="SourceGraphic" in2="effect2_dropShadow_668_23010" result="shape"/>
</filter>
</defs>
</svg>
