<svg width="2768" height="113" viewBox="0 0 2768 113" fill="none" xmlns="http://www.w3.org/2000/svg">
<path d="M47.7348 22.8089V71.8089C47.7348 78.6089 45.7681 83.9089 41.8348 87.7089C37.9014 91.4422 32.6348 93.3089 26.0348 93.3089C19.3681 93.3089 13.9681 91.3756 9.83477 87.5089C5.7681 83.6422 3.73477 78.2422 3.73477 71.3089H17.7348C17.8014 74.3089 18.5014 76.6422 19.8348 78.3089C21.2348 79.9756 23.2348 80.8089 25.8348 80.8089C28.3681 80.8089 30.3014 80.0089 31.6348 78.4089C32.9681 76.8089 33.6348 74.6089 33.6348 71.8089V22.8089H47.7348ZM96.466 93.3089C89.9327 93.3089 83.9327 91.7756 78.466 88.7089C72.9994 85.6422 68.666 81.4089 65.466 76.0089C62.266 70.5422 60.666 64.3756 60.666 57.5089C60.666 50.7089 62.266 44.6089 65.466 39.2089C68.666 33.7422 72.9994 29.4755 78.466 26.4089C83.9327 23.3422 89.9327 21.8089 96.466 21.8089C103.066 21.8089 109.066 23.3422 114.466 26.4089C119.933 29.4755 124.233 33.7422 127.366 39.2089C130.566 44.6089 132.166 50.7089 132.166 57.5089C132.166 64.3756 130.566 70.5422 127.366 76.0089C124.233 81.4089 119.933 85.6422 114.466 88.7089C108.999 91.7756 102.999 93.3089 96.466 93.3089ZM96.466 80.8089C100.666 80.8089 104.366 79.8756 107.566 78.0089C110.766 76.0756 113.266 73.3422 115.066 69.8089C116.866 66.2756 117.766 62.1756 117.766 57.5089C117.766 52.8422 116.866 48.7756 115.066 45.3089C113.266 41.7756 110.766 39.0756 107.566 37.2089C104.366 35.3422 100.666 34.4089 96.466 34.4089C92.266 34.4089 88.5327 35.3422 85.266 37.2089C82.066 39.0756 79.566 41.7756 77.766 45.3089C75.966 48.7756 75.066 52.8422 75.066 57.5089C75.066 62.1756 75.966 66.2756 77.766 69.8089C79.566 73.3422 82.066 76.0756 85.266 78.0089C88.5327 79.8756 92.266 80.8089 96.466 80.8089ZM156.582 22.8089V92.6089H142.582V22.8089H156.582ZM230.114 92.6089H216.114L184.414 44.7089V92.6089H170.414V22.7089H184.414L216.114 70.7089V22.7089H230.114V92.6089ZM281.577 22.8089V66.0089C281.577 70.7422 282.81 74.3756 285.277 76.9089C287.744 79.3756 291.21 80.6089 295.677 80.6089C300.21 80.6089 303.71 79.3756 306.177 76.9089C308.644 74.3756 309.877 70.7422 309.877 66.0089V22.8089H323.977V65.9089C323.977 71.8422 322.677 76.8756 320.077 81.0089C317.544 85.0756 314.11 88.1422 309.777 90.2089C305.51 92.2756 300.744 93.3089 295.477 93.3089C290.277 93.3089 285.544 92.2756 281.277 90.2089C277.077 88.1422 273.744 85.0756 271.277 81.0089C268.81 76.8756 267.577 71.8422 267.577 65.9089V22.8089H281.577ZM361.604 93.3089C356.737 93.3089 352.337 92.4756 348.404 90.8089C344.537 89.1422 341.47 86.7422 339.204 83.6089C336.937 80.4756 335.77 76.7756 335.704 72.5089H350.704C350.904 75.3756 351.904 77.6422 353.704 79.3089C355.57 80.9756 358.104 81.8089 361.304 81.8089C364.57 81.8089 367.137 81.0422 369.004 79.5089C370.87 77.9089 371.804 75.8422 371.804 73.3089C371.804 71.2422 371.17 69.5422 369.904 68.2089C368.637 66.8756 367.037 65.8422 365.104 65.1089C363.237 64.3089 360.637 63.4422 357.304 62.5089C352.77 61.1756 349.07 59.8756 346.204 58.6089C343.404 57.2756 340.97 55.3089 338.904 52.7089C336.904 50.0422 335.904 46.5089 335.904 42.1089C335.904 37.9756 336.937 34.3756 339.004 31.3089C341.07 28.2422 343.97 25.9089 347.704 24.3089C351.437 22.6422 355.704 21.8089 360.504 21.8089C367.704 21.8089 373.537 23.5756 378.004 27.1089C382.537 30.5755 385.037 35.4422 385.504 41.7089H370.104C369.97 39.3089 368.937 37.3422 367.004 35.8089C365.137 34.2089 362.637 33.4089 359.504 33.4089C356.77 33.4089 354.57 34.1089 352.904 35.5089C351.304 36.9089 350.504 38.9422 350.504 41.6089C350.504 43.4756 351.104 45.0422 352.304 46.3089C353.57 47.5089 355.104 48.5089 356.904 49.3089C358.77 50.0422 361.37 50.9089 364.704 51.9089C369.237 53.2422 372.937 54.5756 375.804 55.9089C378.67 57.2422 381.137 59.2422 383.204 61.9089C385.27 64.5756 386.304 68.0756 386.304 72.4089C386.304 76.1422 385.337 79.6089 383.404 82.8089C381.47 86.0089 378.637 88.5756 374.904 90.5089C371.17 92.3756 366.737 93.3089 361.604 93.3089ZM436.269 22.8089V92.6089H422.269V22.8089H436.269ZM509.801 92.6089H495.801L464.101 44.7089V92.6089H450.101V22.7089H464.101L495.801 70.7089V22.7089H509.801V92.6089ZM561.464 34.1089V51.6089H584.964V62.7089H561.464V81.2089H587.964V92.6089H547.464V22.7089H587.964V34.1089H561.464ZM614.687 81.5089H637.687V92.6089H600.687V22.8089H614.687V81.5089ZM694.514 93.3089C689.647 93.3089 685.247 92.4756 681.314 90.8089C677.447 89.1422 674.38 86.7422 672.114 83.6089C669.847 80.4756 668.68 76.7756 668.614 72.5089H683.614C683.814 75.3756 684.814 77.6422 686.614 79.3089C688.48 80.9756 691.014 81.8089 694.214 81.8089C697.48 81.8089 700.047 81.0422 701.914 79.5089C703.78 77.9089 704.714 75.8422 704.714 73.3089C704.714 71.2422 704.08 69.5422 702.814 68.2089C701.547 66.8756 699.947 65.8422 698.014 65.1089C696.147 64.3089 693.547 63.4422 690.214 62.5089C685.68 61.1756 681.98 59.8756 679.114 58.6089C676.314 57.2756 673.88 55.3089 671.814 52.7089C669.814 50.0422 668.814 46.5089 668.814 42.1089C668.814 37.9756 669.847 34.3756 671.914 31.3089C673.98 28.2422 676.88 25.9089 680.614 24.3089C684.347 22.6422 688.614 21.8089 693.414 21.8089C700.614 21.8089 706.447 23.5756 710.914 27.1089C715.447 30.5755 717.947 35.4422 718.414 41.7089H703.014C702.88 39.3089 701.847 37.3422 699.914 35.8089C698.047 34.2089 695.547 33.4089 692.414 33.4089C689.68 33.4089 687.48 34.1089 685.814 35.5089C684.214 36.9089 683.414 38.9422 683.414 41.6089C683.414 43.4756 684.014 45.0422 685.214 46.3089C686.48 47.5089 688.014 48.5089 689.814 49.3089C691.68 50.0422 694.28 50.9089 697.614 51.9089C702.147 53.2422 705.847 54.5756 708.714 55.9089C711.58 57.2422 714.047 59.2422 716.114 61.9089C718.18 64.5756 719.214 68.0756 719.214 72.4089C719.214 76.1422 718.247 79.6089 716.314 82.8089C714.38 86.0089 711.547 88.5756 707.814 90.5089C704.08 92.3756 699.647 93.3089 694.514 93.3089ZM774.151 79.3089H746.351L741.751 92.6089H727.051L752.151 22.7089H768.451L793.551 92.6089H778.751L774.151 79.3089ZM770.351 68.1089L760.251 38.9089L750.151 68.1089H770.351ZM816.933 81.5089H839.933V92.6089H802.933V22.8089H816.933V81.5089ZM911.532 22.8089L885.932 92.6089H868.932L843.332 22.8089H858.332L877.532 78.3089L896.632 22.8089H911.532ZM962.725 79.3089H934.925L930.325 92.6089H915.625L940.725 22.7089H957.025L982.125 92.6089H967.325L962.725 79.3089ZM958.925 68.1089L948.825 38.9089L938.725 68.1089H958.925ZM1015.91 22.8089C1023.24 22.8089 1029.67 24.2422 1035.21 27.1089C1040.81 29.9755 1045.11 34.0755 1048.11 39.4089C1051.17 44.6756 1052.71 50.8089 1052.71 57.8089C1052.71 64.8089 1051.17 70.9422 1048.11 76.2089C1045.11 81.4089 1040.81 85.4422 1035.21 88.3089C1029.67 91.1756 1023.24 92.6089 1015.91 92.6089H991.507V22.8089H1015.91ZM1015.41 80.7089C1022.74 80.7089 1028.41 78.7089 1032.41 74.7089C1036.41 70.7089 1038.41 65.0756 1038.41 57.8089C1038.41 50.5422 1036.41 44.8756 1032.41 40.8089C1028.41 36.6756 1022.74 34.6089 1015.41 34.6089H1005.51V80.7089H1015.41ZM1095.59 93.3089C1089.05 93.3089 1083.05 91.7756 1077.59 88.7089C1072.12 85.6422 1067.79 81.4089 1064.59 76.0089C1061.39 70.5422 1059.79 64.3756 1059.79 57.5089C1059.79 50.7089 1061.39 44.6089 1064.59 39.2089C1067.79 33.7422 1072.12 29.4755 1077.59 26.4089C1083.05 23.3422 1089.05 21.8089 1095.59 21.8089C1102.19 21.8089 1108.19 23.3422 1113.59 26.4089C1119.05 29.4755 1123.35 33.7422 1126.49 39.2089C1129.69 44.6089 1131.29 50.7089 1131.29 57.5089C1131.29 64.3756 1129.69 70.5422 1126.49 76.0089C1123.35 81.4089 1119.05 85.6422 1113.59 88.7089C1108.12 91.7756 1102.12 93.3089 1095.59 93.3089ZM1095.59 80.8089C1099.79 80.8089 1103.49 79.8756 1106.69 78.0089C1109.89 76.0756 1112.39 73.3422 1114.19 69.8089C1115.99 66.2756 1116.89 62.1756 1116.89 57.5089C1116.89 52.8422 1115.99 48.7756 1114.19 45.3089C1112.39 41.7756 1109.89 39.0756 1106.69 37.2089C1103.49 35.3422 1099.79 34.4089 1095.59 34.4089C1091.39 34.4089 1087.65 35.3422 1084.39 37.2089C1081.19 39.0756 1078.69 41.7756 1076.89 45.3089C1075.09 48.7756 1074.19 52.8422 1074.19 57.5089C1074.19 62.1756 1075.09 66.2756 1076.89 69.8089C1078.69 73.3422 1081.19 76.0756 1084.39 78.0089C1087.65 79.8756 1091.39 80.8089 1095.59 80.8089ZM1177.7 92.6089L1162.3 65.4089H1155.7V92.6089H1141.7V22.8089L1167.9 22.8089C1173.3 22.8089 1177.9 23.7756 1181.7 25.7089C1185.5 27.5756 1188.34 30.1422 1190.2 33.4089C1192.14 36.6089 1193.1 40.2089 1193.1 44.2089C1193.1 48.8089 1191.77 52.9756 1189.1 56.7089C1186.44 60.3756 1182.47 62.9089 1177.2 64.3089L1193.9 92.6089H1177.7ZM1155.7 54.9089H1167.4C1171.2 54.9089 1174.04 54.0089 1175.9 52.2089C1177.77 50.3422 1178.7 47.7756 1178.7 44.5089C1178.7 41.3089 1177.77 38.8422 1175.9 37.1089C1174.04 35.3089 1171.2 34.4089 1167.4 34.4089H1155.7V54.9089Z" fill="#3F69FF"/>
<path d="M51.7348 20.8089V69.8089C51.7348 76.6089 49.7681 81.9089 45.8348 85.7089C41.9014 89.4422 36.6348 91.3089 30.0348 91.3089C23.3681 91.3089 17.9681 89.3756 13.8348 85.5089C9.7681 81.6422 7.73477 76.2422 7.73477 69.3089H21.7348C21.8014 72.3089 22.5014 74.6422 23.8348 76.3089C25.2348 77.9756 27.2348 78.8089 29.8348 78.8089C32.3681 78.8089 34.3014 78.0089 35.6348 76.4089C36.9681 74.8089 37.6348 72.6089 37.6348 69.8089V20.8089H51.7348ZM100.466 91.3089C93.9327 91.3089 87.9327 89.7756 82.466 86.7089C76.9994 83.6422 72.666 79.4089 69.466 74.0089C66.266 68.5422 64.666 62.3756 64.666 55.5089C64.666 48.7089 66.266 42.6089 69.466 37.2089C72.666 31.7422 76.9994 27.4755 82.466 24.4089C87.9327 21.3422 93.9327 19.8089 100.466 19.8089C107.066 19.8089 113.066 21.3422 118.466 24.4089C123.933 27.4755 128.233 31.7422 131.366 37.2089C134.566 42.6089 136.166 48.7089 136.166 55.5089C136.166 62.3756 134.566 68.5422 131.366 74.0089C128.233 79.4089 123.933 83.6422 118.466 86.7089C112.999 89.7756 106.999 91.3089 100.466 91.3089ZM100.466 78.8089C104.666 78.8089 108.366 77.8756 111.566 76.0089C114.766 74.0756 117.266 71.3422 119.066 67.8089C120.866 64.2756 121.766 60.1756 121.766 55.5089C121.766 50.8422 120.866 46.7756 119.066 43.3089C117.266 39.7756 114.766 37.0756 111.566 35.2089C108.366 33.3422 104.666 32.4089 100.466 32.4089C96.266 32.4089 92.5327 33.3422 89.266 35.2089C86.066 37.0756 83.566 39.7756 81.766 43.3089C79.966 46.7756 79.066 50.8422 79.066 55.5089C79.066 60.1756 79.966 64.2756 81.766 67.8089C83.566 71.3422 86.066 74.0756 89.266 76.0089C92.5327 77.8756 96.266 78.8089 100.466 78.8089ZM160.582 20.8089V90.6089H146.582V20.8089H160.582ZM234.114 90.6089H220.114L188.414 42.7089V90.6089H174.414V20.7089H188.414L220.114 68.7089V20.7089H234.114V90.6089ZM285.577 20.8089V64.0089C285.577 68.7422 286.81 72.3756 289.277 74.9089C291.744 77.3756 295.21 78.6089 299.677 78.6089C304.21 78.6089 307.71 77.3756 310.177 74.9089C312.644 72.3756 313.877 68.7422 313.877 64.0089V20.8089H327.977V63.9089C327.977 69.8422 326.677 74.8756 324.077 79.0089C321.544 83.0756 318.11 86.1422 313.777 88.2089C309.51 90.2756 304.744 91.3089 299.477 91.3089C294.277 91.3089 289.544 90.2756 285.277 88.2089C281.077 86.1422 277.744 83.0756 275.277 79.0089C272.81 74.8756 271.577 69.8422 271.577 63.9089V20.8089H285.577ZM365.604 91.3089C360.737 91.3089 356.337 90.4756 352.404 88.8089C348.537 87.1422 345.47 84.7422 343.204 81.6089C340.937 78.4756 339.77 74.7756 339.704 70.5089H354.704C354.904 73.3756 355.904 75.6422 357.704 77.3089C359.57 78.9756 362.104 79.8089 365.304 79.8089C368.57 79.8089 371.137 79.0422 373.004 77.5089C374.87 75.9089 375.804 73.8422 375.804 71.3089C375.804 69.2422 375.17 67.5422 373.904 66.2089C372.637 64.8756 371.037 63.8422 369.104 63.1089C367.237 62.3089 364.637 61.4422 361.304 60.5089C356.77 59.1756 353.07 57.8756 350.204 56.6089C347.404 55.2756 344.97 53.3089 342.904 50.7089C340.904 48.0422 339.904 44.5089 339.904 40.1089C339.904 35.9756 340.937 32.3756 343.004 29.3089C345.07 26.2422 347.97 23.9089 351.704 22.3089C355.437 20.6422 359.704 19.8089 364.504 19.8089C371.704 19.8089 377.537 21.5756 382.004 25.1089C386.537 28.5755 389.037 33.4422 389.504 39.7089H374.104C373.97 37.3089 372.937 35.3422 371.004 33.8089C369.137 32.2089 366.637 31.4089 363.504 31.4089C360.77 31.4089 358.57 32.1089 356.904 33.5089C355.304 34.9089 354.504 36.9422 354.504 39.6089C354.504 41.4756 355.104 43.0422 356.304 44.3089C357.57 45.5089 359.104 46.5089 360.904 47.3089C362.77 48.0422 365.37 48.9089 368.704 49.9089C373.237 51.2422 376.937 52.5756 379.804 53.9089C382.67 55.2422 385.137 57.2422 387.204 59.9089C389.27 62.5756 390.304 66.0756 390.304 70.4089C390.304 74.1422 389.337 77.6089 387.404 80.8089C385.47 84.0089 382.637 86.5756 378.904 88.5089C375.17 90.3756 370.737 91.3089 365.604 91.3089ZM440.269 20.8089V90.6089H426.269V20.8089H440.269ZM513.801 90.6089H499.801L468.101 42.7089V90.6089H454.101V20.7089H468.101L499.801 68.7089V20.7089H513.801V90.6089ZM565.464 32.1089V49.6089H588.964V60.7089H565.464V79.2089H591.964V90.6089H551.464V20.7089H591.964V32.1089H565.464ZM618.687 79.5089H641.687V90.6089H604.687V20.8089H618.687V79.5089ZM698.514 91.3089C693.647 91.3089 689.247 90.4756 685.314 88.8089C681.447 87.1422 678.38 84.7422 676.114 81.6089C673.847 78.4756 672.68 74.7756 672.614 70.5089H687.614C687.814 73.3756 688.814 75.6422 690.614 77.3089C692.48 78.9756 695.014 79.8089 698.214 79.8089C701.48 79.8089 704.047 79.0422 705.914 77.5089C707.78 75.9089 708.714 73.8422 708.714 71.3089C708.714 69.2422 708.08 67.5422 706.814 66.2089C705.547 64.8756 703.947 63.8422 702.014 63.1089C700.147 62.3089 697.547 61.4422 694.214 60.5089C689.68 59.1756 685.98 57.8756 683.114 56.6089C680.314 55.2756 677.88 53.3089 675.814 50.7089C673.814 48.0422 672.814 44.5089 672.814 40.1089C672.814 35.9756 673.847 32.3756 675.914 29.3089C677.98 26.2422 680.88 23.9089 684.614 22.3089C688.347 20.6422 692.614 19.8089 697.414 19.8089C704.614 19.8089 710.447 21.5756 714.914 25.1089C719.447 28.5755 721.947 33.4422 722.414 39.7089H707.014C706.88 37.3089 705.847 35.3422 703.914 33.8089C702.047 32.2089 699.547 31.4089 696.414 31.4089C693.68 31.4089 691.48 32.1089 689.814 33.5089C688.214 34.9089 687.414 36.9422 687.414 39.6089C687.414 41.4756 688.014 43.0422 689.214 44.3089C690.48 45.5089 692.014 46.5089 693.814 47.3089C695.68 48.0422 698.28 48.9089 701.614 49.9089C706.147 51.2422 709.847 52.5756 712.714 53.9089C715.58 55.2422 718.047 57.2422 720.114 59.9089C722.18 62.5756 723.214 66.0756 723.214 70.4089C723.214 74.1422 722.247 77.6089 720.314 80.8089C718.38 84.0089 715.547 86.5756 711.814 88.5089C708.08 90.3756 703.647 91.3089 698.514 91.3089ZM778.151 77.3089H750.351L745.751 90.6089H731.051L756.151 20.7089H772.451L797.551 90.6089H782.751L778.151 77.3089ZM774.351 66.1089L764.251 36.9089L754.151 66.1089H774.351ZM820.933 79.5089H843.933V90.6089H806.933V20.8089H820.933V79.5089ZM915.532 20.8089L889.932 90.6089H872.932L847.332 20.8089H862.332L881.532 76.3089L900.632 20.8089H915.532ZM966.725 77.3089H938.925L934.325 90.6089H919.625L944.725 20.7089H961.025L986.125 90.6089H971.325L966.725 77.3089ZM962.925 66.1089L952.825 36.9089L942.725 66.1089H962.925ZM1019.91 20.8089C1027.24 20.8089 1033.67 22.2422 1039.21 25.1089C1044.81 27.9755 1049.11 32.0755 1052.11 37.4089C1055.17 42.6756 1056.71 48.8089 1056.71 55.8089C1056.71 62.8089 1055.17 68.9422 1052.11 74.2089C1049.11 79.4089 1044.81 83.4422 1039.21 86.3089C1033.67 89.1756 1027.24 90.6089 1019.91 90.6089H995.507V20.8089H1019.91ZM1019.41 78.7089C1026.74 78.7089 1032.41 76.7089 1036.41 72.7089C1040.41 68.7089 1042.41 63.0756 1042.41 55.8089C1042.41 48.5422 1040.41 42.8756 1036.41 38.8089C1032.41 34.6756 1026.74 32.6089 1019.41 32.6089H1009.51V78.7089H1019.41ZM1099.59 91.3089C1093.05 91.3089 1087.05 89.7756 1081.59 86.7089C1076.12 83.6422 1071.79 79.4089 1068.59 74.0089C1065.39 68.5422 1063.79 62.3756 1063.79 55.5089C1063.79 48.7089 1065.39 42.6089 1068.59 37.2089C1071.79 31.7422 1076.12 27.4755 1081.59 24.4089C1087.05 21.3422 1093.05 19.8089 1099.59 19.8089C1106.19 19.8089 1112.19 21.3422 1117.59 24.4089C1123.05 27.4755 1127.35 31.7422 1130.49 37.2089C1133.69 42.6089 1135.29 48.7089 1135.29 55.5089C1135.29 62.3756 1133.69 68.5422 1130.49 74.0089C1127.35 79.4089 1123.05 83.6422 1117.59 86.7089C1112.12 89.7756 1106.12 91.3089 1099.59 91.3089ZM1099.59 78.8089C1103.79 78.8089 1107.49 77.8756 1110.69 76.0089C1113.89 74.0756 1116.39 71.3422 1118.19 67.8089C1119.99 64.2756 1120.89 60.1756 1120.89 55.5089C1120.89 50.8422 1119.99 46.7756 1118.19 43.3089C1116.39 39.7756 1113.89 37.0756 1110.69 35.2089C1107.49 33.3422 1103.79 32.4089 1099.59 32.4089C1095.39 32.4089 1091.65 33.3422 1088.39 35.2089C1085.19 37.0756 1082.69 39.7756 1080.89 43.3089C1079.09 46.7756 1078.19 50.8422 1078.19 55.5089C1078.19 60.1756 1079.09 64.2756 1080.89 67.8089C1082.69 71.3422 1085.19 74.0756 1088.39 76.0089C1091.65 77.8756 1095.39 78.8089 1099.59 78.8089ZM1181.7 90.6089L1166.3 63.4089H1159.7V90.6089H1145.7V20.8089L1171.9 20.8089C1177.3 20.8089 1181.9 21.7756 1185.7 23.7089C1189.5 25.5756 1192.34 28.1422 1194.2 31.4089C1196.14 34.6089 1197.1 38.2089 1197.1 42.2089C1197.1 46.8089 1195.77 50.9756 1193.1 54.7089C1190.44 58.3756 1186.47 60.9089 1181.2 62.3089L1197.9 90.6089H1181.7ZM1159.7 52.9089H1171.4C1175.2 52.9089 1178.04 52.0089 1179.9 50.2089C1181.77 48.3422 1182.7 45.7756 1182.7 42.5089C1182.7 39.3089 1181.77 36.8422 1179.9 35.1089C1178.04 33.3089 1175.2 32.4089 1171.4 32.4089H1159.7V52.9089Z" fill="#F34D4D"/>
<path d="M49.8969 21.8089V70.8089C49.8969 77.6089 47.9302 82.9089 43.9969 86.7089C40.0635 90.4422 34.7969 92.3089 28.1969 92.3089C21.5302 92.3089 16.1302 90.3756 11.9969 86.5089C7.93021 82.6422 5.89688 77.2422 5.89688 70.3089H19.8969C19.9635 73.3089 20.6635 75.6422 21.9969 77.3089C23.3969 78.9756 25.3969 79.8089 27.9969 79.8089C30.5302 79.8089 32.4635 79.0089 33.7969 77.4089C35.1302 75.8089 35.7969 73.6089 35.7969 70.8089V21.8089H49.8969ZM98.6281 92.3089C92.0948 92.3089 86.0948 90.7756 80.6281 87.7089C75.1615 84.6422 70.8281 80.4089 67.6281 75.0089C64.4281 69.5422 62.8281 63.3756 62.8281 56.5089C62.8281 49.7089 64.4281 43.6089 67.6281 38.2089C70.8281 32.7422 75.1615 28.4755 80.6281 25.4089C86.0948 22.3422 92.0948 20.8089 98.6281 20.8089C105.228 20.8089 111.228 22.3422 116.628 25.4089C122.095 28.4755 126.395 32.7422 129.528 38.2089C132.728 43.6089 134.328 49.7089 134.328 56.5089C134.328 63.3756 132.728 69.5422 129.528 75.0089C126.395 80.4089 122.095 84.6422 116.628 87.7089C111.161 90.7756 105.161 92.3089 98.6281 92.3089ZM98.6281 79.8089C102.828 79.8089 106.528 78.8756 109.728 77.0089C112.928 75.0756 115.428 72.3422 117.228 68.8089C119.028 65.2756 119.928 61.1756 119.928 56.5089C119.928 51.8422 119.028 47.7756 117.228 44.3089C115.428 40.7756 112.928 38.0756 109.728 36.2089C106.528 34.3422 102.828 33.4089 98.6281 33.4089C94.4281 33.4089 90.6948 34.3422 87.4281 36.2089C84.2281 38.0756 81.7281 40.7756 79.9281 44.3089C78.1281 47.7756 77.2281 51.8422 77.2281 56.5089C77.2281 61.1756 78.1281 65.2756 79.9281 68.8089C81.7281 72.3422 84.2281 75.0756 87.4281 77.0089C90.6948 78.8756 94.4281 79.8089 98.6281 79.8089ZM158.744 21.8089V91.6089H144.744V21.8089H158.744ZM232.276 91.6089H218.276L186.576 43.7089V91.6089H172.576V21.7089H186.576L218.276 69.7089V21.7089H232.276V91.6089ZM283.739 21.8089V65.0089C283.739 69.7422 284.972 73.3756 287.439 75.9089C289.906 78.3756 293.372 79.6089 297.839 79.6089C302.372 79.6089 305.872 78.3756 308.339 75.9089C310.806 73.3756 312.039 69.7422 312.039 65.0089V21.8089H326.139V64.9089C326.139 70.8422 324.839 75.8756 322.239 80.0089C319.706 84.0756 316.272 87.1422 311.939 89.2089C307.672 91.2756 302.906 92.3089 297.639 92.3089C292.439 92.3089 287.706 91.2756 283.439 89.2089C279.239 87.1422 275.906 84.0756 273.439 80.0089C270.972 75.8756 269.739 70.8422 269.739 64.9089V21.8089H283.739ZM363.766 92.3089C358.899 92.3089 354.499 91.4756 350.566 89.8089C346.699 88.1422 343.632 85.7422 341.366 82.6089C339.099 79.4756 337.932 75.7756 337.866 71.5089H352.866C353.066 74.3756 354.066 76.6422 355.866 78.3089C357.732 79.9756 360.266 80.8089 363.466 80.8089C366.732 80.8089 369.299 80.0422 371.166 78.5089C373.032 76.9089 373.966 74.8422 373.966 72.3089C373.966 70.2422 373.332 68.5422 372.066 67.2089C370.799 65.8756 369.199 64.8422 367.266 64.1089C365.399 63.3089 362.799 62.4422 359.466 61.5089C354.932 60.1756 351.232 58.8756 348.366 57.6089C345.566 56.2756 343.132 54.3089 341.066 51.7089C339.066 49.0422 338.066 45.5089 338.066 41.1089C338.066 36.9756 339.099 33.3756 341.166 30.3089C343.232 27.2422 346.132 24.9089 349.866 23.3089C353.599 21.6422 357.866 20.8089 362.666 20.8089C369.866 20.8089 375.699 22.5756 380.166 26.1089C384.699 29.5755 387.199 34.4422 387.666 40.7089H372.266C372.132 38.3089 371.099 36.3422 369.166 34.8089C367.299 33.2089 364.799 32.4089 361.666 32.4089C358.932 32.4089 356.732 33.1089 355.066 34.5089C353.466 35.9089 352.666 37.9422 352.666 40.6089C352.666 42.4756 353.266 44.0422 354.466 45.3089C355.732 46.5089 357.266 47.5089 359.066 48.3089C360.932 49.0422 363.532 49.9089 366.866 50.9089C371.399 52.2422 375.099 53.5756 377.966 54.9089C380.832 56.2422 383.299 58.2422 385.366 60.9089C387.432 63.5756 388.466 67.0756 388.466 71.4089C388.466 75.1422 387.499 78.6089 385.566 81.8089C383.632 85.0089 380.799 87.5756 377.066 89.5089C373.332 91.3756 368.899 92.3089 363.766 92.3089ZM438.431 21.8089V91.6089H424.431V21.8089H438.431ZM511.963 91.6089H497.963L466.263 43.7089V91.6089H452.263V21.7089H466.263L497.963 69.7089V21.7089H511.963V91.6089ZM563.627 33.1089V50.6089H587.127V61.7089H563.627V80.2089H590.127V91.6089H549.627V21.7089H590.127V33.1089H563.627ZM616.849 80.5089H639.849V91.6089H602.849V21.8089H616.849V80.5089ZM696.676 92.3089C691.809 92.3089 687.409 91.4756 683.476 89.8089C679.609 88.1422 676.542 85.7422 674.276 82.6089C672.009 79.4756 670.842 75.7756 670.776 71.5089H685.776C685.976 74.3756 686.976 76.6422 688.776 78.3089C690.642 79.9756 693.176 80.8089 696.376 80.8089C699.642 80.8089 702.209 80.0422 704.076 78.5089C705.942 76.9089 706.876 74.8422 706.876 72.3089C706.876 70.2422 706.242 68.5422 704.976 67.2089C703.709 65.8756 702.109 64.8422 700.176 64.1089C698.309 63.3089 695.709 62.4422 692.376 61.5089C687.842 60.1756 684.142 58.8756 681.276 57.6089C678.476 56.2756 676.042 54.3089 673.976 51.7089C671.976 49.0422 670.976 45.5089 670.976 41.1089C670.976 36.9756 672.009 33.3756 674.076 30.3089C676.142 27.2422 679.042 24.9089 682.776 23.3089C686.509 21.6422 690.776 20.8089 695.576 20.8089C702.776 20.8089 708.609 22.5756 713.076 26.1089C717.609 29.5755 720.109 34.4422 720.576 40.7089H705.176C705.042 38.3089 704.009 36.3422 702.076 34.8089C700.209 33.2089 697.709 32.4089 694.576 32.4089C691.842 32.4089 689.642 33.1089 687.976 34.5089C686.376 35.9089 685.576 37.9422 685.576 40.6089C685.576 42.4756 686.176 44.0422 687.376 45.3089C688.642 46.5089 690.176 47.5089 691.976 48.3089C693.842 49.0422 696.442 49.9089 699.776 50.9089C704.309 52.2422 708.009 53.5756 710.876 54.9089C713.742 56.2422 716.209 58.2422 718.276 60.9089C720.342 63.5756 721.376 67.0756 721.376 71.4089C721.376 75.1422 720.409 78.6089 718.476 81.8089C716.542 85.0089 713.709 87.5756 709.976 89.5089C706.242 91.3756 701.809 92.3089 696.676 92.3089ZM776.313 78.3089H748.513L743.913 91.6089H729.213L754.313 21.7089H770.613L795.713 91.6089H780.913L776.313 78.3089ZM772.513 67.1089L762.413 37.9089L752.313 67.1089H772.513ZM819.095 80.5089H842.095V91.6089H805.095V21.8089H819.095V80.5089ZM913.694 21.8089L888.094 91.6089H871.094L845.494 21.8089H860.494L879.694 77.3089L898.794 21.8089H913.694ZM964.888 78.3089H937.088L932.488 91.6089H917.788L942.888 21.7089H959.188L984.288 91.6089H969.488L964.888 78.3089ZM961.088 67.1089L950.988 37.9089L940.887 67.1089H961.088ZM1018.07 21.8089C1025.4 21.8089 1031.84 23.2422 1037.37 26.1089C1042.97 28.9755 1047.27 33.0755 1050.27 38.4089C1053.34 43.6756 1054.87 49.8089 1054.87 56.8089C1054.87 63.8089 1053.34 69.9422 1050.27 75.2089C1047.27 80.4089 1042.97 84.4422 1037.37 87.3089C1031.84 90.1756 1025.4 91.6089 1018.07 91.6089H993.67V21.8089H1018.07ZM1017.57 79.7089C1024.9 79.7089 1030.57 77.7089 1034.57 73.7089C1038.57 69.7089 1040.57 64.0756 1040.57 56.8089C1040.57 49.5422 1038.57 43.8756 1034.57 39.8089C1030.57 35.6756 1024.9 33.6089 1017.57 33.6089H1007.67V79.7089H1017.57ZM1097.75 92.3089C1091.22 92.3089 1085.22 90.7756 1079.75 87.7089C1074.28 84.6422 1069.95 80.4089 1066.75 75.0089C1063.55 69.5422 1061.95 63.3756 1061.95 56.5089C1061.95 49.7089 1063.55 43.6089 1066.75 38.2089C1069.95 32.7422 1074.28 28.4755 1079.75 25.4089C1085.22 22.3422 1091.22 20.8089 1097.75 20.8089C1104.35 20.8089 1110.35 22.3422 1115.75 25.4089C1121.22 28.4755 1125.52 32.7422 1128.65 38.2089C1131.85 43.6089 1133.45 49.7089 1133.45 56.5089C1133.45 63.3756 1131.85 69.5422 1128.65 75.0089C1125.52 80.4089 1121.22 84.6422 1115.75 87.7089C1110.28 90.7756 1104.28 92.3089 1097.75 92.3089ZM1097.75 79.8089C1101.95 79.8089 1105.65 78.8756 1108.85 77.0089C1112.05 75.0756 1114.55 72.3422 1116.35 68.8089C1118.15 65.2756 1119.05 61.1756 1119.05 56.5089C1119.05 51.8422 1118.15 47.7756 1116.35 44.3089C1114.55 40.7756 1112.05 38.0756 1108.85 36.2089C1105.65 34.3422 1101.95 33.4089 1097.75 33.4089C1093.55 33.4089 1089.82 34.3422 1086.55 36.2089C1083.35 38.0756 1080.85 40.7756 1079.05 44.3089C1077.25 47.7756 1076.35 51.8422 1076.35 56.5089C1076.35 61.1756 1077.25 65.2756 1079.05 68.8089C1080.85 72.3422 1083.35 75.0756 1086.55 77.0089C1089.82 78.8756 1093.55 79.8089 1097.75 79.8089ZM1179.86 91.6089L1164.46 64.4089H1157.86V91.6089H1143.86V21.8089L1170.06 21.8089C1175.46 21.8089 1180.06 22.7756 1183.86 24.7089C1187.66 26.5756 1190.5 29.1422 1192.36 32.4089C1194.3 35.6089 1195.26 39.2089 1195.26 43.2089C1195.26 47.8089 1193.93 51.9756 1191.26 55.7089C1188.6 59.3756 1184.63 61.9089 1179.36 63.3089L1196.06 91.6089H1179.86ZM1157.86 53.9089H1169.56C1173.36 53.9089 1176.2 53.0089 1178.06 51.2089C1179.93 49.3422 1180.86 46.7756 1180.86 43.5089C1180.86 40.3089 1179.93 37.8422 1178.06 36.1089C1176.2 34.3089 1173.36 33.4089 1169.56 33.4089H1157.86V53.9089Z" fill="#EEDB5F"/>
<path d="M1278.47 59.1369C1278.19 59.5652 1277.98 59.9509 1278 60.1253C1278.01 60.1462 1278.01 60.1646 1278.02 60.1823L1278.02 60.1839C1278.03 60.2056 1278.05 60.2233 1278.07 60.2402C1278.1 60.2699 1278.14 60.294 1278.2 60.3141C1278.31 60.3479 1279.11 60.3189 1279.35 60.2997C1279.99 60.2458 1280.64 60.2 1281.28 60.163C1281.47 60.1526 1281.65 60.1462 1281.84 60.1365C1282.68 60.0947 1283.51 60.0618 1284.33 60.0425C1284.99 60.0256 1285.64 60.0152 1286.28 60.0088C1286.46 60.0072 1286.63 60.0063 1286.81 60.0055C1287.4 60.0023 1287.99 60.0007 1288.55 60.0063C1288.36 64.9194 1288.12 70.1281 1287.92 75.0877C1287.9 75.8535 1287.86 76.6129 1287.84 77.3634C1287.77 78.9625 1287.77 78.9625 1287.77 78.9625C1287.77 79.0758 1287.76 79.1956 1287.76 79.3145C1287.74 80.0345 1287.74 80.8284 1287.9 81.0438C1287.9 81.0542 1287.91 81.063 1287.92 81.0711C1287.94 81.0976 1287.97 81.1097 1288.01 81.1089C1288.01 81.1089 1288.01 81.1072 1288.02 81.1072C1288.05 81.1056 1288.08 81.0944 1288.12 81.0743C1288.13 81.0679 1288.14 81.0574 1288.15 81.0486C1288.18 81.0301 1288.21 81.0092 1288.24 80.9827C1288.25 80.969 1288.27 80.9522 1288.28 80.9369C1288.31 80.9088 1288.34 80.879 1288.37 80.8453C1288.38 80.8252 1288.4 80.8043 1288.42 80.7826C1288.45 80.748 1288.47 80.7119 1288.5 80.6741C1288.52 80.6492 1288.54 80.6235 1288.56 80.5978C1288.59 80.5592 1288.62 80.5182 1288.64 80.478C1288.66 80.4499 1288.68 80.4226 1288.7 80.3945C1288.73 80.3519 1288.76 80.3085 1288.79 80.2643C1288.81 80.2362 1288.82 80.208 1288.84 80.1799C1288.89 80.1124 1288.93 80.0449 1288.97 79.979C1288.97 79.979 1288.97 79.979 1289.68 78.8902C1294.14 72.0422 1299.96 63.6931 1305.12 56.4867C1306.65 54.3428 1306.91 53.9812 1306.91 53.9812C1306.94 53.9434 1306.97 53.9016 1307 53.8631C1307.67 52.9623 1308.51 51.9924 1308.85 51.3142C1308.95 51.1165 1309.01 50.9389 1309 50.7983C1308.99 50.7316 1308.96 50.6801 1308.91 50.6384C1308.89 50.6231 1308.85 50.6167 1308.83 50.6046C1308.78 50.5821 1308.74 50.558 1308.69 50.5435C1308.65 50.5331 1308.6 50.5299 1308.55 50.5226C1308.5 50.5138 1308.45 50.5034 1308.39 50.4985C1308.33 50.4945 1308.28 50.4945 1308.22 50.4929C1308.16 50.4913 1308.1 50.4873 1308.04 50.4873C1307.83 50.4897 1307.63 50.5001 1307.5 50.505C1307.5 50.505 1307.5 50.505 1306.49 50.5492C1303.54 50.6761 1300.53 50.8376 1297.66 51.0345C1297.87 45.9672 1298.15 40.155 1298.37 35.1423C1298.43 33.7506 1298.43 33.7506 1298.43 33.7506C1298.43 33.712 1298.44 33.667 1298.44 33.626C1298.46 33.0941 1298.48 32.3781 1298.32 32.1691C1298.29 32.1378 1298.26 32.1137 1298.23 32.1097C1298.2 32.1065 1298.18 32.1137 1298.15 32.1193C1298.13 32.1225 1298.12 32.1241 1298.1 32.1322C1298.08 32.141 1298.05 32.1547 1298.03 32.1683C1298.01 32.1796 1297.99 32.1892 1297.97 32.2037C1297.94 32.2206 1297.92 32.2431 1297.89 32.264C1297.87 32.2824 1297.84 32.2985 1297.82 32.3202C1297.79 32.3443 1297.76 32.3741 1297.73 32.4022C1297.71 32.4263 1297.68 32.4488 1297.66 32.4753C1297.63 32.5082 1297.59 32.5452 1297.56 32.5806C1297.54 32.6079 1297.51 32.632 1297.49 32.6609C1297.45 32.7027 1297.41 32.7477 1297.38 32.7927C1297.35 32.82 1297.33 32.8457 1297.31 32.8739C1297.26 32.9333 1297.21 32.996 1297.16 33.0587C1297.15 33.074 1297.14 33.0884 1297.12 33.1037C1297.06 33.184 1297 33.266 1296.93 33.3496C1296.76 33.5714 1296.59 33.802 1296.43 34.0173C1296.43 34.0173 1296.43 34.0174 1295.24 35.6349C1295.12 35.7973 1295 35.9708 1294.87 36.138C1291.54 40.6926 1285.26 49.5326 1285.26 49.5326C1284.96 49.9545 1284.67 50.3555 1284.4 50.7364C1284.18 51.0474 1283.96 51.3575 1283.74 51.6685C1283.55 51.9433 1280.92 55.6486 1280.36 56.457C1279.37 57.8568 1279.37 57.8568 1279.37 57.8568C1279.12 58.2104 1278.76 58.6973 1278.47 59.1369Z" fill="#EEDB5F"/>
<path d="M1431.73 22.8089V71.8089C1431.73 78.6089 1429.77 83.9089 1425.83 87.7089C1421.9 91.4422 1416.63 93.3089 1410.03 93.3089C1403.37 93.3089 1397.97 91.3756 1393.83 87.5089C1389.77 83.6422 1387.73 78.2422 1387.73 71.3089H1401.73C1401.8 74.3089 1402.5 76.6422 1403.83 78.3089C1405.23 79.9756 1407.23 80.8089 1409.83 80.8089C1412.37 80.8089 1414.3 80.0089 1415.63 78.4089C1416.97 76.8089 1417.63 74.6089 1417.63 71.8089V22.8089H1431.73ZM1480.47 93.3089C1473.93 93.3089 1467.93 91.7756 1462.47 88.7089C1457 85.6422 1452.67 81.4089 1449.47 76.0089C1446.27 70.5422 1444.67 64.3756 1444.67 57.5089C1444.67 50.7089 1446.27 44.6089 1449.47 39.2089C1452.67 33.7422 1457 29.4755 1462.47 26.4089C1467.93 23.3422 1473.93 21.8089 1480.47 21.8089C1487.07 21.8089 1493.07 23.3422 1498.47 26.4089C1503.93 29.4755 1508.23 33.7422 1511.37 39.2089C1514.57 44.6089 1516.17 50.7089 1516.17 57.5089C1516.17 64.3756 1514.57 70.5422 1511.37 76.0089C1508.23 81.4089 1503.93 85.6422 1498.47 88.7089C1493 91.7756 1487 93.3089 1480.47 93.3089ZM1480.47 80.8089C1484.67 80.8089 1488.37 79.8756 1491.57 78.0089C1494.77 76.0756 1497.27 73.3422 1499.07 69.8089C1500.87 66.2756 1501.77 62.1756 1501.77 57.5089C1501.77 52.8422 1500.87 48.7756 1499.07 45.3089C1497.27 41.7756 1494.77 39.0756 1491.57 37.2089C1488.37 35.3422 1484.67 34.4089 1480.47 34.4089C1476.27 34.4089 1472.53 35.3422 1469.27 37.2089C1466.07 39.0756 1463.57 41.7756 1461.77 45.3089C1459.97 48.7756 1459.07 52.8422 1459.07 57.5089C1459.07 62.1756 1459.97 66.2756 1461.77 69.8089C1463.57 73.3422 1466.07 76.0756 1469.27 78.0089C1472.53 79.8756 1476.27 80.8089 1480.47 80.8089ZM1540.58 22.8089V92.6089H1526.58V22.8089H1540.58ZM1614.11 92.6089H1600.11L1568.41 44.7089V92.6089H1554.41V22.7089H1568.41L1600.11 70.7089V22.7089H1614.11V92.6089ZM1665.58 22.8089V66.0089C1665.58 70.7422 1666.81 74.3756 1669.28 76.9089C1671.74 79.3756 1675.21 80.6089 1679.68 80.6089C1684.21 80.6089 1687.71 79.3756 1690.18 76.9089C1692.64 74.3756 1693.88 70.7422 1693.88 66.0089V22.8089H1707.98V65.9089C1707.98 71.8422 1706.68 76.8756 1704.08 81.0089C1701.54 85.0756 1698.11 88.1422 1693.78 90.2089C1689.51 92.2756 1684.74 93.3089 1679.48 93.3089C1674.28 93.3089 1669.54 92.2756 1665.28 90.2089C1661.08 88.1422 1657.74 85.0756 1655.28 81.0089C1652.81 76.8756 1651.58 71.8422 1651.58 65.9089V22.8089H1665.58ZM1745.6 93.3089C1740.74 93.3089 1736.34 92.4756 1732.4 90.8089C1728.54 89.1422 1725.47 86.7422 1723.2 83.6089C1720.94 80.4756 1719.77 76.7756 1719.7 72.5089H1734.7C1734.9 75.3756 1735.9 77.6422 1737.7 79.3089C1739.57 80.9756 1742.1 81.8089 1745.3 81.8089C1748.57 81.8089 1751.14 81.0422 1753 79.5089C1754.87 77.9089 1755.8 75.8422 1755.8 73.3089C1755.8 71.2422 1755.17 69.5422 1753.9 68.2089C1752.64 66.8756 1751.04 65.8422 1749.1 65.1089C1747.24 64.3089 1744.64 63.4422 1741.3 62.5089C1736.77 61.1756 1733.07 59.8756 1730.2 58.6089C1727.4 57.2756 1724.97 55.3089 1722.9 52.7089C1720.9 50.0422 1719.9 46.5089 1719.9 42.1089C1719.9 37.9756 1720.94 34.3756 1723 31.3089C1725.07 28.2422 1727.97 25.9089 1731.7 24.3089C1735.44 22.6422 1739.7 21.8089 1744.5 21.8089C1751.7 21.8089 1757.54 23.5756 1762 27.1089C1766.54 30.5755 1769.04 35.4422 1769.5 41.7089H1754.1C1753.97 39.3089 1752.94 37.3422 1751 35.8089C1749.14 34.2089 1746.64 33.4089 1743.5 33.4089C1740.77 33.4089 1738.57 34.1089 1736.9 35.5089C1735.3 36.9089 1734.5 38.9422 1734.5 41.6089C1734.5 43.4756 1735.1 45.0422 1736.3 46.3089C1737.57 47.5089 1739.1 48.5089 1740.9 49.3089C1742.77 50.0422 1745.37 50.9089 1748.7 51.9089C1753.24 53.2422 1756.94 54.5756 1759.8 55.9089C1762.67 57.2422 1765.14 59.2422 1767.2 61.9089C1769.27 64.5756 1770.3 68.0756 1770.3 72.4089C1770.3 76.1422 1769.34 79.6089 1767.4 82.8089C1765.47 86.0089 1762.64 88.5756 1758.9 90.5089C1755.17 92.3756 1750.74 93.3089 1745.6 93.3089ZM1820.27 22.8089V92.6089H1806.27V22.8089H1820.27ZM1893.8 92.6089H1879.8L1848.1 44.7089V92.6089H1834.1V22.7089H1848.1L1879.8 70.7089V22.7089H1893.8V92.6089ZM1945.46 34.1089V51.6089H1968.96V62.7089H1945.46V81.2089H1971.96V92.6089H1931.46V22.7089H1971.96V34.1089H1945.46ZM1998.69 81.5089H2021.69V92.6089H1984.69V22.8089H1998.69V81.5089ZM2078.51 93.3089C2073.65 93.3089 2069.25 92.4756 2065.31 90.8089C2061.45 89.1422 2058.38 86.7422 2056.11 83.6089C2053.85 80.4756 2052.68 76.7756 2052.61 72.5089H2067.61C2067.81 75.3756 2068.81 77.6422 2070.61 79.3089C2072.48 80.9756 2075.01 81.8089 2078.21 81.8089C2081.48 81.8089 2084.05 81.0422 2085.91 79.5089C2087.78 77.9089 2088.71 75.8422 2088.71 73.3089C2088.71 71.2422 2088.08 69.5422 2086.81 68.2089C2085.55 66.8756 2083.95 65.8422 2082.01 65.1089C2080.15 64.3089 2077.55 63.4422 2074.21 62.5089C2069.68 61.1756 2065.98 59.8756 2063.11 58.6089C2060.31 57.2756 2057.88 55.3089 2055.81 52.7089C2053.81 50.0422 2052.81 46.5089 2052.81 42.1089C2052.81 37.9756 2053.85 34.3756 2055.91 31.3089C2057.98 28.2422 2060.88 25.9089 2064.61 24.3089C2068.35 22.6422 2072.61 21.8089 2077.41 21.8089C2084.61 21.8089 2090.45 23.5756 2094.91 27.1089C2099.45 30.5755 2101.95 35.4422 2102.41 41.7089H2087.01C2086.88 39.3089 2085.85 37.3422 2083.91 35.8089C2082.05 34.2089 2079.55 33.4089 2076.41 33.4089C2073.68 33.4089 2071.48 34.1089 2069.81 35.5089C2068.21 36.9089 2067.41 38.9422 2067.41 41.6089C2067.41 43.4756 2068.01 45.0422 2069.21 46.3089C2070.48 47.5089 2072.01 48.5089 2073.81 49.3089C2075.68 50.0422 2078.28 50.9089 2081.61 51.9089C2086.15 53.2422 2089.85 54.5756 2092.71 55.9089C2095.58 57.2422 2098.05 59.2422 2100.11 61.9089C2102.18 64.5756 2103.21 68.0756 2103.21 72.4089C2103.21 76.1422 2102.25 79.6089 2100.31 82.8089C2098.38 86.0089 2095.55 88.5756 2091.81 90.5089C2088.08 92.3756 2083.65 93.3089 2078.51 93.3089ZM2158.15 79.3089H2130.35L2125.75 92.6089H2111.05L2136.15 22.7089H2152.45L2177.55 92.6089H2162.75L2158.15 79.3089ZM2154.35 68.1089L2144.25 38.9089L2134.15 68.1089H2154.35ZM2200.93 81.5089H2223.93V92.6089H2186.93V22.8089H2200.93V81.5089ZM2295.53 22.8089L2269.93 92.6089H2252.93L2227.33 22.8089H2242.33L2261.53 78.3089L2280.63 22.8089H2295.53ZM2346.73 79.3089H2318.93L2314.33 92.6089H2299.63L2324.73 22.7089H2341.03L2366.13 92.6089H2351.33L2346.73 79.3089ZM2342.93 68.1089L2332.83 38.9089L2322.73 68.1089H2342.93ZM2399.91 22.8089C2407.24 22.8089 2413.67 24.2422 2419.21 27.1089C2424.81 29.9755 2429.11 34.0755 2432.11 39.4089C2435.17 44.6756 2436.71 50.8089 2436.71 57.8089C2436.71 64.8089 2435.17 70.9422 2432.11 76.2089C2429.11 81.4089 2424.81 85.4422 2419.21 88.3089C2413.67 91.1756 2407.24 92.6089 2399.91 92.6089H2375.51V22.8089H2399.91ZM2399.41 80.7089C2406.74 80.7089 2412.41 78.7089 2416.41 74.7089C2420.41 70.7089 2422.41 65.0756 2422.41 57.8089C2422.41 50.5422 2420.41 44.8756 2416.41 40.8089C2412.41 36.6756 2406.74 34.6089 2399.41 34.6089H2389.51V80.7089H2399.41ZM2479.59 93.3089C2473.05 93.3089 2467.05 91.7756 2461.59 88.7089C2456.12 85.6422 2451.79 81.4089 2448.59 76.0089C2445.39 70.5422 2443.79 64.3756 2443.79 57.5089C2443.79 50.7089 2445.39 44.6089 2448.59 39.2089C2451.79 33.7422 2456.12 29.4755 2461.59 26.4089C2467.05 23.3422 2473.05 21.8089 2479.59 21.8089C2486.19 21.8089 2492.19 23.3422 2497.59 26.4089C2503.05 29.4755 2507.35 33.7422 2510.49 39.2089C2513.69 44.6089 2515.29 50.7089 2515.29 57.5089C2515.29 64.3756 2513.69 70.5422 2510.49 76.0089C2507.35 81.4089 2503.05 85.6422 2497.59 88.7089C2492.12 91.7756 2486.12 93.3089 2479.59 93.3089ZM2479.59 80.8089C2483.79 80.8089 2487.49 79.8756 2490.69 78.0089C2493.89 76.0756 2496.39 73.3422 2498.19 69.8089C2499.99 66.2756 2500.89 62.1756 2500.89 57.5089C2500.89 52.8422 2499.99 48.7756 2498.19 45.3089C2496.39 41.7756 2493.89 39.0756 2490.69 37.2089C2487.49 35.3422 2483.79 34.4089 2479.59 34.4089C2475.39 34.4089 2471.65 35.3422 2468.39 37.2089C2465.19 39.0756 2462.69 41.7756 2460.89 45.3089C2459.09 48.7756 2458.19 52.8422 2458.19 57.5089C2458.19 62.1756 2459.09 66.2756 2460.89 69.8089C2462.69 73.3422 2465.19 76.0756 2468.39 78.0089C2471.65 79.8756 2475.39 80.8089 2479.59 80.8089ZM2561.7 92.6089L2546.3 65.4089H2539.7V92.6089H2525.7V22.8089L2551.9 22.8089C2557.3 22.8089 2561.9 23.7756 2565.7 25.7089C2569.5 27.5756 2572.34 30.1422 2574.2 33.4089C2576.14 36.6089 2577.1 40.2089 2577.1 44.2089C2577.1 48.8089 2575.77 52.9756 2573.1 56.7089C2570.44 60.3756 2566.47 62.9089 2561.2 64.3089L2577.9 92.6089H2561.7ZM2539.7 54.9089H2551.4C2555.2 54.9089 2558.04 54.0089 2559.9 52.2089C2561.77 50.3422 2562.7 47.7756 2562.7 44.5089C2562.7 41.3089 2561.77 38.8422 2559.9 37.1089C2558.04 35.3089 2555.2 34.4089 2551.4 34.4089H2539.7V54.9089Z" fill="#3F69FF"/>
<path d="M1435.73 20.8089V69.8089C1435.73 76.6089 1433.77 81.9089 1429.83 85.7089C1425.9 89.4422 1420.63 91.3089 1414.03 91.3089C1407.37 91.3089 1401.97 89.3756 1397.83 85.5089C1393.77 81.6422 1391.73 76.2422 1391.73 69.3089H1405.73C1405.8 72.3089 1406.5 74.6422 1407.83 76.3089C1409.23 77.9756 1411.23 78.8089 1413.83 78.8089C1416.37 78.8089 1418.3 78.0089 1419.63 76.4089C1420.97 74.8089 1421.63 72.6089 1421.63 69.8089V20.8089H1435.73ZM1484.47 91.3089C1477.93 91.3089 1471.93 89.7756 1466.47 86.7089C1461 83.6422 1456.67 79.4089 1453.47 74.0089C1450.27 68.5422 1448.67 62.3756 1448.67 55.5089C1448.67 48.7089 1450.27 42.6089 1453.47 37.2089C1456.67 31.7422 1461 27.4755 1466.47 24.4089C1471.93 21.3422 1477.93 19.8089 1484.47 19.8089C1491.07 19.8089 1497.07 21.3422 1502.47 24.4089C1507.93 27.4755 1512.23 31.7422 1515.37 37.2089C1518.57 42.6089 1520.17 48.7089 1520.17 55.5089C1520.17 62.3756 1518.57 68.5422 1515.37 74.0089C1512.23 79.4089 1507.93 83.6422 1502.47 86.7089C1497 89.7756 1491 91.3089 1484.47 91.3089ZM1484.47 78.8089C1488.67 78.8089 1492.37 77.8756 1495.57 76.0089C1498.77 74.0756 1501.27 71.3422 1503.07 67.8089C1504.87 64.2756 1505.77 60.1756 1505.77 55.5089C1505.77 50.8422 1504.87 46.7756 1503.07 43.3089C1501.27 39.7756 1498.77 37.0756 1495.57 35.2089C1492.37 33.3422 1488.67 32.4089 1484.47 32.4089C1480.27 32.4089 1476.53 33.3422 1473.27 35.2089C1470.07 37.0756 1467.57 39.7756 1465.77 43.3089C1463.97 46.7756 1463.07 50.8422 1463.07 55.5089C1463.07 60.1756 1463.97 64.2756 1465.77 67.8089C1467.57 71.3422 1470.07 74.0756 1473.27 76.0089C1476.53 77.8756 1480.27 78.8089 1484.47 78.8089ZM1544.58 20.8089V90.6089H1530.58V20.8089H1544.58ZM1618.11 90.6089H1604.11L1572.41 42.7089V90.6089H1558.41V20.7089H1572.41L1604.11 68.7089V20.7089H1618.11V90.6089ZM1669.58 20.8089V64.0089C1669.58 68.7422 1670.81 72.3756 1673.28 74.9089C1675.74 77.3756 1679.21 78.6089 1683.68 78.6089C1688.21 78.6089 1691.71 77.3756 1694.18 74.9089C1696.64 72.3756 1697.88 68.7422 1697.88 64.0089V20.8089H1711.98V63.9089C1711.98 69.8422 1710.68 74.8756 1708.08 79.0089C1705.54 83.0756 1702.11 86.1422 1697.78 88.2089C1693.51 90.2756 1688.74 91.3089 1683.48 91.3089C1678.28 91.3089 1673.54 90.2756 1669.28 88.2089C1665.08 86.1422 1661.74 83.0756 1659.28 79.0089C1656.81 74.8756 1655.58 69.8422 1655.58 63.9089V20.8089H1669.58ZM1749.6 91.3089C1744.74 91.3089 1740.34 90.4756 1736.4 88.8089C1732.54 87.1422 1729.47 84.7422 1727.2 81.6089C1724.94 78.4756 1723.77 74.7756 1723.7 70.5089H1738.7C1738.9 73.3756 1739.9 75.6422 1741.7 77.3089C1743.57 78.9756 1746.1 79.8089 1749.3 79.8089C1752.57 79.8089 1755.14 79.0422 1757 77.5089C1758.87 75.9089 1759.8 73.8422 1759.8 71.3089C1759.8 69.2422 1759.17 67.5422 1757.9 66.2089C1756.64 64.8756 1755.04 63.8422 1753.1 63.1089C1751.24 62.3089 1748.64 61.4422 1745.3 60.5089C1740.77 59.1756 1737.07 57.8756 1734.2 56.6089C1731.4 55.2756 1728.97 53.3089 1726.9 50.7089C1724.9 48.0422 1723.9 44.5089 1723.9 40.1089C1723.9 35.9756 1724.94 32.3756 1727 29.3089C1729.07 26.2422 1731.97 23.9089 1735.7 22.3089C1739.44 20.6422 1743.7 19.8089 1748.5 19.8089C1755.7 19.8089 1761.54 21.5756 1766 25.1089C1770.54 28.5755 1773.04 33.4422 1773.5 39.7089H1758.1C1757.97 37.3089 1756.94 35.3422 1755 33.8089C1753.14 32.2089 1750.64 31.4089 1747.5 31.4089C1744.77 31.4089 1742.57 32.1089 1740.9 33.5089C1739.3 34.9089 1738.5 36.9422 1738.5 39.6089C1738.5 41.4756 1739.1 43.0422 1740.3 44.3089C1741.57 45.5089 1743.1 46.5089 1744.9 47.3089C1746.77 48.0422 1749.37 48.9089 1752.7 49.9089C1757.24 51.2422 1760.94 52.5756 1763.8 53.9089C1766.67 55.2422 1769.14 57.2422 1771.2 59.9089C1773.27 62.5756 1774.3 66.0756 1774.3 70.4089C1774.3 74.1422 1773.34 77.6089 1771.4 80.8089C1769.47 84.0089 1766.64 86.5756 1762.9 88.5089C1759.17 90.3756 1754.74 91.3089 1749.6 91.3089ZM1824.27 20.8089V90.6089H1810.27V20.8089H1824.27ZM1897.8 90.6089H1883.8L1852.1 42.7089V90.6089H1838.1V20.7089H1852.1L1883.8 68.7089V20.7089H1897.8V90.6089ZM1949.46 32.1089V49.6089H1972.96V60.7089H1949.46V79.2089H1975.96V90.6089H1935.46V20.7089H1975.96V32.1089H1949.46ZM2002.69 79.5089H2025.69V90.6089H1988.69V20.8089H2002.69V79.5089ZM2082.51 91.3089C2077.65 91.3089 2073.25 90.4756 2069.31 88.8089C2065.45 87.1422 2062.38 84.7422 2060.11 81.6089C2057.85 78.4756 2056.68 74.7756 2056.61 70.5089H2071.61C2071.81 73.3756 2072.81 75.6422 2074.61 77.3089C2076.48 78.9756 2079.01 79.8089 2082.21 79.8089C2085.48 79.8089 2088.05 79.0422 2089.91 77.5089C2091.78 75.9089 2092.71 73.8422 2092.71 71.3089C2092.71 69.2422 2092.08 67.5422 2090.81 66.2089C2089.55 64.8756 2087.95 63.8422 2086.01 63.1089C2084.15 62.3089 2081.55 61.4422 2078.21 60.5089C2073.68 59.1756 2069.98 57.8756 2067.11 56.6089C2064.31 55.2756 2061.88 53.3089 2059.81 50.7089C2057.81 48.0422 2056.81 44.5089 2056.81 40.1089C2056.81 35.9756 2057.85 32.3756 2059.91 29.3089C2061.98 26.2422 2064.88 23.9089 2068.61 22.3089C2072.35 20.6422 2076.61 19.8089 2081.41 19.8089C2088.61 19.8089 2094.45 21.5756 2098.91 25.1089C2103.45 28.5755 2105.95 33.4422 2106.41 39.7089H2091.01C2090.88 37.3089 2089.85 35.3422 2087.91 33.8089C2086.05 32.2089 2083.55 31.4089 2080.41 31.4089C2077.68 31.4089 2075.48 32.1089 2073.81 33.5089C2072.21 34.9089 2071.41 36.9422 2071.41 39.6089C2071.41 41.4756 2072.01 43.0422 2073.21 44.3089C2074.48 45.5089 2076.01 46.5089 2077.81 47.3089C2079.68 48.0422 2082.28 48.9089 2085.61 49.9089C2090.15 51.2422 2093.85 52.5756 2096.71 53.9089C2099.58 55.2422 2102.05 57.2422 2104.11 59.9089C2106.18 62.5756 2107.21 66.0756 2107.21 70.4089C2107.21 74.1422 2106.25 77.6089 2104.31 80.8089C2102.38 84.0089 2099.55 86.5756 2095.81 88.5089C2092.08 90.3756 2087.65 91.3089 2082.51 91.3089ZM2162.15 77.3089H2134.35L2129.75 90.6089H2115.05L2140.15 20.7089H2156.45L2181.55 90.6089H2166.75L2162.15 77.3089ZM2158.35 66.1089L2148.25 36.9089L2138.15 66.1089H2158.35ZM2204.93 79.5089H2227.93V90.6089H2190.93V20.8089H2204.93V79.5089ZM2299.53 20.8089L2273.93 90.6089H2256.93L2231.33 20.8089H2246.33L2265.53 76.3089L2284.63 20.8089H2299.53ZM2350.73 77.3089H2322.93L2318.33 90.6089H2303.63L2328.73 20.7089H2345.03L2370.13 90.6089H2355.33L2350.73 77.3089ZM2346.93 66.1089L2336.83 36.9089L2326.73 66.1089H2346.93ZM2403.91 20.8089C2411.24 20.8089 2417.67 22.2422 2423.21 25.1089C2428.81 27.9755 2433.11 32.0755 2436.11 37.4089C2439.17 42.6756 2440.71 48.8089 2440.71 55.8089C2440.71 62.8089 2439.17 68.9422 2436.11 74.2089C2433.11 79.4089 2428.81 83.4422 2423.21 86.3089C2417.67 89.1756 2411.24 90.6089 2403.91 90.6089H2379.51V20.8089H2403.91ZM2403.41 78.7089C2410.74 78.7089 2416.41 76.7089 2420.41 72.7089C2424.41 68.7089 2426.41 63.0756 2426.41 55.8089C2426.41 48.5422 2424.41 42.8756 2420.41 38.8089C2416.41 34.6756 2410.74 32.6089 2403.41 32.6089H2393.51V78.7089H2403.41ZM2483.59 91.3089C2477.05 91.3089 2471.05 89.7756 2465.59 86.7089C2460.12 83.6422 2455.79 79.4089 2452.59 74.0089C2449.39 68.5422 2447.79 62.3756 2447.79 55.5089C2447.79 48.7089 2449.39 42.6089 2452.59 37.2089C2455.79 31.7422 2460.12 27.4755 2465.59 24.4089C2471.05 21.3422 2477.05 19.8089 2483.59 19.8089C2490.19 19.8089 2496.19 21.3422 2501.59 24.4089C2507.05 27.4755 2511.35 31.7422 2514.49 37.2089C2517.69 42.6089 2519.29 48.7089 2519.29 55.5089C2519.29 62.3756 2517.69 68.5422 2514.49 74.0089C2511.35 79.4089 2507.05 83.6422 2501.59 86.7089C2496.12 89.7756 2490.12 91.3089 2483.59 91.3089ZM2483.59 78.8089C2487.79 78.8089 2491.49 77.8756 2494.69 76.0089C2497.89 74.0756 2500.39 71.3422 2502.19 67.8089C2503.99 64.2756 2504.89 60.1756 2504.89 55.5089C2504.89 50.8422 2503.99 46.7756 2502.19 43.3089C2500.39 39.7756 2497.89 37.0756 2494.69 35.2089C2491.49 33.3422 2487.79 32.4089 2483.59 32.4089C2479.39 32.4089 2475.65 33.3422 2472.39 35.2089C2469.19 37.0756 2466.69 39.7756 2464.89 43.3089C2463.09 46.7756 2462.19 50.8422 2462.19 55.5089C2462.19 60.1756 2463.09 64.2756 2464.89 67.8089C2466.69 71.3422 2469.19 74.0756 2472.39 76.0089C2475.65 77.8756 2479.39 78.8089 2483.59 78.8089ZM2565.7 90.6089L2550.3 63.4089H2543.7V90.6089H2529.7V20.8089L2555.9 20.8089C2561.3 20.8089 2565.9 21.7756 2569.7 23.7089C2573.5 25.5756 2576.34 28.1422 2578.2 31.4089C2580.14 34.6089 2581.1 38.2089 2581.1 42.2089C2581.1 46.8089 2579.77 50.9756 2577.1 54.7089C2574.44 58.3756 2570.47 60.9089 2565.2 62.3089L2581.9 90.6089H2565.7ZM2543.7 52.9089H2555.4C2559.2 52.9089 2562.04 52.0089 2563.9 50.2089C2565.77 48.3422 2566.7 45.7756 2566.7 42.5089C2566.7 39.3089 2565.77 36.8422 2563.9 35.1089C2562.04 33.3089 2559.2 32.4089 2555.4 32.4089H2543.7V52.9089Z" fill="#F34D4D"/>
<path d="M1433.9 21.8089V70.8089C1433.9 77.6089 1431.93 82.9089 1428 86.7089C1424.06 90.4422 1418.8 92.3089 1412.2 92.3089C1405.53 92.3089 1400.13 90.3756 1396 86.5089C1391.93 82.6422 1389.9 77.2422 1389.9 70.3089H1403.9C1403.96 73.3089 1404.66 75.6422 1406 77.3089C1407.4 78.9756 1409.4 79.8089 1412 79.8089C1414.53 79.8089 1416.46 79.0089 1417.8 77.4089C1419.13 75.8089 1419.8 73.6089 1419.8 70.8089V21.8089H1433.9ZM1482.63 92.3089C1476.09 92.3089 1470.09 90.7756 1464.63 87.7089C1459.16 84.6422 1454.83 80.4089 1451.63 75.0089C1448.43 69.5422 1446.83 63.3756 1446.83 56.5089C1446.83 49.7089 1448.43 43.6089 1451.63 38.2089C1454.83 32.7422 1459.16 28.4755 1464.63 25.4089C1470.09 22.3422 1476.09 20.8089 1482.63 20.8089C1489.23 20.8089 1495.23 22.3422 1500.63 25.4089C1506.09 28.4755 1510.39 32.7422 1513.53 38.2089C1516.73 43.6089 1518.33 49.7089 1518.33 56.5089C1518.33 63.3756 1516.73 69.5422 1513.53 75.0089C1510.39 80.4089 1506.09 84.6422 1500.63 87.7089C1495.16 90.7756 1489.16 92.3089 1482.63 92.3089ZM1482.63 79.8089C1486.83 79.8089 1490.53 78.8756 1493.73 77.0089C1496.93 75.0756 1499.43 72.3422 1501.23 68.8089C1503.03 65.2756 1503.93 61.1756 1503.93 56.5089C1503.93 51.8422 1503.03 47.7756 1501.23 44.3089C1499.43 40.7756 1496.93 38.0756 1493.73 36.2089C1490.53 34.3422 1486.83 33.4089 1482.63 33.4089C1478.43 33.4089 1474.69 34.3422 1471.43 36.2089C1468.23 38.0756 1465.73 40.7756 1463.93 44.3089C1462.13 47.7756 1461.23 51.8422 1461.23 56.5089C1461.23 61.1756 1462.13 65.2756 1463.93 68.8089C1465.73 72.3422 1468.23 75.0756 1471.43 77.0089C1474.69 78.8756 1478.43 79.8089 1482.63 79.8089ZM1542.74 21.8089V91.6089H1528.74V21.8089H1542.74ZM1616.28 91.6089H1602.28L1570.58 43.7089V91.6089H1556.58V21.7089H1570.58L1602.28 69.7089V21.7089H1616.28V91.6089ZM1667.74 21.8089V65.0089C1667.74 69.7422 1668.97 73.3756 1671.44 75.9089C1673.91 78.3756 1677.37 79.6089 1681.84 79.6089C1686.37 79.6089 1689.87 78.3756 1692.34 75.9089C1694.81 73.3756 1696.04 69.7422 1696.04 65.0089V21.8089H1710.14V64.9089C1710.14 70.8422 1708.84 75.8756 1706.24 80.0089C1703.71 84.0756 1700.27 87.1422 1695.94 89.2089C1691.67 91.2756 1686.91 92.3089 1681.64 92.3089C1676.44 92.3089 1671.71 91.2756 1667.44 89.2089C1663.24 87.1422 1659.91 84.0756 1657.44 80.0089C1654.97 75.8756 1653.74 70.8422 1653.74 64.9089V21.8089H1667.74ZM1747.77 92.3089C1742.9 92.3089 1738.5 91.4756 1734.57 89.8089C1730.7 88.1422 1727.63 85.7422 1725.37 82.6089C1723.1 79.4756 1721.93 75.7756 1721.87 71.5089H1736.87C1737.07 74.3756 1738.07 76.6422 1739.87 78.3089C1741.73 79.9756 1744.27 80.8089 1747.47 80.8089C1750.73 80.8089 1753.3 80.0422 1755.17 78.5089C1757.03 76.9089 1757.97 74.8422 1757.97 72.3089C1757.97 70.2422 1757.33 68.5422 1756.07 67.2089C1754.8 65.8756 1753.2 64.8422 1751.27 64.1089C1749.4 63.3089 1746.8 62.4422 1743.47 61.5089C1738.93 60.1756 1735.23 58.8756 1732.37 57.6089C1729.57 56.2756 1727.13 54.3089 1725.07 51.7089C1723.07 49.0422 1722.07 45.5089 1722.07 41.1089C1722.07 36.9756 1723.1 33.3756 1725.17 30.3089C1727.23 27.2422 1730.13 24.9089 1733.87 23.3089C1737.6 21.6422 1741.87 20.8089 1746.67 20.8089C1753.87 20.8089 1759.7 22.5756 1764.17 26.1089C1768.7 29.5755 1771.2 34.4422 1771.67 40.7089H1756.27C1756.13 38.3089 1755.1 36.3422 1753.17 34.8089C1751.3 33.2089 1748.8 32.4089 1745.67 32.4089C1742.93 32.4089 1740.73 33.1089 1739.07 34.5089C1737.47 35.9089 1736.67 37.9422 1736.67 40.6089C1736.67 42.4756 1737.27 44.0422 1738.47 45.3089C1739.73 46.5089 1741.27 47.5089 1743.07 48.3089C1744.93 49.0422 1747.53 49.9089 1750.87 50.9089C1755.4 52.2422 1759.1 53.5756 1761.97 54.9089C1764.83 56.2422 1767.3 58.2422 1769.37 60.9089C1771.43 63.5756 1772.47 67.0756 1772.47 71.4089C1772.47 75.1422 1771.5 78.6089 1769.57 81.8089C1767.63 85.0089 1764.8 87.5756 1761.07 89.5089C1757.33 91.3756 1752.9 92.3089 1747.77 92.3089ZM1822.43 21.8089V91.6089H1808.43V21.8089H1822.43ZM1895.96 91.6089H1881.96L1850.26 43.7089V91.6089H1836.26V21.7089H1850.26L1881.96 69.7089V21.7089H1895.96V91.6089ZM1947.63 33.1089V50.6089H1971.13V61.7089H1947.63V80.2089H1974.13V91.6089H1933.63V21.7089H1974.13V33.1089H1947.63ZM2000.85 80.5089H2023.85V91.6089H1986.85V21.8089H2000.85V80.5089ZM2080.68 92.3089C2075.81 92.3089 2071.41 91.4756 2067.48 89.8089C2063.61 88.1422 2060.54 85.7422 2058.28 82.6089C2056.01 79.4756 2054.84 75.7756 2054.78 71.5089H2069.78C2069.98 74.3756 2070.98 76.6422 2072.78 78.3089C2074.64 79.9756 2077.18 80.8089 2080.38 80.8089C2083.64 80.8089 2086.21 80.0422 2088.08 78.5089C2089.94 76.9089 2090.88 74.8422 2090.88 72.3089C2090.88 70.2422 2090.24 68.5422 2088.98 67.2089C2087.71 65.8756 2086.11 64.8422 2084.18 64.1089C2082.31 63.3089 2079.71 62.4422 2076.38 61.5089C2071.84 60.1756 2068.14 58.8756 2065.28 57.6089C2062.48 56.2756 2060.04 54.3089 2057.98 51.7089C2055.98 49.0422 2054.98 45.5089 2054.98 41.1089C2054.98 36.9756 2056.01 33.3756 2058.08 30.3089C2060.14 27.2422 2063.04 24.9089 2066.78 23.3089C2070.51 21.6422 2074.78 20.8089 2079.58 20.8089C2086.78 20.8089 2092.61 22.5756 2097.08 26.1089C2101.61 29.5755 2104.11 34.4422 2104.58 40.7089H2089.18C2089.04 38.3089 2088.01 36.3422 2086.08 34.8089C2084.21 33.2089 2081.71 32.4089 2078.58 32.4089C2075.84 32.4089 2073.64 33.1089 2071.98 34.5089C2070.38 35.9089 2069.58 37.9422 2069.58 40.6089C2069.58 42.4756 2070.18 44.0422 2071.38 45.3089C2072.64 46.5089 2074.18 47.5089 2075.98 48.3089C2077.84 49.0422 2080.44 49.9089 2083.78 50.9089C2088.31 52.2422 2092.01 53.5756 2094.88 54.9089C2097.74 56.2422 2100.21 58.2422 2102.28 60.9089C2104.34 63.5756 2105.38 67.0756 2105.38 71.4089C2105.38 75.1422 2104.41 78.6089 2102.48 81.8089C2100.54 85.0089 2097.71 87.5756 2093.98 89.5089C2090.24 91.3756 2085.81 92.3089 2080.68 92.3089ZM2160.31 78.3089H2132.51L2127.91 91.6089H2113.21L2138.31 21.7089H2154.61L2179.71 91.6089H2164.91L2160.31 78.3089ZM2156.51 67.1089L2146.41 37.9089L2136.31 67.1089H2156.51ZM2203.1 80.5089H2226.1V91.6089H2189.1V21.8089H2203.1V80.5089ZM2297.69 21.8089L2272.09 91.6089H2255.09L2229.49 21.8089H2244.49L2263.69 77.3089L2282.79 21.8089H2297.69ZM2348.89 78.3089H2321.09L2316.49 91.6089H2301.79L2326.89 21.7089H2343.19L2368.29 91.6089H2353.49L2348.89 78.3089ZM2345.09 67.1089L2334.99 37.9089L2324.89 67.1089H2345.09ZM2402.07 21.8089C2409.4 21.8089 2415.84 23.2422 2421.37 26.1089C2426.97 28.9755 2431.27 33.0755 2434.27 38.4089C2437.34 43.6756 2438.87 49.8089 2438.87 56.8089C2438.87 63.8089 2437.34 69.9422 2434.27 75.2089C2431.27 80.4089 2426.97 84.4422 2421.37 87.3089C2415.84 90.1756 2409.4 91.6089 2402.07 91.6089H2377.67V21.8089H2402.07ZM2401.57 79.7089C2408.9 79.7089 2414.57 77.7089 2418.57 73.7089C2422.57 69.7089 2424.57 64.0756 2424.57 56.8089C2424.57 49.5422 2422.57 43.8756 2418.57 39.8089C2414.57 35.6756 2408.9 33.6089 2401.57 33.6089H2391.67V79.7089H2401.57ZM2481.75 92.3089C2475.22 92.3089 2469.22 90.7756 2463.75 87.7089C2458.28 84.6422 2453.95 80.4089 2450.75 75.0089C2447.55 69.5422 2445.95 63.3756 2445.95 56.5089C2445.95 49.7089 2447.55 43.6089 2450.75 38.2089C2453.95 32.7422 2458.28 28.4755 2463.75 25.4089C2469.22 22.3422 2475.22 20.8089 2481.75 20.8089C2488.35 20.8089 2494.35 22.3422 2499.75 25.4089C2505.22 28.4755 2509.52 32.7422 2512.65 38.2089C2515.85 43.6089 2517.45 49.7089 2517.45 56.5089C2517.45 63.3756 2515.85 69.5422 2512.65 75.0089C2509.52 80.4089 2505.22 84.6422 2499.75 87.7089C2494.28 90.7756 2488.28 92.3089 2481.75 92.3089ZM2481.75 79.8089C2485.95 79.8089 2489.65 78.8756 2492.85 77.0089C2496.05 75.0756 2498.55 72.3422 2500.35 68.8089C2502.15 65.2756 2503.05 61.1756 2503.05 56.5089C2503.05 51.8422 2502.15 47.7756 2500.35 44.3089C2498.55 40.7756 2496.05 38.0756 2492.85 36.2089C2489.65 34.3422 2485.95 33.4089 2481.75 33.4089C2477.55 33.4089 2473.82 34.3422 2470.55 36.2089C2467.35 38.0756 2464.85 40.7756 2463.05 44.3089C2461.25 47.7756 2460.35 51.8422 2460.35 56.5089C2460.35 61.1756 2461.25 65.2756 2463.05 68.8089C2464.85 72.3422 2467.35 75.0756 2470.55 77.0089C2473.82 78.8756 2477.55 79.8089 2481.75 79.8089ZM2563.86 91.6089L2548.46 64.4089H2541.86V91.6089H2527.86V21.8089L2554.06 21.8089C2559.46 21.8089 2564.06 22.7756 2567.86 24.7089C2571.66 26.5756 2574.5 29.1422 2576.36 32.4089C2578.3 35.6089 2579.26 39.2089 2579.26 43.2089C2579.26 47.8089 2577.93 51.9756 2575.26 55.7089C2572.6 59.3756 2568.63 61.9089 2563.36 63.3089L2580.06 91.6089H2563.86ZM2541.86 53.9089H2553.56C2557.36 53.9089 2560.2 53.0089 2562.06 51.2089C2563.93 49.3422 2564.86 46.7756 2564.86 43.5089C2564.86 40.3089 2563.93 37.8422 2562.06 36.1089C2560.2 34.3089 2557.36 33.4089 2553.56 33.4089H2541.86V53.9089Z" fill="#EEDB5F"/>
<path d="M2662.47 59.1369C2662.19 59.5652 2661.98 59.9509 2662 60.1253C2662.01 60.1462 2662.01 60.1646 2662.02 60.1823L2662.02 60.1839C2662.03 60.2056 2662.05 60.2233 2662.07 60.2402C2662.1 60.2699 2662.14 60.294 2662.2 60.3141C2662.31 60.3479 2663.11 60.3189 2663.35 60.2997C2663.99 60.2458 2664.64 60.2 2665.28 60.163C2665.47 60.1526 2665.65 60.1462 2665.84 60.1365C2666.68 60.0947 2667.51 60.0618 2668.33 60.0425C2668.99 60.0256 2669.64 60.0152 2670.28 60.0088C2670.46 60.0072 2670.63 60.0063 2670.81 60.0055C2671.4 60.0023 2671.99 60.0007 2672.55 60.0063C2672.36 64.9194 2672.12 70.1281 2671.92 75.0877C2671.9 75.8535 2671.86 76.6129 2671.84 77.3634C2671.77 78.9625 2671.77 78.9625 2671.77 78.9625C2671.77 79.0758 2671.76 79.1956 2671.76 79.3145C2671.74 80.0345 2671.74 80.8284 2671.9 81.0438C2671.9 81.0542 2671.91 81.063 2671.92 81.0711C2671.94 81.0976 2671.97 81.1097 2672.01 81.1089C2672.01 81.1089 2672.01 81.1072 2672.02 81.1072C2672.05 81.1056 2672.08 81.0944 2672.12 81.0743C2672.13 81.0679 2672.14 81.0574 2672.15 81.0486C2672.18 81.0301 2672.21 81.0092 2672.24 80.9827C2672.25 80.969 2672.27 80.9522 2672.28 80.9369C2672.31 80.9088 2672.34 80.879 2672.37 80.8453C2672.38 80.8252 2672.4 80.8043 2672.42 80.7826C2672.45 80.748 2672.47 80.7119 2672.5 80.6741C2672.52 80.6492 2672.54 80.6235 2672.56 80.5978C2672.59 80.5592 2672.62 80.5182 2672.64 80.478C2672.66 80.4499 2672.68 80.4226 2672.7 80.3945C2672.73 80.3519 2672.76 80.3085 2672.79 80.2643C2672.81 80.2362 2672.82 80.208 2672.84 80.1799C2672.89 80.1124 2672.93 80.0449 2672.97 79.979C2672.97 79.979 2672.97 79.979 2673.68 78.8902C2678.14 72.0422 2683.96 63.6931 2689.12 56.4867C2690.65 54.3428 2690.91 53.9812 2690.91 53.9812C2690.94 53.9434 2690.97 53.9016 2691 53.8631C2691.67 52.9623 2692.51 51.9924 2692.85 51.3142C2692.95 51.1165 2693.01 50.9389 2693 50.7983C2692.99 50.7316 2692.96 50.6801 2692.91 50.6384C2692.89 50.6231 2692.85 50.6167 2692.83 50.6046C2692.78 50.5821 2692.74 50.558 2692.69 50.5435C2692.65 50.5331 2692.6 50.5299 2692.55 50.5226C2692.5 50.5138 2692.45 50.5034 2692.39 50.4985C2692.33 50.4945 2692.28 50.4945 2692.22 50.4929C2692.16 50.4913 2692.1 50.4873 2692.04 50.4873C2691.83 50.4897 2691.63 50.5001 2691.5 50.505C2691.5 50.505 2691.5 50.505 2690.49 50.5492C2687.54 50.6761 2684.53 50.8376 2681.66 51.0345C2681.87 45.9672 2682.15 40.155 2682.37 35.1423C2682.43 33.7506 2682.43 33.7506 2682.43 33.7506C2682.43 33.712 2682.44 33.667 2682.44 33.626C2682.46 33.0941 2682.48 32.3781 2682.32 32.1691C2682.29 32.1378 2682.26 32.1137 2682.23 32.1097C2682.2 32.1065 2682.18 32.1137 2682.15 32.1193C2682.13 32.1225 2682.12 32.1241 2682.1 32.1322C2682.08 32.141 2682.05 32.1547 2682.03 32.1683C2682.01 32.1796 2681.99 32.1892 2681.97 32.2037C2681.94 32.2206 2681.92 32.2431 2681.89 32.264C2681.87 32.2824 2681.84 32.2985 2681.82 32.3202C2681.79 32.3443 2681.76 32.3741 2681.73 32.4022C2681.71 32.4263 2681.68 32.4488 2681.66 32.4753C2681.63 32.5082 2681.59 32.5452 2681.56 32.5806C2681.54 32.6079 2681.51 32.632 2681.49 32.6609C2681.45 32.7027 2681.41 32.7477 2681.38 32.7927C2681.35 32.82 2681.33 32.8457 2681.31 32.8739C2681.26 32.9333 2681.21 32.996 2681.16 33.0587C2681.15 33.074 2681.14 33.0884 2681.12 33.1037C2681.06 33.184 2681 33.266 2680.93 33.3496C2680.76 33.5714 2680.59 33.802 2680.43 34.0173C2680.43 34.0173 2680.43 34.0174 2679.24 35.6349C2679.12 35.7973 2679 35.9708 2678.87 36.138C2675.54 40.6926 2669.26 49.5326 2669.26 49.5326C2668.96 49.9545 2668.67 50.3555 2668.4 50.7364C2668.18 51.0474 2667.96 51.3575 2667.74 51.6685C2667.55 51.9433 2664.92 55.6486 2664.36 56.457C2663.37 57.8568 2663.37 57.8568 2663.37 57.8568C2663.12 58.2104 2662.76 58.6973 2662.47 59.1369Z" fill="#EEDB5F"/>
</svg>
