<svg width="2427" height="111" viewBox="0 0 2427 111" fill="none" xmlns="http://www.w3.org/2000/svg">
<path d="M50 20.6048V31.9048H20.9V49.8048H43.2V60.9048H20.9V90.4048H6.9L6.9 20.6048H50ZM102.727 77.1048H74.9273L70.3273 90.4048H55.6273L80.7273 20.5048H97.0273L122.127 90.4048H107.327L102.727 77.1048ZM98.9273 65.9048L88.8273 36.7048L78.7273 65.9048H98.9273ZM183.509 102.705L172.909 90.0048C169.976 90.7381 166.976 91.1048 163.909 91.1048C157.376 91.1048 151.376 89.5715 145.909 86.5048C140.443 83.4381 136.109 79.2048 132.909 73.8048C129.709 68.3381 128.109 62.1715 128.109 55.3048C128.109 48.5048 129.709 42.4048 132.909 37.0048C136.109 31.5381 140.443 27.2714 145.909 24.2048C151.376 21.1381 157.376 19.6048 163.909 19.6048C170.509 19.6048 176.509 21.1381 181.909 24.2048C187.376 27.2714 191.676 31.5381 194.809 37.0048C198.009 42.4048 199.609 48.5048 199.609 55.3048C199.609 61.5048 198.276 67.1715 195.609 72.3048C193.009 77.3715 189.443 81.5048 184.909 84.7048L200.909 102.705H183.509ZM142.509 55.3048C142.509 59.9715 143.409 64.0715 145.209 67.6048C147.009 71.1381 149.509 73.8715 152.709 75.8048C155.976 77.6715 159.709 78.6048 163.909 78.6048C168.109 78.6048 171.809 77.6715 175.009 75.8048C178.209 73.8715 180.709 71.1381 182.509 67.6048C184.309 64.0715 185.209 59.9715 185.209 55.3048C185.209 50.6381 184.309 46.5714 182.509 43.1048C180.709 39.5714 178.209 36.8714 175.009 35.0048C171.809 33.1381 168.109 32.2048 163.909 32.2048C159.709 32.2048 155.976 33.1381 152.709 35.0048C149.509 36.8714 147.009 39.5714 145.209 43.1048C143.409 46.5714 142.509 50.6381 142.509 55.3048Z" fill="black"/>
<path d="M279.47 57.9328C279.189 58.3611 278.978 58.7468 279.002 58.9212C279.005 58.9421 279.013 58.9605 279.023 58.9782L279.023 58.9798C279.034 59.0015 279.046 59.0192 279.068 59.0361C279.1 59.0658 279.144 59.0899 279.199 59.11C279.31 59.1438 280.115 59.1148 280.353 59.0955C280.995 59.0417 281.635 58.9959 282.283 58.9589C282.467 58.9485 282.65 58.9421 282.839 58.9324C283.675 58.8906 284.508 58.8577 285.332 58.8384C285.991 58.8215 286.641 58.8111 287.282 58.8047C287.46 58.803 287.632 58.8022 287.806 58.8014C288.399 58.7982 288.987 58.7966 289.547 58.8022C289.356 63.7153 289.122 68.924 288.924 73.8836C288.896 74.6494 288.862 75.4088 288.835 76.1593C288.774 77.7584 288.774 77.7584 288.774 77.7584C288.771 77.8717 288.765 77.9915 288.761 78.1104C288.743 78.8304 288.743 79.6243 288.897 79.8397C288.901 79.8501 288.908 79.8589 288.916 79.867C288.943 79.8935 288.974 79.9056 289.008 79.9048C289.01 79.9048 289.013 79.9031 289.016 79.9031C289.046 79.9015 289.08 79.8903 289.115 79.8702C289.127 79.8638 289.139 79.8533 289.151 79.8445C289.178 79.826 289.206 79.8051 289.235 79.7786C289.251 79.7649 289.266 79.7481 289.282 79.7328C289.31 79.7047 289.338 79.6749 289.367 79.6412C289.384 79.6211 289.401 79.6002 289.419 79.5785C289.447 79.5439 289.475 79.5078 289.503 79.47C289.521 79.4451 289.541 79.4194 289.56 79.3937C289.588 79.3551 289.616 79.3141 289.644 79.2739C289.663 79.2458 289.683 79.2185 289.702 79.1904C289.731 79.1478 289.759 79.1044 289.787 79.0602C289.805 79.0321 289.824 79.0039 289.842 78.9758C289.886 78.9083 289.929 78.8408 289.971 78.7749C289.971 78.7749 289.971 78.7749 290.68 77.6861C295.144 70.8381 300.955 62.489 306.115 55.2826C307.648 53.1387 307.911 52.7771 307.911 52.7771C307.943 52.7393 307.972 52.6975 308.003 52.659C308.668 51.7582 309.509 50.7883 309.848 50.1101C309.945 49.9124 310.009 49.7348 309.999 49.5942C309.994 49.5275 309.96 49.476 309.905 49.4342C309.887 49.419 309.854 49.4126 309.83 49.4005C309.785 49.378 309.744 49.3539 309.686 49.3394C309.646 49.329 309.598 49.3258 309.554 49.3185C309.5 49.3097 309.448 49.2993 309.387 49.2944C309.333 49.2904 309.275 49.2904 309.218 49.2888C309.16 49.2872 309.101 49.2832 309.042 49.2832C308.834 49.2856 308.635 49.296 308.501 49.3009C308.501 49.3009 308.501 49.3009 307.488 49.3451C304.544 49.472 301.527 49.6335 298.656 49.8304C298.873 44.7631 299.147 38.9509 299.374 33.9382C299.433 32.5465 299.433 32.5465 299.433 32.5465C299.434 32.5079 299.436 32.4629 299.438 32.4219C299.462 31.8899 299.483 31.174 299.319 30.965C299.291 30.9337 299.261 30.9096 299.225 30.9056C299.204 30.9024 299.177 30.9096 299.152 30.9152C299.135 30.9184 299.117 30.92 299.098 30.9281C299.076 30.9369 299.051 30.9506 299.028 30.9642C299.008 30.9755 298.988 30.9851 298.966 30.9996C298.942 31.0165 298.915 31.039 298.888 31.0599C298.865 31.0783 298.842 31.0944 298.818 31.1161C298.791 31.1402 298.762 31.17 298.733 31.1981C298.708 31.2222 298.684 31.2447 298.659 31.2712C298.627 31.3041 298.594 31.3411 298.561 31.3765C298.537 31.4038 298.512 31.4279 298.487 31.4568C298.451 31.4986 298.413 31.5436 298.376 31.5886C298.353 31.6159 298.33 31.6416 298.308 31.6698C298.258 31.7292 298.209 31.7919 298.159 31.8546C298.147 31.8699 298.135 31.8843 298.123 31.8996C298.06 31.9799 297.997 32.0619 297.933 32.1455C297.764 32.3673 297.592 32.5979 297.429 32.8132C297.429 32.8132 297.429 32.8132 296.24 34.4308C296.124 34.5932 295.996 34.7667 295.87 34.9339C292.537 39.4885 286.261 48.3285 286.261 48.3285C285.959 48.7504 285.674 49.1514 285.398 49.5323C285.178 49.8433 284.962 50.1534 284.74 50.4644C284.547 50.7392 281.924 54.4445 281.355 55.2529C280.371 56.6527 280.371 56.6527 280.371 56.6527C280.121 57.0063 279.758 57.4932 279.47 57.9328Z" fill="black"/>
<path d="M435.152 20.6048V31.9048H406.052V49.8048H428.352V60.9048H406.052V90.4048H392.052V20.6048H435.152ZM481.08 90.4048L465.68 63.2048H459.08V90.4048H445.08V20.6048H471.28C476.68 20.6048 481.28 21.5714 485.08 23.5048C488.88 25.3714 491.713 27.9381 493.58 31.2048C495.513 34.4048 496.48 38.0048 496.48 42.0048C496.48 46.6048 495.146 50.7714 492.48 54.5048C489.813 58.1714 485.846 60.7048 480.58 62.1048L497.28 90.4048H481.08ZM459.08 52.7048H470.78C474.58 52.7048 477.413 51.8048 479.28 50.0048C481.146 48.1381 482.08 45.5714 482.08 42.3048C482.08 39.1048 481.146 36.6381 479.28 34.9048C477.413 33.1048 474.58 32.2048 470.78 32.2048H459.08V52.7048ZM523.142 31.9048V49.4048H546.642V60.5048H523.142V79.0048H549.642V90.4048H509.142V20.5048L549.642 20.5048V31.9048H523.142ZM614.365 102.705L603.765 90.0048C600.832 90.7381 597.832 91.1048 594.765 91.1048C588.232 91.1048 582.232 89.5715 576.765 86.5048C571.298 83.4381 566.965 79.2048 563.765 73.8048C560.565 68.3381 558.965 62.1715 558.965 55.3048C558.965 48.5048 560.565 42.4048 563.765 37.0048C566.965 31.5381 571.298 27.2714 576.765 24.2048C582.232 21.1381 588.232 19.6048 594.765 19.6048C601.365 19.6048 607.365 21.1381 612.765 24.2048C618.232 27.2714 622.532 31.5381 625.665 37.0048C628.865 42.4048 630.465 48.5048 630.465 55.3048C630.465 61.5048 629.132 67.1715 626.465 72.3048C623.865 77.3715 620.298 81.5048 615.765 84.7048L631.765 102.705H614.365ZM573.365 55.3048C573.365 59.9715 574.265 64.0715 576.065 67.6048C577.865 71.1381 580.365 73.8715 583.565 75.8048C586.832 77.6715 590.565 78.6048 594.765 78.6048C598.965 78.6048 602.665 77.6715 605.865 75.8048C609.065 73.8715 611.565 71.1381 613.365 67.6048C615.165 64.0715 616.065 59.9715 616.065 55.3048C616.065 50.6381 615.165 46.5714 613.365 43.1048C611.565 39.5714 609.065 36.8714 605.865 35.0048C602.665 33.1381 598.965 32.2048 594.765 32.2048C590.565 32.2048 586.832 33.1381 583.565 35.0048C580.365 36.8714 577.865 39.5714 576.065 43.1048C574.265 46.5714 573.365 50.6381 573.365 55.3048ZM654.876 20.6048V63.8048C654.876 68.5381 656.109 72.1715 658.576 74.7048C661.042 77.1715 664.509 78.4048 668.976 78.4048C673.509 78.4048 677.009 77.1715 679.476 74.7048C681.942 72.1715 683.176 68.5381 683.176 63.8048V20.6048H697.276V63.7048C697.276 69.6381 695.976 74.6715 693.376 78.8048C690.842 82.8715 687.409 85.9381 683.076 88.0048C678.809 90.0715 674.042 91.1048 668.776 91.1048C663.576 91.1048 658.842 90.0715 654.576 88.0048C650.376 85.9381 647.042 82.8715 644.576 78.8048C642.109 74.6715 640.876 69.6381 640.876 63.7048V20.6048H654.876ZM724.802 31.9048V49.4048H748.302V60.5048H724.802V79.0048H751.302V90.4048H710.802V20.5048H751.302V31.9048H724.802ZM823.725 90.4048H809.725L778.025 42.5048V90.4048H764.025V20.5048L778.025 20.5048L809.725 68.5048V20.5048H823.725V90.4048ZM885.06 20.6048V31.9048H866.46V90.4048H852.46V31.9048H833.86V20.6048H885.06ZM909.275 79.3048H932.275V90.4048L895.275 90.4048V20.6048H909.275V79.3048ZM996.673 20.6048L973.073 66.1048V90.4048H959.073V66.1048L935.373 20.6048H951.173L966.173 52.5048L981.073 20.6048H996.673Z" fill="black"/>
<path d="M1073.47 57.9328C1073.19 58.3611 1072.98 58.7468 1073 58.9212C1073.01 58.9421 1073.01 58.9605 1073.02 58.9782L1073.02 58.9798C1073.03 59.0015 1073.05 59.0192 1073.07 59.0361C1073.1 59.0658 1073.14 59.0899 1073.2 59.11C1073.31 59.1438 1074.11 59.1148 1074.35 59.0955C1074.99 59.0417 1075.64 58.9959 1076.28 58.9589C1076.47 58.9485 1076.65 58.9421 1076.84 58.9324C1077.68 58.8906 1078.51 58.8577 1079.33 58.8384C1079.99 58.8215 1080.64 58.8111 1081.28 58.8047C1081.46 58.803 1081.63 58.8022 1081.81 58.8014C1082.4 58.7982 1082.99 58.7966 1083.55 58.8022C1083.36 63.7153 1083.12 68.924 1082.92 73.8836C1082.9 74.6494 1082.86 75.4088 1082.84 76.1593C1082.77 77.7584 1082.77 77.7584 1082.77 77.7584C1082.77 77.8717 1082.76 77.9915 1082.76 78.1104C1082.74 78.8304 1082.74 79.6243 1082.9 79.8397C1082.9 79.8501 1082.91 79.8589 1082.92 79.867C1082.94 79.8935 1082.97 79.9056 1083.01 79.9048C1083.01 79.9048 1083.01 79.9031 1083.02 79.9031C1083.05 79.9015 1083.08 79.8903 1083.12 79.8702C1083.13 79.8638 1083.14 79.8533 1083.15 79.8445C1083.18 79.826 1083.21 79.8051 1083.24 79.7786C1083.25 79.7649 1083.27 79.7481 1083.28 79.7328C1083.31 79.7047 1083.34 79.6749 1083.37 79.6412C1083.38 79.6211 1083.4 79.6002 1083.42 79.5785C1083.45 79.5439 1083.47 79.5078 1083.5 79.47C1083.52 79.4451 1083.54 79.4194 1083.56 79.3937C1083.59 79.3551 1083.62 79.3141 1083.64 79.2739C1083.66 79.2458 1083.68 79.2185 1083.7 79.1904C1083.73 79.1478 1083.76 79.1044 1083.79 79.0602C1083.81 79.0321 1083.82 79.0039 1083.84 78.9758C1083.89 78.9083 1083.93 78.8408 1083.97 78.7749C1083.97 78.7749 1083.97 78.7749 1084.68 77.6861C1089.14 70.8381 1094.96 62.489 1100.12 55.2826C1101.65 53.1387 1101.91 52.7771 1101.91 52.7771C1101.94 52.7393 1101.97 52.6975 1102 52.659C1102.67 51.7582 1103.51 50.7883 1103.85 50.1101C1103.95 49.9124 1104.01 49.7348 1104 49.5942C1103.99 49.5275 1103.96 49.476 1103.91 49.4342C1103.89 49.419 1103.85 49.4126 1103.83 49.4005C1103.78 49.378 1103.74 49.3539 1103.69 49.3394C1103.65 49.329 1103.6 49.3258 1103.55 49.3185C1103.5 49.3097 1103.45 49.2993 1103.39 49.2944C1103.33 49.2904 1103.28 49.2904 1103.22 49.2888C1103.16 49.2872 1103.1 49.2832 1103.04 49.2832C1102.83 49.2856 1102.63 49.296 1102.5 49.3009C1102.5 49.3009 1102.5 49.3009 1101.49 49.3451C1098.54 49.472 1095.53 49.6335 1092.66 49.8304C1092.87 44.7631 1093.15 38.9509 1093.37 33.9382C1093.43 32.5465 1093.43 32.5465 1093.43 32.5465C1093.43 32.5079 1093.44 32.4629 1093.44 32.4219C1093.46 31.8899 1093.48 31.174 1093.32 30.965C1093.29 30.9337 1093.26 30.9096 1093.23 30.9056C1093.2 30.9024 1093.18 30.9096 1093.15 30.9152C1093.13 30.9184 1093.12 30.92 1093.1 30.9281C1093.08 30.9369 1093.05 30.9506 1093.03 30.9642C1093.01 30.9755 1092.99 30.9851 1092.97 30.9996C1092.94 31.0165 1092.92 31.039 1092.89 31.0599C1092.87 31.0783 1092.84 31.0944 1092.82 31.1161C1092.79 31.1402 1092.76 31.17 1092.73 31.1981C1092.71 31.2222 1092.68 31.2447 1092.66 31.2712C1092.63 31.3041 1092.59 31.3411 1092.56 31.3765C1092.54 31.4038 1092.51 31.4279 1092.49 31.4568C1092.45 31.4986 1092.41 31.5436 1092.38 31.5886C1092.35 31.6159 1092.33 31.6416 1092.31 31.6698C1092.26 31.7292 1092.21 31.7919 1092.16 31.8546C1092.15 31.8699 1092.14 31.8843 1092.12 31.8996C1092.06 31.9799 1092 32.0619 1091.93 32.1455C1091.76 32.3673 1091.59 32.5979 1091.43 32.8132C1091.43 32.8132 1091.43 32.8132 1090.24 34.4308C1090.12 34.5932 1090 34.7667 1089.87 34.9339C1086.54 39.4885 1080.26 48.3285 1080.26 48.3285C1079.96 48.7504 1079.67 49.1514 1079.4 49.5323C1079.18 49.8433 1078.96 50.1534 1078.74 50.4644C1078.55 50.7392 1075.92 54.4445 1075.36 55.2529C1074.37 56.6527 1074.37 56.6527 1074.37 56.6527C1074.12 57.0063 1073.76 57.4932 1073.47 57.9328Z" fill="black"/>
<path d="M1228.83 77.1048H1201.03L1196.43 90.4048H1181.73L1206.83 20.5048H1223.13L1248.23 90.4048H1233.43L1228.83 77.1048ZM1225.03 65.9048L1214.93 36.7048L1204.83 65.9048H1225.03ZM1281.72 91.1048C1276.85 91.1048 1272.45 90.2715 1268.52 88.6048C1264.65 86.9381 1261.58 84.5381 1259.32 81.4048C1257.05 78.2715 1255.88 74.5715 1255.82 70.3048H1270.82C1271.02 73.1715 1272.02 75.4381 1273.82 77.1048C1275.68 78.7715 1278.22 79.6048 1281.42 79.6048C1284.68 79.6048 1287.25 78.8381 1289.12 77.3048C1290.98 75.7048 1291.92 73.6381 1291.92 71.1048C1291.92 69.0381 1291.28 67.3381 1290.02 66.0048C1288.75 64.6715 1287.15 63.6381 1285.22 62.9048C1283.35 62.1048 1280.75 61.2381 1277.42 60.3048C1272.88 58.9715 1269.18 57.6715 1266.32 56.4048C1263.52 55.0715 1261.08 53.1048 1259.02 50.5048C1257.02 47.8381 1256.02 44.3048 1256.02 39.9048C1256.02 35.7714 1257.05 32.1714 1259.12 29.1048C1261.18 26.0381 1264.08 23.7048 1267.82 22.1048C1271.55 20.4381 1275.82 19.6048 1280.62 19.6048C1287.82 19.6048 1293.65 21.3715 1298.12 24.9048C1302.65 28.3714 1305.15 33.2381 1305.62 39.5048H1290.22C1290.08 37.1048 1289.05 35.1381 1287.12 33.6048C1285.25 32.0048 1282.75 31.2048 1279.62 31.2048C1276.88 31.2048 1274.68 31.9048 1273.02 33.3048C1271.42 34.7048 1270.62 36.7381 1270.62 39.4048C1270.62 41.2714 1271.22 42.8381 1272.42 44.1048C1273.68 45.3048 1275.22 46.3048 1277.02 47.1048C1278.88 47.8381 1281.48 48.7048 1284.82 49.7048C1289.35 51.0381 1293.05 52.3714 1295.92 53.7048C1298.78 55.0381 1301.25 57.0381 1303.32 59.7048C1305.38 62.3715 1306.42 65.8715 1306.42 70.2048C1306.42 73.9381 1305.45 77.4048 1303.52 80.6048C1301.58 83.8048 1298.75 86.3715 1295.02 88.3048C1291.28 90.1715 1286.85 91.1048 1281.72 91.1048ZM1357.95 90.4048L1332.55 59.3048V90.4048H1318.55V20.6048H1332.55V51.9048L1357.95 20.6048H1374.85L1346.05 55.2048L1375.65 90.4048H1357.95ZM1398.86 31.9048V49.4048H1422.36V60.5048H1398.86V79.0048H1425.36V90.4048H1384.86V20.5048H1425.36V31.9048H1398.86ZM1462.49 20.6048C1469.82 20.6048 1476.25 22.0381 1481.79 24.9048C1487.39 27.7714 1491.69 31.8714 1494.69 37.2048C1497.75 42.4715 1499.29 48.6048 1499.29 55.6048C1499.29 62.6048 1497.75 68.7381 1494.69 74.0048C1491.69 79.2048 1487.39 83.2381 1481.79 86.1048C1476.25 88.9715 1469.82 90.4048 1462.49 90.4048H1438.09V20.6048H1462.49ZM1461.99 78.5048C1469.32 78.5048 1474.99 76.5048 1478.99 72.5048C1482.99 68.5048 1484.99 62.8715 1484.99 55.6048C1484.99 48.3381 1482.99 42.6715 1478.99 38.6048C1474.99 34.4714 1469.32 32.4048 1461.99 32.4048H1452.09V78.5048H1461.99Z" fill="black"/>
<path d="M1578.47 57.9328C1578.19 58.3611 1577.98 58.7468 1578 58.9212C1578.01 58.9421 1578.01 58.9605 1578.02 58.9782L1578.02 58.9798C1578.03 59.0015 1578.05 59.0192 1578.07 59.0361C1578.1 59.0658 1578.14 59.0899 1578.2 59.11C1578.31 59.1438 1579.11 59.1148 1579.35 59.0955C1579.99 59.0417 1580.64 58.9959 1581.28 58.9589C1581.47 58.9485 1581.65 58.9421 1581.84 58.9324C1582.68 58.8906 1583.51 58.8577 1584.33 58.8384C1584.99 58.8215 1585.64 58.8111 1586.28 58.8047C1586.46 58.803 1586.63 58.8022 1586.81 58.8014C1587.4 58.7982 1587.99 58.7966 1588.55 58.8022C1588.36 63.7153 1588.12 68.924 1587.92 73.8836C1587.9 74.6494 1587.86 75.4088 1587.84 76.1593C1587.77 77.7584 1587.77 77.7584 1587.77 77.7584C1587.77 77.8717 1587.76 77.9915 1587.76 78.1104C1587.74 78.8304 1587.74 79.6243 1587.9 79.8397C1587.9 79.8501 1587.91 79.8589 1587.92 79.867C1587.94 79.8935 1587.97 79.9056 1588.01 79.9048C1588.01 79.9048 1588.01 79.9031 1588.02 79.9031C1588.05 79.9015 1588.08 79.8903 1588.12 79.8702C1588.13 79.8638 1588.14 79.8533 1588.15 79.8445C1588.18 79.826 1588.21 79.8051 1588.24 79.7786C1588.25 79.7649 1588.27 79.7481 1588.28 79.7328C1588.31 79.7047 1588.34 79.6749 1588.37 79.6412C1588.38 79.6211 1588.4 79.6002 1588.42 79.5785C1588.45 79.5439 1588.47 79.5078 1588.5 79.47C1588.52 79.4451 1588.54 79.4194 1588.56 79.3937C1588.59 79.3551 1588.62 79.3141 1588.64 79.2739C1588.66 79.2458 1588.68 79.2185 1588.7 79.1904C1588.73 79.1478 1588.76 79.1044 1588.79 79.0602C1588.81 79.0321 1588.82 79.0039 1588.84 78.9758C1588.89 78.9083 1588.93 78.8408 1588.97 78.7749C1588.97 78.7749 1588.97 78.7749 1589.68 77.6861C1594.14 70.8381 1599.96 62.489 1605.12 55.2826C1606.65 53.1387 1606.91 52.7771 1606.91 52.7771C1606.94 52.7393 1606.97 52.6975 1607 52.659C1607.67 51.7582 1608.51 50.7883 1608.85 50.1101C1608.95 49.9124 1609.01 49.7348 1609 49.5942C1608.99 49.5275 1608.96 49.476 1608.91 49.4342C1608.89 49.419 1608.85 49.4126 1608.83 49.4005C1608.78 49.378 1608.74 49.3539 1608.69 49.3394C1608.65 49.329 1608.6 49.3258 1608.55 49.3185C1608.5 49.3097 1608.45 49.2993 1608.39 49.2944C1608.33 49.2904 1608.28 49.2904 1608.22 49.2888C1608.16 49.2872 1608.1 49.2832 1608.04 49.2832C1607.83 49.2856 1607.63 49.296 1607.5 49.3009C1607.5 49.3009 1607.5 49.3009 1606.49 49.3451C1603.54 49.472 1600.53 49.6335 1597.66 49.8304C1597.87 44.7631 1598.15 38.9509 1598.37 33.9382C1598.43 32.5465 1598.43 32.5465 1598.43 32.5465C1598.43 32.5079 1598.44 32.4629 1598.44 32.4219C1598.46 31.8899 1598.48 31.174 1598.32 30.965C1598.29 30.9337 1598.26 30.9096 1598.23 30.9056C1598.2 30.9024 1598.18 30.9096 1598.15 30.9152C1598.13 30.9184 1598.12 30.92 1598.1 30.9281C1598.08 30.9369 1598.05 30.9506 1598.03 30.9642C1598.01 30.9755 1597.99 30.9851 1597.97 30.9996C1597.94 31.0165 1597.92 31.039 1597.89 31.0599C1597.87 31.0783 1597.84 31.0944 1597.82 31.1161C1597.79 31.1402 1597.76 31.17 1597.73 31.1981C1597.71 31.2222 1597.68 31.2447 1597.66 31.2712C1597.63 31.3041 1597.59 31.3411 1597.56 31.3765C1597.54 31.4038 1597.51 31.4279 1597.49 31.4568C1597.45 31.4986 1597.41 31.5436 1597.38 31.5886C1597.35 31.6159 1597.33 31.6416 1597.31 31.6698C1597.26 31.7292 1597.21 31.7919 1597.16 31.8546C1597.15 31.8699 1597.14 31.8843 1597.12 31.8996C1597.06 31.9799 1597 32.0619 1596.93 32.1455C1596.76 32.3673 1596.59 32.5979 1596.43 32.8132C1596.43 32.8132 1596.43 32.8132 1595.24 34.4308C1595.12 34.5932 1595 34.7667 1594.87 34.9339C1591.54 39.4885 1585.26 48.3285 1585.26 48.3285C1584.96 48.7504 1584.67 49.1514 1584.4 49.5323C1584.18 49.8433 1583.96 50.1534 1583.74 50.4644C1583.55 50.7392 1580.92 54.4445 1580.36 55.2529C1579.37 56.6527 1579.37 56.6527 1579.37 56.6527C1579.12 57.0063 1578.76 57.4932 1578.47 57.9328Z" fill="black"/>
<path d="M1743.33 102.705L1732.73 90.0048C1729.8 90.7381 1726.8 91.1048 1723.73 91.1048C1717.2 91.1048 1711.2 89.5715 1705.73 86.5048C1700.27 83.4381 1695.93 79.2048 1692.73 73.8048C1689.53 68.3381 1687.93 62.1715 1687.93 55.3048C1687.93 48.5048 1689.53 42.4048 1692.73 37.0048C1695.93 31.5381 1700.27 27.2714 1705.73 24.2048C1711.2 21.1381 1717.2 19.6048 1723.73 19.6048C1730.33 19.6048 1736.33 21.1381 1741.73 24.2048C1747.2 27.2714 1751.5 31.5381 1754.63 37.0048C1757.83 42.4048 1759.43 48.5048 1759.43 55.3048C1759.43 61.5048 1758.1 67.1715 1755.43 72.3048C1752.83 77.3715 1749.27 81.5048 1744.73 84.7048L1760.73 102.705H1743.33ZM1702.33 55.3048C1702.33 59.9715 1703.23 64.0715 1705.03 67.6048C1706.83 71.1381 1709.33 73.8715 1712.53 75.8048C1715.8 77.6715 1719.53 78.6048 1723.73 78.6048C1727.93 78.6048 1731.63 77.6715 1734.83 75.8048C1738.03 73.8715 1740.53 71.1381 1742.33 67.6048C1744.13 64.0715 1745.03 59.9715 1745.03 55.3048C1745.03 50.6381 1744.13 46.5714 1742.33 43.1048C1740.53 39.5714 1738.03 36.8714 1734.83 35.0048C1731.63 33.1381 1727.93 32.2048 1723.73 32.2048C1719.53 32.2048 1715.8 33.1381 1712.53 35.0048C1709.33 36.8714 1706.83 39.5714 1705.03 43.1048C1703.23 46.5714 1702.33 50.6381 1702.33 55.3048ZM1783.84 20.6048V63.8048C1783.84 68.5381 1785.08 72.1715 1787.54 74.7048C1790.01 77.1715 1793.48 78.4048 1797.94 78.4048C1802.48 78.4048 1805.98 77.1715 1808.44 74.7048C1810.91 72.1715 1812.14 68.5381 1812.14 63.8048V20.6048H1826.24V63.7048C1826.24 69.6381 1824.94 74.6715 1822.34 78.8048C1819.81 82.8715 1816.38 85.9381 1812.04 88.0048C1807.78 90.0715 1803.01 91.1048 1797.74 91.1048C1792.54 91.1048 1787.81 90.0715 1783.54 88.0048C1779.34 85.9381 1776.01 82.8715 1773.54 78.8048C1771.08 74.6715 1769.84 69.6381 1769.84 63.7048V20.6048H1783.84ZM1853.77 31.9048V49.4048H1877.27V60.5048H1853.77V79.0048H1880.27V90.4048H1839.77V20.5048H1880.27V31.9048H1853.77ZM1917.09 91.1048C1912.23 91.1048 1907.83 90.2715 1903.89 88.6048C1900.03 86.9381 1896.96 84.5381 1894.69 81.4048C1892.43 78.2715 1891.26 74.5715 1891.19 70.3048H1906.19C1906.39 73.1715 1907.39 75.4381 1909.19 77.1048C1911.06 78.7715 1913.59 79.6048 1916.79 79.6048C1920.06 79.6048 1922.63 78.8381 1924.49 77.3048C1926.36 75.7048 1927.29 73.6381 1927.29 71.1048C1927.29 69.0381 1926.66 67.3381 1925.39 66.0048C1924.13 64.6715 1922.53 63.6381 1920.59 62.9048C1918.73 62.1048 1916.13 61.2381 1912.79 60.3048C1908.26 58.9715 1904.56 57.6715 1901.69 56.4048C1898.89 55.0715 1896.46 53.1048 1894.39 50.5048C1892.39 47.8381 1891.39 44.3048 1891.39 39.9048C1891.39 35.7714 1892.43 32.1714 1894.49 29.1048C1896.56 26.0381 1899.46 23.7048 1903.19 22.1048C1906.93 20.4381 1911.19 19.6048 1915.99 19.6048C1923.19 19.6048 1929.03 21.3715 1933.49 24.9048C1938.03 28.3714 1940.53 33.2381 1940.99 39.5048L1925.59 39.5048C1925.46 37.1048 1924.43 35.1381 1922.49 33.6048C1920.63 32.0048 1918.13 31.2048 1914.99 31.2048C1912.26 31.2048 1910.06 31.9048 1908.39 33.3048C1906.79 34.7048 1905.99 36.7381 1905.99 39.4048C1905.99 41.2714 1906.59 42.8381 1907.79 44.1048C1909.06 45.3048 1910.59 46.3048 1912.39 47.1048C1914.26 47.8381 1916.86 48.7048 1920.19 49.7048C1924.73 51.0381 1928.43 52.3714 1931.29 53.7048C1934.16 55.0381 1936.63 57.0381 1938.69 59.7048C1940.76 62.3715 1941.79 65.8715 1941.79 70.2048C1941.79 73.9381 1940.83 77.4048 1938.89 80.6048C1936.96 83.8048 1934.13 86.3715 1930.39 88.3048C1926.66 90.1715 1922.23 91.1048 1917.09 91.1048ZM2001.43 20.6048V31.9048H1982.83V90.4048H1968.83V31.9048H1950.23V20.6048H2001.43ZM2025.65 20.6048V90.4048H2011.65V20.6048H2025.65ZM2071.88 91.1048C2065.34 91.1048 2059.34 89.5715 2053.88 86.5048C2048.41 83.4381 2044.08 79.2048 2040.88 73.8048C2037.68 68.3381 2036.08 62.1715 2036.08 55.3048C2036.08 48.5048 2037.68 42.4048 2040.88 37.0048C2044.08 31.5381 2048.41 27.2714 2053.88 24.2048C2059.34 21.1381 2065.34 19.6048 2071.88 19.6048C2078.48 19.6048 2084.48 21.1381 2089.88 24.2048C2095.34 27.2714 2099.64 31.5381 2102.78 37.0048C2105.98 42.4048 2107.58 48.5048 2107.58 55.3048C2107.58 62.1715 2105.98 68.3381 2102.78 73.8048C2099.64 79.2048 2095.34 83.4381 2089.88 86.5048C2084.41 89.5715 2078.41 91.1048 2071.88 91.1048ZM2071.88 78.6048C2076.08 78.6048 2079.78 77.6715 2082.98 75.8048C2086.18 73.8715 2088.68 71.1381 2090.48 67.6048C2092.28 64.0715 2093.18 59.9715 2093.18 55.3048C2093.18 50.6381 2092.28 46.5714 2090.48 43.1048C2088.68 39.5714 2086.18 36.8714 2082.98 35.0048C2079.78 33.1381 2076.08 32.2048 2071.88 32.2048C2067.68 32.2048 2063.94 33.1381 2060.68 35.0048C2057.48 36.8714 2054.98 39.5714 2053.18 43.1048C2051.38 46.5714 2050.48 50.6381 2050.48 55.3048C2050.48 59.9715 2051.38 64.0715 2053.18 67.6048C2054.98 71.1381 2057.48 73.8715 2060.68 75.8048C2063.94 77.6715 2067.68 78.6048 2071.88 78.6048ZM2177.69 90.4048H2163.69L2131.99 42.5048V90.4048H2117.99V20.5048H2131.99L2163.69 68.5048V20.5048H2177.69V90.4048ZM2215.63 91.1048C2210.76 91.1048 2206.36 90.2715 2202.43 88.6048C2198.56 86.9381 2195.5 84.5381 2193.23 81.4048C2190.96 78.2715 2189.8 74.5715 2189.73 70.3048L2204.73 70.3048C2204.93 73.1715 2205.93 75.4381 2207.73 77.1048C2209.6 78.7715 2212.13 79.6048 2215.33 79.6048C2218.6 79.6048 2221.16 78.8381 2223.03 77.3048C2224.9 75.7048 2225.83 73.6381 2225.83 71.1048C2225.83 69.0381 2225.2 67.3381 2223.93 66.0048C2222.66 64.6715 2221.06 63.6381 2219.13 62.9048C2217.26 62.1048 2214.66 61.2381 2211.33 60.3048C2206.8 58.9715 2203.1 57.6715 2200.23 56.4048C2197.43 55.0715 2195 53.1048 2192.93 50.5048C2190.93 47.8381 2189.93 44.3048 2189.93 39.9048C2189.93 35.7714 2190.96 32.1714 2193.03 29.1048C2195.1 26.0381 2198 23.7048 2201.73 22.1048C2205.46 20.4381 2209.73 19.6048 2214.53 19.6048C2221.73 19.6048 2227.56 21.3715 2232.03 24.9048C2236.56 28.3714 2239.06 33.2381 2239.53 39.5048H2224.13C2224 37.1048 2222.96 35.1381 2221.03 33.6048C2219.16 32.0048 2216.66 31.2048 2213.53 31.2048C2210.8 31.2048 2208.6 31.9048 2206.93 33.3048C2205.33 34.7048 2204.53 36.7381 2204.53 39.4048C2204.53 41.2714 2205.13 42.8381 2206.33 44.1048C2207.6 45.3048 2209.13 46.3048 2210.93 47.1048C2212.8 47.8381 2215.4 48.7048 2218.73 49.7048C2223.26 51.0381 2226.96 52.3714 2229.83 53.7048C2232.7 55.0381 2235.16 57.0381 2237.23 59.7048C2239.3 62.3715 2240.33 65.8715 2240.33 70.2048C2240.33 73.9381 2239.36 77.4048 2237.43 80.6048C2235.5 83.8048 2232.66 86.3715 2228.93 88.3048C2225.2 90.1715 2220.76 91.1048 2215.63 91.1048Z" fill="black"/>
<path d="M2321.47 57.9328C2321.19 58.3611 2320.98 58.7468 2321 58.9212C2321.01 58.9421 2321.01 58.9605 2321.02 58.9782L2321.02 58.9798C2321.03 59.0015 2321.05 59.0192 2321.07 59.0361C2321.1 59.0658 2321.14 59.0899 2321.2 59.11C2321.31 59.1438 2322.11 59.1148 2322.35 59.0955C2322.99 59.0417 2323.64 58.9959 2324.28 58.9589C2324.47 58.9485 2324.65 58.9421 2324.84 58.9324C2325.68 58.8906 2326.51 58.8577 2327.33 58.8384C2327.99 58.8215 2328.64 58.8111 2329.28 58.8047C2329.46 58.803 2329.63 58.8022 2329.81 58.8014C2330.4 58.7982 2330.99 58.7966 2331.55 58.8022C2331.36 63.7153 2331.12 68.924 2330.92 73.8836C2330.9 74.6494 2330.86 75.4088 2330.84 76.1593C2330.77 77.7584 2330.77 77.7584 2330.77 77.7584C2330.77 77.8717 2330.76 77.9915 2330.76 78.1104C2330.74 78.8304 2330.74 79.6243 2330.9 79.8397C2330.9 79.8501 2330.91 79.8589 2330.92 79.867C2330.94 79.8935 2330.97 79.9056 2331.01 79.9048C2331.01 79.9048 2331.01 79.9031 2331.02 79.9031C2331.05 79.9015 2331.08 79.8903 2331.12 79.8702C2331.13 79.8638 2331.14 79.8533 2331.15 79.8445C2331.18 79.826 2331.21 79.8051 2331.24 79.7786C2331.25 79.7649 2331.27 79.7481 2331.28 79.7328C2331.31 79.7047 2331.34 79.6749 2331.37 79.6412C2331.38 79.6211 2331.4 79.6002 2331.42 79.5785C2331.45 79.5439 2331.47 79.5078 2331.5 79.47C2331.52 79.4451 2331.54 79.4194 2331.56 79.3937C2331.59 79.3551 2331.62 79.3141 2331.64 79.2739C2331.66 79.2458 2331.68 79.2185 2331.7 79.1904C2331.73 79.1478 2331.76 79.1044 2331.79 79.0602C2331.81 79.0321 2331.82 79.0039 2331.84 78.9758C2331.89 78.9083 2331.93 78.8408 2331.97 78.7749C2331.97 78.7749 2331.97 78.7749 2332.68 77.6861C2337.14 70.8381 2342.96 62.489 2348.12 55.2826C2349.65 53.1387 2349.91 52.7771 2349.91 52.7771C2349.94 52.7393 2349.97 52.6975 2350 52.659C2350.67 51.7582 2351.51 50.7883 2351.85 50.1101C2351.95 49.9124 2352.01 49.7348 2352 49.5942C2351.99 49.5275 2351.96 49.476 2351.91 49.4342C2351.89 49.419 2351.85 49.4126 2351.83 49.4005C2351.78 49.378 2351.74 49.3539 2351.69 49.3394C2351.65 49.329 2351.6 49.3258 2351.55 49.3185C2351.5 49.3097 2351.45 49.2993 2351.39 49.2944C2351.33 49.2904 2351.28 49.2904 2351.22 49.2888C2351.16 49.2872 2351.1 49.2832 2351.04 49.2832C2350.83 49.2856 2350.63 49.296 2350.5 49.3009C2350.5 49.3009 2350.5 49.3009 2349.49 49.3451C2346.54 49.472 2343.53 49.6335 2340.66 49.8304C2340.87 44.7631 2341.15 38.9509 2341.37 33.9382C2341.43 32.5465 2341.43 32.5465 2341.43 32.5465C2341.43 32.5079 2341.44 32.4629 2341.44 32.4219C2341.46 31.8899 2341.48 31.174 2341.32 30.965C2341.29 30.9337 2341.26 30.9096 2341.23 30.9056C2341.2 30.9024 2341.18 30.9096 2341.15 30.9152C2341.13 30.9184 2341.12 30.92 2341.1 30.9281C2341.08 30.9369 2341.05 30.9506 2341.03 30.9642C2341.01 30.9755 2340.99 30.9851 2340.97 30.9996C2340.94 31.0165 2340.92 31.039 2340.89 31.0599C2340.87 31.0783 2340.84 31.0944 2340.82 31.1161C2340.79 31.1402 2340.76 31.17 2340.73 31.1981C2340.71 31.2222 2340.68 31.2447 2340.66 31.2712C2340.63 31.3041 2340.59 31.3411 2340.56 31.3765C2340.54 31.4038 2340.51 31.4279 2340.49 31.4568C2340.45 31.4986 2340.41 31.5436 2340.38 31.5886C2340.35 31.6159 2340.33 31.6416 2340.31 31.6698C2340.26 31.7292 2340.21 31.7919 2340.16 31.8546C2340.15 31.8699 2340.14 31.8843 2340.12 31.8996C2340.06 31.9799 2340 32.0619 2339.93 32.1455C2339.76 32.3673 2339.59 32.5979 2339.43 32.8132C2339.43 32.8132 2339.43 32.8132 2338.24 34.4308C2338.12 34.5932 2338 34.7667 2337.87 34.9339C2334.54 39.4885 2328.26 48.3285 2328.26 48.3285C2327.96 48.7504 2327.67 49.1514 2327.4 49.5323C2327.18 49.8433 2326.96 50.1534 2326.74 50.4644C2326.55 50.7392 2323.92 54.4445 2323.36 55.2529C2322.37 56.6527 2322.37 56.6527 2322.37 56.6527C2322.12 57.0063 2321.76 57.4932 2321.47 57.9328Z" fill="black"/>
</svg>
