<svg width="1354" height="113" viewBox="0 0 1354 113" fill="none" xmlns="http://www.w3.org/2000/svg">
<path d="M31.4434 93.1634C26.5767 93.1634 22.1767 92.33 18.2434 90.6634C14.3767 88.9967 11.31 86.5967 9.04336 83.4634C6.77669 80.33 5.61003 76.63 5.54336 72.3634H20.5434C20.7434 75.23 21.7434 77.4967 23.5434 79.1634C25.41 80.83 27.9434 81.6634 31.1434 81.6634C34.41 81.6634 36.9767 80.8967 38.8434 79.3634C40.71 77.7634 41.6434 75.6967 41.6434 73.1634C41.6434 71.0967 41.01 69.3967 39.7434 68.0634C38.4767 66.73 36.8767 65.6967 34.9434 64.9634C33.0767 64.1634 30.4767 63.2967 27.1434 62.3634C22.61 61.03 18.91 59.73 16.0434 58.4634C13.2434 57.13 10.81 55.1634 8.74336 52.5634C6.74336 49.8967 5.74336 46.3634 5.74336 41.9634C5.74336 37.83 6.77669 34.23 8.84336 31.1634C10.91 28.0967 13.81 25.7634 17.5434 24.1634C21.2767 22.4967 25.5434 21.6634 30.3434 21.6634C37.5434 21.6634 43.3767 23.43 47.8434 26.9634C52.3767 30.43 54.8767 35.2967 55.3434 41.5634H39.9434C39.81 39.1634 38.7767 37.1967 36.8434 35.6634C34.9767 34.0634 32.4767 33.2634 29.3434 33.2634C26.61 33.2634 24.41 33.9634 22.7434 35.3634C21.1434 36.7634 20.3434 38.7967 20.3434 41.4634C20.3434 43.33 20.9434 44.8967 22.1434 46.1634C23.41 47.3634 24.9434 48.3634 26.7434 49.1634C28.61 49.8967 31.21 50.7634 34.5434 51.7634C39.0767 53.0967 42.7767 54.43 45.6434 55.7634C48.51 57.0967 50.9767 59.0967 53.0434 61.7634C55.11 64.43 56.1434 67.93 56.1434 72.2634C56.1434 75.9967 55.1767 79.4634 53.2434 82.6634C51.31 85.8634 48.4767 88.43 44.7434 90.3634C41.01 92.23 36.5767 93.1634 31.4434 93.1634ZM119.181 44.2634C119.181 47.9967 118.281 51.4967 116.481 54.7634C114.748 58.03 111.981 60.6634 108.181 62.6634C104.448 64.6634 99.7142 65.6634 93.9809 65.6634H82.2809V92.4634H68.2809V22.6634H93.9809C99.3809 22.6634 103.981 23.5967 107.781 25.4634C111.581 27.33 114.414 29.8967 116.281 33.1634C118.214 36.43 119.181 40.13 119.181 44.2634ZM93.3809 54.3634C97.2475 54.3634 100.114 53.4967 101.981 51.7634C103.848 49.9634 104.781 47.4634 104.781 44.2634C104.781 37.4634 100.981 34.0634 93.3809 34.0634H82.2809V54.3634H93.3809ZM143.121 33.9634V51.4634H166.621V62.5634H143.121V81.0634H169.621V92.4634H129.121V22.5634H169.621V33.9634H143.121ZM225.143 79.1634H197.343L192.743 92.4634H178.043L203.143 22.5634H219.443L244.543 92.4634H229.743L225.143 79.1634ZM221.343 67.9634L211.243 38.7634L201.143 67.9634H221.343ZM293.325 92.4634L267.925 61.3634V92.4634H253.925V22.6634H267.925V53.9634L293.325 22.6634H310.225L281.425 57.2634L311.025 92.4634H293.325ZM334.234 33.9634V51.4634H357.734V62.5634H334.234V81.0634H360.734V92.4634H320.234V22.5634H360.734V33.9634H334.234ZM409.457 92.4634L394.057 65.2634H387.457V92.4634H373.457V22.6634L399.657 22.6634C405.057 22.6634 409.657 23.63 413.457 25.5634C417.257 27.43 420.09 29.9967 421.957 33.2634C423.89 36.4634 424.857 40.0634 424.857 44.0634C424.857 48.6634 423.523 52.83 420.857 56.5634C418.19 60.23 414.223 62.7634 408.957 64.1634L425.657 92.4634H409.457ZM387.457 54.7634H399.157C402.957 54.7634 405.79 53.8634 407.657 52.0634C409.523 50.1967 410.457 47.63 410.457 44.3634C410.457 41.1634 409.523 38.6967 407.657 36.9634C405.79 35.1634 402.957 34.2634 399.157 34.2634H387.457V54.7634ZM461.619 93.1634C456.752 93.1634 452.352 92.33 448.419 90.6634C444.552 88.9967 441.486 86.5967 439.219 83.4634C436.952 80.33 435.786 76.63 435.719 72.3634H450.719C450.919 75.23 451.919 77.4967 453.719 79.1634C455.586 80.83 458.119 81.6634 461.319 81.6634C464.586 81.6634 467.152 80.8967 469.019 79.3634C470.886 77.7634 471.819 75.6967 471.819 73.1634C471.819 71.0967 471.186 69.3967 469.919 68.0634C468.652 66.73 467.052 65.6967 465.119 64.9634C463.252 64.1634 460.652 63.2967 457.319 62.3634C452.786 61.03 449.086 59.73 446.219 58.4634C443.419 57.13 440.986 55.1634 438.919 52.5634C436.919 49.8967 435.919 46.3634 435.919 41.9634C435.919 37.83 436.952 34.23 439.019 31.1634C441.086 28.0967 443.986 25.7634 447.719 24.1634C451.452 22.4967 455.719 21.6634 460.519 21.6634C467.719 21.6634 473.552 23.43 478.019 26.9634C482.552 30.43 485.052 35.2967 485.519 41.5634H470.119C469.986 39.1634 468.952 37.1967 467.019 35.6634C465.152 34.0634 462.652 33.2634 459.519 33.2634C456.786 33.2634 454.586 33.9634 452.919 35.3634C451.319 36.7634 450.519 38.7967 450.519 41.4634C450.519 43.33 451.119 44.8967 452.319 46.1634C453.586 47.3634 455.119 48.3634 456.919 49.1634C458.786 49.8967 461.386 50.7634 464.719 51.7634C469.252 53.0967 472.952 54.43 475.819 55.7634C478.686 57.0967 481.152 59.0967 483.219 61.7634C485.286 64.43 486.319 67.93 486.319 72.2634C486.319 75.9967 485.352 79.4634 483.419 82.6634C481.486 85.8634 478.652 88.43 474.919 90.3634C471.186 92.23 466.752 93.1634 461.619 93.1634Z" fill="#3F69FF"/>
<path d="M35.4434 91.1634C30.5767 91.1634 26.1767 90.33 22.2434 88.6634C18.3767 86.9967 15.31 84.5967 13.0434 81.4634C10.7767 78.33 9.61003 74.63 9.54336 70.3634H24.5434C24.7434 73.23 25.7434 75.4967 27.5434 77.1634C29.41 78.83 31.9434 79.6634 35.1434 79.6634C38.41 79.6634 40.9767 78.8967 42.8434 77.3634C44.71 75.7634 45.6434 73.6967 45.6434 71.1634C45.6434 69.0967 45.01 67.3967 43.7434 66.0634C42.4767 64.73 40.8767 63.6967 38.9434 62.9634C37.0767 62.1634 34.4767 61.2967 31.1434 60.3634C26.61 59.03 22.91 57.73 20.0434 56.4634C17.2434 55.13 14.81 53.1634 12.7434 50.5634C10.7434 47.8967 9.74336 44.3634 9.74336 39.9634C9.74336 35.83 10.7767 32.23 12.8434 29.1634C14.91 26.0967 17.81 23.7634 21.5434 22.1634C25.2767 20.4967 29.5434 19.6634 34.3434 19.6634C41.5434 19.6634 47.3767 21.43 51.8434 24.9634C56.3767 28.43 58.8767 33.2967 59.3434 39.5634H43.9434C43.81 37.1634 42.7767 35.1967 40.8434 33.6634C38.9767 32.0634 36.4767 31.2634 33.3434 31.2634C30.61 31.2634 28.41 31.9634 26.7434 33.3634C25.1434 34.7634 24.3434 36.7967 24.3434 39.4634C24.3434 41.33 24.9434 42.8967 26.1434 44.1634C27.41 45.3634 28.9434 46.3634 30.7434 47.1634C32.61 47.8967 35.21 48.7634 38.5434 49.7634C43.0767 51.0967 46.7767 52.43 49.6434 53.7634C52.51 55.0967 54.9767 57.0967 57.0434 59.7634C59.11 62.43 60.1434 65.93 60.1434 70.2634C60.1434 73.9967 59.1767 77.4634 57.2434 80.6634C55.31 83.8634 52.4767 86.43 48.7434 88.3634C45.01 90.23 40.5767 91.1634 35.4434 91.1634ZM123.181 42.2634C123.181 45.9967 122.281 49.4967 120.481 52.7634C118.748 56.03 115.981 58.6634 112.181 60.6634C108.448 62.6634 103.714 63.6634 97.9809 63.6634H86.2809V90.4634H72.2809V20.6634H97.9809C103.381 20.6634 107.981 21.5967 111.781 23.4634C115.581 25.33 118.414 27.8967 120.281 31.1634C122.214 34.43 123.181 38.13 123.181 42.2634ZM97.3809 52.3634C101.248 52.3634 104.114 51.4967 105.981 49.7634C107.848 47.9634 108.781 45.4634 108.781 42.2634C108.781 35.4634 104.981 32.0634 97.3809 32.0634H86.2809V52.3634H97.3809ZM147.121 31.9634V49.4634H170.621V60.5634H147.121V79.0634H173.621V90.4634H133.121V20.5634H173.621V31.9634H147.121ZM229.143 77.1634H201.343L196.743 90.4634H182.043L207.143 20.5634H223.443L248.543 90.4634H233.743L229.143 77.1634ZM225.343 65.9634L215.243 36.7634L205.143 65.9634H225.343ZM297.325 90.4634L271.925 59.3634V90.4634H257.925V20.6634H271.925V51.9634L297.325 20.6634H314.225L285.425 55.2634L315.025 90.4634H297.325ZM338.234 31.9634V49.4634H361.734V60.5634H338.234V79.0634H364.734V90.4634H324.234V20.5634H364.734V31.9634H338.234ZM413.457 90.4634L398.057 63.2634H391.457V90.4634H377.457V20.6634L403.657 20.6634C409.057 20.6634 413.657 21.63 417.457 23.5634C421.257 25.43 424.09 27.9967 425.957 31.2634C427.89 34.4634 428.857 38.0634 428.857 42.0634C428.857 46.6634 427.523 50.83 424.857 54.5634C422.19 58.23 418.223 60.7634 412.957 62.1634L429.657 90.4634H413.457ZM391.457 52.7634H403.157C406.957 52.7634 409.79 51.8634 411.657 50.0634C413.523 48.1967 414.457 45.63 414.457 42.3634C414.457 39.1634 413.523 36.6967 411.657 34.9634C409.79 33.1634 406.957 32.2634 403.157 32.2634H391.457V52.7634ZM465.619 91.1634C460.752 91.1634 456.352 90.33 452.419 88.6634C448.552 86.9967 445.486 84.5967 443.219 81.4634C440.952 78.33 439.786 74.63 439.719 70.3634H454.719C454.919 73.23 455.919 75.4967 457.719 77.1634C459.586 78.83 462.119 79.6634 465.319 79.6634C468.586 79.6634 471.152 78.8967 473.019 77.3634C474.886 75.7634 475.819 73.6967 475.819 71.1634C475.819 69.0967 475.186 67.3967 473.919 66.0634C472.652 64.73 471.052 63.6967 469.119 62.9634C467.252 62.1634 464.652 61.2967 461.319 60.3634C456.786 59.03 453.086 57.73 450.219 56.4634C447.419 55.13 444.986 53.1634 442.919 50.5634C440.919 47.8967 439.919 44.3634 439.919 39.9634C439.919 35.83 440.952 32.23 443.019 29.1634C445.086 26.0967 447.986 23.7634 451.719 22.1634C455.452 20.4967 459.719 19.6634 464.519 19.6634C471.719 19.6634 477.552 21.43 482.019 24.9634C486.552 28.43 489.052 33.2967 489.519 39.5634H474.119C473.986 37.1634 472.952 35.1967 471.019 33.6634C469.152 32.0634 466.652 31.2634 463.519 31.2634C460.786 31.2634 458.586 31.9634 456.919 33.3634C455.319 34.7634 454.519 36.7967 454.519 39.4634C454.519 41.33 455.119 42.8967 456.319 44.1634C457.586 45.3634 459.119 46.3634 460.919 47.1634C462.786 47.8967 465.386 48.7634 468.719 49.7634C473.252 51.0967 476.952 52.43 479.819 53.7634C482.686 55.0967 485.152 57.0967 487.219 59.7634C489.286 62.43 490.319 65.93 490.319 70.2634C490.319 73.9967 489.352 77.4634 487.419 80.6634C485.486 83.8634 482.652 86.43 478.919 88.3634C475.186 90.23 470.752 91.1634 465.619 91.1634Z" fill="#F34D4D"/>
<path d="M33.6055 92.1634C28.7388 92.1634 24.3388 91.33 20.4055 89.6634C16.5388 87.9967 13.4721 85.5967 11.2055 82.4634C8.9388 79.33 7.77214 75.63 7.70547 71.3634H22.7055C22.9055 74.23 23.9055 76.4967 25.7055 78.1634C27.5721 79.83 30.1055 80.6634 33.3055 80.6634C36.5721 80.6634 39.1388 79.8967 41.0055 78.3634C42.8721 76.7634 43.8055 74.6967 43.8055 72.1634C43.8055 70.0967 43.1721 68.3967 41.9055 67.0634C40.6388 65.73 39.0388 64.6967 37.1055 63.9634C35.2388 63.1634 32.6388 62.2967 29.3055 61.3634C24.7721 60.03 21.0721 58.73 18.2055 57.4634C15.4055 56.13 12.9721 54.1634 10.9055 51.5634C8.90547 48.8967 7.90547 45.3634 7.90547 40.9634C7.90547 36.83 8.9388 33.23 11.0055 30.1634C13.0721 27.0967 15.9721 24.7634 19.7055 23.1634C23.4388 21.4967 27.7055 20.6634 32.5055 20.6634C39.7055 20.6634 45.5388 22.43 50.0055 25.9634C54.5388 29.43 57.0388 34.2967 57.5055 40.5634H42.1055C41.9721 38.1634 40.9388 36.1967 39.0055 34.6634C37.1388 33.0634 34.6388 32.2634 31.5055 32.2634C28.7721 32.2634 26.5721 32.9634 24.9055 34.3634C23.3055 35.7634 22.5055 37.7967 22.5055 40.4634C22.5055 42.33 23.1055 43.8967 24.3055 45.1634C25.5721 46.3634 27.1055 47.3634 28.9055 48.1634C30.7721 48.8967 33.3721 49.7634 36.7055 50.7634C41.2388 52.0967 44.9388 53.43 47.8055 54.7634C50.6721 56.0967 53.1388 58.0967 55.2055 60.7634C57.2721 63.43 58.3055 66.93 58.3055 71.2634C58.3055 74.9967 57.3388 78.4634 55.4055 81.6634C53.4721 84.8634 50.6388 87.43 46.9055 89.3634C43.1721 91.23 38.7388 92.1634 33.6055 92.1634ZM121.343 43.2634C121.343 46.9967 120.443 50.4967 118.643 53.7634C116.91 57.03 114.143 59.6634 110.343 61.6634C106.61 63.6634 101.876 64.6634 96.143 64.6634H84.443V91.4634H70.443V21.6634H96.143C101.543 21.6634 106.143 22.5967 109.943 24.4634C113.743 26.33 116.576 28.8967 118.443 32.1634C120.376 35.43 121.343 39.13 121.343 43.2634ZM95.543 53.3634C99.4096 53.3634 102.276 52.4967 104.143 50.7634C106.01 48.9634 106.943 46.4634 106.943 43.2634C106.943 36.4634 103.143 33.0634 95.543 33.0634H84.443V53.3634H95.543ZM145.283 32.9634V50.4634H168.783V61.5634H145.283V80.0634H171.783V91.4634H131.283V21.5634H171.783V32.9634H145.283ZM227.305 78.1634H199.505L194.905 91.4634H180.205L205.305 21.5634H221.605L246.705 91.4634H231.905L227.305 78.1634ZM223.505 66.9634L213.405 37.7634L203.305 66.9634H223.505ZM295.488 91.4634L270.088 60.3634V91.4634H256.088V21.6634H270.088V52.9634L295.488 21.6634H312.388L283.588 56.2634L313.188 91.4634H295.488ZM336.396 32.9634V50.4634H359.896V61.5634H336.396V80.0634H362.896V91.4634H322.396V21.5634H362.896V32.9634H336.396ZM411.619 91.4634L396.219 64.2634H389.619V91.4634H375.619V21.6634L401.819 21.6634C407.219 21.6634 411.819 22.63 415.619 24.5634C419.419 26.43 422.252 28.9967 424.119 32.2634C426.052 35.4634 427.019 39.0634 427.019 43.0634C427.019 47.6634 425.685 51.83 423.019 55.5634C420.352 59.23 416.385 61.7634 411.119 63.1634L427.819 91.4634H411.619ZM389.619 53.7634H401.319C405.119 53.7634 407.952 52.8634 409.819 51.0634C411.685 49.1967 412.619 46.63 412.619 43.3634C412.619 40.1634 411.685 37.6967 409.819 35.9634C407.952 34.1634 405.119 33.2634 401.319 33.2634H389.619V53.7634ZM463.781 92.1634C458.915 92.1634 454.515 91.33 450.581 89.6634C446.715 87.9967 443.648 85.5967 441.381 82.4634C439.115 79.33 437.948 75.63 437.881 71.3634H452.881C453.081 74.23 454.081 76.4967 455.881 78.1634C457.748 79.83 460.281 80.6634 463.481 80.6634C466.748 80.6634 469.315 79.8967 471.181 78.3634C473.048 76.7634 473.981 74.6967 473.981 72.1634C473.981 70.0967 473.348 68.3967 472.081 67.0634C470.815 65.73 469.215 64.6967 467.281 63.9634C465.415 63.1634 462.815 62.2967 459.481 61.3634C454.948 60.03 451.248 58.73 448.381 57.4634C445.581 56.13 443.148 54.1634 441.081 51.5634C439.081 48.8967 438.081 45.3634 438.081 40.9634C438.081 36.83 439.115 33.23 441.181 30.1634C443.248 27.0967 446.148 24.7634 449.881 23.1634C453.615 21.4967 457.881 20.6634 462.681 20.6634C469.881 20.6634 475.715 22.43 480.181 25.9634C484.715 29.43 487.215 34.2967 487.681 40.5634H472.281C472.148 38.1634 471.115 36.1967 469.181 34.6634C467.315 33.0634 464.815 32.2634 461.681 32.2634C458.948 32.2634 456.748 32.9634 455.081 34.3634C453.481 35.7634 452.681 37.7967 452.681 40.4634C452.681 42.33 453.281 43.8967 454.481 45.1634C455.748 46.3634 457.281 47.3634 459.081 48.1634C460.948 48.8967 463.548 49.7634 466.881 50.7634C471.415 52.0967 475.115 53.43 477.981 54.7634C480.848 56.0967 483.315 58.0967 485.381 60.7634C487.448 63.43 488.481 66.93 488.481 71.2634C488.481 74.9967 487.515 78.4634 485.581 81.6634C483.648 84.8634 480.815 87.43 477.081 89.3634C473.348 91.23 468.915 92.1634 463.781 92.1634Z" fill="#FFBD5A"/>
<path d="M571.47 58.9914C571.189 59.4197 570.978 59.8054 571.002 59.9798C571.005 60.0007 571.013 60.0191 571.023 60.0368L571.023 60.0384C571.034 60.0601 571.046 60.0778 571.068 60.0947C571.1 60.1244 571.144 60.1485 571.199 60.1686C571.31 60.2024 572.115 60.1734 572.353 60.1541C572.995 60.1003 573.635 60.0545 574.283 60.0175C574.467 60.0071 574.65 60.0007 574.839 59.991C575.675 59.9492 576.508 59.9163 577.332 59.897C577.991 59.8801 578.641 59.8697 579.282 59.8633C579.46 59.8616 579.632 59.8608 579.806 59.86C580.399 59.8568 580.987 59.8552 581.547 59.8608C581.356 64.7739 581.122 69.9826 580.924 74.9422C580.896 75.708 580.862 76.4674 580.835 77.2179C580.774 78.817 580.774 78.817 580.774 78.817C580.771 78.9303 580.765 79.05 580.761 79.169C580.743 79.889 580.743 80.6829 580.897 80.8983C580.901 80.9087 580.908 80.9175 580.916 80.9256C580.943 80.9521 580.974 80.9641 581.008 80.9633C581.01 80.9633 581.013 80.9617 581.016 80.9617C581.046 80.9601 581.08 80.9489 581.115 80.9288C581.127 80.9224 581.139 80.9119 581.151 80.9031C581.178 80.8846 581.206 80.8637 581.235 80.8372C581.251 80.8235 581.266 80.8066 581.282 80.7914C581.31 80.7633 581.338 80.7335 581.367 80.6998C581.384 80.6797 581.401 80.6588 581.419 80.6371C581.447 80.6025 581.475 80.5664 581.503 80.5286C581.521 80.5037 581.541 80.478 581.56 80.4523C581.588 80.4137 581.616 80.3727 581.644 80.3325C581.663 80.3044 581.683 80.2771 581.702 80.249C581.731 80.2064 581.759 80.163 581.787 80.1188C581.805 80.0907 581.824 80.0625 581.842 80.0344C581.886 79.9669 581.929 79.8994 581.971 79.8335C581.971 79.8335 581.971 79.8335 582.68 78.7447C587.144 71.8967 592.955 63.5476 598.115 56.3412C599.648 54.1973 599.911 53.8357 599.911 53.8357C599.943 53.7979 599.972 53.7561 600.003 53.7176C600.668 52.8168 601.509 51.8469 601.848 51.1686C601.945 50.971 602.009 50.7934 601.999 50.6528C601.994 50.5861 601.96 50.5346 601.905 50.4928C601.887 50.4776 601.854 50.4711 601.83 50.4591C601.785 50.4366 601.744 50.4125 601.686 50.398C601.646 50.3876 601.598 50.3844 601.554 50.3771C601.5 50.3683 601.448 50.3578 601.387 50.353C601.333 50.349 601.275 50.349 601.218 50.3474C601.16 50.3458 601.101 50.3418 601.042 50.3418C600.834 50.3442 600.635 50.3546 600.501 50.3595C600.501 50.3595 600.501 50.3595 599.488 50.4036C596.544 50.5306 593.527 50.6921 590.656 50.889C590.873 45.8217 591.147 40.0095 591.374 34.9968C591.433 33.6051 591.433 33.6051 591.433 33.6051C591.434 33.5665 591.436 33.5215 591.438 33.4805C591.462 32.9485 591.483 32.2326 591.319 32.0236C591.291 31.9923 591.261 31.9682 591.225 31.9642C591.204 31.961 591.177 31.9682 591.152 31.9738C591.135 31.977 591.117 31.9786 591.098 31.9867C591.076 31.9955 591.051 32.0092 591.028 32.0228C591.008 32.0341 590.988 32.0437 590.966 32.0582C590.942 32.0751 590.915 32.0976 590.888 32.1185C590.865 32.1369 590.842 32.153 590.818 32.1747C590.791 32.1988 590.762 32.2285 590.733 32.2567C590.708 32.2808 590.684 32.3033 590.659 32.3298C590.627 32.3627 590.594 32.3997 590.561 32.4351C590.537 32.4624 590.512 32.4865 590.487 32.5154C590.451 32.5572 590.413 32.6022 590.376 32.6472C590.353 32.6745 590.33 32.7002 590.308 32.7284C590.258 32.7878 590.209 32.8505 590.159 32.9132C590.147 32.9285 590.135 32.9429 590.123 32.9582C590.06 33.0385 589.997 33.1205 589.933 33.2041C589.764 33.4259 589.592 33.6565 589.429 33.8718C589.429 33.8718 589.429 33.8718 588.24 35.4894C588.124 35.6517 587.996 35.8253 587.87 35.9925C584.537 40.5471 578.261 49.3871 578.261 49.3871C577.959 49.809 577.674 50.21 577.398 50.5909C577.178 50.9019 576.962 51.212 576.74 51.523C576.547 51.7978 573.924 55.5031 573.355 56.3115C572.371 57.7113 572.371 57.7113 572.371 57.7113C572.121 58.0649 571.758 58.5518 571.47 58.9914Z" fill="#FFBD5A"/>
<path d="M708.443 93.1634C703.577 93.1634 699.177 92.33 695.243 90.6634C691.377 88.9967 688.31 86.5967 686.043 83.4634C683.777 80.33 682.61 76.63 682.543 72.3634H697.543C697.743 75.23 698.743 77.4967 700.543 79.1634C702.41 80.83 704.943 81.6634 708.143 81.6634C711.41 81.6634 713.977 80.8967 715.843 79.3634C717.71 77.7634 718.643 75.6967 718.643 73.1634C718.643 71.0967 718.01 69.3967 716.743 68.0634C715.477 66.73 713.877 65.6967 711.943 64.9634C710.077 64.1634 707.477 63.2967 704.143 62.3634C699.61 61.03 695.91 59.73 693.043 58.4634C690.243 57.13 687.81 55.1634 685.743 52.5634C683.743 49.8967 682.743 46.3634 682.743 41.9634C682.743 37.83 683.777 34.23 685.843 31.1634C687.91 28.0967 690.81 25.7634 694.543 24.1634C698.277 22.4967 702.543 21.6634 707.343 21.6634C714.543 21.6634 720.377 23.43 724.843 26.9634C729.377 30.43 731.877 35.2967 732.343 41.5634H716.943C716.81 39.1634 715.777 37.1967 713.843 35.6634C711.977 34.0634 709.477 33.2634 706.343 33.2634C703.61 33.2634 701.41 33.9634 699.743 35.3634C698.143 36.7634 697.343 38.7967 697.343 41.4634C697.343 43.33 697.943 44.8967 699.143 46.1634C700.41 47.3634 701.943 48.3634 703.743 49.1634C705.61 49.8967 708.21 50.7634 711.543 51.7634C716.077 53.0967 719.777 54.43 722.643 55.7634C725.51 57.0967 727.977 59.0967 730.043 61.7634C732.11 64.43 733.143 67.93 733.143 72.2634C733.143 75.9967 732.177 79.4634 730.243 82.6634C728.31 85.8634 725.477 88.43 721.743 90.3634C718.01 92.23 713.577 93.1634 708.443 93.1634ZM796.181 44.2634C796.181 47.9967 795.281 51.4967 793.481 54.7634C791.748 58.03 788.981 60.6634 785.181 62.6634C781.448 64.6634 776.714 65.6634 770.981 65.6634H759.281V92.4634H745.281V22.6634H770.981C776.381 22.6634 780.981 23.5967 784.781 25.4634C788.581 27.33 791.414 29.8967 793.281 33.1634C795.214 36.43 796.181 40.13 796.181 44.2634ZM770.381 54.3634C774.248 54.3634 777.114 53.4967 778.981 51.7634C780.848 49.9634 781.781 47.4634 781.781 44.2634C781.781 37.4634 777.981 34.0634 770.381 34.0634H759.281V54.3634H770.381ZM820.121 33.9634V51.4634H843.621V62.5634H820.121V81.0634H846.621V92.4634H806.121V22.5634H846.621V33.9634H820.121ZM902.143 79.1634H874.343L869.743 92.4634H855.043L880.143 22.5634H896.443L921.543 92.4634H906.743L902.143 79.1634ZM898.343 67.9634L888.243 38.7634L878.143 67.9634H898.343ZM970.325 92.4634L944.925 61.3634V92.4634H930.925V22.6634H944.925V53.9634L970.325 22.6634H987.225L958.425 57.2634L988.025 92.4634H970.325ZM1011.23 33.9634V51.4634H1034.73V62.5634H1011.23V81.0634H1037.73V92.4634H997.234V22.5634H1037.73V33.9634H1011.23ZM1086.46 92.4634L1071.06 65.2634H1064.46V92.4634H1050.46V22.6634L1076.66 22.6634C1082.06 22.6634 1086.66 23.63 1090.46 25.5634C1094.26 27.43 1097.09 29.9967 1098.96 33.2634C1100.89 36.4634 1101.86 40.0634 1101.86 44.0634C1101.86 48.6634 1100.52 52.83 1097.86 56.5634C1095.19 60.23 1091.22 62.7634 1085.96 64.1634L1102.66 92.4634H1086.46ZM1064.46 54.7634H1076.16C1079.96 54.7634 1082.79 53.8634 1084.66 52.0634C1086.52 50.1967 1087.46 47.63 1087.46 44.3634C1087.46 41.1634 1086.52 38.6967 1084.66 36.9634C1082.79 35.1634 1079.96 34.2634 1076.16 34.2634H1064.46V54.7634ZM1138.62 93.1634C1133.75 93.1634 1129.35 92.33 1125.42 90.6634C1121.55 88.9967 1118.49 86.5967 1116.22 83.4634C1113.95 80.33 1112.79 76.63 1112.72 72.3634H1127.72C1127.92 75.23 1128.92 77.4967 1130.72 79.1634C1132.59 80.83 1135.12 81.6634 1138.32 81.6634C1141.59 81.6634 1144.15 80.8967 1146.02 79.3634C1147.89 77.7634 1148.82 75.6967 1148.82 73.1634C1148.82 71.0967 1148.19 69.3967 1146.92 68.0634C1145.65 66.73 1144.05 65.6967 1142.12 64.9634C1140.25 64.1634 1137.65 63.2967 1134.32 62.3634C1129.79 61.03 1126.09 59.73 1123.22 58.4634C1120.42 57.13 1117.99 55.1634 1115.92 52.5634C1113.92 49.8967 1112.92 46.3634 1112.92 41.9634C1112.92 37.83 1113.95 34.23 1116.02 31.1634C1118.09 28.0967 1120.99 25.7634 1124.72 24.1634C1128.45 22.4967 1132.72 21.6634 1137.52 21.6634C1144.72 21.6634 1150.55 23.43 1155.02 26.9634C1159.55 30.43 1162.05 35.2967 1162.52 41.5634H1147.12C1146.99 39.1634 1145.95 37.1967 1144.02 35.6634C1142.15 34.0634 1139.65 33.2634 1136.52 33.2634C1133.79 33.2634 1131.59 33.9634 1129.92 35.3634C1128.32 36.7634 1127.52 38.7967 1127.52 41.4634C1127.52 43.33 1128.12 44.8967 1129.32 46.1634C1130.59 47.3634 1132.12 48.3634 1133.92 49.1634C1135.79 49.8967 1138.39 50.7634 1141.72 51.7634C1146.25 53.0967 1149.95 54.43 1152.82 55.7634C1155.69 57.0967 1158.15 59.0967 1160.22 61.7634C1162.29 64.43 1163.32 67.93 1163.32 72.2634C1163.32 75.9967 1162.35 79.4634 1160.42 82.6634C1158.49 85.8634 1155.65 88.43 1151.92 90.3634C1148.19 92.23 1143.75 93.1634 1138.62 93.1634Z" fill="#3F69FF"/>
<path d="M712.443 91.1634C707.577 91.1634 703.177 90.33 699.243 88.6634C695.377 86.9967 692.31 84.5967 690.043 81.4634C687.777 78.33 686.61 74.63 686.543 70.3634H701.543C701.743 73.23 702.743 75.4967 704.543 77.1634C706.41 78.83 708.943 79.6634 712.143 79.6634C715.41 79.6634 717.977 78.8967 719.843 77.3634C721.71 75.7634 722.643 73.6967 722.643 71.1634C722.643 69.0967 722.01 67.3967 720.743 66.0634C719.477 64.73 717.877 63.6967 715.943 62.9634C714.077 62.1634 711.477 61.2967 708.143 60.3634C703.61 59.03 699.91 57.73 697.043 56.4634C694.243 55.13 691.81 53.1634 689.743 50.5634C687.743 47.8967 686.743 44.3634 686.743 39.9634C686.743 35.83 687.777 32.23 689.843 29.1634C691.91 26.0967 694.81 23.7634 698.543 22.1634C702.277 20.4967 706.543 19.6634 711.343 19.6634C718.543 19.6634 724.377 21.43 728.843 24.9634C733.377 28.43 735.877 33.2967 736.343 39.5634H720.943C720.81 37.1634 719.777 35.1967 717.843 33.6634C715.977 32.0634 713.477 31.2634 710.343 31.2634C707.61 31.2634 705.41 31.9634 703.743 33.3634C702.143 34.7634 701.343 36.7967 701.343 39.4634C701.343 41.33 701.943 42.8967 703.143 44.1634C704.41 45.3634 705.943 46.3634 707.743 47.1634C709.61 47.8967 712.21 48.7634 715.543 49.7634C720.077 51.0967 723.777 52.43 726.643 53.7634C729.51 55.0967 731.977 57.0967 734.043 59.7634C736.11 62.43 737.143 65.93 737.143 70.2634C737.143 73.9967 736.177 77.4634 734.243 80.6634C732.31 83.8634 729.477 86.43 725.743 88.3634C722.01 90.23 717.577 91.1634 712.443 91.1634ZM800.181 42.2634C800.181 45.9967 799.281 49.4967 797.481 52.7634C795.748 56.03 792.981 58.6634 789.181 60.6634C785.448 62.6634 780.714 63.6634 774.981 63.6634H763.281V90.4634H749.281V20.6634H774.981C780.381 20.6634 784.981 21.5967 788.781 23.4634C792.581 25.33 795.414 27.8967 797.281 31.1634C799.214 34.43 800.181 38.13 800.181 42.2634ZM774.381 52.3634C778.248 52.3634 781.114 51.4967 782.981 49.7634C784.848 47.9634 785.781 45.4634 785.781 42.2634C785.781 35.4634 781.981 32.0634 774.381 32.0634H763.281V52.3634H774.381ZM824.121 31.9634V49.4634H847.621V60.5634H824.121V79.0634H850.621V90.4634H810.121V20.5634H850.621V31.9634H824.121ZM906.143 77.1634H878.343L873.743 90.4634H859.043L884.143 20.5634H900.443L925.543 90.4634H910.743L906.143 77.1634ZM902.343 65.9634L892.243 36.7634L882.143 65.9634H902.343ZM974.325 90.4634L948.925 59.3634V90.4634H934.925V20.6634H948.925V51.9634L974.325 20.6634H991.225L962.425 55.2634L992.025 90.4634H974.325ZM1015.23 31.9634V49.4634H1038.73V60.5634H1015.23V79.0634H1041.73V90.4634H1001.23V20.5634H1041.73V31.9634H1015.23ZM1090.46 90.4634L1075.06 63.2634H1068.46V90.4634H1054.46V20.6634L1080.66 20.6634C1086.06 20.6634 1090.66 21.63 1094.46 23.5634C1098.26 25.43 1101.09 27.9967 1102.96 31.2634C1104.89 34.4634 1105.86 38.0634 1105.86 42.0634C1105.86 46.6634 1104.52 50.83 1101.86 54.5634C1099.19 58.23 1095.22 60.7634 1089.96 62.1634L1106.66 90.4634H1090.46ZM1068.46 52.7634H1080.16C1083.96 52.7634 1086.79 51.8634 1088.66 50.0634C1090.52 48.1967 1091.46 45.63 1091.46 42.3634C1091.46 39.1634 1090.52 36.6967 1088.66 34.9634C1086.79 33.1634 1083.96 32.2634 1080.16 32.2634H1068.46V52.7634ZM1142.62 91.1634C1137.75 91.1634 1133.35 90.33 1129.42 88.6634C1125.55 86.9967 1122.49 84.5967 1120.22 81.4634C1117.95 78.33 1116.79 74.63 1116.72 70.3634H1131.72C1131.92 73.23 1132.92 75.4967 1134.72 77.1634C1136.59 78.83 1139.12 79.6634 1142.32 79.6634C1145.59 79.6634 1148.15 78.8967 1150.02 77.3634C1151.89 75.7634 1152.82 73.6967 1152.82 71.1634C1152.82 69.0967 1152.19 67.3967 1150.92 66.0634C1149.65 64.73 1148.05 63.6967 1146.12 62.9634C1144.25 62.1634 1141.65 61.2967 1138.32 60.3634C1133.79 59.03 1130.09 57.73 1127.22 56.4634C1124.42 55.13 1121.99 53.1634 1119.92 50.5634C1117.92 47.8967 1116.92 44.3634 1116.92 39.9634C1116.92 35.83 1117.95 32.23 1120.02 29.1634C1122.09 26.0967 1124.99 23.7634 1128.72 22.1634C1132.45 20.4967 1136.72 19.6634 1141.52 19.6634C1148.72 19.6634 1154.55 21.43 1159.02 24.9634C1163.55 28.43 1166.05 33.2967 1166.52 39.5634H1151.12C1150.99 37.1634 1149.95 35.1967 1148.02 33.6634C1146.15 32.0634 1143.65 31.2634 1140.52 31.2634C1137.79 31.2634 1135.59 31.9634 1133.92 33.3634C1132.32 34.7634 1131.52 36.7967 1131.52 39.4634C1131.52 41.33 1132.12 42.8967 1133.32 44.1634C1134.59 45.3634 1136.12 46.3634 1137.92 47.1634C1139.79 47.8967 1142.39 48.7634 1145.72 49.7634C1150.25 51.0967 1153.95 52.43 1156.82 53.7634C1159.69 55.0967 1162.15 57.0967 1164.22 59.7634C1166.29 62.43 1167.32 65.93 1167.32 70.2634C1167.32 73.9967 1166.35 77.4634 1164.42 80.6634C1162.49 83.8634 1159.65 86.43 1155.92 88.3634C1152.19 90.23 1147.75 91.1634 1142.62 91.1634Z" fill="#F34D4D"/>
<path d="M710.605 92.1634C705.739 92.1634 701.339 91.33 697.405 89.6634C693.539 87.9967 690.472 85.5967 688.205 82.4634C685.939 79.33 684.772 75.63 684.705 71.3634H699.705C699.905 74.23 700.905 76.4967 702.705 78.1634C704.572 79.83 707.105 80.6634 710.305 80.6634C713.572 80.6634 716.139 79.8967 718.005 78.3634C719.872 76.7634 720.805 74.6967 720.805 72.1634C720.805 70.0967 720.172 68.3967 718.905 67.0634C717.639 65.73 716.039 64.6967 714.105 63.9634C712.239 63.1634 709.639 62.2967 706.305 61.3634C701.772 60.03 698.072 58.73 695.205 57.4634C692.405 56.13 689.972 54.1634 687.905 51.5634C685.905 48.8967 684.905 45.3634 684.905 40.9634C684.905 36.83 685.939 33.23 688.005 30.1634C690.072 27.0967 692.972 24.7634 696.705 23.1634C700.439 21.4967 704.705 20.6634 709.505 20.6634C716.705 20.6634 722.539 22.43 727.005 25.9634C731.539 29.43 734.039 34.2967 734.505 40.5634H719.105C718.972 38.1634 717.939 36.1967 716.005 34.6634C714.139 33.0634 711.639 32.2634 708.505 32.2634C705.772 32.2634 703.572 32.9634 701.905 34.3634C700.305 35.7634 699.505 37.7967 699.505 40.4634C699.505 42.33 700.105 43.8967 701.305 45.1634C702.572 46.3634 704.105 47.3634 705.905 48.1634C707.772 48.8967 710.372 49.7634 713.705 50.7634C718.239 52.0967 721.939 53.43 724.805 54.7634C727.672 56.0967 730.139 58.0967 732.205 60.7634C734.272 63.43 735.305 66.93 735.305 71.2634C735.305 74.9967 734.339 78.4634 732.405 81.6634C730.472 84.8634 727.639 87.43 723.905 89.3634C720.172 91.23 715.739 92.1634 710.605 92.1634ZM798.343 43.2634C798.343 46.9967 797.443 50.4967 795.643 53.7634C793.91 57.03 791.143 59.6634 787.343 61.6634C783.61 63.6634 778.876 64.6634 773.143 64.6634H761.443V91.4634H747.443V21.6634H773.143C778.543 21.6634 783.143 22.5967 786.943 24.4634C790.743 26.33 793.576 28.8967 795.443 32.1634C797.376 35.43 798.343 39.13 798.343 43.2634ZM772.543 53.3634C776.41 53.3634 779.276 52.4967 781.143 50.7634C783.01 48.9634 783.943 46.4634 783.943 43.2634C783.943 36.4634 780.143 33.0634 772.543 33.0634H761.443V53.3634H772.543ZM822.283 32.9634V50.4634H845.783V61.5634H822.283V80.0634H848.783V91.4634H808.283V21.5634H848.783V32.9634H822.283ZM904.305 78.1634H876.505L871.905 91.4634H857.205L882.305 21.5634H898.605L923.705 91.4634H908.905L904.305 78.1634ZM900.505 66.9634L890.405 37.7634L880.305 66.9634H900.505ZM972.488 91.4634L947.088 60.3634V91.4634H933.088V21.6634H947.088V52.9634L972.488 21.6634H989.388L960.588 56.2634L990.188 91.4634H972.488ZM1013.4 32.9634V50.4634H1036.9V61.5634H1013.4V80.0634H1039.9V91.4634H999.396V21.5634H1039.9V32.9634H1013.4ZM1088.62 91.4634L1073.22 64.2634H1066.62V91.4634H1052.62V21.6634L1078.82 21.6634C1084.22 21.6634 1088.82 22.63 1092.62 24.5634C1096.42 26.43 1099.25 28.9967 1101.12 32.2634C1103.05 35.4634 1104.02 39.0634 1104.02 43.0634C1104.02 47.6634 1102.69 51.83 1100.02 55.5634C1097.35 59.23 1093.39 61.7634 1088.12 63.1634L1104.82 91.4634H1088.62ZM1066.62 53.7634H1078.32C1082.12 53.7634 1084.95 52.8634 1086.82 51.0634C1088.69 49.1967 1089.62 46.63 1089.62 43.3634C1089.62 40.1634 1088.69 37.6967 1086.82 35.9634C1084.95 34.1634 1082.12 33.2634 1078.32 33.2634H1066.62V53.7634ZM1140.78 92.1634C1135.91 92.1634 1131.51 91.33 1127.58 89.6634C1123.71 87.9967 1120.65 85.5967 1118.38 82.4634C1116.11 79.33 1114.95 75.63 1114.88 71.3634H1129.88C1130.08 74.23 1131.08 76.4967 1132.88 78.1634C1134.75 79.83 1137.28 80.6634 1140.48 80.6634C1143.75 80.6634 1146.31 79.8967 1148.18 78.3634C1150.05 76.7634 1150.98 74.6967 1150.98 72.1634C1150.98 70.0967 1150.35 68.3967 1149.08 67.0634C1147.81 65.73 1146.21 64.6967 1144.28 63.9634C1142.41 63.1634 1139.81 62.2967 1136.48 61.3634C1131.95 60.03 1128.25 58.73 1125.38 57.4634C1122.58 56.13 1120.15 54.1634 1118.08 51.5634C1116.08 48.8967 1115.08 45.3634 1115.08 40.9634C1115.08 36.83 1116.11 33.23 1118.18 30.1634C1120.25 27.0967 1123.15 24.7634 1126.88 23.1634C1130.61 21.4967 1134.88 20.6634 1139.68 20.6634C1146.88 20.6634 1152.71 22.43 1157.18 25.9634C1161.71 29.43 1164.21 34.2967 1164.68 40.5634H1149.28C1149.15 38.1634 1148.11 36.1967 1146.18 34.6634C1144.31 33.0634 1141.81 32.2634 1138.68 32.2634C1135.95 32.2634 1133.75 32.9634 1132.08 34.3634C1130.48 35.7634 1129.68 37.7967 1129.68 40.4634C1129.68 42.33 1130.28 43.8967 1131.48 45.1634C1132.75 46.3634 1134.28 47.3634 1136.08 48.1634C1137.95 48.8967 1140.55 49.7634 1143.88 50.7634C1148.41 52.0967 1152.11 53.43 1154.98 54.7634C1157.85 56.0967 1160.31 58.0967 1162.38 60.7634C1164.45 63.43 1165.48 66.93 1165.48 71.2634C1165.48 74.9967 1164.51 78.4634 1162.58 81.6634C1160.65 84.8634 1157.81 87.43 1154.08 89.3634C1150.35 91.23 1145.91 92.1634 1140.78 92.1634Z" fill="#FFBD5A"/>
<path d="M1248.47 58.9914C1248.19 59.4197 1247.98 59.8054 1248 59.9798C1248.01 60.0007 1248.01 60.0191 1248.02 60.0368L1248.02 60.0384C1248.03 60.0601 1248.05 60.0778 1248.07 60.0947C1248.1 60.1244 1248.14 60.1485 1248.2 60.1686C1248.31 60.2024 1249.11 60.1734 1249.35 60.1541C1249.99 60.1003 1250.64 60.0545 1251.28 60.0175C1251.47 60.0071 1251.65 60.0007 1251.84 59.991C1252.68 59.9492 1253.51 59.9163 1254.33 59.897C1254.99 59.8801 1255.64 59.8697 1256.28 59.8633C1256.46 59.8616 1256.63 59.8608 1256.81 59.86C1257.4 59.8568 1257.99 59.8552 1258.55 59.8608C1258.36 64.7739 1258.12 69.9826 1257.92 74.9422C1257.9 75.708 1257.86 76.4674 1257.84 77.2179C1257.77 78.817 1257.77 78.817 1257.77 78.817C1257.77 78.9303 1257.76 79.05 1257.76 79.169C1257.74 79.889 1257.74 80.6829 1257.9 80.8983C1257.9 80.9087 1257.91 80.9175 1257.92 80.9256C1257.94 80.9521 1257.97 80.9641 1258.01 80.9633C1258.01 80.9633 1258.01 80.9617 1258.02 80.9617C1258.05 80.9601 1258.08 80.9489 1258.12 80.9288C1258.13 80.9224 1258.14 80.9119 1258.15 80.9031C1258.18 80.8846 1258.21 80.8637 1258.24 80.8372C1258.25 80.8235 1258.27 80.8066 1258.28 80.7914C1258.31 80.7633 1258.34 80.7335 1258.37 80.6998C1258.38 80.6797 1258.4 80.6588 1258.42 80.6371C1258.45 80.6025 1258.47 80.5664 1258.5 80.5286C1258.52 80.5037 1258.54 80.478 1258.56 80.4523C1258.59 80.4137 1258.62 80.3727 1258.64 80.3325C1258.66 80.3044 1258.68 80.2771 1258.7 80.249C1258.73 80.2064 1258.76 80.163 1258.79 80.1188C1258.81 80.0907 1258.82 80.0625 1258.84 80.0344C1258.89 79.9669 1258.93 79.8994 1258.97 79.8335C1258.97 79.8335 1258.97 79.8335 1259.68 78.7447C1264.14 71.8967 1269.96 63.5476 1275.12 56.3412C1276.65 54.1973 1276.91 53.8357 1276.91 53.8357C1276.94 53.7979 1276.97 53.7561 1277 53.7176C1277.67 52.8168 1278.51 51.8469 1278.85 51.1686C1278.95 50.971 1279.01 50.7934 1279 50.6528C1278.99 50.5861 1278.96 50.5346 1278.91 50.4928C1278.89 50.4776 1278.85 50.4711 1278.83 50.4591C1278.78 50.4366 1278.74 50.4125 1278.69 50.398C1278.65 50.3876 1278.6 50.3844 1278.55 50.3771C1278.5 50.3683 1278.45 50.3578 1278.39 50.353C1278.33 50.349 1278.28 50.349 1278.22 50.3474C1278.16 50.3458 1278.1 50.3418 1278.04 50.3418C1277.83 50.3442 1277.63 50.3546 1277.5 50.3595C1277.5 50.3595 1277.5 50.3595 1276.49 50.4036C1273.54 50.5306 1270.53 50.6921 1267.66 50.889C1267.87 45.8217 1268.15 40.0095 1268.37 34.9968C1268.43 33.6051 1268.43 33.6051 1268.43 33.6051C1268.43 33.5665 1268.44 33.5215 1268.44 33.4805C1268.46 32.9485 1268.48 32.2326 1268.32 32.0236C1268.29 31.9923 1268.26 31.9682 1268.23 31.9642C1268.2 31.961 1268.18 31.9682 1268.15 31.9738C1268.13 31.977 1268.12 31.9786 1268.1 31.9867C1268.08 31.9955 1268.05 32.0092 1268.03 32.0228C1268.01 32.0341 1267.99 32.0437 1267.97 32.0582C1267.94 32.0751 1267.92 32.0976 1267.89 32.1185C1267.87 32.1369 1267.84 32.153 1267.82 32.1747C1267.79 32.1988 1267.76 32.2285 1267.73 32.2567C1267.71 32.2808 1267.68 32.3033 1267.66 32.3298C1267.63 32.3627 1267.59 32.3997 1267.56 32.4351C1267.54 32.4624 1267.51 32.4865 1267.49 32.5154C1267.45 32.5572 1267.41 32.6022 1267.38 32.6472C1267.35 32.6745 1267.33 32.7002 1267.31 32.7284C1267.26 32.7878 1267.21 32.8505 1267.16 32.9132C1267.15 32.9285 1267.14 32.9429 1267.12 32.9582C1267.06 33.0385 1267 33.1205 1266.93 33.2041C1266.76 33.4259 1266.59 33.6565 1266.43 33.8718C1266.43 33.8718 1266.43 33.8718 1265.24 35.4894C1265.12 35.6517 1265 35.8253 1264.87 35.9925C1261.54 40.5471 1255.26 49.3871 1255.26 49.3871C1254.96 49.809 1254.67 50.21 1254.4 50.5909C1254.18 50.9019 1253.96 51.212 1253.74 51.523C1253.55 51.7978 1250.92 55.5031 1250.36 56.3115C1249.37 57.7113 1249.37 57.7113 1249.37 57.7113C1249.12 58.0649 1248.76 58.5518 1248.47 58.9914Z" fill="#FFBD5A"/>
</svg>
