<svg width="1409" height="111" viewBox="0 0 1409 111" fill="none" xmlns="http://www.w3.org/2000/svg">
<path d="M3.89648 55.4048C3.89648 48.5381 5.42982 42.4048 8.49648 37.0048C11.6298 31.5381 15.8632 27.3048 21.1965 24.3048C26.5965 21.2381 32.6298 19.7048 39.2965 19.7048C47.0965 19.7048 53.9298 21.7048 59.7965 25.7048C65.6632 29.7048 69.7632 35.2381 72.0965 42.3048H55.9965C54.3965 38.9714 52.1298 36.4714 49.1965 34.8048C46.3298 33.1381 42.9965 32.3048 39.1965 32.3048C35.1298 32.3048 31.4965 33.2714 28.2965 35.2048C25.1632 37.0714 22.6965 39.7381 20.8965 43.2048C19.1632 46.6714 18.2965 50.7381 18.2965 55.4048C18.2965 60.0048 19.1632 64.0715 20.8965 67.6048C22.6965 71.0715 25.1632 73.7715 28.2965 75.7048C31.4965 77.5715 35.1298 78.5048 39.1965 78.5048C42.9965 78.5048 46.3298 77.6715 49.1965 76.0048C52.1298 74.2715 54.3965 71.7381 55.9965 68.4048H72.0965C69.7632 75.5381 65.6632 81.1048 59.7965 85.1048C53.9965 89.0381 47.1632 91.0048 39.2965 91.0048C32.6298 91.0048 26.5965 89.5048 21.1965 86.5048C15.8632 83.4381 11.6298 79.2048 8.49648 73.8048C5.42982 68.4048 3.89648 62.2715 3.89648 55.4048ZM120.054 90.4048L104.654 63.2048H98.0543V90.4048H84.0543V20.6048H110.254C115.654 20.6048 120.254 21.5714 124.054 23.5048C127.854 25.3714 130.688 27.9381 132.554 31.2048C134.488 34.4048 135.454 38.0048 135.454 42.0048C135.454 46.6048 134.121 50.7714 131.454 54.5048C128.788 58.1714 124.821 60.7048 119.554 62.1048L136.254 90.4048H120.054ZM98.0543 52.7048H109.754C113.554 52.7048 116.388 51.8048 118.254 50.0048C120.121 48.1381 121.054 45.5714 121.054 42.3048C121.054 39.1048 120.121 36.6381 118.254 34.9048C116.388 33.1048 113.554 32.2048 109.754 32.2048H98.0543V52.7048ZM162.117 31.9048V49.4048H185.617V60.5048H162.117V79.0048H188.617V90.4048H148.117V20.5048H188.617V31.9048H162.117ZM225.739 20.6048C233.073 20.6048 239.506 22.0381 245.039 24.9048C250.639 27.7714 254.939 31.8714 257.939 37.2048C261.006 42.4715 262.539 48.6048 262.539 55.6048C262.539 62.6048 261.006 68.7381 257.939 74.0048C254.939 79.2048 250.639 83.2381 245.039 86.1048C239.506 88.9715 233.073 90.4048 225.739 90.4048H201.339V20.6048H225.739ZM225.239 78.5048C232.573 78.5048 238.239 76.5048 242.239 72.5048C246.239 68.5048 248.239 62.8715 248.239 55.6048C248.239 48.3381 246.239 42.6715 242.239 38.6048C238.239 34.4714 232.573 32.4048 225.239 32.4048H215.339V78.5048H225.239ZM287.019 20.6048V90.4048H273.019V20.6048H287.019ZM348.351 20.6048V31.9048H329.751V90.4048H315.751V31.9048H297.151V20.6048H348.351ZM382.666 91.1048C377.799 91.1048 373.399 90.2715 369.466 88.6048C365.599 86.9381 362.533 84.5381 360.266 81.4048C357.999 78.2715 356.833 74.5715 356.766 70.3048H371.766C371.966 73.1715 372.966 75.4381 374.766 77.1048C376.633 78.7715 379.166 79.6048 382.366 79.6048C385.633 79.6048 388.199 78.8381 390.066 77.3048C391.933 75.7048 392.866 73.6381 392.866 71.1048C392.866 69.0381 392.233 67.3381 390.966 66.0048C389.699 64.6715 388.099 63.6381 386.166 62.9048C384.299 62.1048 381.699 61.2381 378.366 60.3048C373.833 58.9715 370.133 57.6715 367.266 56.4048C364.466 55.0715 362.033 53.1048 359.966 50.5048C357.966 47.8381 356.966 44.3048 356.966 39.9048C356.966 35.7714 357.999 32.1714 360.066 29.1048C362.133 26.0381 365.033 23.7048 368.766 22.1048C372.499 20.4381 376.766 19.6048 381.566 19.6048C388.766 19.6048 394.599 21.3715 399.066 24.9048C403.599 28.3714 406.099 33.2381 406.566 39.5048H391.166C391.033 37.1048 389.999 35.1381 388.066 33.6048C386.199 32.0048 383.699 31.2048 380.566 31.2048C377.833 31.2048 375.633 31.9048 373.966 33.3048C372.366 34.7048 371.566 36.7381 371.566 39.4048C371.566 41.2714 372.166 42.8381 373.366 44.1048C374.633 45.3048 376.166 46.3048 377.966 47.1048C379.833 47.8381 382.433 48.7048 385.766 49.7048C390.299 51.0381 393.999 52.3714 396.866 53.7048C399.733 55.0381 402.199 57.0381 404.266 59.7048C406.333 62.3715 407.366 65.8715 407.366 70.2048C407.366 73.9381 406.399 77.4048 404.466 80.6048C402.533 83.8048 399.699 86.3715 395.966 88.3048C392.233 90.1715 387.799 91.1048 382.666 91.1048Z" fill="black"/>
<path d="M488.47 57.9328C488.189 58.3611 487.978 58.7468 488.002 58.9212C488.005 58.9421 488.013 58.9605 488.023 58.9782L488.023 58.9798C488.034 59.0015 488.046 59.0192 488.068 59.0361C488.1 59.0658 488.144 59.0899 488.199 59.11C488.31 59.1438 489.115 59.1148 489.353 59.0955C489.995 59.0417 490.635 58.9959 491.283 58.9589C491.467 58.9485 491.65 58.9421 491.839 58.9324C492.675 58.8906 493.508 58.8577 494.332 58.8384C494.991 58.8215 495.641 58.8111 496.282 58.8047C496.46 58.803 496.632 58.8022 496.806 58.8014C497.399 58.7982 497.987 58.7966 498.547 58.8022C498.356 63.7153 498.122 68.924 497.924 73.8836C497.896 74.6494 497.862 75.4088 497.835 76.1593C497.774 77.7584 497.774 77.7584 497.774 77.7584C497.771 77.8717 497.765 77.9915 497.761 78.1104C497.743 78.8304 497.743 79.6243 497.897 79.8397C497.901 79.8501 497.908 79.8589 497.916 79.867C497.943 79.8935 497.974 79.9056 498.008 79.9048C498.01 79.9048 498.013 79.9031 498.016 79.9031C498.046 79.9015 498.08 79.8903 498.115 79.8702C498.127 79.8638 498.139 79.8533 498.151 79.8445C498.178 79.826 498.206 79.8051 498.235 79.7786C498.251 79.7649 498.266 79.7481 498.282 79.7328C498.31 79.7047 498.338 79.6749 498.367 79.6412C498.384 79.6211 498.401 79.6002 498.419 79.5785C498.447 79.5439 498.475 79.5078 498.503 79.47C498.521 79.4451 498.541 79.4194 498.56 79.3937C498.588 79.3551 498.616 79.3141 498.644 79.2739C498.663 79.2458 498.683 79.2185 498.702 79.1904C498.731 79.1478 498.759 79.1044 498.787 79.0602C498.805 79.0321 498.824 79.0039 498.842 78.9758C498.886 78.9083 498.929 78.8408 498.971 78.7749C498.971 78.7749 498.971 78.7749 499.68 77.6861C504.144 70.8381 509.955 62.489 515.115 55.2826C516.648 53.1387 516.911 52.7771 516.911 52.7771C516.943 52.7393 516.972 52.6975 517.003 52.659C517.668 51.7582 518.509 50.7883 518.848 50.1101C518.945 49.9124 519.009 49.7348 518.999 49.5942C518.994 49.5275 518.96 49.476 518.905 49.4342C518.887 49.419 518.854 49.4126 518.83 49.4005C518.785 49.378 518.744 49.3539 518.686 49.3394C518.646 49.329 518.598 49.3258 518.554 49.3185C518.5 49.3097 518.448 49.2993 518.387 49.2944C518.333 49.2904 518.275 49.2904 518.218 49.2888C518.16 49.2872 518.101 49.2832 518.042 49.2832C517.834 49.2856 517.635 49.296 517.501 49.3009C517.501 49.3009 517.501 49.3009 516.488 49.3451C513.544 49.472 510.527 49.6335 507.656 49.8304C507.873 44.7631 508.147 38.9509 508.374 33.9382C508.433 32.5465 508.433 32.5465 508.433 32.5465C508.434 32.5079 508.436 32.4629 508.438 32.4219C508.462 31.8899 508.483 31.174 508.319 30.965C508.291 30.9337 508.261 30.9096 508.225 30.9056C508.204 30.9024 508.177 30.9096 508.152 30.9152C508.135 30.9184 508.117 30.92 508.098 30.9281C508.076 30.9369 508.051 30.9506 508.028 30.9642C508.008 30.9755 507.988 30.9851 507.966 30.9996C507.942 31.0165 507.915 31.039 507.888 31.0599C507.865 31.0783 507.842 31.0944 507.818 31.1161C507.791 31.1402 507.762 31.17 507.733 31.1981C507.708 31.2222 507.684 31.2447 507.659 31.2712C507.627 31.3041 507.594 31.3411 507.561 31.3765C507.537 31.4038 507.512 31.4279 507.487 31.4568C507.451 31.4986 507.413 31.5436 507.376 31.5886C507.353 31.6159 507.33 31.6416 507.308 31.6698C507.258 31.7292 507.209 31.7919 507.159 31.8546C507.147 31.8699 507.135 31.8843 507.123 31.8996C507.06 31.9799 506.997 32.0619 506.933 32.1455C506.764 32.3673 506.592 32.5979 506.429 32.8132C506.429 32.8132 506.429 32.8132 505.24 34.4308C505.124 34.5932 504.996 34.7667 504.87 34.9339C501.537 39.4885 495.261 48.3285 495.261 48.3285C494.959 48.7504 494.674 49.1514 494.398 49.5323C494.178 49.8433 493.962 50.1534 493.74 50.4644C493.547 50.7392 490.924 54.4445 490.355 55.2529C489.371 56.6527 489.371 56.6527 489.371 56.6527C489.121 57.0063 488.758 57.4932 488.47 57.9328Z" fill="black"/>
<path d="M648.847 20.6048V31.9048H630.247V90.4048H616.247V31.9048H597.647V20.6048H648.847ZM716.962 20.6048V90.4048H702.962V60.7048H673.062V90.4048H659.062V20.6048H673.062V49.3048H702.962V20.6048H716.962ZM744.742 31.9048V49.4048H768.242V60.5048H744.742V79.0048H771.242V90.4048H730.742V20.5048H771.242V31.9048H744.742ZM847.393 54.6048C851.326 55.3381 854.559 57.3048 857.093 60.5048C859.626 63.7048 860.893 67.3715 860.893 71.5048C860.893 75.2381 859.959 78.5381 858.093 81.4048C856.293 84.2048 853.659 86.4048 850.193 88.0048C846.726 89.6048 842.626 90.4048 837.893 90.4048H807.793V20.6048H836.593C841.326 20.6048 845.393 21.3715 848.793 22.9048C852.259 24.4381 854.859 26.5715 856.593 29.3048C858.393 32.0381 859.293 35.1381 859.293 38.6048C859.293 42.6715 858.193 46.0715 855.993 48.8048C853.859 51.5381 850.993 53.4714 847.393 54.6048ZM821.793 49.4048H834.593C837.926 49.4048 840.493 48.6714 842.293 47.2048C844.093 45.6715 844.993 43.5048 844.993 40.7048C844.993 37.9048 844.093 35.7381 842.293 34.2048C840.493 32.6714 837.926 31.9048 834.593 31.9048H821.793V49.4048ZM835.893 79.0048C839.293 79.0048 841.926 78.2048 843.793 76.6048C845.726 75.0048 846.693 72.7381 846.693 69.8048C846.693 66.8048 845.693 64.4714 843.693 62.8048C841.693 61.0714 838.993 60.2048 835.593 60.2048H821.793V79.0048H835.893ZM904.45 91.1048C897.917 91.1048 891.917 89.5715 886.45 86.5048C880.984 83.4381 876.65 79.2048 873.45 73.8048C870.25 68.3381 868.65 62.1715 868.65 55.3048C868.65 48.5048 870.25 42.4048 873.45 37.0048C876.65 31.5381 880.984 27.2714 886.45 24.2048C891.917 21.1381 897.917 19.6048 904.45 19.6048C911.05 19.6048 917.05 21.1381 922.45 24.2048C927.917 27.2714 932.217 31.5381 935.35 37.0048C938.55 42.4048 940.15 48.5048 940.15 55.3048C940.15 62.1715 938.55 68.3381 935.35 73.8048C932.217 79.2048 927.917 83.4381 922.45 86.5048C916.984 89.5715 910.984 91.1048 904.45 91.1048ZM904.45 78.6048C908.65 78.6048 912.35 77.6715 915.55 75.8048C918.75 73.8715 921.25 71.1381 923.05 67.6048C924.85 64.0715 925.75 59.9715 925.75 55.3048C925.75 50.6381 924.85 46.5714 923.05 43.1048C921.25 39.5714 918.75 36.8714 915.55 35.0048C912.35 33.1381 908.65 32.2048 904.45 32.2048C900.25 32.2048 896.517 33.1381 893.25 35.0048C890.05 36.8714 887.55 39.5714 885.75 43.1048C883.95 46.5714 883.05 50.6381 883.05 55.3048C883.05 59.9715 883.95 64.0715 885.75 67.6048C887.55 71.1381 890.05 73.8715 893.25 75.8048C896.517 77.6715 900.25 78.6048 904.45 78.6048ZM998.066 20.6048V31.9048H979.466V90.4048H965.466V31.9048H946.866V20.6048L998.066 20.6048ZM1055.78 20.6048V31.9048H1037.18V90.4048H1023.18V31.9048H1004.58V20.6048H1055.78ZM1098.4 91.1048C1091.86 91.1048 1085.86 89.5715 1080.4 86.5048C1074.93 83.4381 1070.6 79.2048 1067.4 73.8048C1064.2 68.3381 1062.6 62.1715 1062.6 55.3048C1062.6 48.5048 1064.2 42.4048 1067.4 37.0048C1070.6 31.5381 1074.93 27.2714 1080.4 24.2048C1085.86 21.1381 1091.86 19.6048 1098.4 19.6048C1105 19.6048 1111 21.1381 1116.4 24.2048C1121.86 27.2714 1126.16 31.5381 1129.3 37.0048C1132.5 42.4048 1134.1 48.5048 1134.1 55.3048C1134.1 62.1715 1132.5 68.3381 1129.3 73.8048C1126.16 79.2048 1121.86 83.4381 1116.4 86.5048C1110.93 89.5715 1104.93 91.1048 1098.4 91.1048ZM1098.4 78.6048C1102.6 78.6048 1106.3 77.6715 1109.5 75.8048C1112.7 73.8715 1115.2 71.1381 1117 67.6048C1118.8 64.0715 1119.7 59.9715 1119.7 55.3048C1119.7 50.6381 1118.8 46.5714 1117 43.1048C1115.2 39.5714 1112.7 36.8714 1109.5 35.0048C1106.3 33.1381 1102.6 32.2048 1098.4 32.2048C1094.2 32.2048 1090.46 33.1381 1087.2 35.0048C1084 36.8714 1081.5 39.5714 1079.7 43.1048C1077.9 46.5714 1077 50.6381 1077 55.3048C1077 59.9715 1077.9 64.0715 1079.7 67.6048C1081.5 71.1381 1084 73.8715 1087.2 75.8048C1090.46 77.6715 1094.2 78.6048 1098.4 78.6048ZM1220.61 20.6048V90.4048H1206.61V45.0048L1187.91 90.4048H1177.31L1158.51 45.0048V90.4048H1144.51V20.6048H1160.41L1182.61 72.5048L1204.81 20.6048H1220.61Z" fill="black"/>
<path d="M1303.47 57.9328C1303.19 58.3611 1302.98 58.7468 1303 58.9212C1303.01 58.9421 1303.01 58.9605 1303.02 58.9782L1303.02 58.9798C1303.03 59.0015 1303.05 59.0192 1303.07 59.0361C1303.1 59.0658 1303.14 59.0899 1303.2 59.11C1303.31 59.1438 1304.11 59.1148 1304.35 59.0955C1304.99 59.0417 1305.64 58.9959 1306.28 58.9589C1306.47 58.9485 1306.65 58.9421 1306.84 58.9324C1307.68 58.8906 1308.51 58.8577 1309.33 58.8384C1309.99 58.8215 1310.64 58.8111 1311.28 58.8047C1311.46 58.803 1311.63 58.8022 1311.81 58.8014C1312.4 58.7982 1312.99 58.7966 1313.55 58.8022C1313.36 63.7153 1313.12 68.924 1312.92 73.8836C1312.9 74.6494 1312.86 75.4088 1312.84 76.1593C1312.77 77.7584 1312.77 77.7584 1312.77 77.7584C1312.77 77.8717 1312.76 77.9915 1312.76 78.1104C1312.74 78.8304 1312.74 79.6243 1312.9 79.8397C1312.9 79.8501 1312.91 79.8589 1312.92 79.867C1312.94 79.8935 1312.97 79.9056 1313.01 79.9048C1313.01 79.9048 1313.01 79.9031 1313.02 79.9031C1313.05 79.9015 1313.08 79.8903 1313.12 79.8702C1313.13 79.8638 1313.14 79.8533 1313.15 79.8445C1313.18 79.826 1313.21 79.8051 1313.24 79.7786C1313.25 79.7649 1313.27 79.7481 1313.28 79.7328C1313.31 79.7047 1313.34 79.6749 1313.37 79.6412C1313.38 79.6211 1313.4 79.6002 1313.42 79.5785C1313.45 79.5439 1313.47 79.5078 1313.5 79.47C1313.52 79.4451 1313.54 79.4194 1313.56 79.3937C1313.59 79.3551 1313.62 79.3141 1313.64 79.2739C1313.66 79.2458 1313.68 79.2185 1313.7 79.1904C1313.73 79.1478 1313.76 79.1044 1313.79 79.0602C1313.81 79.0321 1313.82 79.0039 1313.84 78.9758C1313.89 78.9083 1313.93 78.8408 1313.97 78.7749C1313.97 78.7749 1313.97 78.7749 1314.68 77.6861C1319.14 70.8381 1324.96 62.489 1330.12 55.2826C1331.65 53.1387 1331.91 52.7771 1331.91 52.7771C1331.94 52.7393 1331.97 52.6975 1332 52.659C1332.67 51.7582 1333.51 50.7883 1333.85 50.1101C1333.95 49.9124 1334.01 49.7348 1334 49.5942C1333.99 49.5275 1333.96 49.476 1333.91 49.4342C1333.89 49.419 1333.85 49.4126 1333.83 49.4005C1333.78 49.378 1333.74 49.3539 1333.69 49.3394C1333.65 49.329 1333.6 49.3258 1333.55 49.3185C1333.5 49.3097 1333.45 49.2993 1333.39 49.2944C1333.33 49.2904 1333.28 49.2904 1333.22 49.2888C1333.16 49.2872 1333.1 49.2832 1333.04 49.2832C1332.83 49.2856 1332.63 49.296 1332.5 49.3009C1332.5 49.3009 1332.5 49.3009 1331.49 49.3451C1328.54 49.472 1325.53 49.6335 1322.66 49.8304C1322.87 44.7631 1323.15 38.9509 1323.37 33.9382C1323.43 32.5465 1323.43 32.5465 1323.43 32.5465C1323.43 32.5079 1323.44 32.4629 1323.44 32.4219C1323.46 31.8899 1323.48 31.174 1323.32 30.965C1323.29 30.9337 1323.26 30.9096 1323.23 30.9056C1323.2 30.9024 1323.18 30.9096 1323.15 30.9152C1323.13 30.9184 1323.12 30.92 1323.1 30.9281C1323.08 30.9369 1323.05 30.9506 1323.03 30.9642C1323.01 30.9755 1322.99 30.9851 1322.97 30.9996C1322.94 31.0165 1322.92 31.039 1322.89 31.0599C1322.87 31.0783 1322.84 31.0944 1322.82 31.1161C1322.79 31.1402 1322.76 31.17 1322.73 31.1981C1322.71 31.2222 1322.68 31.2447 1322.66 31.2712C1322.63 31.3041 1322.59 31.3411 1322.56 31.3765C1322.54 31.4038 1322.51 31.4279 1322.49 31.4568C1322.45 31.4986 1322.41 31.5436 1322.38 31.5886C1322.35 31.6159 1322.33 31.6416 1322.31 31.6698C1322.26 31.7292 1322.21 31.7919 1322.16 31.8546C1322.15 31.8699 1322.14 31.8843 1322.12 31.8996C1322.06 31.9799 1322 32.0619 1321.93 32.1455C1321.76 32.3673 1321.59 32.5979 1321.43 32.8132C1321.43 32.8132 1321.43 32.8132 1320.24 34.4308C1320.12 34.5932 1320 34.7667 1319.87 34.9339C1316.54 39.4885 1310.26 48.3285 1310.26 48.3285C1309.96 48.7504 1309.67 49.1514 1309.4 49.5323C1309.18 49.8433 1308.96 50.1534 1308.74 50.4644C1308.55 50.7392 1305.92 54.4445 1305.36 55.2529C1304.37 56.6527 1304.37 56.6527 1304.37 56.6527C1304.12 57.0063 1303.76 57.4932 1303.47 57.9328Z" fill="black"/>
</svg>
