<svg width="1378" height="113" viewBox="0 0 1378 113" fill="none" xmlns="http://www.w3.org/2000/svg">
<path d="M31.4375 93.1634C26.5708 93.1634 22.1708 92.33 18.2375 90.6634C14.3708 88.9967 11.3042 86.5967 9.0375 83.4634C6.77083 80.33 5.60417 76.63 5.5375 72.3634H20.5375C20.7375 75.23 21.7375 77.4967 23.5375 79.1634C25.4042 80.83 27.9375 81.6634 31.1375 81.6634C34.4042 81.6634 36.9708 80.8967 38.8375 79.3634C40.7042 77.7634 41.6375 75.6967 41.6375 73.1634C41.6375 71.0967 41.0042 69.3967 39.7375 68.0634C38.4708 66.73 36.8708 65.6967 34.9375 64.9634C33.0708 64.1634 30.4708 63.2967 27.1375 62.3634C22.6042 61.03 18.9042 59.73 16.0375 58.4634C13.2375 57.13 10.8042 55.1634 8.7375 52.5634C6.7375 49.8967 5.7375 46.3634 5.7375 41.9634C5.7375 37.83 6.77083 34.23 8.8375 31.1634C10.9042 28.0967 13.8042 25.7634 17.5375 24.1634C21.2708 22.4967 25.5375 21.6634 30.3375 21.6634C37.5375 21.6634 43.3708 23.43 47.8375 26.9634C52.3708 30.43 54.8708 35.2967 55.3375 41.5634H39.9375C39.8042 39.1634 38.7708 37.1967 36.8375 35.6634C34.9708 34.0634 32.4708 33.2634 29.3375 33.2634C26.6042 33.2634 24.4042 33.9634 22.7375 35.3634C21.1375 36.7634 20.3375 38.7967 20.3375 41.4634C20.3375 43.33 20.9375 44.8967 22.1375 46.1634C23.4042 47.3634 24.9375 48.3634 26.7375 49.1634C28.6042 49.8967 31.2042 50.7634 34.5375 51.7634C39.0708 53.0967 42.7708 54.43 45.6375 55.7634C48.5042 57.0967 50.9708 59.0967 53.0375 61.7634C55.1042 64.43 56.1375 67.93 56.1375 72.2634C56.1375 75.9967 55.1708 79.4634 53.2375 82.6634C51.3042 85.8634 48.4708 88.43 44.7375 90.3634C41.0042 92.23 36.5708 93.1634 31.4375 93.1634ZM64.875 57.4634C64.875 50.5967 66.4083 44.4634 69.475 39.0634C72.6083 33.5967 76.8417 29.3634 82.175 26.3634C87.575 23.2967 93.6083 21.7634 100.275 21.7634C108.075 21.7634 114.908 23.7634 120.775 27.7634C126.642 31.7634 130.742 37.2967 133.075 44.3634H116.975C115.375 41.03 113.108 38.53 110.175 36.8634C107.308 35.1967 103.975 34.3634 100.175 34.3634C96.1083 34.3634 92.475 35.33 89.275 37.2634C86.1417 39.13 83.675 41.7967 81.875 45.2634C80.1417 48.73 79.275 52.7967 79.275 57.4634C79.275 62.0634 80.1417 66.13 81.875 69.6634C83.675 73.13 86.1417 75.83 89.275 77.7634C92.475 79.63 96.1083 80.5634 100.175 80.5634C103.975 80.5634 107.308 79.73 110.175 78.0634C113.108 76.33 115.375 73.7967 116.975 70.4634H133.075C130.742 77.5967 126.642 83.1634 120.775 87.1634C114.975 91.0967 108.142 93.0634 100.275 93.0634C93.6083 93.0634 87.575 91.5634 82.175 88.5634C76.8417 85.4967 72.6083 81.2634 69.475 75.8634C66.4083 70.4634 64.875 64.33 64.875 57.4634ZM202.933 22.6634V92.4634H188.933V62.7634H159.033V92.4634H145.033V22.6634H159.033V51.3634H188.933V22.6634H202.933ZM230.713 33.9634V51.4634H254.213V62.5634H230.713V81.0634H257.213V92.4634H216.713V22.5634H257.213V33.9634H230.713ZM294.335 22.6634C301.668 22.6634 308.102 24.0967 313.635 26.9634C319.235 29.83 323.535 33.93 326.535 39.2634C329.602 44.53 331.135 50.6634 331.135 57.6634C331.135 64.6634 329.602 70.7967 326.535 76.0634C323.535 81.2634 319.235 85.2967 313.635 88.1634C308.102 91.03 301.668 92.4634 294.335 92.4634H269.935V22.6634H294.335ZM293.835 80.5634C301.168 80.5634 306.835 78.5634 310.835 74.5634C314.835 70.5634 316.835 64.93 316.835 57.6634C316.835 50.3967 314.835 44.73 310.835 40.6634C306.835 36.53 301.168 34.4634 293.835 34.4634H283.935V80.5634H293.835ZM355.415 22.6634V65.8634C355.415 70.5967 356.648 74.23 359.115 76.7634C361.582 79.23 365.048 80.4634 369.515 80.4634C374.048 80.4634 377.548 79.23 380.015 76.7634C382.482 74.23 383.715 70.5967 383.715 65.8634V22.6634L397.815 22.6634V65.7634C397.815 71.6967 396.515 76.73 393.915 80.8634C391.382 84.93 387.948 87.9967 383.615 90.0634C379.348 92.13 374.582 93.1634 369.315 93.1634C364.115 93.1634 359.382 92.13 355.115 90.0634C350.915 87.9967 347.582 84.93 345.115 80.8634C342.648 76.73 341.415 71.6967 341.415 65.7634V22.6634H355.415ZM425.341 81.3634H448.341V92.4634H411.341V22.6634H425.341V81.3634ZM471.24 33.9634V51.4634H494.74V62.5634H471.24V81.0634H497.74V92.4634H457.24V22.5634H497.74V33.9634H471.24Z" fill="#3F69FF"/>
<path d="M35.4375 91.1634C30.5708 91.1634 26.1708 90.33 22.2375 88.6634C18.3708 86.9967 15.3042 84.5967 13.0375 81.4634C10.7708 78.33 9.60417 74.63 9.5375 70.3634H24.5375C24.7375 73.23 25.7375 75.4967 27.5375 77.1634C29.4042 78.83 31.9375 79.6634 35.1375 79.6634C38.4042 79.6634 40.9708 78.8967 42.8375 77.3634C44.7042 75.7634 45.6375 73.6967 45.6375 71.1634C45.6375 69.0967 45.0042 67.3967 43.7375 66.0634C42.4708 64.73 40.8708 63.6967 38.9375 62.9634C37.0708 62.1634 34.4708 61.2967 31.1375 60.3634C26.6042 59.03 22.9042 57.73 20.0375 56.4634C17.2375 55.13 14.8042 53.1634 12.7375 50.5634C10.7375 47.8967 9.7375 44.3634 9.7375 39.9634C9.7375 35.83 10.7708 32.23 12.8375 29.1634C14.9042 26.0967 17.8042 23.7634 21.5375 22.1634C25.2708 20.4967 29.5375 19.6634 34.3375 19.6634C41.5375 19.6634 47.3708 21.43 51.8375 24.9634C56.3708 28.43 58.8708 33.2967 59.3375 39.5634H43.9375C43.8042 37.1634 42.7708 35.1967 40.8375 33.6634C38.9708 32.0634 36.4708 31.2634 33.3375 31.2634C30.6042 31.2634 28.4042 31.9634 26.7375 33.3634C25.1375 34.7634 24.3375 36.7967 24.3375 39.4634C24.3375 41.33 24.9375 42.8967 26.1375 44.1634C27.4042 45.3634 28.9375 46.3634 30.7375 47.1634C32.6042 47.8967 35.2042 48.7634 38.5375 49.7634C43.0708 51.0967 46.7708 52.43 49.6375 53.7634C52.5042 55.0967 54.9708 57.0967 57.0375 59.7634C59.1042 62.43 60.1375 65.93 60.1375 70.2634C60.1375 73.9967 59.1708 77.4634 57.2375 80.6634C55.3042 83.8634 52.4708 86.43 48.7375 88.3634C45.0042 90.23 40.5708 91.1634 35.4375 91.1634ZM68.875 55.4634C68.875 48.5967 70.4083 42.4634 73.475 37.0634C76.6083 31.5967 80.8417 27.3634 86.175 24.3634C91.575 21.2967 97.6083 19.7634 104.275 19.7634C112.075 19.7634 118.908 21.7634 124.775 25.7634C130.642 29.7634 134.742 35.2967 137.075 42.3634H120.975C119.375 39.03 117.108 36.53 114.175 34.8634C111.308 33.1967 107.975 32.3634 104.175 32.3634C100.108 32.3634 96.475 33.33 93.275 35.2634C90.1417 37.13 87.675 39.7967 85.875 43.2634C84.1417 46.73 83.275 50.7967 83.275 55.4634C83.275 60.0634 84.1417 64.13 85.875 67.6634C87.675 71.13 90.1417 73.83 93.275 75.7634C96.475 77.63 100.108 78.5634 104.175 78.5634C107.975 78.5634 111.308 77.73 114.175 76.0634C117.108 74.33 119.375 71.7967 120.975 68.4634H137.075C134.742 75.5967 130.642 81.1634 124.775 85.1634C118.975 89.0967 112.142 91.0634 104.275 91.0634C97.6083 91.0634 91.575 89.5634 86.175 86.5634C80.8417 83.4967 76.6083 79.2634 73.475 73.8634C70.4083 68.4634 68.875 62.33 68.875 55.4634ZM206.933 20.6634V90.4634H192.933V60.7634H163.033V90.4634H149.033V20.6634H163.033V49.3634H192.933V20.6634H206.933ZM234.713 31.9634V49.4634H258.213V60.5634H234.713V79.0634H261.213V90.4634H220.713V20.5634H261.213V31.9634H234.713ZM298.335 20.6634C305.668 20.6634 312.102 22.0967 317.635 24.9634C323.235 27.83 327.535 31.93 330.535 37.2634C333.602 42.53 335.135 48.6634 335.135 55.6634C335.135 62.6634 333.602 68.7967 330.535 74.0634C327.535 79.2634 323.235 83.2967 317.635 86.1634C312.102 89.03 305.668 90.4634 298.335 90.4634H273.935V20.6634H298.335ZM297.835 78.5634C305.168 78.5634 310.835 76.5634 314.835 72.5634C318.835 68.5634 320.835 62.93 320.835 55.6634C320.835 48.3967 318.835 42.73 314.835 38.6634C310.835 34.53 305.168 32.4634 297.835 32.4634H287.935V78.5634H297.835ZM359.415 20.6634V63.8634C359.415 68.5967 360.648 72.23 363.115 74.7634C365.582 77.23 369.048 78.4634 373.515 78.4634C378.048 78.4634 381.548 77.23 384.015 74.7634C386.482 72.23 387.715 68.5967 387.715 63.8634V20.6634L401.815 20.6634V63.7634C401.815 69.6967 400.515 74.73 397.915 78.8634C395.382 82.93 391.948 85.9967 387.615 88.0634C383.348 90.13 378.582 91.1634 373.315 91.1634C368.115 91.1634 363.382 90.13 359.115 88.0634C354.915 85.9967 351.582 82.93 349.115 78.8634C346.648 74.73 345.415 69.6967 345.415 63.7634V20.6634H359.415ZM429.341 79.3634H452.341V90.4634H415.341V20.6634H429.341V79.3634ZM475.24 31.9634V49.4634H498.74V60.5634H475.24V79.0634H501.74V90.4634H461.24V20.5634H501.74V31.9634H475.24Z" fill="#F34D4D"/>
<path d="M33.5996 92.1634C28.7329 92.1634 24.3329 91.33 20.3996 89.6634C16.5329 87.9967 13.4663 85.5967 11.1996 82.4634C8.93294 79.33 7.76628 75.63 7.69961 71.3634H22.6996C22.8996 74.23 23.8996 76.4967 25.6996 78.1634C27.5663 79.83 30.0996 80.6634 33.2996 80.6634C36.5663 80.6634 39.1329 79.8967 40.9996 78.3634C42.8663 76.7634 43.7996 74.6967 43.7996 72.1634C43.7996 70.0967 43.1663 68.3967 41.8996 67.0634C40.6329 65.73 39.0329 64.6967 37.0996 63.9634C35.2329 63.1634 32.6329 62.2967 29.2996 61.3634C24.7663 60.03 21.0663 58.73 18.1996 57.4634C15.3996 56.13 12.9663 54.1634 10.8996 51.5634C8.89961 48.8967 7.89961 45.3634 7.89961 40.9634C7.89961 36.83 8.93294 33.23 10.9996 30.1634C13.0663 27.0967 15.9663 24.7634 19.6996 23.1634C23.4329 21.4967 27.6996 20.6634 32.4996 20.6634C39.6996 20.6634 45.5329 22.43 49.9996 25.9634C54.5329 29.43 57.0329 34.2967 57.4996 40.5634H42.0996C41.9663 38.1634 40.9329 36.1967 38.9996 34.6634C37.1329 33.0634 34.6329 32.2634 31.4996 32.2634C28.7663 32.2634 26.5663 32.9634 24.8996 34.3634C23.2996 35.7634 22.4996 37.7967 22.4996 40.4634C22.4996 42.33 23.0996 43.8967 24.2996 45.1634C25.5663 46.3634 27.0996 47.3634 28.8996 48.1634C30.7663 48.8967 33.3663 49.7634 36.6996 50.7634C41.2329 52.0967 44.9329 53.43 47.7996 54.7634C50.6663 56.0967 53.1329 58.0967 55.1996 60.7634C57.2663 63.43 58.2996 66.93 58.2996 71.2634C58.2996 74.9967 57.3329 78.4634 55.3996 81.6634C53.4663 84.8634 50.6329 87.43 46.8996 89.3634C43.1663 91.23 38.7329 92.1634 33.5996 92.1634ZM67.0371 56.4634C67.0371 49.5967 68.5704 43.4634 71.6371 38.0634C74.7704 32.5967 79.0038 28.3634 84.3371 25.3634C89.7371 22.2967 95.7704 20.7634 102.437 20.7634C110.237 20.7634 117.07 22.7634 122.937 26.7634C128.804 30.7634 132.904 36.2967 135.237 43.3634H119.137C117.537 40.03 115.27 37.53 112.337 35.8634C109.47 34.1967 106.137 33.3634 102.337 33.3634C98.2704 33.3634 94.6371 34.33 91.4371 36.2634C88.3038 38.13 85.8371 40.7967 84.0371 44.2634C82.3038 47.73 81.4371 51.7967 81.4371 56.4634C81.4371 61.0634 82.3038 65.13 84.0371 68.6634C85.8371 72.13 88.3038 74.83 91.4371 76.7634C94.6371 78.63 98.2704 79.5634 102.337 79.5634C106.137 79.5634 109.47 78.73 112.337 77.0634C115.27 75.33 117.537 72.7967 119.137 69.4634H135.237C132.904 76.5967 128.804 82.1634 122.937 86.1634C117.137 90.0967 110.304 92.0634 102.437 92.0634C95.7704 92.0634 89.7371 90.5634 84.3371 87.5634C79.0038 84.4967 74.7704 80.2634 71.6371 74.8634C68.5704 69.4634 67.0371 63.33 67.0371 56.4634ZM205.095 21.6634V91.4634H191.095V61.7634H161.195V91.4634H147.195V21.6634H161.195V50.3634H191.095V21.6634H205.095ZM232.875 32.9634V50.4634H256.375V61.5634H232.875V80.0634H259.375V91.4634H218.875V21.5634H259.375V32.9634H232.875ZM296.497 21.6634C303.831 21.6634 310.264 23.0967 315.797 25.9634C321.397 28.83 325.697 32.93 328.697 38.2634C331.764 43.53 333.297 49.6634 333.297 56.6634C333.297 63.6634 331.764 69.7967 328.697 75.0634C325.697 80.2634 321.397 84.2967 315.797 87.1634C310.264 90.03 303.831 91.4634 296.497 91.4634H272.097V21.6634H296.497ZM295.997 79.5634C303.331 79.5634 308.997 77.5634 312.997 73.5634C316.997 69.5634 318.997 63.93 318.997 56.6634C318.997 49.3967 316.997 43.73 312.997 39.6634C308.997 35.53 303.331 33.4634 295.997 33.4634H286.097V79.5634H295.997ZM357.577 21.6634V64.8634C357.577 69.5967 358.81 73.23 361.277 75.7634C363.744 78.23 367.21 79.4634 371.677 79.4634C376.21 79.4634 379.71 78.23 382.177 75.7634C384.644 73.23 385.877 69.5967 385.877 64.8634V21.6634L399.977 21.6634V64.7634C399.977 70.6967 398.677 75.73 396.077 79.8634C393.544 83.93 390.11 86.9967 385.777 89.0634C381.51 91.13 376.744 92.1634 371.477 92.1634C366.277 92.1634 361.544 91.13 357.277 89.0634C353.077 86.9967 349.744 83.93 347.277 79.8634C344.81 75.73 343.577 70.6967 343.577 64.7634V21.6634H357.577ZM427.504 80.3634H450.504V91.4634H413.504V21.6634H427.504V80.3634ZM473.402 32.9634V50.4634H496.902V61.5634H473.402V80.0634H499.902V91.4634H459.402V21.5634H499.902V32.9634H473.402Z" fill="#FFBD5A"/>
<path d="M583.47 58.9914C583.189 59.4197 582.978 59.8054 583.002 59.9798C583.005 60.0007 583.013 60.0191 583.023 60.0368L583.023 60.0384C583.034 60.0601 583.046 60.0778 583.068 60.0947C583.1 60.1244 583.144 60.1485 583.199 60.1686C583.31 60.2024 584.115 60.1734 584.353 60.1541C584.995 60.1003 585.635 60.0545 586.283 60.0175C586.467 60.0071 586.65 60.0007 586.839 59.991C587.675 59.9492 588.508 59.9163 589.332 59.897C589.991 59.8801 590.641 59.8697 591.282 59.8633C591.46 59.8616 591.632 59.8608 591.806 59.86C592.399 59.8568 592.987 59.8552 593.547 59.8608C593.356 64.7739 593.122 69.9826 592.924 74.9422C592.896 75.708 592.862 76.4674 592.835 77.2179C592.774 78.817 592.774 78.817 592.774 78.817C592.771 78.9303 592.765 79.05 592.761 79.169C592.743 79.889 592.743 80.6829 592.897 80.8983C592.901 80.9087 592.908 80.9175 592.916 80.9256C592.943 80.9521 592.974 80.9641 593.008 80.9633C593.01 80.9633 593.013 80.9617 593.016 80.9617C593.046 80.9601 593.08 80.9489 593.115 80.9288C593.127 80.9224 593.139 80.9119 593.151 80.9031C593.178 80.8846 593.206 80.8637 593.235 80.8372C593.251 80.8235 593.266 80.8066 593.282 80.7914C593.31 80.7633 593.338 80.7335 593.367 80.6998C593.384 80.6797 593.401 80.6588 593.419 80.6371C593.447 80.6025 593.475 80.5664 593.503 80.5286C593.521 80.5037 593.541 80.478 593.56 80.4523C593.588 80.4137 593.616 80.3727 593.644 80.3325C593.663 80.3044 593.683 80.2771 593.702 80.249C593.731 80.2064 593.759 80.163 593.787 80.1188C593.805 80.0907 593.824 80.0625 593.842 80.0344C593.886 79.9669 593.929 79.8994 593.971 79.8335C593.971 79.8335 593.971 79.8335 594.68 78.7447C599.144 71.8967 604.955 63.5476 610.115 56.3412C611.648 54.1973 611.911 53.8357 611.911 53.8357C611.943 53.7979 611.972 53.7561 612.003 53.7176C612.668 52.8168 613.509 51.8469 613.848 51.1686C613.945 50.971 614.009 50.7934 613.999 50.6528C613.994 50.5861 613.96 50.5346 613.905 50.4928C613.887 50.4776 613.854 50.4711 613.83 50.4591C613.785 50.4366 613.744 50.4125 613.686 50.398C613.646 50.3876 613.598 50.3844 613.554 50.3771C613.5 50.3683 613.448 50.3578 613.387 50.353C613.333 50.349 613.275 50.349 613.218 50.3474C613.16 50.3458 613.101 50.3418 613.042 50.3418C612.834 50.3442 612.635 50.3546 612.501 50.3595C612.501 50.3595 612.501 50.3595 611.488 50.4036C608.544 50.5306 605.527 50.6921 602.656 50.889C602.873 45.8217 603.147 40.0095 603.374 34.9968C603.433 33.6051 603.433 33.6051 603.433 33.6051C603.434 33.5665 603.436 33.5215 603.438 33.4805C603.462 32.9485 603.483 32.2326 603.319 32.0236C603.291 31.9923 603.261 31.9682 603.225 31.9642C603.204 31.961 603.177 31.9682 603.152 31.9738C603.135 31.977 603.117 31.9786 603.098 31.9867C603.076 31.9955 603.051 32.0092 603.028 32.0228C603.008 32.0341 602.988 32.0437 602.966 32.0582C602.942 32.0751 602.915 32.0976 602.888 32.1185C602.865 32.1369 602.842 32.153 602.818 32.1747C602.791 32.1988 602.762 32.2285 602.733 32.2567C602.708 32.2808 602.684 32.3033 602.659 32.3298C602.627 32.3627 602.594 32.3997 602.561 32.4351C602.537 32.4624 602.512 32.4865 602.487 32.5154C602.451 32.5572 602.413 32.6022 602.376 32.6472C602.353 32.6745 602.33 32.7002 602.308 32.7284C602.258 32.7878 602.209 32.8505 602.159 32.9132C602.147 32.9285 602.135 32.9429 602.123 32.9582C602.06 33.0385 601.997 33.1205 601.933 33.2041C601.764 33.4259 601.592 33.6565 601.429 33.8718C601.429 33.8718 601.429 33.8718 600.24 35.4894C600.124 35.6517 599.996 35.8253 599.87 35.9925C596.537 40.5471 590.261 49.3871 590.261 49.3871C589.959 49.809 589.674 50.21 589.398 50.5909C589.178 50.9019 588.962 51.212 588.74 51.523C588.547 51.7978 585.924 55.5031 585.355 56.3115C584.371 57.7113 584.371 57.7113 584.371 57.7113C584.121 58.0649 583.758 58.5518 583.47 58.9914Z" fill="#FFBD5A"/>
<path d="M720.438 93.1634C715.571 93.1634 711.171 92.33 707.238 90.6634C703.371 88.9967 700.304 86.5967 698.038 83.4634C695.771 80.33 694.604 76.63 694.538 72.3634H709.538C709.738 75.23 710.738 77.4967 712.538 79.1634C714.404 80.83 716.938 81.6634 720.138 81.6634C723.404 81.6634 725.971 80.8967 727.838 79.3634C729.704 77.7634 730.638 75.6967 730.638 73.1634C730.638 71.0967 730.004 69.3967 728.738 68.0634C727.471 66.73 725.871 65.6967 723.938 64.9634C722.071 64.1634 719.471 63.2967 716.138 62.3634C711.604 61.03 707.904 59.73 705.038 58.4634C702.238 57.13 699.804 55.1634 697.738 52.5634C695.738 49.8967 694.738 46.3634 694.738 41.9634C694.738 37.83 695.771 34.23 697.838 31.1634C699.904 28.0967 702.804 25.7634 706.538 24.1634C710.271 22.4967 714.538 21.6634 719.338 21.6634C726.538 21.6634 732.371 23.43 736.838 26.9634C741.371 30.43 743.871 35.2967 744.338 41.5634H728.938C728.804 39.1634 727.771 37.1967 725.838 35.6634C723.971 34.0634 721.471 33.2634 718.338 33.2634C715.604 33.2634 713.404 33.9634 711.738 35.3634C710.138 36.7634 709.338 38.7967 709.338 41.4634C709.338 43.33 709.938 44.8967 711.138 46.1634C712.404 47.3634 713.938 48.3634 715.738 49.1634C717.604 49.8967 720.204 50.7634 723.538 51.7634C728.071 53.0967 731.771 54.43 734.638 55.7634C737.504 57.0967 739.971 59.0967 742.038 61.7634C744.104 64.43 745.138 67.93 745.138 72.2634C745.138 75.9967 744.171 79.4634 742.237 82.6634C740.304 85.8634 737.471 88.43 733.738 90.3634C730.004 92.23 725.571 93.1634 720.438 93.1634ZM753.875 57.4634C753.875 50.5967 755.408 44.4634 758.475 39.0634C761.608 33.5967 765.842 29.3634 771.175 26.3634C776.575 23.2967 782.608 21.7634 789.275 21.7634C797.075 21.7634 803.908 23.7634 809.775 27.7634C815.642 31.7634 819.742 37.2967 822.075 44.3634H805.975C804.375 41.03 802.108 38.53 799.175 36.8634C796.308 35.1967 792.975 34.3634 789.175 34.3634C785.108 34.3634 781.475 35.33 778.275 37.2634C775.142 39.13 772.675 41.7967 770.875 45.2634C769.142 48.73 768.275 52.7967 768.275 57.4634C768.275 62.0634 769.142 66.13 770.875 69.6634C772.675 73.13 775.142 75.83 778.275 77.7634C781.475 79.63 785.108 80.5634 789.175 80.5634C792.975 80.5634 796.308 79.73 799.175 78.0634C802.108 76.33 804.375 73.7967 805.975 70.4634H822.075C819.742 77.5967 815.642 83.1634 809.775 87.1634C803.975 91.0967 797.142 93.0634 789.275 93.0634C782.608 93.0634 776.575 91.5634 771.175 88.5634C765.842 85.4967 761.608 81.2634 758.475 75.8634C755.408 70.4634 753.875 64.33 753.875 57.4634ZM891.933 22.6634V92.4634H877.933V62.7634H848.033V92.4634H834.033V22.6634H848.033V51.3634H877.933V22.6634H891.933ZM919.713 33.9634V51.4634H943.213V62.5634H919.713V81.0634H946.213V92.4634H905.713V22.5634H946.213V33.9634H919.713ZM983.335 22.6634C990.668 22.6634 997.102 24.0967 1002.64 26.9634C1008.24 29.83 1012.54 33.93 1015.54 39.2634C1018.6 44.53 1020.14 50.6634 1020.14 57.6634C1020.14 64.6634 1018.6 70.7967 1015.54 76.0634C1012.54 81.2634 1008.24 85.2967 1002.64 88.1634C997.102 91.03 990.668 92.4634 983.335 92.4634H958.935V22.6634H983.335ZM982.835 80.5634C990.168 80.5634 995.835 78.5634 999.835 74.5634C1003.84 70.5634 1005.84 64.93 1005.84 57.6634C1005.84 50.3967 1003.84 44.73 999.835 40.6634C995.835 36.53 990.168 34.4634 982.835 34.4634H972.935V80.5634H982.835ZM1044.41 22.6634V65.8634C1044.41 70.5967 1045.65 74.23 1048.11 76.7634C1050.58 79.23 1054.05 80.4634 1058.51 80.4634C1063.05 80.4634 1066.55 79.23 1069.01 76.7634C1071.48 74.23 1072.71 70.5967 1072.71 65.8634V22.6634L1086.81 22.6634V65.7634C1086.81 71.6967 1085.51 76.73 1082.91 80.8634C1080.38 84.93 1076.95 87.9967 1072.61 90.0634C1068.35 92.13 1063.58 93.1634 1058.31 93.1634C1053.11 93.1634 1048.38 92.13 1044.11 90.0634C1039.91 87.9967 1036.58 84.93 1034.11 80.8634C1031.65 76.73 1030.41 71.6967 1030.41 65.7634V22.6634H1044.41ZM1114.34 81.3634H1137.34V92.4634H1100.34V22.6634H1114.34V81.3634ZM1160.24 33.9634V51.4634H1183.74V62.5634H1160.24V81.0634H1186.74V92.4634H1146.24V22.5634H1186.74V33.9634H1160.24Z" fill="#3F69FF"/>
<path d="M724.438 91.1634C719.571 91.1634 715.171 90.33 711.238 88.6634C707.371 86.9967 704.304 84.5967 702.038 81.4634C699.771 78.33 698.604 74.63 698.538 70.3634H713.538C713.738 73.23 714.738 75.4967 716.538 77.1634C718.404 78.83 720.938 79.6634 724.138 79.6634C727.404 79.6634 729.971 78.8967 731.838 77.3634C733.704 75.7634 734.638 73.6967 734.638 71.1634C734.638 69.0967 734.004 67.3967 732.738 66.0634C731.471 64.73 729.871 63.6967 727.938 62.9634C726.071 62.1634 723.471 61.2967 720.138 60.3634C715.604 59.03 711.904 57.73 709.038 56.4634C706.238 55.13 703.804 53.1634 701.738 50.5634C699.738 47.8967 698.738 44.3634 698.738 39.9634C698.738 35.83 699.771 32.23 701.838 29.1634C703.904 26.0967 706.804 23.7634 710.538 22.1634C714.271 20.4967 718.538 19.6634 723.338 19.6634C730.538 19.6634 736.371 21.43 740.838 24.9634C745.371 28.43 747.871 33.2967 748.338 39.5634H732.938C732.804 37.1634 731.771 35.1967 729.838 33.6634C727.971 32.0634 725.471 31.2634 722.338 31.2634C719.604 31.2634 717.404 31.9634 715.738 33.3634C714.138 34.7634 713.338 36.7967 713.338 39.4634C713.338 41.33 713.938 42.8967 715.138 44.1634C716.404 45.3634 717.938 46.3634 719.738 47.1634C721.604 47.8967 724.204 48.7634 727.538 49.7634C732.071 51.0967 735.771 52.43 738.638 53.7634C741.504 55.0967 743.971 57.0967 746.038 59.7634C748.104 62.43 749.138 65.93 749.138 70.2634C749.138 73.9967 748.171 77.4634 746.237 80.6634C744.304 83.8634 741.471 86.43 737.738 88.3634C734.004 90.23 729.571 91.1634 724.438 91.1634ZM757.875 55.4634C757.875 48.5967 759.408 42.4634 762.475 37.0634C765.608 31.5967 769.842 27.3634 775.175 24.3634C780.575 21.2967 786.608 19.7634 793.275 19.7634C801.075 19.7634 807.908 21.7634 813.775 25.7634C819.642 29.7634 823.742 35.2967 826.075 42.3634H809.975C808.375 39.03 806.108 36.53 803.175 34.8634C800.308 33.1967 796.975 32.3634 793.175 32.3634C789.108 32.3634 785.475 33.33 782.275 35.2634C779.142 37.13 776.675 39.7967 774.875 43.2634C773.142 46.73 772.275 50.7967 772.275 55.4634C772.275 60.0634 773.142 64.13 774.875 67.6634C776.675 71.13 779.142 73.83 782.275 75.7634C785.475 77.63 789.108 78.5634 793.175 78.5634C796.975 78.5634 800.308 77.73 803.175 76.0634C806.108 74.33 808.375 71.7967 809.975 68.4634H826.075C823.742 75.5967 819.642 81.1634 813.775 85.1634C807.975 89.0967 801.142 91.0634 793.275 91.0634C786.608 91.0634 780.575 89.5634 775.175 86.5634C769.842 83.4967 765.608 79.2634 762.475 73.8634C759.408 68.4634 757.875 62.33 757.875 55.4634ZM895.933 20.6634V90.4634H881.933V60.7634H852.033V90.4634H838.033V20.6634H852.033V49.3634H881.933V20.6634H895.933ZM923.713 31.9634V49.4634H947.213V60.5634H923.713V79.0634H950.213V90.4634H909.713V20.5634H950.213V31.9634H923.713ZM987.335 20.6634C994.668 20.6634 1001.1 22.0967 1006.64 24.9634C1012.24 27.83 1016.54 31.93 1019.54 37.2634C1022.6 42.53 1024.14 48.6634 1024.14 55.6634C1024.14 62.6634 1022.6 68.7967 1019.54 74.0634C1016.54 79.2634 1012.24 83.2967 1006.64 86.1634C1001.1 89.03 994.668 90.4634 987.335 90.4634H962.935V20.6634H987.335ZM986.835 78.5634C994.168 78.5634 999.835 76.5634 1003.84 72.5634C1007.84 68.5634 1009.84 62.93 1009.84 55.6634C1009.84 48.3967 1007.84 42.73 1003.84 38.6634C999.835 34.53 994.168 32.4634 986.835 32.4634H976.935V78.5634H986.835ZM1048.41 20.6634V63.8634C1048.41 68.5967 1049.65 72.23 1052.11 74.7634C1054.58 77.23 1058.05 78.4634 1062.51 78.4634C1067.05 78.4634 1070.55 77.23 1073.01 74.7634C1075.48 72.23 1076.71 68.5967 1076.71 63.8634V20.6634L1090.81 20.6634V63.7634C1090.81 69.6967 1089.51 74.73 1086.91 78.8634C1084.38 82.93 1080.95 85.9967 1076.61 88.0634C1072.35 90.13 1067.58 91.1634 1062.31 91.1634C1057.11 91.1634 1052.38 90.13 1048.11 88.0634C1043.91 85.9967 1040.58 82.93 1038.11 78.8634C1035.65 74.73 1034.41 69.6967 1034.41 63.7634V20.6634H1048.41ZM1118.34 79.3634H1141.34V90.4634H1104.34V20.6634H1118.34V79.3634ZM1164.24 31.9634V49.4634H1187.74V60.5634H1164.24V79.0634H1190.74V90.4634H1150.24V20.5634H1190.74V31.9634H1164.24Z" fill="#F34D4D"/>
<path d="M722.6 92.1634C717.733 92.1634 713.333 91.33 709.4 89.6634C705.533 87.9967 702.466 85.5967 700.2 82.4634C697.933 79.33 696.766 75.63 696.7 71.3634H711.7C711.9 74.23 712.9 76.4967 714.7 78.1634C716.566 79.83 719.1 80.6634 722.3 80.6634C725.566 80.6634 728.133 79.8967 730 78.3634C731.866 76.7634 732.8 74.6967 732.8 72.1634C732.8 70.0967 732.166 68.3967 730.9 67.0634C729.633 65.73 728.033 64.6967 726.1 63.9634C724.233 63.1634 721.633 62.2967 718.3 61.3634C713.766 60.03 710.066 58.73 707.2 57.4634C704.4 56.13 701.966 54.1634 699.9 51.5634C697.9 48.8967 696.9 45.3634 696.9 40.9634C696.9 36.83 697.933 33.23 700 30.1634C702.066 27.0967 704.966 24.7634 708.7 23.1634C712.433 21.4967 716.7 20.6634 721.5 20.6634C728.7 20.6634 734.533 22.43 739 25.9634C743.533 29.43 746.033 34.2967 746.5 40.5634H731.1C730.966 38.1634 729.933 36.1967 728 34.6634C726.133 33.0634 723.633 32.2634 720.5 32.2634C717.766 32.2634 715.566 32.9634 713.9 34.3634C712.3 35.7634 711.5 37.7967 711.5 40.4634C711.5 42.33 712.1 43.8967 713.3 45.1634C714.566 46.3634 716.1 47.3634 717.9 48.1634C719.766 48.8967 722.366 49.7634 725.7 50.7634C730.233 52.0967 733.933 53.43 736.8 54.7634C739.666 56.0967 742.133 58.0967 744.2 60.7634C746.266 63.43 747.3 66.93 747.3 71.2634C747.3 74.9967 746.333 78.4634 744.4 81.6634C742.466 84.8634 739.633 87.43 735.9 89.3634C732.166 91.23 727.733 92.1634 722.6 92.1634ZM756.037 56.4634C756.037 49.5967 757.57 43.4634 760.637 38.0634C763.77 32.5967 768.004 28.3634 773.337 25.3634C778.737 22.2967 784.77 20.7634 791.437 20.7634C799.237 20.7634 806.07 22.7634 811.937 26.7634C817.804 30.7634 821.904 36.2967 824.237 43.3634H808.137C806.537 40.03 804.27 37.53 801.337 35.8634C798.47 34.1967 795.137 33.3634 791.337 33.3634C787.27 33.3634 783.637 34.33 780.437 36.2634C777.304 38.13 774.837 40.7967 773.037 44.2634C771.304 47.73 770.437 51.7967 770.437 56.4634C770.437 61.0634 771.304 65.13 773.037 68.6634C774.837 72.13 777.304 74.83 780.437 76.7634C783.637 78.63 787.27 79.5634 791.337 79.5634C795.137 79.5634 798.47 78.73 801.337 77.0634C804.27 75.33 806.537 72.7967 808.137 69.4634H824.237C821.904 76.5967 817.804 82.1634 811.937 86.1634C806.137 90.0967 799.304 92.0634 791.437 92.0634C784.77 92.0634 778.737 90.5634 773.337 87.5634C768.004 84.4967 763.77 80.2634 760.637 74.8634C757.57 69.4634 756.037 63.33 756.037 56.4634ZM894.095 21.6634V91.4634H880.095V61.7634H850.195V91.4634H836.195V21.6634H850.195V50.3634H880.095V21.6634H894.095ZM921.875 32.9634V50.4634H945.375V61.5634H921.875V80.0634H948.375V91.4634H907.875V21.5634H948.375V32.9634H921.875ZM985.497 21.6634C992.831 21.6634 999.264 23.0967 1004.8 25.9634C1010.4 28.83 1014.7 32.93 1017.7 38.2634C1020.76 43.53 1022.3 49.6634 1022.3 56.6634C1022.3 63.6634 1020.76 69.7967 1017.7 75.0634C1014.7 80.2634 1010.4 84.2967 1004.8 87.1634C999.264 90.03 992.831 91.4634 985.497 91.4634H961.097V21.6634H985.497ZM984.997 79.5634C992.331 79.5634 997.997 77.5634 1002 73.5634C1006 69.5634 1008 63.93 1008 56.6634C1008 49.3967 1006 43.73 1002 39.6634C997.997 35.53 992.331 33.4634 984.997 33.4634H975.097V79.5634H984.997ZM1046.58 21.6634V64.8634C1046.58 69.5967 1047.81 73.23 1050.28 75.7634C1052.74 78.23 1056.21 79.4634 1060.68 79.4634C1065.21 79.4634 1068.71 78.23 1071.18 75.7634C1073.64 73.23 1074.88 69.5967 1074.88 64.8634V21.6634L1088.98 21.6634V64.7634C1088.98 70.6967 1087.68 75.73 1085.08 79.8634C1082.54 83.93 1079.11 86.9967 1074.78 89.0634C1070.51 91.13 1065.74 92.1634 1060.48 92.1634C1055.28 92.1634 1050.54 91.13 1046.28 89.0634C1042.08 86.9967 1038.74 83.93 1036.28 79.8634C1033.81 75.73 1032.58 70.6967 1032.58 64.7634V21.6634H1046.58ZM1116.5 80.3634H1139.5V91.4634H1102.5V21.6634H1116.5V80.3634ZM1162.4 32.9634V50.4634H1185.9V61.5634H1162.4V80.0634H1188.9V91.4634H1148.4V21.5634H1188.9V32.9634H1162.4Z" fill="#FFBD5A"/>
<path d="M1272.47 58.9914C1272.19 59.4197 1271.98 59.8054 1272 59.9798C1272.01 60.0007 1272.01 60.0191 1272.02 60.0368L1272.02 60.0384C1272.03 60.0601 1272.05 60.0778 1272.07 60.0947C1272.1 60.1244 1272.14 60.1485 1272.2 60.1686C1272.31 60.2024 1273.11 60.1734 1273.35 60.1541C1273.99 60.1003 1274.64 60.0545 1275.28 60.0175C1275.47 60.0071 1275.65 60.0007 1275.84 59.991C1276.68 59.9492 1277.51 59.9163 1278.33 59.897C1278.99 59.8801 1279.64 59.8697 1280.28 59.8633C1280.46 59.8616 1280.63 59.8608 1280.81 59.86C1281.4 59.8568 1281.99 59.8552 1282.55 59.8608C1282.36 64.7739 1282.12 69.9826 1281.92 74.9422C1281.9 75.708 1281.86 76.4674 1281.84 77.2179C1281.77 78.817 1281.77 78.817 1281.77 78.817C1281.77 78.9303 1281.76 79.05 1281.76 79.169C1281.74 79.889 1281.74 80.6829 1281.9 80.8983C1281.9 80.9087 1281.91 80.9175 1281.92 80.9256C1281.94 80.9521 1281.97 80.9641 1282.01 80.9633C1282.01 80.9633 1282.01 80.9617 1282.02 80.9617C1282.05 80.9601 1282.08 80.9489 1282.12 80.9288C1282.13 80.9224 1282.14 80.9119 1282.15 80.9031C1282.18 80.8846 1282.21 80.8637 1282.24 80.8372C1282.25 80.8235 1282.27 80.8066 1282.28 80.7914C1282.31 80.7633 1282.34 80.7335 1282.37 80.6998C1282.38 80.6797 1282.4 80.6588 1282.42 80.6371C1282.45 80.6025 1282.47 80.5664 1282.5 80.5286C1282.52 80.5037 1282.54 80.478 1282.56 80.4523C1282.59 80.4137 1282.62 80.3727 1282.64 80.3325C1282.66 80.3044 1282.68 80.2771 1282.7 80.249C1282.73 80.2064 1282.76 80.163 1282.79 80.1188C1282.81 80.0907 1282.82 80.0625 1282.84 80.0344C1282.89 79.9669 1282.93 79.8994 1282.97 79.8335C1282.97 79.8335 1282.97 79.8335 1283.68 78.7447C1288.14 71.8967 1293.96 63.5476 1299.12 56.3412C1300.65 54.1973 1300.91 53.8357 1300.91 53.8357C1300.94 53.7979 1300.97 53.7561 1301 53.7176C1301.67 52.8168 1302.51 51.8469 1302.85 51.1686C1302.95 50.971 1303.01 50.7934 1303 50.6528C1302.99 50.5861 1302.96 50.5346 1302.91 50.4928C1302.89 50.4776 1302.85 50.4711 1302.83 50.4591C1302.78 50.4366 1302.74 50.4125 1302.69 50.398C1302.65 50.3876 1302.6 50.3844 1302.55 50.3771C1302.5 50.3683 1302.45 50.3578 1302.39 50.353C1302.33 50.349 1302.28 50.349 1302.22 50.3474C1302.16 50.3458 1302.1 50.3418 1302.04 50.3418C1301.83 50.3442 1301.63 50.3546 1301.5 50.3595C1301.5 50.3595 1301.5 50.3595 1300.49 50.4036C1297.54 50.5306 1294.53 50.6921 1291.66 50.889C1291.87 45.8217 1292.15 40.0095 1292.37 34.9968C1292.43 33.6051 1292.43 33.6051 1292.43 33.6051C1292.43 33.5665 1292.44 33.5215 1292.44 33.4805C1292.46 32.9485 1292.48 32.2326 1292.32 32.0236C1292.29 31.9923 1292.26 31.9682 1292.23 31.9642C1292.2 31.961 1292.18 31.9682 1292.15 31.9738C1292.13 31.977 1292.12 31.9786 1292.1 31.9867C1292.08 31.9955 1292.05 32.0092 1292.03 32.0228C1292.01 32.0341 1291.99 32.0437 1291.97 32.0582C1291.94 32.0751 1291.92 32.0976 1291.89 32.1185C1291.87 32.1369 1291.84 32.153 1291.82 32.1747C1291.79 32.1988 1291.76 32.2285 1291.73 32.2567C1291.71 32.2808 1291.68 32.3033 1291.66 32.3298C1291.63 32.3627 1291.59 32.3997 1291.56 32.4351C1291.54 32.4624 1291.51 32.4865 1291.49 32.5154C1291.45 32.5572 1291.41 32.6022 1291.38 32.6472C1291.35 32.6745 1291.33 32.7002 1291.31 32.7284C1291.26 32.7878 1291.21 32.8505 1291.16 32.9132C1291.15 32.9285 1291.14 32.9429 1291.12 32.9582C1291.06 33.0385 1291 33.1205 1290.93 33.2041C1290.76 33.4259 1290.59 33.6565 1290.43 33.8718C1290.43 33.8718 1290.43 33.8718 1289.24 35.4894C1289.12 35.6517 1289 35.8253 1288.87 35.9925C1285.54 40.5471 1279.26 49.3871 1279.26 49.3871C1278.96 49.809 1278.67 50.21 1278.4 50.5909C1278.18 50.9019 1277.96 51.212 1277.74 51.523C1277.55 51.7978 1274.92 55.5031 1274.36 56.3115C1273.37 57.7113 1273.37 57.7113 1273.37 57.7113C1273.12 58.0649 1272.76 58.5518 1272.47 58.9914Z" fill="#FFBD5A"/>
</svg>
