<svg width="3120" height="92" viewBox="0 0 3120 92" fill="none" xmlns="http://www.w3.org/2000/svg">
<g filter="url(#filter0_dd_98_1379)">
<path d="M46.5 54.2C50.4333 54.9333 53.6667 56.9 56.2 60.1C58.7333 63.3 60 66.9667 60 71.1C60 74.8333 59.0667 78.1333 57.2 81C55.4 83.8 52.7667 86 49.3 87.6C45.8333 89.2 41.7333 90 37 90H6.9L6.9 20.2H35.7C40.4333 20.2 44.5 20.9667 47.9 22.5C51.3667 24.0333 53.9667 26.1667 55.7 28.9C57.5 31.6333 58.4 34.7333 58.4 38.2C58.4 42.2667 57.3 45.6667 55.1 48.4C52.9667 51.1333 50.1 53.0667 46.5 54.2ZM20.9 49H33.7C37.0333 49 39.6 48.2667 41.4 46.8C43.2 45.2667 44.1 43.1 44.1 40.3C44.1 37.5 43.2 35.3333 41.4 33.8C39.6 32.2667 37.0333 31.5 33.7 31.5H20.9V49ZM35 78.6C38.4 78.6 41.0333 77.8 42.9 76.2C44.8333 74.6 45.8 72.3333 45.8 69.4C45.8 66.4 44.8 64.0667 42.8 62.4C40.8 60.6667 38.1 59.8 34.7 59.8H20.9V78.6H35ZM85.1578 20.2V90H71.1578V20.2H85.1578ZM146.49 20.2V31.5L127.89 31.5V90H113.89V31.5H95.2898V20.2L146.49 20.2ZM153.305 55C153.305 48.1333 154.838 42 157.905 36.6C161.038 31.1333 165.271 26.9 170.605 23.9C176.005 20.8333 182.038 19.3 188.705 19.3C196.505 19.3 203.338 21.3 209.205 25.3C215.071 29.3 219.171 34.8333 221.505 41.9H205.405C203.805 38.5667 201.538 36.0667 198.605 34.4C195.738 32.7333 192.405 31.9 188.605 31.9C184.538 31.9 180.905 32.8667 177.705 34.8C174.571 36.6667 172.105 39.3333 170.305 42.8C168.571 46.2667 167.705 50.3333 167.705 55C167.705 59.6 168.571 63.6667 170.305 67.2C172.105 70.6667 174.571 73.3667 177.705 75.3C180.905 77.1667 184.538 78.1 188.605 78.1C192.405 78.1 195.738 77.2667 198.605 75.6C201.538 73.8667 203.805 71.3333 205.405 68H221.505C219.171 75.1333 215.071 80.7 209.205 84.7C203.405 88.6333 196.571 90.6 188.705 90.6C182.038 90.6 176.005 89.1 170.605 86.1C165.271 83.0333 161.038 78.8 157.905 73.4C154.838 68 153.305 61.8667 153.305 55ZM265.863 90.7C259.329 90.7 253.329 89.1667 247.863 86.1C242.396 83.0333 238.063 78.8 234.863 73.4C231.663 67.9333 230.063 61.7667 230.063 54.9C230.063 48.1 231.663 42 234.863 36.6C238.063 31.1333 242.396 26.8667 247.863 23.8C253.329 20.7333 259.329 19.2 265.863 19.2C272.463 19.2 278.463 20.7333 283.863 23.8C289.329 26.8667 293.629 31.1333 296.763 36.6C299.963 42 301.563 48.1 301.563 54.9C301.563 61.7667 299.963 67.9333 296.763 73.4C293.629 78.8 289.329 83.0333 283.863 86.1C278.396 89.1667 272.396 90.7 265.863 90.7ZM265.863 78.2C270.063 78.2 273.763 77.2667 276.963 75.4C280.163 73.4667 282.663 70.7333 284.463 67.2C286.263 63.6667 287.163 59.5667 287.163 54.9C287.163 50.2333 286.263 46.1667 284.463 42.7C282.663 39.1667 280.163 36.4667 276.963 34.6C273.763 32.7333 270.063 31.8 265.863 31.8C261.663 31.8 257.929 32.7333 254.663 34.6C251.463 36.4667 248.963 39.1667 247.163 42.7C245.363 46.1667 244.463 50.2333 244.463 54.9C244.463 59.5667 245.363 63.6667 247.163 67.2C248.963 70.7333 251.463 73.4667 254.663 75.4C257.929 77.2667 261.663 78.2 265.863 78.2ZM325.978 20.2V90H311.978V20.2H325.978ZM399.51 90H385.51L353.81 42.1V90H339.81V20.1H353.81L385.51 68.1V20.1H399.51V90Z" fill="#FAB44B"/>
</g>
<path d="M479.682 48.663C479.274 49.2836 478.968 49.8425 479.003 50.0952C479.007 50.1255 479.019 50.1522 479.033 50.1778L479.034 50.1802C479.049 50.2116 479.067 50.2372 479.098 50.2617C479.145 50.3048 479.21 50.3397 479.289 50.3688C479.451 50.4177 480.618 50.3758 480.964 50.3478C481.896 50.2698 482.825 50.2035 483.766 50.1499C484.033 50.1348 484.298 50.1255 484.572 50.1115C485.787 50.0509 486.996 50.0032 488.191 49.9752C489.148 49.9508 490.092 49.9357 491.023 49.9263C491.28 49.924 491.53 49.9229 491.782 49.9217C492.643 49.917 493.497 49.9147 494.31 49.9229C494.032 57.0417 493.694 64.5891 493.405 71.7754C493.365 72.8851 493.316 73.9854 493.277 75.0729C493.188 77.39 493.188 77.39 493.188 77.39C493.183 77.5541 493.175 77.7276 493.169 77.8999C493.144 78.9432 493.144 80.0936 493.367 80.4056C493.373 80.4208 493.383 80.4336 493.394 80.4452C493.433 80.4836 493.479 80.5011 493.527 80.4999C493.531 80.4999 493.536 80.4976 493.539 80.4976C493.583 80.4953 493.632 80.479 493.683 80.4499C493.701 80.4406 493.718 80.4254 493.736 80.4126C493.775 80.3858 493.816 80.3556 493.858 80.3171C493.88 80.2973 493.902 80.2729 493.925 80.2508C493.966 80.21 494.007 80.1669 494.049 80.118C494.073 80.0889 494.099 80.0587 494.124 80.0272C494.165 79.9771 494.206 79.9248 494.246 79.87C494.273 79.8339 494.301 79.7967 494.329 79.7594C494.37 79.7035 494.41 79.6441 494.451 79.5859C494.479 79.5452 494.507 79.5056 494.535 79.4648C494.577 79.4031 494.617 79.3402 494.658 79.2762C494.685 79.2355 494.713 79.1947 494.738 79.1539C494.802 79.0561 494.865 78.9583 494.926 78.8629C494.926 78.8629 494.926 78.8629 495.955 77.2852C502.435 67.3625 510.871 55.2649 518.361 44.823C520.585 41.7165 520.968 41.1925 520.968 41.1925C521.013 41.1378 521.056 41.0773 521.101 41.0214C522.066 39.7161 523.288 38.3108 523.78 37.328C523.92 37.0416 524.014 36.7843 523.998 36.5805C523.991 36.4839 523.941 36.4094 523.862 36.3488C523.836 36.3267 523.788 36.3174 523.753 36.2999C523.688 36.2673 523.628 36.2324 523.544 36.2114C523.487 36.1963 523.417 36.1916 523.353 36.1811C523.274 36.1683 523.198 36.1532 523.111 36.1462C523.032 36.1404 522.948 36.1404 522.865 36.1381C522.78 36.1357 522.695 36.1299 522.609 36.1299C522.307 36.1334 522.018 36.1485 521.824 36.1555C521.824 36.1555 521.824 36.1555 520.354 36.2196C516.08 36.4035 511.7 36.6376 507.533 36.9228C507.847 29.5804 508.245 21.1587 508.576 13.8954C508.661 11.8788 508.661 11.8788 508.661 11.8788C508.663 11.8229 508.665 11.7577 508.668 11.6983C508.704 10.9275 508.734 9.89004 508.495 9.58731C508.455 9.5419 508.412 9.50697 508.359 9.50115C508.328 9.49649 508.289 9.50697 508.253 9.51512C508.228 9.51978 508.202 9.52211 508.174 9.53375C508.143 9.54656 508.107 9.56635 508.073 9.58615C508.044 9.60245 508.015 9.61642 507.983 9.63738C507.947 9.66183 507.909 9.69443 507.87 9.7247C507.837 9.75148 507.803 9.77477 507.768 9.80621C507.729 9.84114 507.687 9.88422 507.645 9.92497C507.609 9.9599 507.573 9.99251 507.537 10.0309C507.49 10.0787 507.443 10.1322 507.395 10.1835C507.36 10.223 507.324 10.258 507.288 10.2999C507.236 10.3604 507.181 10.4256 507.126 10.4908C507.094 10.5304 507.06 10.5677 507.027 10.6084C506.955 10.6946 506.884 10.7854 506.812 10.8763C506.793 10.8984 506.777 10.9193 506.76 10.9415C506.668 11.0579 506.576 11.1767 506.484 11.2977C506.239 11.6191 505.988 11.9533 505.751 12.2653C505.751 12.2653 505.751 12.2653 504.026 14.6092C503.857 14.8444 503.671 15.0959 503.489 15.3381C498.65 21.9376 489.541 34.7467 489.541 34.7467C489.102 35.358 488.688 35.939 488.287 36.4909C487.968 36.9415 487.654 37.3909 487.333 37.8415C487.051 38.2397 483.245 43.6086 482.419 44.7799C480.99 46.8082 480.99 46.8082 480.99 46.8082C480.627 47.3205 480.101 48.0261 479.682 48.663Z" fill="#FFBD5A"/>
<g filter="url(#filter1_dd_98_1379)">
<path d="M613 90.7C608.133 90.7 603.733 89.8667 599.8 88.2C595.933 86.5333 592.867 84.1333 590.6 81C588.333 77.8667 587.167 74.1667 587.1 69.9H602.1C602.3 72.7667 603.3 75.0333 605.1 76.7C606.967 78.3667 609.5 79.2 612.7 79.2C615.967 79.2 618.533 78.4333 620.4 76.9C622.267 75.3 623.2 73.2333 623.2 70.7C623.2 68.6333 622.567 66.9333 621.3 65.6C620.033 64.2667 618.433 63.2333 616.5 62.5C614.633 61.7 612.033 60.8333 608.7 59.9C604.167 58.5667 600.467 57.2667 597.6 56C594.8 54.6667 592.367 52.7 590.3 50.1C588.3 47.4333 587.3 43.9 587.3 39.5C587.3 35.3667 588.333 31.7667 590.4 28.7C592.467 25.6333 595.367 23.3 599.1 21.7C602.833 20.0333 607.1 19.2 611.9 19.2C619.1 19.2 624.933 20.9667 629.4 24.5C633.933 27.9667 636.433 32.8333 636.9 39.1H621.5C621.367 36.7 620.333 34.7333 618.4 33.2C616.533 31.6 614.033 30.8 610.9 30.8C608.167 30.8 605.967 31.5 604.3 32.9C602.7 34.3 601.9 36.3333 601.9 39C601.9 40.8667 602.5 42.4333 603.7 43.7C604.967 44.9 606.5 45.9 608.3 46.7C610.167 47.4333 612.767 48.3 616.1 49.3C620.633 50.6333 624.333 51.9667 627.2 53.3C630.067 54.6333 632.533 56.6333 634.6 59.3C636.667 61.9667 637.7 65.4667 637.7 69.8C637.7 73.5333 636.733 77 634.8 80.2C632.867 83.4 630.033 85.9667 626.3 87.9C622.567 89.7667 618.133 90.7 613 90.7ZM663.838 31.5V49H687.338V60.1H663.838V78.6H690.338V90H649.838V20.1H690.338V31.5H663.838ZM717.06 78.9H740.06V90H703.06V20.2L717.06 20.2V78.9ZM792.059 20.2V31.5H762.959V49.4H785.259V60.5H762.959V90H748.959V20.2H792.059ZM844.586 48.4V60.2L802.186 60.2V48.4L844.586 48.4ZM884.387 90.7C879.52 90.7 875.12 89.8667 871.187 88.2C867.32 86.5333 864.253 84.1333 861.987 81C859.72 77.8667 858.553 74.1667 858.487 69.9H873.487C873.687 72.7667 874.687 75.0333 876.487 76.7C878.353 78.3667 880.887 79.2 884.087 79.2C887.353 79.2 889.92 78.4333 891.787 76.9C893.653 75.3 894.587 73.2333 894.587 70.7C894.587 68.6333 893.953 66.9333 892.687 65.6C891.42 64.2667 889.82 63.2333 887.887 62.5C886.02 61.7 883.42 60.8333 880.087 59.9C875.553 58.5667 871.853 57.2667 868.987 56C866.187 54.6667 863.753 52.7 861.687 50.1C859.687 47.4333 858.687 43.9 858.687 39.5C858.687 35.3667 859.72 31.7667 861.787 28.7C863.853 25.6333 866.753 23.3 870.487 21.7C874.22 20.0333 878.487 19.2 883.287 19.2C890.487 19.2 896.32 20.9667 900.787 24.5C905.32 27.9667 907.82 32.8333 908.287 39.1H892.887C892.753 36.7 891.72 34.7333 889.787 33.2C887.92 31.6 885.42 30.8 882.287 30.8C879.553 30.8 877.353 31.5 875.687 32.9C874.087 34.3 873.287 36.3333 873.287 39C873.287 40.8667 873.887 42.4333 875.087 43.7C876.353 44.9 877.887 45.9 879.687 46.7C881.553 47.4333 884.153 48.3 887.487 49.3C892.02 50.6333 895.72 51.9667 898.587 53.3C901.453 54.6333 903.92 56.6333 905.987 59.3C908.053 61.9667 909.087 65.4667 909.087 69.8C909.087 73.5333 908.12 77 906.187 80.2C904.253 83.4 901.42 85.9667 897.687 87.9C893.953 89.7667 889.52 90.7 884.387 90.7ZM953.624 90.7C947.091 90.7 941.091 89.1667 935.624 86.1C930.158 83.0333 925.824 78.8 922.624 73.4C919.424 67.9333 917.824 61.7667 917.824 54.9C917.824 48.1 919.424 42 922.624 36.6C925.824 31.1333 930.158 26.8667 935.624 23.8C941.091 20.7333 947.091 19.2 953.624 19.2C960.224 19.2 966.224 20.7333 971.624 23.8C977.091 26.8667 981.391 31.1333 984.524 36.6C987.724 42 989.324 48.1 989.324 54.9C989.324 61.7667 987.724 67.9333 984.524 73.4C981.391 78.8 977.091 83.0333 971.624 86.1C966.158 89.1667 960.158 90.7 953.624 90.7ZM953.624 78.2C957.824 78.2 961.524 77.2667 964.724 75.4C967.924 73.4667 970.424 70.7333 972.224 67.2C974.024 63.6667 974.924 59.5667 974.924 54.9C974.924 50.2333 974.024 46.1667 972.224 42.7C970.424 39.1667 967.924 36.4667 964.724 34.6C961.524 32.7333 957.824 31.8 953.624 31.8C949.424 31.8 945.691 32.7333 942.424 34.6C939.224 36.4667 936.724 39.1667 934.924 42.7C933.124 46.1667 932.224 50.2333 932.224 54.9C932.224 59.5667 933.124 63.6667 934.924 67.2C936.724 70.7333 939.224 73.4667 942.424 75.4C945.691 77.2667 949.424 78.2 953.624 78.2ZM1062.44 20.2L1036.84 90H1019.84L994.24 20.2H1009.24L1028.44 75.7L1047.54 20.2H1062.44ZM1084.83 31.5V49H1108.33V60.1H1084.83V78.6L1111.33 78.6V90L1070.83 90V20.1H1111.33V31.5H1084.83ZM1160.06 90L1144.66 62.8H1138.06V90H1124.06V20.2H1150.26C1155.66 20.2 1160.26 21.1667 1164.06 23.1C1167.86 24.9667 1170.69 27.5333 1172.56 30.8C1174.49 34 1175.46 37.6 1175.46 41.6C1175.46 46.2 1174.12 50.3667 1171.46 54.1C1168.79 57.7667 1164.82 60.3 1159.56 61.7L1176.26 90H1160.06ZM1138.06 52.3H1149.76C1153.56 52.3 1156.39 51.4 1158.26 49.6C1160.12 47.7333 1161.06 45.1667 1161.06 41.9C1161.06 38.7 1160.12 36.2333 1158.26 34.5C1156.39 32.7 1153.56 31.8 1149.76 31.8H1138.06V52.3ZM1202.12 31.5V49H1225.62V60.1H1202.12V78.6H1228.62V90H1188.12V20.1L1228.62 20.1V31.5L1202.12 31.5ZM1255.34 20.2V90H1241.34V20.2H1255.34ZM1317.77 41.2C1316.17 38.2667 1313.97 36.0333 1311.17 34.5C1308.37 32.9667 1305.11 32.2 1301.37 32.2C1297.24 32.2 1293.57 33.1333 1290.37 35C1287.17 36.8667 1284.67 39.5333 1282.87 43C1281.07 46.4667 1280.17 50.4667 1280.17 55C1280.17 59.6667 1281.07 63.7333 1282.87 67.2C1284.74 70.6667 1287.31 73.3333 1290.57 75.2C1293.84 77.0667 1297.64 78 1301.97 78C1307.31 78 1311.67 76.6 1315.07 73.8C1318.47 70.9333 1320.71 66.9667 1321.77 61.9H1297.77V51.2H1335.57V63.4C1334.64 68.2667 1332.64 72.7667 1329.57 76.9C1326.51 81.0333 1322.54 84.3667 1317.67 86.9C1312.87 89.3667 1307.47 90.6 1301.47 90.6C1294.74 90.6 1288.64 89.1 1283.17 86.1C1277.77 83.0333 1273.51 78.8 1270.37 73.4C1267.31 68 1265.77 61.8667 1265.77 55C1265.77 48.1333 1267.31 42 1270.37 36.6C1273.51 31.1333 1277.77 26.9 1283.17 23.9C1288.64 20.8333 1294.71 19.3 1301.37 19.3C1309.24 19.3 1316.07 21.2333 1321.87 25.1C1327.67 28.9 1331.67 34.2667 1333.87 41.2H1317.77ZM1405.63 90H1391.63L1359.93 42.1V90H1345.93V20.1H1359.93L1391.63 68.1V20.1H1405.63V90ZM1466.97 20.2V31.5H1448.37V90H1434.37V31.5H1415.77V20.2H1466.97ZM1532.68 20.2L1509.08 65.7V90H1495.08V65.7L1471.38 20.2L1487.18 20.2L1502.18 52.1L1517.08 20.2H1532.68ZM1607.38 76.7H1579.58L1574.98 90H1560.28L1585.38 20.1H1601.68L1626.78 90H1611.98L1607.38 76.7ZM1603.58 65.5L1593.48 36.3L1583.38 65.5H1603.58ZM1695.87 90H1681.87L1650.17 42.1V90H1636.17V20.1H1650.17L1681.87 68.1V20.1H1695.87V90ZM1734.1 20.2C1741.43 20.2 1747.87 21.6333 1753.4 24.5C1759 27.3667 1763.3 31.4667 1766.3 36.8C1769.37 42.0667 1770.9 48.2 1770.9 55.2C1770.9 62.2 1769.37 68.3333 1766.3 73.6C1763.3 78.8 1759 82.8333 1753.4 85.7C1747.87 88.5667 1741.43 90 1734.1 90H1709.7V20.2L1734.1 20.2ZM1733.6 78.1C1740.93 78.1 1746.6 76.1 1750.6 72.1C1754.6 68.1 1756.6 62.4667 1756.6 55.2C1756.6 47.9333 1754.6 42.2667 1750.6 38.2C1746.6 34.0667 1740.93 32 1733.6 32H1723.7V78.1H1733.6ZM1856.11 41.8C1856.11 45.5333 1855.21 49.0333 1853.41 52.3C1851.68 55.5667 1848.91 58.2 1845.11 60.2C1841.38 62.2 1836.64 63.2 1830.91 63.2H1819.21V90H1805.21V20.2H1830.91C1836.31 20.2 1840.91 21.1333 1844.71 23C1848.51 24.8667 1851.34 27.4333 1853.21 30.7C1855.14 33.9667 1856.11 37.6667 1856.11 41.8ZM1830.31 51.9C1834.18 51.9 1837.04 51.0333 1838.91 49.3C1840.78 47.5 1841.71 45 1841.71 41.8C1841.71 35 1837.91 31.6 1830.31 31.6H1819.21V51.9H1830.31ZM1908.85 76.7H1881.05L1876.45 90H1861.75L1886.85 20.1H1903.15L1928.25 90H1913.45L1908.85 76.7ZM1905.05 65.5L1894.95 36.3L1884.85 65.5H1905.05ZM1973.63 90L1958.23 62.8H1951.63V90H1937.63V20.2H1963.83C1969.23 20.2 1973.83 21.1667 1977.63 23.1C1981.43 24.9667 1984.26 27.5333 1986.13 30.8C1988.06 34 1989.03 37.6 1989.03 41.6C1989.03 46.2 1987.7 50.3667 1985.03 54.1C1982.36 57.7667 1978.4 60.3 1973.13 61.7L1989.83 90H1973.63ZM1951.63 52.3H1963.33C1967.13 52.3 1969.96 51.4 1971.83 49.6C1973.7 47.7333 1974.63 45.1667 1974.63 41.9C1974.63 38.7 1973.7 36.2333 1971.83 34.5C1969.96 32.7 1967.13 31.8 1963.33 31.8H1951.63V52.3ZM2044.49 76.7H2016.69L2012.09 90H1997.39L2022.49 20.1H2038.79L2063.89 90H2049.09L2044.49 76.7ZM2040.69 65.5L2030.59 36.3L2020.49 65.5H2040.69ZM2087.28 78.9H2110.28V90H2073.28V20.2H2087.28V78.9ZM2133.17 78.9H2156.17V90H2119.17V20.2H2133.17V78.9ZM2179.07 31.5V49H2202.57V60.1H2179.07V78.6H2205.57V90H2165.07V20.1H2205.57V31.5H2179.07ZM2232.29 78.9H2255.29V90H2218.29V20.2H2232.29V78.9ZM2302.02 20.2V90H2288.02V20.2H2302.02ZM2375.55 90H2361.55L2329.85 42.1V90H2315.85V20.1H2329.85L2361.55 68.1V20.1H2375.55V90ZM2413.49 90.7C2408.62 90.7 2404.22 89.8667 2400.29 88.2C2396.42 86.5333 2393.35 84.1333 2391.09 81C2388.82 77.8667 2387.65 74.1667 2387.59 69.9H2402.59C2402.79 72.7667 2403.79 75.0333 2405.59 76.7C2407.45 78.3667 2409.99 79.2 2413.19 79.2C2416.45 79.2 2419.02 78.4333 2420.89 76.9C2422.75 75.3 2423.69 73.2333 2423.69 70.7C2423.69 68.6333 2423.05 66.9333 2421.79 65.6C2420.52 64.2667 2418.92 63.2333 2416.99 62.5C2415.12 61.7 2412.52 60.8333 2409.19 59.9C2404.65 58.5667 2400.95 57.2667 2398.09 56C2395.29 54.6667 2392.85 52.7 2390.79 50.1C2388.79 47.4333 2387.79 43.9 2387.79 39.5C2387.79 35.3667 2388.82 31.7667 2390.89 28.7C2392.95 25.6333 2395.85 23.3 2399.59 21.7C2403.32 20.0333 2407.59 19.2 2412.39 19.2C2419.59 19.2 2425.42 20.9667 2429.89 24.5C2434.42 27.9667 2436.92 32.8333 2437.39 39.1H2421.99C2421.85 36.7 2420.82 34.7333 2418.89 33.2C2417.02 31.6 2414.52 30.8 2411.39 30.8C2408.65 30.8 2406.45 31.5 2404.79 32.9C2403.19 34.3 2402.39 36.3333 2402.39 39C2402.39 40.8667 2402.99 42.4333 2404.19 43.7C2405.45 44.9 2406.99 45.9 2408.79 46.7C2410.65 47.4333 2413.25 48.3 2416.59 49.3C2421.12 50.6333 2424.82 51.9667 2427.69 53.3C2430.55 54.6333 2433.02 56.6333 2435.09 59.3C2437.15 61.9667 2438.19 65.4667 2438.19 69.8C2438.19 73.5333 2437.22 77 2435.29 80.2C2433.35 83.4 2430.52 85.9667 2426.79 87.9C2423.05 89.7667 2418.62 90.7 2413.49 90.7ZM2497.83 20.2V31.5H2479.23V90H2465.23V31.5H2446.63V20.2H2497.83ZM2522.04 20.2V90H2508.04V20.2H2522.04ZM2583.37 20.2V31.5H2564.77V90H2550.77V31.5H2532.17V20.2H2583.37ZM2607.39 20.2V63.4C2607.39 68.1333 2608.62 71.7667 2611.09 74.3C2613.55 76.7667 2617.02 78 2621.49 78C2626.02 78 2629.52 76.7667 2631.99 74.3C2634.45 71.7667 2635.69 68.1333 2635.69 63.4V20.2H2649.79V63.3C2649.79 69.2333 2648.49 74.2667 2645.89 78.4C2643.35 82.4667 2639.92 85.5333 2635.59 87.6C2631.32 89.6667 2626.55 90.7 2621.29 90.7C2616.09 90.7 2611.35 89.6667 2607.09 87.6C2602.89 85.5333 2599.55 82.4667 2597.09 78.4C2594.62 74.2667 2593.39 69.2333 2593.39 63.3V20.2H2607.39ZM2710.81 20.2V31.5H2692.21V90H2678.21V31.5H2659.61V20.2H2710.81ZM2735.03 20.2V90H2721.03V20.2H2735.03ZM2781.26 90.7C2774.73 90.7 2768.73 89.1667 2763.26 86.1C2757.79 83.0333 2753.46 78.8 2750.26 73.4C2747.06 67.9333 2745.46 61.7667 2745.46 54.9C2745.46 48.1 2747.06 42 2750.26 36.6C2753.46 31.1333 2757.79 26.8667 2763.26 23.8C2768.73 20.7333 2774.73 19.2 2781.26 19.2C2787.86 19.2 2793.86 20.7333 2799.26 23.8C2804.73 26.8667 2809.03 31.1333 2812.16 36.6C2815.36 42 2816.96 48.1 2816.96 54.9C2816.96 61.7667 2815.36 67.9333 2812.16 73.4C2809.03 78.8 2804.73 83.0333 2799.26 86.1C2793.79 89.1667 2787.79 90.7 2781.26 90.7ZM2781.26 78.2C2785.46 78.2 2789.16 77.2667 2792.36 75.4C2795.56 73.4667 2798.06 70.7333 2799.86 67.2C2801.66 63.6667 2802.56 59.5667 2802.56 54.9C2802.56 50.2333 2801.66 46.1667 2799.86 42.7C2798.06 39.1667 2795.56 36.4667 2792.36 34.6C2789.16 32.7333 2785.46 31.8 2781.26 31.8C2777.06 31.8 2773.33 32.7333 2770.06 34.6C2766.86 36.4667 2764.36 39.1667 2762.56 42.7C2760.76 46.1667 2759.86 50.2333 2759.86 54.9C2759.86 59.5667 2760.76 63.6667 2762.56 67.2C2764.36 70.7333 2766.86 73.4667 2770.06 75.4C2773.33 77.2667 2777.06 78.2 2781.26 78.2ZM2887.08 90H2873.08L2841.38 42.1V90H2827.38V20.1H2841.38L2873.08 68.1V20.1H2887.08V90ZM2925.01 90.7C2920.15 90.7 2915.75 89.8667 2911.81 88.2C2907.95 86.5333 2904.88 84.1333 2902.61 81C2900.35 77.8667 2899.18 74.1667 2899.11 69.9H2914.11C2914.31 72.7667 2915.31 75.0333 2917.11 76.7C2918.98 78.3667 2921.51 79.2 2924.71 79.2C2927.98 79.2 2930.55 78.4333 2932.41 76.9C2934.28 75.3 2935.21 73.2333 2935.21 70.7C2935.21 68.6333 2934.58 66.9333 2933.31 65.6C2932.05 64.2667 2930.45 63.2333 2928.51 62.5C2926.65 61.7 2924.05 60.8333 2920.71 59.9C2916.18 58.5667 2912.48 57.2667 2909.61 56C2906.81 54.6667 2904.38 52.7 2902.31 50.1C2900.31 47.4333 2899.31 43.9 2899.31 39.5C2899.31 35.3667 2900.35 31.7667 2902.41 28.7C2904.48 25.6333 2907.38 23.3 2911.11 21.7C2914.85 20.0333 2919.11 19.2 2923.91 19.2C2931.11 19.2 2936.95 20.9667 2941.41 24.5C2945.95 27.9667 2948.45 32.8333 2948.91 39.1H2933.51C2933.38 36.7 2932.35 34.7333 2930.41 33.2C2928.55 31.6 2926.05 30.8 2922.91 30.8C2920.18 30.8 2917.98 31.5 2916.31 32.9C2914.71 34.3 2913.91 36.3333 2913.91 39C2913.91 40.8667 2914.51 42.4333 2915.71 43.7C2916.98 44.9 2918.51 45.9 2920.31 46.7C2922.18 47.4333 2924.78 48.3 2928.11 49.3C2932.65 50.6333 2936.35 51.9667 2939.21 53.3C2942.08 54.6333 2944.55 56.6333 2946.61 59.3C2948.68 61.9667 2949.71 65.4667 2949.71 69.8C2949.71 73.5333 2948.75 77 2946.81 80.2C2944.88 83.4 2942.05 85.9667 2938.31 87.9C2934.58 89.7667 2930.15 90.7 2925.01 90.7Z" fill="#FAB44B"/>
</g>
<path d="M3048.68 48.663C3048.27 49.2836 3047.97 49.8425 3048 50.0952C3048.01 50.1255 3048.02 50.1522 3048.03 50.1778L3048.03 50.1802C3048.05 50.2116 3048.07 50.2372 3048.1 50.2617C3048.14 50.3048 3048.21 50.3397 3048.29 50.3688C3048.45 50.4177 3049.62 50.3758 3049.96 50.3478C3050.9 50.2698 3051.83 50.2035 3052.77 50.1499C3053.03 50.1348 3053.3 50.1255 3053.57 50.1115C3054.79 50.0509 3056 50.0032 3057.19 49.9752C3058.15 49.9508 3059.09 49.9357 3060.02 49.9263C3060.28 49.924 3060.53 49.9229 3060.78 49.9217C3061.64 49.917 3062.5 49.9147 3063.31 49.9229C3063.03 57.0417 3062.69 64.5891 3062.41 71.7754C3062.36 72.8851 3062.32 73.9854 3062.28 75.0729C3062.19 77.39 3062.19 77.39 3062.19 77.39C3062.18 77.5541 3062.17 77.7276 3062.17 77.8999C3062.14 78.9432 3062.14 80.0936 3062.37 80.4056C3062.37 80.4208 3062.38 80.4336 3062.39 80.4452C3062.43 80.4836 3062.48 80.5011 3062.53 80.4999C3062.53 80.4999 3062.54 80.4976 3062.54 80.4976C3062.58 80.4953 3062.63 80.479 3062.68 80.4499C3062.7 80.4406 3062.72 80.4254 3062.74 80.4126C3062.78 80.3858 3062.82 80.3556 3062.86 80.3171C3062.88 80.2973 3062.9 80.2729 3062.93 80.2508C3062.97 80.21 3063.01 80.1669 3063.05 80.118C3063.07 80.0889 3063.1 80.0587 3063.12 80.0272C3063.16 79.9771 3063.21 79.9248 3063.25 79.87C3063.27 79.8339 3063.3 79.7967 3063.33 79.7594C3063.37 79.7035 3063.41 79.6441 3063.45 79.5859C3063.48 79.5452 3063.51 79.5056 3063.53 79.4648C3063.58 79.4031 3063.62 79.3402 3063.66 79.2762C3063.68 79.2355 3063.71 79.1947 3063.74 79.1539C3063.8 79.0561 3063.87 78.9583 3063.93 78.8629C3063.93 78.8629 3063.93 78.8629 3064.96 77.2852C3071.43 67.3625 3079.87 55.2649 3087.36 44.823C3089.59 41.7165 3089.97 41.1925 3089.97 41.1925C3090.01 41.1378 3090.06 41.0773 3090.1 41.0214C3091.07 39.7161 3092.29 38.3108 3092.78 37.328C3092.92 37.0416 3093.01 36.7843 3093 36.5805C3092.99 36.4839 3092.94 36.4094 3092.86 36.3488C3092.84 36.3267 3092.79 36.3174 3092.75 36.2999C3092.69 36.2673 3092.63 36.2324 3092.54 36.2114C3092.49 36.1963 3092.42 36.1916 3092.35 36.1811C3092.27 36.1683 3092.2 36.1532 3092.11 36.1462C3092.03 36.1404 3091.95 36.1404 3091.87 36.1381C3091.78 36.1357 3091.7 36.1299 3091.61 36.1299C3091.31 36.1334 3091.02 36.1485 3090.82 36.1555C3090.82 36.1555 3090.82 36.1555 3089.35 36.2196C3085.08 36.4035 3080.7 36.6376 3076.53 36.9228C3076.85 29.5804 3077.25 21.1587 3077.58 13.8954C3077.66 11.8788 3077.66 11.8788 3077.66 11.8788C3077.66 11.8229 3077.67 11.7577 3077.67 11.6983C3077.7 10.9275 3077.73 9.89004 3077.5 9.58731C3077.45 9.5419 3077.41 9.50697 3077.36 9.50115C3077.33 9.49649 3077.29 9.50697 3077.25 9.51512C3077.23 9.51978 3077.2 9.52211 3077.17 9.53375C3077.14 9.54656 3077.11 9.56635 3077.07 9.58615C3077.04 9.60245 3077.01 9.61642 3076.98 9.63738C3076.95 9.66183 3076.91 9.69443 3076.87 9.7247C3076.84 9.75148 3076.8 9.77477 3076.77 9.80621C3076.73 9.84114 3076.69 9.88422 3076.65 9.92497C3076.61 9.9599 3076.57 9.99251 3076.54 10.0309C3076.49 10.0787 3076.44 10.1322 3076.39 10.1835C3076.36 10.223 3076.32 10.258 3076.29 10.2999C3076.24 10.3604 3076.18 10.4256 3076.13 10.4908C3076.09 10.5304 3076.06 10.5677 3076.03 10.6084C3075.96 10.6946 3075.88 10.7854 3075.81 10.8763C3075.79 10.8984 3075.78 10.9193 3075.76 10.9415C3075.67 11.0579 3075.58 11.1767 3075.48 11.2977C3075.24 11.6191 3074.99 11.9533 3074.75 12.2653C3074.75 12.2653 3074.75 12.2653 3073.03 14.6092C3072.86 14.8444 3072.67 15.0959 3072.49 15.3381C3067.65 21.9376 3058.54 34.7467 3058.54 34.7467C3058.1 35.358 3057.69 35.939 3057.29 36.4909C3056.97 36.9415 3056.65 37.3909 3056.33 37.8415C3056.05 38.2397 3052.25 43.6086 3051.42 44.7799C3049.99 46.8082 3049.99 46.8082 3049.99 46.8082C3049.63 47.3205 3049.1 48.0261 3048.68 48.663Z" fill="#FFBD5A"/>
<defs>
<filter id="filter0_dd_98_1379" x="4.90002" y="18.2002" width="396.61" height="73.5" filterUnits="userSpaceOnUse" color-interpolation-filters="sRGB">
<feFlood flood-opacity="0" result="BackgroundImageFix"/>
<feColorMatrix in="SourceAlpha" type="matrix" values="0 0 0 0 0 0 0 0 0 0 0 0 0 0 0 0 0 0 127 0" result="hardAlpha"/>
<feOffset dx="2" dy="-1"/>
<feComposite in2="hardAlpha" operator="out"/>
<feColorMatrix type="matrix" values="0 0 0 0 0.952941 0 0 0 0 0.301961 0 0 0 0 0.301961 0 0 0 1 0"/>
<feBlend mode="normal" in2="BackgroundImageFix" result="effect1_dropShadow_98_1379"/>
<feColorMatrix in="SourceAlpha" type="matrix" values="0 0 0 0 0 0 0 0 0 0 0 0 0 0 0 0 0 0 127 0" result="hardAlpha"/>
<feOffset dx="-2" dy="1"/>
<feComposite in2="hardAlpha" operator="out"/>
<feColorMatrix type="matrix" values="0 0 0 0 0.247059 0 0 0 0 0.411765 0 0 0 0 1 0 0 0 1 0"/>
<feBlend mode="normal" in2="effect1_dropShadow_98_1379" result="effect2_dropShadow_98_1379"/>
<feBlend mode="normal" in="SourceGraphic" in2="effect2_dropShadow_98_1379" result="shape"/>
</filter>
<filter id="filter1_dd_98_1379" x="585.1" y="18.2002" width="2366.61" height="73.5" filterUnits="userSpaceOnUse" color-interpolation-filters="sRGB">
<feFlood flood-opacity="0" result="BackgroundImageFix"/>
<feColorMatrix in="SourceAlpha" type="matrix" values="0 0 0 0 0 0 0 0 0 0 0 0 0 0 0 0 0 0 127 0" result="hardAlpha"/>
<feOffset dx="2" dy="-1"/>
<feComposite in2="hardAlpha" operator="out"/>
<feColorMatrix type="matrix" values="0 0 0 0 0.952941 0 0 0 0 0.301961 0 0 0 0 0.301961 0 0 0 1 0"/>
<feBlend mode="normal" in2="BackgroundImageFix" result="effect1_dropShadow_98_1379"/>
<feColorMatrix in="SourceAlpha" type="matrix" values="0 0 0 0 0 0 0 0 0 0 0 0 0 0 0 0 0 0 127 0" result="hardAlpha"/>
<feOffset dx="-2" dy="1"/>
<feComposite in2="hardAlpha" operator="out"/>
<feColorMatrix type="matrix" values="0 0 0 0 0.247059 0 0 0 0 0.411765 0 0 0 0 1 0 0 0 1 0"/>
<feBlend mode="normal" in2="effect1_dropShadow_98_1379" result="effect2_dropShadow_98_1379"/>
<feBlend mode="normal" in="SourceGraphic" in2="effect2_dropShadow_98_1379" result="shape"/>
</filter>
</defs>
</svg>
