<svg width="2224" height="92" viewBox="0 0 2224 92" fill="none" xmlns="http://www.w3.org/2000/svg">
<g filter="url(#filter0_dd_98_1379)">
<path d="M49.7 76.7H21.9L17.3 90H2.6L27.7 20.1H44L69.1 90H54.3L49.7 76.7ZM45.9 65.5L35.8 36.3L25.7 65.5H45.9ZM102.882 20.2C110.215 20.2 116.649 21.6333 122.182 24.5C127.782 27.3667 132.082 31.4667 135.082 36.8C138.149 42.0667 139.682 48.2 139.682 55.2C139.682 62.2 138.149 68.3333 135.082 73.6C132.082 78.8 127.782 82.8333 122.182 85.7C116.649 88.5667 110.215 90 102.882 90H78.482V20.2H102.882ZM102.382 78.1C109.715 78.1 115.382 76.1 119.382 72.1C123.382 68.1 125.382 62.4667 125.382 55.2C125.382 47.9333 123.382 42.2667 119.382 38.2C115.382 34.0667 109.715 32 102.382 32H92.482V78.1H102.382ZM182.562 90.7C176.028 90.7 170.028 89.1667 164.562 86.1C159.095 83.0333 154.762 78.8 151.562 73.4C148.362 67.9333 146.762 61.7667 146.762 54.9C146.762 48.1 148.362 42 151.562 36.6C154.762 31.1333 159.095 26.8667 164.562 23.8C170.028 20.7333 176.028 19.2 182.562 19.2C189.162 19.2 195.162 20.7333 200.562 23.8C206.028 26.8667 210.328 31.1333 213.462 36.6C216.662 42 218.262 48.1 218.262 54.9C218.262 61.7667 216.662 67.9333 213.462 73.4C210.328 78.8 206.028 83.0333 200.562 86.1C195.095 89.1667 189.095 90.7 182.562 90.7ZM182.562 78.2C186.762 78.2 190.462 77.2667 193.662 75.4C196.862 73.4667 199.362 70.7333 201.162 67.2C202.962 63.6667 203.862 59.5667 203.862 54.9C203.862 50.2333 202.962 46.1667 201.162 42.7C199.362 39.1667 196.862 36.4667 193.662 34.6C190.462 32.7333 186.762 31.8 182.562 31.8C178.362 31.8 174.628 32.7333 171.362 34.6C168.162 36.4667 165.662 39.1667 163.862 42.7C162.062 46.1667 161.162 50.2333 161.162 54.9C161.162 59.5667 162.062 63.6667 163.862 67.2C165.662 70.7333 168.162 73.4667 171.362 75.4C174.628 77.2667 178.362 78.2 182.562 78.2ZM279.577 41.8C279.577 45.5333 278.677 49.0333 276.877 52.3C275.144 55.5667 272.377 58.2 268.577 60.2C264.844 62.2 260.111 63.2 254.377 63.2H242.677V90H228.677V20.2H254.377C259.777 20.2 264.377 21.1333 268.177 23C271.977 24.8667 274.811 27.4333 276.677 30.7C278.611 33.9667 279.577 37.6667 279.577 41.8ZM253.777 51.9C257.644 51.9 260.511 51.0333 262.377 49.3C264.244 47.5 265.177 45 265.177 41.8C265.177 35 261.377 31.6 253.777 31.6H242.677V51.9H253.777ZM337.017 20.2V31.5H318.417V90H304.417V31.5H285.817V20.2H337.017ZM361.232 20.2V90H347.232V20.2H361.232ZM434.764 90H420.764L389.064 42.1V90H375.064V20.1L389.064 20.1L420.764 68.1V20.1H434.764V90ZM497.199 41.2C495.599 38.2667 493.399 36.0333 490.599 34.5C487.799 32.9667 484.533 32.2 480.799 32.2C476.666 32.2 472.999 33.1333 469.799 35C466.599 36.8667 464.099 39.5333 462.299 43C460.499 46.4667 459.599 50.4667 459.599 55C459.599 59.6667 460.499 63.7333 462.299 67.2C464.166 70.6667 466.733 73.3333 469.999 75.2C473.266 77.0667 477.066 78 481.399 78C486.733 78 491.099 76.6 494.499 73.8C497.899 70.9333 500.133 66.9667 501.199 61.9H477.199V51.2H514.999V63.4C514.066 68.2667 512.066 72.7667 508.999 76.9C505.933 81.0333 501.966 84.3667 497.099 86.9C492.299 89.3667 486.899 90.6 480.899 90.6C474.166 90.6 468.066 89.1 462.599 86.1C457.199 83.0333 452.933 78.8 449.799 73.4C446.733 68 445.199 61.8667 445.199 55C445.199 48.1333 446.733 42 449.799 36.6C452.933 31.1333 457.199 26.9 462.599 23.9C468.066 20.8333 474.133 19.3 480.799 19.3C488.666 19.3 495.499 21.2333 501.299 25.1C507.099 28.9 511.099 34.2667 513.299 41.2H497.199ZM588.785 54.2C592.718 54.9333 595.952 56.9 598.485 60.1C601.018 63.3 602.285 66.9667 602.285 71.1C602.285 74.8333 601.352 78.1333 599.485 81C597.685 83.8 595.052 86 591.585 87.6C588.118 89.2 584.018 90 579.285 90H549.185V20.2H577.985C582.718 20.2 586.785 20.9667 590.185 22.5C593.652 24.0333 596.252 26.1667 597.985 28.9C599.785 31.6333 600.685 34.7333 600.685 38.2C600.685 42.2667 599.585 45.6667 597.385 48.4C595.252 51.1333 592.385 53.0667 588.785 54.2ZM563.185 49H575.985C579.318 49 581.885 48.2667 583.685 46.8C585.485 45.2667 586.385 43.1 586.385 40.3C586.385 37.5 585.485 35.3333 583.685 33.8C581.885 32.2667 579.318 31.5 575.985 31.5H563.185V49ZM577.285 78.6C580.685 78.6 583.318 77.8 585.185 76.2C587.118 74.6 588.085 72.3333 588.085 69.4C588.085 66.4 587.085 64.0667 585.085 62.4C583.085 60.6667 580.385 59.8 576.985 59.8H563.185V78.6H577.285ZM627.443 20.2V90H613.443V20.2H627.443ZM688.775 20.2V31.5H670.175V90H656.175V31.5L637.575 31.5V20.2L688.775 20.2ZM695.59 55C695.59 48.1333 697.123 42 700.19 36.6C703.323 31.1333 707.557 26.9 712.89 23.9C718.29 20.8333 724.323 19.3 730.99 19.3C738.79 19.3 745.623 21.3 751.49 25.3C757.357 29.3 761.457 34.8333 763.79 41.9H747.69C746.09 38.5667 743.823 36.0667 740.89 34.4C738.023 32.7333 734.69 31.9 730.89 31.9C726.823 31.9 723.19 32.8667 719.99 34.8C716.857 36.6667 714.39 39.3333 712.59 42.8C710.857 46.2667 709.99 50.3333 709.99 55C709.99 59.6 710.857 63.6667 712.59 67.2C714.39 70.6667 716.857 73.3667 719.99 75.3C723.19 77.1667 726.823 78.1 730.89 78.1C734.69 78.1 738.023 77.2667 740.89 75.6C743.823 73.8667 746.09 71.3333 747.69 68H763.79C761.457 75.1333 757.357 80.7 751.49 84.7C745.69 88.6333 738.857 90.6 730.99 90.6C724.323 90.6 718.29 89.1 712.89 86.1C707.557 83.0333 703.323 78.8 700.19 73.4C697.123 68 695.59 61.8667 695.59 55ZM808.148 90.7C801.614 90.7 795.614 89.1667 790.148 86.1C784.681 83.0333 780.348 78.8 777.148 73.4C773.948 67.9333 772.348 61.7667 772.348 54.9C772.348 48.1 773.948 42 777.148 36.6C780.348 31.1333 784.681 26.8667 790.148 23.8C795.614 20.7333 801.614 19.2 808.148 19.2C814.748 19.2 820.748 20.7333 826.148 23.8C831.614 26.8667 835.914 31.1333 839.048 36.6C842.248 42 843.848 48.1 843.848 54.9C843.848 61.7667 842.248 67.9333 839.048 73.4C835.914 78.8 831.614 83.0333 826.148 86.1C820.681 89.1667 814.681 90.7 808.148 90.7ZM808.148 78.2C812.348 78.2 816.048 77.2667 819.248 75.4C822.448 73.4667 824.948 70.7333 826.748 67.2C828.548 63.6667 829.448 59.5667 829.448 54.9C829.448 50.2333 828.548 46.1667 826.748 42.7C824.948 39.1667 822.448 36.4667 819.248 34.6C816.048 32.7333 812.348 31.8 808.148 31.8C803.948 31.8 800.214 32.7333 796.948 34.6C793.748 36.4667 791.248 39.1667 789.448 42.7C787.648 46.1667 786.748 50.2333 786.748 54.9C786.748 59.5667 787.648 63.6667 789.448 67.2C791.248 70.7333 793.748 73.4667 796.948 75.4C800.214 77.2667 803.948 78.2 808.148 78.2ZM868.263 20.2V90H854.263V20.2H868.263ZM941.795 90H927.795L896.095 42.1V90H882.095V20.1L896.095 20.1L927.795 68.1V20.1H941.795V90ZM993.459 20.2V90H979.459V20.2H993.459ZM1031.39 90.7C1026.52 90.7 1022.12 89.8667 1018.19 88.2C1014.32 86.5333 1011.26 84.1333 1008.99 81C1006.72 77.8667 1005.56 74.1667 1005.49 69.9H1020.49C1020.69 72.7667 1021.69 75.0333 1023.49 76.7C1025.36 78.3667 1027.89 79.2 1031.09 79.2C1034.36 79.2 1036.92 78.4333 1038.79 76.9C1040.66 75.3 1041.59 73.2333 1041.59 70.7C1041.59 68.6333 1040.96 66.9333 1039.69 65.6C1038.42 64.2667 1036.82 63.2333 1034.89 62.5C1033.02 61.7 1030.42 60.8333 1027.09 59.9C1022.56 58.5667 1018.86 57.2667 1015.99 56C1013.19 54.6667 1010.76 52.7 1008.69 50.1C1006.69 47.4333 1005.69 43.9 1005.69 39.5C1005.69 35.3667 1006.72 31.7667 1008.79 28.7C1010.86 25.6333 1013.76 23.3 1017.49 21.7C1021.22 20.0333 1025.49 19.2 1030.29 19.2C1037.49 19.2 1043.32 20.9667 1047.79 24.5C1052.32 27.9667 1054.82 32.8333 1055.29 39.1H1039.89C1039.76 36.7 1038.72 34.7333 1036.79 33.2C1034.92 31.6 1032.42 30.8 1029.29 30.8C1026.56 30.8 1024.36 31.5 1022.69 32.9C1021.09 34.3 1020.29 36.3333 1020.29 39C1020.29 40.8667 1020.89 42.4333 1022.09 43.7C1023.36 44.9 1024.89 45.9 1026.69 46.7C1028.56 47.4333 1031.16 48.3 1034.49 49.3C1039.02 50.6333 1042.72 51.9667 1045.59 53.3C1048.46 54.6333 1050.92 56.6333 1052.99 59.3C1055.06 61.9667 1056.09 65.4667 1056.09 69.8C1056.09 73.5333 1055.12 77 1053.19 80.2C1051.26 83.4 1048.42 85.9667 1044.69 87.9C1040.96 89.7667 1036.52 90.7 1031.39 90.7ZM1131.66 54.2C1135.59 54.9333 1138.82 56.9 1141.36 60.1C1143.89 63.3 1145.16 66.9667 1145.16 71.1C1145.16 74.8333 1144.22 78.1333 1142.36 81C1140.56 83.8 1137.92 86 1134.46 87.6C1130.99 89.2 1126.89 90 1122.16 90H1092.06V20.2H1120.86C1125.59 20.2 1129.66 20.9667 1133.06 22.5C1136.52 24.0333 1139.12 26.1667 1140.86 28.9C1142.66 31.6333 1143.56 34.7333 1143.56 38.2C1143.56 42.2667 1142.46 45.6667 1140.26 48.4C1138.12 51.1333 1135.26 53.0667 1131.66 54.2ZM1106.06 49H1118.86C1122.19 49 1124.76 48.2667 1126.56 46.8C1128.36 45.2667 1129.26 43.1 1129.26 40.3C1129.26 37.5 1128.36 35.3333 1126.56 33.8C1124.76 32.2667 1122.19 31.5 1118.86 31.5H1106.06V49ZM1120.16 78.6C1123.56 78.6 1126.19 77.8 1128.06 76.2C1129.99 74.6 1130.96 72.3333 1130.96 69.4C1130.96 66.4 1129.96 64.0667 1127.96 62.4C1125.96 60.6667 1123.26 59.8 1119.86 59.8H1106.06V78.6H1120.16ZM1199.11 76.7H1171.31L1166.71 90H1152.01L1177.11 20.1H1193.41L1218.51 90H1203.71L1199.11 76.7ZM1195.31 65.5L1185.21 36.3L1175.11 65.5H1195.31ZM1224.5 55C1224.5 48.1333 1226.03 42 1229.1 36.6C1232.23 31.1333 1236.46 26.9 1241.8 23.9C1247.2 20.8333 1253.23 19.3 1259.9 19.3C1267.7 19.3 1274.53 21.3 1280.4 25.3C1286.26 29.3 1290.36 34.8333 1292.7 41.9L1276.6 41.9C1275 38.5667 1272.73 36.0667 1269.8 34.4C1266.93 32.7333 1263.6 31.9 1259.8 31.9C1255.73 31.9 1252.1 32.8667 1248.9 34.8C1245.76 36.6667 1243.3 39.3333 1241.5 42.8C1239.76 46.2667 1238.9 50.3333 1238.9 55C1238.9 59.6 1239.76 63.6667 1241.5 67.2C1243.3 70.6667 1245.76 73.3667 1248.9 75.3C1252.1 77.1667 1255.73 78.1 1259.8 78.1C1263.6 78.1 1266.93 77.2667 1269.8 75.6C1272.73 73.8667 1275 71.3333 1276.6 68H1292.7C1290.36 75.1333 1286.26 80.7 1280.4 84.7C1274.6 88.6333 1267.76 90.6 1259.9 90.6C1253.23 90.6 1247.2 89.1 1241.8 86.1C1236.46 83.0333 1232.23 78.8 1229.1 73.4C1226.03 68 1224.5 61.8667 1224.5 55ZM1344.05 90L1318.65 58.9V90H1304.65V20.2H1318.65V51.5L1344.05 20.2H1360.95L1332.15 54.8L1361.75 90H1344.05ZM1408.79 20.2V90H1394.79V20.2L1408.79 20.2ZM1482.32 90H1468.32L1436.62 42.1V90H1422.62V20.1H1436.62L1468.32 68.1V20.1H1482.32V90ZM1516.59 55C1516.59 48.1333 1518.12 42 1521.19 36.6C1524.32 31.1333 1528.55 26.9 1533.89 23.9C1539.29 20.8333 1545.32 19.3 1551.99 19.3C1559.79 19.3 1566.62 21.3 1572.49 25.3C1578.35 29.3 1582.45 34.8333 1584.79 41.9H1568.69C1567.09 38.5667 1564.82 36.0667 1561.89 34.4C1559.02 32.7333 1555.69 31.9 1551.89 31.9C1547.82 31.9 1544.19 32.8667 1540.99 34.8C1537.85 36.6667 1535.39 39.3333 1533.59 42.8C1531.85 46.2667 1530.99 50.3333 1530.99 55C1530.99 59.6 1531.85 63.6667 1533.59 67.2C1535.39 70.6667 1537.85 73.3667 1540.99 75.3C1544.19 77.1667 1547.82 78.1 1551.89 78.1C1555.69 78.1 1559.02 77.2667 1561.89 75.6C1564.82 73.8667 1567.09 71.3333 1568.69 68H1584.79C1582.45 75.1333 1578.35 80.7 1572.49 84.7C1566.69 88.6333 1559.85 90.6 1551.99 90.6C1545.32 90.6 1539.29 89.1 1533.89 86.1C1528.55 83.0333 1524.32 78.8 1521.19 73.4C1518.12 68 1516.59 61.8667 1516.59 55ZM1639.54 76.7H1611.74L1607.14 90H1592.44L1617.54 20.1H1633.84L1658.94 90H1644.14L1639.54 76.7ZM1635.74 65.5L1625.64 36.3L1615.54 65.5H1635.74ZM1719.23 41.8C1719.23 45.5333 1718.33 49.0333 1716.53 52.3C1714.79 55.5667 1712.03 58.2 1708.23 60.2C1704.49 62.2 1699.76 63.2 1694.03 63.2H1682.33V90H1668.33V20.2H1694.03C1699.43 20.2 1704.03 21.1333 1707.83 23C1711.63 24.8667 1714.46 27.4333 1716.33 30.7C1718.26 33.9667 1719.23 37.6667 1719.23 41.8ZM1693.43 51.9C1697.29 51.9 1700.16 51.0333 1702.03 49.3C1703.89 47.5 1704.83 45 1704.83 41.8C1704.83 35 1701.03 31.6 1693.43 31.6H1682.33V51.9H1693.43ZM1743.17 31.5V49H1766.67V60.1H1743.17V78.6H1769.67V90H1729.17V20.1H1769.67V31.5H1743.17ZM1853.72 20.2V31.5H1835.12V90H1821.12V31.5H1802.52V20.2H1853.72ZM1896.33 90.7C1889.8 90.7 1883.8 89.1667 1878.33 86.1C1872.86 83.0333 1868.53 78.8 1865.33 73.4C1862.13 67.9333 1860.53 61.7667 1860.53 54.9C1860.53 48.1 1862.13 42 1865.33 36.6C1868.53 31.1333 1872.86 26.8667 1878.33 23.8C1883.8 20.7333 1889.8 19.2 1896.33 19.2C1902.93 19.2 1908.93 20.7333 1914.33 23.8C1919.8 26.8667 1924.1 31.1333 1927.23 36.6C1930.43 42 1932.03 48.1 1932.03 54.9C1932.03 61.7667 1930.43 67.9333 1927.23 73.4C1924.1 78.8 1919.8 83.0333 1914.33 86.1C1908.86 89.1667 1902.86 90.7 1896.33 90.7ZM1896.33 78.2C1900.53 78.2 1904.23 77.2667 1907.43 75.4C1910.63 73.4667 1913.13 70.7333 1914.93 67.2C1916.73 63.6667 1917.63 59.5667 1917.63 54.9C1917.63 50.2333 1916.73 46.1667 1914.93 42.7C1913.13 39.1667 1910.63 36.4667 1907.43 34.6C1904.23 32.7333 1900.53 31.8 1896.33 31.8C1892.13 31.8 1888.4 32.7333 1885.13 34.6C1881.93 36.4667 1879.43 39.1667 1877.63 42.7C1875.83 46.1667 1874.93 50.2333 1874.93 54.9C1874.93 59.5667 1875.83 63.6667 1877.63 67.2C1879.43 70.7333 1881.93 73.4667 1885.13 75.4C1888.4 77.2667 1892.13 78.2 1896.33 78.2ZM2035.75 20.2L2016.25 90H1999.75L1986.65 40.3L1972.95 90L1956.55 90.1L1937.75 20.2H1952.75L1965.05 74.4L1979.25 20.2H1994.85L2008.25 74.1L2020.65 20.2H2035.75ZM2104.59 90H2090.59L2058.89 42.1V90H2044.89V20.1H2058.89L2090.59 68.1V20.1H2104.59V90Z" fill="#FAB44B"/>
</g>
<path d="M2179.68 58.163C2179.27 58.7836 2178.97 59.3425 2179 59.5952C2179.01 59.6255 2179.02 59.6522 2179.03 59.6778L2179.03 59.6802C2179.05 59.7116 2179.07 59.7372 2179.1 59.7617C2179.14 59.8048 2179.21 59.8397 2179.29 59.8688C2179.45 59.9177 2180.62 59.8758 2180.96 59.8478C2181.9 59.7698 2182.83 59.7035 2183.77 59.6499C2184.03 59.6348 2184.3 59.6255 2184.57 59.6115C2185.79 59.5509 2187 59.5032 2188.19 59.4752C2189.15 59.4508 2190.09 59.4357 2191.02 59.4263C2191.28 59.424 2191.53 59.4229 2191.78 59.4217C2192.64 59.417 2193.5 59.4147 2194.31 59.4229C2194.03 66.5417 2193.69 74.0891 2193.41 81.2754C2193.36 82.3851 2193.32 83.4854 2193.28 84.5729C2193.19 86.89 2193.19 86.89 2193.19 86.89C2193.18 87.0541 2193.17 87.2276 2193.17 87.3999C2193.14 88.4432 2193.14 89.5936 2193.37 89.9056C2193.37 89.9208 2193.38 89.9336 2193.39 89.9452C2193.43 89.9836 2193.48 90.0011 2193.53 89.9999C2193.53 89.9999 2193.54 89.9976 2193.54 89.9976C2193.58 89.9953 2193.63 89.979 2193.68 89.9499C2193.7 89.9406 2193.72 89.9254 2193.74 89.9126C2193.78 89.8858 2193.82 89.8556 2193.86 89.8171C2193.88 89.7973 2193.9 89.7729 2193.93 89.7508C2193.97 89.71 2194.01 89.6669 2194.05 89.618C2194.07 89.5889 2194.1 89.5587 2194.12 89.5272C2194.16 89.4771 2194.21 89.4248 2194.25 89.37C2194.27 89.3339 2194.3 89.2967 2194.33 89.2594C2194.37 89.2035 2194.41 89.1441 2194.45 89.0859C2194.48 89.0452 2194.51 89.0056 2194.53 88.9648C2194.58 88.9031 2194.62 88.8402 2194.66 88.7762C2194.68 88.7355 2194.71 88.6947 2194.74 88.6539C2194.8 88.5561 2194.87 88.4583 2194.93 88.3629C2194.93 88.3629 2194.93 88.3629 2195.96 86.7852C2202.43 76.8625 2210.87 64.7649 2218.36 54.323C2220.59 51.2165 2220.97 50.6925 2220.97 50.6925C2221.01 50.6378 2221.06 50.5773 2221.1 50.5214C2222.07 49.2161 2223.29 47.8108 2223.78 46.828C2223.92 46.5416 2224.01 46.2843 2224 46.0805C2223.99 45.9839 2223.94 45.9094 2223.86 45.8488C2223.84 45.8267 2223.79 45.8174 2223.75 45.7999C2223.69 45.7673 2223.63 45.7324 2223.54 45.7114C2223.49 45.6963 2223.42 45.6916 2223.35 45.6811C2223.27 45.6683 2223.2 45.6532 2223.11 45.6462C2223.03 45.6404 2222.95 45.6404 2222.87 45.6381C2222.78 45.6357 2222.7 45.6299 2222.61 45.6299C2222.31 45.6334 2222.02 45.6485 2221.82 45.6555C2221.82 45.6555 2221.82 45.6555 2220.35 45.7196C2216.08 45.9035 2211.7 46.1376 2207.53 46.4228C2207.85 39.0804 2208.25 30.6587 2208.58 23.3954C2208.66 21.3788 2208.66 21.3788 2208.66 21.3788C2208.66 21.3229 2208.67 21.2577 2208.67 21.1983C2208.7 20.4275 2208.73 19.39 2208.5 19.0873C2208.45 19.0419 2208.41 19.007 2208.36 19.0011C2208.33 18.9965 2208.29 19.007 2208.25 19.0151C2208.23 19.0198 2208.2 19.0221 2208.17 19.0338C2208.14 19.0466 2208.11 19.0664 2208.07 19.0861C2208.04 19.1024 2208.01 19.1164 2207.98 19.1374C2207.95 19.1618 2207.91 19.1944 2207.87 19.2247C2207.84 19.2515 2207.8 19.2748 2207.77 19.3062C2207.73 19.3411 2207.69 19.3842 2207.65 19.425C2207.61 19.4599 2207.57 19.4925 2207.54 19.5309C2207.49 19.5787 2207.44 19.6322 2207.39 19.6835C2207.36 19.723 2207.32 19.758 2207.29 19.7999C2207.24 19.8604 2207.18 19.9256 2207.13 19.9908C2207.09 20.0304 2207.06 20.0677 2207.03 20.1084C2206.96 20.1946 2206.88 20.2854 2206.81 20.3763C2206.79 20.3984 2206.78 20.4193 2206.76 20.4415C2206.67 20.5579 2206.58 20.6767 2206.48 20.7977C2206.24 21.1191 2205.99 21.4533 2205.75 21.7653C2205.75 21.7653 2205.75 21.7653 2204.03 24.1092C2203.86 24.3444 2203.67 24.5959 2203.49 24.8381C2198.65 31.4376 2189.54 44.2467 2189.54 44.2467C2189.1 44.858 2188.69 45.439 2188.29 45.9909C2187.97 46.4415 2187.65 46.8909 2187.33 47.3415C2187.05 47.7397 2183.25 53.1086 2182.42 54.2799C2180.99 56.3082 2180.99 56.3082 2180.99 56.3082C2180.63 56.8205 2180.1 57.5261 2179.68 58.163Z" fill="#FFBD5A"/>
<defs>
<filter id="filter0_dd_98_1379" x="0.599976" y="18.2002" width="2105.99" height="73.5" filterUnits="userSpaceOnUse" color-interpolation-filters="sRGB">
<feFlood flood-opacity="0" result="BackgroundImageFix"/>
<feColorMatrix in="SourceAlpha" type="matrix" values="0 0 0 0 0 0 0 0 0 0 0 0 0 0 0 0 0 0 127 0" result="hardAlpha"/>
<feOffset dx="2" dy="-1"/>
<feComposite in2="hardAlpha" operator="out"/>
<feColorMatrix type="matrix" values="0 0 0 0 0.952941 0 0 0 0 0.301961 0 0 0 0 0.301961 0 0 0 1 0"/>
<feBlend mode="normal" in2="BackgroundImageFix" result="effect1_dropShadow_98_1379"/>
<feColorMatrix in="SourceAlpha" type="matrix" values="0 0 0 0 0 0 0 0 0 0 0 0 0 0 0 0 0 0 127 0" result="hardAlpha"/>
<feOffset dx="-2" dy="1"/>
<feComposite in2="hardAlpha" operator="out"/>
<feColorMatrix type="matrix" values="0 0 0 0 0.247059 0 0 0 0 0.411765 0 0 0 0 1 0 0 0 1 0"/>
<feBlend mode="normal" in2="effect1_dropShadow_98_1379" result="effect2_dropShadow_98_1379"/>
<feBlend mode="normal" in="SourceGraphic" in2="effect2_dropShadow_98_1379" result="shape"/>
</filter>
</defs>
</svg>
