<svg width="2746" height="113" viewBox="0 0 2746 113" fill="none" xmlns="http://www.w3.org/2000/svg">
<path d="M48.8633 55.8089C52.7966 56.5422 56.03 58.5089 58.5633 61.7089C61.0966 64.9089 62.3633 68.5756 62.3633 72.7089C62.3633 76.4422 61.43 79.7422 59.5633 82.6089C57.7633 85.4089 55.13 87.6089 51.6633 89.2089C48.1966 90.8089 44.0966 91.6089 39.3633 91.6089H9.26328V21.8089H38.0633C42.7966 21.8089 46.8633 22.5756 50.2633 24.1089C53.73 25.6422 56.33 27.7756 58.0633 30.5089C59.8633 33.2422 60.7633 36.3422 60.7633 39.8089C60.7633 43.8756 59.6633 47.2756 57.4633 50.0089C55.33 52.7422 52.4633 54.6756 48.8633 55.8089ZM23.2633 50.6089H36.0633C39.3966 50.6089 41.9633 49.8756 43.7633 48.4089C45.5633 46.8756 46.4633 44.7089 46.4633 41.9089C46.4633 39.1089 45.5633 36.9422 43.7633 35.4089C41.9633 33.8755 39.3966 33.1089 36.0633 33.1089H23.2633V50.6089ZM37.3633 80.2089C40.7633 80.2089 43.3966 79.4089 45.2633 77.8089C47.1966 76.2089 48.1633 73.9422 48.1633 71.0089C48.1633 68.0089 47.1633 65.6756 45.1633 64.0089C43.1633 62.2756 40.4633 61.4089 37.0633 61.4089H23.2633V80.2089H37.3633ZM87.3211 21.8089V65.0089C87.3211 69.7422 88.5544 73.3756 91.0211 75.9089C93.4878 78.3756 96.9544 79.6089 101.421 79.6089C105.954 79.6089 109.454 78.3756 111.921 75.9089C114.388 73.3756 115.621 69.7422 115.621 65.0089V21.8089H129.721V64.9089C129.721 70.8422 128.421 75.8756 125.821 80.0089C123.288 84.0756 119.854 87.1422 115.521 89.2089C111.254 91.2756 106.488 92.3089 101.221 92.3089C96.0211 92.3089 91.2878 91.2756 87.0211 89.2089C82.8211 87.1422 79.4878 84.0756 77.0211 80.0089C74.5544 75.8756 73.3211 70.8422 73.3211 64.9089V21.8089H87.3211ZM198.748 21.8089L175.148 67.3089V91.6089H161.148V67.3089L137.448 21.8089H153.248L168.248 53.7089L183.148 21.8089H198.748ZM286.15 21.8089L262.55 67.3089V91.6089H248.55V67.3089L224.85 21.8089H240.65L255.65 53.7089L270.55 21.8089H286.15ZM326.624 92.3089C320.091 92.3089 314.091 90.7756 308.624 87.7089C303.158 84.6422 298.824 80.4089 295.624 75.0089C292.424 69.5422 290.824 63.3756 290.824 56.5089C290.824 49.7089 292.424 43.6089 295.624 38.2089C298.824 32.7422 303.158 28.4755 308.624 25.4089C314.091 22.3422 320.091 20.8089 326.624 20.8089C333.224 20.8089 339.224 22.3422 344.624 25.4089C350.091 28.4755 354.391 32.7422 357.524 38.2089C360.724 43.6089 362.324 49.7089 362.324 56.5089C362.324 63.3756 360.724 69.5422 357.524 75.0089C354.391 80.4089 350.091 84.6422 344.624 87.7089C339.158 90.7756 333.158 92.3089 326.624 92.3089ZM326.624 79.8089C330.824 79.8089 334.524 78.8756 337.724 77.0089C340.924 75.0756 343.424 72.3422 345.224 68.8089C347.024 65.2756 347.924 61.1756 347.924 56.5089C347.924 51.8422 347.024 47.7756 345.224 44.3089C343.424 40.7756 340.924 38.0756 337.724 36.2089C334.524 34.3422 330.824 33.4089 326.624 33.4089C322.424 33.4089 318.691 34.3422 315.424 36.2089C312.224 38.0756 309.724 40.7756 307.924 44.3089C306.124 47.7756 305.224 51.8422 305.224 56.5089C305.224 61.1756 306.124 65.2756 307.924 68.8089C309.724 72.3422 312.224 75.0756 315.424 77.0089C318.691 78.8756 322.424 79.8089 326.624 79.8089ZM386.54 21.8089V65.0089C386.54 69.7422 387.773 73.3756 390.24 75.9089C392.707 78.3756 396.173 79.6089 400.64 79.6089C405.173 79.6089 408.673 78.3756 411.14 75.9089C413.607 73.3756 414.84 69.7422 414.84 65.0089V21.8089H428.94V64.9089C428.94 70.8422 427.64 75.8756 425.04 80.0089C422.507 84.0756 419.073 87.1422 414.74 89.2089C410.473 91.2756 405.707 92.3089 400.44 92.3089C395.24 92.3089 390.507 91.2756 386.24 89.2089C382.04 87.1422 378.707 84.0756 376.24 80.0089C373.773 75.8756 372.54 70.8422 372.54 64.9089V21.8089L386.54 21.8089ZM478.466 91.6089L463.066 64.4089H456.466V91.6089H442.466V21.8089H468.666C474.066 21.8089 478.666 22.7756 482.466 24.7089C486.266 26.5756 489.1 29.1422 490.966 32.4089C492.9 35.6089 493.866 39.2089 493.866 43.2089C493.866 47.8089 492.533 51.9756 489.866 55.7089C487.2 59.3756 483.233 61.9089 477.966 63.3089L494.666 91.6089H478.466ZM456.466 53.9089H468.166C471.966 53.9089 474.8 53.0089 476.666 51.2089C478.533 49.3422 479.466 46.7756 479.466 43.5089C479.466 40.3089 478.533 37.8422 476.666 36.1089C474.8 34.3089 471.966 33.4089 468.166 33.4089H456.466V53.9089ZM577.857 21.8089V33.1089H559.257V91.6089H545.257V33.1089H526.657V21.8089H577.857ZM602.072 21.8089V91.6089H588.072V21.8089H602.072ZM612.504 56.6089C612.504 49.7422 614.037 43.6089 617.104 38.2089C620.237 32.7422 624.471 28.5089 629.804 25.5089C635.204 22.4422 641.237 20.9089 647.904 20.9089C655.704 20.9089 662.537 22.9089 668.404 26.9089C674.271 30.9089 678.371 36.4422 680.704 43.5089H664.604C663.004 40.1756 660.737 37.6756 657.804 36.0089C654.937 34.3422 651.604 33.5089 647.804 33.5089C643.737 33.5089 640.104 34.4755 636.904 36.4089C633.771 38.2755 631.304 40.9422 629.504 44.4089C627.771 47.8756 626.904 51.9422 626.904 56.6089C626.904 61.2089 627.771 65.2756 629.504 68.8089C631.304 72.2756 633.771 74.9756 636.904 76.9089C640.104 78.7756 643.737 79.7089 647.804 79.7089C651.604 79.7089 654.937 78.8756 657.804 77.2089C660.737 75.4756 663.004 72.9422 664.604 69.6089H680.704C678.371 76.7422 674.271 82.3089 668.404 86.3089C662.604 90.2422 655.771 92.2089 647.904 92.2089C641.237 92.2089 635.204 90.7089 629.804 87.7089C624.471 84.6422 620.237 80.4089 617.104 75.0089C614.037 69.6089 612.504 63.4756 612.504 56.6089ZM732.062 91.6089L706.662 60.5089V91.6089H692.662V21.8089H706.662V53.1089L732.062 21.8089H748.962L720.162 56.4089L749.762 91.6089H732.062ZM772.97 33.1089V50.6089H796.47V61.7089H772.97V80.2089H799.47V91.6089H758.97V21.7089H799.47V33.1089H772.97ZM859.693 21.8089V33.1089H841.093V91.6089H827.093V33.1089H808.493V21.8089H859.693ZM894.008 92.3089C889.141 92.3089 884.741 91.4756 880.808 89.8089C876.941 88.1422 873.874 85.7422 871.608 82.6089C869.341 79.4756 868.174 75.7756 868.108 71.5089H883.108C883.308 74.3756 884.308 76.6422 886.108 78.3089C887.974 79.9756 890.508 80.8089 893.708 80.8089C896.974 80.8089 899.541 80.0422 901.408 78.5089C903.274 76.9089 904.208 74.8422 904.208 72.3089C904.208 70.2422 903.574 68.5422 902.308 67.2089C901.041 65.8756 899.441 64.8422 897.508 64.1089C895.641 63.3089 893.041 62.4422 889.708 61.5089C885.174 60.1756 881.474 58.8756 878.608 57.6089C875.808 56.2756 873.374 54.3089 871.308 51.7089C869.308 49.0422 868.308 45.5089 868.308 41.1089C868.308 36.9756 869.341 33.3756 871.408 30.3089C873.474 27.2422 876.374 24.9089 880.108 23.3089C883.841 21.6422 888.108 20.8089 892.908 20.8089C900.108 20.8089 905.941 22.5756 910.408 26.1089C914.941 29.5755 917.441 34.4422 917.908 40.7089H902.508C902.374 38.3089 901.341 36.3422 899.408 34.8089C897.541 33.2089 895.041 32.4089 891.908 32.4089C889.174 32.4089 886.974 33.1089 885.308 34.5089C883.708 35.9089 882.908 37.9422 882.908 40.6089C882.908 42.4756 883.508 44.0422 884.708 45.3089C885.974 46.5089 887.508 47.5089 889.308 48.3089C891.174 49.0422 893.774 49.9089 897.108 50.9089C901.641 52.2422 905.341 53.5756 908.208 54.9089C911.074 56.2422 913.541 58.2422 915.608 60.9089C917.674 63.5756 918.708 67.0756 918.708 71.4089C918.708 75.1422 917.741 78.6089 915.808 81.8089C913.874 85.0089 911.041 87.5756 907.308 89.5089C903.574 91.3756 899.141 92.3089 894.008 92.3089ZM1012.57 21.8089V91.6089H998.573V61.9089H968.673V91.6089H954.673V21.8089H968.673V50.5089H998.573V21.8089H1012.57ZM1040.35 33.1089V50.6089H1063.85V61.7089H1040.35V80.2089H1066.85V91.6089H1026.35V21.7089H1066.85V33.1089H1040.35ZM1115.58 91.6089L1100.18 64.4089H1093.58V91.6089H1079.58V21.8089H1105.78C1111.18 21.8089 1115.78 22.7756 1119.58 24.7089C1123.38 26.5756 1126.21 29.1422 1128.08 32.4089C1130.01 35.6089 1130.98 39.2089 1130.98 43.2089C1130.98 47.8089 1129.64 51.9756 1126.98 55.7089C1124.31 59.3756 1120.34 61.9089 1115.08 63.3089L1131.78 91.6089H1115.58ZM1093.58 53.9089H1105.28C1109.08 53.9089 1111.91 53.0089 1113.78 51.2089C1115.64 49.3422 1116.58 46.7756 1116.58 43.5089C1116.58 40.3089 1115.64 37.8422 1113.78 36.1089C1111.91 34.3089 1109.08 33.4089 1105.28 33.4089H1093.58V53.9089ZM1157.64 33.1089V50.6089H1181.14V61.7089H1157.64V80.2089H1184.14V91.6089H1143.64V21.7089L1184.14 21.7089V33.1089H1157.64Z" fill="black"/>
<path d="M1267.47 59.1369C1267.19 59.5652 1266.98 59.9509 1267 60.1253C1267.01 60.1462 1267.01 60.1647 1267.02 60.1823L1267.02 60.1839C1267.03 60.2056 1267.05 60.2233 1267.07 60.2402C1267.1 60.2699 1267.14 60.294 1267.2 60.3141C1267.31 60.3479 1268.11 60.3189 1268.35 60.2996C1268.99 60.2458 1269.64 60.2 1270.28 60.163C1270.47 60.1526 1270.65 60.1462 1270.84 60.1365C1271.68 60.0947 1272.51 60.0618 1273.33 60.0425C1273.99 60.0256 1274.64 60.0152 1275.28 60.0088C1275.46 60.0072 1275.63 60.0063 1275.81 60.0055C1276.4 60.0023 1276.99 60.0007 1277.55 60.0063C1277.36 64.9194 1277.12 70.1281 1276.92 75.0877C1276.9 75.8535 1276.86 76.6129 1276.84 77.3634C1276.77 78.9625 1276.77 78.9625 1276.77 78.9625C1276.77 79.0758 1276.76 79.1956 1276.76 79.3145C1276.74 80.0345 1276.74 80.8284 1276.9 81.0438C1276.9 81.0542 1276.91 81.063 1276.92 81.0711C1276.94 81.0976 1276.97 81.1097 1277.01 81.1089C1277.01 81.1089 1277.01 81.1072 1277.02 81.1072C1277.05 81.1056 1277.08 81.0944 1277.12 81.0743C1277.13 81.0679 1277.14 81.0574 1277.15 81.0486C1277.18 81.0301 1277.21 81.0092 1277.24 80.9827C1277.25 80.969 1277.27 80.9522 1277.28 80.9369C1277.31 80.9088 1277.34 80.879 1277.37 80.8453C1277.38 80.8252 1277.4 80.8043 1277.42 80.7826C1277.45 80.748 1277.47 80.7119 1277.5 80.6741C1277.52 80.6492 1277.54 80.6235 1277.56 80.5978C1277.59 80.5592 1277.62 80.5182 1277.64 80.478C1277.66 80.4499 1277.68 80.4226 1277.7 80.3945C1277.73 80.3519 1277.76 80.3085 1277.79 80.2643C1277.81 80.2362 1277.82 80.208 1277.84 80.1799C1277.89 80.1124 1277.93 80.0449 1277.97 79.979C1277.97 79.979 1277.97 79.979 1278.68 78.8902C1283.14 72.0422 1288.96 63.6931 1294.12 56.4867C1295.65 54.3428 1295.91 53.9812 1295.91 53.9812C1295.94 53.9434 1295.97 53.9016 1296 53.8631C1296.67 52.9623 1297.51 51.9924 1297.85 51.3142C1297.95 51.1165 1298.01 50.9389 1298 50.7983C1297.99 50.7316 1297.96 50.6801 1297.91 50.6384C1297.89 50.6231 1297.85 50.6167 1297.83 50.6046C1297.78 50.5821 1297.74 50.558 1297.69 50.5435C1297.65 50.5331 1297.6 50.5299 1297.55 50.5226C1297.5 50.5138 1297.45 50.5034 1297.39 50.4985C1297.33 50.4945 1297.28 50.4945 1297.22 50.4929C1297.16 50.4913 1297.1 50.4873 1297.04 50.4873C1296.83 50.4897 1296.63 50.5001 1296.5 50.505C1296.5 50.505 1296.5 50.505 1295.49 50.5492C1292.54 50.6761 1289.53 50.8376 1286.66 51.0345C1286.87 45.9672 1287.15 40.155 1287.37 35.1423C1287.43 33.7506 1287.43 33.7506 1287.43 33.7506C1287.43 33.712 1287.44 33.667 1287.44 33.626C1287.46 33.0941 1287.48 32.3781 1287.32 32.1691C1287.29 32.1378 1287.26 32.1137 1287.23 32.1097C1287.2 32.1065 1287.18 32.1137 1287.15 32.1193C1287.13 32.1225 1287.12 32.1241 1287.1 32.1322C1287.08 32.141 1287.05 32.1547 1287.03 32.1683C1287.01 32.1796 1286.99 32.1892 1286.97 32.2037C1286.94 32.2206 1286.92 32.2431 1286.89 32.264C1286.87 32.2824 1286.84 32.2985 1286.82 32.3202C1286.79 32.3443 1286.76 32.3741 1286.73 32.4022C1286.71 32.4263 1286.68 32.4488 1286.66 32.4753C1286.63 32.5082 1286.59 32.5452 1286.56 32.5806C1286.54 32.6079 1286.51 32.632 1286.49 32.6609C1286.45 32.7027 1286.41 32.7477 1286.38 32.7927C1286.35 32.82 1286.33 32.8457 1286.31 32.8739C1286.26 32.9333 1286.21 32.996 1286.16 33.0587C1286.15 33.074 1286.14 33.0884 1286.12 33.1037C1286.06 33.184 1286 33.266 1285.93 33.3496C1285.76 33.5714 1285.59 33.802 1285.43 34.0173C1285.43 34.0173 1285.43 34.0174 1284.24 35.6349C1284.12 35.7973 1284 35.9708 1283.87 36.138C1280.54 40.6926 1274.26 49.5326 1274.26 49.5326C1273.96 49.9545 1273.67 50.3555 1273.4 50.7364C1273.18 51.0474 1272.96 51.3575 1272.74 51.6685C1272.55 51.9433 1269.92 55.6486 1269.36 56.457C1268.37 57.8568 1268.37 57.8568 1268.37 57.8568C1268.12 58.2104 1267.76 58.6973 1267.47 59.1369Z" fill="black"/>
<path d="M1421.86 55.8089C1425.8 56.5422 1429.03 58.5089 1431.56 61.7089C1434.1 64.9089 1435.36 68.5756 1435.36 72.7089C1435.36 76.4422 1434.43 79.7422 1432.56 82.6089C1430.76 85.4089 1428.13 87.6089 1424.66 89.2089C1421.2 90.8089 1417.1 91.6089 1412.36 91.6089H1382.26V21.8089H1411.06C1415.8 21.8089 1419.86 22.5756 1423.26 24.1089C1426.73 25.6422 1429.33 27.7756 1431.06 30.5089C1432.86 33.2422 1433.76 36.3422 1433.76 39.8089C1433.76 43.8756 1432.66 47.2756 1430.46 50.0089C1428.33 52.7422 1425.46 54.6756 1421.86 55.8089ZM1396.26 50.6089H1409.06C1412.4 50.6089 1414.96 49.8756 1416.76 48.4089C1418.56 46.8756 1419.46 44.7089 1419.46 41.9089C1419.46 39.1089 1418.56 36.9422 1416.76 35.4089C1414.96 33.8755 1412.4 33.1089 1409.06 33.1089H1396.26V50.6089ZM1410.36 80.2089C1413.76 80.2089 1416.4 79.4089 1418.26 77.8089C1420.2 76.2089 1421.16 73.9422 1421.16 71.0089C1421.16 68.0089 1420.16 65.6756 1418.16 64.0089C1416.16 62.2756 1413.46 61.4089 1410.06 61.4089H1396.26V80.2089H1410.36ZM1460.32 21.8089V65.0089C1460.32 69.7422 1461.55 73.3756 1464.02 75.9089C1466.49 78.3756 1469.95 79.6089 1474.42 79.6089C1478.95 79.6089 1482.45 78.3756 1484.92 75.9089C1487.39 73.3756 1488.62 69.7422 1488.62 65.0089V21.8089H1502.72V64.9089C1502.72 70.8422 1501.42 75.8756 1498.82 80.0089C1496.29 84.0756 1492.85 87.1422 1488.52 89.2089C1484.25 91.2756 1479.49 92.3089 1474.22 92.3089C1469.02 92.3089 1464.29 91.2756 1460.02 89.2089C1455.82 87.1422 1452.49 84.0756 1450.02 80.0089C1447.55 75.8756 1446.32 70.8422 1446.32 64.9089V21.8089H1460.32ZM1571.75 21.8089L1548.15 67.3089V91.6089H1534.15V67.3089L1510.45 21.8089H1526.25L1541.25 53.7089L1556.15 21.8089H1571.75ZM1659.15 21.8089L1635.55 67.3089V91.6089H1621.55V67.3089L1597.85 21.8089H1613.65L1628.65 53.7089L1643.55 21.8089H1659.15ZM1699.62 92.3089C1693.09 92.3089 1687.09 90.7756 1681.62 87.7089C1676.16 84.6422 1671.82 80.4089 1668.62 75.0089C1665.42 69.5422 1663.82 63.3756 1663.82 56.5089C1663.82 49.7089 1665.42 43.6089 1668.62 38.2089C1671.82 32.7422 1676.16 28.4755 1681.62 25.4089C1687.09 22.3422 1693.09 20.8089 1699.62 20.8089C1706.22 20.8089 1712.22 22.3422 1717.62 25.4089C1723.09 28.4755 1727.39 32.7422 1730.52 38.2089C1733.72 43.6089 1735.32 49.7089 1735.32 56.5089C1735.32 63.3756 1733.72 69.5422 1730.52 75.0089C1727.39 80.4089 1723.09 84.6422 1717.62 87.7089C1712.16 90.7756 1706.16 92.3089 1699.62 92.3089ZM1699.62 79.8089C1703.82 79.8089 1707.52 78.8756 1710.72 77.0089C1713.92 75.0756 1716.42 72.3422 1718.22 68.8089C1720.02 65.2756 1720.92 61.1756 1720.92 56.5089C1720.92 51.8422 1720.02 47.7756 1718.22 44.3089C1716.42 40.7756 1713.92 38.0756 1710.72 36.2089C1707.52 34.3422 1703.82 33.4089 1699.62 33.4089C1695.42 33.4089 1691.69 34.3422 1688.42 36.2089C1685.22 38.0756 1682.72 40.7756 1680.92 44.3089C1679.12 47.7756 1678.22 51.8422 1678.22 56.5089C1678.22 61.1756 1679.12 65.2756 1680.92 68.8089C1682.72 72.3422 1685.22 75.0756 1688.42 77.0089C1691.69 78.8756 1695.42 79.8089 1699.62 79.8089ZM1759.54 21.8089V65.0089C1759.54 69.7422 1760.77 73.3756 1763.24 75.9089C1765.71 78.3756 1769.17 79.6089 1773.64 79.6089C1778.17 79.6089 1781.67 78.3756 1784.14 75.9089C1786.61 73.3756 1787.84 69.7422 1787.84 65.0089V21.8089H1801.94V64.9089C1801.94 70.8422 1800.64 75.8756 1798.04 80.0089C1795.51 84.0756 1792.07 87.1422 1787.74 89.2089C1783.47 91.2756 1778.71 92.3089 1773.44 92.3089C1768.24 92.3089 1763.51 91.2756 1759.24 89.2089C1755.04 87.1422 1751.71 84.0756 1749.24 80.0089C1746.77 75.8756 1745.54 70.8422 1745.54 64.9089V21.8089L1759.54 21.8089ZM1851.47 91.6089L1836.07 64.4089H1829.47V91.6089H1815.47V21.8089H1841.67C1847.07 21.8089 1851.67 22.7756 1855.47 24.7089C1859.27 26.5756 1862.1 29.1422 1863.97 32.4089C1865.9 35.6089 1866.87 39.2089 1866.87 43.2089C1866.87 47.8089 1865.53 51.9756 1862.87 55.7089C1860.2 59.3756 1856.23 61.9089 1850.97 63.3089L1867.67 91.6089H1851.47ZM1829.47 53.9089H1841.17C1844.97 53.9089 1847.8 53.0089 1849.67 51.2089C1851.53 49.3422 1852.47 46.7756 1852.47 43.5089C1852.47 40.3089 1851.53 37.8422 1849.67 36.1089C1847.8 34.3089 1844.97 33.4089 1841.17 33.4089H1829.47V53.9089ZM1950.86 21.8089V33.1089H1932.26V91.6089H1918.26V33.1089H1899.66V21.8089H1950.86ZM1975.07 21.8089V91.6089H1961.07V21.8089H1975.07ZM1985.5 56.6089C1985.5 49.7422 1987.04 43.6089 1990.1 38.2089C1993.24 32.7422 1997.47 28.5089 2002.8 25.5089C2008.2 22.4422 2014.24 20.9089 2020.9 20.9089C2028.7 20.9089 2035.54 22.9089 2041.4 26.9089C2047.27 30.9089 2051.37 36.4422 2053.7 43.5089H2037.6C2036 40.1756 2033.74 37.6756 2030.8 36.0089C2027.94 34.3422 2024.6 33.5089 2020.8 33.5089C2016.74 33.5089 2013.1 34.4755 2009.9 36.4089C2006.77 38.2755 2004.3 40.9422 2002.5 44.4089C2000.77 47.8756 1999.9 51.9422 1999.9 56.6089C1999.9 61.2089 2000.77 65.2756 2002.5 68.8089C2004.3 72.2756 2006.77 74.9756 2009.9 76.9089C2013.1 78.7756 2016.74 79.7089 2020.8 79.7089C2024.6 79.7089 2027.94 78.8756 2030.8 77.2089C2033.74 75.4756 2036 72.9422 2037.6 69.6089H2053.7C2051.37 76.7422 2047.27 82.3089 2041.4 86.3089C2035.6 90.2422 2028.77 92.2089 2020.9 92.2089C2014.24 92.2089 2008.2 90.7089 2002.8 87.7089C1997.47 84.6422 1993.24 80.4089 1990.1 75.0089C1987.04 69.6089 1985.5 63.4756 1985.5 56.6089ZM2105.06 91.6089L2079.66 60.5089V91.6089H2065.66V21.8089H2079.66V53.1089L2105.06 21.8089H2121.96L2093.16 56.4089L2122.76 91.6089H2105.06ZM2145.97 33.1089V50.6089H2169.47V61.7089H2145.97V80.2089H2172.47V91.6089H2131.97V21.7089H2172.47V33.1089H2145.97ZM2232.69 21.8089V33.1089H2214.09V91.6089H2200.09V33.1089H2181.49V21.8089H2232.69ZM2267.01 92.3089C2262.14 92.3089 2257.74 91.4756 2253.81 89.8089C2249.94 88.1422 2246.87 85.7422 2244.61 82.6089C2242.34 79.4756 2241.17 75.7756 2241.11 71.5089H2256.11C2256.31 74.3756 2257.31 76.6422 2259.11 78.3089C2260.97 79.9756 2263.51 80.8089 2266.71 80.8089C2269.97 80.8089 2272.54 80.0422 2274.41 78.5089C2276.27 76.9089 2277.21 74.8422 2277.21 72.3089C2277.21 70.2422 2276.57 68.5422 2275.31 67.2089C2274.04 65.8756 2272.44 64.8422 2270.51 64.1089C2268.64 63.3089 2266.04 62.4422 2262.71 61.5089C2258.17 60.1756 2254.47 58.8756 2251.61 57.6089C2248.81 56.2756 2246.37 54.3089 2244.31 51.7089C2242.31 49.0422 2241.31 45.5089 2241.31 41.1089C2241.31 36.9756 2242.34 33.3756 2244.41 30.3089C2246.47 27.2422 2249.37 24.9089 2253.11 23.3089C2256.84 21.6422 2261.11 20.8089 2265.91 20.8089C2273.11 20.8089 2278.94 22.5756 2283.41 26.1089C2287.94 29.5755 2290.44 34.4422 2290.91 40.7089H2275.51C2275.37 38.3089 2274.34 36.3422 2272.41 34.8089C2270.54 33.2089 2268.04 32.4089 2264.91 32.4089C2262.17 32.4089 2259.97 33.1089 2258.31 34.5089C2256.71 35.9089 2255.91 37.9422 2255.91 40.6089C2255.91 42.4756 2256.51 44.0422 2257.71 45.3089C2258.97 46.5089 2260.51 47.5089 2262.31 48.3089C2264.17 49.0422 2266.77 49.9089 2270.11 50.9089C2274.64 52.2422 2278.34 53.5756 2281.21 54.9089C2284.07 56.2422 2286.54 58.2422 2288.61 60.9089C2290.67 63.5756 2291.71 67.0756 2291.71 71.4089C2291.71 75.1422 2290.74 78.6089 2288.81 81.8089C2286.87 85.0089 2284.04 87.5756 2280.31 89.5089C2276.57 91.3756 2272.14 92.3089 2267.01 92.3089ZM2385.57 21.8089V91.6089H2371.57V61.9089H2341.67V91.6089H2327.67V21.8089H2341.67V50.5089H2371.57V21.8089H2385.57ZM2413.35 33.1089V50.6089H2436.85V61.7089H2413.35V80.2089H2439.85V91.6089H2399.35V21.7089H2439.85V33.1089H2413.35ZM2488.58 91.6089L2473.18 64.4089H2466.58V91.6089H2452.58V21.8089H2478.78C2484.18 21.8089 2488.78 22.7756 2492.58 24.7089C2496.38 26.5756 2499.21 29.1422 2501.08 32.4089C2503.01 35.6089 2503.98 39.2089 2503.98 43.2089C2503.98 47.8089 2502.64 51.9756 2499.98 55.7089C2497.31 59.3756 2493.34 61.9089 2488.08 63.3089L2504.78 91.6089H2488.58ZM2466.58 53.9089H2478.28C2482.08 53.9089 2484.91 53.0089 2486.78 51.2089C2488.64 49.3422 2489.58 46.7756 2489.58 43.5089C2489.58 40.3089 2488.64 37.8422 2486.78 36.1089C2484.91 34.3089 2482.08 33.4089 2478.28 33.4089H2466.58V53.9089ZM2530.64 33.1089V50.6089H2554.14V61.7089H2530.64V80.2089H2557.14V91.6089H2516.64V21.7089L2557.14 21.7089V33.1089H2530.64Z" fill="black"/>
<path d="M2640.47 59.1369C2640.19 59.5652 2639.98 59.9509 2640 60.1253C2640.01 60.1462 2640.01 60.1647 2640.02 60.1823L2640.02 60.1839C2640.03 60.2056 2640.05 60.2233 2640.07 60.2402C2640.1 60.2699 2640.14 60.294 2640.2 60.3141C2640.31 60.3479 2641.11 60.3189 2641.35 60.2996C2641.99 60.2458 2642.64 60.2 2643.28 60.163C2643.47 60.1526 2643.65 60.1462 2643.84 60.1365C2644.68 60.0947 2645.51 60.0618 2646.33 60.0425C2646.99 60.0256 2647.64 60.0152 2648.28 60.0088C2648.46 60.0072 2648.63 60.0063 2648.81 60.0055C2649.4 60.0023 2649.99 60.0007 2650.55 60.0063C2650.36 64.9194 2650.12 70.1281 2649.92 75.0877C2649.9 75.8535 2649.86 76.6129 2649.84 77.3634C2649.77 78.9625 2649.77 78.9625 2649.77 78.9625C2649.77 79.0758 2649.76 79.1956 2649.76 79.3145C2649.74 80.0345 2649.74 80.8284 2649.9 81.0438C2649.9 81.0542 2649.91 81.063 2649.92 81.0711C2649.94 81.0976 2649.97 81.1097 2650.01 81.1089C2650.01 81.1089 2650.01 81.1072 2650.02 81.1072C2650.05 81.1056 2650.08 81.0944 2650.12 81.0743C2650.13 81.0679 2650.14 81.0574 2650.15 81.0486C2650.18 81.0301 2650.21 81.0092 2650.24 80.9827C2650.25 80.969 2650.27 80.9522 2650.28 80.9369C2650.31 80.9088 2650.34 80.879 2650.37 80.8453C2650.38 80.8252 2650.4 80.8043 2650.42 80.7826C2650.45 80.748 2650.47 80.7119 2650.5 80.6741C2650.52 80.6492 2650.54 80.6235 2650.56 80.5978C2650.59 80.5592 2650.62 80.5182 2650.64 80.478C2650.66 80.4499 2650.68 80.4226 2650.7 80.3945C2650.73 80.3519 2650.76 80.3085 2650.79 80.2643C2650.81 80.2362 2650.82 80.208 2650.84 80.1799C2650.89 80.1124 2650.93 80.0449 2650.97 79.979C2650.97 79.979 2650.97 79.979 2651.68 78.8902C2656.14 72.0422 2661.96 63.6931 2667.12 56.4867C2668.65 54.3428 2668.91 53.9812 2668.91 53.9812C2668.94 53.9434 2668.97 53.9016 2669 53.8631C2669.67 52.9623 2670.51 51.9924 2670.85 51.3142C2670.95 51.1165 2671.01 50.9389 2671 50.7983C2670.99 50.7316 2670.96 50.6801 2670.91 50.6384C2670.89 50.6231 2670.85 50.6167 2670.83 50.6046C2670.78 50.5821 2670.74 50.558 2670.69 50.5435C2670.65 50.5331 2670.6 50.5299 2670.55 50.5226C2670.5 50.5138 2670.45 50.5034 2670.39 50.4985C2670.33 50.4945 2670.28 50.4945 2670.22 50.4929C2670.16 50.4913 2670.1 50.4873 2670.04 50.4873C2669.83 50.4897 2669.63 50.5001 2669.5 50.505C2669.5 50.505 2669.5 50.505 2668.49 50.5492C2665.54 50.6761 2662.53 50.8376 2659.66 51.0345C2659.87 45.9672 2660.15 40.155 2660.37 35.1423C2660.43 33.7506 2660.43 33.7506 2660.43 33.7506C2660.43 33.712 2660.44 33.667 2660.44 33.626C2660.46 33.0941 2660.48 32.3781 2660.32 32.1691C2660.29 32.1378 2660.26 32.1137 2660.23 32.1097C2660.2 32.1065 2660.18 32.1137 2660.15 32.1193C2660.13 32.1225 2660.12 32.1241 2660.1 32.1322C2660.08 32.141 2660.05 32.1547 2660.03 32.1683C2660.01 32.1796 2659.99 32.1892 2659.97 32.2037C2659.94 32.2206 2659.92 32.2431 2659.89 32.264C2659.87 32.2824 2659.84 32.2985 2659.82 32.3202C2659.79 32.3443 2659.76 32.3741 2659.73 32.4022C2659.71 32.4263 2659.68 32.4488 2659.66 32.4753C2659.63 32.5082 2659.59 32.5452 2659.56 32.5806C2659.54 32.6079 2659.51 32.632 2659.49 32.6609C2659.45 32.7027 2659.41 32.7477 2659.38 32.7927C2659.35 32.82 2659.33 32.8457 2659.31 32.8739C2659.26 32.9333 2659.21 32.996 2659.16 33.0587C2659.15 33.074 2659.14 33.0884 2659.12 33.1037C2659.06 33.184 2659 33.266 2658.93 33.3496C2658.76 33.5714 2658.59 33.802 2658.43 34.0173C2658.43 34.0173 2658.43 34.0174 2657.24 35.6349C2657.12 35.7973 2657 35.9708 2656.87 36.138C2653.54 40.6926 2647.26 49.5326 2647.26 49.5326C2646.96 49.9545 2646.67 50.3555 2646.4 50.7364C2646.18 51.0474 2645.96 51.3575 2645.74 51.6685C2645.55 51.9433 2642.92 55.6486 2642.36 56.457C2641.37 57.8568 2641.37 57.8568 2641.37 57.8568C2641.12 58.2104 2640.76 58.6973 2640.47 59.1369Z" fill="black"/>
</svg>
