<svg width="1550" height="152" viewBox="0 0 1550 152" fill="none" xmlns="http://www.w3.org/2000/svg">
<path d="M69.5996 101.359L64.1456 85.4817H31.1792L25.7252 101.359H7.6664L37.6028 16.5189H57.8432L87.6584 101.359H69.5996ZM35.6636 72.3921H59.7824L47.6624 37.1229L35.6636 72.3921ZM116.635 88.3905H128.27C137.158 88.3905 144.066 85.7645 148.995 80.5125C153.924 75.2605 156.388 68.1501 156.388 59.1813C156.388 50.2125 153.924 43.1021 148.995 37.8501C144.066 32.5981 137.158 29.9721 128.27 29.9721H116.635V88.3905ZM128.27 16.7613C141.844 16.7613 152.793 20.6397 161.115 28.3965C169.518 36.1533 173.72 46.4149 173.72 59.1813C173.72 71.9477 169.518 82.1689 161.115 89.8449C152.793 97.5209 141.844 101.359 128.27 101.359H99.5455V16.7613H128.27ZM244.338 79.0581C249.105 73.9677 251.489 67.2209 251.489 58.8177C251.489 50.4145 249.105 43.7081 244.338 38.6985C239.571 33.6889 233.349 31.1841 225.673 31.1841C217.997 31.1841 211.735 33.7293 206.887 38.8197C202.12 43.8293 199.736 50.5357 199.736 58.9389C199.736 67.2613 202.12 73.9677 206.887 79.0581C211.735 84.0677 217.997 86.5725 225.673 86.5725C233.349 86.5725 239.571 84.0677 244.338 79.0581ZM225.673 102.207C213.472 102.207 203.211 98.1269 194.888 89.9661C186.566 81.8053 182.405 71.4629 182.405 58.9389C182.405 46.3341 186.566 35.9513 194.888 27.7905C203.291 19.6297 213.553 15.5493 225.673 15.5493C237.874 15.5493 248.135 19.6297 256.458 27.7905C264.78 35.9513 268.941 46.3341 268.941 58.9389C268.941 71.4629 264.78 81.8053 256.458 89.9661C248.135 98.1269 237.874 102.207 225.673 102.207ZM337.678 58.9389C335.496 61.6053 332.305 63.7465 328.103 65.3625C323.982 66.8977 319.134 67.6653 313.559 67.6653H299.5V101.359H282.411V16.7613H313.559C323.336 16.7613 330.85 19.2257 336.102 24.1545C341.435 29.0025 344.102 34.7393 344.102 41.3649C344.102 47.9905 341.96 53.8485 337.678 58.9389ZM299.5 54.5757H313.559C317.842 54.5757 321.114 53.4849 323.376 51.3033C325.639 49.0409 326.77 46.0109 326.77 42.2133C326.77 38.4157 325.639 35.4261 323.376 33.2445C321.114 30.9821 317.842 29.8509 313.559 29.8509H299.5V54.5757ZM352.008 29.8509V16.7613H414.668V29.8509H391.762V101.359H374.794V29.8509H352.008ZM427.756 101.359V16.7613H444.845V101.359H427.756ZM518.416 16.5189H535.505V101.359H518.416L480.116 42.6981V101.359H463.027V16.5189H480.116L518.416 75.1797V16.5189ZM561.447 89.8449C553.125 81.6841 548.964 71.3417 548.964 58.8177C548.964 46.2937 553.125 35.9513 561.447 27.7905C569.85 19.6297 580.112 15.5493 592.232 15.5493C601.443 15.5493 609.604 17.8925 616.714 22.5789C623.906 27.2653 629.036 33.8505 632.107 42.3345H611.624C607.826 34.9009 601.362 31.1841 592.232 31.1841C584.556 31.1841 578.294 33.7293 573.446 38.8197C568.679 43.8293 566.295 50.5357 566.295 58.9389C566.295 67.2613 568.679 73.9677 573.446 79.0581C578.294 84.0677 584.192 86.5725 591.141 86.5725C598.171 86.5725 603.665 84.8757 607.624 81.4821C611.664 78.0077 614.169 73.3617 615.139 67.5441H587.02V54.5757H633.44V67.5441C631.986 76.7553 627.461 84.8353 619.866 91.7841C612.27 98.6521 602.696 102.086 591.141 102.086C579.668 102.086 569.77 98.0057 561.447 89.8449Z" fill="#F34D4D"/>
<path d="M64.5996 105.359L59.1456 89.4817H26.1792L20.7252 105.359H2.6664L32.6028 20.5189H52.8432L82.6584 105.359H64.5996ZM30.6636 76.3921H54.7824L42.6624 41.1229L30.6636 76.3921ZM111.635 92.3905H123.27C132.158 92.3905 139.066 89.7645 143.995 84.5125C148.924 79.2605 151.388 72.1501 151.388 63.1813C151.388 54.2125 148.924 47.1021 143.995 41.8501C139.066 36.5981 132.158 33.9721 123.27 33.9721H111.635V92.3905ZM123.27 20.7613C136.844 20.7613 147.793 24.6397 156.115 32.3965C164.518 40.1533 168.72 50.4149 168.72 63.1813C168.72 75.9477 164.518 86.1689 156.115 93.8449C147.793 101.521 136.844 105.359 123.27 105.359H94.5455V20.7613H123.27ZM239.338 83.0581C244.105 77.9677 246.489 71.2209 246.489 62.8177C246.489 54.4145 244.105 47.7081 239.338 42.6985C234.571 37.6889 228.349 35.1841 220.673 35.1841C212.997 35.1841 206.735 37.7293 201.887 42.8197C197.12 47.8293 194.736 54.5357 194.736 62.9389C194.736 71.2613 197.12 77.9677 201.887 83.0581C206.735 88.0677 212.997 90.5725 220.673 90.5725C228.349 90.5725 234.571 88.0677 239.338 83.0581ZM220.673 106.207C208.472 106.207 198.211 102.127 189.888 93.9661C181.566 85.8053 177.405 75.4629 177.405 62.9389C177.405 50.3341 181.566 39.9513 189.888 31.7905C198.291 23.6297 208.553 19.5493 220.673 19.5493C232.874 19.5493 243.135 23.6297 251.458 31.7905C259.78 39.9513 263.941 50.3341 263.941 62.9389C263.941 75.4629 259.78 85.8053 251.458 93.9661C243.135 102.127 232.874 106.207 220.673 106.207ZM332.678 62.9389C330.496 65.6053 327.305 67.7465 323.103 69.3625C318.982 70.8977 314.134 71.6653 308.559 71.6653H294.5V105.359H277.411V20.7613H308.559C318.336 20.7613 325.85 23.2257 331.102 28.1545C336.435 33.0025 339.102 38.7393 339.102 45.3649C339.102 51.9905 336.96 57.8485 332.678 62.9389ZM294.5 58.5757H308.559C312.842 58.5757 316.114 57.4849 318.376 55.3033C320.639 53.0409 321.77 50.0109 321.77 46.2133C321.77 42.4157 320.639 39.4261 318.376 37.2445C316.114 34.9821 312.842 33.8509 308.559 33.8509H294.5V58.5757ZM347.008 33.8509V20.7613H409.668V33.8509H386.762V105.359H369.794V33.8509H347.008ZM422.756 105.359V20.7613H439.845V105.359H422.756ZM513.416 20.5189H530.505V105.359H513.416L475.116 46.6981V105.359H458.027V20.5189H475.116L513.416 79.1797V20.5189ZM556.447 93.8449C548.125 85.6841 543.964 75.3417 543.964 62.8177C543.964 50.2937 548.125 39.9513 556.447 31.7905C564.85 23.6297 575.112 19.5493 587.232 19.5493C596.443 19.5493 604.604 21.8925 611.714 26.5789C618.906 31.2653 624.036 37.8505 627.107 46.3345H606.624C602.826 38.9009 596.362 35.1841 587.232 35.1841C579.556 35.1841 573.294 37.7293 568.446 42.8197C563.679 47.8293 561.295 54.5357 561.295 62.9389C561.295 71.2613 563.679 77.9677 568.446 83.0581C573.294 88.0677 579.192 90.5725 586.141 90.5725C593.171 90.5725 598.665 88.8757 602.624 85.4821C606.664 82.0077 609.169 77.3617 610.139 71.5441H582.02V58.5757H628.44V71.5441C626.986 80.7553 622.461 88.8353 614.866 95.7841C607.27 102.652 597.696 106.086 586.141 106.086C574.668 106.086 564.77 102.006 556.447 93.8449Z" fill="#3F69FF"/>
<path d="M63.2364 93.2393H29.5428L23.9676 109.359H6.1512L36.5724 24.6401H56.328L86.7492 109.359H68.8116L63.2364 93.2393ZM58.6308 79.6649L46.3896 44.2745L34.1484 79.6649H58.6308ZM127.693 24.7613C136.581 24.7613 144.378 26.4985 151.085 29.9729C157.872 33.4473 163.083 38.4165 166.719 44.8805C170.436 51.2637 172.295 58.6973 172.295 67.1813C172.295 75.6653 170.436 83.0989 166.719 89.4821C163.083 95.7845 157.872 100.673 151.085 104.147C144.378 107.622 136.581 109.359 127.693 109.359H98.1202V24.7613H127.693ZM127.087 94.9361C135.975 94.9361 142.843 92.5121 147.691 87.6641C152.539 82.8161 154.963 75.9885 154.963 67.1813C154.963 58.3741 152.539 51.5061 147.691 46.5773C142.843 41.5677 135.975 39.0629 127.087 39.0629H115.088V94.9361H127.087ZM224.265 110.207C216.346 110.207 209.074 108.349 202.449 104.632C195.823 100.915 190.571 95.7845 186.693 89.2397C182.814 82.6141 180.875 75.1401 180.875 66.8177C180.875 58.5761 182.814 51.1829 186.693 44.6381C190.571 38.0125 195.823 32.8413 202.449 29.1245C209.074 25.4077 216.346 23.5493 224.265 23.5493C232.264 23.5493 239.536 25.4077 246.081 29.1245C252.706 32.8413 257.918 38.0125 261.716 44.6381C265.594 51.1829 267.533 58.5761 267.533 66.8177C267.533 75.1401 265.594 82.6141 261.716 89.2397C257.918 95.7845 252.706 100.915 246.081 104.632C239.455 108.349 232.183 110.207 224.265 110.207ZM224.265 95.0573C229.355 95.0573 233.84 93.9261 237.718 91.6637C241.596 89.3205 244.626 86.0077 246.808 81.7253C248.99 77.4429 250.08 72.4737 250.08 66.8177C250.08 61.1617 248.99 56.2329 246.808 52.0313C244.626 47.7489 241.596 44.4765 237.718 42.2141C233.84 39.9517 229.355 38.8205 224.265 38.8205C219.174 38.8205 214.65 39.9517 210.69 42.2141C206.812 44.4765 203.782 47.7489 201.6 52.0313C199.419 56.2329 198.328 61.1617 198.328 66.8177C198.328 72.4737 199.419 77.4429 201.6 81.7253C203.782 86.0077 206.812 89.3205 210.69 91.6637C214.65 93.9261 219.174 95.0573 224.265 95.0573ZM341.848 50.9405C341.848 55.4653 340.757 59.7073 338.575 63.6665C336.475 67.6257 333.121 70.8173 328.516 73.2413C323.991 75.6653 318.254 76.8773 311.305 76.8773H297.125V109.359H280.157V24.7613H311.305C317.85 24.7613 323.425 25.8925 328.031 28.1549C332.637 30.4173 336.071 33.5281 338.333 37.4873C340.676 41.4465 341.848 45.9309 341.848 50.9405ZM310.578 63.1817C315.265 63.1817 318.739 62.1313 321.001 60.0305C323.264 57.8489 324.395 54.8189 324.395 50.9405C324.395 42.6989 319.789 38.5781 310.578 38.5781H297.125V63.1817H310.578ZM411.465 24.7613V38.4569H388.922V109.359H371.954V38.4569H349.41V24.7613H411.465ZM440.813 24.7613V109.359H423.845V24.7613H440.813ZM529.934 109.359H512.966L474.546 51.3041V109.359H457.578V24.6401H474.546L512.966 82.8161V24.6401H529.934V109.359ZM605.605 50.2133C603.666 46.6581 601 43.9513 597.606 42.0929C594.213 40.2345 590.253 39.3053 585.729 39.3053C580.719 39.3053 576.275 40.4365 572.397 42.6989C568.518 44.9613 565.488 48.1933 563.307 52.3949C561.125 56.5965 560.034 61.4445 560.034 66.9389C560.034 72.5949 561.125 77.5237 563.307 81.7253C565.569 85.9269 568.68 89.1589 572.639 91.4213C576.598 93.6837 581.204 94.8149 586.456 94.8149C592.92 94.8149 598.212 93.1181 602.333 89.7245C606.454 86.2501 609.161 81.4425 610.453 75.3017H581.365V62.3333H627.179V77.1197C626.048 83.0181 623.624 88.4721 619.907 93.4817C616.19 98.4913 611.383 102.531 605.484 105.602C599.667 108.591 593.122 110.086 585.85 110.086C577.689 110.086 570.296 108.268 563.67 104.632C557.125 100.915 551.954 95.7845 548.157 89.2397C544.44 82.6949 542.581 75.2613 542.581 66.9389C542.581 58.6165 544.44 51.1829 548.157 44.6381C551.954 38.0125 557.125 32.8817 563.67 29.2457C570.296 25.5289 577.649 23.6705 585.729 23.6705C595.263 23.6705 603.545 26.0137 610.575 30.7001C617.604 35.3057 622.452 41.8101 625.119 50.2133H605.605Z" fill="#EEDB5F"/>
<path d="M840.09 16.7613H874.39C883.035 16.7613 889.822 18.8621 894.751 23.0637C899.761 27.2653 902.266 32.5981 902.266 39.0621C902.266 48.5157 896.771 54.8585 885.782 58.0905C891.358 58.8985 895.802 61.3225 899.114 65.3625C902.508 69.3217 904.205 73.9273 904.205 79.1793C904.205 85.8049 901.7 91.1781 896.69 95.2989C891.681 99.3389 884.894 101.359 876.329 101.359H840.09V16.7613ZM857.179 29.8509V51.7881H872.572C876.369 51.7881 879.359 50.8589 881.54 49.0005C883.803 47.0613 884.934 44.3545 884.934 40.8801C884.934 37.4057 883.803 34.6989 881.54 32.7597C879.359 30.8205 876.369 29.8509 872.572 29.8509H857.179ZM857.179 88.2693H874.39C878.187 88.2693 881.217 87.2593 883.48 85.2393C885.823 83.1385 886.994 80.2701 886.994 76.6341C886.994 72.9981 885.823 70.1297 883.48 68.0289C881.136 65.9281 878.066 64.8777 874.268 64.8777H857.179V88.2693ZM918.917 101.359V16.7613H936.007V101.359H918.917ZM949.219 29.8509V16.7613H1011.88V29.8509H988.973V101.359H972.005V29.8509H949.219ZM1032.72 89.8449C1024.4 81.6841 1020.24 71.3417 1020.24 58.8177C1020.24 46.2937 1024.4 35.9513 1032.72 27.7905C1041.13 19.6297 1051.39 15.5493 1063.51 15.5493C1072.72 15.5493 1080.88 17.8925 1087.99 22.5789C1095.18 27.2653 1100.31 33.8505 1103.38 42.3345H1082.9C1079.1 34.9009 1072.64 31.1841 1063.51 31.1841C1055.83 31.1841 1049.57 33.7293 1044.72 38.8197C1039.96 43.8293 1037.57 50.5357 1037.57 58.9389C1037.57 67.2613 1039.96 73.9677 1044.72 79.0581C1049.57 84.0677 1055.83 86.5725 1063.51 86.5725C1072.56 86.5725 1079.02 82.8557 1082.9 75.4221H1103.38C1100.31 83.9061 1095.18 90.4913 1087.99 95.1777C1080.88 99.7833 1072.72 102.086 1063.51 102.086C1051.31 102.086 1041.05 98.0057 1032.72 89.8449ZM1175.32 79.0581C1180.09 73.9677 1182.47 67.2209 1182.47 58.8177C1182.47 50.4145 1180.09 43.7081 1175.32 38.6985C1170.56 33.6889 1164.33 31.1841 1156.66 31.1841C1148.98 31.1841 1142.72 33.7293 1137.87 38.8197C1133.1 43.8293 1130.72 50.5357 1130.72 58.9389C1130.72 67.2613 1133.1 73.9677 1137.87 79.0581C1142.72 84.0677 1148.98 86.5725 1156.66 86.5725C1164.33 86.5725 1170.56 84.0677 1175.32 79.0581ZM1156.66 102.207C1144.46 102.207 1134.2 98.1269 1125.87 89.9661C1117.55 81.8053 1113.39 71.4629 1113.39 58.9389C1113.39 46.3341 1117.55 35.9513 1125.87 27.7905C1134.28 19.6297 1144.54 15.5493 1156.66 15.5493C1168.86 15.5493 1179.12 19.6297 1187.44 27.7905C1195.76 35.9513 1199.93 46.3341 1199.93 58.9389C1199.93 71.4629 1195.76 81.8053 1187.44 89.9661C1179.12 98.1269 1168.86 102.207 1156.66 102.207ZM1213.4 101.359V16.7613H1230.48V101.359H1213.4ZM1304.05 16.5189H1321.14V101.359H1304.05L1265.76 42.6981V101.359H1248.67V16.5189H1265.76L1304.05 75.1797V16.5189Z" fill="#F34D4D"/>
<path d="M836.09 21.7613H870.39C879.035 21.7613 885.822 23.8621 890.751 28.0637C895.761 32.2653 898.266 37.5981 898.266 44.0621C898.266 53.5157 892.771 59.8585 881.782 63.0905C887.358 63.8985 891.802 66.3225 895.114 70.3625C898.508 74.3217 900.205 78.9273 900.205 84.1793C900.205 90.8049 897.7 96.1781 892.69 100.299C887.681 104.339 880.894 106.359 872.329 106.359H836.09V21.7613ZM853.179 34.8509V56.7881H868.572C872.369 56.7881 875.359 55.8589 877.54 54.0005C879.803 52.0613 880.934 49.3545 880.934 45.8801C880.934 42.4057 879.803 39.6989 877.54 37.7597C875.359 35.8205 872.369 34.8509 868.572 34.8509H853.179ZM853.179 93.2693H870.39C874.187 93.2693 877.217 92.2593 879.48 90.2393C881.823 88.1385 882.994 85.2701 882.994 81.6341C882.994 77.9981 881.823 75.1297 879.48 73.0289C877.136 70.9281 874.066 69.8777 870.268 69.8777H853.179V93.2693ZM914.917 106.359V21.7613H932.007V106.359H914.917ZM945.219 34.8509V21.7613H1007.88V34.8509H984.973V106.359H968.005V34.8509H945.219ZM1028.72 94.8449C1020.4 86.6841 1016.24 76.3417 1016.24 63.8177C1016.24 51.2937 1020.4 40.9513 1028.72 32.7905C1037.13 24.6297 1047.39 20.5493 1059.51 20.5493C1068.72 20.5493 1076.88 22.8925 1083.99 27.5789C1091.18 32.2653 1096.31 38.8505 1099.38 47.3345H1078.9C1075.1 39.9009 1068.64 36.1841 1059.51 36.1841C1051.83 36.1841 1045.57 38.7293 1040.72 43.8197C1035.96 48.8293 1033.57 55.5357 1033.57 63.9389C1033.57 72.2613 1035.96 78.9677 1040.72 84.0581C1045.57 89.0677 1051.83 91.5725 1059.51 91.5725C1068.56 91.5725 1075.02 87.8557 1078.9 80.4221H1099.38C1096.31 88.9061 1091.18 95.4913 1083.99 100.178C1076.88 104.783 1068.72 107.086 1059.51 107.086C1047.31 107.086 1037.05 103.006 1028.72 94.8449ZM1171.32 84.0581C1176.09 78.9677 1178.47 72.2209 1178.47 63.8177C1178.47 55.4145 1176.09 48.7081 1171.32 43.6985C1166.56 38.6889 1160.33 36.1841 1152.66 36.1841C1144.98 36.1841 1138.72 38.7293 1133.87 43.8197C1129.1 48.8293 1126.72 55.5357 1126.72 63.9389C1126.72 72.2613 1129.1 78.9677 1133.87 84.0581C1138.72 89.0677 1144.98 91.5725 1152.66 91.5725C1160.33 91.5725 1166.56 89.0677 1171.32 84.0581ZM1152.66 107.207C1140.46 107.207 1130.2 103.127 1121.87 94.9661C1113.55 86.8053 1109.39 76.4629 1109.39 63.9389C1109.39 51.3341 1113.55 40.9513 1121.87 32.7905C1130.28 24.6297 1140.54 20.5493 1152.66 20.5493C1164.86 20.5493 1175.12 24.6297 1183.44 32.7905C1191.76 40.9513 1195.93 51.3341 1195.93 63.9389C1195.93 76.4629 1191.76 86.8053 1183.44 94.9661C1175.12 103.127 1164.86 107.207 1152.66 107.207ZM1209.4 106.359V21.7613H1226.48V106.359H1209.4ZM1300.05 21.5189H1317.14V106.359H1300.05L1261.76 47.6981V106.359H1244.67V21.5189H1261.76L1300.05 80.1797V21.5189Z" fill="#3F69FF"/>
<path d="M885.358 65.9693C890.125 66.8581 894.044 69.2417 897.114 73.1201C900.185 76.9985 901.72 81.4425 901.72 86.4521C901.72 90.9769 900.589 94.9765 898.326 98.4509C896.145 101.844 892.953 104.511 888.752 106.45C884.55 108.389 879.581 109.359 873.844 109.359H837.363V24.7613H872.268C878.005 24.7613 882.934 25.6905 887.055 27.5489C891.256 29.4073 894.408 31.9929 896.508 35.3057C898.69 38.6185 899.781 42.3757 899.781 46.5773C899.781 51.5061 898.448 55.6269 895.781 58.9397C893.196 62.2525 889.721 64.5957 885.358 65.9693ZM854.331 59.6669H869.844C873.884 59.6669 876.995 58.7781 879.177 57.0005C881.358 55.1421 882.449 52.5161 882.449 49.1225C882.449 45.7289 881.358 43.1029 879.177 41.2445C876.995 39.3861 873.884 38.4569 869.844 38.4569H854.331V59.6669ZM871.42 95.5421C875.541 95.5421 878.732 94.5725 880.995 92.6333C883.338 90.6941 884.51 87.9469 884.51 84.3917C884.51 80.7557 883.298 77.9277 880.874 75.9077C878.45 73.8069 875.177 72.7565 871.056 72.7565H854.331V95.5421H871.42ZM932.211 24.7613V109.359H915.243V24.7613H932.211ZM1006.55 24.7613V38.4569H984.002V109.359H967.034V38.4569H944.491V24.7613H1006.55ZM1014.81 66.9389C1014.81 58.6165 1016.66 51.1829 1020.38 44.6381C1024.18 38.0125 1029.31 32.8817 1035.77 29.2457C1042.32 25.5289 1049.63 23.6705 1057.71 23.6705C1067.16 23.6705 1075.45 26.0945 1082.56 30.9425C1089.67 35.7905 1094.64 42.4969 1097.46 51.0617H1077.95C1076.01 47.0217 1073.26 43.9917 1069.71 41.9717C1066.23 39.9517 1062.19 38.9417 1057.59 38.9417C1052.66 38.9417 1048.26 40.1133 1044.38 42.4565C1040.58 44.7189 1037.59 47.9509 1035.41 52.1525C1033.31 56.3541 1032.26 61.2829 1032.26 66.9389C1032.26 72.5141 1033.31 77.4429 1035.41 81.7253C1037.59 85.9269 1040.58 89.1993 1044.38 91.5425C1048.26 93.8049 1052.66 94.9361 1057.59 94.9361C1062.19 94.9361 1066.23 93.9261 1069.71 91.9061C1073.26 89.8053 1076.01 86.7349 1077.95 82.6949H1097.46C1094.64 91.3405 1089.67 98.0873 1082.56 102.935C1075.53 107.702 1067.24 110.086 1057.71 110.086C1049.63 110.086 1042.32 108.268 1035.77 104.632C1029.31 100.915 1024.18 95.7845 1020.38 89.2397C1016.66 82.6949 1014.81 75.2613 1014.81 66.9389ZM1151.23 110.207C1143.31 110.207 1136.03 108.349 1129.41 104.632C1122.78 100.915 1117.53 95.7845 1113.65 89.2397C1109.77 82.6141 1107.84 75.1401 1107.84 66.8177C1107.84 58.5761 1109.77 51.1829 1113.65 44.6381C1117.53 38.0125 1122.78 32.8413 1129.41 29.1245C1136.03 25.4077 1143.31 23.5493 1151.23 23.5493C1159.22 23.5493 1166.5 25.4077 1173.04 29.1245C1179.67 32.8413 1184.88 38.0125 1188.68 44.6381C1192.55 51.1829 1194.49 58.5761 1194.49 66.8177C1194.49 75.1401 1192.55 82.6141 1188.68 89.2397C1184.88 95.7845 1179.67 100.915 1173.04 104.632C1166.42 108.349 1159.14 110.207 1151.23 110.207ZM1151.23 95.0573C1156.32 95.0573 1160.8 93.9261 1164.68 91.6637C1168.56 89.3205 1171.59 86.0077 1173.77 81.7253C1175.95 77.4429 1177.04 72.4737 1177.04 66.8177C1177.04 61.1617 1175.95 56.2329 1173.77 52.0313C1171.59 47.7489 1168.56 44.4765 1164.68 42.2141C1160.8 39.9517 1156.32 38.8205 1151.23 38.8205C1146.13 38.8205 1141.61 39.9517 1137.65 42.2141C1133.77 44.4765 1130.74 47.7489 1128.56 52.0313C1126.38 56.2329 1125.29 61.1617 1125.29 66.8177C1125.29 72.4737 1126.38 77.4429 1128.56 81.7253C1130.74 86.0077 1133.77 89.3205 1137.65 91.6637C1141.61 93.9261 1146.13 95.0573 1151.23 95.0573ZM1224.09 24.7613V109.359H1207.12V24.7613H1224.09ZM1313.21 109.359H1296.24L1257.82 51.3041V109.359H1240.85V24.6401H1257.82L1296.24 82.8161V24.6401H1313.21V109.359Z" fill="#EEDB5F"/>
<path d="M709.542 66.6918C709.109 67.3497 708.784 67.9421 708.821 68.21C708.826 68.2421 708.839 68.2705 708.853 68.2976L708.855 68.3001C708.871 68.3334 708.889 68.3606 708.922 68.3865C708.972 68.4322 709.041 68.4692 709.125 68.5001C709.296 68.5519 710.535 68.5075 710.902 68.4778C711.89 68.3951 712.876 68.3248 713.875 68.268C714.157 68.252 714.439 68.2421 714.73 68.2273C716.018 68.1631 717.301 68.1125 718.569 68.0829C719.584 68.0569 720.586 68.0409 721.573 68.031C721.846 68.0285 722.111 68.0273 722.379 68.0261C723.292 68.0211 724.198 68.0187 725.061 68.0273C724.766 75.5741 724.407 83.575 724.101 91.1934C724.057 92.3697 724.006 93.5361 723.965 94.689C723.87 97.1453 723.87 97.1453 723.87 97.1453C723.865 97.3194 723.856 97.5033 723.85 97.686C723.823 98.792 723.823 100.011 724.06 100.342C724.066 100.358 724.077 100.372 724.088 100.384C724.13 100.425 724.178 100.443 724.23 100.442C724.234 100.442 724.239 100.44 724.242 100.44C724.289 100.437 724.341 100.42 724.395 100.389C724.414 100.379 724.432 100.363 724.451 100.35C724.493 100.321 724.536 100.289 724.581 100.248C724.604 100.227 724.627 100.202 724.652 100.178C724.695 100.135 724.739 100.089 724.783 100.037C724.809 100.007 724.836 99.9744 724.863 99.9411C724.906 99.888 724.95 99.8325 724.993 99.7745C725.021 99.7362 725.051 99.6967 725.08 99.6572C725.124 99.598 725.167 99.535 725.21 99.4733C725.24 99.4301 725.269 99.3881 725.299 99.3449C725.343 99.2795 725.386 99.2129 725.43 99.145C725.458 99.1018 725.488 99.0586 725.515 99.0154C725.583 98.9117 725.649 98.808 725.713 98.7068C725.713 98.7068 725.713 98.7068 726.806 97.0343C733.68 86.5152 742.629 73.6904 750.576 62.6209C752.935 59.3277 753.341 58.7722 753.341 58.7722C753.389 58.7142 753.435 58.65 753.482 58.5908C754.506 57.2071 755.802 55.7173 756.324 54.6755C756.473 54.3718 756.572 54.099 756.556 53.883C756.549 53.7806 756.495 53.7016 756.412 53.6374C756.383 53.6139 756.333 53.6041 756.296 53.5856C756.226 53.551 756.163 53.514 756.073 53.4917C756.013 53.4757 755.939 53.4708 755.871 53.4596C755.787 53.4461 755.707 53.43 755.614 53.4226C755.53 53.4164 755.442 53.4164 755.354 53.414C755.264 53.4115 755.174 53.4053 755.082 53.4053C754.762 53.409 754.455 53.4251 754.249 53.4325C754.249 53.4325 754.249 53.4325 752.69 53.5004C748.155 53.6954 743.509 53.9435 739.089 54.2459C739.422 46.4622 739.844 37.5342 740.194 29.8344C740.284 27.6965 740.284 27.6965 740.284 27.6965C740.287 27.6373 740.289 27.5682 740.292 27.5052C740.33 26.6881 740.362 25.5883 740.109 25.2674C740.066 25.2192 740.02 25.1822 739.965 25.176C739.931 25.1711 739.891 25.1822 739.852 25.1908C739.825 25.1958 739.798 25.1982 739.769 25.2106C739.735 25.2242 739.697 25.2451 739.661 25.2661C739.63 25.2834 739.599 25.2982 739.566 25.3204C739.528 25.3464 739.487 25.3809 739.445 25.413C739.411 25.4414 739.375 25.4661 739.338 25.4994C739.296 25.5364 739.252 25.5821 739.207 25.6253C739.169 25.6624 739.131 25.6969 739.092 25.7376C739.043 25.7883 738.992 25.845 738.942 25.8993C738.905 25.9413 738.866 25.9783 738.828 26.0228C738.773 26.087 738.715 26.1561 738.657 26.2252C738.622 26.2672 738.586 26.3067 738.552 26.3499C738.475 26.4412 738.4 26.5375 738.323 26.6338C738.304 26.6572 738.286 26.6794 738.268 26.7029C738.17 26.8263 738.073 26.9522 737.975 27.0806C737.715 27.4213 737.45 27.7755 737.198 28.1063C737.198 28.1063 737.198 28.1063 735.368 30.5911C735.189 30.8404 734.991 31.107 734.798 31.3638C729.665 38.36 720.001 51.9389 720.001 51.9389C719.536 52.587 719.096 53.2029 718.67 53.788C718.332 54.2657 717.999 54.7421 717.659 55.2198C717.36 55.642 713.322 61.3335 712.446 62.5752C710.929 64.7254 710.929 64.7254 710.929 64.7254C710.544 65.2686 709.986 66.0166 709.542 66.6918Z" fill="#EEDB5F"/>
<path d="M1389.54 66.6918C1389.11 67.3497 1388.78 67.9421 1388.82 68.21C1388.83 68.2421 1388.84 68.2705 1388.85 68.2976L1388.85 68.3001C1388.87 68.3334 1388.89 68.3606 1388.92 68.3865C1388.97 68.4322 1389.04 68.4692 1389.12 68.5001C1389.3 68.5519 1390.54 68.5075 1390.9 68.4778C1391.89 68.3951 1392.88 68.3248 1393.87 68.268C1394.16 68.252 1394.44 68.2421 1394.73 68.2273C1396.02 68.1631 1397.3 68.1125 1398.57 68.0829C1399.58 68.0569 1400.59 68.0409 1401.57 68.031C1401.85 68.0285 1402.11 68.0273 1402.38 68.0261C1403.29 68.0211 1404.2 68.0187 1405.06 68.0273C1404.77 75.5741 1404.41 83.575 1404.1 91.1934C1404.06 92.3697 1404.01 93.5361 1403.96 94.689C1403.87 97.1453 1403.87 97.1453 1403.87 97.1453C1403.86 97.3194 1403.86 97.5033 1403.85 97.686C1403.82 98.7919 1403.82 100.011 1404.06 100.342C1404.07 100.358 1404.08 100.372 1404.09 100.384C1404.13 100.425 1404.18 100.443 1404.23 100.442C1404.23 100.442 1404.24 100.44 1404.24 100.44C1404.29 100.437 1404.34 100.42 1404.4 100.389C1404.41 100.379 1404.43 100.363 1404.45 100.35C1404.49 100.321 1404.54 100.289 1404.58 100.248C1404.6 100.227 1404.63 100.202 1404.65 100.178C1404.7 100.135 1404.74 100.089 1404.78 100.037C1404.81 100.007 1404.84 99.9744 1404.86 99.9411C1404.91 99.888 1404.95 99.8325 1404.99 99.7745C1405.02 99.7362 1405.05 99.6967 1405.08 99.6572C1405.12 99.598 1405.17 99.535 1405.21 99.4733C1405.24 99.4301 1405.27 99.3881 1405.3 99.3449C1405.34 99.2795 1405.39 99.2129 1405.43 99.145C1405.46 99.1018 1405.49 99.0586 1405.51 99.0154C1405.58 98.9117 1405.65 98.808 1405.71 98.7068C1405.71 98.7068 1405.71 98.7068 1406.81 97.0343C1413.68 86.5152 1422.63 73.6905 1430.58 62.6209C1432.94 59.3277 1433.34 58.7722 1433.34 58.7722C1433.39 58.7142 1433.43 58.65 1433.48 58.5908C1434.51 57.2071 1435.8 55.7173 1436.32 54.6755C1436.47 54.3718 1436.57 54.099 1436.56 53.883C1436.55 53.7806 1436.5 53.7016 1436.41 53.6374C1436.38 53.6139 1436.33 53.6041 1436.3 53.5856C1436.23 53.551 1436.16 53.514 1436.07 53.4917C1436.01 53.4757 1435.94 53.4708 1435.87 53.4596C1435.79 53.4461 1435.71 53.43 1435.61 53.4226C1435.53 53.4164 1435.44 53.4164 1435.35 53.414C1435.26 53.4115 1435.17 53.4053 1435.08 53.4053C1434.76 53.409 1434.46 53.4251 1434.25 53.4325C1434.25 53.4325 1434.25 53.4325 1432.69 53.5004C1428.16 53.6954 1423.51 53.9435 1419.09 54.2459C1419.42 46.4622 1419.84 37.5342 1420.19 29.8344C1420.28 27.6965 1420.28 27.6965 1420.28 27.6965C1420.29 27.6373 1420.29 27.5682 1420.29 27.5052C1420.33 26.6881 1420.36 25.5883 1420.11 25.2674C1420.07 25.2192 1420.02 25.1822 1419.96 25.176C1419.93 25.1711 1419.89 25.1822 1419.85 25.1908C1419.83 25.1958 1419.8 25.1982 1419.77 25.2106C1419.74 25.2242 1419.7 25.2451 1419.66 25.2661C1419.63 25.2834 1419.6 25.2982 1419.57 25.3204C1419.53 25.3464 1419.49 25.3809 1419.45 25.413C1419.41 25.4414 1419.37 25.4661 1419.34 25.4994C1419.3 25.5364 1419.25 25.5821 1419.21 25.6253C1419.17 25.6624 1419.13 25.6969 1419.09 25.7376C1419.04 25.7883 1418.99 25.845 1418.94 25.8993C1418.9 25.9413 1418.87 25.9783 1418.83 26.0228C1418.77 26.087 1418.71 26.1561 1418.66 26.2252C1418.62 26.2672 1418.59 26.3067 1418.55 26.3499C1418.48 26.4412 1418.4 26.5375 1418.32 26.6338C1418.3 26.6572 1418.29 26.6794 1418.27 26.7029C1418.17 26.8263 1418.07 26.9522 1417.98 27.0806C1417.71 27.4213 1417.45 27.7755 1417.2 28.1063C1417.2 28.1063 1417.2 28.1063 1415.37 30.5911C1415.19 30.8404 1414.99 31.107 1414.8 31.3638C1409.66 38.36 1400 51.9389 1400 51.9389C1399.54 52.587 1399.1 53.2029 1398.67 53.788C1398.33 54.2657 1398 54.7421 1397.66 55.2198C1397.36 55.642 1393.32 61.3335 1392.45 62.5752C1390.93 64.7254 1390.93 64.7254 1390.93 64.7254C1390.54 65.2686 1389.99 66.0166 1389.54 66.6918Z" fill="#EEDB5F"/>
</svg>
