<svg width="1378" height="113" viewBox="0 0 1378 113" fill="none" xmlns="http://www.w3.org/2000/svg">
<path d="M31.4375 93.3089C26.5708 93.3089 22.1708 92.4756 18.2375 90.8089C14.3708 89.1422 11.3042 86.7422 9.0375 83.6089C6.77083 80.4756 5.60417 76.7756 5.5375 72.5089H20.5375C20.7375 75.3756 21.7375 77.6422 23.5375 79.3089C25.4042 80.9756 27.9375 81.8089 31.1375 81.8089C34.4042 81.8089 36.9708 81.0422 38.8375 79.5089C40.7042 77.9089 41.6375 75.8422 41.6375 73.3089C41.6375 71.2422 41.0042 69.5422 39.7375 68.2089C38.4708 66.8756 36.8708 65.8422 34.9375 65.1089C33.0708 64.3089 30.4708 63.4422 27.1375 62.5089C22.6042 61.1756 18.9042 59.8756 16.0375 58.6089C13.2375 57.2756 10.8042 55.3089 8.7375 52.7089C6.7375 50.0422 5.7375 46.5089 5.7375 42.1089C5.7375 37.9756 6.77083 34.3756 8.8375 31.3089C10.9042 28.2422 13.8042 25.9089 17.5375 24.3089C21.2708 22.6422 25.5375 21.8089 30.3375 21.8089C37.5375 21.8089 43.3708 23.5756 47.8375 27.1089C52.3708 30.5755 54.8708 35.4422 55.3375 41.7089H39.9375C39.8042 39.3089 38.7708 37.3422 36.8375 35.8089C34.9708 34.2089 32.4708 33.4089 29.3375 33.4089C26.6042 33.4089 24.4042 34.1089 22.7375 35.5089C21.1375 36.9089 20.3375 38.9422 20.3375 41.6089C20.3375 43.4756 20.9375 45.0422 22.1375 46.3089C23.4042 47.5089 24.9375 48.5089 26.7375 49.3089C28.6042 50.0422 31.2042 50.9089 34.5375 51.9089C39.0708 53.2422 42.7708 54.5756 45.6375 55.9089C48.5042 57.2422 50.9708 59.2422 53.0375 61.9089C55.1042 64.5756 56.1375 68.0756 56.1375 72.4089C56.1375 76.1422 55.1708 79.6089 53.2375 82.8089C51.3042 86.0089 48.4708 88.5756 44.7375 90.5089C41.0042 92.3756 36.5708 93.3089 31.4375 93.3089ZM64.875 57.6089C64.875 50.7422 66.4083 44.6089 69.475 39.2089C72.6083 33.7422 76.8417 29.5089 82.175 26.5089C87.575 23.4422 93.6083 21.9089 100.275 21.9089C108.075 21.9089 114.908 23.9089 120.775 27.9089C126.642 31.9089 130.742 37.4422 133.075 44.5089H116.975C115.375 41.1756 113.108 38.6756 110.175 37.0089C107.308 35.3422 103.975 34.5089 100.175 34.5089C96.1083 34.5089 92.475 35.4755 89.275 37.4089C86.1417 39.2755 83.675 41.9422 81.875 45.4089C80.1417 48.8756 79.275 52.9422 79.275 57.6089C79.275 62.2089 80.1417 66.2756 81.875 69.8089C83.675 73.2756 86.1417 75.9756 89.275 77.9089C92.475 79.7756 96.1083 80.7089 100.175 80.7089C103.975 80.7089 107.308 79.8756 110.175 78.2089C113.108 76.4756 115.375 73.9422 116.975 70.6089H133.075C130.742 77.7422 126.642 83.3089 120.775 87.3089C114.975 91.2422 108.142 93.2089 100.275 93.2089C93.6083 93.2089 87.575 91.7089 82.175 88.7089C76.8417 85.6422 72.6083 81.4089 69.475 76.0089C66.4083 70.6089 64.875 64.4756 64.875 57.6089ZM202.933 22.8089V92.6089H188.933V62.9089H159.033V92.6089H145.033V22.8089H159.033V51.5089H188.933V22.8089H202.933ZM230.713 34.1089V51.6089H254.213V62.7089H230.713V81.2089H257.213V92.6089H216.713V22.7089H257.213V34.1089H230.713ZM294.335 22.8089C301.668 22.8089 308.102 24.2422 313.635 27.1089C319.235 29.9755 323.535 34.0755 326.535 39.4089C329.602 44.6756 331.135 50.8089 331.135 57.8089C331.135 64.8089 329.602 70.9422 326.535 76.2089C323.535 81.4089 319.235 85.4422 313.635 88.3089C308.102 91.1756 301.668 92.6089 294.335 92.6089H269.935V22.8089H294.335ZM293.835 80.7089C301.168 80.7089 306.835 78.7089 310.835 74.7089C314.835 70.7089 316.835 65.0756 316.835 57.8089C316.835 50.5422 314.835 44.8756 310.835 40.8089C306.835 36.6756 301.168 34.6089 293.835 34.6089H283.935V80.7089H293.835ZM355.415 22.8089V66.0089C355.415 70.7422 356.648 74.3756 359.115 76.9089C361.582 79.3756 365.048 80.6089 369.515 80.6089C374.048 80.6089 377.548 79.3756 380.015 76.9089C382.482 74.3756 383.715 70.7422 383.715 66.0089V22.8089L397.815 22.8089V65.9089C397.815 71.8422 396.515 76.8756 393.915 81.0089C391.382 85.0756 387.948 88.1422 383.615 90.2089C379.348 92.2756 374.582 93.3089 369.315 93.3089C364.115 93.3089 359.382 92.2756 355.115 90.2089C350.915 88.1422 347.582 85.0756 345.115 81.0089C342.648 76.8756 341.415 71.8422 341.415 65.9089V22.8089H355.415ZM425.341 81.5089H448.341V92.6089H411.341V22.8089H425.341V81.5089ZM471.24 34.1089V51.6089H494.74V62.7089H471.24V81.2089H497.74V92.6089H457.24V22.7089H497.74V34.1089H471.24Z" fill="#3F69FF"/>
<path d="M35.4375 91.3089C30.5708 91.3089 26.1708 90.4756 22.2375 88.8089C18.3708 87.1422 15.3042 84.7422 13.0375 81.6089C10.7708 78.4756 9.60417 74.7756 9.5375 70.5089H24.5375C24.7375 73.3756 25.7375 75.6422 27.5375 77.3089C29.4042 78.9756 31.9375 79.8089 35.1375 79.8089C38.4042 79.8089 40.9708 79.0422 42.8375 77.5089C44.7042 75.9089 45.6375 73.8422 45.6375 71.3089C45.6375 69.2422 45.0042 67.5422 43.7375 66.2089C42.4708 64.8756 40.8708 63.8422 38.9375 63.1089C37.0708 62.3089 34.4708 61.4422 31.1375 60.5089C26.6042 59.1756 22.9042 57.8756 20.0375 56.6089C17.2375 55.2756 14.8042 53.3089 12.7375 50.7089C10.7375 48.0422 9.7375 44.5089 9.7375 40.1089C9.7375 35.9756 10.7708 32.3756 12.8375 29.3089C14.9042 26.2422 17.8042 23.9089 21.5375 22.3089C25.2708 20.6422 29.5375 19.8089 34.3375 19.8089C41.5375 19.8089 47.3708 21.5756 51.8375 25.1089C56.3708 28.5755 58.8708 33.4422 59.3375 39.7089H43.9375C43.8042 37.3089 42.7708 35.3422 40.8375 33.8089C38.9708 32.2089 36.4708 31.4089 33.3375 31.4089C30.6042 31.4089 28.4042 32.1089 26.7375 33.5089C25.1375 34.9089 24.3375 36.9422 24.3375 39.6089C24.3375 41.4756 24.9375 43.0422 26.1375 44.3089C27.4042 45.5089 28.9375 46.5089 30.7375 47.3089C32.6042 48.0422 35.2042 48.9089 38.5375 49.9089C43.0708 51.2422 46.7708 52.5756 49.6375 53.9089C52.5042 55.2422 54.9708 57.2422 57.0375 59.9089C59.1042 62.5756 60.1375 66.0756 60.1375 70.4089C60.1375 74.1422 59.1708 77.6089 57.2375 80.8089C55.3042 84.0089 52.4708 86.5756 48.7375 88.5089C45.0042 90.3756 40.5708 91.3089 35.4375 91.3089ZM68.875 55.6089C68.875 48.7422 70.4083 42.6089 73.475 37.2089C76.6083 31.7422 80.8417 27.5089 86.175 24.5089C91.575 21.4422 97.6083 19.9089 104.275 19.9089C112.075 19.9089 118.908 21.9089 124.775 25.9089C130.642 29.9089 134.742 35.4422 137.075 42.5089H120.975C119.375 39.1756 117.108 36.6756 114.175 35.0089C111.308 33.3422 107.975 32.5089 104.175 32.5089C100.108 32.5089 96.475 33.4755 93.275 35.4089C90.1417 37.2755 87.675 39.9422 85.875 43.4089C84.1417 46.8756 83.275 50.9422 83.275 55.6089C83.275 60.2089 84.1417 64.2756 85.875 67.8089C87.675 71.2756 90.1417 73.9756 93.275 75.9089C96.475 77.7756 100.108 78.7089 104.175 78.7089C107.975 78.7089 111.308 77.8756 114.175 76.2089C117.108 74.4756 119.375 71.9422 120.975 68.6089H137.075C134.742 75.7422 130.642 81.3089 124.775 85.3089C118.975 89.2422 112.142 91.2089 104.275 91.2089C97.6083 91.2089 91.575 89.7089 86.175 86.7089C80.8417 83.6422 76.6083 79.4089 73.475 74.0089C70.4083 68.6089 68.875 62.4756 68.875 55.6089ZM206.933 20.8089V90.6089H192.933V60.9089H163.033V90.6089H149.033V20.8089H163.033V49.5089H192.933V20.8089H206.933ZM234.713 32.1089V49.6089H258.213V60.7089H234.713V79.2089H261.213V90.6089H220.713V20.7089H261.213V32.1089H234.713ZM298.335 20.8089C305.668 20.8089 312.102 22.2422 317.635 25.1089C323.235 27.9755 327.535 32.0755 330.535 37.4089C333.602 42.6756 335.135 48.8089 335.135 55.8089C335.135 62.8089 333.602 68.9422 330.535 74.2089C327.535 79.4089 323.235 83.4422 317.635 86.3089C312.102 89.1756 305.668 90.6089 298.335 90.6089H273.935V20.8089H298.335ZM297.835 78.7089C305.168 78.7089 310.835 76.7089 314.835 72.7089C318.835 68.7089 320.835 63.0756 320.835 55.8089C320.835 48.5422 318.835 42.8756 314.835 38.8089C310.835 34.6756 305.168 32.6089 297.835 32.6089H287.935V78.7089H297.835ZM359.415 20.8089V64.0089C359.415 68.7422 360.648 72.3756 363.115 74.9089C365.582 77.3756 369.048 78.6089 373.515 78.6089C378.048 78.6089 381.548 77.3756 384.015 74.9089C386.482 72.3756 387.715 68.7422 387.715 64.0089V20.8089L401.815 20.8089V63.9089C401.815 69.8422 400.515 74.8756 397.915 79.0089C395.382 83.0756 391.948 86.1422 387.615 88.2089C383.348 90.2756 378.582 91.3089 373.315 91.3089C368.115 91.3089 363.382 90.2756 359.115 88.2089C354.915 86.1422 351.582 83.0756 349.115 79.0089C346.648 74.8756 345.415 69.8422 345.415 63.9089V20.8089H359.415ZM429.341 79.5089H452.341V90.6089H415.341V20.8089H429.341V79.5089ZM475.24 32.1089V49.6089H498.74V60.7089H475.24V79.2089H501.74V90.6089H461.24V20.7089H501.74V32.1089H475.24Z" fill="#F34D4D"/>
<path d="M33.5996 92.3089C28.7329 92.3089 24.3329 91.4756 20.3996 89.8089C16.5329 88.1422 13.4663 85.7422 11.1996 82.6089C8.93294 79.4756 7.76628 75.7756 7.69961 71.5089H22.6996C22.8996 74.3756 23.8996 76.6422 25.6996 78.3089C27.5663 79.9756 30.0996 80.8089 33.2996 80.8089C36.5663 80.8089 39.1329 80.0422 40.9996 78.5089C42.8663 76.9089 43.7996 74.8422 43.7996 72.3089C43.7996 70.2422 43.1663 68.5422 41.8996 67.2089C40.6329 65.8756 39.0329 64.8422 37.0996 64.1089C35.2329 63.3089 32.6329 62.4422 29.2996 61.5089C24.7663 60.1756 21.0663 58.8756 18.1996 57.6089C15.3996 56.2756 12.9663 54.3089 10.8996 51.7089C8.89961 49.0422 7.89961 45.5089 7.89961 41.1089C7.89961 36.9756 8.93294 33.3756 10.9996 30.3089C13.0663 27.2422 15.9663 24.9089 19.6996 23.3089C23.4329 21.6422 27.6996 20.8089 32.4996 20.8089C39.6996 20.8089 45.5329 22.5756 49.9996 26.1089C54.5329 29.5755 57.0329 34.4422 57.4996 40.7089H42.0996C41.9663 38.3089 40.9329 36.3422 38.9996 34.8089C37.1329 33.2089 34.6329 32.4089 31.4996 32.4089C28.7663 32.4089 26.5663 33.1089 24.8996 34.5089C23.2996 35.9089 22.4996 37.9422 22.4996 40.6089C22.4996 42.4756 23.0996 44.0422 24.2996 45.3089C25.5663 46.5089 27.0996 47.5089 28.8996 48.3089C30.7663 49.0422 33.3663 49.9089 36.6996 50.9089C41.2329 52.2422 44.9329 53.5756 47.7996 54.9089C50.6663 56.2422 53.1329 58.2422 55.1996 60.9089C57.2663 63.5756 58.2996 67.0756 58.2996 71.4089C58.2996 75.1422 57.3329 78.6089 55.3996 81.8089C53.4663 85.0089 50.6329 87.5756 46.8996 89.5089C43.1663 91.3756 38.7329 92.3089 33.5996 92.3089ZM67.0371 56.6089C67.0371 49.7422 68.5704 43.6089 71.6371 38.2089C74.7704 32.7422 79.0038 28.5089 84.3371 25.5089C89.7371 22.4422 95.7704 20.9089 102.437 20.9089C110.237 20.9089 117.07 22.9089 122.937 26.9089C128.804 30.9089 132.904 36.4422 135.237 43.5089H119.137C117.537 40.1756 115.27 37.6756 112.337 36.0089C109.47 34.3422 106.137 33.5089 102.337 33.5089C98.2704 33.5089 94.6371 34.4755 91.4371 36.4089C88.3038 38.2755 85.8371 40.9422 84.0371 44.4089C82.3038 47.8756 81.4371 51.9422 81.4371 56.6089C81.4371 61.2089 82.3038 65.2756 84.0371 68.8089C85.8371 72.2756 88.3038 74.9756 91.4371 76.9089C94.6371 78.7756 98.2704 79.7089 102.337 79.7089C106.137 79.7089 109.47 78.8756 112.337 77.2089C115.27 75.4756 117.537 72.9422 119.137 69.6089H135.237C132.904 76.7422 128.804 82.3089 122.937 86.3089C117.137 90.2422 110.304 92.2089 102.437 92.2089C95.7704 92.2089 89.7371 90.7089 84.3371 87.7089C79.0038 84.6422 74.7704 80.4089 71.6371 75.0089C68.5704 69.6089 67.0371 63.4756 67.0371 56.6089ZM205.095 21.8089V91.6089H191.095V61.9089H161.195V91.6089H147.195V21.8089H161.195V50.5089H191.095V21.8089H205.095ZM232.875 33.1089V50.6089H256.375V61.7089H232.875V80.2089H259.375V91.6089H218.875V21.7089H259.375V33.1089H232.875ZM296.497 21.8089C303.831 21.8089 310.264 23.2422 315.797 26.1089C321.397 28.9755 325.697 33.0755 328.697 38.4089C331.764 43.6756 333.297 49.8089 333.297 56.8089C333.297 63.8089 331.764 69.9422 328.697 75.2089C325.697 80.4089 321.397 84.4422 315.797 87.3089C310.264 90.1756 303.831 91.6089 296.497 91.6089H272.097V21.8089H296.497ZM295.997 79.7089C303.331 79.7089 308.997 77.7089 312.997 73.7089C316.997 69.7089 318.997 64.0756 318.997 56.8089C318.997 49.5422 316.997 43.8756 312.997 39.8089C308.997 35.6756 303.331 33.6089 295.997 33.6089H286.097V79.7089H295.997ZM357.577 21.8089V65.0089C357.577 69.7422 358.81 73.3756 361.277 75.9089C363.744 78.3756 367.21 79.6089 371.677 79.6089C376.21 79.6089 379.71 78.3756 382.177 75.9089C384.644 73.3756 385.877 69.7422 385.877 65.0089V21.8089L399.977 21.8089V64.9089C399.977 70.8422 398.677 75.8756 396.077 80.0089C393.544 84.0756 390.11 87.1422 385.777 89.2089C381.51 91.2756 376.744 92.3089 371.477 92.3089C366.277 92.3089 361.544 91.2756 357.277 89.2089C353.077 87.1422 349.744 84.0756 347.277 80.0089C344.81 75.8756 343.577 70.8422 343.577 64.9089V21.8089H357.577ZM427.504 80.5089H450.504V91.6089H413.504V21.8089H427.504V80.5089ZM473.402 33.1089V50.6089H496.902V61.7089H473.402V80.2089H499.902V91.6089H459.402V21.7089H499.902V33.1089H473.402Z" fill="#EEDB5F"/>
<path d="M583.47 59.1369C583.189 59.5652 582.978 59.9509 583.002 60.1253C583.005 60.1462 583.013 60.1646 583.023 60.1823L583.023 60.1839C583.034 60.2056 583.046 60.2233 583.068 60.2402C583.1 60.2699 583.144 60.294 583.199 60.3141C583.31 60.3479 584.115 60.3189 584.353 60.2997C584.995 60.2458 585.635 60.2 586.283 60.163C586.467 60.1526 586.65 60.1462 586.839 60.1365C587.675 60.0947 588.508 60.0618 589.332 60.0425C589.991 60.0256 590.641 60.0152 591.282 60.0088C591.46 60.0072 591.632 60.0063 591.806 60.0055C592.399 60.0023 592.987 60.0007 593.547 60.0063C593.356 64.9194 593.122 70.1281 592.924 75.0877C592.896 75.8535 592.862 76.6129 592.835 77.3634C592.774 78.9625 592.774 78.9625 592.774 78.9625C592.771 79.0758 592.765 79.1956 592.761 79.3145C592.743 80.0345 592.743 80.8284 592.897 81.0438C592.901 81.0542 592.908 81.063 592.916 81.0711C592.943 81.0976 592.974 81.1097 593.008 81.1089C593.01 81.1089 593.013 81.1072 593.016 81.1072C593.046 81.1056 593.08 81.0944 593.115 81.0743C593.127 81.0679 593.139 81.0574 593.151 81.0486C593.178 81.0301 593.206 81.0092 593.235 80.9827C593.251 80.969 593.266 80.9522 593.282 80.9369C593.31 80.9088 593.338 80.879 593.367 80.8453C593.384 80.8252 593.401 80.8043 593.419 80.7826C593.447 80.748 593.475 80.7119 593.503 80.6741C593.521 80.6492 593.541 80.6235 593.56 80.5978C593.588 80.5592 593.616 80.5182 593.644 80.478C593.663 80.4499 593.683 80.4226 593.702 80.3945C593.731 80.3519 593.759 80.3085 593.787 80.2643C593.805 80.2362 593.824 80.208 593.842 80.1799C593.886 80.1124 593.929 80.0449 593.971 79.979C593.971 79.979 593.971 79.979 594.68 78.8902C599.144 72.0422 604.955 63.6931 610.115 56.4867C611.648 54.3428 611.911 53.9812 611.911 53.9812C611.943 53.9434 611.972 53.9016 612.003 53.8631C612.668 52.9623 613.509 51.9924 613.848 51.3142C613.945 51.1165 614.009 50.9389 613.999 50.7983C613.994 50.7316 613.96 50.6801 613.905 50.6384C613.887 50.6231 613.854 50.6167 613.83 50.6046C613.785 50.5821 613.744 50.558 613.686 50.5435C613.646 50.5331 613.598 50.5299 613.554 50.5226C613.5 50.5138 613.448 50.5034 613.387 50.4985C613.333 50.4945 613.275 50.4945 613.218 50.4929C613.16 50.4913 613.101 50.4873 613.042 50.4873C612.834 50.4897 612.635 50.5001 612.501 50.505C612.501 50.505 612.501 50.505 611.488 50.5492C608.544 50.6761 605.527 50.8376 602.656 51.0345C602.873 45.9672 603.147 40.155 603.374 35.1423C603.433 33.7506 603.433 33.7506 603.433 33.7506C603.434 33.712 603.436 33.667 603.438 33.626C603.462 33.0941 603.483 32.3781 603.319 32.1691C603.291 32.1378 603.261 32.1137 603.225 32.1097C603.204 32.1065 603.177 32.1137 603.152 32.1193C603.135 32.1225 603.117 32.1241 603.098 32.1322C603.076 32.141 603.051 32.1547 603.028 32.1683C603.008 32.1796 602.988 32.1892 602.966 32.2037C602.942 32.2206 602.915 32.2431 602.888 32.264C602.865 32.2824 602.842 32.2985 602.818 32.3202C602.791 32.3443 602.762 32.3741 602.733 32.4022C602.708 32.4263 602.684 32.4488 602.659 32.4753C602.627 32.5082 602.594 32.5452 602.561 32.5806C602.537 32.6079 602.512 32.632 602.487 32.6609C602.451 32.7027 602.413 32.7477 602.376 32.7927C602.353 32.82 602.33 32.8457 602.308 32.8739C602.258 32.9333 602.209 32.996 602.159 33.0587C602.147 33.074 602.135 33.0884 602.123 33.1037C602.06 33.184 601.997 33.266 601.933 33.3496C601.764 33.5714 601.592 33.802 601.429 34.0173C601.429 34.0173 601.429 34.0174 600.24 35.6349C600.124 35.7973 599.996 35.9708 599.87 36.138C596.537 40.6926 590.261 49.5326 590.261 49.5326C589.959 49.9545 589.674 50.3555 589.398 50.7364C589.178 51.0474 588.962 51.3575 588.74 51.6685C588.547 51.9433 585.924 55.6486 585.355 56.457C584.371 57.8568 584.371 57.8568 584.371 57.8568C584.121 58.2104 583.758 58.6973 583.47 59.1369Z" fill="#EEDB5F"/>
<path d="M720.438 93.3089C715.571 93.3089 711.171 92.4756 707.238 90.8089C703.371 89.1422 700.304 86.7422 698.038 83.6089C695.771 80.4756 694.604 76.7756 694.538 72.5089H709.538C709.738 75.3756 710.738 77.6422 712.538 79.3089C714.404 80.9756 716.938 81.8089 720.138 81.8089C723.404 81.8089 725.971 81.0422 727.838 79.5089C729.704 77.9089 730.638 75.8422 730.638 73.3089C730.638 71.2422 730.004 69.5422 728.738 68.2089C727.471 66.8756 725.871 65.8422 723.938 65.1089C722.071 64.3089 719.471 63.4422 716.138 62.5089C711.604 61.1756 707.904 59.8756 705.038 58.6089C702.238 57.2756 699.804 55.3089 697.738 52.7089C695.738 50.0422 694.738 46.5089 694.738 42.1089C694.738 37.9756 695.771 34.3756 697.838 31.3089C699.904 28.2422 702.804 25.9089 706.538 24.3089C710.271 22.6422 714.538 21.8089 719.338 21.8089C726.538 21.8089 732.371 23.5756 736.838 27.1089C741.371 30.5755 743.871 35.4422 744.338 41.7089H728.938C728.804 39.3089 727.771 37.3422 725.838 35.8089C723.971 34.2089 721.471 33.4089 718.338 33.4089C715.604 33.4089 713.404 34.1089 711.738 35.5089C710.138 36.9089 709.338 38.9422 709.338 41.6089C709.338 43.4756 709.938 45.0422 711.138 46.3089C712.404 47.5089 713.938 48.5089 715.738 49.3089C717.604 50.0422 720.204 50.9089 723.538 51.9089C728.071 53.2422 731.771 54.5756 734.638 55.9089C737.504 57.2422 739.971 59.2422 742.038 61.9089C744.104 64.5756 745.138 68.0756 745.138 72.4089C745.138 76.1422 744.171 79.6089 742.237 82.8089C740.304 86.0089 737.471 88.5756 733.738 90.5089C730.004 92.3756 725.571 93.3089 720.438 93.3089ZM753.875 57.6089C753.875 50.7422 755.408 44.6089 758.475 39.2089C761.608 33.7422 765.842 29.5089 771.175 26.5089C776.575 23.4422 782.608 21.9089 789.275 21.9089C797.075 21.9089 803.908 23.9089 809.775 27.9089C815.642 31.9089 819.742 37.4422 822.075 44.5089H805.975C804.375 41.1756 802.108 38.6756 799.175 37.0089C796.308 35.3422 792.975 34.5089 789.175 34.5089C785.108 34.5089 781.475 35.4755 778.275 37.4089C775.142 39.2755 772.675 41.9422 770.875 45.4089C769.142 48.8756 768.275 52.9422 768.275 57.6089C768.275 62.2089 769.142 66.2756 770.875 69.8089C772.675 73.2756 775.142 75.9756 778.275 77.9089C781.475 79.7756 785.108 80.7089 789.175 80.7089C792.975 80.7089 796.308 79.8756 799.175 78.2089C802.108 76.4756 804.375 73.9422 805.975 70.6089H822.075C819.742 77.7422 815.642 83.3089 809.775 87.3089C803.975 91.2422 797.142 93.2089 789.275 93.2089C782.608 93.2089 776.575 91.7089 771.175 88.7089C765.842 85.6422 761.608 81.4089 758.475 76.0089C755.408 70.6089 753.875 64.4756 753.875 57.6089ZM891.933 22.8089V92.6089H877.933V62.9089H848.033V92.6089H834.033V22.8089H848.033V51.5089H877.933V22.8089H891.933ZM919.713 34.1089V51.6089H943.213V62.7089H919.713V81.2089H946.213V92.6089H905.713V22.7089H946.213V34.1089H919.713ZM983.335 22.8089C990.668 22.8089 997.102 24.2422 1002.64 27.1089C1008.24 29.9755 1012.54 34.0755 1015.54 39.4089C1018.6 44.6756 1020.14 50.8089 1020.14 57.8089C1020.14 64.8089 1018.6 70.9422 1015.54 76.2089C1012.54 81.4089 1008.24 85.4422 1002.64 88.3089C997.102 91.1756 990.668 92.6089 983.335 92.6089H958.935V22.8089H983.335ZM982.835 80.7089C990.168 80.7089 995.835 78.7089 999.835 74.7089C1003.84 70.7089 1005.84 65.0756 1005.84 57.8089C1005.84 50.5422 1003.84 44.8756 999.835 40.8089C995.835 36.6756 990.168 34.6089 982.835 34.6089H972.935V80.7089H982.835ZM1044.41 22.8089V66.0089C1044.41 70.7422 1045.65 74.3756 1048.11 76.9089C1050.58 79.3756 1054.05 80.6089 1058.51 80.6089C1063.05 80.6089 1066.55 79.3756 1069.01 76.9089C1071.48 74.3756 1072.71 70.7422 1072.71 66.0089V22.8089L1086.81 22.8089V65.9089C1086.81 71.8422 1085.51 76.8756 1082.91 81.0089C1080.38 85.0756 1076.95 88.1422 1072.61 90.2089C1068.35 92.2756 1063.58 93.3089 1058.31 93.3089C1053.11 93.3089 1048.38 92.2756 1044.11 90.2089C1039.91 88.1422 1036.58 85.0756 1034.11 81.0089C1031.65 76.8756 1030.41 71.8422 1030.41 65.9089V22.8089H1044.41ZM1114.34 81.5089H1137.34V92.6089H1100.34V22.8089H1114.34V81.5089ZM1160.24 34.1089V51.6089H1183.74V62.7089H1160.24V81.2089H1186.74V92.6089H1146.24V22.7089H1186.74V34.1089H1160.24Z" fill="#3F69FF"/>
<path d="M724.438 91.3089C719.571 91.3089 715.171 90.4756 711.238 88.8089C707.371 87.1422 704.304 84.7422 702.038 81.6089C699.771 78.4756 698.604 74.7756 698.538 70.5089H713.538C713.738 73.3756 714.738 75.6422 716.538 77.3089C718.404 78.9756 720.938 79.8089 724.138 79.8089C727.404 79.8089 729.971 79.0422 731.838 77.5089C733.704 75.9089 734.638 73.8422 734.638 71.3089C734.638 69.2422 734.004 67.5422 732.738 66.2089C731.471 64.8756 729.871 63.8422 727.938 63.1089C726.071 62.3089 723.471 61.4422 720.138 60.5089C715.604 59.1756 711.904 57.8756 709.038 56.6089C706.238 55.2756 703.804 53.3089 701.738 50.7089C699.738 48.0422 698.738 44.5089 698.738 40.1089C698.738 35.9756 699.771 32.3756 701.838 29.3089C703.904 26.2422 706.804 23.9089 710.538 22.3089C714.271 20.6422 718.538 19.8089 723.338 19.8089C730.538 19.8089 736.371 21.5756 740.838 25.1089C745.371 28.5755 747.871 33.4422 748.338 39.7089H732.938C732.804 37.3089 731.771 35.3422 729.838 33.8089C727.971 32.2089 725.471 31.4089 722.338 31.4089C719.604 31.4089 717.404 32.1089 715.738 33.5089C714.138 34.9089 713.338 36.9422 713.338 39.6089C713.338 41.4756 713.938 43.0422 715.138 44.3089C716.404 45.5089 717.938 46.5089 719.738 47.3089C721.604 48.0422 724.204 48.9089 727.538 49.9089C732.071 51.2422 735.771 52.5756 738.638 53.9089C741.504 55.2422 743.971 57.2422 746.038 59.9089C748.104 62.5756 749.138 66.0756 749.138 70.4089C749.138 74.1422 748.171 77.6089 746.237 80.8089C744.304 84.0089 741.471 86.5756 737.738 88.5089C734.004 90.3756 729.571 91.3089 724.438 91.3089ZM757.875 55.6089C757.875 48.7422 759.408 42.6089 762.475 37.2089C765.608 31.7422 769.842 27.5089 775.175 24.5089C780.575 21.4422 786.608 19.9089 793.275 19.9089C801.075 19.9089 807.908 21.9089 813.775 25.9089C819.642 29.9089 823.742 35.4422 826.075 42.5089H809.975C808.375 39.1756 806.108 36.6756 803.175 35.0089C800.308 33.3422 796.975 32.5089 793.175 32.5089C789.108 32.5089 785.475 33.4755 782.275 35.4089C779.142 37.2755 776.675 39.9422 774.875 43.4089C773.142 46.8756 772.275 50.9422 772.275 55.6089C772.275 60.2089 773.142 64.2756 774.875 67.8089C776.675 71.2756 779.142 73.9756 782.275 75.9089C785.475 77.7756 789.108 78.7089 793.175 78.7089C796.975 78.7089 800.308 77.8756 803.175 76.2089C806.108 74.4756 808.375 71.9422 809.975 68.6089H826.075C823.742 75.7422 819.642 81.3089 813.775 85.3089C807.975 89.2422 801.142 91.2089 793.275 91.2089C786.608 91.2089 780.575 89.7089 775.175 86.7089C769.842 83.6422 765.608 79.4089 762.475 74.0089C759.408 68.6089 757.875 62.4756 757.875 55.6089ZM895.933 20.8089V90.6089H881.933V60.9089H852.033V90.6089H838.033V20.8089H852.033V49.5089H881.933V20.8089H895.933ZM923.713 32.1089V49.6089H947.213V60.7089H923.713V79.2089H950.213V90.6089H909.713V20.7089H950.213V32.1089H923.713ZM987.335 20.8089C994.668 20.8089 1001.1 22.2422 1006.64 25.1089C1012.24 27.9755 1016.54 32.0755 1019.54 37.4089C1022.6 42.6756 1024.14 48.8089 1024.14 55.8089C1024.14 62.8089 1022.6 68.9422 1019.54 74.2089C1016.54 79.4089 1012.24 83.4422 1006.64 86.3089C1001.1 89.1756 994.668 90.6089 987.335 90.6089H962.935V20.8089H987.335ZM986.835 78.7089C994.168 78.7089 999.835 76.7089 1003.84 72.7089C1007.84 68.7089 1009.84 63.0756 1009.84 55.8089C1009.84 48.5422 1007.84 42.8756 1003.84 38.8089C999.835 34.6756 994.168 32.6089 986.835 32.6089H976.935V78.7089H986.835ZM1048.41 20.8089V64.0089C1048.41 68.7422 1049.65 72.3756 1052.11 74.9089C1054.58 77.3756 1058.05 78.6089 1062.51 78.6089C1067.05 78.6089 1070.55 77.3756 1073.01 74.9089C1075.48 72.3756 1076.71 68.7422 1076.71 64.0089V20.8089L1090.81 20.8089V63.9089C1090.81 69.8422 1089.51 74.8756 1086.91 79.0089C1084.38 83.0756 1080.95 86.1422 1076.61 88.2089C1072.35 90.2756 1067.58 91.3089 1062.31 91.3089C1057.11 91.3089 1052.38 90.2756 1048.11 88.2089C1043.91 86.1422 1040.58 83.0756 1038.11 79.0089C1035.65 74.8756 1034.41 69.8422 1034.41 63.9089V20.8089H1048.41ZM1118.34 79.5089H1141.34V90.6089H1104.34V20.8089H1118.34V79.5089ZM1164.24 32.1089V49.6089H1187.74V60.7089H1164.24V79.2089H1190.74V90.6089H1150.24V20.7089H1190.74V32.1089H1164.24Z" fill="#F34D4D"/>
<path d="M722.6 92.3089C717.733 92.3089 713.333 91.4756 709.4 89.8089C705.533 88.1422 702.466 85.7422 700.2 82.6089C697.933 79.4756 696.766 75.7756 696.7 71.5089H711.7C711.9 74.3756 712.9 76.6422 714.7 78.3089C716.566 79.9756 719.1 80.8089 722.3 80.8089C725.566 80.8089 728.133 80.0422 730 78.5089C731.866 76.9089 732.8 74.8422 732.8 72.3089C732.8 70.2422 732.166 68.5422 730.9 67.2089C729.633 65.8756 728.033 64.8422 726.1 64.1089C724.233 63.3089 721.633 62.4422 718.3 61.5089C713.766 60.1756 710.066 58.8756 707.2 57.6089C704.4 56.2756 701.966 54.3089 699.9 51.7089C697.9 49.0422 696.9 45.5089 696.9 41.1089C696.9 36.9756 697.933 33.3756 700 30.3089C702.066 27.2422 704.966 24.9089 708.7 23.3089C712.433 21.6422 716.7 20.8089 721.5 20.8089C728.7 20.8089 734.533 22.5756 739 26.1089C743.533 29.5755 746.033 34.4422 746.5 40.7089H731.1C730.966 38.3089 729.933 36.3422 728 34.8089C726.133 33.2089 723.633 32.4089 720.5 32.4089C717.766 32.4089 715.566 33.1089 713.9 34.5089C712.3 35.9089 711.5 37.9422 711.5 40.6089C711.5 42.4756 712.1 44.0422 713.3 45.3089C714.566 46.5089 716.1 47.5089 717.9 48.3089C719.766 49.0422 722.366 49.9089 725.7 50.9089C730.233 52.2422 733.933 53.5756 736.8 54.9089C739.666 56.2422 742.133 58.2422 744.2 60.9089C746.266 63.5756 747.3 67.0756 747.3 71.4089C747.3 75.1422 746.333 78.6089 744.4 81.8089C742.466 85.0089 739.633 87.5756 735.9 89.5089C732.166 91.3756 727.733 92.3089 722.6 92.3089ZM756.037 56.6089C756.037 49.7422 757.57 43.6089 760.637 38.2089C763.77 32.7422 768.004 28.5089 773.337 25.5089C778.737 22.4422 784.77 20.9089 791.437 20.9089C799.237 20.9089 806.07 22.9089 811.937 26.9089C817.804 30.9089 821.904 36.4422 824.237 43.5089H808.137C806.537 40.1756 804.27 37.6756 801.337 36.0089C798.47 34.3422 795.137 33.5089 791.337 33.5089C787.27 33.5089 783.637 34.4755 780.437 36.4089C777.304 38.2755 774.837 40.9422 773.037 44.4089C771.304 47.8756 770.437 51.9422 770.437 56.6089C770.437 61.2089 771.304 65.2756 773.037 68.8089C774.837 72.2756 777.304 74.9756 780.437 76.9089C783.637 78.7756 787.27 79.7089 791.337 79.7089C795.137 79.7089 798.47 78.8756 801.337 77.2089C804.27 75.4756 806.537 72.9422 808.137 69.6089H824.237C821.904 76.7422 817.804 82.3089 811.937 86.3089C806.137 90.2422 799.304 92.2089 791.437 92.2089C784.77 92.2089 778.737 90.7089 773.337 87.7089C768.004 84.6422 763.77 80.4089 760.637 75.0089C757.57 69.6089 756.037 63.4756 756.037 56.6089ZM894.095 21.8089V91.6089H880.095V61.9089H850.195V91.6089H836.195V21.8089H850.195V50.5089H880.095V21.8089H894.095ZM921.875 33.1089V50.6089H945.375V61.7089H921.875V80.2089H948.375V91.6089H907.875V21.7089H948.375V33.1089H921.875ZM985.497 21.8089C992.831 21.8089 999.264 23.2422 1004.8 26.1089C1010.4 28.9755 1014.7 33.0755 1017.7 38.4089C1020.76 43.6756 1022.3 49.8089 1022.3 56.8089C1022.3 63.8089 1020.76 69.9422 1017.7 75.2089C1014.7 80.4089 1010.4 84.4422 1004.8 87.3089C999.264 90.1756 992.831 91.6089 985.497 91.6089H961.097V21.8089H985.497ZM984.997 79.7089C992.331 79.7089 997.997 77.7089 1002 73.7089C1006 69.7089 1008 64.0756 1008 56.8089C1008 49.5422 1006 43.8756 1002 39.8089C997.997 35.6756 992.331 33.6089 984.997 33.6089H975.097V79.7089H984.997ZM1046.58 21.8089V65.0089C1046.58 69.7422 1047.81 73.3756 1050.28 75.9089C1052.74 78.3756 1056.21 79.6089 1060.68 79.6089C1065.21 79.6089 1068.71 78.3756 1071.18 75.9089C1073.64 73.3756 1074.88 69.7422 1074.88 65.0089V21.8089L1088.98 21.8089V64.9089C1088.98 70.8422 1087.68 75.8756 1085.08 80.0089C1082.54 84.0756 1079.11 87.1422 1074.78 89.2089C1070.51 91.2756 1065.74 92.3089 1060.48 92.3089C1055.28 92.3089 1050.54 91.2756 1046.28 89.2089C1042.08 87.1422 1038.74 84.0756 1036.28 80.0089C1033.81 75.8756 1032.58 70.8422 1032.58 64.9089V21.8089H1046.58ZM1116.5 80.5089H1139.5V91.6089H1102.5V21.8089H1116.5V80.5089ZM1162.4 33.1089V50.6089H1185.9V61.7089H1162.4V80.2089H1188.9V91.6089H1148.4V21.7089H1188.9V33.1089H1162.4Z" fill="#EEDB5F"/>
<path d="M1272.47 59.1369C1272.19 59.5652 1271.98 59.9509 1272 60.1253C1272.01 60.1462 1272.01 60.1646 1272.02 60.1823L1272.02 60.1839C1272.03 60.2056 1272.05 60.2233 1272.07 60.2402C1272.1 60.2699 1272.14 60.294 1272.2 60.3141C1272.31 60.3479 1273.11 60.3189 1273.35 60.2997C1273.99 60.2458 1274.64 60.2 1275.28 60.163C1275.47 60.1526 1275.65 60.1462 1275.84 60.1365C1276.68 60.0947 1277.51 60.0618 1278.33 60.0425C1278.99 60.0256 1279.64 60.0152 1280.28 60.0088C1280.46 60.0072 1280.63 60.0063 1280.81 60.0055C1281.4 60.0023 1281.99 60.0007 1282.55 60.0063C1282.36 64.9194 1282.12 70.1281 1281.92 75.0877C1281.9 75.8535 1281.86 76.6129 1281.84 77.3634C1281.77 78.9625 1281.77 78.9625 1281.77 78.9625C1281.77 79.0758 1281.76 79.1956 1281.76 79.3145C1281.74 80.0345 1281.74 80.8284 1281.9 81.0438C1281.9 81.0542 1281.91 81.063 1281.92 81.0711C1281.94 81.0976 1281.97 81.1097 1282.01 81.1089C1282.01 81.1089 1282.01 81.1072 1282.02 81.1072C1282.05 81.1056 1282.08 81.0944 1282.12 81.0743C1282.13 81.0679 1282.14 81.0574 1282.15 81.0486C1282.18 81.0301 1282.21 81.0092 1282.24 80.9827C1282.25 80.969 1282.27 80.9522 1282.28 80.9369C1282.31 80.9088 1282.34 80.879 1282.37 80.8453C1282.38 80.8252 1282.4 80.8043 1282.42 80.7826C1282.45 80.748 1282.47 80.7119 1282.5 80.6741C1282.52 80.6492 1282.54 80.6235 1282.56 80.5978C1282.59 80.5592 1282.62 80.5182 1282.64 80.478C1282.66 80.4499 1282.68 80.4226 1282.7 80.3945C1282.73 80.3519 1282.76 80.3085 1282.79 80.2643C1282.81 80.2362 1282.82 80.208 1282.84 80.1799C1282.89 80.1124 1282.93 80.0449 1282.97 79.979C1282.97 79.979 1282.97 79.979 1283.68 78.8902C1288.14 72.0422 1293.96 63.6931 1299.12 56.4867C1300.65 54.3428 1300.91 53.9812 1300.91 53.9812C1300.94 53.9434 1300.97 53.9016 1301 53.8631C1301.67 52.9623 1302.51 51.9924 1302.85 51.3142C1302.95 51.1165 1303.01 50.9389 1303 50.7983C1302.99 50.7316 1302.96 50.6801 1302.91 50.6384C1302.89 50.6231 1302.85 50.6167 1302.83 50.6046C1302.78 50.5821 1302.74 50.558 1302.69 50.5435C1302.65 50.5331 1302.6 50.5299 1302.55 50.5226C1302.5 50.5138 1302.45 50.5034 1302.39 50.4985C1302.33 50.4945 1302.28 50.4945 1302.22 50.4929C1302.16 50.4913 1302.1 50.4873 1302.04 50.4873C1301.83 50.4897 1301.63 50.5001 1301.5 50.505C1301.5 50.505 1301.5 50.505 1300.49 50.5492C1297.54 50.6761 1294.53 50.8376 1291.66 51.0345C1291.87 45.9672 1292.15 40.155 1292.37 35.1423C1292.43 33.7506 1292.43 33.7506 1292.43 33.7506C1292.43 33.712 1292.44 33.667 1292.44 33.626C1292.46 33.0941 1292.48 32.3781 1292.32 32.1691C1292.29 32.1378 1292.26 32.1137 1292.23 32.1097C1292.2 32.1065 1292.18 32.1137 1292.15 32.1193C1292.13 32.1225 1292.12 32.1241 1292.1 32.1322C1292.08 32.141 1292.05 32.1547 1292.03 32.1683C1292.01 32.1796 1291.99 32.1892 1291.97 32.2037C1291.94 32.2206 1291.92 32.2431 1291.89 32.264C1291.87 32.2824 1291.84 32.2985 1291.82 32.3202C1291.79 32.3443 1291.76 32.3741 1291.73 32.4022C1291.71 32.4263 1291.68 32.4488 1291.66 32.4753C1291.63 32.5082 1291.59 32.5452 1291.56 32.5806C1291.54 32.6079 1291.51 32.632 1291.49 32.6609C1291.45 32.7027 1291.41 32.7477 1291.38 32.7927C1291.35 32.82 1291.33 32.8457 1291.31 32.8739C1291.26 32.9333 1291.21 32.996 1291.16 33.0587C1291.15 33.074 1291.14 33.0884 1291.12 33.1037C1291.06 33.184 1291 33.266 1290.93 33.3496C1290.76 33.5714 1290.59 33.802 1290.43 34.0173C1290.43 34.0173 1290.43 34.0174 1289.24 35.6349C1289.12 35.7973 1289 35.9708 1288.87 36.138C1285.54 40.6926 1279.26 49.5326 1279.26 49.5326C1278.96 49.9545 1278.67 50.3555 1278.4 50.7364C1278.18 51.0474 1277.96 51.3575 1277.74 51.6685C1277.55 51.9433 1274.92 55.6486 1274.36 56.457C1273.37 57.8568 1273.37 57.8568 1273.37 57.8568C1273.12 58.2104 1272.76 58.6973 1272.47 59.1369Z" fill="#EEDB5F"/>
</svg>
