<svg width="2768" height="113" viewBox="0 0 2768 113" fill="none" xmlns="http://www.w3.org/2000/svg">
<path d="M77.6664 22.6634V71.6634C77.6664 78.4634 75.6997 83.7634 71.7664 87.5634C67.8331 91.2967 62.5664 93.1634 55.9664 93.1634C49.2997 93.1634 43.8997 91.23 39.7664 87.3634C35.6997 83.4967 33.6664 78.0967 33.6664 71.1634H47.6664C47.7331 74.1634 48.4331 76.4967 49.7664 78.1634C51.1664 79.83 53.1664 80.6634 55.7664 80.6634C58.2997 80.6634 60.2331 79.8634 61.5664 78.2634C62.8997 76.6634 63.5664 74.4634 63.5664 71.6634V22.6634H77.6664ZM126.398 93.1634C119.864 93.1634 113.864 91.63 108.398 88.5634C102.931 85.4967 98.5977 81.2634 95.3977 75.8634C92.1977 70.3967 90.5977 64.23 90.5977 57.3634C90.5977 50.5634 92.1977 44.4634 95.3977 39.0634C98.5977 33.5967 102.931 29.33 108.398 26.2634C113.864 23.1967 119.864 21.6634 126.398 21.6634C132.998 21.6634 138.998 23.1967 144.398 26.2634C149.864 29.33 154.164 33.5967 157.298 39.0634C160.498 44.4634 162.098 50.5634 162.098 57.3634C162.098 64.23 160.498 70.3967 157.298 75.8634C154.164 81.2634 149.864 85.4967 144.398 88.5634C138.931 91.63 132.931 93.1634 126.398 93.1634ZM126.398 80.6634C130.598 80.6634 134.298 79.73 137.498 77.8634C140.698 75.93 143.198 73.1967 144.998 69.6634C146.798 66.13 147.698 62.03 147.698 57.3634C147.698 52.6967 146.798 48.63 144.998 45.1634C143.198 41.63 140.698 38.93 137.498 37.0634C134.298 35.1967 130.598 34.2634 126.398 34.2634C122.198 34.2634 118.464 35.1967 115.198 37.0634C111.998 38.93 109.498 41.63 107.698 45.1634C105.898 48.63 104.998 52.6967 104.998 57.3634C104.998 62.03 105.898 66.13 107.698 69.6634C109.498 73.1967 111.998 75.93 115.198 77.8634C118.464 79.73 122.198 80.6634 126.398 80.6634ZM186.513 22.6634V92.4634H172.513V22.6634H186.513ZM260.045 92.4634H246.045L214.345 44.5634V92.4634H200.345V22.5634H214.345L246.045 70.5634V22.5634H260.045V92.4634ZM311.509 22.6634V65.8634C311.509 70.5967 312.742 74.23 315.209 76.7634C317.675 79.23 321.142 80.4634 325.609 80.4634C330.142 80.4634 333.642 79.23 336.109 76.7634C338.575 74.23 339.809 70.5967 339.809 65.8634V22.6634H353.909V65.7634C353.909 71.6967 352.609 76.73 350.009 80.8634C347.475 84.93 344.042 87.9967 339.709 90.0634C335.442 92.13 330.675 93.1634 325.409 93.1634C320.209 93.1634 315.475 92.13 311.209 90.0634C307.009 87.9967 303.675 84.93 301.209 80.8634C298.742 76.73 297.509 71.6967 297.509 65.7634V22.6634H311.509ZM391.535 93.1634C386.668 93.1634 382.268 92.33 378.335 90.6634C374.468 88.9967 371.402 86.5967 369.135 83.4634C366.868 80.33 365.702 76.63 365.635 72.3634H380.635C380.835 75.23 381.835 77.4967 383.635 79.1634C385.502 80.83 388.035 81.6634 391.235 81.6634C394.502 81.6634 397.068 80.8967 398.935 79.3634C400.802 77.7634 401.735 75.6967 401.735 73.1634C401.735 71.0967 401.102 69.3967 399.835 68.0634C398.568 66.73 396.968 65.6967 395.035 64.9634C393.168 64.1634 390.568 63.2967 387.235 62.3634C382.702 61.03 379.002 59.73 376.135 58.4634C373.335 57.13 370.902 55.1634 368.835 52.5634C366.835 49.8967 365.835 46.3634 365.835 41.9634C365.835 37.83 366.868 34.23 368.935 31.1634C371.002 28.0967 373.902 25.7634 377.635 24.1634C381.368 22.4967 385.635 21.6634 390.435 21.6634C397.635 21.6634 403.468 23.43 407.935 26.9634C412.468 30.43 414.968 35.2967 415.435 41.5634H400.035C399.902 39.1634 398.868 37.1967 396.935 35.6634C395.068 34.0634 392.568 33.2634 389.435 33.2634C386.702 33.2634 384.502 33.9634 382.835 35.3634C381.235 36.7634 380.435 38.7967 380.435 41.4634C380.435 43.33 381.035 44.8967 382.235 46.1634C383.502 47.3634 385.035 48.3634 386.835 49.1634C388.702 49.8967 391.302 50.7634 394.635 51.7634C399.168 53.0967 402.868 54.43 405.735 55.7634C408.602 57.0967 411.068 59.0967 413.135 61.7634C415.202 64.43 416.235 67.93 416.235 72.2634C416.235 75.9967 415.268 79.4634 413.335 82.6634C411.402 85.8634 408.568 88.43 404.835 90.3634C401.102 92.23 396.668 93.1634 391.535 93.1634ZM466.201 22.6634V92.4634H452.201V22.6634H466.201ZM539.733 92.4634H525.733L494.033 44.5634V92.4634H480.033V22.5634H494.033L525.733 70.5634V22.5634H539.733V92.4634ZM573.996 57.4634C573.996 50.5967 575.529 44.4634 578.596 39.0634C581.729 33.5967 585.963 29.3634 591.296 26.3634C596.696 23.2967 602.729 21.7634 609.396 21.7634C617.196 21.7634 624.029 23.7634 629.896 27.7634C635.763 31.7634 639.863 37.2967 642.196 44.3634H626.096C624.496 41.03 622.229 38.53 619.296 36.8634C616.429 35.1967 613.096 34.3634 609.296 34.3634C605.229 34.3634 601.596 35.33 598.396 37.2634C595.263 39.13 592.796 41.7967 590.996 45.2634C589.263 48.73 588.396 52.7967 588.396 57.4634C588.396 62.0634 589.263 66.13 590.996 69.6634C592.796 73.13 595.263 75.83 598.396 77.7634C601.596 79.63 605.229 80.5634 609.296 80.5634C613.096 80.5634 616.429 79.73 619.296 78.0634C622.229 76.33 624.496 73.7967 626.096 70.4634H642.196C639.863 77.5967 635.763 83.1634 629.896 87.1634C624.096 91.0967 617.263 93.0634 609.396 93.0634C602.729 93.0634 596.696 91.5634 591.296 88.5634C585.963 85.4967 581.729 81.2634 578.596 75.8634C575.529 70.4634 573.996 64.33 573.996 57.4634ZM696.954 79.1634H669.154L664.554 92.4634H649.854L674.954 22.5634H691.254L716.354 92.4634H701.554L696.954 79.1634ZM693.154 67.9634L683.054 38.7634L672.954 67.9634H693.154ZM776.636 44.2634C776.636 47.9967 775.736 51.4967 773.936 54.7634C772.203 58.03 769.436 60.6634 765.636 62.6634C761.903 64.6634 757.169 65.6634 751.436 65.6634H739.736V92.4634H725.736V22.6634H751.436C756.836 22.6634 761.436 23.5967 765.236 25.4634C769.036 27.33 771.869 29.8967 773.736 33.1634C775.669 36.43 776.636 40.13 776.636 44.2634ZM750.836 54.3634C754.703 54.3634 757.569 53.4967 759.436 51.7634C761.303 49.9634 762.236 47.4634 762.236 44.2634C762.236 37.4634 758.436 34.0634 750.836 34.0634H739.736V54.3634H750.836ZM800.576 33.9634V51.4634H824.076V62.5634H800.576V81.0634H827.076V92.4634H786.576V22.5634H827.076V33.9634H800.576ZM911.127 22.6634V33.9634H892.527V92.4634H878.527V33.9634H859.927V22.6634H911.127ZM953.741 93.1634C947.208 93.1634 941.208 91.63 935.741 88.5634C930.275 85.4967 925.941 81.2634 922.741 75.8634C919.541 70.3967 917.941 64.23 917.941 57.3634C917.941 50.5634 919.541 44.4634 922.741 39.0634C925.941 33.5967 930.275 29.33 935.741 26.2634C941.208 23.1967 947.208 21.6634 953.741 21.6634C960.341 21.6634 966.341 23.1967 971.741 26.2634C977.208 29.33 981.508 33.5967 984.641 39.0634C987.841 44.4634 989.441 50.5634 989.441 57.3634C989.441 64.23 987.841 70.3967 984.641 75.8634C981.508 81.2634 977.208 85.4967 971.741 88.5634C966.275 91.63 960.275 93.1634 953.741 93.1634ZM953.741 80.6634C957.941 80.6634 961.641 79.73 964.841 77.8634C968.041 75.93 970.541 73.1967 972.341 69.6634C974.141 66.13 975.041 62.03 975.041 57.3634C975.041 52.6967 974.141 48.63 972.341 45.1634C970.541 41.63 968.041 38.93 964.841 37.0634C961.641 35.1967 957.941 34.2634 953.741 34.2634C949.541 34.2634 945.808 35.1967 942.541 37.0634C939.341 38.93 936.841 41.63 935.041 45.1634C933.241 48.63 932.341 52.6967 932.341 57.3634C932.341 62.03 933.241 66.13 935.041 69.6634C936.841 73.1967 939.341 75.93 942.541 77.8634C945.808 79.73 949.541 80.6634 953.741 80.6634ZM1093.16 22.6634L1073.66 92.4634H1057.16L1044.06 42.7634L1030.36 92.4634L1013.96 92.5634L995.157 22.6634H1010.16L1022.46 76.8634L1036.66 22.6634H1052.26L1065.66 76.5634L1078.06 22.6634H1093.16ZM1162 92.4634H1148L1116.3 44.5634V92.4634H1102.3V22.5634H1116.3L1148 70.5634V22.5634H1162V92.4634Z" fill="#3F69FF"/>
<path d="M81.6664 20.6634V69.6634C81.6664 76.4634 79.6997 81.7634 75.7664 85.5634C71.8331 89.2967 66.5664 91.1634 59.9664 91.1634C53.2997 91.1634 47.8997 89.23 43.7664 85.3634C39.6997 81.4967 37.6664 76.0967 37.6664 69.1634H51.6664C51.7331 72.1634 52.4331 74.4967 53.7664 76.1634C55.1664 77.83 57.1664 78.6634 59.7664 78.6634C62.2997 78.6634 64.2331 77.8634 65.5664 76.2634C66.8997 74.6634 67.5664 72.4634 67.5664 69.6634V20.6634H81.6664ZM130.398 91.1634C123.864 91.1634 117.864 89.63 112.398 86.5634C106.931 83.4967 102.598 79.2634 99.3977 73.8634C96.1977 68.3967 94.5977 62.23 94.5977 55.3634C94.5977 48.5634 96.1977 42.4634 99.3977 37.0634C102.598 31.5967 106.931 27.33 112.398 24.2634C117.864 21.1967 123.864 19.6634 130.398 19.6634C136.998 19.6634 142.998 21.1967 148.398 24.2634C153.864 27.33 158.164 31.5967 161.298 37.0634C164.498 42.4634 166.098 48.5634 166.098 55.3634C166.098 62.23 164.498 68.3967 161.298 73.8634C158.164 79.2634 153.864 83.4967 148.398 86.5634C142.931 89.63 136.931 91.1634 130.398 91.1634ZM130.398 78.6634C134.598 78.6634 138.298 77.73 141.498 75.8634C144.698 73.93 147.198 71.1967 148.998 67.6634C150.798 64.13 151.698 60.03 151.698 55.3634C151.698 50.6967 150.798 46.63 148.998 43.1634C147.198 39.63 144.698 36.93 141.498 35.0634C138.298 33.1967 134.598 32.2634 130.398 32.2634C126.198 32.2634 122.464 33.1967 119.198 35.0634C115.998 36.93 113.498 39.63 111.698 43.1634C109.898 46.63 108.998 50.6967 108.998 55.3634C108.998 60.03 109.898 64.13 111.698 67.6634C113.498 71.1967 115.998 73.93 119.198 75.8634C122.464 77.73 126.198 78.6634 130.398 78.6634ZM190.513 20.6634V90.4634H176.513V20.6634H190.513ZM264.045 90.4634H250.045L218.345 42.5634V90.4634H204.345V20.5634H218.345L250.045 68.5634V20.5634H264.045V90.4634ZM315.509 20.6634V63.8634C315.509 68.5967 316.742 72.23 319.209 74.7634C321.675 77.23 325.142 78.4634 329.609 78.4634C334.142 78.4634 337.642 77.23 340.109 74.7634C342.575 72.23 343.809 68.5967 343.809 63.8634V20.6634H357.909V63.7634C357.909 69.6967 356.609 74.73 354.009 78.8634C351.475 82.93 348.042 85.9967 343.709 88.0634C339.442 90.13 334.675 91.1634 329.409 91.1634C324.209 91.1634 319.475 90.13 315.209 88.0634C311.009 85.9967 307.675 82.93 305.209 78.8634C302.742 74.73 301.509 69.6967 301.509 63.7634V20.6634H315.509ZM395.535 91.1634C390.668 91.1634 386.268 90.33 382.335 88.6634C378.468 86.9967 375.402 84.5967 373.135 81.4634C370.868 78.33 369.702 74.63 369.635 70.3634H384.635C384.835 73.23 385.835 75.4967 387.635 77.1634C389.502 78.83 392.035 79.6634 395.235 79.6634C398.502 79.6634 401.068 78.8967 402.935 77.3634C404.802 75.7634 405.735 73.6967 405.735 71.1634C405.735 69.0967 405.102 67.3967 403.835 66.0634C402.568 64.73 400.968 63.6967 399.035 62.9634C397.168 62.1634 394.568 61.2967 391.235 60.3634C386.702 59.03 383.002 57.73 380.135 56.4634C377.335 55.13 374.902 53.1634 372.835 50.5634C370.835 47.8967 369.835 44.3634 369.835 39.9634C369.835 35.83 370.868 32.23 372.935 29.1634C375.002 26.0967 377.902 23.7634 381.635 22.1634C385.368 20.4967 389.635 19.6634 394.435 19.6634C401.635 19.6634 407.468 21.43 411.935 24.9634C416.468 28.43 418.968 33.2967 419.435 39.5634H404.035C403.902 37.1634 402.868 35.1967 400.935 33.6634C399.068 32.0634 396.568 31.2634 393.435 31.2634C390.702 31.2634 388.502 31.9634 386.835 33.3634C385.235 34.7634 384.435 36.7967 384.435 39.4634C384.435 41.33 385.035 42.8967 386.235 44.1634C387.502 45.3634 389.035 46.3634 390.835 47.1634C392.702 47.8967 395.302 48.7634 398.635 49.7634C403.168 51.0967 406.868 52.43 409.735 53.7634C412.602 55.0967 415.068 57.0967 417.135 59.7634C419.202 62.43 420.235 65.93 420.235 70.2634C420.235 73.9967 419.268 77.4634 417.335 80.6634C415.402 83.8634 412.568 86.43 408.835 88.3634C405.102 90.23 400.668 91.1634 395.535 91.1634ZM470.201 20.6634V90.4634H456.201V20.6634H470.201ZM543.733 90.4634H529.733L498.033 42.5634V90.4634H484.033V20.5634H498.033L529.733 68.5634V20.5634H543.733V90.4634ZM577.996 55.4634C577.996 48.5967 579.529 42.4634 582.596 37.0634C585.729 31.5967 589.963 27.3634 595.296 24.3634C600.696 21.2967 606.729 19.7634 613.396 19.7634C621.196 19.7634 628.029 21.7634 633.896 25.7634C639.763 29.7634 643.863 35.2967 646.196 42.3634H630.096C628.496 39.03 626.229 36.53 623.296 34.8634C620.429 33.1967 617.096 32.3634 613.296 32.3634C609.229 32.3634 605.596 33.33 602.396 35.2634C599.263 37.13 596.796 39.7967 594.996 43.2634C593.263 46.73 592.396 50.7967 592.396 55.4634C592.396 60.0634 593.263 64.13 594.996 67.6634C596.796 71.13 599.263 73.83 602.396 75.7634C605.596 77.63 609.229 78.5634 613.296 78.5634C617.096 78.5634 620.429 77.73 623.296 76.0634C626.229 74.33 628.496 71.7967 630.096 68.4634H646.196C643.863 75.5967 639.763 81.1634 633.896 85.1634C628.096 89.0967 621.263 91.0634 613.396 91.0634C606.729 91.0634 600.696 89.5634 595.296 86.5634C589.963 83.4967 585.729 79.2634 582.596 73.8634C579.529 68.4634 577.996 62.33 577.996 55.4634ZM700.954 77.1634H673.154L668.554 90.4634H653.854L678.954 20.5634H695.254L720.354 90.4634H705.554L700.954 77.1634ZM697.154 65.9634L687.054 36.7634L676.954 65.9634H697.154ZM780.636 42.2634C780.636 45.9967 779.736 49.4967 777.936 52.7634C776.203 56.03 773.436 58.6634 769.636 60.6634C765.903 62.6634 761.169 63.6634 755.436 63.6634H743.736V90.4634H729.736V20.6634H755.436C760.836 20.6634 765.436 21.5967 769.236 23.4634C773.036 25.33 775.869 27.8967 777.736 31.1634C779.669 34.43 780.636 38.13 780.636 42.2634ZM754.836 52.3634C758.703 52.3634 761.569 51.4967 763.436 49.7634C765.303 47.9634 766.236 45.4634 766.236 42.2634C766.236 35.4634 762.436 32.0634 754.836 32.0634H743.736V52.3634H754.836ZM804.576 31.9634V49.4634H828.076V60.5634H804.576V79.0634H831.076V90.4634H790.576V20.5634H831.076V31.9634H804.576ZM915.127 20.6634V31.9634H896.527V90.4634H882.527V31.9634H863.927V20.6634H915.127ZM957.741 91.1634C951.208 91.1634 945.208 89.63 939.741 86.5634C934.275 83.4967 929.941 79.2634 926.741 73.8634C923.541 68.3967 921.941 62.23 921.941 55.3634C921.941 48.5634 923.541 42.4634 926.741 37.0634C929.941 31.5967 934.275 27.33 939.741 24.2634C945.208 21.1967 951.208 19.6634 957.741 19.6634C964.341 19.6634 970.341 21.1967 975.741 24.2634C981.208 27.33 985.508 31.5967 988.641 37.0634C991.841 42.4634 993.441 48.5634 993.441 55.3634C993.441 62.23 991.841 68.3967 988.641 73.8634C985.508 79.2634 981.208 83.4967 975.741 86.5634C970.275 89.63 964.275 91.1634 957.741 91.1634ZM957.741 78.6634C961.941 78.6634 965.641 77.73 968.841 75.8634C972.041 73.93 974.541 71.1967 976.341 67.6634C978.141 64.13 979.041 60.03 979.041 55.3634C979.041 50.6967 978.141 46.63 976.341 43.1634C974.541 39.63 972.041 36.93 968.841 35.0634C965.641 33.1967 961.941 32.2634 957.741 32.2634C953.541 32.2634 949.808 33.1967 946.541 35.0634C943.341 36.93 940.841 39.63 939.041 43.1634C937.241 46.63 936.341 50.6967 936.341 55.3634C936.341 60.03 937.241 64.13 939.041 67.6634C940.841 71.1967 943.341 73.93 946.541 75.8634C949.808 77.73 953.541 78.6634 957.741 78.6634ZM1097.16 20.6634L1077.66 90.4634H1061.16L1048.06 40.7634L1034.36 90.4634L1017.96 90.5634L999.157 20.6634H1014.16L1026.46 74.8634L1040.66 20.6634H1056.26L1069.66 74.5634L1082.06 20.6634H1097.16ZM1166 90.4634H1152L1120.3 42.5634V90.4634H1106.3V20.5634H1120.3L1152 68.5634V20.5634H1166V90.4634Z" fill="#F34D4D"/>
<path d="M79.8285 21.6634V70.6634C79.8285 77.4634 77.8619 82.7634 73.9285 86.5634C69.9952 90.2967 64.7285 92.1634 58.1285 92.1634C51.4618 92.1634 46.0618 90.23 41.9285 86.3634C37.8618 82.4967 35.8285 77.0967 35.8285 70.1634H49.8285C49.8952 73.1634 50.5952 75.4967 51.9285 77.1634C53.3285 78.83 55.3285 79.6634 57.9285 79.6634C60.4619 79.6634 62.3952 78.8634 63.7285 77.2634C65.0619 75.6634 65.7285 73.4634 65.7285 70.6634V21.6634H79.8285ZM128.56 92.1634C122.026 92.1634 116.026 90.63 110.56 87.5634C105.093 84.4967 100.76 80.2634 97.5598 74.8634C94.3598 69.3967 92.7598 63.23 92.7598 56.3634C92.7598 49.5634 94.3598 43.4634 97.5598 38.0634C100.76 32.5967 105.093 28.33 110.56 25.2634C116.026 22.1967 122.026 20.6634 128.56 20.6634C135.16 20.6634 141.16 22.1967 146.56 25.2634C152.026 28.33 156.326 32.5967 159.46 38.0634C162.66 43.4634 164.26 49.5634 164.26 56.3634C164.26 63.23 162.66 69.3967 159.46 74.8634C156.326 80.2634 152.026 84.4967 146.56 87.5634C141.093 90.63 135.093 92.1634 128.56 92.1634ZM128.56 79.6634C132.76 79.6634 136.46 78.73 139.66 76.8634C142.86 74.93 145.36 72.1967 147.16 68.6634C148.96 65.13 149.86 61.03 149.86 56.3634C149.86 51.6967 148.96 47.63 147.16 44.1634C145.36 40.63 142.86 37.93 139.66 36.0634C136.46 34.1967 132.76 33.2634 128.56 33.2634C124.36 33.2634 120.626 34.1967 117.36 36.0634C114.16 37.93 111.66 40.63 109.86 44.1634C108.06 47.63 107.16 51.6967 107.16 56.3634C107.16 61.03 108.06 65.13 109.86 68.6634C111.66 72.1967 114.16 74.93 117.36 76.8634C120.626 78.73 124.36 79.6634 128.56 79.6634ZM188.675 21.6634V91.4634H174.675V21.6634H188.675ZM262.207 91.4634H248.207L216.507 43.5634V91.4634H202.507V21.5634H216.507L248.207 69.5634V21.5634H262.207V91.4634ZM313.671 21.6634V64.8634C313.671 69.5967 314.904 73.23 317.371 75.7634C319.837 78.23 323.304 79.4634 327.771 79.4634C332.304 79.4634 335.804 78.23 338.271 75.7634C340.737 73.23 341.971 69.5967 341.971 64.8634V21.6634H356.071V64.7634C356.071 70.6967 354.771 75.73 352.171 79.8634C349.637 83.93 346.204 86.9967 341.871 89.0634C337.604 91.13 332.837 92.1634 327.571 92.1634C322.371 92.1634 317.637 91.13 313.371 89.0634C309.171 86.9967 305.837 83.93 303.371 79.8634C300.904 75.73 299.671 70.6967 299.671 64.7634V21.6634H313.671ZM393.697 92.1634C388.831 92.1634 384.431 91.33 380.497 89.6634C376.631 87.9967 373.564 85.5967 371.297 82.4634C369.031 79.33 367.864 75.63 367.797 71.3634H382.797C382.997 74.23 383.997 76.4967 385.797 78.1634C387.664 79.83 390.197 80.6634 393.397 80.6634C396.664 80.6634 399.231 79.8967 401.097 78.3634C402.964 76.7634 403.897 74.6967 403.897 72.1634C403.897 70.0967 403.264 68.3967 401.997 67.0634C400.731 65.73 399.131 64.6967 397.197 63.9634C395.331 63.1634 392.731 62.2967 389.397 61.3634C384.864 60.03 381.164 58.73 378.297 57.4634C375.497 56.13 373.064 54.1634 370.997 51.5634C368.997 48.8967 367.997 45.3634 367.997 40.9634C367.997 36.83 369.031 33.23 371.097 30.1634C373.164 27.0967 376.064 24.7634 379.797 23.1634C383.531 21.4967 387.797 20.6634 392.597 20.6634C399.797 20.6634 405.631 22.43 410.097 25.9634C414.631 29.43 417.131 34.2967 417.597 40.5634H402.197C402.064 38.1634 401.031 36.1967 399.097 34.6634C397.231 33.0634 394.731 32.2634 391.597 32.2634C388.864 32.2634 386.664 32.9634 384.997 34.3634C383.397 35.7634 382.597 37.7967 382.597 40.4634C382.597 42.33 383.197 43.8967 384.397 45.1634C385.664 46.3634 387.197 47.3634 388.997 48.1634C390.864 48.8967 393.464 49.7634 396.797 50.7634C401.331 52.0967 405.031 53.43 407.897 54.7634C410.764 56.0967 413.231 58.0967 415.297 60.7634C417.364 63.43 418.397 66.93 418.397 71.2634C418.397 74.9967 417.431 78.4634 415.497 81.6634C413.564 84.8634 410.731 87.43 406.997 89.3634C403.264 91.23 398.831 92.1634 393.697 92.1634ZM468.363 21.6634V91.4634H454.363V21.6634H468.363ZM541.895 91.4634H527.895L496.195 43.5634V91.4634H482.195V21.5634H496.195L527.895 69.5634V21.5634H541.895V91.4634ZM576.158 56.4634C576.158 49.5967 577.692 43.4634 580.758 38.0634C583.892 32.5967 588.125 28.3634 593.458 25.3634C598.858 22.2967 604.892 20.7634 611.558 20.7634C619.358 20.7634 626.192 22.7634 632.058 26.7634C637.925 30.7634 642.025 36.2967 644.358 43.3634H628.258C626.658 40.03 624.392 37.53 621.458 35.8634C618.592 34.1967 615.258 33.3634 611.458 33.3634C607.392 33.3634 603.758 34.33 600.558 36.2634C597.425 38.13 594.958 40.7967 593.158 44.2634C591.425 47.73 590.558 51.7967 590.558 56.4634C590.558 61.0634 591.425 65.13 593.158 68.6634C594.958 72.13 597.425 74.83 600.558 76.7634C603.758 78.63 607.392 79.5634 611.458 79.5634C615.258 79.5634 618.592 78.73 621.458 77.0634C624.392 75.33 626.658 72.7967 628.258 69.4634H644.358C642.025 76.5967 637.925 82.1634 632.058 86.1634C626.258 90.0967 619.425 92.0634 611.558 92.0634C604.892 92.0634 598.858 90.5634 593.458 87.5634C588.125 84.4967 583.892 80.2634 580.758 74.8634C577.692 69.4634 576.158 63.33 576.158 56.4634ZM699.116 78.1634H671.316L666.716 91.4634H652.016L677.116 21.5634H693.416L718.516 91.4634H703.716L699.116 78.1634ZM695.316 66.9634L685.216 37.7634L675.116 66.9634H695.316ZM778.798 43.2634C778.798 46.9967 777.898 50.4967 776.098 53.7634C774.365 57.03 771.598 59.6634 767.798 61.6634C764.065 63.6634 759.331 64.6634 753.598 64.6634H741.898V91.4634H727.898V21.6634H753.598C758.998 21.6634 763.598 22.5967 767.398 24.4634C771.198 26.33 774.031 28.8967 775.898 32.1634C777.831 35.43 778.798 39.13 778.798 43.2634ZM752.998 53.3634C756.865 53.3634 759.731 52.4967 761.598 50.7634C763.465 48.9634 764.398 46.4634 764.398 43.2634C764.398 36.4634 760.598 33.0634 752.998 33.0634H741.898V53.3634H752.998ZM802.738 32.9634V50.4634H826.238V61.5634H802.738V80.0634H829.238V91.4634H788.738V21.5634H829.238V32.9634H802.738ZM913.289 21.6634V32.9634H894.689V91.4634H880.689V32.9634H862.089V21.6634H913.289ZM955.904 92.1634C949.37 92.1634 943.37 90.63 937.904 87.5634C932.437 84.4967 928.104 80.2634 924.904 74.8634C921.704 69.3967 920.104 63.23 920.104 56.3634C920.104 49.5634 921.704 43.4634 924.904 38.0634C928.104 32.5967 932.437 28.33 937.904 25.2634C943.37 22.1967 949.37 20.6634 955.904 20.6634C962.504 20.6634 968.504 22.1967 973.904 25.2634C979.37 28.33 983.67 32.5967 986.804 38.0634C990.004 43.4634 991.604 49.5634 991.604 56.3634C991.604 63.23 990.004 69.3967 986.804 74.8634C983.67 80.2634 979.37 84.4967 973.904 87.5634C968.437 90.63 962.437 92.1634 955.904 92.1634ZM955.904 79.6634C960.104 79.6634 963.804 78.73 967.004 76.8634C970.204 74.93 972.704 72.1967 974.504 68.6634C976.304 65.13 977.204 61.03 977.204 56.3634C977.204 51.6967 976.304 47.63 974.504 44.1634C972.704 40.63 970.204 37.93 967.004 36.0634C963.804 34.1967 960.104 33.2634 955.904 33.2634C951.704 33.2634 947.97 34.1967 944.704 36.0634C941.504 37.93 939.004 40.63 937.204 44.1634C935.404 47.63 934.504 51.6967 934.504 56.3634C934.504 61.03 935.404 65.13 937.204 68.6634C939.004 72.1967 941.504 74.93 944.704 76.8634C947.97 78.73 951.704 79.6634 955.904 79.6634ZM1095.32 21.6634L1075.82 91.4634H1059.32L1046.22 41.7634L1032.52 91.4634L1016.12 91.5634L997.319 21.6634H1012.32L1024.62 75.8634L1038.82 21.6634H1054.42L1067.82 75.5634L1080.22 21.6634H1095.32ZM1164.16 91.4634H1150.16L1118.46 43.5634V91.4634H1104.46V21.5634H1118.46L1150.16 69.5634V21.5634H1164.16V91.4634Z" fill="#FFBD5A"/>
<path d="M1278.47 58.9914C1278.19 59.4197 1277.98 59.8054 1278 59.9798C1278.01 60.0007 1278.01 60.0191 1278.02 60.0368L1278.02 60.0384C1278.03 60.0601 1278.05 60.0778 1278.07 60.0947C1278.1 60.1244 1278.14 60.1485 1278.2 60.1686C1278.31 60.2024 1279.11 60.1734 1279.35 60.1541C1279.99 60.1003 1280.64 60.0545 1281.28 60.0175C1281.47 60.0071 1281.65 60.0007 1281.84 59.991C1282.68 59.9492 1283.51 59.9163 1284.33 59.897C1284.99 59.8801 1285.64 59.8697 1286.28 59.8633C1286.46 59.8616 1286.63 59.8608 1286.81 59.86C1287.4 59.8568 1287.99 59.8552 1288.55 59.8608C1288.36 64.7739 1288.12 69.9826 1287.92 74.9422C1287.9 75.708 1287.86 76.4674 1287.84 77.2179C1287.77 78.817 1287.77 78.817 1287.77 78.817C1287.77 78.9303 1287.76 79.05 1287.76 79.169C1287.74 79.889 1287.74 80.6829 1287.9 80.8983C1287.9 80.9087 1287.91 80.9175 1287.92 80.9256C1287.94 80.9521 1287.97 80.9641 1288.01 80.9633C1288.01 80.9633 1288.01 80.9617 1288.02 80.9617C1288.05 80.9601 1288.08 80.9489 1288.12 80.9288C1288.13 80.9224 1288.14 80.9119 1288.15 80.9031C1288.18 80.8846 1288.21 80.8637 1288.24 80.8372C1288.25 80.8235 1288.27 80.8066 1288.28 80.7914C1288.31 80.7633 1288.34 80.7335 1288.37 80.6998C1288.38 80.6797 1288.4 80.6588 1288.42 80.6371C1288.45 80.6025 1288.47 80.5664 1288.5 80.5286C1288.52 80.5037 1288.54 80.478 1288.56 80.4523C1288.59 80.4137 1288.62 80.3727 1288.64 80.3325C1288.66 80.3044 1288.68 80.2771 1288.7 80.249C1288.73 80.2064 1288.76 80.163 1288.79 80.1188C1288.81 80.0907 1288.82 80.0625 1288.84 80.0344C1288.89 79.9669 1288.93 79.8994 1288.97 79.8335C1288.97 79.8335 1288.97 79.8335 1289.68 78.7447C1294.14 71.8967 1299.96 63.5476 1305.12 56.3412C1306.65 54.1973 1306.91 53.8357 1306.91 53.8357C1306.94 53.7979 1306.97 53.7561 1307 53.7176C1307.67 52.8168 1308.51 51.8469 1308.85 51.1686C1308.95 50.971 1309.01 50.7934 1309 50.6528C1308.99 50.5861 1308.96 50.5346 1308.91 50.4928C1308.89 50.4776 1308.85 50.4711 1308.83 50.4591C1308.78 50.4366 1308.74 50.4125 1308.69 50.398C1308.65 50.3876 1308.6 50.3844 1308.55 50.3771C1308.5 50.3683 1308.45 50.3578 1308.39 50.353C1308.33 50.349 1308.28 50.349 1308.22 50.3474C1308.16 50.3458 1308.1 50.3418 1308.04 50.3418C1307.83 50.3442 1307.63 50.3546 1307.5 50.3595C1307.5 50.3595 1307.5 50.3595 1306.49 50.4036C1303.54 50.5306 1300.53 50.6921 1297.66 50.889C1297.87 45.8217 1298.15 40.0095 1298.37 34.9968C1298.43 33.6051 1298.43 33.6051 1298.43 33.6051C1298.43 33.5665 1298.44 33.5215 1298.44 33.4805C1298.46 32.9485 1298.48 32.2326 1298.32 32.0236C1298.29 31.9923 1298.26 31.9682 1298.23 31.9642C1298.2 31.961 1298.18 31.9682 1298.15 31.9738C1298.13 31.977 1298.12 31.9786 1298.1 31.9867C1298.08 31.9955 1298.05 32.0092 1298.03 32.0228C1298.01 32.0341 1297.99 32.0437 1297.97 32.0582C1297.94 32.0751 1297.92 32.0976 1297.89 32.1185C1297.87 32.1369 1297.84 32.153 1297.82 32.1747C1297.79 32.1988 1297.76 32.2285 1297.73 32.2567C1297.71 32.2808 1297.68 32.3033 1297.66 32.3298C1297.63 32.3627 1297.59 32.3997 1297.56 32.4351C1297.54 32.4624 1297.51 32.4865 1297.49 32.5154C1297.45 32.5572 1297.41 32.6022 1297.38 32.6472C1297.35 32.6745 1297.33 32.7002 1297.31 32.7284C1297.26 32.7878 1297.21 32.8505 1297.16 32.9132C1297.15 32.9285 1297.14 32.9429 1297.12 32.9582C1297.06 33.0385 1297 33.1205 1296.93 33.2041C1296.76 33.4259 1296.59 33.6565 1296.43 33.8718C1296.43 33.8718 1296.43 33.8718 1295.24 35.4894C1295.12 35.6517 1295 35.8253 1294.87 35.9925C1291.54 40.5471 1285.26 49.3871 1285.26 49.3871C1284.96 49.809 1284.67 50.21 1284.4 50.5909C1284.18 50.9019 1283.96 51.212 1283.74 51.523C1283.55 51.7978 1280.92 55.5031 1280.36 56.3115C1279.37 57.7113 1279.37 57.7113 1279.37 57.7113C1279.12 58.0649 1278.76 58.5518 1278.47 58.9914Z" fill="#FFBD5A"/>
<path d="M1461.67 22.6634V71.6634C1461.67 78.4634 1459.7 83.7634 1455.77 87.5634C1451.83 91.2967 1446.57 93.1634 1439.97 93.1634C1433.3 93.1634 1427.9 91.23 1423.77 87.3634C1419.7 83.4967 1417.67 78.0967 1417.67 71.1634H1431.67C1431.73 74.1634 1432.43 76.4967 1433.77 78.1634C1435.17 79.83 1437.17 80.6634 1439.77 80.6634C1442.3 80.6634 1444.23 79.8634 1445.57 78.2634C1446.9 76.6634 1447.57 74.4634 1447.57 71.6634V22.6634H1461.67ZM1510.4 93.1634C1503.86 93.1634 1497.86 91.63 1492.4 88.5634C1486.93 85.4967 1482.6 81.2634 1479.4 75.8634C1476.2 70.3967 1474.6 64.23 1474.6 57.3634C1474.6 50.5634 1476.2 44.4634 1479.4 39.0634C1482.6 33.5967 1486.93 29.33 1492.4 26.2634C1497.86 23.1967 1503.86 21.6634 1510.4 21.6634C1517 21.6634 1523 23.1967 1528.4 26.2634C1533.86 29.33 1538.16 33.5967 1541.3 39.0634C1544.5 44.4634 1546.1 50.5634 1546.1 57.3634C1546.1 64.23 1544.5 70.3967 1541.3 75.8634C1538.16 81.2634 1533.86 85.4967 1528.4 88.5634C1522.93 91.63 1516.93 93.1634 1510.4 93.1634ZM1510.4 80.6634C1514.6 80.6634 1518.3 79.73 1521.5 77.8634C1524.7 75.93 1527.2 73.1967 1529 69.6634C1530.8 66.13 1531.7 62.03 1531.7 57.3634C1531.7 52.6967 1530.8 48.63 1529 45.1634C1527.2 41.63 1524.7 38.93 1521.5 37.0634C1518.3 35.1967 1514.6 34.2634 1510.4 34.2634C1506.2 34.2634 1502.46 35.1967 1499.2 37.0634C1496 38.93 1493.5 41.63 1491.7 45.1634C1489.9 48.63 1489 52.6967 1489 57.3634C1489 62.03 1489.9 66.13 1491.7 69.6634C1493.5 73.1967 1496 75.93 1499.2 77.8634C1502.46 79.73 1506.2 80.6634 1510.4 80.6634ZM1570.51 22.6634V92.4634H1556.51V22.6634H1570.51ZM1644.05 92.4634H1630.05L1598.35 44.5634V92.4634H1584.35V22.5634H1598.35L1630.05 70.5634V22.5634H1644.05V92.4634ZM1695.51 22.6634V65.8634C1695.51 70.5967 1696.74 74.23 1699.21 76.7634C1701.68 79.23 1705.14 80.4634 1709.61 80.4634C1714.14 80.4634 1717.64 79.23 1720.11 76.7634C1722.58 74.23 1723.81 70.5967 1723.81 65.8634V22.6634H1737.91V65.7634C1737.91 71.6967 1736.61 76.73 1734.01 80.8634C1731.48 84.93 1728.04 87.9967 1723.71 90.0634C1719.44 92.13 1714.68 93.1634 1709.41 93.1634C1704.21 93.1634 1699.48 92.13 1695.21 90.0634C1691.01 87.9967 1687.68 84.93 1685.21 80.8634C1682.74 76.73 1681.51 71.6967 1681.51 65.7634V22.6634H1695.51ZM1775.54 93.1634C1770.67 93.1634 1766.27 92.33 1762.34 90.6634C1758.47 88.9967 1755.4 86.5967 1753.14 83.4634C1750.87 80.33 1749.7 76.63 1749.64 72.3634H1764.64C1764.84 75.23 1765.84 77.4967 1767.64 79.1634C1769.5 80.83 1772.04 81.6634 1775.24 81.6634C1778.5 81.6634 1781.07 80.8967 1782.94 79.3634C1784.8 77.7634 1785.74 75.6967 1785.74 73.1634C1785.74 71.0967 1785.1 69.3967 1783.84 68.0634C1782.57 66.73 1780.97 65.6967 1779.04 64.9634C1777.17 64.1634 1774.57 63.2967 1771.24 62.3634C1766.7 61.03 1763 59.73 1760.14 58.4634C1757.34 57.13 1754.9 55.1634 1752.84 52.5634C1750.84 49.8967 1749.84 46.3634 1749.84 41.9634C1749.84 37.83 1750.87 34.23 1752.94 31.1634C1755 28.0967 1757.9 25.7634 1761.64 24.1634C1765.37 22.4967 1769.64 21.6634 1774.44 21.6634C1781.64 21.6634 1787.47 23.43 1791.94 26.9634C1796.47 30.43 1798.97 35.2967 1799.44 41.5634H1784.04C1783.9 39.1634 1782.87 37.1967 1780.94 35.6634C1779.07 34.0634 1776.57 33.2634 1773.44 33.2634C1770.7 33.2634 1768.5 33.9634 1766.84 35.3634C1765.24 36.7634 1764.44 38.7967 1764.44 41.4634C1764.44 43.33 1765.04 44.8967 1766.24 46.1634C1767.5 47.3634 1769.04 48.3634 1770.84 49.1634C1772.7 49.8967 1775.3 50.7634 1778.64 51.7634C1783.17 53.0967 1786.87 54.43 1789.74 55.7634C1792.6 57.0967 1795.07 59.0967 1797.14 61.7634C1799.2 64.43 1800.24 67.93 1800.24 72.2634C1800.24 75.9967 1799.27 79.4634 1797.34 82.6634C1795.4 85.8634 1792.57 88.43 1788.84 90.3634C1785.1 92.23 1780.67 93.1634 1775.54 93.1634ZM1850.2 22.6634V92.4634H1836.2V22.6634H1850.2ZM1923.73 92.4634H1909.73L1878.03 44.5634V92.4634H1864.03V22.5634H1878.03L1909.73 70.5634V22.5634H1923.73V92.4634ZM1958 57.4634C1958 50.5967 1959.53 44.4634 1962.6 39.0634C1965.73 33.5967 1969.96 29.3634 1975.3 26.3634C1980.7 23.2967 1986.73 21.7634 1993.4 21.7634C2001.2 21.7634 2008.03 23.7634 2013.9 27.7634C2019.76 31.7634 2023.86 37.2967 2026.2 44.3634H2010.1C2008.5 41.03 2006.23 38.53 2003.3 36.8634C2000.43 35.1967 1997.1 34.3634 1993.3 34.3634C1989.23 34.3634 1985.6 35.33 1982.4 37.2634C1979.26 39.13 1976.8 41.7967 1975 45.2634C1973.26 48.73 1972.4 52.7967 1972.4 57.4634C1972.4 62.0634 1973.26 66.13 1975 69.6634C1976.8 73.13 1979.26 75.83 1982.4 77.7634C1985.6 79.63 1989.23 80.5634 1993.3 80.5634C1997.1 80.5634 2000.43 79.73 2003.3 78.0634C2006.23 76.33 2008.5 73.7967 2010.1 70.4634H2026.2C2023.86 77.5967 2019.76 83.1634 2013.9 87.1634C2008.1 91.0967 2001.26 93.0634 1993.4 93.0634C1986.73 93.0634 1980.7 91.5634 1975.3 88.5634C1969.96 85.4967 1965.73 81.2634 1962.6 75.8634C1959.53 70.4634 1958 64.33 1958 57.4634ZM2080.95 79.1634H2053.15L2048.55 92.4634H2033.85L2058.95 22.5634H2075.25L2100.35 92.4634H2085.55L2080.95 79.1634ZM2077.15 67.9634L2067.05 38.7634L2056.95 67.9634H2077.15ZM2160.64 44.2634C2160.64 47.9967 2159.74 51.4967 2157.94 54.7634C2156.2 58.03 2153.44 60.6634 2149.64 62.6634C2145.9 64.6634 2141.17 65.6634 2135.44 65.6634H2123.74V92.4634H2109.74V22.6634H2135.44C2140.84 22.6634 2145.44 23.5967 2149.24 25.4634C2153.04 27.33 2155.87 29.8967 2157.74 33.1634C2159.67 36.43 2160.64 40.13 2160.64 44.2634ZM2134.84 54.3634C2138.7 54.3634 2141.57 53.4967 2143.44 51.7634C2145.3 49.9634 2146.24 47.4634 2146.24 44.2634C2146.24 37.4634 2142.44 34.0634 2134.84 34.0634H2123.74V54.3634H2134.84ZM2184.58 33.9634V51.4634H2208.08V62.5634H2184.58V81.0634H2211.08V92.4634H2170.58V22.5634H2211.08V33.9634H2184.58ZM2295.13 22.6634V33.9634H2276.53V92.4634H2262.53V33.9634H2243.93V22.6634H2295.13ZM2337.74 93.1634C2331.21 93.1634 2325.21 91.63 2319.74 88.5634C2314.27 85.4967 2309.94 81.2634 2306.74 75.8634C2303.54 70.3967 2301.94 64.23 2301.94 57.3634C2301.94 50.5634 2303.54 44.4634 2306.74 39.0634C2309.94 33.5967 2314.27 29.33 2319.74 26.2634C2325.21 23.1967 2331.21 21.6634 2337.74 21.6634C2344.34 21.6634 2350.34 23.1967 2355.74 26.2634C2361.21 29.33 2365.51 33.5967 2368.64 39.0634C2371.84 44.4634 2373.44 50.5634 2373.44 57.3634C2373.44 64.23 2371.84 70.3967 2368.64 75.8634C2365.51 81.2634 2361.21 85.4967 2355.74 88.5634C2350.27 91.63 2344.27 93.1634 2337.74 93.1634ZM2337.74 80.6634C2341.94 80.6634 2345.64 79.73 2348.84 77.8634C2352.04 75.93 2354.54 73.1967 2356.34 69.6634C2358.14 66.13 2359.04 62.03 2359.04 57.3634C2359.04 52.6967 2358.14 48.63 2356.34 45.1634C2354.54 41.63 2352.04 38.93 2348.84 37.0634C2345.64 35.1967 2341.94 34.2634 2337.74 34.2634C2333.54 34.2634 2329.81 35.1967 2326.54 37.0634C2323.34 38.93 2320.84 41.63 2319.04 45.1634C2317.24 48.63 2316.34 52.6967 2316.34 57.3634C2316.34 62.03 2317.24 66.13 2319.04 69.6634C2320.84 73.1967 2323.34 75.93 2326.54 77.8634C2329.81 79.73 2333.54 80.6634 2337.74 80.6634ZM2477.16 22.6634L2457.66 92.4634H2441.16L2428.06 42.7634L2414.36 92.4634L2397.96 92.5634L2379.16 22.6634H2394.16L2406.46 76.8634L2420.66 22.6634H2436.26L2449.66 76.5634L2462.06 22.6634H2477.16ZM2546 92.4634H2532L2500.3 44.5634V92.4634H2486.3V22.5634H2500.3L2532 70.5634V22.5634H2546V92.4634Z" fill="#3F69FF"/>
<path d="M1465.67 20.6634V69.6634C1465.67 76.4634 1463.7 81.7634 1459.77 85.5634C1455.83 89.2967 1450.57 91.1634 1443.97 91.1634C1437.3 91.1634 1431.9 89.23 1427.77 85.3634C1423.7 81.4967 1421.67 76.0967 1421.67 69.1634H1435.67C1435.73 72.1634 1436.43 74.4967 1437.77 76.1634C1439.17 77.83 1441.17 78.6634 1443.77 78.6634C1446.3 78.6634 1448.23 77.8634 1449.57 76.2634C1450.9 74.6634 1451.57 72.4634 1451.57 69.6634V20.6634H1465.67ZM1514.4 91.1634C1507.86 91.1634 1501.86 89.63 1496.4 86.5634C1490.93 83.4967 1486.6 79.2634 1483.4 73.8634C1480.2 68.3967 1478.6 62.23 1478.6 55.3634C1478.6 48.5634 1480.2 42.4634 1483.4 37.0634C1486.6 31.5967 1490.93 27.33 1496.4 24.2634C1501.86 21.1967 1507.86 19.6634 1514.4 19.6634C1521 19.6634 1527 21.1967 1532.4 24.2634C1537.86 27.33 1542.16 31.5967 1545.3 37.0634C1548.5 42.4634 1550.1 48.5634 1550.1 55.3634C1550.1 62.23 1548.5 68.3967 1545.3 73.8634C1542.16 79.2634 1537.86 83.4967 1532.4 86.5634C1526.93 89.63 1520.93 91.1634 1514.4 91.1634ZM1514.4 78.6634C1518.6 78.6634 1522.3 77.73 1525.5 75.8634C1528.7 73.93 1531.2 71.1967 1533 67.6634C1534.8 64.13 1535.7 60.03 1535.7 55.3634C1535.7 50.6967 1534.8 46.63 1533 43.1634C1531.2 39.63 1528.7 36.93 1525.5 35.0634C1522.3 33.1967 1518.6 32.2634 1514.4 32.2634C1510.2 32.2634 1506.46 33.1967 1503.2 35.0634C1500 36.93 1497.5 39.63 1495.7 43.1634C1493.9 46.63 1493 50.6967 1493 55.3634C1493 60.03 1493.9 64.13 1495.7 67.6634C1497.5 71.1967 1500 73.93 1503.2 75.8634C1506.46 77.73 1510.2 78.6634 1514.4 78.6634ZM1574.51 20.6634V90.4634H1560.51V20.6634H1574.51ZM1648.05 90.4634H1634.05L1602.35 42.5634V90.4634H1588.35V20.5634H1602.35L1634.05 68.5634V20.5634H1648.05V90.4634ZM1699.51 20.6634V63.8634C1699.51 68.5967 1700.74 72.23 1703.21 74.7634C1705.68 77.23 1709.14 78.4634 1713.61 78.4634C1718.14 78.4634 1721.64 77.23 1724.11 74.7634C1726.58 72.23 1727.81 68.5967 1727.81 63.8634V20.6634H1741.91V63.7634C1741.91 69.6967 1740.61 74.73 1738.01 78.8634C1735.48 82.93 1732.04 85.9967 1727.71 88.0634C1723.44 90.13 1718.68 91.1634 1713.41 91.1634C1708.21 91.1634 1703.48 90.13 1699.21 88.0634C1695.01 85.9967 1691.68 82.93 1689.21 78.8634C1686.74 74.73 1685.51 69.6967 1685.51 63.7634V20.6634H1699.51ZM1779.54 91.1634C1774.67 91.1634 1770.27 90.33 1766.34 88.6634C1762.47 86.9967 1759.4 84.5967 1757.14 81.4634C1754.87 78.33 1753.7 74.63 1753.64 70.3634H1768.64C1768.84 73.23 1769.84 75.4967 1771.64 77.1634C1773.5 78.83 1776.04 79.6634 1779.24 79.6634C1782.5 79.6634 1785.07 78.8967 1786.94 77.3634C1788.8 75.7634 1789.74 73.6967 1789.74 71.1634C1789.74 69.0967 1789.1 67.3967 1787.84 66.0634C1786.57 64.73 1784.97 63.6967 1783.04 62.9634C1781.17 62.1634 1778.57 61.2967 1775.24 60.3634C1770.7 59.03 1767 57.73 1764.14 56.4634C1761.34 55.13 1758.9 53.1634 1756.84 50.5634C1754.84 47.8967 1753.84 44.3634 1753.84 39.9634C1753.84 35.83 1754.87 32.23 1756.94 29.1634C1759 26.0967 1761.9 23.7634 1765.64 22.1634C1769.37 20.4967 1773.64 19.6634 1778.44 19.6634C1785.64 19.6634 1791.47 21.43 1795.94 24.9634C1800.47 28.43 1802.97 33.2967 1803.44 39.5634H1788.04C1787.9 37.1634 1786.87 35.1967 1784.94 33.6634C1783.07 32.0634 1780.57 31.2634 1777.44 31.2634C1774.7 31.2634 1772.5 31.9634 1770.84 33.3634C1769.24 34.7634 1768.44 36.7967 1768.44 39.4634C1768.44 41.33 1769.04 42.8967 1770.24 44.1634C1771.5 45.3634 1773.04 46.3634 1774.84 47.1634C1776.7 47.8967 1779.3 48.7634 1782.64 49.7634C1787.17 51.0967 1790.87 52.43 1793.74 53.7634C1796.6 55.0967 1799.07 57.0967 1801.14 59.7634C1803.2 62.43 1804.24 65.93 1804.24 70.2634C1804.24 73.9967 1803.27 77.4634 1801.34 80.6634C1799.4 83.8634 1796.57 86.43 1792.84 88.3634C1789.1 90.23 1784.67 91.1634 1779.54 91.1634ZM1854.2 20.6634V90.4634H1840.2V20.6634H1854.2ZM1927.73 90.4634H1913.73L1882.03 42.5634V90.4634H1868.03V20.5634H1882.03L1913.73 68.5634V20.5634H1927.73V90.4634ZM1962 55.4634C1962 48.5967 1963.53 42.4634 1966.6 37.0634C1969.73 31.5967 1973.96 27.3634 1979.3 24.3634C1984.7 21.2967 1990.73 19.7634 1997.4 19.7634C2005.2 19.7634 2012.03 21.7634 2017.9 25.7634C2023.76 29.7634 2027.86 35.2967 2030.2 42.3634H2014.1C2012.5 39.03 2010.23 36.53 2007.3 34.8634C2004.43 33.1967 2001.1 32.3634 1997.3 32.3634C1993.23 32.3634 1989.6 33.33 1986.4 35.2634C1983.26 37.13 1980.8 39.7967 1979 43.2634C1977.26 46.73 1976.4 50.7967 1976.4 55.4634C1976.4 60.0634 1977.26 64.13 1979 67.6634C1980.8 71.13 1983.26 73.83 1986.4 75.7634C1989.6 77.63 1993.23 78.5634 1997.3 78.5634C2001.1 78.5634 2004.43 77.73 2007.3 76.0634C2010.23 74.33 2012.5 71.7967 2014.1 68.4634H2030.2C2027.86 75.5967 2023.76 81.1634 2017.9 85.1634C2012.1 89.0967 2005.26 91.0634 1997.4 91.0634C1990.73 91.0634 1984.7 89.5634 1979.3 86.5634C1973.96 83.4967 1969.73 79.2634 1966.6 73.8634C1963.53 68.4634 1962 62.33 1962 55.4634ZM2084.95 77.1634H2057.15L2052.55 90.4634H2037.85L2062.95 20.5634H2079.25L2104.35 90.4634H2089.55L2084.95 77.1634ZM2081.15 65.9634L2071.05 36.7634L2060.95 65.9634H2081.15ZM2164.64 42.2634C2164.64 45.9967 2163.74 49.4967 2161.94 52.7634C2160.2 56.03 2157.44 58.6634 2153.64 60.6634C2149.9 62.6634 2145.17 63.6634 2139.44 63.6634H2127.74V90.4634H2113.74V20.6634H2139.44C2144.84 20.6634 2149.44 21.5967 2153.24 23.4634C2157.04 25.33 2159.87 27.8967 2161.74 31.1634C2163.67 34.43 2164.64 38.13 2164.64 42.2634ZM2138.84 52.3634C2142.7 52.3634 2145.57 51.4967 2147.44 49.7634C2149.3 47.9634 2150.24 45.4634 2150.24 42.2634C2150.24 35.4634 2146.44 32.0634 2138.84 32.0634H2127.74V52.3634H2138.84ZM2188.58 31.9634V49.4634H2212.08V60.5634H2188.58V79.0634H2215.08V90.4634H2174.58V20.5634H2215.08V31.9634H2188.58ZM2299.13 20.6634V31.9634H2280.53V90.4634H2266.53V31.9634H2247.93V20.6634H2299.13ZM2341.74 91.1634C2335.21 91.1634 2329.21 89.63 2323.74 86.5634C2318.27 83.4967 2313.94 79.2634 2310.74 73.8634C2307.54 68.3967 2305.94 62.23 2305.94 55.3634C2305.94 48.5634 2307.54 42.4634 2310.74 37.0634C2313.94 31.5967 2318.27 27.33 2323.74 24.2634C2329.21 21.1967 2335.21 19.6634 2341.74 19.6634C2348.34 19.6634 2354.34 21.1967 2359.74 24.2634C2365.21 27.33 2369.51 31.5967 2372.64 37.0634C2375.84 42.4634 2377.44 48.5634 2377.44 55.3634C2377.44 62.23 2375.84 68.3967 2372.64 73.8634C2369.51 79.2634 2365.21 83.4967 2359.74 86.5634C2354.27 89.63 2348.27 91.1634 2341.74 91.1634ZM2341.74 78.6634C2345.94 78.6634 2349.64 77.73 2352.84 75.8634C2356.04 73.93 2358.54 71.1967 2360.34 67.6634C2362.14 64.13 2363.04 60.03 2363.04 55.3634C2363.04 50.6967 2362.14 46.63 2360.34 43.1634C2358.54 39.63 2356.04 36.93 2352.84 35.0634C2349.64 33.1967 2345.94 32.2634 2341.74 32.2634C2337.54 32.2634 2333.81 33.1967 2330.54 35.0634C2327.34 36.93 2324.84 39.63 2323.04 43.1634C2321.24 46.63 2320.34 50.6967 2320.34 55.3634C2320.34 60.03 2321.24 64.13 2323.04 67.6634C2324.84 71.1967 2327.34 73.93 2330.54 75.8634C2333.81 77.73 2337.54 78.6634 2341.74 78.6634ZM2481.16 20.6634L2461.66 90.4634H2445.16L2432.06 40.7634L2418.36 90.4634L2401.96 90.5634L2383.16 20.6634H2398.16L2410.46 74.8634L2424.66 20.6634H2440.26L2453.66 74.5634L2466.06 20.6634H2481.16ZM2550 90.4634H2536L2504.3 42.5634V90.4634H2490.3V20.5634H2504.3L2536 68.5634V20.5634H2550V90.4634Z" fill="#F34D4D"/>
<path d="M1463.83 21.6634V70.6634C1463.83 77.4634 1461.86 82.7634 1457.93 86.5634C1454 90.2967 1448.73 92.1634 1442.13 92.1634C1435.46 92.1634 1430.06 90.23 1425.93 86.3634C1421.86 82.4967 1419.83 77.0967 1419.83 70.1634H1433.83C1433.9 73.1634 1434.6 75.4967 1435.93 77.1634C1437.33 78.83 1439.33 79.6634 1441.93 79.6634C1444.46 79.6634 1446.4 78.8634 1447.73 77.2634C1449.06 75.6634 1449.73 73.4634 1449.73 70.6634V21.6634H1463.83ZM1512.56 92.1634C1506.03 92.1634 1500.03 90.63 1494.56 87.5634C1489.09 84.4967 1484.76 80.2634 1481.56 74.8634C1478.36 69.3967 1476.76 63.23 1476.76 56.3634C1476.76 49.5634 1478.36 43.4634 1481.56 38.0634C1484.76 32.5967 1489.09 28.33 1494.56 25.2634C1500.03 22.1967 1506.03 20.6634 1512.56 20.6634C1519.16 20.6634 1525.16 22.1967 1530.56 25.2634C1536.03 28.33 1540.33 32.5967 1543.46 38.0634C1546.66 43.4634 1548.26 49.5634 1548.26 56.3634C1548.26 63.23 1546.66 69.3967 1543.46 74.8634C1540.33 80.2634 1536.03 84.4967 1530.56 87.5634C1525.09 90.63 1519.09 92.1634 1512.56 92.1634ZM1512.56 79.6634C1516.76 79.6634 1520.46 78.73 1523.66 76.8634C1526.86 74.93 1529.36 72.1967 1531.16 68.6634C1532.96 65.13 1533.86 61.03 1533.86 56.3634C1533.86 51.6967 1532.96 47.63 1531.16 44.1634C1529.36 40.63 1526.86 37.93 1523.66 36.0634C1520.46 34.1967 1516.76 33.2634 1512.56 33.2634C1508.36 33.2634 1504.63 34.1967 1501.36 36.0634C1498.16 37.93 1495.66 40.63 1493.86 44.1634C1492.06 47.63 1491.16 51.6967 1491.16 56.3634C1491.16 61.03 1492.06 65.13 1493.86 68.6634C1495.66 72.1967 1498.16 74.93 1501.36 76.8634C1504.63 78.73 1508.36 79.6634 1512.56 79.6634ZM1572.68 21.6634V91.4634H1558.68V21.6634H1572.68ZM1646.21 91.4634H1632.21L1600.51 43.5634V91.4634H1586.51V21.5634H1600.51L1632.21 69.5634V21.5634H1646.21V91.4634ZM1697.67 21.6634V64.8634C1697.67 69.5967 1698.9 73.23 1701.37 75.7634C1703.84 78.23 1707.3 79.4634 1711.77 79.4634C1716.3 79.4634 1719.8 78.23 1722.27 75.7634C1724.74 73.23 1725.97 69.5967 1725.97 64.8634V21.6634H1740.07V64.7634C1740.07 70.6967 1738.77 75.73 1736.17 79.8634C1733.64 83.93 1730.2 86.9967 1725.87 89.0634C1721.6 91.13 1716.84 92.1634 1711.57 92.1634C1706.37 92.1634 1701.64 91.13 1697.37 89.0634C1693.17 86.9967 1689.84 83.93 1687.37 79.8634C1684.9 75.73 1683.67 70.6967 1683.67 64.7634V21.6634H1697.67ZM1777.7 92.1634C1772.83 92.1634 1768.43 91.33 1764.5 89.6634C1760.63 87.9967 1757.56 85.5967 1755.3 82.4634C1753.03 79.33 1751.86 75.63 1751.8 71.3634H1766.8C1767 74.23 1768 76.4967 1769.8 78.1634C1771.66 79.83 1774.2 80.6634 1777.4 80.6634C1780.66 80.6634 1783.23 79.8967 1785.1 78.3634C1786.96 76.7634 1787.9 74.6967 1787.9 72.1634C1787.9 70.0967 1787.26 68.3967 1786 67.0634C1784.73 65.73 1783.13 64.6967 1781.2 63.9634C1779.33 63.1634 1776.73 62.2967 1773.4 61.3634C1768.86 60.03 1765.16 58.73 1762.3 57.4634C1759.5 56.13 1757.06 54.1634 1755 51.5634C1753 48.8967 1752 45.3634 1752 40.9634C1752 36.83 1753.03 33.23 1755.1 30.1634C1757.16 27.0967 1760.06 24.7634 1763.8 23.1634C1767.53 21.4967 1771.8 20.6634 1776.6 20.6634C1783.8 20.6634 1789.63 22.43 1794.1 25.9634C1798.63 29.43 1801.13 34.2967 1801.6 40.5634H1786.2C1786.06 38.1634 1785.03 36.1967 1783.1 34.6634C1781.23 33.0634 1778.73 32.2634 1775.6 32.2634C1772.86 32.2634 1770.66 32.9634 1769 34.3634C1767.4 35.7634 1766.6 37.7967 1766.6 40.4634C1766.6 42.33 1767.2 43.8967 1768.4 45.1634C1769.66 46.3634 1771.2 47.3634 1773 48.1634C1774.86 48.8967 1777.46 49.7634 1780.8 50.7634C1785.33 52.0967 1789.03 53.43 1791.9 54.7634C1794.76 56.0967 1797.23 58.0967 1799.3 60.7634C1801.36 63.43 1802.4 66.93 1802.4 71.2634C1802.4 74.9967 1801.43 78.4634 1799.5 81.6634C1797.56 84.8634 1794.73 87.43 1791 89.3634C1787.26 91.23 1782.83 92.1634 1777.7 92.1634ZM1852.36 21.6634V91.4634H1838.36V21.6634H1852.36ZM1925.89 91.4634H1911.89L1880.19 43.5634V91.4634H1866.19V21.5634H1880.19L1911.89 69.5634V21.5634H1925.89V91.4634ZM1960.16 56.4634C1960.16 49.5967 1961.69 43.4634 1964.76 38.0634C1967.89 32.5967 1972.12 28.3634 1977.46 25.3634C1982.86 22.2967 1988.89 20.7634 1995.56 20.7634C2003.36 20.7634 2010.19 22.7634 2016.06 26.7634C2021.92 30.7634 2026.02 36.2967 2028.36 43.3634H2012.26C2010.66 40.03 2008.39 37.53 2005.46 35.8634C2002.59 34.1967 1999.26 33.3634 1995.46 33.3634C1991.39 33.3634 1987.76 34.33 1984.56 36.2634C1981.42 38.13 1978.96 40.7967 1977.16 44.2634C1975.42 47.73 1974.56 51.7967 1974.56 56.4634C1974.56 61.0634 1975.42 65.13 1977.16 68.6634C1978.96 72.13 1981.42 74.83 1984.56 76.7634C1987.76 78.63 1991.39 79.5634 1995.46 79.5634C1999.26 79.5634 2002.59 78.73 2005.46 77.0634C2008.39 75.33 2010.66 72.7967 2012.26 69.4634H2028.36C2026.02 76.5967 2021.92 82.1634 2016.06 86.1634C2010.26 90.0967 2003.42 92.0634 1995.56 92.0634C1988.89 92.0634 1982.86 90.5634 1977.46 87.5634C1972.12 84.4967 1967.89 80.2634 1964.76 74.8634C1961.69 69.4634 1960.16 63.33 1960.16 56.4634ZM2083.12 78.1634H2055.32L2050.72 91.4634H2036.02L2061.12 21.5634H2077.42L2102.52 91.4634H2087.72L2083.12 78.1634ZM2079.32 66.9634L2069.22 37.7634L2059.12 66.9634H2079.32ZM2162.8 43.2634C2162.8 46.9967 2161.9 50.4967 2160.1 53.7634C2158.36 57.03 2155.6 59.6634 2151.8 61.6634C2148.06 63.6634 2143.33 64.6634 2137.6 64.6634H2125.9V91.4634H2111.9V21.6634H2137.6C2143 21.6634 2147.6 22.5967 2151.4 24.4634C2155.2 26.33 2158.03 28.8967 2159.9 32.1634C2161.83 35.43 2162.8 39.13 2162.8 43.2634ZM2137 53.3634C2140.86 53.3634 2143.73 52.4967 2145.6 50.7634C2147.46 48.9634 2148.4 46.4634 2148.4 43.2634C2148.4 36.4634 2144.6 33.0634 2137 33.0634H2125.9V53.3634H2137ZM2186.74 32.9634V50.4634H2210.24V61.5634H2186.74V80.0634H2213.24V91.4634H2172.74V21.5634H2213.24V32.9634H2186.74ZM2297.29 21.6634V32.9634H2278.69V91.4634H2264.69V32.9634H2246.09V21.6634H2297.29ZM2339.9 92.1634C2333.37 92.1634 2327.37 90.63 2321.9 87.5634C2316.44 84.4967 2312.1 80.2634 2308.9 74.8634C2305.7 69.3967 2304.1 63.23 2304.1 56.3634C2304.1 49.5634 2305.7 43.4634 2308.9 38.0634C2312.1 32.5967 2316.44 28.33 2321.9 25.2634C2327.37 22.1967 2333.37 20.6634 2339.9 20.6634C2346.5 20.6634 2352.5 22.1967 2357.9 25.2634C2363.37 28.33 2367.67 32.5967 2370.8 38.0634C2374 43.4634 2375.6 49.5634 2375.6 56.3634C2375.6 63.23 2374 69.3967 2370.8 74.8634C2367.67 80.2634 2363.37 84.4967 2357.9 87.5634C2352.44 90.63 2346.44 92.1634 2339.9 92.1634ZM2339.9 79.6634C2344.1 79.6634 2347.8 78.73 2351 76.8634C2354.2 74.93 2356.7 72.1967 2358.5 68.6634C2360.3 65.13 2361.2 61.03 2361.2 56.3634C2361.2 51.6967 2360.3 47.63 2358.5 44.1634C2356.7 40.63 2354.2 37.93 2351 36.0634C2347.8 34.1967 2344.1 33.2634 2339.9 33.2634C2335.7 33.2634 2331.97 34.1967 2328.7 36.0634C2325.5 37.93 2323 40.63 2321.2 44.1634C2319.4 47.63 2318.5 51.6967 2318.5 56.3634C2318.5 61.03 2319.4 65.13 2321.2 68.6634C2323 72.1967 2325.5 74.93 2328.7 76.8634C2331.97 78.73 2335.7 79.6634 2339.9 79.6634ZM2479.32 21.6634L2459.82 91.4634H2443.32L2430.22 41.7634L2416.52 91.4634L2400.12 91.5634L2381.32 21.6634H2396.32L2408.62 75.8634L2422.82 21.6634H2438.42L2451.82 75.5634L2464.22 21.6634H2479.32ZM2548.16 91.4634H2534.16L2502.46 43.5634V91.4634H2488.46V21.5634H2502.46L2534.16 69.5634V21.5634H2548.16V91.4634Z" fill="#FFBD5A"/>
<path d="M2662.47 58.9914C2662.19 59.4197 2661.98 59.8054 2662 59.9798C2662.01 60.0007 2662.01 60.0191 2662.02 60.0368L2662.02 60.0384C2662.03 60.0601 2662.05 60.0778 2662.07 60.0947C2662.1 60.1244 2662.14 60.1485 2662.2 60.1686C2662.31 60.2024 2663.11 60.1734 2663.35 60.1541C2663.99 60.1003 2664.64 60.0545 2665.28 60.0175C2665.47 60.0071 2665.65 60.0007 2665.84 59.991C2666.68 59.9492 2667.51 59.9163 2668.33 59.897C2668.99 59.8801 2669.64 59.8697 2670.28 59.8633C2670.46 59.8616 2670.63 59.8608 2670.81 59.86C2671.4 59.8568 2671.99 59.8552 2672.55 59.8608C2672.36 64.7739 2672.12 69.9826 2671.92 74.9422C2671.9 75.708 2671.86 76.4674 2671.84 77.2179C2671.77 78.817 2671.77 78.817 2671.77 78.817C2671.77 78.9303 2671.76 79.05 2671.76 79.169C2671.74 79.889 2671.74 80.6829 2671.9 80.8983C2671.9 80.9087 2671.91 80.9175 2671.92 80.9256C2671.94 80.9521 2671.97 80.9641 2672.01 80.9633C2672.01 80.9633 2672.01 80.9617 2672.02 80.9617C2672.05 80.9601 2672.08 80.9489 2672.12 80.9288C2672.13 80.9224 2672.14 80.9119 2672.15 80.9031C2672.18 80.8846 2672.21 80.8637 2672.24 80.8372C2672.25 80.8235 2672.27 80.8066 2672.28 80.7914C2672.31 80.7633 2672.34 80.7335 2672.37 80.6998C2672.38 80.6797 2672.4 80.6588 2672.42 80.6371C2672.45 80.6025 2672.47 80.5664 2672.5 80.5286C2672.52 80.5037 2672.54 80.478 2672.56 80.4523C2672.59 80.4137 2672.62 80.3727 2672.64 80.3325C2672.66 80.3044 2672.68 80.2771 2672.7 80.249C2672.73 80.2064 2672.76 80.163 2672.79 80.1188C2672.81 80.0907 2672.82 80.0625 2672.84 80.0344C2672.89 79.9669 2672.93 79.8994 2672.97 79.8335C2672.97 79.8335 2672.97 79.8335 2673.68 78.7447C2678.14 71.8967 2683.96 63.5476 2689.12 56.3412C2690.65 54.1973 2690.91 53.8357 2690.91 53.8357C2690.94 53.7979 2690.97 53.7561 2691 53.7176C2691.67 52.8168 2692.51 51.8469 2692.85 51.1686C2692.95 50.971 2693.01 50.7934 2693 50.6528C2692.99 50.5861 2692.96 50.5346 2692.91 50.4928C2692.89 50.4776 2692.85 50.4711 2692.83 50.4591C2692.78 50.4366 2692.74 50.4125 2692.69 50.398C2692.65 50.3876 2692.6 50.3844 2692.55 50.3771C2692.5 50.3683 2692.45 50.3578 2692.39 50.353C2692.33 50.349 2692.28 50.349 2692.22 50.3474C2692.16 50.3458 2692.1 50.3418 2692.04 50.3418C2691.83 50.3442 2691.63 50.3546 2691.5 50.3595C2691.5 50.3595 2691.5 50.3595 2690.49 50.4036C2687.54 50.5306 2684.53 50.6921 2681.66 50.889C2681.87 45.8217 2682.15 40.0095 2682.37 34.9968C2682.43 33.6051 2682.43 33.6051 2682.43 33.6051C2682.43 33.5665 2682.44 33.5215 2682.44 33.4805C2682.46 32.9485 2682.48 32.2326 2682.32 32.0236C2682.29 31.9923 2682.26 31.9682 2682.23 31.9642C2682.2 31.961 2682.18 31.9682 2682.15 31.9738C2682.13 31.977 2682.12 31.9786 2682.1 31.9867C2682.08 31.9955 2682.05 32.0092 2682.03 32.0228C2682.01 32.0341 2681.99 32.0437 2681.97 32.0582C2681.94 32.0751 2681.92 32.0976 2681.89 32.1185C2681.87 32.1369 2681.84 32.153 2681.82 32.1747C2681.79 32.1988 2681.76 32.2285 2681.73 32.2567C2681.71 32.2808 2681.68 32.3033 2681.66 32.3298C2681.63 32.3627 2681.59 32.3997 2681.56 32.4351C2681.54 32.4624 2681.51 32.4865 2681.49 32.5154C2681.45 32.5572 2681.41 32.6022 2681.38 32.6472C2681.35 32.6745 2681.33 32.7002 2681.31 32.7284C2681.26 32.7878 2681.21 32.8505 2681.16 32.9132C2681.15 32.9285 2681.14 32.9429 2681.12 32.9582C2681.06 33.0385 2681 33.1205 2680.93 33.2041C2680.76 33.4259 2680.59 33.6565 2680.43 33.8718C2680.43 33.8718 2680.43 33.8718 2679.24 35.4894C2679.12 35.6517 2679 35.8253 2678.87 35.9925C2675.54 40.5471 2669.26 49.3871 2669.26 49.3871C2668.96 49.809 2668.67 50.21 2668.4 50.5909C2668.18 50.9019 2667.96 51.212 2667.74 51.523C2667.55 51.7978 2664.92 55.5031 2664.36 56.3115C2663.37 57.7113 2663.37 57.7113 2663.37 57.7113C2663.12 58.0649 2662.76 58.5518 2662.47 58.9914Z" fill="#FFBD5A"/>
</svg>
