<svg width="2315" height="152" viewBox="0 0 2315 152" fill="none" xmlns="http://www.w3.org/2000/svg">
<path d="M183.781 101.213L178.327 85.3362H145.361L139.907 101.213H121.848L151.784 16.3734H172.025L201.84 101.213H183.781ZM149.845 72.2466H173.964L161.844 36.9774L149.845 72.2466ZM230.816 88.245H242.452C251.34 88.245 258.248 85.619 263.177 80.367C268.106 75.115 270.57 68.0046 270.57 59.0358C270.57 50.067 268.106 42.9566 263.177 37.7046C258.248 32.4526 251.34 29.8266 242.452 29.8266H230.816V88.245ZM242.452 16.6158C256.026 16.6158 266.974 20.4942 275.297 28.251C283.7 36.0078 287.902 46.2694 287.902 59.0358C287.902 71.8022 283.7 82.0234 275.297 89.6994C266.974 97.3754 256.026 101.213 242.452 101.213H213.727V16.6158H242.452ZM358.519 78.9126C363.287 73.8222 365.67 67.0754 365.67 58.6722C365.67 50.269 363.287 43.5626 358.519 38.553C353.752 33.5434 347.531 31.0386 339.855 31.0386C332.179 31.0386 325.917 33.5838 321.069 38.6742C316.301 43.6838 313.918 50.3902 313.918 58.7934C313.918 67.1158 316.301 73.8222 321.069 78.9126C325.917 83.9222 332.179 86.427 339.855 86.427C347.531 86.427 353.752 83.9222 358.519 78.9126ZM339.855 102.062C327.654 102.062 317.392 97.9814 309.07 89.8206C300.747 81.6598 296.586 71.3174 296.586 58.7934C296.586 46.1886 300.747 35.8058 309.07 27.645C317.473 19.4842 327.735 15.4038 339.855 15.4038C352.055 15.4038 362.317 19.4842 370.639 27.645C378.962 35.8058 383.123 46.1886 383.123 58.7934C383.123 71.3174 378.962 81.6598 370.639 89.8206C362.317 97.9814 352.055 102.062 339.855 102.062ZM451.86 58.7934C449.678 61.4598 446.486 63.601 442.285 65.217C438.164 66.7522 433.316 67.5198 427.741 67.5198H413.682V101.213H396.592V16.6158H427.741C437.518 16.6158 445.032 19.0802 450.284 24.009C455.617 28.857 458.283 34.5938 458.283 41.2194C458.283 47.845 456.142 53.703 451.86 58.7934ZM413.682 54.4302H427.741C432.023 54.4302 435.296 53.3394 437.558 51.1578C439.82 48.8954 440.952 45.8654 440.952 42.0678C440.952 38.2702 439.82 35.2806 437.558 33.099C435.296 30.8366 432.023 29.7054 427.741 29.7054H413.682V54.4302ZM466.19 29.7054V16.6158H528.85V29.7054H505.943V101.213H488.975V29.7054H466.19ZM541.938 101.213V16.6158H559.027V101.213H541.938ZM632.597 16.3734H649.686V101.213H632.597L594.298 42.5526V101.213H577.209V16.3734H594.298L632.597 75.0342V16.3734ZM675.629 89.6994C667.306 81.5386 663.145 71.1962 663.145 58.6722C663.145 46.1482 667.306 35.8058 675.629 27.645C684.032 19.4842 694.294 15.4038 706.414 15.4038C715.625 15.4038 723.786 17.747 730.896 22.4334C738.087 27.1198 743.218 33.705 746.288 42.189H725.806C722.008 34.7554 715.544 31.0386 706.414 31.0386C698.738 31.0386 692.476 33.5838 687.628 38.6742C682.86 43.6838 680.477 50.3902 680.477 58.7934C680.477 67.1158 682.86 73.8222 687.628 78.9126C692.476 83.9222 698.374 86.427 705.323 86.427C712.352 86.427 717.847 84.7302 721.806 81.3366C725.846 77.8622 728.351 73.2162 729.32 67.3986H701.202V54.4302H747.622V67.3986C746.167 76.6098 741.642 84.6898 734.047 91.6386C726.452 98.5066 716.877 101.941 705.323 101.941C693.849 101.941 683.951 97.8602 675.629 89.6994Z" fill="#FF4C00"/>
<path d="M178.781 105.213L173.327 89.3362H140.361L134.907 105.213H116.848L146.784 20.3734H167.025L196.84 105.213H178.781ZM144.845 76.2466H168.964L156.844 40.9774L144.845 76.2466ZM225.816 92.245H237.452C246.34 92.245 253.248 89.619 258.177 84.367C263.106 79.115 265.57 72.0046 265.57 63.0358C265.57 54.067 263.106 46.9566 258.177 41.7046C253.248 36.4526 246.34 33.8266 237.452 33.8266H225.816V92.245ZM237.452 20.6158C251.026 20.6158 261.974 24.4942 270.297 32.251C278.7 40.0078 282.902 50.2694 282.902 63.0358C282.902 75.8022 278.7 86.0234 270.297 93.6994C261.974 101.375 251.026 105.213 237.452 105.213H208.727V20.6158H237.452ZM353.519 82.9126C358.287 77.8222 360.67 71.0754 360.67 62.6722C360.67 54.269 358.287 47.5626 353.519 42.553C348.752 37.5434 342.531 35.0386 334.855 35.0386C327.179 35.0386 320.917 37.5838 316.069 42.6742C311.301 47.6838 308.918 54.3902 308.918 62.7934C308.918 71.1158 311.301 77.8222 316.069 82.9126C320.917 87.9222 327.179 90.427 334.855 90.427C342.531 90.427 348.752 87.9222 353.519 82.9126ZM334.855 106.062C322.654 106.062 312.392 101.981 304.07 93.8206C295.747 85.6598 291.586 75.3174 291.586 62.7934C291.586 50.1886 295.747 39.8058 304.07 31.645C312.473 23.4842 322.735 19.4038 334.855 19.4038C347.055 19.4038 357.317 23.4842 365.639 31.645C373.962 39.8058 378.123 50.1886 378.123 62.7934C378.123 75.3174 373.962 85.6598 365.639 93.8206C357.317 101.981 347.055 106.062 334.855 106.062ZM446.86 62.7934C444.678 65.4598 441.486 67.601 437.285 69.217C433.164 70.7522 428.316 71.5198 422.741 71.5198H408.682V105.213H391.592V20.6158H422.741C432.518 20.6158 440.032 23.0802 445.284 28.009C450.617 32.857 453.283 38.5938 453.283 45.2194C453.283 51.845 451.142 57.703 446.86 62.7934ZM408.682 58.4302H422.741C427.023 58.4302 430.296 57.3394 432.558 55.1578C434.82 52.8954 435.952 49.8654 435.952 46.0678C435.952 42.2702 434.82 39.2806 432.558 37.099C430.296 34.8366 427.023 33.7054 422.741 33.7054H408.682V58.4302ZM461.19 33.7054V20.6158H523.85V33.7054H500.943V105.213H483.975V33.7054H461.19ZM536.938 105.213V20.6158H554.027V105.213H536.938ZM627.597 20.3734H644.686V105.213H627.597L589.298 46.5526V105.213H572.209V20.3734H589.298L627.597 79.0342V20.3734ZM670.629 93.6994C662.306 85.5386 658.145 75.1962 658.145 62.6722C658.145 50.1482 662.306 39.8058 670.629 31.645C679.032 23.4842 689.294 19.4038 701.414 19.4038C710.625 19.4038 718.786 21.747 725.896 26.4334C733.087 31.1198 738.218 37.705 741.288 46.189H720.806C717.008 38.7554 710.544 35.0386 701.414 35.0386C693.738 35.0386 687.476 37.5838 682.628 42.6742C677.86 47.6838 675.477 54.3902 675.477 62.7934C675.477 71.1158 677.86 77.8222 682.628 82.9126C687.476 87.9222 693.374 90.427 700.323 90.427C707.352 90.427 712.847 88.7302 716.806 85.3366C720.846 81.8622 723.351 77.2162 724.32 71.3986H696.202V58.4302H742.622V71.3986C741.167 80.6098 736.642 88.6898 729.047 95.6386C721.452 102.507 711.877 105.941 700.323 105.941C688.849 105.941 678.951 101.86 670.629 93.6994Z" fill="#5D6CF2"/>
<path d="M177.418 93.0938H143.724L138.149 109.213H120.333L150.754 24.4946H170.51L200.931 109.213H182.993L177.418 93.0938ZM172.812 79.5194L160.571 44.129L148.33 79.5194H172.812ZM241.875 24.6158C250.763 24.6158 258.56 26.353 265.266 29.8274C272.053 33.3018 277.265 38.271 280.901 44.735C284.618 51.1182 286.476 58.5518 286.476 67.0358C286.476 75.5198 284.618 82.9534 280.901 89.3366C277.265 95.639 272.053 100.527 265.266 104.002C258.56 107.476 250.763 109.213 241.875 109.213H212.302V24.6158H241.875ZM241.269 94.7906C250.157 94.7906 257.025 92.3666 261.873 87.5186C266.721 82.6706 269.145 75.843 269.145 67.0358C269.145 58.2286 266.721 51.3606 261.873 46.4318C257.025 41.4222 250.157 38.9174 241.269 38.9174H229.27V94.7906H241.269ZM338.446 110.062C330.528 110.062 323.256 108.203 316.63 104.487C310.005 100.77 304.753 95.639 300.874 89.0942C296.996 82.4686 295.057 74.9946 295.057 66.6722C295.057 58.4306 296.996 51.0374 300.874 44.4926C304.753 37.867 310.005 32.6958 316.63 28.979C323.256 25.2622 330.528 23.4038 338.446 23.4038C346.446 23.4038 353.718 25.2622 360.262 28.979C366.888 32.6958 372.1 37.867 375.897 44.4926C379.776 51.0374 381.715 58.4306 381.715 66.6722C381.715 74.9946 379.776 82.4686 375.897 89.0942C372.1 95.639 366.888 100.77 360.262 104.487C353.637 108.203 346.365 110.062 338.446 110.062ZM338.446 94.9118C343.537 94.9118 348.021 93.7806 351.9 91.5182C355.778 89.175 358.808 85.8622 360.99 81.5798C363.171 77.2974 364.262 72.3282 364.262 66.6722C364.262 61.0162 363.171 56.0874 360.99 51.8858C358.808 47.6034 355.778 44.331 351.9 42.0686C348.021 39.8062 343.537 38.675 338.446 38.675C333.356 38.675 328.831 39.8062 324.872 42.0686C320.994 44.331 317.964 47.6034 315.782 51.8858C313.6 56.0874 312.51 61.0162 312.51 66.6722C312.51 72.3282 313.6 77.2974 315.782 81.5798C317.964 85.8622 320.994 89.175 324.872 91.5182C328.831 93.7806 333.356 94.9118 338.446 94.9118ZM456.029 50.795C456.029 55.3198 454.939 59.5618 452.757 63.521C450.656 67.4802 447.303 70.6718 442.697 73.0958C438.173 75.5198 432.436 76.7318 425.487 76.7318H411.307V109.213H394.339V24.6158H425.487C432.032 24.6158 437.607 25.747 442.213 28.0094C446.818 30.2718 450.252 33.3826 452.515 37.3418C454.858 41.301 456.029 45.7854 456.029 50.795ZM424.76 63.0362C429.446 63.0362 432.921 61.9858 435.183 59.885C437.445 57.7034 438.577 54.6734 438.577 50.795C438.577 42.5534 433.971 38.4326 424.76 38.4326H411.307V63.0362H424.76ZM525.646 24.6158V38.3114H503.103V109.213H486.135V38.3114H463.592V24.6158H525.646ZM554.995 24.6158V109.213H538.027V24.6158H554.995ZM644.116 109.213H627.148L588.727 51.1586V109.213H571.759V24.4946H588.727L627.148 82.6706V24.4946H644.116V109.213ZM719.787 50.0678C717.848 46.5126 715.182 43.8058 711.788 41.9474C708.394 40.089 704.435 39.1598 699.91 39.1598C694.901 39.1598 690.457 40.291 686.578 42.5534C682.7 44.8158 679.67 48.0478 677.488 52.2494C675.307 56.451 674.216 61.299 674.216 66.7934C674.216 72.4494 675.307 77.3782 677.488 81.5798C679.751 85.7814 682.862 89.0134 686.821 91.2758C690.78 93.5382 695.386 94.6694 700.638 94.6694C707.102 94.6694 712.394 92.9726 716.515 89.579C720.636 86.1046 723.342 81.297 724.635 75.1562H695.547V62.1878H741.361V76.9742C740.23 82.8726 737.806 88.3266 734.089 93.3362C730.372 98.3458 725.564 102.386 719.666 105.456C713.848 108.446 707.304 109.941 700.032 109.941C691.871 109.941 684.478 108.123 677.852 104.487C671.307 100.77 666.136 95.639 662.338 89.0942C658.622 82.5494 656.763 75.1158 656.763 66.7934C656.763 58.471 658.622 51.0374 662.338 44.4926C666.136 37.867 671.307 32.7362 677.852 29.1002C684.478 25.3834 691.83 23.525 699.91 23.525C709.445 23.525 717.727 25.8682 724.756 30.5546C731.786 35.1602 736.634 41.6646 739.3 50.0678H719.787Z" fill="#FAB44B"/>
<path d="M1660.6 101.213L1655.15 85.3362H1622.18L1616.73 101.213H1598.67L1628.6 16.3734H1648.84L1678.66 101.213H1660.6ZM1626.66 72.2466H1650.78L1638.66 36.9774L1626.66 72.2466ZM1707.63 88.245H1719.27C1728.16 88.245 1735.07 85.619 1740 80.367C1744.92 75.115 1747.39 68.0046 1747.39 59.0358C1747.39 50.067 1744.92 42.9566 1740 37.7046C1735.07 32.4526 1728.16 29.8266 1719.27 29.8266H1707.63V88.245ZM1719.27 16.6158C1732.84 16.6158 1743.79 20.4942 1752.12 28.251C1760.52 36.0078 1764.72 46.2694 1764.72 59.0358C1764.72 71.8022 1760.52 82.0234 1752.12 89.6994C1743.79 97.3754 1732.84 101.213 1719.27 101.213H1690.55V16.6158H1719.27ZM1835.34 78.9126C1840.11 73.8222 1842.49 67.0754 1842.49 58.6722C1842.49 50.269 1840.11 43.5626 1835.34 38.553C1830.57 33.5434 1824.35 31.0386 1816.67 31.0386C1809 31.0386 1802.74 33.5838 1797.89 38.6742C1793.12 43.6838 1790.74 50.3902 1790.74 58.7934C1790.74 67.1158 1793.12 73.8222 1797.89 78.9126C1802.74 83.9222 1809 86.427 1816.67 86.427C1824.35 86.427 1830.57 83.9222 1835.34 78.9126ZM1816.67 102.062C1804.47 102.062 1794.21 97.9814 1785.89 89.8206C1777.57 81.6598 1773.4 71.3174 1773.4 58.7934C1773.4 46.1886 1777.57 35.8058 1785.89 27.645C1794.29 19.4842 1804.55 15.4038 1816.67 15.4038C1828.87 15.4038 1839.14 19.4842 1847.46 27.645C1855.78 35.8058 1859.94 46.1886 1859.94 58.7934C1859.94 71.3174 1855.78 81.6598 1847.46 89.8206C1839.14 97.9814 1828.87 102.062 1816.67 102.062ZM1928.68 58.7934C1926.5 61.4598 1923.3 63.601 1919.1 65.217C1914.98 66.7522 1910.13 67.5198 1904.56 67.5198H1890.5V101.213H1873.41V16.6158H1904.56C1914.34 16.6158 1921.85 19.0802 1927.1 24.009C1932.44 28.857 1935.1 34.5938 1935.1 41.2194C1935.1 47.845 1932.96 53.703 1928.68 58.7934ZM1890.5 54.4302H1904.56C1908.84 54.4302 1912.11 53.3394 1914.38 51.1578C1916.64 48.8954 1917.77 45.8654 1917.77 42.0678C1917.77 38.2702 1916.64 35.2806 1914.38 33.099C1912.11 30.8366 1908.84 29.7054 1904.56 29.7054H1890.5V54.4302ZM1943.01 29.7054V16.6158H2005.67V29.7054H1982.76V101.213H1965.79V29.7054H1943.01ZM2018.76 101.213V16.6158H2035.85V101.213H2018.76ZM2109.42 16.3734H2126.5V101.213H2109.42L2071.12 42.5526V101.213H2054.03V16.3734H2071.12L2109.42 75.0342V16.3734ZM2152.45 89.6994C2144.12 81.5386 2139.96 71.1962 2139.96 58.6722C2139.96 46.1482 2144.12 35.8058 2152.45 27.645C2160.85 19.4842 2171.11 15.4038 2183.23 15.4038C2192.44 15.4038 2200.6 17.747 2207.71 22.4334C2214.91 27.1198 2220.04 33.705 2223.11 42.189H2202.62C2198.83 34.7554 2192.36 31.0386 2183.23 31.0386C2175.56 31.0386 2169.29 33.5838 2164.45 38.6742C2159.68 43.6838 2157.3 50.3902 2157.3 58.7934C2157.3 67.1158 2159.68 73.8222 2164.45 78.9126C2169.29 83.9222 2175.19 86.427 2182.14 86.427C2189.17 86.427 2194.67 84.7302 2198.62 81.3366C2202.66 77.8622 2205.17 73.2162 2206.14 67.3986H2178.02V54.4302H2224.44V67.3986C2222.99 76.6098 2218.46 84.6898 2210.87 91.6386C2203.27 98.5066 2193.7 101.941 2182.14 101.941C2170.67 101.941 2160.77 97.8602 2152.45 89.6994Z" fill="#FF4C00"/>
<path d="M1655.6 105.213L1650.15 89.3362H1617.18L1611.73 105.213H1593.67L1623.6 20.3734H1643.84L1673.66 105.213H1655.6ZM1621.66 76.2466H1645.78L1633.66 40.9774L1621.66 76.2466ZM1702.63 92.245H1714.27C1723.16 92.245 1730.07 89.619 1735 84.367C1739.92 79.115 1742.39 72.0046 1742.39 63.0358C1742.39 54.067 1739.92 46.9566 1735 41.7046C1730.07 36.4526 1723.16 33.8266 1714.27 33.8266H1702.63V92.245ZM1714.27 20.6158C1727.84 20.6158 1738.79 24.4942 1747.12 32.251C1755.52 40.0078 1759.72 50.2694 1759.72 63.0358C1759.72 75.8022 1755.52 86.0234 1747.12 93.6994C1738.79 101.375 1727.84 105.213 1714.27 105.213H1685.55V20.6158H1714.27ZM1830.34 82.9126C1835.11 77.8222 1837.49 71.0754 1837.49 62.6722C1837.49 54.269 1835.11 47.5626 1830.34 42.553C1825.57 37.5434 1819.35 35.0386 1811.67 35.0386C1804 35.0386 1797.74 37.5838 1792.89 42.6742C1788.12 47.6838 1785.74 54.3902 1785.74 62.7934C1785.74 71.1158 1788.12 77.8222 1792.89 82.9126C1797.74 87.9222 1804 90.427 1811.67 90.427C1819.35 90.427 1825.57 87.9222 1830.34 82.9126ZM1811.67 106.062C1799.47 106.062 1789.21 101.981 1780.89 93.8206C1772.57 85.6598 1768.4 75.3174 1768.4 62.7934C1768.4 50.1886 1772.57 39.8058 1780.89 31.645C1789.29 23.4842 1799.55 19.4038 1811.67 19.4038C1823.87 19.4038 1834.14 23.4842 1842.46 31.645C1850.78 39.8058 1854.94 50.1886 1854.94 62.7934C1854.94 75.3174 1850.78 85.6598 1842.46 93.8206C1834.14 101.981 1823.87 106.062 1811.67 106.062ZM1923.68 62.7934C1921.5 65.4598 1918.3 67.601 1914.1 69.217C1909.98 70.7522 1905.13 71.5198 1899.56 71.5198H1885.5V105.213H1868.41V20.6158H1899.56C1909.34 20.6158 1916.85 23.0802 1922.1 28.009C1927.44 32.857 1930.1 38.5938 1930.1 45.2194C1930.1 51.845 1927.96 57.703 1923.68 62.7934ZM1885.5 58.4302H1899.56C1903.84 58.4302 1907.11 57.3394 1909.38 55.1578C1911.64 52.8954 1912.77 49.8654 1912.77 46.0678C1912.77 42.2702 1911.64 39.2806 1909.38 37.099C1907.11 34.8366 1903.84 33.7054 1899.56 33.7054H1885.5V58.4302ZM1938.01 33.7054V20.6158H2000.67V33.7054H1977.76V105.213H1960.79V33.7054H1938.01ZM2013.76 105.213V20.6158H2030.85V105.213H2013.76ZM2104.42 20.3734H2121.5V105.213H2104.42L2066.12 46.5526V105.213H2049.03V20.3734H2066.12L2104.42 79.0342V20.3734ZM2147.45 93.6994C2139.12 85.5386 2134.96 75.1962 2134.96 62.6722C2134.96 50.1482 2139.12 39.8058 2147.45 31.645C2155.85 23.4842 2166.11 19.4038 2178.23 19.4038C2187.44 19.4038 2195.6 21.747 2202.71 26.4334C2209.91 31.1198 2215.04 37.705 2218.11 46.189H2197.62C2193.83 38.7554 2187.36 35.0386 2178.23 35.0386C2170.56 35.0386 2164.29 37.5838 2159.45 42.6742C2154.68 47.6838 2152.3 54.3902 2152.3 62.7934C2152.3 71.1158 2154.68 77.8222 2159.45 82.9126C2164.29 87.9222 2170.19 90.427 2177.14 90.427C2184.17 90.427 2189.67 88.7302 2193.62 85.3366C2197.66 81.8622 2200.17 77.2162 2201.14 71.3986H2173.02V58.4302H2219.44V71.3986C2217.99 80.6098 2213.46 88.6898 2205.87 95.6386C2198.27 102.507 2188.7 105.941 2177.14 105.941C2165.67 105.941 2155.77 101.86 2147.45 93.6994Z" fill="#5D6CF2"/>
<path d="M1658.6 103.213L1653.15 87.3362H1620.18L1614.73 103.213H1596.67L1626.6 18.3734H1646.84L1676.66 103.213H1658.6ZM1624.66 74.2466H1648.78L1636.66 38.9774L1624.66 74.2466ZM1705.63 90.245H1717.27C1726.16 90.245 1733.07 87.619 1738 82.367C1742.92 77.115 1745.39 70.0046 1745.39 61.0358C1745.39 52.067 1742.92 44.9566 1738 39.7046C1733.07 34.4526 1726.16 31.8266 1717.27 31.8266H1705.63V90.245ZM1717.27 18.6158C1730.84 18.6158 1741.79 22.4942 1750.12 30.251C1758.52 38.0078 1762.72 48.2694 1762.72 61.0358C1762.72 73.8022 1758.52 84.0234 1750.12 91.6994C1741.79 99.3754 1730.84 103.213 1717.27 103.213H1688.55V18.6158H1717.27ZM1833.34 80.9126C1838.11 75.8222 1840.49 69.0754 1840.49 60.6722C1840.49 52.269 1838.11 45.5626 1833.34 40.553C1828.57 35.5434 1822.35 33.0386 1814.67 33.0386C1807 33.0386 1800.74 35.5838 1795.89 40.6742C1791.12 45.6838 1788.74 52.3902 1788.74 60.7934C1788.74 69.1158 1791.12 75.8222 1795.89 80.9126C1800.74 85.9222 1807 88.427 1814.67 88.427C1822.35 88.427 1828.57 85.9222 1833.34 80.9126ZM1814.67 104.062C1802.47 104.062 1792.21 99.9814 1783.89 91.8206C1775.57 83.6598 1771.4 73.3174 1771.4 60.7934C1771.4 48.1886 1775.57 37.8058 1783.89 29.645C1792.29 21.4842 1802.55 17.4038 1814.67 17.4038C1826.87 17.4038 1837.14 21.4842 1845.46 29.645C1853.78 37.8058 1857.94 48.1886 1857.94 60.7934C1857.94 73.3174 1853.78 83.6598 1845.46 91.8206C1837.14 99.9814 1826.87 104.062 1814.67 104.062ZM1926.68 60.7934C1924.5 63.4598 1921.3 65.601 1917.1 67.217C1912.98 68.7522 1908.13 69.5198 1902.56 69.5198H1888.5V103.213H1871.41V18.6158H1902.56C1912.34 18.6158 1919.85 21.0802 1925.1 26.009C1930.44 30.857 1933.1 36.5938 1933.1 43.2194C1933.1 49.845 1930.96 55.703 1926.68 60.7934ZM1888.5 56.4302H1902.56C1906.84 56.4302 1910.11 55.3394 1912.38 53.1578C1914.64 50.8954 1915.77 47.8654 1915.77 44.0678C1915.77 40.2702 1914.64 37.2806 1912.38 35.099C1910.11 32.8366 1906.84 31.7054 1902.56 31.7054H1888.5V56.4302ZM1941.01 31.7054V18.6158H2003.67V31.7054H1980.76V103.213H1963.79V31.7054H1941.01ZM2016.76 103.213V18.6158H2033.85V103.213H2016.76ZM2107.42 18.3734H2124.5V103.213H2107.42L2069.12 44.5526V103.213H2052.03V18.3734H2069.12L2107.42 77.0342V18.3734ZM2150.45 91.6994C2142.12 83.5386 2137.96 73.1962 2137.96 60.6722C2137.96 48.1482 2142.12 37.8058 2150.45 29.645C2158.85 21.4842 2169.11 17.4038 2181.23 17.4038C2190.44 17.4038 2198.6 19.747 2205.71 24.4334C2212.91 29.1198 2218.04 35.705 2221.11 44.189H2200.62C2196.83 36.7554 2190.36 33.0386 2181.23 33.0386C2173.56 33.0386 2167.29 35.5838 2162.45 40.6742C2157.68 45.6838 2155.3 52.3902 2155.3 60.7934C2155.3 69.1158 2157.68 75.8222 2162.45 80.9126C2167.29 85.9222 2173.19 88.427 2180.14 88.427C2187.17 88.427 2192.67 86.7302 2196.62 83.3366C2200.66 79.8622 2203.17 75.2162 2204.14 69.3986H2176.02V56.4302H2222.44V69.3986C2220.99 78.6098 2216.46 86.6898 2208.87 93.6386C2201.27 100.507 2191.7 103.941 2180.14 103.941C2168.67 103.941 2158.77 99.8602 2150.45 91.6994Z" fill="#FAB44B"/>
<path d="M954.272 16.6158H988.571C997.217 16.6158 1004 18.7166 1008.93 22.9182C1013.94 27.1198 1016.45 32.4526 1016.45 38.9166C1016.45 48.3702 1010.95 54.713 999.964 57.945C1005.54 58.753 1009.98 61.177 1013.3 65.217C1016.69 69.1762 1018.39 73.7818 1018.39 79.0338C1018.39 85.6594 1015.88 91.0326 1010.87 95.1534C1005.86 99.1934 999.075 101.213 990.51 101.213H954.272V16.6158ZM971.361 29.7054V51.6426H986.753C990.551 51.6426 993.54 50.7134 995.722 48.855C997.984 46.9158 999.116 44.209 999.116 40.7346C999.116 37.2602 997.984 34.5534 995.722 32.6142C993.54 30.675 990.551 29.7054 986.753 29.7054H971.361ZM971.361 88.1238H988.571C992.369 88.1238 995.399 87.1138 997.661 85.0938C1000 82.993 1001.18 80.1246 1001.18 76.4886C1001.18 72.8526 1000 69.9842 997.661 67.8834C995.318 65.7826 992.248 64.7322 988.45 64.7322H971.361V88.1238ZM1033.1 101.213V16.6158H1050.19V101.213H1033.1ZM1063.4 29.7054V16.6158H1126.06V29.7054H1103.15V101.213H1086.19V29.7054H1063.4ZM1146.91 89.6994C1138.58 81.5386 1134.42 71.1962 1134.42 58.6722C1134.42 46.1482 1138.58 35.8058 1146.91 27.645C1155.31 19.4842 1165.57 15.4038 1177.69 15.4038C1186.9 15.4038 1195.06 17.747 1202.17 22.4334C1209.36 27.1198 1214.49 33.705 1217.57 42.189H1197.08C1193.28 34.7554 1186.82 31.0386 1177.69 31.0386C1170.01 31.0386 1163.75 33.5838 1158.9 38.6742C1154.14 43.6838 1151.75 50.3902 1151.75 58.7934C1151.75 67.1158 1154.14 73.8222 1158.9 78.9126C1163.75 83.9222 1170.01 86.427 1177.69 86.427C1186.74 86.427 1193.2 82.7102 1197.08 75.2766H1217.57C1214.49 83.7606 1209.36 90.3458 1202.17 95.0322C1195.06 99.6378 1186.9 101.941 1177.69 101.941C1165.49 101.941 1155.23 97.8602 1146.91 89.6994ZM1289.5 78.9126C1294.27 73.8222 1296.65 67.0754 1296.65 58.6722C1296.65 50.269 1294.27 43.5626 1289.5 38.553C1284.74 33.5434 1278.52 31.0386 1270.84 31.0386C1263.16 31.0386 1256.9 33.5838 1252.05 38.6742C1247.29 43.6838 1244.9 50.3902 1244.9 58.7934C1244.9 67.1158 1247.29 73.8222 1252.05 78.9126C1256.9 83.9222 1263.16 86.427 1270.84 86.427C1278.52 86.427 1284.74 83.9222 1289.5 78.9126ZM1270.84 102.062C1258.64 102.062 1248.38 97.9814 1240.05 89.8206C1231.73 81.6598 1227.57 71.3174 1227.57 58.7934C1227.57 46.1886 1231.73 35.8058 1240.05 27.645C1248.46 19.4842 1258.72 15.4038 1270.84 15.4038C1283.04 15.4038 1293.3 19.4842 1301.62 27.645C1309.95 35.8058 1314.11 46.1886 1314.11 58.7934C1314.11 71.3174 1309.95 81.6598 1301.62 89.8206C1293.3 97.9814 1283.04 102.062 1270.84 102.062ZM1327.58 101.213V16.6158H1344.67V101.213H1327.58ZM1418.24 16.3734H1435.33V101.213H1418.24L1379.94 42.5526V101.213H1362.85V16.3734H1379.94L1418.24 75.0342V16.3734Z" fill="#FF4C00"/>
<path d="M950.272 21.6158H984.571C993.217 21.6158 1000 23.7166 1004.93 27.9182C1009.94 32.1198 1012.45 37.4526 1012.45 43.9166C1012.45 53.3702 1006.95 59.713 995.964 62.945C1001.54 63.753 1005.98 66.177 1009.3 70.217C1012.69 74.1762 1014.39 78.7818 1014.39 84.0338C1014.39 90.6594 1011.88 96.0326 1006.87 100.153C1001.86 104.193 995.075 106.213 986.51 106.213H950.272V21.6158ZM967.361 34.7054V56.6426H982.753C986.551 56.6426 989.54 55.7134 991.722 53.855C993.984 51.9158 995.116 49.209 995.116 45.7346C995.116 42.2602 993.984 39.5534 991.722 37.6142C989.54 35.675 986.551 34.7054 982.753 34.7054H967.361ZM967.361 93.1238H984.571C988.369 93.1238 991.399 92.1138 993.661 90.0938C996.004 87.993 997.176 85.1246 997.176 81.4886C997.176 77.8526 996.004 74.9842 993.661 72.8834C991.318 70.7826 988.248 69.7322 984.45 69.7322H967.361V93.1238ZM1029.1 106.213V21.6158H1046.19V106.213H1029.1ZM1059.4 34.7054V21.6158H1122.06V34.7054H1099.15V106.213H1082.19V34.7054H1059.4ZM1142.91 94.6994C1134.58 86.5386 1130.42 76.1962 1130.42 63.6722C1130.42 51.1482 1134.58 40.8058 1142.91 32.645C1151.31 24.4842 1161.57 20.4038 1173.69 20.4038C1182.9 20.4038 1191.06 22.747 1198.17 27.4334C1205.36 32.1198 1210.49 38.705 1213.57 47.189H1193.08C1189.28 39.7554 1182.82 36.0386 1173.69 36.0386C1166.01 36.0386 1159.75 38.5838 1154.9 43.6742C1150.14 48.6838 1147.75 55.3902 1147.75 63.7934C1147.75 72.1158 1150.14 78.8222 1154.9 83.9126C1159.75 88.9222 1166.01 91.427 1173.69 91.427C1182.74 91.427 1189.2 87.7102 1193.08 80.2766H1213.57C1210.49 88.7606 1205.36 95.3458 1198.17 100.032C1191.06 104.638 1182.9 106.941 1173.69 106.941C1161.49 106.941 1151.23 102.86 1142.91 94.6994ZM1285.5 83.9126C1290.27 78.8222 1292.65 72.0754 1292.65 63.6722C1292.65 55.269 1290.27 48.5626 1285.5 43.553C1280.74 38.5434 1274.52 36.0386 1266.84 36.0386C1259.16 36.0386 1252.9 38.5838 1248.05 43.6742C1243.29 48.6838 1240.9 55.3902 1240.9 63.7934C1240.9 72.1158 1243.29 78.8222 1248.05 83.9126C1252.9 88.9222 1259.16 91.427 1266.84 91.427C1274.52 91.427 1280.74 88.9222 1285.5 83.9126ZM1266.84 107.062C1254.64 107.062 1244.38 102.981 1236.05 94.8206C1227.73 86.6598 1223.57 76.3174 1223.57 63.7934C1223.57 51.1886 1227.73 40.8058 1236.05 32.645C1244.46 24.4842 1254.72 20.4038 1266.84 20.4038C1279.04 20.4038 1289.3 24.4842 1297.62 32.645C1305.95 40.8058 1310.11 51.1886 1310.11 63.7934C1310.11 76.3174 1305.95 86.6598 1297.62 94.8206C1289.3 102.981 1279.04 107.062 1266.84 107.062ZM1323.58 106.213V21.6158H1340.67V106.213H1323.58ZM1414.24 21.3734H1431.33V106.213H1414.24L1375.94 47.5526V106.213H1358.85V21.3734H1375.94L1414.24 80.0342V21.3734Z" fill="#5D6CF2"/>
<path d="M999.54 65.8238C1004.31 66.7126 1008.23 69.0962 1011.3 72.9746C1014.37 76.853 1015.9 81.297 1015.9 86.3066C1015.9 90.8314 1014.77 94.831 1012.51 98.3054C1010.33 101.699 1007.13 104.365 1002.93 106.305C998.732 108.244 993.762 109.213 988.026 109.213H951.544V24.6158H986.45C992.187 24.6158 997.116 25.545 1001.24 27.4034C1005.44 29.2618 1008.59 31.8474 1010.69 35.1602C1012.87 38.473 1013.96 42.2302 1013.96 46.4318C1013.96 51.3606 1012.63 55.4814 1009.96 58.7942C1007.38 62.107 1003.9 64.4502 999.54 65.8238ZM968.512 59.5214H984.026C988.066 59.5214 991.177 58.6326 993.358 56.855C995.54 54.9966 996.631 52.3706 996.631 48.977C996.631 45.5834 995.54 42.9574 993.358 41.099C991.177 39.2406 988.066 38.3114 984.026 38.3114H968.512V59.5214ZM985.602 95.3966C989.722 95.3966 992.914 94.427 995.176 92.4878C997.52 90.5486 998.691 87.8014 998.691 84.2462C998.691 80.6102 997.479 77.7822 995.055 75.7622C992.631 73.6614 989.359 72.611 985.238 72.611H968.512V95.3966H985.602ZM1046.39 24.6158V109.213H1029.42V24.6158H1046.39ZM1120.73 24.6158V38.3114H1098.18V109.213H1081.22V38.3114H1058.67V24.6158H1120.73ZM1128.99 66.7934C1128.99 58.471 1130.85 51.0374 1134.56 44.4926C1138.36 37.867 1143.49 32.7362 1149.95 29.1002C1156.5 25.3834 1163.81 23.525 1171.89 23.525C1181.35 23.525 1189.63 25.949 1196.74 30.797C1203.85 35.645 1208.82 42.3514 1211.65 50.9162H1192.13C1190.19 46.8762 1187.45 43.8462 1183.89 41.8262C1180.42 39.8062 1176.38 38.7962 1171.77 38.7962C1166.84 38.7962 1162.44 39.9678 1158.56 42.311C1154.76 44.5734 1151.77 47.8054 1149.59 52.007C1147.49 56.2086 1146.44 61.1374 1146.44 66.7934C1146.44 72.3686 1147.49 77.2974 1149.59 81.5798C1151.77 85.7814 1154.76 89.0538 1158.56 91.397C1162.44 93.6594 1166.84 94.7906 1171.77 94.7906C1176.38 94.7906 1180.42 93.7806 1183.89 91.7606C1187.45 89.6598 1190.19 86.5894 1192.13 82.5494H1211.65C1208.82 91.195 1203.85 97.9418 1196.74 102.79C1189.71 107.557 1181.43 109.941 1171.89 109.941C1163.81 109.941 1156.5 108.123 1149.95 104.487C1143.49 100.77 1138.36 95.639 1134.56 89.0942C1130.85 82.5494 1128.99 75.1158 1128.99 66.7934ZM1265.41 110.062C1257.49 110.062 1250.22 108.203 1243.59 104.487C1236.97 100.77 1231.71 95.639 1227.83 89.0942C1223.96 82.4686 1222.02 74.9946 1222.02 66.6722C1222.02 58.4306 1223.96 51.0374 1227.83 44.4926C1231.71 37.867 1236.97 32.6958 1243.59 28.979C1250.22 25.2622 1257.49 23.4038 1265.41 23.4038C1273.41 23.4038 1280.68 25.2622 1287.22 28.979C1293.85 32.6958 1299.06 37.867 1302.86 44.4926C1306.74 51.0374 1308.68 58.4306 1308.68 66.6722C1308.68 74.9946 1306.74 82.4686 1302.86 89.0942C1299.06 95.639 1293.85 100.77 1287.22 104.487C1280.6 108.203 1273.33 110.062 1265.41 110.062ZM1265.41 94.9118C1270.5 94.9118 1274.98 93.7806 1278.86 91.5182C1282.74 89.175 1285.77 85.8622 1287.95 81.5798C1290.13 77.2974 1291.22 72.3282 1291.22 66.6722C1291.22 61.0162 1290.13 56.0874 1287.95 51.8858C1285.77 47.6034 1282.74 44.331 1278.86 42.0686C1274.98 39.8062 1270.5 38.675 1265.41 38.675C1260.32 38.675 1255.79 39.8062 1251.83 42.0686C1247.95 44.331 1244.92 47.6034 1242.74 51.8858C1240.56 56.0874 1239.47 61.0162 1239.47 66.6722C1239.47 72.3282 1240.56 77.2974 1242.74 81.5798C1244.92 85.8622 1247.95 89.175 1251.83 91.5182C1255.79 93.7806 1260.32 94.9118 1265.41 94.9118ZM1338.27 24.6158V109.213H1321.3V24.6158H1338.27ZM1427.39 109.213H1410.42L1372 51.1586V109.213H1355.03V24.4946H1372L1410.42 82.6706V24.4946H1427.39V109.213Z" fill="#FAB44B"/>
<path d="M823.724 66.5461C823.29 67.204 822.966 67.7965 823.003 68.0644C823.008 68.0965 823.02 68.1248 823.035 68.152L823.036 68.1545C823.052 68.1878 823.071 68.2149 823.104 68.2409C823.153 68.2865 823.223 68.3236 823.306 68.3544C823.478 68.4063 824.717 68.3618 825.084 68.3322C826.072 68.2495 827.058 68.1792 828.056 68.1224C828.339 68.1063 828.62 68.0965 828.912 68.0816C830.2 68.0175 831.482 67.9668 832.751 67.9372C833.765 67.9113 834.767 67.8953 835.755 67.8854C836.027 67.8829 836.293 67.8817 836.561 67.8804C837.474 67.8755 838.38 67.873 839.242 67.8817C838.947 75.4284 838.588 83.4294 838.282 91.0477C838.239 92.2241 838.187 93.3905 838.146 94.5434C838.051 96.9997 838.051 96.9997 838.051 96.9997C838.046 97.1738 838.038 97.3577 838.032 97.5404C838.004 98.6463 838.004 99.8658 838.241 100.197C838.248 100.213 838.259 100.226 838.27 100.239C838.312 100.279 838.36 100.298 838.412 100.297C838.415 100.297 838.42 100.294 838.424 100.294C838.471 100.292 838.523 100.274 838.577 100.244C838.596 100.234 838.614 100.218 838.633 100.204C838.675 100.176 838.718 100.144 838.762 100.103C838.786 100.082 838.809 100.056 838.834 100.032C838.877 99.9893 838.92 99.9436 838.965 99.8918C838.99 99.8609 839.018 99.8288 839.045 99.7955C839.088 99.7424 839.131 99.6869 839.174 99.6289C839.203 99.5906 839.232 99.5511 839.262 99.5116C839.305 99.4523 839.348 99.3894 839.392 99.3277C839.421 99.2845 839.451 99.2425 839.48 99.1993C839.525 99.1339 839.568 99.0672 839.611 98.9993C839.64 98.9561 839.669 98.9129 839.696 98.8697C839.764 98.766 839.831 98.6624 839.895 98.5611C839.895 98.5611 839.895 98.5611 840.987 96.8886C847.861 86.3696 856.811 73.5448 864.757 62.4753C867.117 59.1821 867.523 58.6266 867.523 58.6266C867.571 58.5686 867.617 58.5044 867.663 58.4452C868.688 57.0615 869.984 55.5716 870.506 54.5298C870.655 54.2262 870.754 53.9534 870.738 53.7374C870.73 53.6349 870.677 53.5559 870.593 53.4918C870.565 53.4683 870.514 53.4584 870.477 53.4399C870.408 53.4054 870.345 53.3683 870.255 53.3461C870.195 53.3301 870.121 53.3251 870.053 53.314C869.969 53.3004 869.889 53.2844 869.796 53.277C869.712 53.2708 869.623 53.2708 869.536 53.2683C869.445 53.2659 869.355 53.2597 869.264 53.2597C868.943 53.2634 868.637 53.2795 868.431 53.2869C868.431 53.2869 868.431 53.2869 866.871 53.3547C862.337 53.5498 857.691 53.7979 853.27 54.1003C853.603 46.3166 854.025 37.3886 854.376 29.6888C854.466 27.5509 854.466 27.5509 854.466 27.5509C854.469 27.4917 854.471 27.4225 854.473 27.3596C854.512 26.5425 854.544 25.4427 854.291 25.1217C854.248 25.0736 854.202 25.0366 854.146 25.0304C854.113 25.0255 854.072 25.0366 854.034 25.0452C854.007 25.0501 853.98 25.0526 853.95 25.065C853.917 25.0785 853.879 25.0995 853.843 25.1205C853.812 25.1378 853.781 25.1526 853.748 25.1748C853.71 25.2007 853.669 25.2353 853.627 25.2674C853.592 25.2958 853.556 25.3205 853.519 25.3538C853.478 25.3908 853.433 25.4365 853.389 25.4797C853.35 25.5167 853.312 25.5513 853.274 25.592C853.225 25.6426 853.174 25.6994 853.123 25.7537C853.086 25.7957 853.048 25.8327 853.01 25.8771C852.954 25.9413 852.896 26.0105 852.838 26.0796C852.804 26.1215 852.768 26.161 852.733 26.2042C852.657 26.2956 852.582 26.3919 852.505 26.4881C852.485 26.5116 852.468 26.5338 852.45 26.5573C852.352 26.6807 852.255 26.8066 852.157 26.935C851.897 27.2757 851.631 27.6299 851.38 27.9607C851.38 27.9607 851.38 27.9607 849.549 30.4454C849.37 30.6948 849.173 30.9614 848.979 31.2181C843.847 38.2144 834.182 51.7933 834.182 51.7933C833.717 52.4413 833.278 53.0573 832.852 53.6423C832.514 54.12 832.181 54.5965 831.84 55.0742C831.542 55.4963 827.504 61.1879 826.627 62.4296C825.111 64.5798 825.111 64.5798 825.111 64.5798C824.726 65.1229 824.168 65.8709 823.724 66.5461Z" fill="#FAB44B"/>
<path d="M0.723569 66.5461C0.290402 67.204 -0.0341447 67.7965 0.00287809 68.0644C0.00781446 68.0965 0.0201566 68.1248 0.0349657 68.152L0.0361709 68.1545C0.0522141 68.1878 0.0707164 68.2149 0.104037 68.2409C0.153401 68.2865 0.222512 68.3236 0.30643 68.3544C0.477969 68.4063 1.717 68.3618 2.08353 68.3322C3.07203 68.2495 4.05807 68.1792 5.05645 68.1224C5.33906 68.1063 5.62042 68.0965 5.91167 68.0816C7.20006 68.0175 8.48231 67.9668 9.75096 67.9372C10.7654 67.9113 11.7675 67.8953 12.7548 67.8854C13.0275 67.8829 13.2928 67.8817 13.5606 67.8804C14.4738 67.8755 15.3797 67.873 16.2423 67.8817C15.9473 75.4284 15.5882 83.4294 15.2822 91.0477C15.239 92.2241 15.1871 93.3905 15.1464 94.5434C15.0514 96.9997 15.0514 96.9997 15.0514 96.9997C15.0464 97.1738 15.0378 97.3577 15.0316 97.5404C15.0045 98.6463 15.0045 99.8658 15.2414 100.197C15.2476 100.213 15.2587 100.226 15.2698 100.239C15.3118 100.279 15.3599 100.298 15.4117 100.297C15.4154 100.297 15.4204 100.294 15.4241 100.294C15.471 100.292 15.5228 100.274 15.5771 100.244C15.5956 100.234 15.6141 100.218 15.6326 100.204C15.6746 100.176 15.7178 100.144 15.7622 100.103C15.7856 100.082 15.8091 100.056 15.8338 100.032C15.877 99.9893 15.9202 99.9436 15.9646 99.8918C15.9905 99.8609 16.0176 99.8288 16.0448 99.7955C16.088 99.7424 16.1312 99.6869 16.1744 99.6289C16.2028 99.5906 16.2324 99.5511 16.262 99.5116C16.3052 99.4523 16.3484 99.3894 16.3916 99.3277C16.4212 99.2845 16.4508 99.2425 16.4805 99.1993C16.5249 99.1339 16.5681 99.0672 16.6113 98.9993C16.6397 98.9561 16.6693 98.9129 16.6964 98.8697C16.7643 98.766 16.8309 98.6624 16.8951 98.5611C16.8951 98.5611 16.8951 98.5611 17.9873 96.8886C24.8612 86.3696 33.8108 73.5448 41.7571 62.4753C44.1167 59.1821 44.5227 58.6266 44.5227 58.6266C44.5708 58.5686 44.6165 58.5044 44.6634 58.4452C45.6877 57.0615 46.9835 55.5716 47.5056 54.5298C47.6549 54.2262 47.7536 53.9534 47.7376 53.7374C47.7302 53.6349 47.6771 53.5559 47.5932 53.4918C47.5648 53.4683 47.5142 53.4584 47.4772 53.4399C47.4081 53.4054 47.3451 53.3683 47.255 53.3461C47.1946 53.3301 47.1205 53.3251 47.0527 53.314C46.9687 53.3004 46.8885 53.2844 46.796 53.277C46.712 53.2708 46.6232 53.2708 46.5356 53.2683C46.4455 53.2659 46.3553 53.2597 46.264 53.2597C45.9432 53.2634 45.6371 53.2795 45.431 53.2869C45.431 53.2869 45.431 53.2869 43.8712 53.3547C39.3371 53.5498 34.6908 53.7979 30.2702 54.1003C30.6034 46.3166 31.0255 37.3886 31.376 29.6888C31.4661 27.5509 31.4661 27.5509 31.4661 27.5509C31.4685 27.4917 31.471 27.4225 31.4734 27.3596C31.5117 26.5425 31.5438 25.4427 31.2908 25.1217C31.2476 25.0736 31.2019 25.0366 31.1464 25.0304C31.1131 25.0255 31.0723 25.0366 31.0341 25.0452C31.0069 25.0501 30.9798 25.0526 30.9502 25.065C30.9169 25.0785 30.8786 25.0995 30.8428 25.1205C30.812 25.1378 30.7811 25.1526 30.7478 25.1748C30.7095 25.2007 30.6688 25.2353 30.6269 25.2674C30.5923 25.2958 30.5565 25.3205 30.5195 25.3538C30.4775 25.3908 30.4331 25.4365 30.3887 25.4797C30.3505 25.5167 30.3122 25.5513 30.2739 25.592C30.2246 25.6426 30.174 25.6994 30.1234 25.7537C30.0863 25.7957 30.0481 25.8327 30.0098 25.8771C29.9543 25.9413 29.8963 26.0105 29.8383 26.0796C29.8037 26.1215 29.768 26.161 29.7334 26.2042C29.6569 26.2956 29.5816 26.3919 29.5051 26.4881C29.4854 26.5116 29.468 26.5338 29.4495 26.5573C29.352 26.6807 29.2545 26.8066 29.157 26.935C28.8966 27.2757 28.6313 27.6299 28.3795 27.9607C28.3795 27.9607 28.3796 27.9607 26.5494 30.4454C26.3705 30.6948 26.173 30.9614 25.9792 31.2181C20.8466 38.2144 11.1825 51.7933 11.1825 51.7933C10.7172 52.4413 10.2779 53.0573 9.85212 53.6423C9.51398 54.12 9.18084 54.5965 8.84023 55.0742C8.54158 55.4963 4.50355 61.1879 3.62735 62.4296C2.11065 64.5798 2.11072 64.5798 2.11072 64.5798C1.72568 65.1229 1.16784 65.8709 0.723569 66.5461Z" fill="#FAB44B"/>
<path d="M1503.72 66.5461C1503.29 67.204 1502.97 67.7965 1503 68.0644C1503.01 68.0965 1503.02 68.1248 1503.03 68.152L1503.04 68.1545C1503.05 68.1878 1503.07 68.2149 1503.1 68.2409C1503.15 68.2865 1503.22 68.3236 1503.31 68.3544C1503.48 68.4063 1504.72 68.3618 1505.08 68.3322C1506.07 68.2495 1507.06 68.1791 1508.06 68.1224C1508.34 68.1063 1508.62 68.0965 1508.91 68.0816C1510.2 68.0175 1511.48 67.9668 1512.75 67.9372C1513.77 67.9113 1514.77 67.8953 1515.75 67.8854C1516.03 67.8829 1516.29 67.8817 1516.56 67.8804C1517.47 67.8755 1518.38 67.873 1519.24 67.8817C1518.95 75.4284 1518.59 83.4294 1518.28 91.0477C1518.24 92.2241 1518.19 93.3905 1518.15 94.5434C1518.05 96.9997 1518.05 96.9997 1518.05 96.9997C1518.05 97.1738 1518.04 97.3577 1518.03 97.5404C1518 98.6463 1518 99.8658 1518.24 100.197C1518.25 100.213 1518.26 100.226 1518.27 100.239C1518.31 100.279 1518.36 100.298 1518.41 100.297C1518.42 100.297 1518.42 100.294 1518.42 100.294C1518.47 100.292 1518.52 100.274 1518.58 100.244C1518.6 100.234 1518.61 100.218 1518.63 100.204C1518.67 100.176 1518.72 100.144 1518.76 100.103C1518.79 100.082 1518.81 100.056 1518.83 100.032C1518.88 99.9893 1518.92 99.9436 1518.96 99.8918C1518.99 99.8609 1519.02 99.8288 1519.04 99.7955C1519.09 99.7424 1519.13 99.6869 1519.17 99.6289C1519.2 99.5906 1519.23 99.5511 1519.26 99.5116C1519.31 99.4523 1519.35 99.3894 1519.39 99.3277C1519.42 99.2845 1519.45 99.2425 1519.48 99.1993C1519.52 99.1339 1519.57 99.0672 1519.61 98.9993C1519.64 98.9561 1519.67 98.9129 1519.7 98.8697C1519.76 98.7661 1519.83 98.6624 1519.9 98.5611C1519.9 98.5611 1519.9 98.5612 1520.99 96.8886C1527.86 86.3696 1536.81 73.5448 1544.76 62.4753C1547.12 59.1821 1547.52 58.6266 1547.52 58.6266C1547.57 58.5686 1547.62 58.5044 1547.66 58.4452C1548.69 57.0615 1549.98 55.5716 1550.51 54.5298C1550.65 54.2262 1550.75 53.9534 1550.74 53.7374C1550.73 53.6349 1550.68 53.5559 1550.59 53.4918C1550.56 53.4683 1550.51 53.4584 1550.48 53.4399C1550.41 53.4054 1550.35 53.3683 1550.26 53.3461C1550.19 53.3301 1550.12 53.3251 1550.05 53.314C1549.97 53.3004 1549.89 53.2844 1549.8 53.277C1549.71 53.2708 1549.62 53.2708 1549.54 53.2683C1549.45 53.2659 1549.36 53.2597 1549.26 53.2597C1548.94 53.2634 1548.64 53.2795 1548.43 53.2869C1548.43 53.2869 1548.43 53.2869 1546.87 53.3547C1542.34 53.5498 1537.69 53.7979 1533.27 54.1003C1533.6 46.3166 1534.03 37.3886 1534.38 29.6888C1534.47 27.5509 1534.47 27.5509 1534.47 27.5509C1534.47 27.4917 1534.47 27.4225 1534.47 27.3596C1534.51 26.5425 1534.54 25.4427 1534.29 25.1217C1534.25 25.0736 1534.2 25.0366 1534.15 25.0304C1534.11 25.0255 1534.07 25.0366 1534.03 25.0452C1534.01 25.0501 1533.98 25.0526 1533.95 25.065C1533.92 25.0785 1533.88 25.0995 1533.84 25.1205C1533.81 25.1378 1533.78 25.1526 1533.75 25.1748C1533.71 25.2007 1533.67 25.2353 1533.63 25.2674C1533.59 25.2958 1533.56 25.3205 1533.52 25.3538C1533.48 25.3908 1533.43 25.4365 1533.39 25.4797C1533.35 25.5167 1533.31 25.5513 1533.27 25.592C1533.22 25.6426 1533.17 25.6994 1533.12 25.7537C1533.09 25.7957 1533.05 25.8327 1533.01 25.8771C1532.95 25.9413 1532.9 26.0105 1532.84 26.0796C1532.8 26.1215 1532.77 26.161 1532.73 26.2042C1532.66 26.2956 1532.58 26.3919 1532.51 26.4881C1532.49 26.5116 1532.47 26.5338 1532.45 26.5573C1532.35 26.6807 1532.25 26.8066 1532.16 26.935C1531.9 27.2757 1531.63 27.6299 1531.38 27.9607C1531.38 27.9607 1531.38 27.9607 1529.55 30.4454C1529.37 30.6948 1529.17 30.9614 1528.98 31.2181C1523.85 38.2144 1514.18 51.7933 1514.18 51.7933C1513.72 52.4413 1513.28 53.0573 1512.85 53.6423C1512.51 54.12 1512.18 54.5965 1511.84 55.0742C1511.54 55.4963 1507.5 61.1879 1506.63 62.4296C1505.11 64.5798 1505.11 64.5798 1505.11 64.5798C1504.73 65.1229 1504.17 65.8709 1503.72 66.5461Z" fill="#FAB44B"/>
</svg>
