<svg width="1232" height="113" viewBox="0 0 1232 113" fill="none" xmlns="http://www.w3.org/2000/svg">
<path d="M31.4121 92.9598C26.5454 92.9598 22.1454 92.1264 18.2121 90.4598C14.3454 88.7931 11.2788 86.3931 9.01211 83.2598C6.74544 80.1264 5.57878 76.4264 5.51211 72.1598H20.5121C20.7121 75.0264 21.7121 77.2931 23.5121 78.9598C25.3788 80.6264 27.9121 81.4598 31.1121 81.4598C34.3788 81.4598 36.9454 80.6931 38.8121 79.1598C40.6788 77.5598 41.6121 75.4931 41.6121 72.9598C41.6121 70.8931 40.9788 69.1931 39.7121 67.8598C38.4454 66.5264 36.8454 65.4931 34.9121 64.7598C33.0454 63.9598 30.4454 63.0931 27.1121 62.1598C22.5788 60.8264 18.8788 59.5264 16.0121 58.2598C13.2121 56.9264 10.7788 54.9598 8.71211 52.3598C6.71211 49.6931 5.71211 46.1598 5.71211 41.7598C5.71211 37.6264 6.74544 34.0264 8.81211 30.9598C10.8788 27.8931 13.7788 25.5598 17.5121 23.9598C21.2454 22.2931 25.5121 21.4598 30.3121 21.4598C37.5121 21.4598 43.3454 23.2264 47.8121 26.7598C52.3454 30.2264 54.8454 35.0931 55.3121 41.3598H39.9121C39.7788 38.9598 38.7454 36.9931 36.8121 35.4598C34.9454 33.8598 32.4454 33.0598 29.3121 33.0598C26.5788 33.0598 24.3788 33.7598 22.7121 35.1598C21.1121 36.5598 20.3121 38.5931 20.3121 41.2598C20.3121 43.1264 20.9121 44.6931 22.1121 45.9598C23.3788 47.1598 24.9121 48.1598 26.7121 48.9598C28.5788 49.6931 31.1788 50.5598 34.5121 51.5598C39.0454 52.8931 42.7454 54.2264 45.6121 55.5598C48.4788 56.8931 50.9454 58.8931 53.0121 61.5598C55.0788 64.2264 56.1121 67.7264 56.1121 72.0598C56.1121 75.7931 55.1454 79.2598 53.2121 82.4598C51.2788 85.6598 48.4454 88.2264 44.7121 90.1598C40.9788 92.0264 36.5454 92.9598 31.4121 92.9598ZM119.15 44.0598C119.15 47.7931 118.25 51.2931 116.45 54.5598C114.716 57.8264 111.95 60.4598 108.15 62.4598C104.416 64.4598 99.6829 65.4598 93.9496 65.4598H82.2496V92.2598H68.2496V22.4598H93.9496C99.3496 22.4598 103.95 23.3931 107.75 25.2598C111.55 27.1264 114.383 29.6931 116.25 32.9598C118.183 36.2264 119.15 39.9264 119.15 44.0598ZM93.3496 54.1598C97.2163 54.1598 100.083 53.2931 101.95 51.5598C103.816 49.7598 104.75 47.2598 104.75 44.0598C104.75 37.2598 100.95 33.8598 93.3496 33.8598H82.2496V54.1598H93.3496ZM143.089 33.7598V51.2598H166.589V62.3598H143.089V80.8598H169.589V92.2598H129.089V22.3598H169.589V33.7598H143.089ZM225.112 78.9598H197.312L192.712 92.2598H178.012L203.112 22.3598H219.412L244.512 92.2598H229.712L225.112 78.9598ZM221.312 67.7598L211.212 38.5598L201.112 67.7598H221.312ZM293.294 92.2598L267.894 61.1598V92.2598H253.894V22.4598H267.894V53.7598L293.294 22.4598H310.194L281.394 57.0598L310.994 92.2598H293.294ZM334.203 33.7598V51.2598H357.703V62.3598H334.203V80.8598H360.703V92.2598H320.203V22.3598H360.703V33.7598H334.203ZM409.425 92.2598L394.025 65.0598H387.425V92.2598H373.425V22.4598L399.625 22.4598C405.025 22.4598 409.625 23.4264 413.425 25.3598C417.225 27.2264 420.059 29.7931 421.925 33.0598C423.859 36.2598 424.825 39.8598 424.825 43.8598C424.825 48.4598 423.492 52.6264 420.825 56.3598C418.159 60.0264 414.192 62.5598 408.925 63.9598L425.625 92.2598H409.425ZM387.425 54.5598H399.125C402.925 54.5598 405.759 53.6598 407.625 51.8598C409.492 49.9931 410.425 47.4264 410.425 44.1598C410.425 40.9598 409.492 38.4931 407.625 36.7598C405.759 34.9598 402.925 34.0598 399.125 34.0598H387.425V54.5598Z" fill="#3F69FF"/>
<path d="M35.4121 90.9598C30.5454 90.9598 26.1454 90.1264 22.2121 88.4598C18.3454 86.7931 15.2788 84.3931 13.0121 81.2598C10.7454 78.1264 9.57878 74.4264 9.51211 70.1598H24.5121C24.7121 73.0264 25.7121 75.2931 27.5121 76.9598C29.3788 78.6264 31.9121 79.4598 35.1121 79.4598C38.3788 79.4598 40.9454 78.6931 42.8121 77.1598C44.6788 75.5598 45.6121 73.4931 45.6121 70.9598C45.6121 68.8931 44.9788 67.1931 43.7121 65.8598C42.4454 64.5264 40.8454 63.4931 38.9121 62.7598C37.0454 61.9598 34.4454 61.0931 31.1121 60.1598C26.5788 58.8264 22.8788 57.5264 20.0121 56.2598C17.2121 54.9264 14.7788 52.9598 12.7121 50.3598C10.7121 47.6931 9.71211 44.1598 9.71211 39.7598C9.71211 35.6264 10.7454 32.0264 12.8121 28.9598C14.8788 25.8931 17.7788 23.5598 21.5121 21.9598C25.2454 20.2931 29.5121 19.4598 34.3121 19.4598C41.5121 19.4598 47.3454 21.2264 51.8121 24.7598C56.3454 28.2264 58.8454 33.0931 59.3121 39.3598H43.9121C43.7788 36.9598 42.7454 34.9931 40.8121 33.4598C38.9454 31.8598 36.4454 31.0598 33.3121 31.0598C30.5788 31.0598 28.3788 31.7598 26.7121 33.1598C25.1121 34.5598 24.3121 36.5931 24.3121 39.2598C24.3121 41.1264 24.9121 42.6931 26.1121 43.9598C27.3788 45.1598 28.9121 46.1598 30.7121 46.9598C32.5788 47.6931 35.1788 48.5598 38.5121 49.5598C43.0454 50.8931 46.7454 52.2264 49.6121 53.5598C52.4788 54.8931 54.9454 56.8931 57.0121 59.5598C59.0788 62.2264 60.1121 65.7264 60.1121 70.0598C60.1121 73.7931 59.1454 77.2598 57.2121 80.4598C55.2788 83.6598 52.4454 86.2264 48.7121 88.1598C44.9788 90.0264 40.5454 90.9598 35.4121 90.9598ZM123.15 42.0598C123.15 45.7931 122.25 49.2931 120.45 52.5598C118.716 55.8264 115.95 58.4598 112.15 60.4598C108.416 62.4598 103.683 63.4598 97.9496 63.4598H86.2496V90.2598H72.2496V20.4598H97.9496C103.35 20.4598 107.95 21.3931 111.75 23.2598C115.55 25.1264 118.383 27.6931 120.25 30.9598C122.183 34.2264 123.15 37.9264 123.15 42.0598ZM97.3496 52.1598C101.216 52.1598 104.083 51.2931 105.95 49.5598C107.816 47.7598 108.75 45.2598 108.75 42.0598C108.75 35.2598 104.95 31.8598 97.3496 31.8598H86.2496V52.1598H97.3496ZM147.089 31.7598V49.2598H170.589V60.3598H147.089V78.8598H173.589V90.2598H133.089V20.3598H173.589V31.7598H147.089ZM229.112 76.9598H201.312L196.712 90.2598H182.012L207.112 20.3598H223.412L248.512 90.2598H233.712L229.112 76.9598ZM225.312 65.7598L215.212 36.5598L205.112 65.7598H225.312ZM297.294 90.2598L271.894 59.1598V90.2598H257.894V20.4598H271.894V51.7598L297.294 20.4598H314.194L285.394 55.0598L314.994 90.2598H297.294ZM338.203 31.7598V49.2598H361.703V60.3598H338.203V78.8598H364.703V90.2598H324.203V20.3598H364.703V31.7598H338.203ZM413.425 90.2598L398.025 63.0598H391.425V90.2598H377.425V20.4598L403.625 20.4598C409.025 20.4598 413.625 21.4264 417.425 23.3598C421.225 25.2264 424.059 27.7931 425.925 31.0598C427.859 34.2598 428.825 37.8598 428.825 41.8598C428.825 46.4598 427.492 50.6264 424.825 54.3598C422.159 58.0264 418.192 60.5598 412.925 61.9598L429.625 90.2598H413.425ZM391.425 52.5598H403.125C406.925 52.5598 409.759 51.6598 411.625 49.8598C413.492 47.9931 414.425 45.4264 414.425 42.1598C414.425 38.9598 413.492 36.4931 411.625 34.7598C409.759 32.9598 406.925 32.0598 403.125 32.0598H391.425V52.5598Z" fill="#F34D4D"/>
<path d="M33.5742 91.9598C28.7076 91.9598 24.3076 91.1264 20.3742 89.4598C16.5076 87.7931 13.4409 85.3931 11.1742 82.2598C8.90755 79.1264 7.74089 75.4264 7.67422 71.1598H22.6742C22.8742 74.0264 23.8742 76.2931 25.6742 77.9598C27.5409 79.6264 30.0742 80.4598 33.2742 80.4598C36.5409 80.4598 39.1076 79.6931 40.9742 78.1598C42.8409 76.5598 43.7742 74.4931 43.7742 71.9598C43.7742 69.8931 43.1409 68.1931 41.8742 66.8598C40.6076 65.5264 39.0076 64.4931 37.0742 63.7598C35.2076 62.9598 32.6076 62.0931 29.2742 61.1598C24.7409 59.8264 21.0409 58.5264 18.1742 57.2598C15.3742 55.9264 12.9409 53.9598 10.8742 51.3598C8.87422 48.6931 7.87422 45.1598 7.87422 40.7598C7.87422 36.6264 8.90755 33.0264 10.9742 29.9598C13.0409 26.8931 15.9409 24.5598 19.6742 22.9598C23.4076 21.2931 27.6742 20.4598 32.4742 20.4598C39.6742 20.4598 45.5076 22.2264 49.9742 25.7598C54.5076 29.2264 57.0076 34.0931 57.4742 40.3598H42.0742C41.9409 37.9598 40.9076 35.9931 38.9742 34.4598C37.1076 32.8598 34.6076 32.0598 31.4742 32.0598C28.7409 32.0598 26.5409 32.7598 24.8742 34.1598C23.2742 35.5598 22.4742 37.5931 22.4742 40.2598C22.4742 42.1264 23.0742 43.6931 24.2742 44.9598C25.5409 46.1598 27.0742 47.1598 28.8742 47.9598C30.7409 48.6931 33.3409 49.5598 36.6742 50.5598C41.2076 51.8931 44.9076 53.2264 47.7742 54.5598C50.6409 55.8931 53.1076 57.8931 55.1742 60.5598C57.2409 63.2264 58.2742 66.7264 58.2742 71.0598C58.2742 74.7931 57.3076 78.2598 55.3742 81.4598C53.4409 84.6598 50.6076 87.2264 46.8742 89.1598C43.1409 91.0264 38.7076 91.9598 33.5742 91.9598ZM121.312 43.0598C121.312 46.7931 120.412 50.2931 118.612 53.5598C116.878 56.8264 114.112 59.4598 110.312 61.4598C106.578 63.4598 101.845 64.4598 96.1117 64.4598H84.4117V91.2598H70.4117V21.4598H96.1117C101.512 21.4598 106.112 22.3931 109.912 24.2598C113.712 26.1264 116.545 28.6931 118.412 31.9598C120.345 35.2264 121.312 38.9264 121.312 43.0598ZM95.5117 53.1598C99.3784 53.1598 102.245 52.2931 104.112 50.5598C105.978 48.7598 106.912 46.2598 106.912 43.0598C106.912 36.2598 103.112 32.8598 95.5117 32.8598H84.4117V53.1598H95.5117ZM145.252 32.7598V50.2598H168.752V61.3598H145.252V79.8598H171.752V91.2598H131.252V21.3598H171.752V32.7598H145.252ZM227.274 77.9598H199.474L194.874 91.2598H180.174L205.274 21.3598H221.574L246.674 91.2598H231.874L227.274 77.9598ZM223.474 66.7598L213.374 37.5598L203.274 66.7598H223.474ZM295.456 91.2598L270.056 60.1598V91.2598H256.056V21.4598H270.056V52.7598L295.456 21.4598H312.356L283.556 56.0598L313.156 91.2598H295.456ZM336.365 32.7598V50.2598H359.865V61.3598H336.365V79.8598H362.865V91.2598H322.365V21.3598H362.865V32.7598H336.365ZM411.588 91.2598L396.188 64.0598H389.588V91.2598H375.588V21.4598L401.788 21.4598C407.188 21.4598 411.788 22.4264 415.588 24.3598C419.388 26.2264 422.221 28.7931 424.088 32.0598C426.021 35.2598 426.988 38.8598 426.988 42.8598C426.988 47.4598 425.654 51.6264 422.988 55.3598C420.321 59.0264 416.354 61.5598 411.088 62.9598L427.788 91.2598H411.588ZM389.588 53.5598H401.288C405.088 53.5598 407.921 52.6598 409.788 50.8598C411.654 48.9931 412.588 46.4264 412.588 43.1598C412.588 39.9598 411.654 37.4931 409.788 35.7598C407.921 33.9598 405.088 33.0598 401.288 33.0598H389.588V53.5598Z" fill="#FFBD5A"/>
<path d="M510.47 58.7878C510.189 59.2161 509.978 59.6018 510.002 59.7762C510.005 59.797 510.013 59.8155 510.023 59.8332L510.023 59.8348C510.034 59.8565 510.046 59.8742 510.068 59.8911C510.1 59.9208 510.144 59.9449 510.199 59.965C510.31 59.9987 511.115 59.9698 511.353 59.9505C511.995 59.8967 512.635 59.8509 513.283 59.8139C513.467 59.8035 513.65 59.797 513.839 59.7874C514.675 59.7456 515.508 59.7127 516.332 59.6934C516.991 59.6765 517.641 59.6661 518.282 59.6596C518.46 59.658 518.632 59.6572 518.806 59.6564C519.399 59.6532 519.987 59.6516 520.547 59.6572C520.356 64.5702 520.122 69.779 519.924 74.7386C519.896 75.5044 519.862 76.2638 519.835 77.0143C519.774 78.6134 519.774 78.6134 519.774 78.6134C519.771 78.7267 519.765 78.8464 519.761 78.9654C519.743 79.6854 519.743 80.4793 519.897 80.6946C519.901 80.7051 519.908 80.7139 519.916 80.722C519.943 80.7485 519.974 80.7605 520.008 80.7597C520.01 80.7597 520.013 80.7581 520.016 80.7581C520.046 80.7565 520.08 80.7453 520.115 80.7252C520.127 80.7187 520.139 80.7083 520.151 80.6995C520.178 80.681 520.206 80.6601 520.235 80.6336C520.251 80.6199 520.266 80.603 520.282 80.5878C520.31 80.5596 520.338 80.5299 520.367 80.4962C520.384 80.4761 520.401 80.4552 520.419 80.4335C520.447 80.3989 520.475 80.3628 520.503 80.325C520.521 80.3001 520.541 80.2744 520.56 80.2487C520.588 80.2101 520.616 80.1691 520.644 80.1289C520.663 80.1008 520.683 80.0735 520.702 80.0454C520.731 80.0028 520.759 79.9594 520.787 79.9152C520.805 79.8871 520.824 79.8589 520.842 79.8308C520.886 79.7633 520.929 79.6958 520.971 79.6299C520.971 79.6299 520.971 79.6299 521.68 78.5411C526.144 71.6931 531.955 63.344 537.115 56.1376C538.648 53.9937 538.911 53.6321 538.911 53.6321C538.943 53.5943 538.972 53.5525 539.003 53.514C539.668 52.6131 540.509 51.6432 540.848 50.965C540.945 50.7674 541.009 50.5898 540.999 50.4491C540.994 50.3824 540.96 50.331 540.905 50.2892C540.887 50.274 540.854 50.2675 540.83 50.2555C540.785 50.233 540.744 50.2089 540.686 50.1944C540.646 50.184 540.598 50.1807 540.554 50.1735C540.5 50.1647 540.448 50.1542 540.387 50.1494C540.333 50.1454 540.275 50.1454 540.218 50.1438C540.16 50.1422 540.101 50.1382 540.042 50.1382C539.834 50.1406 539.635 50.151 539.501 50.1558C539.501 50.1558 539.501 50.1558 538.488 50.2C535.544 50.327 532.527 50.4885 529.656 50.6854C529.873 45.6181 530.147 39.8059 530.374 34.7932C530.433 33.4014 530.433 33.4014 530.433 33.4014C530.434 33.3629 530.436 33.3179 530.438 33.2769C530.462 32.7449 530.483 32.0289 530.319 31.82C530.291 31.7887 530.261 31.7646 530.225 31.7606C530.204 31.7573 530.177 31.7646 530.152 31.7702C530.135 31.7734 530.117 31.775 530.098 31.7831C530.076 31.7919 530.051 31.8056 530.028 31.8192C530.008 31.8305 529.988 31.8401 529.966 31.8546C529.942 31.8715 529.915 31.894 529.888 31.9148C529.865 31.9333 529.842 31.9494 529.818 31.9711C529.791 31.9952 529.762 32.0249 529.733 32.0531C529.708 32.0772 529.684 32.0997 529.659 32.1262C529.627 32.1591 529.594 32.1961 529.561 32.2314C529.537 32.2588 529.512 32.2829 529.487 32.3118C529.451 32.3536 529.413 32.3986 529.376 32.4436C529.353 32.4709 529.33 32.4966 529.308 32.5248C529.258 32.5842 529.209 32.6469 529.159 32.7096C529.147 32.7248 529.135 32.7393 529.123 32.7546C529.06 32.8349 528.997 32.9169 528.933 33.0005C528.764 33.2222 528.592 33.4529 528.429 33.6682C528.429 33.6682 528.429 33.6682 527.24 35.2858C527.124 35.4481 526.996 35.6217 526.87 35.7888C523.537 40.3435 517.261 49.1835 517.261 49.1835C516.959 49.6054 516.674 50.0064 516.398 50.3873C516.178 50.6982 515.962 51.0084 515.74 51.3194C515.547 51.5942 512.924 55.2995 512.355 56.1079C511.371 57.5077 511.371 57.5077 511.371 57.5077C511.121 57.8613 510.758 58.3482 510.47 58.7878Z" fill="#FFBD5A"/>
<path d="M647.412 92.9598C642.545 92.9598 638.145 92.1264 634.212 90.4598C630.345 88.7931 627.279 86.3931 625.012 83.2598C622.745 80.1264 621.579 76.4264 621.512 72.1598H636.512C636.712 75.0264 637.712 77.2931 639.512 78.9598C641.379 80.6264 643.912 81.4598 647.112 81.4598C650.379 81.4598 652.945 80.6931 654.812 79.1598C656.679 77.5598 657.612 75.4931 657.612 72.9598C657.612 70.8931 656.979 69.1931 655.712 67.8598C654.445 66.5264 652.845 65.4931 650.912 64.7598C649.045 63.9598 646.445 63.0931 643.112 62.1598C638.579 60.8264 634.879 59.5264 632.012 58.2598C629.212 56.9264 626.779 54.9598 624.712 52.3598C622.712 49.6931 621.712 46.1598 621.712 41.7598C621.712 37.6264 622.745 34.0264 624.812 30.9598C626.879 27.8931 629.779 25.5598 633.512 23.9598C637.245 22.2931 641.512 21.4598 646.312 21.4598C653.512 21.4598 659.345 23.2264 663.812 26.7598C668.345 30.2264 670.845 35.0931 671.312 41.3598H655.912C655.779 38.9598 654.745 36.9931 652.812 35.4598C650.945 33.8598 648.445 33.0598 645.312 33.0598C642.579 33.0598 640.379 33.7598 638.712 35.1598C637.112 36.5598 636.312 38.5931 636.312 41.2598C636.312 43.1264 636.912 44.6931 638.112 45.9598C639.379 47.1598 640.912 48.1598 642.712 48.9598C644.579 49.6931 647.179 50.5598 650.512 51.5598C655.045 52.8931 658.745 54.2264 661.612 55.5598C664.479 56.8931 666.945 58.8931 669.012 61.5598C671.079 64.2264 672.112 67.7264 672.112 72.0598C672.112 75.7931 671.145 79.2598 669.212 82.4598C667.279 85.6598 664.445 88.2264 660.712 90.1598C656.979 92.0264 652.545 92.9598 647.412 92.9598ZM735.15 44.0598C735.15 47.7931 734.25 51.2931 732.45 54.5598C730.716 57.8264 727.95 60.4598 724.15 62.4598C720.416 64.4598 715.683 65.4598 709.95 65.4598H698.25V92.2598H684.25V22.4598H709.95C715.35 22.4598 719.95 23.3931 723.75 25.2598C727.55 27.1264 730.383 29.6931 732.25 32.9598C734.183 36.2264 735.15 39.9264 735.15 44.0598ZM709.35 54.1598C713.216 54.1598 716.083 53.2931 717.95 51.5598C719.816 49.7598 720.75 47.2598 720.75 44.0598C720.75 37.2598 716.95 33.8598 709.35 33.8598H698.25V54.1598H709.35ZM759.089 33.7598V51.2598H782.589V62.3598H759.089V80.8598H785.589V92.2598H745.089V22.3598H785.589V33.7598H759.089ZM841.112 78.9598H813.312L808.712 92.2598H794.012L819.112 22.3598H835.412L860.512 92.2598H845.712L841.112 78.9598ZM837.312 67.7598L827.212 38.5598L817.112 67.7598H837.312ZM909.294 92.2598L883.894 61.1598V92.2598H869.894V22.4598H883.894V53.7598L909.294 22.4598H926.194L897.394 57.0598L926.994 92.2598H909.294ZM950.203 33.7598V51.2598H973.703V62.3598H950.203V80.8598H976.703V92.2598H936.203V22.3598H976.703V33.7598H950.203ZM1025.43 92.2598L1010.03 65.0598H1003.43V92.2598H989.425V22.4598L1015.63 22.4598C1021.03 22.4598 1025.63 23.4264 1029.43 25.3598C1033.23 27.2264 1036.06 29.7931 1037.93 33.0598C1039.86 36.2598 1040.83 39.8598 1040.83 43.8598C1040.83 48.4598 1039.49 52.6264 1036.83 56.3598C1034.16 60.0264 1030.19 62.5598 1024.93 63.9598L1041.63 92.2598H1025.43ZM1003.43 54.5598H1015.13C1018.93 54.5598 1021.76 53.6598 1023.63 51.8598C1025.49 49.9931 1026.43 47.4264 1026.43 44.1598C1026.43 40.9598 1025.49 38.4931 1023.63 36.7598C1021.76 34.9598 1018.93 34.0598 1015.13 34.0598H1003.43V54.5598Z" fill="#3F69FF"/>
<path d="M651.412 90.9598C646.545 90.9598 642.145 90.1264 638.212 88.4598C634.345 86.7931 631.279 84.3931 629.012 81.2598C626.745 78.1264 625.579 74.4264 625.512 70.1598H640.512C640.712 73.0264 641.712 75.2931 643.512 76.9598C645.379 78.6264 647.912 79.4598 651.112 79.4598C654.379 79.4598 656.945 78.6931 658.812 77.1598C660.679 75.5598 661.612 73.4931 661.612 70.9598C661.612 68.8931 660.979 67.1931 659.712 65.8598C658.445 64.5264 656.845 63.4931 654.912 62.7598C653.045 61.9598 650.445 61.0931 647.112 60.1598C642.579 58.8264 638.879 57.5264 636.012 56.2598C633.212 54.9264 630.779 52.9598 628.712 50.3598C626.712 47.6931 625.712 44.1598 625.712 39.7598C625.712 35.6264 626.745 32.0264 628.812 28.9598C630.879 25.8931 633.779 23.5598 637.512 21.9598C641.245 20.2931 645.512 19.4598 650.312 19.4598C657.512 19.4598 663.345 21.2264 667.812 24.7598C672.345 28.2264 674.845 33.0931 675.312 39.3598H659.912C659.779 36.9598 658.745 34.9931 656.812 33.4598C654.945 31.8598 652.445 31.0598 649.312 31.0598C646.579 31.0598 644.379 31.7598 642.712 33.1598C641.112 34.5598 640.312 36.5931 640.312 39.2598C640.312 41.1264 640.912 42.6931 642.112 43.9598C643.379 45.1598 644.912 46.1598 646.712 46.9598C648.579 47.6931 651.179 48.5598 654.512 49.5598C659.045 50.8931 662.745 52.2264 665.612 53.5598C668.479 54.8931 670.945 56.8931 673.012 59.5598C675.079 62.2264 676.112 65.7264 676.112 70.0598C676.112 73.7931 675.145 77.2598 673.212 80.4598C671.279 83.6598 668.445 86.2264 664.712 88.1598C660.979 90.0264 656.545 90.9598 651.412 90.9598ZM739.15 42.0598C739.15 45.7931 738.25 49.2931 736.45 52.5598C734.716 55.8264 731.95 58.4598 728.15 60.4598C724.416 62.4598 719.683 63.4598 713.95 63.4598H702.25V90.2598H688.25V20.4598H713.95C719.35 20.4598 723.95 21.3931 727.75 23.2598C731.55 25.1264 734.383 27.6931 736.25 30.9598C738.183 34.2264 739.15 37.9264 739.15 42.0598ZM713.35 52.1598C717.216 52.1598 720.083 51.2931 721.95 49.5598C723.816 47.7598 724.75 45.2598 724.75 42.0598C724.75 35.2598 720.95 31.8598 713.35 31.8598H702.25V52.1598H713.35ZM763.089 31.7598V49.2598H786.589V60.3598H763.089V78.8598H789.589V90.2598H749.089V20.3598H789.589V31.7598H763.089ZM845.112 76.9598H817.312L812.712 90.2598H798.012L823.112 20.3598H839.412L864.512 90.2598H849.712L845.112 76.9598ZM841.312 65.7598L831.212 36.5598L821.112 65.7598H841.312ZM913.294 90.2598L887.894 59.1598V90.2598H873.894V20.4598H887.894V51.7598L913.294 20.4598H930.194L901.394 55.0598L930.994 90.2598H913.294ZM954.203 31.7598V49.2598H977.703V60.3598H954.203V78.8598H980.703V90.2598H940.203V20.3598H980.703V31.7598H954.203ZM1029.43 90.2598L1014.03 63.0598H1007.43V90.2598H993.425V20.4598L1019.63 20.4598C1025.03 20.4598 1029.63 21.4264 1033.43 23.3598C1037.23 25.2264 1040.06 27.7931 1041.93 31.0598C1043.86 34.2598 1044.83 37.8598 1044.83 41.8598C1044.83 46.4598 1043.49 50.6264 1040.83 54.3598C1038.16 58.0264 1034.19 60.5598 1028.93 61.9598L1045.63 90.2598H1029.43ZM1007.43 52.5598H1019.13C1022.93 52.5598 1025.76 51.6598 1027.63 49.8598C1029.49 47.9931 1030.43 45.4264 1030.43 42.1598C1030.43 38.9598 1029.49 36.4931 1027.63 34.7598C1025.76 32.9598 1022.93 32.0598 1019.13 32.0598H1007.43V52.5598Z" fill="#F34D4D"/>
<path d="M649.574 91.9598C644.708 91.9598 640.308 91.1264 636.374 89.4598C632.508 87.7931 629.441 85.3931 627.174 82.2598C624.908 79.1264 623.741 75.4264 623.674 71.1598H638.674C638.874 74.0264 639.874 76.2931 641.674 77.9598C643.541 79.6264 646.074 80.4598 649.274 80.4598C652.541 80.4598 655.108 79.6931 656.974 78.1598C658.841 76.5598 659.774 74.4931 659.774 71.9598C659.774 69.8931 659.141 68.1931 657.874 66.8598C656.608 65.5264 655.008 64.4931 653.074 63.7598C651.208 62.9598 648.608 62.0931 645.274 61.1598C640.741 59.8264 637.041 58.5264 634.174 57.2598C631.374 55.9264 628.941 53.9598 626.874 51.3598C624.874 48.6931 623.874 45.1598 623.874 40.7598C623.874 36.6264 624.908 33.0264 626.974 29.9598C629.041 26.8931 631.941 24.5598 635.674 22.9598C639.408 21.2931 643.674 20.4598 648.474 20.4598C655.674 20.4598 661.508 22.2264 665.974 25.7598C670.508 29.2264 673.008 34.0931 673.474 40.3598H658.074C657.941 37.9598 656.908 35.9931 654.974 34.4598C653.108 32.8598 650.608 32.0598 647.474 32.0598C644.741 32.0598 642.541 32.7598 640.874 34.1598C639.274 35.5598 638.474 37.5931 638.474 40.2598C638.474 42.1264 639.074 43.6931 640.274 44.9598C641.541 46.1598 643.074 47.1598 644.874 47.9598C646.741 48.6931 649.341 49.5598 652.674 50.5598C657.208 51.8931 660.908 53.2264 663.774 54.5598C666.641 55.8931 669.108 57.8931 671.174 60.5598C673.241 63.2264 674.274 66.7264 674.274 71.0598C674.274 74.7931 673.308 78.2598 671.374 81.4598C669.441 84.6598 666.608 87.2264 662.874 89.1598C659.141 91.0264 654.708 91.9598 649.574 91.9598ZM737.312 43.0598C737.312 46.7931 736.412 50.2931 734.612 53.5598C732.878 56.8264 730.112 59.4598 726.312 61.4598C722.578 63.4598 717.845 64.4598 712.112 64.4598H700.412V91.2598H686.412V21.4598H712.112C717.512 21.4598 722.112 22.3931 725.912 24.2598C729.712 26.1264 732.545 28.6931 734.412 31.9598C736.345 35.2264 737.312 38.9264 737.312 43.0598ZM711.512 53.1598C715.378 53.1598 718.245 52.2931 720.112 50.5598C721.978 48.7598 722.912 46.2598 722.912 43.0598C722.912 36.2598 719.112 32.8598 711.512 32.8598H700.412V53.1598H711.512ZM761.252 32.7598V50.2598H784.752V61.3598H761.252V79.8598H787.752V91.2598H747.252V21.3598H787.752V32.7598H761.252ZM843.274 77.9598H815.474L810.874 91.2598H796.174L821.274 21.3598H837.574L862.674 91.2598H847.874L843.274 77.9598ZM839.474 66.7598L829.374 37.5598L819.274 66.7598H839.474ZM911.456 91.2598L886.056 60.1598V91.2598H872.056V21.4598H886.056V52.7598L911.456 21.4598H928.356L899.556 56.0598L929.156 91.2598H911.456ZM952.365 32.7598V50.2598H975.865V61.3598H952.365V79.8598H978.865V91.2598H938.365V21.3598H978.865V32.7598H952.365ZM1027.59 91.2598L1012.19 64.0598H1005.59V91.2598H991.588V21.4598L1017.79 21.4598C1023.19 21.4598 1027.79 22.4264 1031.59 24.3598C1035.39 26.2264 1038.22 28.7931 1040.09 32.0598C1042.02 35.2598 1042.99 38.8598 1042.99 42.8598C1042.99 47.4598 1041.65 51.6264 1038.99 55.3598C1036.32 59.0264 1032.35 61.5598 1027.09 62.9598L1043.79 91.2598H1027.59ZM1005.59 53.5598H1017.29C1021.09 53.5598 1023.92 52.6598 1025.79 50.8598C1027.65 48.9931 1028.59 46.4264 1028.59 43.1598C1028.59 39.9598 1027.65 37.4931 1025.79 35.7598C1023.92 33.9598 1021.09 33.0598 1017.29 33.0598H1005.59V53.5598Z" fill="#FFBD5A"/>
<path d="M1126.47 58.7878C1126.19 59.2161 1125.98 59.6018 1126 59.7762C1126.01 59.797 1126.01 59.8155 1126.02 59.8332L1126.02 59.8348C1126.03 59.8565 1126.05 59.8742 1126.07 59.8911C1126.1 59.9208 1126.14 59.9449 1126.2 59.965C1126.31 59.9987 1127.11 59.9698 1127.35 59.9505C1127.99 59.8967 1128.64 59.8509 1129.28 59.8139C1129.47 59.8035 1129.65 59.797 1129.84 59.7874C1130.68 59.7456 1131.51 59.7127 1132.33 59.6934C1132.99 59.6765 1133.64 59.6661 1134.28 59.6596C1134.46 59.658 1134.63 59.6572 1134.81 59.6564C1135.4 59.6532 1135.99 59.6516 1136.55 59.6572C1136.36 64.5702 1136.12 69.779 1135.92 74.7386C1135.9 75.5044 1135.86 76.2638 1135.84 77.0143C1135.77 78.6134 1135.77 78.6134 1135.77 78.6134C1135.77 78.7267 1135.76 78.8464 1135.76 78.9654C1135.74 79.6854 1135.74 80.4793 1135.9 80.6946C1135.9 80.7051 1135.91 80.7139 1135.92 80.722C1135.94 80.7485 1135.97 80.7605 1136.01 80.7597C1136.01 80.7597 1136.01 80.7581 1136.02 80.7581C1136.05 80.7565 1136.08 80.7453 1136.12 80.7252C1136.13 80.7187 1136.14 80.7083 1136.15 80.6995C1136.18 80.681 1136.21 80.6601 1136.24 80.6336C1136.25 80.6199 1136.27 80.603 1136.28 80.5878C1136.31 80.5596 1136.34 80.5299 1136.37 80.4962C1136.38 80.4761 1136.4 80.4552 1136.42 80.4335C1136.45 80.3989 1136.47 80.3628 1136.5 80.325C1136.52 80.3001 1136.54 80.2744 1136.56 80.2487C1136.59 80.2101 1136.62 80.1691 1136.64 80.1289C1136.66 80.1008 1136.68 80.0735 1136.7 80.0454C1136.73 80.0028 1136.76 79.9594 1136.79 79.9152C1136.81 79.8871 1136.82 79.8589 1136.84 79.8308C1136.89 79.7633 1136.93 79.6958 1136.97 79.6299C1136.97 79.6299 1136.97 79.6299 1137.68 78.5411C1142.14 71.6931 1147.96 63.344 1153.12 56.1376C1154.65 53.9937 1154.91 53.6321 1154.91 53.6321C1154.94 53.5943 1154.97 53.5525 1155 53.514C1155.67 52.6131 1156.51 51.6432 1156.85 50.965C1156.95 50.7674 1157.01 50.5898 1157 50.4491C1156.99 50.3824 1156.96 50.331 1156.91 50.2892C1156.89 50.274 1156.85 50.2675 1156.83 50.2555C1156.78 50.233 1156.74 50.2089 1156.69 50.1944C1156.65 50.184 1156.6 50.1807 1156.55 50.1735C1156.5 50.1647 1156.45 50.1542 1156.39 50.1494C1156.33 50.1454 1156.28 50.1454 1156.22 50.1438C1156.16 50.1422 1156.1 50.1382 1156.04 50.1382C1155.83 50.1406 1155.63 50.151 1155.5 50.1558C1155.5 50.1558 1155.5 50.1558 1154.49 50.2C1151.54 50.327 1148.53 50.4885 1145.66 50.6854C1145.87 45.6181 1146.15 39.8059 1146.37 34.7932C1146.43 33.4014 1146.43 33.4014 1146.43 33.4014C1146.43 33.3629 1146.44 33.3179 1146.44 33.2769C1146.46 32.7449 1146.48 32.0289 1146.32 31.82C1146.29 31.7887 1146.26 31.7646 1146.23 31.7606C1146.2 31.7573 1146.18 31.7646 1146.15 31.7702C1146.13 31.7734 1146.12 31.775 1146.1 31.7831C1146.08 31.7919 1146.05 31.8056 1146.03 31.8192C1146.01 31.8305 1145.99 31.8401 1145.97 31.8546C1145.94 31.8715 1145.92 31.894 1145.89 31.9148C1145.87 31.9333 1145.84 31.9494 1145.82 31.9711C1145.79 31.9952 1145.76 32.0249 1145.73 32.0531C1145.71 32.0772 1145.68 32.0997 1145.66 32.1262C1145.63 32.1591 1145.59 32.1961 1145.56 32.2314C1145.54 32.2588 1145.51 32.2829 1145.49 32.3118C1145.45 32.3536 1145.41 32.3986 1145.38 32.4436C1145.35 32.4709 1145.33 32.4966 1145.31 32.5248C1145.26 32.5842 1145.21 32.6469 1145.16 32.7096C1145.15 32.7248 1145.14 32.7393 1145.12 32.7546C1145.06 32.8349 1145 32.9169 1144.93 33.0005C1144.76 33.2222 1144.59 33.4529 1144.43 33.6682C1144.43 33.6682 1144.43 33.6682 1143.24 35.2858C1143.12 35.4481 1143 35.6217 1142.87 35.7888C1139.54 40.3435 1133.26 49.1835 1133.26 49.1835C1132.96 49.6054 1132.67 50.0064 1132.4 50.3873C1132.18 50.6982 1131.96 51.0084 1131.74 51.3194C1131.55 51.5942 1128.92 55.2995 1128.36 56.1079C1127.37 57.5077 1127.37 57.5077 1127.37 57.5077C1127.12 57.8613 1126.76 58.3482 1126.47 58.7878Z" fill="#FFBD5A"/>
</svg>
