<svg width="1347" height="111" viewBox="0 0 1347 111" fill="none" xmlns="http://www.w3.org/2000/svg">
<path d="M58.0305 42.2048C58.0305 45.9381 57.1305 49.4381 55.3305 52.7048C53.5971 55.9715 50.8305 58.6048 47.0305 60.6048C43.2971 62.6048 38.5638 63.6048 32.8305 63.6048H21.1305V90.4048H7.13047L7.13047 20.6048H32.8305C38.2305 20.6048 42.8305 21.5381 46.6305 23.4048C50.4305 25.2714 53.2638 27.8381 55.1305 31.1048C57.0638 34.3714 58.0305 38.0714 58.0305 42.2048ZM32.2305 52.3048C36.0971 52.3048 38.9638 51.4381 40.8305 49.7048C42.6971 47.9048 43.6305 45.4048 43.6305 42.2048C43.6305 35.4048 39.8305 32.0048 32.2305 32.0048H21.1305V52.3048H32.2305ZM81.9703 31.9048V49.4048H105.47V60.5048H81.9703V79.0048H108.47V90.4048H67.9703V20.5048H108.47V31.9048H81.9703ZM153.593 91.1048C147.06 91.1048 141.06 89.5715 135.593 86.5048C130.126 83.4381 125.793 79.2048 122.593 73.8048C119.393 68.3381 117.793 62.1715 117.793 55.3048C117.793 48.5048 119.393 42.4048 122.593 37.0048C125.793 31.5381 130.126 27.2714 135.593 24.2048C141.06 21.1381 147.06 19.6048 153.593 19.6048C160.193 19.6048 166.193 21.1381 171.593 24.2048C177.06 27.2714 181.36 31.5381 184.493 37.0048C187.693 42.4048 189.293 48.5048 189.293 55.3048C189.293 62.1715 187.693 68.3381 184.493 73.8048C181.36 79.2048 177.06 83.4381 171.593 86.5048C166.126 89.5715 160.126 91.1048 153.593 91.1048ZM153.593 78.6048C157.793 78.6048 161.493 77.6715 164.693 75.8048C167.893 73.8715 170.393 71.1381 172.193 67.6048C173.993 64.0715 174.893 59.9715 174.893 55.3048C174.893 50.6381 173.993 46.5714 172.193 43.1048C170.393 39.5714 167.893 36.8714 164.693 35.0048C161.493 33.1381 157.793 32.2048 153.593 32.2048C149.393 32.2048 145.66 33.1381 142.393 35.0048C139.193 36.8714 136.693 39.5714 134.893 43.1048C133.093 46.5714 132.193 50.6381 132.193 55.3048C132.193 59.9715 133.093 64.0715 134.893 67.6048C136.693 71.1381 139.193 73.8715 142.393 75.8048C145.66 77.6715 149.393 78.6048 153.593 78.6048ZM250.609 42.2048C250.609 45.9381 249.709 49.4381 247.909 52.7048C246.175 55.9715 243.409 58.6048 239.609 60.6048C235.875 62.6048 231.142 63.6048 225.409 63.6048H213.709V90.4048H199.709V20.6048H225.409C230.809 20.6048 235.409 21.5381 239.209 23.4048C243.009 25.2714 245.842 27.8381 247.709 31.1048C249.642 34.3714 250.609 38.0714 250.609 42.2048ZM224.809 52.3048C228.675 52.3048 231.542 51.4381 233.409 49.7048C235.275 47.9048 236.209 45.4048 236.209 42.2048C236.209 35.4048 232.409 32.0048 224.809 32.0048H213.709V52.3048H224.809ZM274.548 79.3048H297.548V90.4048H260.548V20.6048H274.548V79.3048ZM320.447 31.9048V49.4048H343.947V60.5048H320.447V79.0048H346.947V90.4048H306.447V20.5048H346.947V31.9048H320.447Z" fill="black"/>
<path d="M428.47 57.9328C428.189 58.3611 427.978 58.7468 428.002 58.9212C428.005 58.9421 428.013 58.9605 428.023 58.9782L428.023 58.9798C428.034 59.0015 428.046 59.0192 428.068 59.0361C428.1 59.0658 428.144 59.0899 428.199 59.11C428.31 59.1438 429.115 59.1148 429.353 59.0955C429.995 59.0417 430.635 58.9959 431.283 58.9589C431.467 58.9485 431.65 58.9421 431.839 58.9324C432.675 58.8906 433.508 58.8577 434.332 58.8384C434.991 58.8215 435.641 58.8111 436.282 58.8047C436.46 58.803 436.632 58.8022 436.806 58.8014C437.399 58.7982 437.987 58.7966 438.547 58.8022C438.356 63.7153 438.122 68.924 437.924 73.8836C437.896 74.6494 437.862 75.4088 437.835 76.1593C437.774 77.7584 437.774 77.7584 437.774 77.7584C437.771 77.8717 437.765 77.9915 437.761 78.1104C437.743 78.8304 437.743 79.6243 437.897 79.8397C437.901 79.8501 437.908 79.8589 437.916 79.867C437.943 79.8935 437.974 79.9056 438.008 79.9048C438.01 79.9048 438.013 79.9031 438.016 79.9031C438.046 79.9015 438.08 79.8903 438.115 79.8702C438.127 79.8638 438.139 79.8533 438.151 79.8445C438.178 79.826 438.206 79.8051 438.235 79.7786C438.251 79.7649 438.266 79.7481 438.282 79.7328C438.31 79.7047 438.338 79.6749 438.367 79.6412C438.384 79.6211 438.401 79.6002 438.419 79.5785C438.447 79.5439 438.475 79.5078 438.503 79.47C438.521 79.4451 438.541 79.4194 438.56 79.3937C438.588 79.3551 438.616 79.3141 438.644 79.2739C438.663 79.2458 438.683 79.2185 438.702 79.1904C438.731 79.1478 438.759 79.1044 438.787 79.0602C438.805 79.0321 438.824 79.0039 438.842 78.9758C438.886 78.9083 438.929 78.8408 438.971 78.7749C438.971 78.7749 438.971 78.7749 439.68 77.6861C444.144 70.8381 449.955 62.489 455.115 55.2826C456.648 53.1387 456.911 52.7771 456.911 52.7771C456.943 52.7393 456.972 52.6975 457.003 52.659C457.668 51.7582 458.509 50.7883 458.848 50.1101C458.945 49.9124 459.009 49.7348 458.999 49.5942C458.994 49.5275 458.96 49.476 458.905 49.4342C458.887 49.419 458.854 49.4126 458.83 49.4005C458.785 49.378 458.744 49.3539 458.686 49.3394C458.646 49.329 458.598 49.3258 458.554 49.3185C458.5 49.3097 458.448 49.2993 458.387 49.2944C458.333 49.2904 458.275 49.2904 458.218 49.2888C458.16 49.2872 458.101 49.2832 458.042 49.2832C457.834 49.2856 457.635 49.296 457.501 49.3009C457.501 49.3009 457.501 49.3009 456.488 49.3451C453.544 49.472 450.527 49.6335 447.656 49.8304C447.873 44.7631 448.147 38.9509 448.374 33.9382C448.433 32.5465 448.433 32.5465 448.433 32.5465C448.434 32.5079 448.436 32.4629 448.438 32.4219C448.462 31.8899 448.483 31.174 448.319 30.965C448.291 30.9337 448.261 30.9096 448.225 30.9056C448.204 30.9024 448.177 30.9096 448.152 30.9152C448.135 30.9184 448.117 30.92 448.098 30.9281C448.076 30.9369 448.051 30.9506 448.028 30.9642C448.008 30.9755 447.988 30.9851 447.966 30.9996C447.942 31.0165 447.915 31.039 447.888 31.0599C447.865 31.0783 447.842 31.0944 447.818 31.1161C447.791 31.1402 447.762 31.17 447.733 31.1981C447.708 31.2222 447.684 31.2447 447.659 31.2712C447.627 31.3041 447.594 31.3411 447.561 31.3765C447.537 31.4038 447.512 31.4279 447.487 31.4568C447.451 31.4986 447.413 31.5436 447.376 31.5886C447.353 31.6159 447.33 31.6416 447.308 31.6698C447.258 31.7292 447.209 31.7919 447.159 31.8546C447.147 31.8699 447.135 31.8843 447.123 31.8996C447.06 31.9799 446.997 32.0619 446.933 32.1455C446.764 32.3673 446.592 32.5979 446.429 32.8132C446.429 32.8132 446.429 32.8132 445.24 34.4308C445.124 34.5932 444.996 34.7667 444.87 34.9339C441.537 39.4885 435.261 48.3285 435.261 48.3285C434.959 48.7504 434.674 49.1514 434.398 49.5323C434.178 49.8433 433.962 50.1534 433.74 50.4644C433.547 50.7392 430.924 54.4445 430.355 55.2529C429.371 56.6527 429.371 56.6527 429.371 56.6527C429.121 57.0063 428.758 57.4932 428.47 57.9328Z" fill="black"/>
<path d="M573.577 91.1048C567.044 91.1048 561.044 89.5715 555.577 86.5048C550.111 83.4381 545.777 79.2048 542.577 73.8048C539.377 68.3381 537.777 62.1715 537.777 55.3048C537.777 48.5048 539.377 42.4048 542.577 37.0048C545.777 31.5381 550.111 27.2714 555.577 24.2048C561.044 21.1381 567.044 19.6048 573.577 19.6048C580.177 19.6048 586.177 21.1381 591.577 24.2048C597.044 27.2714 601.344 31.5381 604.477 37.0048C607.677 42.4048 609.277 48.5048 609.277 55.3048C609.277 62.1715 607.677 68.3381 604.477 73.8048C601.344 79.2048 597.044 83.4381 591.577 86.5048C586.111 89.5715 580.111 91.1048 573.577 91.1048ZM573.577 78.6048C577.777 78.6048 581.477 77.6715 584.677 75.8048C587.877 73.8715 590.377 71.1381 592.177 67.6048C593.977 64.0715 594.877 59.9715 594.877 55.3048C594.877 50.6381 593.977 46.5714 592.177 43.1048C590.377 39.5714 587.877 36.8714 584.677 35.0048C581.477 33.1381 577.777 32.2048 573.577 32.2048C569.377 32.2048 565.644 33.1381 562.377 35.0048C559.177 36.8714 556.677 39.5714 554.877 43.1048C553.077 46.5714 552.177 50.6381 552.177 55.3048C552.177 59.9715 553.077 64.0715 554.877 67.6048C556.677 71.1381 559.177 73.8715 562.377 75.8048C565.644 77.6715 569.377 78.6048 573.577 78.6048ZM655.693 90.4048L640.293 63.2048H633.693V90.4048H619.693V20.6048H645.893C651.293 20.6048 655.893 21.5714 659.693 23.5048C663.493 25.3714 666.326 27.9381 668.193 31.2048C670.126 34.4048 671.093 38.0048 671.093 42.0048C671.093 46.6048 669.76 50.7714 667.093 54.5048C664.426 58.1714 660.46 60.7048 655.193 62.1048L671.893 90.4048H655.693ZM633.693 52.7048H645.393C649.193 52.7048 652.026 51.8048 653.893 50.0048C655.76 48.1381 656.693 45.5714 656.693 42.3048C656.693 39.1048 655.76 36.6381 653.893 34.9048C652.026 33.1048 649.193 32.2048 645.393 32.2048H633.693V52.7048ZM732.355 41.6048C730.755 38.6715 728.555 36.4381 725.755 34.9048C722.955 33.3715 719.689 32.6048 715.955 32.6048C711.822 32.6048 708.155 33.5381 704.955 35.4048C701.755 37.2715 699.255 39.9381 697.455 43.4048C695.655 46.8715 694.755 50.8715 694.755 55.4048C694.755 60.0715 695.655 64.1381 697.455 67.6048C699.322 71.0715 701.889 73.7381 705.155 75.6048C708.422 77.4715 712.222 78.4048 716.555 78.4048C721.889 78.4048 726.255 77.0048 729.655 74.2048C733.055 71.3381 735.289 67.3715 736.355 62.3048H712.355V51.6048H750.155V63.8048C749.222 68.6715 747.222 73.1715 744.155 77.3048C741.089 81.4381 737.122 84.7715 732.255 87.3048C727.455 89.7715 722.055 91.0048 716.055 91.0048C709.322 91.0048 703.222 89.5048 697.755 86.5048C692.355 83.4381 688.089 79.2048 684.955 73.8048C681.889 68.4048 680.355 62.2715 680.355 55.4048C680.355 48.5381 681.889 42.4048 684.955 37.0048C688.089 31.5381 692.355 27.3048 697.755 24.3048C703.222 21.2381 709.289 19.7048 715.955 19.7048C723.822 19.7048 730.655 21.6381 736.455 25.5048C742.255 29.3048 746.255 34.6715 748.455 41.6048H732.355ZM803.313 77.1048H775.513L770.913 90.4048H756.213L781.313 20.5048H797.613L822.713 90.4048H807.913L803.313 77.1048ZM799.513 65.9048L789.413 36.7048L779.313 65.9048H799.513ZM891.795 90.4048H877.795L846.095 42.5048V90.4048H832.095V20.5048H846.095L877.795 68.5048V20.5048H891.795V90.4048ZM919.63 20.6048V90.4048H905.63V20.6048L919.63 20.6048ZM957.563 91.1048C952.696 91.1048 948.296 90.2715 944.363 88.6048C940.496 86.9381 937.429 84.5381 935.163 81.4048C932.896 78.2715 931.729 74.5715 931.663 70.3048H946.663C946.863 73.1715 947.863 75.4381 949.663 77.1048C951.529 78.7715 954.063 79.6048 957.263 79.6048C960.529 79.6048 963.096 78.8381 964.963 77.3048C966.829 75.7048 967.763 73.6381 967.763 71.1048C967.763 69.0381 967.129 67.3381 965.863 66.0048C964.596 64.6715 962.996 63.6381 961.063 62.9048C959.196 62.1048 956.596 61.2381 953.263 60.3048C948.729 58.9715 945.029 57.6715 942.163 56.4048C939.363 55.0715 936.929 53.1048 934.863 50.5048C932.863 47.8381 931.863 44.3048 931.863 39.9048C931.863 35.7714 932.896 32.1714 934.963 29.1048C937.029 26.0381 939.929 23.7048 943.663 22.1048C947.396 20.4381 951.663 19.6048 956.463 19.6048C963.663 19.6048 969.496 21.3715 973.963 24.9048C978.496 28.3714 980.996 33.2381 981.463 39.5048H966.063C965.929 37.1048 964.896 35.1381 962.963 33.6048C961.096 32.0048 958.596 31.2048 955.463 31.2048C952.729 31.2048 950.529 31.9048 948.863 33.3048C947.263 34.7048 946.463 36.7381 946.463 39.4048C946.463 41.2714 947.063 42.8381 948.263 44.1048C949.529 45.3048 951.063 46.3048 952.863 47.1048C954.729 47.8381 957.329 48.7048 960.663 49.7048C965.196 51.0381 968.896 52.3714 971.763 53.7048C974.629 55.0381 977.096 57.0381 979.163 59.7048C981.229 62.3715 982.263 65.8715 982.263 70.2048C982.263 73.9381 981.296 77.4048 979.362 80.6048C977.429 83.8048 974.596 86.3715 970.863 88.3048C967.129 90.1715 962.696 91.1048 957.563 91.1048ZM1008.4 31.9048V49.4048H1031.9V60.5048H1008.4V79.0048H1034.9V90.4048H994.4V20.5048H1034.9V31.9048H1008.4ZM1083.62 90.4048L1068.22 63.2048H1061.62V90.4048H1047.62V20.6048H1073.82C1079.22 20.6048 1083.82 21.5714 1087.62 23.5048C1091.42 25.3714 1094.26 27.9381 1096.12 31.2048C1098.06 34.4048 1099.02 38.0048 1099.02 42.0048C1099.02 46.6048 1097.69 50.7714 1095.02 54.5048C1092.36 58.1714 1088.39 60.7048 1083.12 62.1048L1099.82 90.4048H1083.62ZM1061.62 52.7048H1073.32C1077.12 52.7048 1079.96 51.8048 1081.82 50.0048C1083.69 48.1381 1084.62 45.5714 1084.62 42.3048C1084.62 39.1048 1083.69 36.6381 1081.82 34.9048C1079.96 33.1048 1077.12 32.2048 1073.32 32.2048H1061.62V52.7048ZM1135.79 91.1048C1130.92 91.1048 1126.52 90.2715 1122.59 88.6048C1118.72 86.9381 1115.65 84.5381 1113.39 81.4048C1111.12 78.2715 1109.95 74.5715 1109.89 70.3048H1124.89C1125.09 73.1715 1126.09 75.4381 1127.89 77.1048C1129.75 78.7715 1132.29 79.6048 1135.49 79.6048C1138.75 79.6048 1141.32 78.8381 1143.19 77.3048C1145.05 75.7048 1145.99 73.6381 1145.99 71.1048C1145.99 69.0381 1145.35 67.3381 1144.09 66.0048C1142.82 64.6715 1141.22 63.6381 1139.29 62.9048C1137.42 62.1048 1134.82 61.2381 1131.49 60.3048C1126.95 58.9715 1123.25 57.6715 1120.39 56.4048C1117.59 55.0715 1115.15 53.1048 1113.09 50.5048C1111.09 47.8381 1110.09 44.3048 1110.09 39.9048C1110.09 35.7714 1111.12 32.1714 1113.19 29.1048C1115.25 26.0381 1118.15 23.7048 1121.89 22.1048C1125.62 20.4381 1129.89 19.6048 1134.69 19.6048C1141.89 19.6048 1147.72 21.3715 1152.19 24.9048C1156.72 28.3714 1159.22 33.2381 1159.69 39.5048H1144.29C1144.15 37.1048 1143.12 35.1381 1141.19 33.6048C1139.32 32.0048 1136.82 31.2048 1133.69 31.2048C1130.95 31.2048 1128.75 31.9048 1127.09 33.3048C1125.49 34.7048 1124.69 36.7381 1124.69 39.4048C1124.69 41.2714 1125.29 42.8381 1126.49 44.1048C1127.75 45.3048 1129.29 46.3048 1131.09 47.1048C1132.95 47.8381 1135.55 48.7048 1138.89 49.7048C1143.42 51.0381 1147.12 52.3714 1149.99 53.7048C1152.85 55.0381 1155.32 57.0381 1157.39 59.7048C1159.45 62.3715 1160.49 65.8715 1160.49 70.2048C1160.49 73.9381 1159.52 77.4048 1157.59 80.6048C1155.65 83.8048 1152.82 86.3715 1149.09 88.3048C1145.35 90.1715 1140.92 91.1048 1135.79 91.1048Z" fill="black"/>
<path d="M1241.47 57.9328C1241.19 58.3611 1240.98 58.7468 1241 58.9212C1241.01 58.9421 1241.01 58.9605 1241.02 58.9782L1241.02 58.9798C1241.03 59.0015 1241.05 59.0192 1241.07 59.0361C1241.1 59.0658 1241.14 59.0899 1241.2 59.11C1241.31 59.1438 1242.11 59.1148 1242.35 59.0955C1242.99 59.0417 1243.64 58.9959 1244.28 58.9589C1244.47 58.9485 1244.65 58.9421 1244.84 58.9324C1245.68 58.8906 1246.51 58.8577 1247.33 58.8384C1247.99 58.8215 1248.64 58.8111 1249.28 58.8047C1249.46 58.803 1249.63 58.8022 1249.81 58.8014C1250.4 58.7982 1250.99 58.7966 1251.55 58.8022C1251.36 63.7153 1251.12 68.924 1250.92 73.8836C1250.9 74.6494 1250.86 75.4088 1250.84 76.1593C1250.77 77.7584 1250.77 77.7584 1250.77 77.7584C1250.77 77.8717 1250.76 77.9915 1250.76 78.1104C1250.74 78.8304 1250.74 79.6243 1250.9 79.8397C1250.9 79.8501 1250.91 79.8589 1250.92 79.867C1250.94 79.8935 1250.97 79.9056 1251.01 79.9048C1251.01 79.9048 1251.01 79.9031 1251.02 79.9031C1251.05 79.9015 1251.08 79.8903 1251.12 79.8702C1251.13 79.8638 1251.14 79.8533 1251.15 79.8445C1251.18 79.826 1251.21 79.8051 1251.24 79.7786C1251.25 79.7649 1251.27 79.7481 1251.28 79.7328C1251.31 79.7047 1251.34 79.6749 1251.37 79.6412C1251.38 79.6211 1251.4 79.6002 1251.42 79.5785C1251.45 79.5439 1251.47 79.5078 1251.5 79.47C1251.52 79.4451 1251.54 79.4194 1251.56 79.3937C1251.59 79.3551 1251.62 79.3141 1251.64 79.2739C1251.66 79.2458 1251.68 79.2185 1251.7 79.1904C1251.73 79.1478 1251.76 79.1044 1251.79 79.0602C1251.81 79.0321 1251.82 79.0039 1251.84 78.9758C1251.89 78.9083 1251.93 78.8408 1251.97 78.7749C1251.97 78.7749 1251.97 78.7749 1252.68 77.6861C1257.14 70.8381 1262.96 62.489 1268.12 55.2826C1269.65 53.1387 1269.91 52.7771 1269.91 52.7771C1269.94 52.7393 1269.97 52.6975 1270 52.659C1270.67 51.7582 1271.51 50.7883 1271.85 50.1101C1271.95 49.9124 1272.01 49.7348 1272 49.5942C1271.99 49.5275 1271.96 49.476 1271.91 49.4342C1271.89 49.419 1271.85 49.4126 1271.83 49.4005C1271.78 49.378 1271.74 49.3539 1271.69 49.3394C1271.65 49.329 1271.6 49.3258 1271.55 49.3185C1271.5 49.3097 1271.45 49.2993 1271.39 49.2944C1271.33 49.2904 1271.28 49.2904 1271.22 49.2888C1271.16 49.2872 1271.1 49.2832 1271.04 49.2832C1270.83 49.2856 1270.63 49.296 1270.5 49.3009C1270.5 49.3009 1270.5 49.3009 1269.49 49.3451C1266.54 49.472 1263.53 49.6335 1260.66 49.8304C1260.87 44.7631 1261.15 38.9509 1261.37 33.9382C1261.43 32.5465 1261.43 32.5465 1261.43 32.5465C1261.43 32.5079 1261.44 32.4629 1261.44 32.4219C1261.46 31.8899 1261.48 31.174 1261.32 30.965C1261.29 30.9337 1261.26 30.9096 1261.23 30.9056C1261.2 30.9024 1261.18 30.9096 1261.15 30.9152C1261.13 30.9184 1261.12 30.92 1261.1 30.9281C1261.08 30.9369 1261.05 30.9506 1261.03 30.9642C1261.01 30.9755 1260.99 30.9851 1260.97 30.9996C1260.94 31.0165 1260.92 31.039 1260.89 31.0599C1260.87 31.0783 1260.84 31.0944 1260.82 31.1161C1260.79 31.1402 1260.76 31.17 1260.73 31.1981C1260.71 31.2222 1260.68 31.2447 1260.66 31.2712C1260.63 31.3041 1260.59 31.3411 1260.56 31.3765C1260.54 31.4038 1260.51 31.4279 1260.49 31.4568C1260.45 31.4986 1260.41 31.5436 1260.38 31.5886C1260.35 31.6159 1260.33 31.6416 1260.31 31.6698C1260.26 31.7292 1260.21 31.7919 1260.16 31.8546C1260.15 31.8699 1260.14 31.8843 1260.12 31.8996C1260.06 31.9799 1260 32.0619 1259.93 32.1455C1259.76 32.3673 1259.59 32.5979 1259.43 32.8132C1259.43 32.8132 1259.43 32.8132 1258.24 34.4308C1258.12 34.5932 1258 34.7667 1257.87 34.9339C1254.54 39.4885 1248.26 48.3285 1248.26 48.3285C1247.96 48.7504 1247.67 49.1514 1247.4 49.5323C1247.18 49.8433 1246.96 50.1534 1246.74 50.4644C1246.55 50.7392 1243.92 54.4445 1243.36 55.2529C1242.37 56.6527 1242.37 56.6527 1242.37 56.6527C1242.12 57.0063 1241.76 57.4932 1241.47 57.9328Z" fill="black"/>
</svg>
