<?xml version="1.0" encoding="UTF-8" standalone="no"?>
<svg
   width="1550"
   height="92"
   viewBox="0 0 1550 92"
   fill="none"
   version="1.1"
   id="svg5142"
   sodipodi:docname="section-heading---adb-is-back2.svg"
   inkscape:version="1.1.2 (0a00cf5, 2022-02-04)"
   xmlns:inkscape="http://www.inkscape.org/namespaces/inkscape"
   xmlns:sodipodi="http://sodipodi.sourceforge.net/DTD/sodipodi-0.dtd"
   xmlns="http://www.w3.org/2000/svg"
   xmlns:svg="http://www.w3.org/2000/svg">
  <sodipodi:namedview
     id="namedview5144"
     pagecolor="#ffffff"
     bordercolor="#666666"
     borderopacity="1.0"
     inkscape:pageshadow="2"
     inkscape:pageopacity="0.0"
     inkscape:pagecheckerboard="0"
     showgrid="false"
     showguides="true"
     inkscape:guide-bbox="true"
     inkscape:zoom="0.2125"
     inkscape:cx="-522.35294"
     inkscape:cy="-715.29412"
     inkscape:window-width="1860"
     inkscape:window-height="1131"
     inkscape:window-x="2560"
     inkscape:window-y="173"
     inkscape:window-maximized="1"
     inkscape:current-layer="svg5142">
    <sodipodi:guide
       position="1415.77,71.8"
       orientation="0,-1"
       id="guide5203" />
    <sodipodi:guide
       position="1448.37,2"
       orientation="0,-1"
       id="guide5205" />
  </sodipodi:namedview>
  <g
     filter="url(#filter0_dd_98_1379)"
     id="g5080"
     transform="translate(-1555.841)">
    <path
       d="m 46.5,54.2 c 3.9333,0.7333 7.1667,2.7 9.7,5.9 2.5333,3.2 3.8,6.8667 3.8,11 0,3.7333 -0.9333,7.0333 -2.8,9.9 -1.8,2.8 -4.4333,5 -7.9,6.6 C 45.8333,89.2 41.7333,90 37,90 H 6.9 V 20.2 h 28.8 c 4.7333,0 8.8,0.7667 12.2,2.3 3.4667,1.5333 6.0667,3.6667 7.8,6.4 1.8,2.7333 2.7,5.8333 2.7,9.3 0,4.0667 -1.1,7.4667 -3.3,10.2 -2.1333,2.7333 -5,4.6667 -8.6,5.8 z M 20.9,49 h 12.8 c 3.3333,0 5.9,-0.7333 7.7,-2.2 1.8,-1.5333 2.7,-3.7 2.7,-6.5 0,-2.8 -0.9,-4.9667 -2.7,-6.5 -1.8,-1.5333 -4.3667,-2.3 -7.7,-2.3 H 20.9 Z M 35,78.6 c 3.4,0 6.0333,-0.8 7.9,-2.4 1.9333,-1.6 2.9,-3.8667 2.9,-6.8 0,-3 -1,-5.3333 -3,-7 -2,-1.7333 -4.7,-2.6 -8.1,-2.6 H 20.9 V 78.6 Z M 85.1578,20.2 V 90 h -14 V 20.2 Z m 61.3322,0 v 11.3 h -18.6 V 90 h -14 V 31.5 H 95.2898 V 20.2 Z m 6.815,34.8 c 0,-6.8667 1.533,-13 4.6,-18.4 3.133,-5.4667 7.366,-9.7 12.7,-12.7 5.4,-3.0667 11.433,-4.6 18.1,-4.6 7.8,0 14.633,2 20.5,6 5.866,4 9.966,9.5333 12.3,16.6 h -16.1 c -1.6,-3.3333 -3.867,-5.8333 -6.8,-7.5 -2.867,-1.6667 -6.2,-2.5 -10,-2.5 -4.067,0 -7.7,0.9667 -10.9,2.9 -3.134,1.8667 -5.6,4.5333 -7.4,8 -1.734,3.4667 -2.6,7.5333 -2.6,12.2 0,4.6 0.866,8.6667 2.6,12.2 1.8,3.4667 4.266,6.1667 7.4,8.1 3.2,1.8667 6.833,2.8 10.9,2.8 3.8,0 7.133,-0.8333 10,-2.5 2.933,-1.7333 5.2,-4.2667 6.8,-7.6 h 16.1 c -2.334,7.1333 -6.434,12.7 -12.3,16.7 -5.8,3.9333 -12.634,5.9 -20.5,5.9 -6.667,0 -12.7,-1.5 -18.1,-4.5 -5.334,-3.0667 -9.567,-7.3 -12.7,-12.7 -3.067,-5.4 -4.6,-11.5333 -4.6,-18.4 z m 112.558,35.7 c -6.534,0 -12.534,-1.5333 -18,-4.6 -5.467,-3.0667 -9.8,-7.3 -13,-12.7 -3.2,-5.4667 -4.8,-11.6333 -4.8,-18.5 0,-6.8 1.6,-12.9 4.8,-18.3 3.2,-5.4667 7.533,-9.7333 13,-12.8 5.466,-3.0667 11.466,-4.6 18,-4.6 6.6,0 12.6,1.5333 18,4.6 5.466,3.0667 9.766,7.3333 12.9,12.8 3.2,5.4 4.8,11.5 4.8,18.3 0,6.8667 -1.6,13.0333 -4.8,18.5 -3.134,5.4 -7.434,9.6333 -12.9,12.7 -5.467,3.0667 -11.467,4.6 -18,4.6 z m 0,-12.5 c 4.2,0 7.9,-0.9333 11.1,-2.8 3.2,-1.9333 5.7,-4.6667 7.5,-8.2 1.8,-3.5333 2.7,-7.6333 2.7,-12.3 0,-4.6667 -0.9,-8.7333 -2.7,-12.2 -1.8,-3.5333 -4.3,-6.2333 -7.5,-8.1 -3.2,-1.8667 -6.9,-2.8 -11.1,-2.8 -4.2,0 -7.934,0.9333 -11.2,2.8 -3.2,1.8667 -5.7,4.5667 -7.5,8.1 -1.8,3.4667 -2.7,7.5333 -2.7,12.2 0,4.6667 0.9,8.7667 2.7,12.3 1.8,3.5333 4.3,6.2667 7.5,8.2 3.266,1.8667 7,2.8 11.2,2.8 z m 60.115,-58 V 90 h -14 V 20.2 Z M 399.51,90 h -14 L 353.81,42.1 V 90 h -14 V 20.1 h 14 l 31.7,48 v -48 h 14 z"
       fill="#fab44b"
       id="path5078" />
  </g>
  <path
     d="m -1076.159,48.663 c -0.408,0.6206 -0.714,1.1795 -0.679,1.4322 0,0.0303 0.016,0.057 0.03,0.0826 l 10e-4,0.0024 c 0.015,0.0314 0.033,0.057 0.064,0.0815 0.047,0.0431 0.112,0.078 0.191,0.1071 0.162,0.0489 1.329,0.007 1.675,-0.021 0.932,-0.078 1.861,-0.1443 2.802,-0.1979 0.267,-0.0151 0.532,-0.0244 0.806,-0.0384 1.215,-0.0606 2.424,-0.1083 3.619,-0.1363 0.957,-0.0244 1.901,-0.0395 2.832,-0.0489 0.257,-0.0023 0.507,-0.0034 0.759,-0.0046 0.861,-0.0047 1.715,-0.007 2.528,0.0012 -0.278,7.1188 -0.616,14.6662 -0.905,21.8525 -0.04,1.1097 -0.089,2.21 -0.128,3.2975 -0.089,2.3171 -0.089,2.3171 -0.089,2.3171 0,0.1641 -0.013,0.3376 -0.019,0.5099 -0.025,1.0433 -0.025,2.1937 0.198,2.5057 0.01,0.0152 0.016,0.028 0.027,0.0396 0.039,0.0384 0.085,0.0559 0.133,0.0547 0,0 0.01,-0.0023 0.012,-0.0023 0.044,-0.0023 0.093,-0.0186 0.144,-0.0477 0.018,-0.0093 0.035,-0.0245 0.053,-0.0373 0.039,-0.0268 0.08,-0.057 0.122,-0.0955 0.022,-0.0198 0.044,-0.0442 0.067,-0.0663 0.041,-0.0408 0.082,-0.0839 0.124,-0.1328 0.024,-0.0291 0.05,-0.0593 0.075,-0.0908 0.041,-0.0501 0.082,-0.1024 0.122,-0.1572 0.027,-0.0361 0.055,-0.0733 0.083,-0.1106 0.041,-0.0559 0.081,-0.1153 0.122,-0.1735 0.028,-0.0407 0.056,-0.0803 0.084,-0.1211 0.042,-0.0617 0.082,-0.1246 0.123,-0.1886 0.027,-0.0407 0.055,-0.0815 0.08,-0.1223 0.064,-0.0978 0.127,-0.1956 0.188,-0.291 0,0 0,0 1.029,-1.5777 6.48,-9.9227 14.916,-22.0203 22.406,-32.4622 2.224,-3.1065 2.607,-3.6305 2.607,-3.6305 0.045,-0.0547 0.088,-0.1152 0.133,-0.1711 0.965,-1.3053 2.187,-2.7106 2.679,-3.6934 0.14,-0.2864 0.234,-0.5437 0.218,-0.7475 -0.01,-0.0966 -0.057,-0.1711 -0.136,-0.2317 -0.026,-0.0221 -0.074,-0.0314 -0.109,-0.0489 -0.065,-0.0326 -0.125,-0.0675 -0.209,-0.0885 -0.057,-0.0151 -0.127,-0.0198 -0.191,-0.0303 -0.079,-0.0128 -0.155,-0.0279 -0.242,-0.0349 -0.079,-0.0058 -0.163,-0.0058 -0.246,-0.0081 -0.085,-0.0024 -0.17,-0.0082 -0.256,-0.0082 -0.302,0.0035 -0.591,0.0186 -0.785,0.0256 0,0 0,0 -1.47,0.0641 -4.274,0.1839 -8.654,0.418 -12.821,0.7032 0.314,-7.3424 0.712,-15.7641 1.043,-23.0274 0.085,-2.0166 0.085,-2.0166 0.085,-2.0166 0,-0.0559 0,-0.1211 0.01,-0.1805 0.036,-0.7708 0.066,-1.80826 -0.173,-2.11099 -0.04,-0.04541 -0.083,-0.08034 -0.136,-0.08616 -0.031,-0.0047 -0.07,0.0058 -0.106,0.01397 -0.025,0.0047 -0.051,0.007 -0.079,0.01863 -0.031,0.01281 -0.067,0.0326 -0.101,0.0524 -0.029,0.0163 -0.058,0.03027 -0.09,0.05123 -0.036,0.02445 -0.074,0.05705 -0.113,0.08732 -0.033,0.02678 -0.067,0.05007 -0.102,0.08151 -0.039,0.03493 -0.081,0.07801 -0.123,0.11876 -0.036,0.03493 -0.072,0.06754 -0.108,0.10593 -0.047,0.0478 -0.094,0.1013 -0.142,0.1526 -0.035,0.0395 -0.071,0.0745 -0.107,0.1164 -0.052,0.0605 -0.107,0.1257 -0.162,0.1909 -0.032,0.0396 -0.066,0.0769 -0.099,0.1176 -0.072,0.0862 -0.143,0.177 -0.215,0.2679 -0.019,0.0221 -0.035,0.043 -0.052,0.0652 -0.092,0.1164 -0.184,0.2352 -0.276,0.3562 -0.245,0.3214 -0.496,0.6556 -0.733,0.9676 0,0 0,0 -1.725,2.3439 -0.169,0.2352 -0.355,0.4867 -0.537,0.7289 -4.839,6.5995 -13.948,19.4086 -13.948,19.4086 -0.439,0.6113 -0.853,1.1923 -1.254,1.7442 -0.319,0.4506 -0.633,0.9 -0.954,1.3506 -0.282,0.3982 -4.088,5.7671 -4.914,6.9384 -1.429,2.0283 -1.429,2.0283 -1.429,2.0283 -0.363,0.5123 -0.889,1.2179 -1.308,1.8548 z"
     fill="#ffbd5a"
     id="path5082" />
  <g
     filter="url(#filter1_dd_98_1379)"
     id="g5086"
     transform="translate(-1555.841)">
    <path
       d="m 613,90.7 c -4.867,0 -9.267,-0.8333 -13.2,-2.5 -3.867,-1.6667 -6.933,-4.0667 -9.2,-7.2 -2.267,-3.1333 -3.433,-6.8333 -3.5,-11.1 h 15 c 0.2,2.8667 1.2,5.1333 3,6.8 1.867,1.6667 4.4,2.5 7.6,2.5 3.267,0 5.833,-0.7667 7.7,-2.3 1.867,-1.6 2.8,-3.6667 2.8,-6.2 0,-2.0667 -0.633,-3.7667 -1.9,-5.1 -1.267,-1.3333 -2.867,-2.3667 -4.8,-3.1 -1.867,-0.8 -4.467,-1.6667 -7.8,-2.6 -4.533,-1.3333 -8.233,-2.6333 -11.1,-3.9 -2.8,-1.3333 -5.233,-3.3 -7.3,-5.9 -2,-2.6667 -3,-6.2 -3,-10.6 0,-4.1333 1.033,-7.7333 3.1,-10.8 2.067,-3.0667 4.967,-5.4 8.7,-7 3.733,-1.6667 8,-2.5 12.8,-2.5 7.2,0 13.033,1.7667 17.5,5.3 4.533,3.4667 7.033,8.3333 7.5,14.6 h -15.4 c -0.133,-2.4 -1.167,-4.3667 -3.1,-5.9 -1.867,-1.6 -4.367,-2.4 -7.5,-2.4 -2.733,0 -4.933,0.7 -6.6,2.1 -1.6,1.4 -2.4,3.4333 -2.4,6.1 0,1.8667 0.6,3.4333 1.8,4.7 1.267,1.2 2.8,2.2 4.6,3 1.867,0.7333 4.467,1.6 7.8,2.6 4.533,1.3333 8.233,2.6667 11.1,4 2.867,1.3333 5.333,3.3333 7.4,6 2.067,2.6667 3.1,6.1667 3.1,10.5 0,3.7333 -0.967,7.2 -2.9,10.4 -1.933,3.2 -4.767,5.7667 -8.5,7.7 -3.733,1.8667 -8.167,2.8 -13.3,2.8 z M 663.838,31.5 V 49 h 23.5 v 11.1 h -23.5 v 18.5 h 26.5 V 90 h -40.5 V 20.1 h 40.5 v 11.4 z m 53.222,47.4 h 23 V 90 h -37 V 20.2 h 14 z m 74.999,-58.7 v 11.3 h -29.1 v 17.9 h 22.3 v 11.1 h -22.3 V 90 h -14 V 20.2 Z m 52.527,28.2 v 11.8 h -42.4 V 48.4 Z m 39.801,42.3 c -4.867,0 -9.267,-0.8333 -13.2,-2.5 -3.867,-1.6667 -6.934,-4.0667 -9.2,-7.2 -2.267,-3.1333 -3.434,-6.8333 -3.5,-11.1 h 15 c 0.2,2.8667 1.2,5.1333 3,6.8 1.866,1.6667 4.4,2.5 7.6,2.5 3.266,0 5.833,-0.7667 7.7,-2.3 1.866,-1.6 2.8,-3.6667 2.8,-6.2 0,-2.0667 -0.634,-3.7667 -1.9,-5.1 -1.267,-1.3333 -2.867,-2.3667 -4.8,-3.1 -1.867,-0.8 -4.467,-1.6667 -7.8,-2.6 -4.534,-1.3333 -8.234,-2.6333 -11.1,-3.9 -2.8,-1.3333 -5.234,-3.3 -7.3,-5.9 -2,-2.6667 -3,-6.2 -3,-10.6 0,-4.1333 1.033,-7.7333 3.1,-10.8 2.066,-3.0667 4.966,-5.4 8.7,-7 3.733,-1.6667 8,-2.5 12.8,-2.5 7.2,0 13.033,1.7667 17.5,5.3 4.533,3.4667 7.033,8.3333 7.5,14.6 h -15.4 c -0.134,-2.4 -1.167,-4.3667 -3.1,-5.9 -1.867,-1.6 -4.367,-2.4 -7.5,-2.4 -2.734,0 -4.934,0.7 -6.6,2.1 -1.6,1.4 -2.4,3.4333 -2.4,6.1 0,1.8667 0.6,3.4333 1.8,4.7 1.266,1.2 2.8,2.2 4.6,3 1.866,0.7333 4.466,1.6 7.8,2.6 4.533,1.3333 8.233,2.6667 11.1,4 2.866,1.3333 5.333,3.3333 7.4,6 2.066,2.6667 3.1,6.1667 3.1,10.5 0,3.7333 -0.967,7.2 -2.9,10.4 -1.934,3.2 -4.767,5.7667 -8.5,7.7 -3.734,1.8667 -8.167,2.8 -13.3,2.8 z m 69.237,0 c -6.533,0 -12.533,-1.5333 -18,-4.6 -5.466,-3.0667 -9.8,-7.3 -13,-12.7 -3.2,-5.4667 -4.8,-11.6333 -4.8,-18.5 0,-6.8 1.6,-12.9 4.8,-18.3 3.2,-5.4667 7.534,-9.7333 13,-12.8 5.467,-3.0667 11.467,-4.6 18,-4.6 6.6,0 12.6,1.5333 18,4.6 5.467,3.0667 9.767,7.3333 12.9,12.8 3.2,5.4 4.8,11.5 4.8,18.3 0,6.8667 -1.6,13.0333 -4.8,18.5 -3.133,5.4 -7.433,9.6333 -12.9,12.7 -5.466,3.0667 -11.466,4.6 -18,4.6 z m 0,-12.5 c 4.2,0 7.9,-0.9333 11.1,-2.8 3.2,-1.9333 5.7,-4.6667 7.5,-8.2 1.8,-3.5333 2.7,-7.6333 2.7,-12.3 0,-4.6667 -0.9,-8.7333 -2.7,-12.2 -1.8,-3.5333 -4.3,-6.2333 -7.5,-8.1 -3.2,-1.8667 -6.9,-2.8 -11.1,-2.8 -4.2,0 -7.933,0.9333 -11.2,2.8 -3.2,1.8667 -5.7,4.5667 -7.5,8.1 -1.8,3.4667 -2.7,7.5333 -2.7,12.2 0,4.6667 0.9,8.7667 2.7,12.3 1.8,3.5333 4.3,6.2667 7.5,8.2 3.267,1.8667 7,2.8 11.2,2.8 z m 108.816,-58 -25.6,69.8 h -17 l -25.6,-69.8 h 15 l 19.2,55.5 19.1,-55.5 z m 22.39,11.3 V 49 h 23.5 v 11.1 h -23.5 v 18.5 h 26.5 V 90 h -40.5 V 20.1 h 40.5 v 11.4 z m 75.23,58.5 -15.4,-27.2 h -6.6 V 90 h -14 V 20.2 h 26.2 c 5.4,0 10,0.9667 13.8,2.9 3.8,1.8667 6.63,4.4333 8.5,7.7 1.93,3.2 2.9,6.8 2.9,10.8 0,4.6 -1.34,8.7667 -4,12.5 -2.67,3.6667 -6.64,6.2 -11.9,7.6 l 16.7,28.3 z m -22,-37.7 h 11.7 c 3.8,0 6.63,-0.9 8.5,-2.7 1.86,-1.8667 2.8,-4.4333 2.8,-7.7 0,-3.2 -0.94,-5.6667 -2.8,-7.4 -1.87,-1.8 -4.7,-2.7 -8.5,-2.7 h -11.7 z m 64.06,-20.8 V 49 h 23.5 v 11.1 h -23.5 v 18.5 h 26.5 V 90 h -40.5 V 20.1 h 40.5 v 11.4 z m 53.22,-11.3 V 90 h -14 V 20.2 Z m 62.43,21 c -1.6,-2.9333 -3.8,-5.1667 -6.6,-6.7 -2.8,-1.5333 -6.06,-2.3 -9.8,-2.3 -4.13,0 -7.8,0.9333 -11,2.8 -3.2,1.8667 -5.7,4.5333 -7.5,8 -1.8,3.4667 -2.7,7.4667 -2.7,12 0,4.6667 0.9,8.7333 2.7,12.2 1.87,3.4667 4.44,6.1333 7.7,8 3.27,1.8667 7.07,2.8 11.4,2.8 5.34,0 9.7,-1.4 13.1,-4.2 3.4,-2.8667 5.64,-6.8333 6.7,-11.9 h -24 V 51.2 h 37.8 v 12.2 c -0.93,4.8667 -2.93,9.3667 -6,13.5 -3.06,4.1333 -7.03,7.4667 -11.9,10 -4.8,2.4667 -10.2,3.7 -16.2,3.7 -6.73,0 -12.83,-1.5 -18.3,-4.5 -5.4,-3.0667 -9.66,-7.3 -12.8,-12.7 -3.06,-5.4 -4.6,-11.5333 -4.6,-18.4 0,-6.8667 1.54,-13 4.6,-18.4 3.14,-5.4667 7.4,-9.7 12.8,-12.7 5.47,-3.0667 11.54,-4.6 18.2,-4.6 7.87,0 14.7,1.9333 20.5,5.8 5.8,3.8 9.8,9.1667 12,16.1 z m 87.86,48.8 h -14 l -31.7,-47.9 V 90 h -14 V 20.1 h 14 l 31.7,48 v -48 h 14 z m 61.34,-69.8 v 11.3 h -18.6 V 90 h -14 V 31.5 h -18.6 V 20.2 Z m 65.71,0 -23.6,45.5 V 90 h -14 V 65.7 l -23.7,-45.5 h 15.8 l 15,31.9 14.9,-31.9 z m 74.7,56.5 h -27.8 l -4.6,13.3 h -14.7 l 25.1,-69.9 h 16.3 l 25.1,69.9 h -14.8 z m -3.8,-11.2 -10.1,-29.2 -10.1,29.2 z m 92.29,24.5 h -14 l -31.7,-47.9 V 90 h -14 V 20.1 h 14 l 31.7,48 v -48 h 14 z m 38.23,-69.8 c 7.33,0 13.77,1.4333 19.3,4.3 5.6,2.8667 9.9,6.9667 12.9,12.3 3.07,5.2667 4.6,11.4 4.6,18.4 0,7 -1.53,13.1333 -4.6,18.4 -3,5.2 -7.3,9.2333 -12.9,12.1 -5.53,2.8667 -11.97,4.3 -19.3,4.3 h -24.4 V 20.2 Z m -0.5,57.9 c 7.33,0 13,-2 17,-6 4,-4 6,-9.6333 6,-16.9 0,-7.2667 -2,-12.9333 -6,-17 -4,-4.1333 -9.67,-6.2 -17,-6.2 h -9.9 v 46.1 z m 122.51,-36.3 c 0,3.7333 -0.9,7.2333 -2.7,10.5 -1.73,3.2667 -4.5,5.9 -8.3,7.9 -3.73,2 -8.47,3 -14.2,3 h -11.7 V 90 h -14 V 20.2 h 25.7 c 5.4,0 10,0.9333 13.8,2.8 3.8,1.8667 6.63,4.4333 8.5,7.7 1.93,3.2667 2.9,6.9667 2.9,11.1 z m -25.8,10.1 c 3.87,0 6.73,-0.8667 8.6,-2.6 1.87,-1.8 2.8,-4.3 2.8,-7.5 0,-6.8 -3.8,-10.2 -11.4,-10.2 h -11.1 v 20.3 z m 78.54,24.8 h -27.8 l -4.6,13.3 h -14.7 l 25.1,-69.9 h 16.3 l 25.1,69.9 h -14.8 z m -3.8,-11.2 -10.1,-29.2 -10.1,29.2 z m 68.58,24.5 -15.4,-27.2 h -6.6 V 90 h -14 V 20.2 h 26.2 c 5.4,0 10,0.9667 13.8,2.9 3.8,1.8667 6.63,4.4333 8.5,7.7 1.93,3.2 2.9,6.8 2.9,10.8 0,4.6 -1.33,8.7667 -4,12.5 -2.67,3.6667 -6.63,6.2 -11.9,7.6 l 16.7,28.3 z m -22,-37.7 h 11.7 c 3.8,0 6.63,-0.9 8.5,-2.7 1.87,-1.8667 2.8,-4.4333 2.8,-7.7 0,-3.2 -0.93,-5.6667 -2.8,-7.4 -1.87,-1.8 -4.7,-2.7 -8.5,-2.7 h -11.7 z m 92.86,24.4 h -27.8 l -4.6,13.3 h -14.7 l 25.1,-69.9 h 16.3 l 25.1,69.9 h -14.8 z m -3.8,-11.2 -10.1,-29.2 -10.1,29.2 z m 46.59,13.4 h 23 V 90 h -37 V 20.2 h 14 z m 45.89,0 h 23 V 90 h -37 V 20.2 h 14 z m 45.9,-47.4 V 49 h 23.5 v 11.1 h -23.5 v 18.5 h 26.5 V 90 h -40.5 V 20.1 h 40.5 v 11.4 z m 53.22,47.4 h 23 V 90 h -37 V 20.2 h 14 z m 69.73,-58.7 V 90 h -14 V 20.2 Z m 73.53,69.8 h -14 l -31.7,-47.9 V 90 h -14 V 20.1 h 14 l 31.7,48 v -48 h 14 z m 37.94,0.7 c -4.87,0 -9.27,-0.8333 -13.2,-2.5 -3.87,-1.6667 -6.94,-4.0667 -9.2,-7.2 -2.27,-3.1333 -3.44,-6.8333 -3.5,-11.1 h 15 c 0.2,2.8667 1.2,5.1333 3,6.8 1.86,1.6667 4.4,2.5 7.6,2.5 3.26,0 5.83,-0.7667 7.7,-2.3 1.86,-1.6 2.8,-3.6667 2.8,-6.2 0,-2.0667 -0.64,-3.7667 -1.9,-5.1 -1.27,-1.3333 -2.87,-2.3667 -4.8,-3.1 -1.87,-0.8 -4.47,-1.6667 -7.8,-2.6 -4.54,-1.3333 -8.24,-2.6333 -11.1,-3.9 -2.8,-1.3333 -5.24,-3.3 -7.3,-5.9 -2,-2.6667 -3,-6.2 -3,-10.6 0,-4.1333 1.03,-7.7333 3.1,-10.8 2.06,-3.0667 4.96,-5.4 8.7,-7 3.73,-1.6667 8,-2.5 12.8,-2.5 7.2,0 13.03,1.7667 17.5,5.3 4.53,3.4667 7.03,8.3333 7.5,14.6 h -15.4 c -0.14,-2.4 -1.17,-4.3667 -3.1,-5.9 -1.87,-1.6 -4.37,-2.4 -7.5,-2.4 -2.74,0 -4.94,0.7 -6.6,2.1 -1.6,1.4 -2.4,3.4333 -2.4,6.1 0,1.8667 0.6,3.4333 1.8,4.7 1.26,1.2 2.8,2.2 4.6,3 1.86,0.7333 4.46,1.6 7.8,2.6 4.53,1.3333 8.23,2.6667 11.1,4 2.86,1.3333 5.33,3.3333 7.4,6 2.06,2.6667 3.1,6.1667 3.1,10.5 0,3.7333 -0.97,7.2 -2.9,10.4 -1.94,3.2 -4.77,5.7667 -8.5,7.7 -3.74,1.8667 -8.17,2.8 -13.3,2.8 z m 84.34,-70.5 v 11.3 h -18.6 V 90 h -14 V 31.5 h -18.6 V 20.2 Z m 24.21,0 V 90 h -14 V 20.2 Z m 61.33,0 v 11.3 h -18.6 V 90 h -14 V 31.5 h -18.6 V 20.2 Z m 24.02,0 v 43.2 c 0,4.7333 1.23,8.3667 3.7,10.9 2.46,2.4667 5.93,3.7 10.4,3.7 4.53,0 8.03,-1.2333 10.5,-3.7 2.46,-2.5333 3.7,-6.1667 3.7,-10.9 V 20.2 h 14.1 v 43.1 c 0,5.9333 -1.3,10.9667 -3.9,15.1 -2.54,4.0667 -5.97,7.1333 -10.3,9.2 -4.27,2.0667 -9.04,3.1 -14.3,3.1 -5.2,0 -9.94,-1.0333 -14.2,-3.1 -4.2,-2.0667 -7.54,-5.1333 -10,-9.2 -2.47,-4.1333 -3.7,-9.1667 -3.7,-15.1 V 20.2 Z m 103.42,0 v 11.3 h -18.6 V 90 h -14 V 31.5 h -18.6 V 20.2 Z m 24.22,0 V 90 h -14 V 20.2 Z m 46.23,70.5 c -6.53,0 -12.53,-1.5333 -18,-4.6 -5.47,-3.0667 -9.8,-7.3 -13,-12.7 -3.2,-5.4667 -4.8,-11.6333 -4.8,-18.5 0,-6.8 1.6,-12.9 4.8,-18.3 3.2,-5.4667 7.53,-9.7333 13,-12.8 5.47,-3.0667 11.47,-4.6 18,-4.6 6.6,0 12.6,1.5333 18,4.6 5.47,3.0667 9.77,7.3333 12.9,12.8 3.2,5.4 4.8,11.5 4.8,18.3 0,6.8667 -1.6,13.0333 -4.8,18.5 -3.13,5.4 -7.43,9.6333 -12.9,12.7 -5.47,3.0667 -11.47,4.6 -18,4.6 z m 0,-12.5 c 4.2,0 7.9,-0.9333 11.1,-2.8 3.2,-1.9333 5.7,-4.6667 7.5,-8.2 1.8,-3.5333 2.7,-7.6333 2.7,-12.3 0,-4.6667 -0.9,-8.7333 -2.7,-12.2 -1.8,-3.5333 -4.3,-6.2333 -7.5,-8.1 -3.2,-1.8667 -6.9,-2.8 -11.1,-2.8 -4.2,0 -7.93,0.9333 -11.2,2.8 -3.2,1.8667 -5.7,4.5667 -7.5,8.1 -1.8,3.4667 -2.7,7.5333 -2.7,12.2 0,4.6667 0.9,8.7667 2.7,12.3 1.8,3.5333 4.3,6.2667 7.5,8.2 3.27,1.8667 7,2.8 11.2,2.8 z M 2887.08,90 h -14 l -31.7,-47.9 V 90 h -14 V 20.1 h 14 l 31.7,48 v -48 h 14 z m 37.93,0.7 c -4.86,0 -9.26,-0.8333 -13.2,-2.5 -3.86,-1.6667 -6.93,-4.0667 -9.2,-7.2 -2.26,-3.1333 -3.43,-6.8333 -3.5,-11.1 h 15 c 0.2,2.8667 1.2,5.1333 3,6.8 1.87,1.6667 4.4,2.5 7.6,2.5 3.27,0 5.84,-0.7667 7.7,-2.3 1.87,-1.6 2.8,-3.6667 2.8,-6.2 0,-2.0667 -0.63,-3.7667 -1.9,-5.1 -1.26,-1.3333 -2.86,-2.3667 -4.8,-3.1 -1.86,-0.8 -4.46,-1.6667 -7.8,-2.6 -4.53,-1.3333 -8.23,-2.6333 -11.1,-3.9 -2.8,-1.3333 -5.23,-3.3 -7.3,-5.9 -2,-2.6667 -3,-6.2 -3,-10.6 0,-4.1333 1.04,-7.7333 3.1,-10.8 2.07,-3.0667 4.97,-5.4 8.7,-7 3.74,-1.6667 8,-2.5 12.8,-2.5 7.2,0 13.04,1.7667 17.5,5.3 4.54,3.4667 7.04,8.3333 7.5,14.6 h -15.4 c -0.13,-2.4 -1.16,-4.3667 -3.1,-5.9 -1.86,-1.6 -4.36,-2.4 -7.5,-2.4 -2.73,0 -4.93,0.7 -6.6,2.1 -1.6,1.4 -2.4,3.4333 -2.4,6.1 0,1.8667 0.6,3.4333 1.8,4.7 1.27,1.2 2.8,2.2 4.6,3 1.87,0.7333 4.47,1.6 7.8,2.6 4.54,1.3333 8.24,2.6667 11.1,4 2.87,1.3333 5.34,3.3333 7.4,6 2.07,2.6667 3.1,6.1667 3.1,10.5 0,3.7333 -0.96,7.2 -2.9,10.4 -1.93,3.2 -4.76,5.7667 -8.5,7.7 -3.73,1.8667 -8.16,2.8 -13.3,2.8 z"
       fill="#fab44b"
       id="path5084" />
  </g>
  <path
     d="m 1492.839,48.663 c -0.41,0.6206 -0.71,1.1795 -0.68,1.4322 0.01,0.0303 0.02,0.057 0.03,0.0826 v 0.0024 c 0.02,0.0314 0.04,0.057 0.07,0.0815 0.04,0.0431 0.11,0.078 0.19,0.1071 0.16,0.0489 1.33,0.007 1.67,-0.021 0.94,-0.078 1.87,-0.1443 2.81,-0.1979 0.26,-0.0151 0.53,-0.0244 0.8,-0.0384 1.22,-0.0606 2.43,-0.1083 3.62,-0.1363 0.96,-0.0244 1.9,-0.0395 2.83,-0.0489 0.26,-0.0023 0.51,-0.0034 0.76,-0.0046 0.86,-0.0047 1.72,-0.007 2.53,0.0012 -0.28,7.1188 -0.62,14.6662 -0.9,21.8525 -0.05,1.1097 -0.09,2.21 -0.13,3.2975 -0.09,2.3171 -0.09,2.3171 -0.09,2.3171 -0.01,0.1641 -0.02,0.3376 -0.02,0.5099 -0.03,1.0433 -0.03,2.1937 0.2,2.5057 0,0.0152 0.01,0.028 0.02,0.0396 0.04,0.0384 0.09,0.0559 0.14,0.0547 0,0 0.01,-0.0023 0.01,-0.0023 0.04,-0.0023 0.09,-0.0186 0.14,-0.0477 0.02,-0.0093 0.04,-0.0245 0.06,-0.0373 0.04,-0.0268 0.08,-0.057 0.12,-0.0955 0.02,-0.0198 0.04,-0.0442 0.07,-0.0663 0.04,-0.0408 0.08,-0.0839 0.12,-0.1328 0.02,-0.0291 0.05,-0.0593 0.07,-0.0908 0.04,-0.0501 0.09,-0.1024 0.13,-0.1572 0.02,-0.0361 0.05,-0.0733 0.08,-0.1106 0.04,-0.0559 0.08,-0.1153 0.12,-0.1735 0.03,-0.0407 0.06,-0.0803 0.08,-0.1211 0.05,-0.0617 0.09,-0.1246 0.13,-0.1886 0.02,-0.0407 0.05,-0.0815 0.08,-0.1223 0.06,-0.0978 0.13,-0.1956 0.19,-0.291 0,0 0,0 1.03,-1.5777 6.47,-9.9227 14.91,-22.0203 22.4,-32.4622 2.23,-3.1065 2.61,-3.6305 2.61,-3.6305 0.04,-0.0547 0.09,-0.1152 0.13,-0.1711 0.97,-1.3053 2.19,-2.7106 2.68,-3.6934 0.14,-0.2864 0.23,-0.5437 0.22,-0.7475 -0.01,-0.0966 -0.06,-0.1711 -0.14,-0.2317 -0.02,-0.0221 -0.07,-0.0314 -0.11,-0.0489 -0.06,-0.0326 -0.12,-0.0675 -0.21,-0.0885 -0.05,-0.0151 -0.12,-0.0198 -0.19,-0.0303 -0.08,-0.0128 -0.15,-0.0279 -0.24,-0.0349 -0.08,-0.0058 -0.16,-0.0058 -0.24,-0.0081 -0.09,-0.0024 -0.17,-0.0082 -0.26,-0.0082 -0.3,0.0035 -0.59,0.0186 -0.79,0.0256 0,0 0,0 -1.47,0.0641 -4.27,0.1839 -8.65,0.418 -12.82,0.7032 0.32,-7.3424 0.72,-15.7641 1.05,-23.0274 0.08,-2.0166 0.08,-2.0166 0.08,-2.0166 0,-0.0559 0.01,-0.1211 0.01,-0.1805 0.03,-0.7708 0.06,-1.80826 -0.17,-2.11099 -0.05,-0.04541 -0.09,-0.08034 -0.14,-0.08616 -0.03,-0.0047 -0.07,0.0058 -0.11,0.01397 -0.02,0.0047 -0.05,0.007 -0.08,0.01863 -0.03,0.01281 -0.06,0.0326 -0.1,0.0524 -0.03,0.0163 -0.06,0.03027 -0.09,0.05123 -0.03,0.02445 -0.07,0.05705 -0.11,0.08732 -0.03,0.02678 -0.07,0.05007 -0.1,0.08151 -0.04,0.03493 -0.08,0.07801 -0.12,0.11876 -0.04,0.03493 -0.08,0.06754 -0.11,0.10593 -0.05,0.0478 -0.1,0.1013 -0.15,0.1526 -0.03,0.0395 -0.07,0.0745 -0.1,0.1164 -0.05,0.0605 -0.11,0.1257 -0.16,0.1909 -0.04,0.0396 -0.07,0.0769 -0.1,0.1176 -0.07,0.0862 -0.15,0.177 -0.22,0.2679 -0.02,0.0221 -0.03,0.043 -0.05,0.0652 -0.09,0.1164 -0.18,0.2352 -0.28,0.3562 -0.24,0.3214 -0.49,0.6556 -0.73,0.9676 0,0 0,0 -1.72,2.3439 -0.17,0.2352 -0.36,0.4867 -0.54,0.7289 -4.84,6.5995 -13.95,19.4086 -13.95,19.4086 -0.44,0.6113 -0.85,1.1923 -1.25,1.7442 -0.32,0.4506 -0.64,0.9 -0.96,1.3506 -0.28,0.3982 -4.08,5.7671 -4.91,6.9384 -1.43,2.0283 -1.43,2.0283 -1.43,2.0283 -0.36,0.5123 -0.89,1.2179 -1.31,1.8548 z"
     fill="#ffbd5a"
     id="path5088" />
  <defs
     id="defs5140">
    <filter
       id="filter0_dd_98_1379"
       x="4.9000201"
       y="18.200199"
       width="396.60999"
       height="73.5"
       filterUnits="userSpaceOnUse"
       color-interpolation-filters="sRGB">
      <feFlood
         flood-opacity="0"
         result="BackgroundImageFix"
         id="feFlood5090" />
      <feColorMatrix
         in="SourceAlpha"
         type="matrix"
         values="0 0 0 0 0 0 0 0 0 0 0 0 0 0 0 0 0 0 127 0"
         result="hardAlpha"
         id="feColorMatrix5092" />
      <feOffset
         dx="2"
         dy="-1"
         id="feOffset5094" />
      <feComposite
         in2="hardAlpha"
         operator="out"
         id="feComposite5096" />
      <feColorMatrix
         type="matrix"
         values="0 0 0 0 0.952941 0 0 0 0 0.301961 0 0 0 0 0.301961 0 0 0 1 0"
         id="feColorMatrix5098" />
      <feBlend
         mode="normal"
         in2="BackgroundImageFix"
         result="effect1_dropShadow_98_1379"
         id="feBlend5100" />
      <feColorMatrix
         in="SourceAlpha"
         type="matrix"
         values="0 0 0 0 0 0 0 0 0 0 0 0 0 0 0 0 0 0 127 0"
         result="hardAlpha"
         id="feColorMatrix5102" />
      <feOffset
         dx="-2"
         dy="1"
         id="feOffset5104" />
      <feComposite
         in2="hardAlpha"
         operator="out"
         id="feComposite5106" />
      <feColorMatrix
         type="matrix"
         values="0 0 0 0 0.247059 0 0 0 0 0.411765 0 0 0 0 1 0 0 0 1 0"
         id="feColorMatrix5108" />
      <feBlend
         mode="normal"
         in2="effect1_dropShadow_98_1379"
         result="effect2_dropShadow_98_1379"
         id="feBlend5110" />
      <feBlend
         mode="normal"
         in="SourceGraphic"
         in2="effect2_dropShadow_98_1379"
         result="shape"
         id="feBlend5112" />
    </filter>
    <filter
       id="filter1_dd_98_1379"
       x="585.09998"
       y="18.200199"
       width="2366.6101"
       height="73.5"
       filterUnits="userSpaceOnUse"
       color-interpolation-filters="sRGB">
      <feFlood
         flood-opacity="0"
         result="BackgroundImageFix"
         id="feFlood5115" />
      <feColorMatrix
         in="SourceAlpha"
         type="matrix"
         values="0 0 0 0 0 0 0 0 0 0 0 0 0 0 0 0 0 0 127 0"
         result="hardAlpha"
         id="feColorMatrix5117" />
      <feOffset
         dx="2"
         dy="-1"
         id="feOffset5119" />
      <feComposite
         in2="hardAlpha"
         operator="out"
         id="feComposite5121" />
      <feColorMatrix
         type="matrix"
         values="0 0 0 0 0.952941 0 0 0 0 0.301961 0 0 0 0 0.301961 0 0 0 1 0"
         id="feColorMatrix5123" />
      <feBlend
         mode="normal"
         in2="BackgroundImageFix"
         result="effect1_dropShadow_98_1379"
         id="feBlend5125" />
      <feColorMatrix
         in="SourceAlpha"
         type="matrix"
         values="0 0 0 0 0 0 0 0 0 0 0 0 0 0 0 0 0 0 127 0"
         result="hardAlpha"
         id="feColorMatrix5127" />
      <feOffset
         dx="-2"
         dy="1"
         id="feOffset5129" />
      <feComposite
         in2="hardAlpha"
         operator="out"
         id="feComposite5131" />
      <feColorMatrix
         type="matrix"
         values="0 0 0 0 0.247059 0 0 0 0 0.411765 0 0 0 0 1 0 0 0 1 0"
         id="feColorMatrix5133" />
      <feBlend
         mode="normal"
         in2="effect1_dropShadow_98_1379"
         result="effect2_dropShadow_98_1379"
         id="feBlend5135" />
      <feBlend
         mode="normal"
         in="SourceGraphic"
         in2="effect2_dropShadow_98_1379"
         result="shape"
         id="feBlend5137" />
    </filter>
  </defs>
</svg>
