<svg width="1354" height="113" viewBox="0 0 1354 113" fill="none" xmlns="http://www.w3.org/2000/svg">
<path d="M31.4434 93.3089C26.5767 93.3089 22.1767 92.4756 18.2434 90.8089C14.3767 89.1422 11.31 86.7422 9.04336 83.6089C6.77669 80.4756 5.61003 76.7756 5.54336 72.5089H20.5434C20.7434 75.3756 21.7434 77.6422 23.5434 79.3089C25.41 80.9756 27.9434 81.8089 31.1434 81.8089C34.41 81.8089 36.9767 81.0422 38.8434 79.5089C40.71 77.9089 41.6434 75.8422 41.6434 73.3089C41.6434 71.2422 41.01 69.5422 39.7434 68.2089C38.4767 66.8756 36.8767 65.8422 34.9434 65.1089C33.0767 64.3089 30.4767 63.4422 27.1434 62.5089C22.61 61.1756 18.91 59.8756 16.0434 58.6089C13.2434 57.2756 10.81 55.3089 8.74336 52.7089C6.74336 50.0422 5.74336 46.5089 5.74336 42.1089C5.74336 37.9756 6.77669 34.3756 8.84336 31.3089C10.91 28.2422 13.81 25.9089 17.5434 24.3089C21.2767 22.6422 25.5434 21.8089 30.3434 21.8089C37.5434 21.8089 43.3767 23.5756 47.8434 27.1089C52.3767 30.5755 54.8767 35.4422 55.3434 41.7089H39.9434C39.81 39.3089 38.7767 37.3422 36.8434 35.8089C34.9767 34.2089 32.4767 33.4089 29.3434 33.4089C26.61 33.4089 24.41 34.1089 22.7434 35.5089C21.1434 36.9089 20.3434 38.9422 20.3434 41.6089C20.3434 43.4756 20.9434 45.0422 22.1434 46.3089C23.41 47.5089 24.9434 48.5089 26.7434 49.3089C28.61 50.0422 31.21 50.9089 34.5434 51.9089C39.0767 53.2422 42.7767 54.5756 45.6434 55.9089C48.51 57.2422 50.9767 59.2422 53.0434 61.9089C55.11 64.5756 56.1434 68.0756 56.1434 72.4089C56.1434 76.1422 55.1767 79.6089 53.2434 82.8089C51.31 86.0089 48.4767 88.5756 44.7434 90.5089C41.01 92.3756 36.5767 93.3089 31.4434 93.3089ZM119.181 44.4089C119.181 48.1422 118.281 51.6422 116.481 54.9089C114.748 58.1756 111.981 60.8089 108.181 62.8089C104.448 64.8089 99.7142 65.8089 93.9809 65.8089H82.2809V92.6089H68.2809V22.8089H93.9809C99.3809 22.8089 103.981 23.7422 107.781 25.6089C111.581 27.4756 114.414 30.0422 116.281 33.3089C118.214 36.5755 119.181 40.2756 119.181 44.4089ZM93.3809 54.5089C97.2475 54.5089 100.114 53.6422 101.981 51.9089C103.848 50.1089 104.781 47.6089 104.781 44.4089C104.781 37.6089 100.981 34.2089 93.3809 34.2089H82.2809V54.5089H93.3809ZM143.121 34.1089V51.6089H166.621V62.7089H143.121V81.2089H169.621V92.6089H129.121V22.7089H169.621V34.1089H143.121ZM225.143 79.3089H197.343L192.743 92.6089H178.043L203.143 22.7089H219.443L244.543 92.6089H229.743L225.143 79.3089ZM221.343 68.1089L211.243 38.9089L201.143 68.1089H221.343ZM293.325 92.6089L267.925 61.5089V92.6089H253.925V22.8089H267.925V54.1089L293.325 22.8089H310.225L281.425 57.4089L311.025 92.6089H293.325ZM334.234 34.1089V51.6089H357.734V62.7089H334.234V81.2089H360.734V92.6089H320.234V22.7089H360.734V34.1089H334.234ZM409.457 92.6089L394.057 65.4089H387.457V92.6089H373.457V22.8089L399.657 22.8089C405.057 22.8089 409.657 23.7756 413.457 25.7089C417.257 27.5756 420.09 30.1422 421.957 33.4089C423.89 36.6089 424.857 40.2089 424.857 44.2089C424.857 48.8089 423.523 52.9756 420.857 56.7089C418.19 60.3756 414.223 62.9089 408.957 64.3089L425.657 92.6089H409.457ZM387.457 54.9089H399.157C402.957 54.9089 405.79 54.0089 407.657 52.2089C409.523 50.3422 410.457 47.7756 410.457 44.5089C410.457 41.3089 409.523 38.8422 407.657 37.1089C405.79 35.3089 402.957 34.4089 399.157 34.4089H387.457V54.9089ZM461.619 93.3089C456.752 93.3089 452.352 92.4756 448.419 90.8089C444.552 89.1422 441.486 86.7422 439.219 83.6089C436.952 80.4756 435.786 76.7756 435.719 72.5089H450.719C450.919 75.3756 451.919 77.6422 453.719 79.3089C455.586 80.9756 458.119 81.8089 461.319 81.8089C464.586 81.8089 467.152 81.0422 469.019 79.5089C470.886 77.9089 471.819 75.8422 471.819 73.3089C471.819 71.2422 471.186 69.5422 469.919 68.2089C468.652 66.8756 467.052 65.8422 465.119 65.1089C463.252 64.3089 460.652 63.4422 457.319 62.5089C452.786 61.1756 449.086 59.8756 446.219 58.6089C443.419 57.2756 440.986 55.3089 438.919 52.7089C436.919 50.0422 435.919 46.5089 435.919 42.1089C435.919 37.9756 436.952 34.3756 439.019 31.3089C441.086 28.2422 443.986 25.9089 447.719 24.3089C451.452 22.6422 455.719 21.8089 460.519 21.8089C467.719 21.8089 473.552 23.5756 478.019 27.1089C482.552 30.5755 485.052 35.4422 485.519 41.7089H470.119C469.986 39.3089 468.952 37.3422 467.019 35.8089C465.152 34.2089 462.652 33.4089 459.519 33.4089C456.786 33.4089 454.586 34.1089 452.919 35.5089C451.319 36.9089 450.519 38.9422 450.519 41.6089C450.519 43.4756 451.119 45.0422 452.319 46.3089C453.586 47.5089 455.119 48.5089 456.919 49.3089C458.786 50.0422 461.386 50.9089 464.719 51.9089C469.252 53.2422 472.952 54.5756 475.819 55.9089C478.686 57.2422 481.152 59.2422 483.219 61.9089C485.286 64.5756 486.319 68.0756 486.319 72.4089C486.319 76.1422 485.352 79.6089 483.419 82.8089C481.486 86.0089 478.652 88.5756 474.919 90.5089C471.186 92.3756 466.752 93.3089 461.619 93.3089Z" fill="#3F69FF"/>
<path d="M35.4434 91.3089C30.5767 91.3089 26.1767 90.4756 22.2434 88.8089C18.3767 87.1422 15.31 84.7422 13.0434 81.6089C10.7767 78.4756 9.61003 74.7756 9.54336 70.5089H24.5434C24.7434 73.3756 25.7434 75.6422 27.5434 77.3089C29.41 78.9756 31.9434 79.8089 35.1434 79.8089C38.41 79.8089 40.9767 79.0422 42.8434 77.5089C44.71 75.9089 45.6434 73.8422 45.6434 71.3089C45.6434 69.2422 45.01 67.5422 43.7434 66.2089C42.4767 64.8756 40.8767 63.8422 38.9434 63.1089C37.0767 62.3089 34.4767 61.4422 31.1434 60.5089C26.61 59.1756 22.91 57.8756 20.0434 56.6089C17.2434 55.2756 14.81 53.3089 12.7434 50.7089C10.7434 48.0422 9.74336 44.5089 9.74336 40.1089C9.74336 35.9756 10.7767 32.3756 12.8434 29.3089C14.91 26.2422 17.81 23.9089 21.5434 22.3089C25.2767 20.6422 29.5434 19.8089 34.3434 19.8089C41.5434 19.8089 47.3767 21.5756 51.8434 25.1089C56.3767 28.5755 58.8767 33.4422 59.3434 39.7089H43.9434C43.81 37.3089 42.7767 35.3422 40.8434 33.8089C38.9767 32.2089 36.4767 31.4089 33.3434 31.4089C30.61 31.4089 28.41 32.1089 26.7434 33.5089C25.1434 34.9089 24.3434 36.9422 24.3434 39.6089C24.3434 41.4756 24.9434 43.0422 26.1434 44.3089C27.41 45.5089 28.9434 46.5089 30.7434 47.3089C32.61 48.0422 35.21 48.9089 38.5434 49.9089C43.0767 51.2422 46.7767 52.5756 49.6434 53.9089C52.51 55.2422 54.9767 57.2422 57.0434 59.9089C59.11 62.5756 60.1434 66.0756 60.1434 70.4089C60.1434 74.1422 59.1767 77.6089 57.2434 80.8089C55.31 84.0089 52.4767 86.5756 48.7434 88.5089C45.01 90.3756 40.5767 91.3089 35.4434 91.3089ZM123.181 42.4089C123.181 46.1422 122.281 49.6422 120.481 52.9089C118.748 56.1756 115.981 58.8089 112.181 60.8089C108.448 62.8089 103.714 63.8089 97.9809 63.8089H86.2809V90.6089H72.2809V20.8089H97.9809C103.381 20.8089 107.981 21.7422 111.781 23.6089C115.581 25.4756 118.414 28.0422 120.281 31.3089C122.214 34.5755 123.181 38.2756 123.181 42.4089ZM97.3809 52.5089C101.248 52.5089 104.114 51.6422 105.981 49.9089C107.848 48.1089 108.781 45.6089 108.781 42.4089C108.781 35.6089 104.981 32.2089 97.3809 32.2089H86.2809V52.5089H97.3809ZM147.121 32.1089V49.6089H170.621V60.7089H147.121V79.2089H173.621V90.6089H133.121V20.7089H173.621V32.1089H147.121ZM229.143 77.3089H201.343L196.743 90.6089H182.043L207.143 20.7089H223.443L248.543 90.6089H233.743L229.143 77.3089ZM225.343 66.1089L215.243 36.9089L205.143 66.1089H225.343ZM297.325 90.6089L271.925 59.5089V90.6089H257.925V20.8089H271.925V52.1089L297.325 20.8089H314.225L285.425 55.4089L315.025 90.6089H297.325ZM338.234 32.1089V49.6089H361.734V60.7089H338.234V79.2089H364.734V90.6089H324.234V20.7089H364.734V32.1089H338.234ZM413.457 90.6089L398.057 63.4089H391.457V90.6089H377.457V20.8089L403.657 20.8089C409.057 20.8089 413.657 21.7756 417.457 23.7089C421.257 25.5756 424.09 28.1422 425.957 31.4089C427.89 34.6089 428.857 38.2089 428.857 42.2089C428.857 46.8089 427.523 50.9756 424.857 54.7089C422.19 58.3756 418.223 60.9089 412.957 62.3089L429.657 90.6089H413.457ZM391.457 52.9089H403.157C406.957 52.9089 409.79 52.0089 411.657 50.2089C413.523 48.3422 414.457 45.7756 414.457 42.5089C414.457 39.3089 413.523 36.8422 411.657 35.1089C409.79 33.3089 406.957 32.4089 403.157 32.4089H391.457V52.9089ZM465.619 91.3089C460.752 91.3089 456.352 90.4756 452.419 88.8089C448.552 87.1422 445.486 84.7422 443.219 81.6089C440.952 78.4756 439.786 74.7756 439.719 70.5089H454.719C454.919 73.3756 455.919 75.6422 457.719 77.3089C459.586 78.9756 462.119 79.8089 465.319 79.8089C468.586 79.8089 471.152 79.0422 473.019 77.5089C474.886 75.9089 475.819 73.8422 475.819 71.3089C475.819 69.2422 475.186 67.5422 473.919 66.2089C472.652 64.8756 471.052 63.8422 469.119 63.1089C467.252 62.3089 464.652 61.4422 461.319 60.5089C456.786 59.1756 453.086 57.8756 450.219 56.6089C447.419 55.2756 444.986 53.3089 442.919 50.7089C440.919 48.0422 439.919 44.5089 439.919 40.1089C439.919 35.9756 440.952 32.3756 443.019 29.3089C445.086 26.2422 447.986 23.9089 451.719 22.3089C455.452 20.6422 459.719 19.8089 464.519 19.8089C471.719 19.8089 477.552 21.5756 482.019 25.1089C486.552 28.5755 489.052 33.4422 489.519 39.7089H474.119C473.986 37.3089 472.952 35.3422 471.019 33.8089C469.152 32.2089 466.652 31.4089 463.519 31.4089C460.786 31.4089 458.586 32.1089 456.919 33.5089C455.319 34.9089 454.519 36.9422 454.519 39.6089C454.519 41.4756 455.119 43.0422 456.319 44.3089C457.586 45.5089 459.119 46.5089 460.919 47.3089C462.786 48.0422 465.386 48.9089 468.719 49.9089C473.252 51.2422 476.952 52.5756 479.819 53.9089C482.686 55.2422 485.152 57.2422 487.219 59.9089C489.286 62.5756 490.319 66.0756 490.319 70.4089C490.319 74.1422 489.352 77.6089 487.419 80.8089C485.486 84.0089 482.652 86.5756 478.919 88.5089C475.186 90.3756 470.752 91.3089 465.619 91.3089Z" fill="#F34D4D"/>
<path d="M33.6055 92.3089C28.7388 92.3089 24.3388 91.4756 20.4055 89.8089C16.5388 88.1422 13.4721 85.7422 11.2055 82.6089C8.9388 79.4756 7.77214 75.7756 7.70547 71.5089H22.7055C22.9055 74.3756 23.9055 76.6422 25.7055 78.3089C27.5721 79.9756 30.1055 80.8089 33.3055 80.8089C36.5721 80.8089 39.1388 80.0422 41.0055 78.5089C42.8721 76.9089 43.8055 74.8422 43.8055 72.3089C43.8055 70.2422 43.1721 68.5422 41.9055 67.2089C40.6388 65.8756 39.0388 64.8422 37.1055 64.1089C35.2388 63.3089 32.6388 62.4422 29.3055 61.5089C24.7721 60.1756 21.0721 58.8756 18.2055 57.6089C15.4055 56.2756 12.9721 54.3089 10.9055 51.7089C8.90547 49.0422 7.90547 45.5089 7.90547 41.1089C7.90547 36.9756 8.9388 33.3756 11.0055 30.3089C13.0721 27.2422 15.9721 24.9089 19.7055 23.3089C23.4388 21.6422 27.7055 20.8089 32.5055 20.8089C39.7055 20.8089 45.5388 22.5756 50.0055 26.1089C54.5388 29.5755 57.0388 34.4422 57.5055 40.7089H42.1055C41.9721 38.3089 40.9388 36.3422 39.0055 34.8089C37.1388 33.2089 34.6388 32.4089 31.5055 32.4089C28.7721 32.4089 26.5721 33.1089 24.9055 34.5089C23.3055 35.9089 22.5055 37.9422 22.5055 40.6089C22.5055 42.4756 23.1055 44.0422 24.3055 45.3089C25.5721 46.5089 27.1055 47.5089 28.9055 48.3089C30.7721 49.0422 33.3721 49.9089 36.7055 50.9089C41.2388 52.2422 44.9388 53.5756 47.8055 54.9089C50.6721 56.2422 53.1388 58.2422 55.2055 60.9089C57.2721 63.5756 58.3055 67.0756 58.3055 71.4089C58.3055 75.1422 57.3388 78.6089 55.4055 81.8089C53.4721 85.0089 50.6388 87.5756 46.9055 89.5089C43.1721 91.3756 38.7388 92.3089 33.6055 92.3089ZM121.343 43.4089C121.343 47.1422 120.443 50.6422 118.643 53.9089C116.91 57.1756 114.143 59.8089 110.343 61.8089C106.61 63.8089 101.876 64.8089 96.143 64.8089H84.443V91.6089H70.443V21.8089H96.143C101.543 21.8089 106.143 22.7422 109.943 24.6089C113.743 26.4756 116.576 29.0422 118.443 32.3089C120.376 35.5755 121.343 39.2756 121.343 43.4089ZM95.543 53.5089C99.4096 53.5089 102.276 52.6422 104.143 50.9089C106.01 49.1089 106.943 46.6089 106.943 43.4089C106.943 36.6089 103.143 33.2089 95.543 33.2089H84.443V53.5089H95.543ZM145.283 33.1089V50.6089H168.783V61.7089H145.283V80.2089H171.783V91.6089H131.283V21.7089H171.783V33.1089H145.283ZM227.305 78.3089H199.505L194.905 91.6089H180.205L205.305 21.7089H221.605L246.705 91.6089H231.905L227.305 78.3089ZM223.505 67.1089L213.405 37.9089L203.305 67.1089H223.505ZM295.488 91.6089L270.088 60.5089V91.6089H256.088V21.8089H270.088V53.1089L295.488 21.8089H312.388L283.588 56.4089L313.188 91.6089H295.488ZM336.396 33.1089V50.6089H359.896V61.7089H336.396V80.2089H362.896V91.6089H322.396V21.7089H362.896V33.1089H336.396ZM411.619 91.6089L396.219 64.4089H389.619V91.6089H375.619V21.8089L401.819 21.8089C407.219 21.8089 411.819 22.7756 415.619 24.7089C419.419 26.5756 422.252 29.1422 424.119 32.4089C426.052 35.6089 427.019 39.2089 427.019 43.2089C427.019 47.8089 425.685 51.9756 423.019 55.7089C420.352 59.3756 416.385 61.9089 411.119 63.3089L427.819 91.6089H411.619ZM389.619 53.9089H401.319C405.119 53.9089 407.952 53.0089 409.819 51.2089C411.685 49.3422 412.619 46.7756 412.619 43.5089C412.619 40.3089 411.685 37.8422 409.819 36.1089C407.952 34.3089 405.119 33.4089 401.319 33.4089H389.619V53.9089ZM463.781 92.3089C458.915 92.3089 454.515 91.4756 450.581 89.8089C446.715 88.1422 443.648 85.7422 441.381 82.6089C439.115 79.4756 437.948 75.7756 437.881 71.5089H452.881C453.081 74.3756 454.081 76.6422 455.881 78.3089C457.748 79.9756 460.281 80.8089 463.481 80.8089C466.748 80.8089 469.315 80.0422 471.181 78.5089C473.048 76.9089 473.981 74.8422 473.981 72.3089C473.981 70.2422 473.348 68.5422 472.081 67.2089C470.815 65.8756 469.215 64.8422 467.281 64.1089C465.415 63.3089 462.815 62.4422 459.481 61.5089C454.948 60.1756 451.248 58.8756 448.381 57.6089C445.581 56.2756 443.148 54.3089 441.081 51.7089C439.081 49.0422 438.081 45.5089 438.081 41.1089C438.081 36.9756 439.115 33.3756 441.181 30.3089C443.248 27.2422 446.148 24.9089 449.881 23.3089C453.615 21.6422 457.881 20.8089 462.681 20.8089C469.881 20.8089 475.715 22.5756 480.181 26.1089C484.715 29.5755 487.215 34.4422 487.681 40.7089H472.281C472.148 38.3089 471.115 36.3422 469.181 34.8089C467.315 33.2089 464.815 32.4089 461.681 32.4089C458.948 32.4089 456.748 33.1089 455.081 34.5089C453.481 35.9089 452.681 37.9422 452.681 40.6089C452.681 42.4756 453.281 44.0422 454.481 45.3089C455.748 46.5089 457.281 47.5089 459.081 48.3089C460.948 49.0422 463.548 49.9089 466.881 50.9089C471.415 52.2422 475.115 53.5756 477.981 54.9089C480.848 56.2422 483.315 58.2422 485.381 60.9089C487.448 63.5756 488.481 67.0756 488.481 71.4089C488.481 75.1422 487.515 78.6089 485.581 81.8089C483.648 85.0089 480.815 87.5756 477.081 89.5089C473.348 91.3756 468.915 92.3089 463.781 92.3089Z" fill="#EEDB5F"/>
<path d="M571.47 59.1369C571.189 59.5652 570.978 59.9509 571.002 60.1253C571.005 60.1462 571.013 60.1646 571.023 60.1823L571.023 60.1839C571.034 60.2056 571.046 60.2233 571.068 60.2402C571.1 60.2699 571.144 60.294 571.199 60.3141C571.31 60.3479 572.115 60.3189 572.353 60.2997C572.995 60.2458 573.635 60.2 574.283 60.163C574.467 60.1526 574.65 60.1462 574.839 60.1365C575.675 60.0947 576.508 60.0618 577.332 60.0425C577.991 60.0256 578.641 60.0152 579.282 60.0088C579.46 60.0072 579.632 60.0063 579.806 60.0055C580.399 60.0023 580.987 60.0007 581.547 60.0063C581.356 64.9194 581.122 70.1281 580.924 75.0877C580.896 75.8535 580.862 76.6129 580.835 77.3634C580.774 78.9625 580.774 78.9625 580.774 78.9625C580.771 79.0758 580.765 79.1956 580.761 79.3145C580.743 80.0345 580.743 80.8284 580.897 81.0438C580.901 81.0542 580.908 81.063 580.916 81.0711C580.943 81.0976 580.974 81.1097 581.008 81.1089C581.01 81.1089 581.013 81.1072 581.016 81.1072C581.046 81.1056 581.08 81.0944 581.115 81.0743C581.127 81.0679 581.139 81.0574 581.151 81.0486C581.178 81.0301 581.206 81.0092 581.235 80.9827C581.251 80.969 581.266 80.9522 581.282 80.9369C581.31 80.9088 581.338 80.879 581.367 80.8453C581.384 80.8252 581.401 80.8043 581.419 80.7826C581.447 80.748 581.475 80.7119 581.503 80.6741C581.521 80.6492 581.541 80.6235 581.56 80.5978C581.588 80.5592 581.616 80.5182 581.644 80.478C581.663 80.4499 581.683 80.4226 581.702 80.3945C581.731 80.3519 581.759 80.3085 581.787 80.2643C581.805 80.2362 581.824 80.208 581.842 80.1799C581.886 80.1124 581.929 80.0449 581.971 79.979C581.971 79.979 581.971 79.979 582.68 78.8902C587.144 72.0422 592.955 63.6931 598.115 56.4867C599.648 54.3428 599.911 53.9812 599.911 53.9812C599.943 53.9434 599.972 53.9016 600.003 53.8631C600.668 52.9623 601.509 51.9924 601.848 51.3142C601.945 51.1165 602.009 50.9389 601.999 50.7983C601.994 50.7316 601.96 50.6801 601.905 50.6384C601.887 50.6231 601.854 50.6167 601.83 50.6046C601.785 50.5821 601.744 50.558 601.686 50.5435C601.646 50.5331 601.598 50.5299 601.554 50.5226C601.5 50.5138 601.448 50.5034 601.387 50.4985C601.333 50.4945 601.275 50.4945 601.218 50.4929C601.16 50.4913 601.101 50.4873 601.042 50.4873C600.834 50.4897 600.635 50.5001 600.501 50.505C600.501 50.505 600.501 50.505 599.488 50.5492C596.544 50.6761 593.527 50.8376 590.656 51.0345C590.873 45.9672 591.147 40.155 591.374 35.1423C591.433 33.7506 591.433 33.7506 591.433 33.7506C591.434 33.712 591.436 33.667 591.438 33.626C591.462 33.0941 591.483 32.3781 591.319 32.1691C591.291 32.1378 591.261 32.1137 591.225 32.1097C591.204 32.1065 591.177 32.1137 591.152 32.1193C591.135 32.1225 591.117 32.1241 591.098 32.1322C591.076 32.141 591.051 32.1547 591.028 32.1683C591.008 32.1796 590.988 32.1892 590.966 32.2037C590.942 32.2206 590.915 32.2431 590.888 32.264C590.865 32.2824 590.842 32.2985 590.818 32.3202C590.791 32.3443 590.762 32.3741 590.733 32.4022C590.708 32.4263 590.684 32.4488 590.659 32.4753C590.627 32.5082 590.594 32.5452 590.561 32.5806C590.537 32.6079 590.512 32.632 590.487 32.6609C590.451 32.7027 590.413 32.7477 590.376 32.7927C590.353 32.82 590.33 32.8457 590.308 32.8739C590.258 32.9333 590.209 32.996 590.159 33.0587C590.147 33.074 590.135 33.0884 590.123 33.1037C590.06 33.184 589.997 33.266 589.933 33.3496C589.764 33.5714 589.592 33.802 589.429 34.0173C589.429 34.0173 589.429 34.0174 588.24 35.6349C588.124 35.7973 587.996 35.9708 587.87 36.138C584.537 40.6926 578.261 49.5326 578.261 49.5326C577.959 49.9545 577.674 50.3555 577.398 50.7364C577.178 51.0474 576.962 51.3575 576.74 51.6685C576.547 51.9433 573.924 55.6486 573.355 56.457C572.371 57.8568 572.371 57.8568 572.371 57.8568C572.121 58.2104 571.758 58.6973 571.47 59.1369Z" fill="#EEDB5F"/>
<path d="M708.443 93.3089C703.577 93.3089 699.177 92.4756 695.243 90.8089C691.377 89.1422 688.31 86.7422 686.043 83.6089C683.777 80.4756 682.61 76.7756 682.543 72.5089H697.543C697.743 75.3756 698.743 77.6422 700.543 79.3089C702.41 80.9756 704.943 81.8089 708.143 81.8089C711.41 81.8089 713.977 81.0422 715.843 79.5089C717.71 77.9089 718.643 75.8422 718.643 73.3089C718.643 71.2422 718.01 69.5422 716.743 68.2089C715.477 66.8756 713.877 65.8422 711.943 65.1089C710.077 64.3089 707.477 63.4422 704.143 62.5089C699.61 61.1756 695.91 59.8756 693.043 58.6089C690.243 57.2756 687.81 55.3089 685.743 52.7089C683.743 50.0422 682.743 46.5089 682.743 42.1089C682.743 37.9756 683.777 34.3756 685.843 31.3089C687.91 28.2422 690.81 25.9089 694.543 24.3089C698.277 22.6422 702.543 21.8089 707.343 21.8089C714.543 21.8089 720.377 23.5756 724.843 27.1089C729.377 30.5755 731.877 35.4422 732.343 41.7089H716.943C716.81 39.3089 715.777 37.3422 713.843 35.8089C711.977 34.2089 709.477 33.4089 706.343 33.4089C703.61 33.4089 701.41 34.1089 699.743 35.5089C698.143 36.9089 697.343 38.9422 697.343 41.6089C697.343 43.4756 697.943 45.0422 699.143 46.3089C700.41 47.5089 701.943 48.5089 703.743 49.3089C705.61 50.0422 708.21 50.9089 711.543 51.9089C716.077 53.2422 719.777 54.5756 722.643 55.9089C725.51 57.2422 727.977 59.2422 730.043 61.9089C732.11 64.5756 733.143 68.0756 733.143 72.4089C733.143 76.1422 732.177 79.6089 730.243 82.8089C728.31 86.0089 725.477 88.5756 721.743 90.5089C718.01 92.3756 713.577 93.3089 708.443 93.3089ZM796.181 44.4089C796.181 48.1422 795.281 51.6422 793.481 54.9089C791.748 58.1756 788.981 60.8089 785.181 62.8089C781.448 64.8089 776.714 65.8089 770.981 65.8089H759.281V92.6089H745.281V22.8089H770.981C776.381 22.8089 780.981 23.7422 784.781 25.6089C788.581 27.4756 791.414 30.0422 793.281 33.3089C795.214 36.5755 796.181 40.2756 796.181 44.4089ZM770.381 54.5089C774.248 54.5089 777.114 53.6422 778.981 51.9089C780.848 50.1089 781.781 47.6089 781.781 44.4089C781.781 37.6089 777.981 34.2089 770.381 34.2089H759.281V54.5089H770.381ZM820.121 34.1089V51.6089H843.621V62.7089H820.121V81.2089H846.621V92.6089H806.121V22.7089H846.621V34.1089H820.121ZM902.143 79.3089H874.343L869.743 92.6089H855.043L880.143 22.7089H896.443L921.543 92.6089H906.743L902.143 79.3089ZM898.343 68.1089L888.243 38.9089L878.143 68.1089H898.343ZM970.325 92.6089L944.925 61.5089V92.6089H930.925V22.8089H944.925V54.1089L970.325 22.8089H987.225L958.425 57.4089L988.025 92.6089H970.325ZM1011.23 34.1089V51.6089H1034.73V62.7089H1011.23V81.2089H1037.73V92.6089H997.234V22.7089H1037.73V34.1089H1011.23ZM1086.46 92.6089L1071.06 65.4089H1064.46V92.6089H1050.46V22.8089L1076.66 22.8089C1082.06 22.8089 1086.66 23.7756 1090.46 25.7089C1094.26 27.5756 1097.09 30.1422 1098.96 33.4089C1100.89 36.6089 1101.86 40.2089 1101.86 44.2089C1101.86 48.8089 1100.52 52.9756 1097.86 56.7089C1095.19 60.3756 1091.22 62.9089 1085.96 64.3089L1102.66 92.6089H1086.46ZM1064.46 54.9089H1076.16C1079.96 54.9089 1082.79 54.0089 1084.66 52.2089C1086.52 50.3422 1087.46 47.7756 1087.46 44.5089C1087.46 41.3089 1086.52 38.8422 1084.66 37.1089C1082.79 35.3089 1079.96 34.4089 1076.16 34.4089H1064.46V54.9089ZM1138.62 93.3089C1133.75 93.3089 1129.35 92.4756 1125.42 90.8089C1121.55 89.1422 1118.49 86.7422 1116.22 83.6089C1113.95 80.4756 1112.79 76.7756 1112.72 72.5089H1127.72C1127.92 75.3756 1128.92 77.6422 1130.72 79.3089C1132.59 80.9756 1135.12 81.8089 1138.32 81.8089C1141.59 81.8089 1144.15 81.0422 1146.02 79.5089C1147.89 77.9089 1148.82 75.8422 1148.82 73.3089C1148.82 71.2422 1148.19 69.5422 1146.92 68.2089C1145.65 66.8756 1144.05 65.8422 1142.12 65.1089C1140.25 64.3089 1137.65 63.4422 1134.32 62.5089C1129.79 61.1756 1126.09 59.8756 1123.22 58.6089C1120.42 57.2756 1117.99 55.3089 1115.92 52.7089C1113.92 50.0422 1112.92 46.5089 1112.92 42.1089C1112.92 37.9756 1113.95 34.3756 1116.02 31.3089C1118.09 28.2422 1120.99 25.9089 1124.72 24.3089C1128.45 22.6422 1132.72 21.8089 1137.52 21.8089C1144.72 21.8089 1150.55 23.5756 1155.02 27.1089C1159.55 30.5755 1162.05 35.4422 1162.52 41.7089H1147.12C1146.99 39.3089 1145.95 37.3422 1144.02 35.8089C1142.15 34.2089 1139.65 33.4089 1136.52 33.4089C1133.79 33.4089 1131.59 34.1089 1129.92 35.5089C1128.32 36.9089 1127.52 38.9422 1127.52 41.6089C1127.52 43.4756 1128.12 45.0422 1129.32 46.3089C1130.59 47.5089 1132.12 48.5089 1133.92 49.3089C1135.79 50.0422 1138.39 50.9089 1141.72 51.9089C1146.25 53.2422 1149.95 54.5756 1152.82 55.9089C1155.69 57.2422 1158.15 59.2422 1160.22 61.9089C1162.29 64.5756 1163.32 68.0756 1163.32 72.4089C1163.32 76.1422 1162.35 79.6089 1160.42 82.8089C1158.49 86.0089 1155.65 88.5756 1151.92 90.5089C1148.19 92.3756 1143.75 93.3089 1138.62 93.3089Z" fill="#3F69FF"/>
<path d="M712.443 91.3089C707.577 91.3089 703.177 90.4756 699.243 88.8089C695.377 87.1422 692.31 84.7422 690.043 81.6089C687.777 78.4756 686.61 74.7756 686.543 70.5089H701.543C701.743 73.3756 702.743 75.6422 704.543 77.3089C706.41 78.9756 708.943 79.8089 712.143 79.8089C715.41 79.8089 717.977 79.0422 719.843 77.5089C721.71 75.9089 722.643 73.8422 722.643 71.3089C722.643 69.2422 722.01 67.5422 720.743 66.2089C719.477 64.8756 717.877 63.8422 715.943 63.1089C714.077 62.3089 711.477 61.4422 708.143 60.5089C703.61 59.1756 699.91 57.8756 697.043 56.6089C694.243 55.2756 691.81 53.3089 689.743 50.7089C687.743 48.0422 686.743 44.5089 686.743 40.1089C686.743 35.9756 687.777 32.3756 689.843 29.3089C691.91 26.2422 694.81 23.9089 698.543 22.3089C702.277 20.6422 706.543 19.8089 711.343 19.8089C718.543 19.8089 724.377 21.5756 728.843 25.1089C733.377 28.5755 735.877 33.4422 736.343 39.7089H720.943C720.81 37.3089 719.777 35.3422 717.843 33.8089C715.977 32.2089 713.477 31.4089 710.343 31.4089C707.61 31.4089 705.41 32.1089 703.743 33.5089C702.143 34.9089 701.343 36.9422 701.343 39.6089C701.343 41.4756 701.943 43.0422 703.143 44.3089C704.41 45.5089 705.943 46.5089 707.743 47.3089C709.61 48.0422 712.21 48.9089 715.543 49.9089C720.077 51.2422 723.777 52.5756 726.643 53.9089C729.51 55.2422 731.977 57.2422 734.043 59.9089C736.11 62.5756 737.143 66.0756 737.143 70.4089C737.143 74.1422 736.177 77.6089 734.243 80.8089C732.31 84.0089 729.477 86.5756 725.743 88.5089C722.01 90.3756 717.577 91.3089 712.443 91.3089ZM800.181 42.4089C800.181 46.1422 799.281 49.6422 797.481 52.9089C795.748 56.1756 792.981 58.8089 789.181 60.8089C785.448 62.8089 780.714 63.8089 774.981 63.8089H763.281V90.6089H749.281V20.8089H774.981C780.381 20.8089 784.981 21.7422 788.781 23.6089C792.581 25.4756 795.414 28.0422 797.281 31.3089C799.214 34.5755 800.181 38.2756 800.181 42.4089ZM774.381 52.5089C778.248 52.5089 781.114 51.6422 782.981 49.9089C784.848 48.1089 785.781 45.6089 785.781 42.4089C785.781 35.6089 781.981 32.2089 774.381 32.2089H763.281V52.5089H774.381ZM824.121 32.1089V49.6089H847.621V60.7089H824.121V79.2089H850.621V90.6089H810.121V20.7089H850.621V32.1089H824.121ZM906.143 77.3089H878.343L873.743 90.6089H859.043L884.143 20.7089H900.443L925.543 90.6089H910.743L906.143 77.3089ZM902.343 66.1089L892.243 36.9089L882.143 66.1089H902.343ZM974.325 90.6089L948.925 59.5089V90.6089H934.925V20.8089H948.925V52.1089L974.325 20.8089H991.225L962.425 55.4089L992.025 90.6089H974.325ZM1015.23 32.1089V49.6089H1038.73V60.7089H1015.23V79.2089H1041.73V90.6089H1001.23V20.7089H1041.73V32.1089H1015.23ZM1090.46 90.6089L1075.06 63.4089H1068.46V90.6089H1054.46V20.8089L1080.66 20.8089C1086.06 20.8089 1090.66 21.7756 1094.46 23.7089C1098.26 25.5756 1101.09 28.1422 1102.96 31.4089C1104.89 34.6089 1105.86 38.2089 1105.86 42.2089C1105.86 46.8089 1104.52 50.9756 1101.86 54.7089C1099.19 58.3756 1095.22 60.9089 1089.96 62.3089L1106.66 90.6089H1090.46ZM1068.46 52.9089H1080.16C1083.96 52.9089 1086.79 52.0089 1088.66 50.2089C1090.52 48.3422 1091.46 45.7756 1091.46 42.5089C1091.46 39.3089 1090.52 36.8422 1088.66 35.1089C1086.79 33.3089 1083.96 32.4089 1080.16 32.4089H1068.46V52.9089ZM1142.62 91.3089C1137.75 91.3089 1133.35 90.4756 1129.42 88.8089C1125.55 87.1422 1122.49 84.7422 1120.22 81.6089C1117.95 78.4756 1116.79 74.7756 1116.72 70.5089H1131.72C1131.92 73.3756 1132.92 75.6422 1134.72 77.3089C1136.59 78.9756 1139.12 79.8089 1142.32 79.8089C1145.59 79.8089 1148.15 79.0422 1150.02 77.5089C1151.89 75.9089 1152.82 73.8422 1152.82 71.3089C1152.82 69.2422 1152.19 67.5422 1150.92 66.2089C1149.65 64.8756 1148.05 63.8422 1146.12 63.1089C1144.25 62.3089 1141.65 61.4422 1138.32 60.5089C1133.79 59.1756 1130.09 57.8756 1127.22 56.6089C1124.42 55.2756 1121.99 53.3089 1119.92 50.7089C1117.92 48.0422 1116.92 44.5089 1116.92 40.1089C1116.92 35.9756 1117.95 32.3756 1120.02 29.3089C1122.09 26.2422 1124.99 23.9089 1128.72 22.3089C1132.45 20.6422 1136.72 19.8089 1141.52 19.8089C1148.72 19.8089 1154.55 21.5756 1159.02 25.1089C1163.55 28.5755 1166.05 33.4422 1166.52 39.7089H1151.12C1150.99 37.3089 1149.95 35.3422 1148.02 33.8089C1146.15 32.2089 1143.65 31.4089 1140.52 31.4089C1137.79 31.4089 1135.59 32.1089 1133.92 33.5089C1132.32 34.9089 1131.52 36.9422 1131.52 39.6089C1131.52 41.4756 1132.12 43.0422 1133.32 44.3089C1134.59 45.5089 1136.12 46.5089 1137.92 47.3089C1139.79 48.0422 1142.39 48.9089 1145.72 49.9089C1150.25 51.2422 1153.95 52.5756 1156.82 53.9089C1159.69 55.2422 1162.15 57.2422 1164.22 59.9089C1166.29 62.5756 1167.32 66.0756 1167.32 70.4089C1167.32 74.1422 1166.35 77.6089 1164.42 80.8089C1162.49 84.0089 1159.65 86.5756 1155.92 88.5089C1152.19 90.3756 1147.75 91.3089 1142.62 91.3089Z" fill="#F34D4D"/>
<path d="M710.605 92.3089C705.739 92.3089 701.339 91.4756 697.405 89.8089C693.539 88.1422 690.472 85.7422 688.205 82.6089C685.939 79.4756 684.772 75.7756 684.705 71.5089H699.705C699.905 74.3756 700.905 76.6422 702.705 78.3089C704.572 79.9756 707.105 80.8089 710.305 80.8089C713.572 80.8089 716.139 80.0422 718.005 78.5089C719.872 76.9089 720.805 74.8422 720.805 72.3089C720.805 70.2422 720.172 68.5422 718.905 67.2089C717.639 65.8756 716.039 64.8422 714.105 64.1089C712.239 63.3089 709.639 62.4422 706.305 61.5089C701.772 60.1756 698.072 58.8756 695.205 57.6089C692.405 56.2756 689.972 54.3089 687.905 51.7089C685.905 49.0422 684.905 45.5089 684.905 41.1089C684.905 36.9756 685.939 33.3756 688.005 30.3089C690.072 27.2422 692.972 24.9089 696.705 23.3089C700.439 21.6422 704.705 20.8089 709.505 20.8089C716.705 20.8089 722.539 22.5756 727.005 26.1089C731.539 29.5755 734.039 34.4422 734.505 40.7089H719.105C718.972 38.3089 717.939 36.3422 716.005 34.8089C714.139 33.2089 711.639 32.4089 708.505 32.4089C705.772 32.4089 703.572 33.1089 701.905 34.5089C700.305 35.9089 699.505 37.9422 699.505 40.6089C699.505 42.4756 700.105 44.0422 701.305 45.3089C702.572 46.5089 704.105 47.5089 705.905 48.3089C707.772 49.0422 710.372 49.9089 713.705 50.9089C718.239 52.2422 721.939 53.5756 724.805 54.9089C727.672 56.2422 730.139 58.2422 732.205 60.9089C734.272 63.5756 735.305 67.0756 735.305 71.4089C735.305 75.1422 734.339 78.6089 732.405 81.8089C730.472 85.0089 727.639 87.5756 723.905 89.5089C720.172 91.3756 715.739 92.3089 710.605 92.3089ZM798.343 43.4089C798.343 47.1422 797.443 50.6422 795.643 53.9089C793.91 57.1756 791.143 59.8089 787.343 61.8089C783.61 63.8089 778.876 64.8089 773.143 64.8089H761.443V91.6089H747.443V21.8089H773.143C778.543 21.8089 783.143 22.7422 786.943 24.6089C790.743 26.4756 793.576 29.0422 795.443 32.3089C797.376 35.5755 798.343 39.2756 798.343 43.4089ZM772.543 53.5089C776.41 53.5089 779.276 52.6422 781.143 50.9089C783.01 49.1089 783.943 46.6089 783.943 43.4089C783.943 36.6089 780.143 33.2089 772.543 33.2089H761.443V53.5089H772.543ZM822.283 33.1089V50.6089H845.783V61.7089H822.283V80.2089H848.783V91.6089H808.283V21.7089H848.783V33.1089H822.283ZM904.305 78.3089H876.505L871.905 91.6089H857.205L882.305 21.7089H898.605L923.705 91.6089H908.905L904.305 78.3089ZM900.505 67.1089L890.405 37.9089L880.305 67.1089H900.505ZM972.488 91.6089L947.088 60.5089V91.6089H933.088V21.8089H947.088V53.1089L972.488 21.8089H989.388L960.588 56.4089L990.188 91.6089H972.488ZM1013.4 33.1089V50.6089H1036.9V61.7089H1013.4V80.2089H1039.9V91.6089H999.396V21.7089H1039.9V33.1089H1013.4ZM1088.62 91.6089L1073.22 64.4089H1066.62V91.6089H1052.62V21.8089L1078.82 21.8089C1084.22 21.8089 1088.82 22.7756 1092.62 24.7089C1096.42 26.5756 1099.25 29.1422 1101.12 32.4089C1103.05 35.6089 1104.02 39.2089 1104.02 43.2089C1104.02 47.8089 1102.69 51.9756 1100.02 55.7089C1097.35 59.3756 1093.39 61.9089 1088.12 63.3089L1104.82 91.6089H1088.62ZM1066.62 53.9089H1078.32C1082.12 53.9089 1084.95 53.0089 1086.82 51.2089C1088.69 49.3422 1089.62 46.7756 1089.62 43.5089C1089.62 40.3089 1088.69 37.8422 1086.82 36.1089C1084.95 34.3089 1082.12 33.4089 1078.32 33.4089H1066.62V53.9089ZM1140.78 92.3089C1135.91 92.3089 1131.51 91.4756 1127.58 89.8089C1123.71 88.1422 1120.65 85.7422 1118.38 82.6089C1116.11 79.4756 1114.95 75.7756 1114.88 71.5089H1129.88C1130.08 74.3756 1131.08 76.6422 1132.88 78.3089C1134.75 79.9756 1137.28 80.8089 1140.48 80.8089C1143.75 80.8089 1146.31 80.0422 1148.18 78.5089C1150.05 76.9089 1150.98 74.8422 1150.98 72.3089C1150.98 70.2422 1150.35 68.5422 1149.08 67.2089C1147.81 65.8756 1146.21 64.8422 1144.28 64.1089C1142.41 63.3089 1139.81 62.4422 1136.48 61.5089C1131.95 60.1756 1128.25 58.8756 1125.38 57.6089C1122.58 56.2756 1120.15 54.3089 1118.08 51.7089C1116.08 49.0422 1115.08 45.5089 1115.08 41.1089C1115.08 36.9756 1116.11 33.3756 1118.18 30.3089C1120.25 27.2422 1123.15 24.9089 1126.88 23.3089C1130.61 21.6422 1134.88 20.8089 1139.68 20.8089C1146.88 20.8089 1152.71 22.5756 1157.18 26.1089C1161.71 29.5755 1164.21 34.4422 1164.68 40.7089H1149.28C1149.15 38.3089 1148.11 36.3422 1146.18 34.8089C1144.31 33.2089 1141.81 32.4089 1138.68 32.4089C1135.95 32.4089 1133.75 33.1089 1132.08 34.5089C1130.48 35.9089 1129.68 37.9422 1129.68 40.6089C1129.68 42.4756 1130.28 44.0422 1131.48 45.3089C1132.75 46.5089 1134.28 47.5089 1136.08 48.3089C1137.95 49.0422 1140.55 49.9089 1143.88 50.9089C1148.41 52.2422 1152.11 53.5756 1154.98 54.9089C1157.85 56.2422 1160.31 58.2422 1162.38 60.9089C1164.45 63.5756 1165.48 67.0756 1165.48 71.4089C1165.48 75.1422 1164.51 78.6089 1162.58 81.8089C1160.65 85.0089 1157.81 87.5756 1154.08 89.5089C1150.35 91.3756 1145.91 92.3089 1140.78 92.3089Z" fill="#EEDB5F"/>
<path d="M1248.47 59.1369C1248.19 59.5652 1247.98 59.9509 1248 60.1253C1248.01 60.1462 1248.01 60.1646 1248.02 60.1823L1248.02 60.1839C1248.03 60.2056 1248.05 60.2233 1248.07 60.2402C1248.1 60.2699 1248.14 60.294 1248.2 60.3141C1248.31 60.3479 1249.11 60.3189 1249.35 60.2997C1249.99 60.2458 1250.64 60.2 1251.28 60.163C1251.47 60.1526 1251.65 60.1462 1251.84 60.1365C1252.68 60.0947 1253.51 60.0618 1254.33 60.0425C1254.99 60.0256 1255.64 60.0152 1256.28 60.0088C1256.46 60.0072 1256.63 60.0063 1256.81 60.0055C1257.4 60.0023 1257.99 60.0007 1258.55 60.0063C1258.36 64.9194 1258.12 70.1281 1257.92 75.0877C1257.9 75.8535 1257.86 76.6129 1257.84 77.3634C1257.77 78.9625 1257.77 78.9625 1257.77 78.9625C1257.77 79.0758 1257.76 79.1956 1257.76 79.3145C1257.74 80.0345 1257.74 80.8284 1257.9 81.0438C1257.9 81.0542 1257.91 81.063 1257.92 81.0711C1257.94 81.0976 1257.97 81.1097 1258.01 81.1089C1258.01 81.1089 1258.01 81.1072 1258.02 81.1072C1258.05 81.1056 1258.08 81.0944 1258.12 81.0743C1258.13 81.0679 1258.14 81.0574 1258.15 81.0486C1258.18 81.0301 1258.21 81.0092 1258.24 80.9827C1258.25 80.969 1258.27 80.9522 1258.28 80.9369C1258.31 80.9088 1258.34 80.879 1258.37 80.8453C1258.38 80.8252 1258.4 80.8043 1258.42 80.7826C1258.45 80.748 1258.47 80.7119 1258.5 80.6741C1258.52 80.6492 1258.54 80.6235 1258.56 80.5978C1258.59 80.5592 1258.62 80.5182 1258.64 80.478C1258.66 80.4499 1258.68 80.4226 1258.7 80.3945C1258.73 80.3519 1258.76 80.3085 1258.79 80.2643C1258.81 80.2362 1258.82 80.208 1258.84 80.1799C1258.89 80.1124 1258.93 80.0449 1258.97 79.979C1258.97 79.979 1258.97 79.979 1259.68 78.8902C1264.14 72.0422 1269.96 63.6931 1275.12 56.4867C1276.65 54.3428 1276.91 53.9812 1276.91 53.9812C1276.94 53.9434 1276.97 53.9016 1277 53.8631C1277.67 52.9623 1278.51 51.9924 1278.85 51.3142C1278.95 51.1165 1279.01 50.9389 1279 50.7983C1278.99 50.7316 1278.96 50.6801 1278.91 50.6384C1278.89 50.6231 1278.85 50.6167 1278.83 50.6046C1278.78 50.5821 1278.74 50.558 1278.69 50.5435C1278.65 50.5331 1278.6 50.5299 1278.55 50.5226C1278.5 50.5138 1278.45 50.5034 1278.39 50.4985C1278.33 50.4945 1278.28 50.4945 1278.22 50.4929C1278.16 50.4913 1278.1 50.4873 1278.04 50.4873C1277.83 50.4897 1277.63 50.5001 1277.5 50.505C1277.5 50.505 1277.5 50.505 1276.49 50.5492C1273.54 50.6761 1270.53 50.8376 1267.66 51.0345C1267.87 45.9672 1268.15 40.155 1268.37 35.1423C1268.43 33.7506 1268.43 33.7506 1268.43 33.7506C1268.43 33.712 1268.44 33.667 1268.44 33.626C1268.46 33.0941 1268.48 32.3781 1268.32 32.1691C1268.29 32.1378 1268.26 32.1137 1268.23 32.1097C1268.2 32.1065 1268.18 32.1137 1268.15 32.1193C1268.13 32.1225 1268.12 32.1241 1268.1 32.1322C1268.08 32.141 1268.05 32.1547 1268.03 32.1683C1268.01 32.1796 1267.99 32.1892 1267.97 32.2037C1267.94 32.2206 1267.92 32.2431 1267.89 32.264C1267.87 32.2824 1267.84 32.2985 1267.82 32.3202C1267.79 32.3443 1267.76 32.3741 1267.73 32.4022C1267.71 32.4263 1267.68 32.4488 1267.66 32.4753C1267.63 32.5082 1267.59 32.5452 1267.56 32.5806C1267.54 32.6079 1267.51 32.632 1267.49 32.6609C1267.45 32.7027 1267.41 32.7477 1267.38 32.7927C1267.35 32.82 1267.33 32.8457 1267.31 32.8739C1267.26 32.9333 1267.21 32.996 1267.16 33.0587C1267.15 33.074 1267.14 33.0884 1267.12 33.1037C1267.06 33.184 1267 33.266 1266.93 33.3496C1266.76 33.5714 1266.59 33.802 1266.43 34.0173C1266.43 34.0173 1266.43 34.0174 1265.24 35.6349C1265.12 35.7973 1265 35.9708 1264.87 36.138C1261.54 40.6926 1255.26 49.5326 1255.26 49.5326C1254.96 49.9545 1254.67 50.3555 1254.4 50.7364C1254.18 51.0474 1253.96 51.3575 1253.74 51.6685C1253.55 51.9433 1250.92 55.6486 1250.36 56.457C1249.37 57.8568 1249.37 57.8568 1249.37 57.8568C1249.12 58.2104 1248.76 58.6973 1248.47 59.1369Z" fill="#EEDB5F"/>
</svg>
