<?xml version="1.0" standalone="no"?>
<!DOCTYPE svg PUBLIC "-//W3C//DTD SVG 20010904//EN"
 "http://www.w3.org/TR/2001/REC-SVG-20010904/DTD/svg10.dtd">
<svg version="1.0" xmlns="http://www.w3.org/2000/svg"
 width="261.000000pt" height="261.000000pt" viewBox="0 0 261.000000 261.000000"
 preserveAspectRatio="xMidYMid meet">
<metadata>
Created by potrace 1.14, written by Peter Selinger 2001-2017
</metadata>
<g transform="translate(0.000000,261.000000) scale(0.100000,-0.100000)"
fill="#000000" stroke="none">
<path d="M0 1310 l0 -1300 1300 0 1300 0 0 1300 0 1300 -1300 0 -1300 0 0
-1300z m1527 793 c-4 -60 -10 -191 -13 -291 l-7 -184 44 6 c24 3 101 8 172 12
147 7 149 5 93 -69 -69 -91 -333 -467 -464 -662 -74 -110 -139 -202 -144 -204
-6 -2 -7 53 -3 145 17 382 21 490 17 498 -3 5 -75 5 -163 1 -88 -4 -159 -4
-159 0 0 8 389 556 527 743 46 61 88 112 94 112 9 0 10 -29 6 -107z m-854
-835 c4 -62 7 -141 7 -175 0 -34 4 -64 8 -67 5 -3 51 1 103 9 112 17 109 17
109 6 0 -4 -35 -68 -78 -142 -43 -74 -118 -206 -166 -294 -48 -88 -91 -164
-95 -168 -9 -9 -15 60 -27 277 l-7 118 -61 -6 c-33 -4 -78 -10 -98 -13 -22 -3
-38 -1 -38 4 0 5 67 124 149 264 174 299 174 299 182 299 3 0 9 -51 12 -112z
m1464 100 c-9 -26 -50 -328 -45 -333 3 -3 44 -11 92 -17 67 -9 86 -15 86 -27
0 -24 -424 -539 -428 -519 -2 9 11 94 28 190 17 95 32 183 34 195 3 19 -3 22
-46 27 -26 3 -71 9 -99 12 -35 4 -49 10 -47 20 5 21 401 463 417 464 7 0 11
-6 8 -12z"/>
</g>
</svg>
