<svg width="149" height="52" viewBox="0 0 149 52" fill="none" xmlns="http://www.w3.org/2000/svg">
<path d="M26.8412 13.2851C26.5715 12.3498 26.192 11.5175 25.7054 10.7923C25.2187 10.0672 24.6237 9.45177 23.9242 8.94347C23.2248 8.43651 22.4292 8.04885 21.5372 7.77911C20.6453 7.51072 19.6599 7.37517 18.5823 7.37517C16.5667 7.37517 14.7978 7.87535 13.2769 8.87705C11.7561 9.87739 10.5714 11.3318 9.72422 13.2376C8.87705 15.1434 8.45278 17.4708 8.45278 20.217C8.45278 22.9632 8.87027 25.3001 9.70389 27.2248C10.5375 29.151 11.7181 30.6176 13.2458 31.6247C14.7734 32.6319 16.5775 33.1361 18.6568 33.1361C20.5437 33.1361 22.1581 32.7986 23.4986 32.1249C24.8406 31.4512 25.868 30.4983 26.5796 29.2662C27.2558 28.0956 27.6112 26.7233 27.645 25.1455H19.176V18.8683H35.6776V23.8361C35.6776 27.3021 34.9457 30.2774 33.4831 32.7606C32.0205 35.2439 30.0049 37.1565 27.4377 38.4984C24.8704 39.839 21.9317 40.5099 18.6202 40.5099C14.9225 40.5099 11.6761 39.6912 8.87705 38.0538C6.07798 36.4164 3.89972 34.0876 2.33956 31.0649C0.780757 28.0422 0 24.4515 0 20.2929C0 17.0967 0.464931 14.2434 1.39615 11.7358C2.32736 9.22541 3.63269 7.09865 5.31484 5.35279C6.99564 3.60693 8.95431 2.27721 11.1881 1.36768C13.4206 0.455443 15.8415 0 18.4467 0C20.6806 0 22.7599 0.323961 24.6847 0.973236C26.6108 1.62116 28.3214 2.53475 29.8165 3.71537C31.3116 4.89735 32.5343 6.29892 33.4845 7.92279C34.4346 9.5453 35.0433 11.3345 35.3144 13.2837L26.8412 13.2851Z" fill="white"/>
<path fill-rule="evenodd" clip-rule="evenodd" d="M50.2138 40.5299C48.327 40.5299 46.6448 40.1992 45.1687 39.5391C43.6926 38.8789 42.5282 37.8962 41.6743 36.5936C40.8203 35.2896 40.3947 33.663 40.3947 31.7112C40.3947 30.0683 40.6956 28.6898 41.2988 27.5715C41.902 26.4532 42.7234 25.5573 43.7631 24.8768C44.8027 24.1964 45.9874 23.6826 47.3158 23.3356C48.6441 22.9886 50.0403 22.7446 51.5029 22.6037C53.223 22.4247 54.6096 22.254 55.6615 22.094C56.7133 21.9341 57.4778 21.6928 57.9522 21.3715C58.4267 21.0516 58.6639 20.5759 58.6639 19.9469V19.8317C58.6639 18.6131 58.2816 17.6684 57.5185 17.0015C56.7553 16.3332 55.6737 15.9998 54.2735 15.9998C52.7973 15.9998 51.6221 16.3237 50.7506 16.973C49.8776 17.6223 49.3002 18.4329 49.0183 19.4088L41.4316 18.7921C41.8166 16.996 42.5743 15.4386 43.7034 14.1238C44.8325 12.8076 46.2924 11.7937 48.083 11.0821C49.8736 10.3705 51.9502 10.014 54.3114 10.014C55.9543 10.014 57.5293 10.2064 59.038 10.5914C60.5466 10.9764 61.8886 11.5741 63.0624 12.382C64.2376 13.1912 65.1648 14.2268 65.8452 15.4915C66.5257 16.7561 66.8659 18.2675 66.8659 20.0255V39.9728H59.0868V35.8725H58.8563C58.3806 36.7969 57.7462 37.6089 56.9505 38.3083C56.1549 39.0091 55.1993 39.554 54.0823 39.9443C52.9681 40.3334 51.6777 40.5299 50.2138 40.5299ZM52.5628 34.8694C53.7692 34.8694 54.8346 34.6281 55.7591 34.147C56.6835 33.6671 57.4087 33.0151 57.9346 32.1937C58.4605 31.3723 58.7235 30.4411 58.7235 29.4014V26.2635C58.4673 26.4302 58.1176 26.5807 57.6744 26.7162C57.2311 26.8517 56.7337 26.9724 56.182 27.0822C55.6303 27.192 55.0786 27.2869 54.5269 27.3709C53.9753 27.4549 53.4737 27.5281 53.0251 27.5932C52.0627 27.7342 51.2209 27.9592 50.5025 28.2669C49.7827 28.5746 49.2256 28.988 48.8271 29.5085C48.4286 30.029 48.2307 30.6729 48.2307 31.4441C48.2307 32.5597 48.6374 33.4109 49.4534 33.9951C50.2694 34.5794 51.305 34.8694 52.5628 34.8694Z" fill="white"/>
<path d="M81.4441 39.9715V0.539214H73.2421V39.9715H81.4441Z" fill="white"/>
<path fill-rule="evenodd" clip-rule="evenodd" d="M101.351 40.5502C98.3592 40.5502 95.7783 39.9105 93.6014 38.6336C91.4259 37.3581 89.7464 35.5729 88.5658 33.2822C87.3852 30.9914 86.7942 28.3306 86.7942 25.3011C86.7942 22.2458 87.3852 19.5715 88.5658 17.2807C89.7464 14.9913 91.4245 13.2061 93.6014 11.9293C95.7783 10.6524 98.3592 10.014 101.351 10.014C104.342 10.014 106.924 10.6524 109.101 11.9293C111.276 13.2061 112.955 14.9913 114.136 17.2807C115.316 19.5715 115.907 22.2458 115.907 25.3011C115.907 28.3292 115.316 30.99 114.136 33.2822C112.955 35.5743 111.277 37.3581 109.101 38.6336C106.926 39.9105 104.342 40.5502 101.351 40.5502ZM101.391 34.1957C102.751 34.1957 103.888 33.8067 104.799 33.0314C105.71 32.2547 106.401 31.1934 106.869 29.8433C107.338 28.4959 107.571 26.9615 107.571 25.2414C107.571 23.5213 107.338 21.9883 106.869 20.6396C106.4 19.2909 105.71 18.2268 104.799 17.4434C103.888 16.6612 102.751 16.2695 101.391 16.2695C100.017 16.2695 98.8661 16.6612 97.9335 17.4434C97.0037 18.2268 96.3043 19.2909 95.8353 20.6396C95.3663 21.9869 95.1318 23.5213 95.1318 25.2414C95.1318 26.9615 95.3663 28.4946 95.8353 29.8433C96.3043 31.192 97.0037 32.2533 97.9335 33.0314C98.8648 33.8067 100.017 34.1957 101.391 34.1957Z" fill="white"/>
<path d="M122.426 50.7627C123.331 50.9227 124.302 51.004 125.343 51.004C127.371 51.004 129.106 50.68 130.544 50.0308C131.982 49.3815 133.172 48.4706 134.115 47.2967C135.057 46.1229 135.806 44.7457 136.357 43.1666L147.852 10.4358L139.169 10.3978L132.986 32.1154H132.679L126.555 10.3978H117.93L128.538 40.8175L128.058 42.07C127.479 43.4038 126.693 44.1778 125.701 44.3892C124.706 44.6007 123.482 44.4828 122.031 44.0327L120.184 50.1744C120.773 50.4062 121.522 50.6028 122.426 50.7627Z" fill="white"/>
</svg>
