<svg width="161" height="160" viewBox="0 0 161 160" fill="none" xmlns="http://www.w3.org/2000/svg">
<path d="M59.1157 145.294L60.9364 144.265L62.2285 146.529L64.4635 145.243L65.4987 147.038L63.251 148.321L64.4966 150.504L62.6758 151.532L61.4395 149.366L59.286 150.605L58.2507 148.81L60.417 147.574L59.1157 145.294Z" fill="#EEDB5F"/>
<path d="M42.408 144.785L39.0206 142.575C38.2284 142.058 37.7246 141.455 37.5094 140.765C37.2867 140.071 37.3686 139.428 37.7551 138.835C38.3299 137.954 39.2334 137.694 40.4655 138.055C39.9881 137.638 39.7123 137.146 39.638 136.581C39.5637 136.015 39.686 135.488 40.0048 134.999C40.4106 134.377 40.9638 134.031 41.6644 133.96C42.3527 133.892 43.1042 134.124 43.9186 134.655L47.4948 136.988L42.408 144.785ZM41.4508 142.102L42.5523 140.414L41.3084 139.602C41.0344 139.423 40.7701 139.351 40.5154 139.386C40.2534 139.415 40.0329 139.567 39.8542 139.841C39.6706 140.122 39.6181 140.389 39.6966 140.641C39.7629 140.895 39.933 141.111 40.207 141.29L41.4508 142.102ZM44.6536 137.193L43.2209 136.258C42.9618 136.089 42.6964 136.027 42.4246 136.071C42.1529 136.115 41.9276 136.275 41.7489 136.549C41.5702 136.823 41.5091 137.094 41.5657 137.363C41.6223 137.632 41.7802 137.852 42.0393 138.021L43.4943 138.97L44.6536 137.193Z" fill="#EEDB5F"/>
<path d="M38.7405 130.796L32.6989 137.878L30.9737 136.406L37.0153 129.324L38.7405 130.796Z" fill="#EEDB5F"/>
<path d="M29.1553 132.466L27.8851 133.632L22.918 128.219L24.1882 127.053L25.9097 128.929L31.4985 123.801L33.0317 125.472L27.4428 130.6L29.1553 132.466Z" fill="#EEDB5F"/>
<path d="M26.2798 119.405C26.0187 120.666 25.3082 121.669 24.1483 122.415C22.9883 123.161 21.7842 123.389 20.5359 123.099C19.2753 122.806 18.284 122.098 17.5618 120.975C17.0023 120.105 16.7355 119.184 16.7613 118.211C16.7871 117.238 17.1229 116.354 17.7686 115.561L19.232 117.836C18.8507 118.501 18.8705 119.161 19.2914 119.816C19.7122 120.47 20.2491 120.855 20.9019 120.971C21.55 121.08 22.216 120.915 22.9001 120.475C23.5842 120.035 24.0111 119.497 24.181 118.863C24.346 118.22 24.2181 117.572 23.7973 116.918C23.3764 116.263 22.7841 115.972 22.0203 116.042L20.5569 113.767C21.547 113.509 22.4901 113.57 23.3863 113.95C24.2825 114.33 25.0103 114.955 25.5699 115.825C26.292 116.948 26.5286 118.141 26.2798 119.405Z" fill="#EEDB5F"/>
<path d="M16.6767 104.345C16.0574 104.108 15.3704 104.141 14.6158 104.445C13.8612 104.748 13.3425 105.2 13.0596 105.8C12.7734 106.391 12.7704 107.035 13.0508 107.733C13.3279 108.422 13.7761 108.885 14.3954 109.122C15.0115 109.35 15.6968 109.313 16.4514 109.009C17.206 108.706 17.7264 108.258 18.0126 107.667C18.2955 107.067 18.2984 106.423 18.0214 105.734C17.741 105.037 17.2928 104.574 16.6767 104.345ZM19.972 108.594C19.4784 109.784 18.5918 110.636 17.3123 111.15C16.0327 111.665 14.8072 111.662 13.6358 111.142C12.4528 110.617 11.6123 109.736 11.1142 108.497C10.6129 107.25 10.6106 106.036 11.1075 104.855C11.5929 103.669 12.4754 102.819 13.7549 102.304C15.0345 101.789 16.2641 101.79 17.4438 102.307C18.6234 102.824 19.4623 103.701 19.9604 104.94C20.4584 106.178 20.4623 107.396 19.972 108.594Z" fill="#EEDB5F"/>
<path d="M17.3213 97.2964L8.28331 99.527L7.73997 97.3255L16.778 95.0949L17.3213 97.2964Z" fill="#EEDB5F"/>
<path d="M6.04541 86.4932L5.80857 84.238L15.0932 83.263L15.3301 85.5182L9.8837 89.9036L15.7262 89.2901L15.963 91.5453L6.67837 92.5203L6.44153 90.2651L11.8879 85.8797L6.04541 86.4932Z" fill="#EEDB5F"/>
<path d="M14.1945 73.9144C13.1618 74.6838 11.9641 74.9623 10.6015 74.7497C9.23883 74.5371 8.18725 73.9077 7.44675 72.8617C6.69887 71.8055 6.42783 70.6179 6.63361 69.2989C6.79305 68.2769 7.20556 67.4107 7.87114 66.7004C8.53673 65.99 9.37447 65.5525 10.3844 65.3879L9.96736 68.0608C9.24026 68.3053 8.81675 68.8119 8.69682 69.5806C8.5769 70.3492 8.7224 70.9938 9.13332 71.5142C9.5456 72.0259 10.1535 72.3445 10.9572 72.4698C11.7608 72.5952 12.4369 72.477 12.9854 72.1152C13.5354 71.7447 13.8703 71.1751 13.9902 70.4064C14.1101 69.6377 13.8611 69.0262 13.243 68.5719L13.66 65.899C14.5718 66.3634 15.2364 67.0352 15.654 67.9146C16.0715 68.794 16.2006 69.7447 16.0412 70.7666C15.8354 72.0856 15.2198 73.1349 14.1945 73.9144Z" fill="#EEDB5F"/>
<path d="M17.0168 56.2778C16.7111 55.6894 16.1754 55.258 15.4097 54.9838C14.644 54.7095 13.9562 54.7026 13.3464 54.9631C12.7396 55.2152 12.3095 55.695 12.0561 56.4024C11.8057 57.1016 11.8333 57.7453 12.139 58.3338C12.4477 58.9139 12.9849 59.3411 13.7506 59.6154C14.5163 59.8896 15.2025 59.9007 15.8093 59.6485C16.4191 59.3881 16.8492 58.9083 17.0997 58.2092C17.3531 57.5017 17.3255 56.8579 17.0168 56.2778ZM16.6584 61.643C15.4994 62.2045 14.2708 62.2527 12.9724 61.7876C11.6741 61.3225 10.7596 60.5066 10.2291 59.3399C9.69322 58.162 9.65037 56.9446 10.1006 55.6879C10.5537 54.4228 11.3583 53.5137 12.5143 52.9606C13.665 52.3961 14.8895 52.3464 16.1878 52.8115C17.4862 53.2766 18.4048 54.094 18.9436 55.2637C19.4825 56.4333 19.5268 57.6465 19.0766 58.9033C18.6265 60.16 17.8204 61.0733 16.6584 61.643Z" fill="#EEDB5F"/>
<path d="M18.8069 49.5676L14.0047 46.7727L15.1453 44.8129L19.9475 47.6078C20.4289 47.888 20.8684 47.9852 21.2661 47.8995C21.6637 47.8139 21.9959 47.5418 22.2627 47.0834C22.5296 46.6249 22.6042 46.1979 22.4867 45.8022C22.3693 45.4065 22.0698 45.0685 21.5885 44.7884L16.7863 41.9934L17.9269 40.0336L22.7291 42.8285C23.4397 43.2421 23.957 43.7682 24.2809 44.4067C24.6016 45.0332 24.7314 45.6714 24.6703 46.3212C24.6137 46.9633 24.4119 47.5824 24.065 48.1784C23.5225 49.1105 22.7741 49.7285 21.8199 50.0324C20.8656 50.3362 19.8613 50.1813 18.8069 49.5676Z" fill="#EEDB5F"/>
<path d="M24.9719 30.9856L26.4451 29.2617L33.5423 35.3268L32.0691 37.0506L25.1392 36.1174L29.6052 39.9339L28.132 41.6578L21.0348 35.5927L22.508 33.8688L29.4379 34.8021L24.9719 30.9856Z" fill="#EEDB5F"/>
<path d="M30.8153 27.4694L29.7103 26.1462L35.349 21.437L36.4541 22.7602L34.4998 24.3923L39.362 30.2142L37.6215 31.6678L32.7593 25.8458L30.8153 27.4694Z" fill="#EEDB5F"/>
<path d="M44.0341 22.4786L45.8864 25.5891L43.9381 26.7493L39.175 18.751L42.331 16.8715C43.2577 16.3196 44.1218 16.1292 44.9233 16.3001C45.7248 16.4711 46.3268 16.8946 46.7294 17.5706C47.0053 18.0339 47.1339 18.5696 47.1152 19.1775C47.0965 19.7854 46.8225 20.3705 46.293 20.9328L50.1932 23.0243L47.9145 24.3813L44.262 22.3429L44.0341 22.4786ZM42.0053 19.0719L43.152 20.9974L44.3598 20.2782C44.656 20.1018 44.8356 19.8765 44.8987 19.6023C44.9694 19.3235 44.921 19.0436 44.7537 18.7626C44.5818 18.4739 44.3542 18.2905 44.0709 18.2122C43.7877 18.134 43.5017 18.1808 43.2131 18.3527L42.0053 19.0719Z" fill="#EEDB5F"/>
<path d="M57.6613 19.8469L55.5466 20.6654L54.4649 17.8704L49.1814 13.1468L51.5806 12.2183L54.7674 15.4925L54.9073 10.9307L57.3065 10.0022L56.5796 17.052L57.6613 19.8469Z" fill="#EEDB5F"/>
<path d="M79.5819 12.9054L78.1797 14.4567L76.238 12.7174L74.5245 14.6444L72.9747 13.2687L74.7014 11.341L72.8296 9.66429L74.2318 8.113L76.0896 9.77721L77.7406 7.92005L79.2904 9.29574L77.6262 11.1536L79.5819 12.9054Z" fill="#EEDB5F"/>
<path d="M95.5939 8.10493L99.5063 9.13044C100.421 9.37029 101.09 9.78317 101.512 10.3691C101.943 10.9572 102.069 11.5934 101.889 12.2775C101.623 13.2952 100.848 13.8278 99.5649 13.8754C100.15 14.1201 100.567 14.499 100.816 15.0122C101.065 15.5253 101.116 16.0641 100.968 16.6285C100.78 17.3469 100.365 17.8504 99.7223 18.139C99.0908 18.4213 98.3047 18.4391 97.364 18.1926L93.2335 17.1099L95.5939 8.10493ZM97.3503 10.3475L96.8392 12.2973L98.2759 12.6739C98.5923 12.7568 98.8659 12.7417 99.0966 12.6285C99.3359 12.5176 99.497 12.3039 99.5799 11.9875C99.6651 11.6625 99.6306 11.393 99.4765 11.179C99.3332 10.9586 99.1034 10.807 98.787 10.7241L97.3503 10.3475ZM95.8641 16.0173L97.5189 16.451C97.8182 16.5295 98.0897 16.5047 98.3335 16.3767C98.5773 16.2486 98.7406 16.0264 98.8235 15.71C98.9065 15.3936 98.8785 15.1166 98.7397 14.8792C98.6009 14.6417 98.3818 14.4838 98.0825 14.4053L96.4021 13.9649L95.8641 16.0173Z" fill="#EEDB5F"/>
<path d="M110.104 20.1242C110.717 19.8722 111.195 19.3772 111.536 18.639C111.878 17.9008 111.946 17.2165 111.741 16.5858C111.544 15.9589 111.104 15.4877 110.422 15.1722C109.748 14.8603 109.105 14.8304 108.491 15.0823C107.886 15.338 107.413 15.8349 107.071 16.5731C106.73 17.3112 106.657 17.9938 106.854 18.6207C107.059 19.2513 107.499 19.7225 108.173 20.0344C108.855 20.3499 109.498 20.3798 110.104 20.1242ZM104.792 19.2884C104.336 18.0839 104.398 16.8558 104.977 15.6042C105.556 14.3525 106.45 13.5145 107.66 13.0903C108.881 12.6617 110.097 12.7277 111.309 13.2882C112.528 13.8525 113.362 14.735 113.81 15.9358C114.269 17.1322 114.209 18.3563 113.63 19.6079C113.051 20.8596 112.155 21.7016 110.942 22.1339C109.729 22.5662 108.517 22.502 107.305 21.9415C106.093 21.3809 105.256 20.4965 104.792 19.2884Z" fill="#EEDB5F"/>
<path d="M120.972 26.8517C121.622 26.7196 122.184 26.3232 122.658 25.6624C123.133 25.0017 123.328 24.3423 123.246 23.6844C123.17 23.0316 122.827 22.4862 122.217 22.048C121.613 21.6149 120.987 21.4645 120.337 21.5966C119.694 21.7338 119.136 22.1328 118.662 22.7936C118.187 23.4543 117.988 24.1111 118.064 24.7638C118.146 25.4218 118.489 25.9672 119.093 26.4003C119.703 26.8385 120.33 26.9889 120.972 26.8517ZM115.912 25.0317C115.691 23.763 115.983 22.5685 116.787 21.4481C117.591 20.3277 118.627 19.6729 119.895 19.4836C121.175 19.2923 122.357 19.5859 123.441 20.3644C124.533 21.1479 125.186 22.1715 125.4 23.435C125.626 24.6966 125.337 25.8875 124.533 27.0079C123.729 28.1283 122.69 28.7867 121.417 28.9831C120.145 29.1796 118.966 28.8886 117.882 28.1101C116.797 27.3317 116.141 26.3056 115.912 25.0317Z" fill="#EEDB5F"/>
<path d="M125.823 34.6816L124.253 33.046L130.967 26.5982L132.538 28.2338L129.592 31.0628L134.669 30.4529L136.726 32.5955L130.715 33.0551L130.012 39.0433L127.991 36.939L128.789 31.8343L125.823 34.6816Z" fill="#EEDB5F"/>
<path d="M137.009 49.5556L135.886 47.5854L138.49 46.1016L142.379 40.1768L143.653 42.412L140.887 46.0486L145.419 45.5113L146.693 47.7465L139.613 48.0718L137.009 49.5556Z" fill="#EEDB5F"/>
<path d="M144.489 60.0178C145.097 60.282 145.785 60.2793 146.552 60.0097C147.32 59.7401 147.858 59.312 148.167 58.7255C148.48 58.1473 148.511 57.5037 148.262 56.7947C148.016 56.0941 147.589 55.6117 146.98 55.3474C146.375 55.0916 145.689 55.0985 144.922 55.3681C144.154 55.6377 143.614 56.0616 143.302 56.6398C142.993 57.2264 142.961 57.87 143.207 58.5706C143.457 59.2795 143.884 59.762 144.489 60.0178ZM141.386 55.6264C141.932 54.46 142.855 53.6483 144.157 53.1911C145.458 52.734 146.682 52.7911 147.829 53.3626C148.988 53.9394 149.788 54.8576 150.231 56.1171C150.676 57.3849 150.624 58.5978 150.075 59.7558C149.538 60.9192 148.618 61.7295 147.317 62.1867C146.016 62.6438 144.788 62.5881 143.632 62.0196C142.477 61.4511 141.678 60.5371 141.235 59.2776C140.793 58.0182 140.843 56.8011 141.386 55.6264Z" fill="#EEDB5F"/>
<path d="M147.328 66.3558L152.818 65.4993L153.167 67.7398L147.677 68.5963C147.127 68.6822 146.725 68.8837 146.47 69.2008C146.215 69.5179 146.129 69.9385 146.21 70.4626C146.292 70.9867 146.503 71.3654 146.844 71.5986C147.185 71.8317 147.63 71.9054 148.18 71.8195L153.67 70.963L154.02 73.2036L148.53 74.0601C147.718 74.1868 146.984 74.1043 146.33 73.8127C145.687 73.5284 145.184 73.1147 144.822 72.5717C144.461 72.0375 144.227 71.4297 144.121 70.7483C143.955 69.6827 144.146 68.7312 144.696 67.8939C145.245 67.0566 146.122 66.5439 147.328 66.3558Z" fill="#EEDB5F"/>
<path d="M148.622 80.7076L145.003 80.6492L145.039 78.3818L154.347 78.532L154.288 82.2048C154.27 83.2832 153.978 84.1185 153.412 84.7106C152.845 85.3027 152.169 85.5924 151.382 85.5797C150.843 85.571 150.319 85.399 149.812 85.0637C149.305 84.7283 148.951 84.1877 148.751 83.4418L144.922 85.6612L144.964 83.0093L148.618 80.9728L148.622 80.7076ZM152.587 80.7715L150.346 80.7354L150.323 82.1409C150.318 82.4856 150.415 82.7568 150.615 82.9546C150.815 83.1612 151.079 83.2671 151.406 83.2724C151.742 83.2778 152.017 83.1806 152.233 82.9807C152.448 82.7808 152.559 82.5129 152.564 82.177L152.587 80.7715Z" fill="#EEDB5F"/>
<path d="M151.171 102.375L149.41 101.929L150.015 99.5378L142.752 97.6982L143.309 95.5L150.572 97.3396L151.178 94.9486L152.939 95.3946L151.171 102.375Z" fill="#EEDB5F"/>
<path d="M148.886 108.613L140.207 105.246L141.028 103.132L149.706 106.499L148.886 108.613Z" fill="#EEDB5F"/>
<path d="M143.127 110.578C143.93 111.028 144.546 111.601 144.976 112.298C145.414 112.999 145.634 113.755 145.636 114.567C145.641 115.39 145.423 116.195 144.982 116.982C144.442 117.946 143.725 118.629 142.832 119.031C141.938 119.432 140.987 119.502 139.978 119.241L141.196 117.066C141.626 117.094 142.014 117.007 142.36 116.806C142.702 116.612 142.979 116.326 143.19 115.948C143.531 115.339 143.596 114.726 143.383 114.111C143.171 113.495 142.71 112.989 142 112.591C141.29 112.194 140.618 112.066 139.982 112.206C139.346 112.346 138.857 112.721 138.516 113.33C138.304 113.708 138.205 114.094 138.218 114.486C138.227 114.886 138.356 115.262 138.605 115.614L137.386 117.79C136.637 117.066 136.2 116.218 136.075 115.246C135.958 114.279 136.17 113.313 136.71 112.349C137.15 111.562 137.719 110.954 138.416 110.524C139.116 110.105 139.876 109.897 140.695 109.9C141.515 109.903 142.325 110.129 143.127 110.578Z" fill="#EEDB5F"/>
<path d="M129.102 123.329L134.263 123.551L131.102 120.922L132.552 119.179L139.71 125.13L138.261 126.874L135.12 124.263L136.277 129.26L134.573 131.31L133.371 125.62L127.33 125.46L129.102 123.329Z" fill="#EEDB5F"/>
<path d="M126.687 138.631L125.552 137.333L128.088 135.116L126.77 133.609L124.533 135.564L123.399 134.266L125.635 132.311L124.212 130.684L121.676 132.901L120.542 131.603L124.784 127.893L130.93 134.922L126.687 138.631Z" fill="#EEDB5F"/>
<path d="M122.407 139.728L123.34 141.178L117.162 145.155L116.229 143.705L118.37 142.327L114.264 135.949L116.171 134.721L120.277 141.099L122.407 139.728Z" fill="#EEDB5F"/>
<path d="M96.0032 145.151L98.2672 146.443L99.5372 144.199L101.342 145.218L100.075 147.475L102.241 148.711L101.197 150.523L99.0306 149.286L97.8199 151.446L96.0026 150.43L97.2389 148.264L94.9586 146.962L96.0032 145.151Z" fill="#EEDB5F"/>
<circle cx="81.0005" cy="80.3335" r="57" fill="#EEDB5F"/>
</svg>
