<svg width="161" height="159" viewBox="0 0 161 159" fill="none" xmlns="http://www.w3.org/2000/svg">
<path d="M59.1157 144.688L60.9364 143.66L62.2285 145.924L64.4635 144.638L65.4987 146.433L63.251 147.716L64.4966 149.898L62.6758 150.926L61.4395 148.76L59.286 150L58.2507 148.205L60.417 146.969L59.1157 144.688Z" fill="#FFBD5A"/>
<path d="M42.408 144.179L39.0206 141.969C38.2284 141.452 37.7246 140.849 37.5094 140.16C37.2867 139.466 37.3686 138.822 37.7551 138.23C38.3299 137.349 39.2334 137.089 40.4655 137.449C39.9881 137.032 39.7123 136.541 39.638 135.975C39.5637 135.409 39.686 134.882 40.0048 134.394C40.4106 133.772 40.9638 133.425 41.6644 133.355C42.3527 133.286 43.1042 133.518 43.9186 134.049L47.4948 136.383L42.408 144.179ZM41.4508 141.496L42.5523 139.808L41.3084 138.997C41.0344 138.818 40.7701 138.746 40.5154 138.78C40.2534 138.81 40.0329 138.961 39.8542 139.235C39.6706 139.517 39.6181 139.783 39.6966 140.035C39.7629 140.289 39.933 140.506 40.207 140.685L41.4508 141.496ZM44.6536 136.587L43.2209 135.653C42.9618 135.484 42.6964 135.421 42.4246 135.466C42.1529 135.51 41.9276 135.669 41.7489 135.943C41.5702 136.217 41.5091 136.489 41.5657 136.758C41.6223 137.027 41.7802 137.246 42.0393 137.415L43.4943 138.364L44.6536 136.587Z" fill="#FFBD5A"/>
<path d="M38.7405 130.19L32.6989 137.273L30.9737 135.801L37.0153 128.719L38.7405 130.19Z" fill="#FFBD5A"/>
<path d="M29.1553 131.861L27.8851 133.026L22.918 127.613L24.1882 126.448L25.9097 128.324L31.4985 123.195L33.0317 124.866L27.4428 129.995L29.1553 131.861Z" fill="#FFBD5A"/>
<path d="M26.2798 118.799C26.0187 120.06 25.3082 121.064 24.1483 121.81C22.9883 122.556 21.7842 122.784 20.5359 122.493C19.2753 122.201 18.284 121.493 17.5618 120.37C17.0023 119.5 16.7355 118.578 16.7613 117.605C16.7871 116.632 17.1229 115.749 17.7686 114.955L19.232 117.23C18.8507 117.896 18.8705 118.556 19.2914 119.21C19.7122 119.865 20.2491 120.25 20.9019 120.366C21.55 120.475 22.216 120.309 22.9001 119.869C23.5842 119.429 24.0111 118.892 24.181 118.257C24.346 117.615 24.2181 116.967 23.7973 116.312C23.3764 115.658 22.7841 115.366 22.0203 115.437L20.5569 113.162C21.547 112.903 22.4901 112.964 23.3863 113.344C24.2825 113.724 25.0103 114.349 25.5699 115.219C26.292 116.342 26.5286 117.535 26.2798 118.799Z" fill="#FFBD5A"/>
<path d="M16.6767 103.74C16.0574 103.503 15.3704 103.536 14.6158 103.839C13.8612 104.143 13.3425 104.594 13.0596 105.194C12.7734 105.786 12.7704 106.43 13.0508 107.127C13.3279 107.816 13.7761 108.279 14.3954 108.516C15.0115 108.745 15.6968 108.707 16.4514 108.404C17.206 108.1 17.7264 107.653 18.0126 107.061C18.2955 106.462 18.2984 105.817 18.0214 105.128C17.741 104.431 17.2928 103.968 16.6767 103.74ZM19.972 107.989C19.4784 109.178 18.5918 110.03 17.3123 110.545C16.0327 111.059 14.8072 111.057 13.6358 110.537C12.4528 110.012 11.6123 109.13 11.1142 107.892C10.6129 106.645 10.6106 105.431 11.1075 104.25C11.5929 103.063 12.4754 102.213 13.7549 101.699C15.0345 101.184 16.2641 101.185 17.4438 101.702C18.6234 102.218 19.4623 103.096 19.9604 104.334C20.4584 105.573 20.4623 106.791 19.972 107.989Z" fill="#FFBD5A"/>
<path d="M17.3213 96.691L8.28331 98.9215L7.73997 96.72L16.778 94.4894L17.3213 96.691Z" fill="#FFBD5A"/>
<path d="M6.04541 85.8878L5.80857 83.6325L15.0932 82.6575L15.3301 84.9127L9.8837 89.2982L15.7262 88.6846L15.963 90.9398L6.67837 91.9149L6.44153 89.6597L11.8879 85.2742L6.04541 85.8878Z" fill="#FFBD5A"/>
<path d="M14.1945 73.3089C13.1618 74.0784 11.9641 74.3568 10.6015 74.1442C9.23883 73.9316 8.18725 73.3023 7.44675 72.2562C6.69887 71.2 6.42783 70.0124 6.63361 68.6935C6.79305 67.6715 7.20556 66.8053 7.87114 66.0949C8.53673 65.3845 9.37447 64.947 10.3844 64.7825L9.96736 67.4554C9.24026 67.6998 8.81675 68.2064 8.69682 68.9751C8.5769 69.7438 8.7224 70.3883 9.13332 70.9088C9.5456 71.4205 10.1535 71.739 10.9572 71.8644C11.7608 71.9897 12.4369 71.8715 12.9854 71.5097C13.5354 71.1392 13.8703 70.5696 13.9902 69.8009C14.1101 69.0323 13.8611 68.4208 13.243 67.9664L13.66 65.2935C14.5718 65.7579 15.2364 66.4298 15.654 67.3091C16.0715 68.1885 16.2006 69.1392 16.0412 70.1612C15.8354 71.4802 15.2198 72.5294 14.1945 73.3089Z" fill="#FFBD5A"/>
<path d="M17.0168 55.6724C16.7111 55.0839 16.1754 54.6526 15.4097 54.3783C14.644 54.104 13.9562 54.0971 13.3464 54.3576C12.7396 54.6097 12.3095 55.0895 12.0561 55.797C11.8057 56.4961 11.8333 57.1399 12.139 57.7283C12.4477 58.3084 12.9849 58.7356 13.7506 59.0099C14.5163 59.2842 15.2025 59.2952 15.8093 59.0431C16.4191 58.7826 16.8492 58.3028 17.0997 57.6037C17.3531 56.8963 17.3255 56.2525 17.0168 55.6724ZM16.6584 61.0376C15.4994 61.599 14.2708 61.6472 12.9724 61.1821C11.6741 60.717 10.7596 59.9012 10.2291 58.7345C9.69322 57.5565 9.65037 56.3391 10.1006 55.0824C10.5537 53.8173 11.3583 52.9082 12.5143 52.3551C13.665 51.7906 14.8895 51.741 16.1878 52.206C17.4862 52.6711 18.4048 53.4885 18.9436 54.6582C19.4825 55.8278 19.5268 57.041 19.0766 58.2978C18.6265 59.5545 17.8204 60.4678 16.6584 61.0376Z" fill="#FFBD5A"/>
<path d="M18.8069 48.9622L14.0047 46.1673L15.1453 44.2074L19.9475 47.0023C20.4289 47.2825 20.8684 47.3797 21.2661 47.2941C21.6637 47.2084 21.9959 46.9363 22.2627 46.4779C22.5296 46.0195 22.6042 45.5924 22.4867 45.1967C22.3693 44.801 22.0698 44.4631 21.5885 44.1829L16.7863 41.388L17.9269 39.4281L22.7291 42.223C23.4397 42.6366 23.957 43.1627 24.2809 43.8013C24.6016 44.4278 24.7314 45.0659 24.6703 45.7157C24.6137 46.3578 24.4119 46.9769 24.065 47.5729C23.5225 48.5051 22.7741 49.1231 21.8199 49.4269C20.8656 49.7308 19.8613 49.5759 18.8069 48.9622Z" fill="#FFBD5A"/>
<path d="M24.9719 30.3801L26.4451 28.6562L33.5423 34.7213L32.0691 36.4452L25.1392 35.5119L29.6052 39.3284L28.132 41.0523L21.0348 34.9873L22.508 33.2634L29.4379 34.1966L24.9719 30.3801Z" fill="#FFBD5A"/>
<path d="M30.8153 26.8639L29.7103 25.5407L35.349 20.8316L36.4541 22.1547L34.4998 23.7868L39.362 29.6088L37.6215 31.0623L32.7593 25.2404L30.8153 26.8639Z" fill="#FFBD5A"/>
<path d="M44.0341 21.8731L45.8864 24.9836L43.9381 26.1438L39.175 18.1455L42.331 16.266C43.2577 15.7142 44.1218 15.5237 44.9233 15.6947C45.7248 15.8656 46.3268 16.2891 46.7294 16.9651C47.0053 17.4285 47.1339 17.9641 47.1152 18.572C47.0965 19.1799 46.8225 19.765 46.293 20.3273L50.1932 22.4188L47.9145 23.7758L44.262 21.7374L44.0341 21.8731ZM42.0053 18.4664L43.152 20.392L44.3598 19.6727C44.656 19.4963 44.8356 19.271 44.8987 18.9968C44.9694 18.718 44.921 18.4382 44.7537 18.1571C44.5818 17.8685 44.3542 17.685 44.0709 17.6068C43.7877 17.5285 43.5017 17.5753 43.2131 17.7472L42.0053 18.4664Z" fill="#FFBD5A"/>
<path d="M57.6613 19.2415L55.5466 20.0599L54.4649 17.265L49.1814 12.5413L51.5806 11.6128L54.7674 14.887L54.9073 10.3253L57.3065 9.39674L56.5796 16.4465L57.6613 19.2415Z" fill="#FFBD5A"/>
<path d="M79.5819 12.2999L78.1797 13.8512L76.238 12.112L74.5245 14.0389L72.9747 12.6633L74.7014 10.7355L72.8296 9.05882L74.2318 7.50753L76.0896 9.17174L77.7406 7.31458L79.2904 8.69027L77.6262 10.5481L79.5819 12.2999Z" fill="#FFBD5A"/>
<path d="M95.5939 7.49946L99.5063 8.52498C100.421 8.76482 101.09 9.1777 101.512 9.76361C101.943 10.3518 102.069 10.9879 101.889 11.672C101.623 12.6897 100.848 13.2223 99.5649 13.2699C100.15 13.5146 100.567 13.8935 100.816 14.4067C101.065 14.9199 101.116 15.4587 100.968 16.0231C100.78 16.7414 100.365 17.2449 99.7223 17.5335C99.0908 17.8158 98.3047 17.8337 97.364 17.5871L93.2335 16.5044L95.5939 7.49946ZM97.3503 9.74201L96.8392 11.6918L98.2759 12.0684C98.5923 12.1513 98.8659 12.1362 99.0966 12.023C99.3359 11.9121 99.497 11.6984 99.5799 11.382C99.6651 11.0571 99.6306 10.7876 99.4765 10.5735C99.3332 10.3532 99.1034 10.2015 98.787 10.1186L97.3503 9.74201ZM95.8641 15.4118L97.5189 15.8455C97.8182 15.924 98.0897 15.8992 98.3335 15.7712C98.5773 15.6432 98.7406 15.4209 98.8235 15.1045C98.9065 14.7881 98.8785 14.5112 98.7397 14.2737C98.6009 14.0363 98.3818 13.8783 98.0825 13.7999L96.4021 13.3594L95.8641 15.4118Z" fill="#FFBD5A"/>
<path d="M110.104 19.5187C110.717 19.2667 111.195 18.7717 111.536 18.0335C111.878 17.2954 111.946 16.611 111.741 15.9804C111.544 15.3535 111.104 14.8822 110.422 14.5667C109.748 14.2549 109.105 14.2249 108.491 14.4769C107.886 14.7326 107.413 15.2295 107.071 15.9676C106.73 16.7058 106.657 17.3883 106.854 18.0152C107.059 18.6458 107.499 19.1171 108.173 19.4289C108.855 19.7444 109.498 19.7744 110.104 19.5187ZM104.792 18.6829C104.336 17.4784 104.398 16.2504 104.977 14.9987C105.556 13.747 106.45 12.9091 107.66 12.4848C108.881 12.0562 110.097 12.1222 111.309 12.6827C112.528 13.247 113.362 14.1295 113.81 15.3303C114.269 16.5267 114.209 17.7508 113.63 19.0024C113.051 20.2541 112.155 21.0961 110.942 21.5284C109.729 21.9607 108.517 21.8966 107.305 21.336C106.093 20.7754 105.256 19.8911 104.792 18.6829Z" fill="#FFBD5A"/>
<path d="M120.972 26.2462C121.622 26.1141 122.184 25.7177 122.658 25.0569C123.133 24.3962 123.328 23.7369 123.246 23.0789C123.17 22.4262 122.827 21.8807 122.217 21.4425C121.613 21.0095 120.987 20.859 120.337 20.9911C119.694 21.1284 119.136 21.5274 118.662 22.1881C118.187 22.8488 117.988 23.5056 118.064 24.1584C118.146 24.8163 118.489 25.3618 119.093 25.7948C119.703 26.233 120.33 26.3835 120.972 26.2462ZM115.912 24.4262C115.691 23.1575 115.983 21.963 116.787 20.8426C117.591 19.7222 118.627 19.0674 119.895 18.8782C121.175 18.6869 122.357 18.9805 123.441 19.7589C124.533 20.5425 125.186 21.566 125.4 22.8296C125.626 24.0911 125.337 25.282 124.533 26.4024C123.729 27.5228 122.69 28.1812 121.417 28.3777C120.145 28.5741 118.966 28.2831 117.882 27.5047C116.797 26.7262 116.141 25.7001 115.912 24.4262Z" fill="#FFBD5A"/>
<path d="M125.823 34.0761L124.253 32.4405L130.967 25.9927L132.538 27.6284L129.592 30.4573L134.669 29.8475L136.726 31.99L130.715 32.4496L130.012 38.4378L127.991 36.3335L128.789 31.2288L125.823 34.0761Z" fill="#FFBD5A"/>
<path d="M137.009 48.9501L135.886 46.9799L138.49 45.4961L142.379 39.5713L143.653 41.8065L140.887 45.4431L145.419 44.9059L146.693 47.1411L139.613 47.4664L137.009 48.9501Z" fill="#FFBD5A"/>
<path d="M144.489 59.4124C145.097 59.6766 145.785 59.6739 146.552 59.4042C147.32 59.1346 147.858 58.7066 148.167 58.12C148.48 57.5418 148.511 56.8982 148.262 56.1892C148.016 55.4886 147.589 55.0062 146.98 54.742C146.375 54.4861 145.689 54.493 144.922 54.7626C144.154 55.0322 143.614 55.4561 143.302 56.0343C142.993 56.6209 142.961 57.2645 143.207 57.9651C143.457 58.6741 143.884 59.1565 144.489 59.4124ZM141.386 55.0209C141.932 53.8546 142.855 53.0428 144.157 52.5857C145.458 52.1285 146.682 52.1856 147.829 52.7571C148.988 53.334 149.788 54.2521 150.231 55.5116C150.676 56.7794 150.624 57.9923 150.075 59.1503C149.538 60.3137 148.618 61.124 147.317 61.5812C146.016 62.0384 144.788 61.9827 143.632 61.4141C142.477 60.8456 141.678 59.9316 141.235 58.6722C140.793 57.4127 140.843 56.1956 141.386 55.0209Z" fill="#FFBD5A"/>
<path d="M147.328 65.7504L152.818 64.8939L153.167 67.1344L147.677 67.9909C147.127 68.0767 146.725 68.2782 146.47 68.5953C146.215 68.9125 146.129 69.3331 146.21 69.8572C146.292 70.3813 146.503 70.7599 146.844 70.9931C147.185 71.2263 147.63 71.2999 148.18 71.2141L153.67 70.3576L154.02 72.5981L148.53 73.4546C147.718 73.5813 146.984 73.4989 146.33 73.2072C145.687 72.9229 145.184 72.5093 144.822 71.9663C144.461 71.432 144.227 70.8242 144.121 70.1429C143.955 69.0772 144.146 68.1257 144.696 67.2884C145.245 66.4511 146.122 65.9384 147.328 65.7504Z" fill="#FFBD5A"/>
<path d="M148.622 80.1021L145.003 80.0437L145.039 77.7764L154.347 77.9266L154.288 81.5994C154.27 82.6778 153.978 83.513 153.412 84.1051C152.845 84.6972 152.169 84.9869 151.382 84.9742C150.843 84.9655 150.319 84.7935 149.812 84.4582C149.305 84.1229 148.951 83.5822 148.751 82.8363L144.922 85.0557L144.964 82.4038L148.618 80.3673L148.622 80.1021ZM152.587 80.1661L150.346 80.1299L150.323 81.5354C150.318 81.8801 150.415 82.1514 150.615 82.3491C150.815 82.5557 151.079 82.6616 151.406 82.6669C151.742 82.6723 152.017 82.5751 152.233 82.3752C152.448 82.1753 152.559 81.9074 152.564 81.5715L152.587 80.1661Z" fill="#FFBD5A"/>
<path d="M151.171 101.769L149.41 101.323L150.015 98.9323L142.752 97.0927L143.309 94.8945L150.572 96.7341L151.178 94.3431L152.939 94.7892L151.171 101.769Z" fill="#FFBD5A"/>
<path d="M148.886 108.008L140.207 104.64L141.028 102.526L149.706 105.894L148.886 108.008Z" fill="#FFBD5A"/>
<path d="M143.127 109.973C143.93 110.422 144.546 110.995 144.976 111.692C145.414 112.394 145.634 113.15 145.636 113.961C145.641 114.785 145.423 115.59 144.982 116.377C144.442 117.341 143.725 118.024 142.832 118.425C141.938 118.826 140.987 118.897 139.978 118.636L141.196 116.46C141.626 116.489 142.014 116.402 142.36 116.2C142.702 116.007 142.979 115.721 143.19 115.343C143.531 114.733 143.596 114.121 143.383 113.505C143.171 112.89 142.71 112.383 142 111.986C141.29 111.589 140.618 111.46 139.982 111.6C139.346 111.741 138.857 112.116 138.516 112.725C138.304 113.103 138.205 113.488 138.218 113.881C138.227 114.281 138.356 114.657 138.605 115.009L137.386 117.184C136.637 116.46 136.2 115.613 136.075 114.641C135.958 113.674 136.17 112.708 136.71 111.744C137.15 110.957 137.719 110.348 138.416 109.918C139.116 109.5 139.876 109.292 140.695 109.295C141.515 109.298 142.325 109.524 143.127 109.973Z" fill="#FFBD5A"/>
<path d="M129.102 122.723L134.263 122.945L131.102 120.317L132.552 118.573L139.71 124.525L138.261 126.269L135.12 123.657L136.277 128.655L134.573 130.704L133.371 125.014L127.33 124.854L129.102 122.723Z" fill="#FFBD5A"/>
<path d="M126.687 138.026L125.552 136.728L128.088 134.511L126.77 133.003L124.533 134.959L123.399 133.661L125.635 131.706L124.212 130.078L121.676 132.296L120.542 130.998L124.784 127.288L130.93 134.316L126.687 138.026Z" fill="#FFBD5A"/>
<path d="M122.407 139.123L123.34 140.572L117.162 144.549L116.229 143.1L118.37 141.721L114.264 135.343L116.171 134.116L120.277 140.494L122.407 139.123Z" fill="#FFBD5A"/>
<path d="M96.0032 144.545L98.2672 145.837L99.5372 143.593L101.342 144.612L100.075 146.869L102.241 148.106L101.197 149.917L99.0306 148.681L97.8199 150.84L96.0026 149.825L97.2389 147.658L94.9586 146.357L96.0032 144.545Z" fill="#FFBD5A"/>
<circle cx="81.0005" cy="79.728" r="57" fill="#FFBD5A"/>
</svg>
