<svg width="161" height="159" viewBox="0 0 161 159" fill="none" xmlns="http://www.w3.org/2000/svg">
<path d="M68.2662 68.2757L90.5369 66.2137L69.8435 93.4592C69.501 93.8716 69.5576 94.4836 69.97 94.8262C70.3823 95.1687 70.9944 95.1121 71.3369 94.6997L92.0303 67.4541L94.0894 89.7251C94.148 90.258 94.6276 90.6424 95.1605 90.5837C95.6803 90.5265 96.0613 90.0678 96.0222 89.5463L93.7458 64.9423C93.6971 64.4084 93.2248 64.0151 92.6909 64.0638L92.6885 64.064L68.0844 66.3405C67.5515 66.3991 67.1671 66.8787 67.2257 67.4115C67.2829 67.9314 67.7417 68.3124 68.2632 68.2733L68.2662 68.2757Z" fill="black"/>
</svg>
